<svg width="212" height="80" viewBox="0 0 212 80" fill="none" xmlns="http://www.w3.org/2000/svg">
<g clip-path="url(#clip0_4154_2349)">
<mask id="mask0_4154_2349" style="mask-type:luminance" maskUnits="userSpaceOnUse" x="0" y="0" width="212" height="80">
<path d="M211.334 0H0V80H211.334V0Z" fill="white"/>
</mask>
<g mask="url(#mask0_4154_2349)">
<path fill-rule="evenodd" clip-rule="evenodd" d="M117.487 0.958045C117.49 1.48554 117.64 4.91001 117.82 8.56898C118.001 12.2279 118.151 15.6514 118.154 16.1765L118.158 17.1313L124.319 17.1915L130.48 17.251L129.144 22.2123C128.41 24.9411 127.786 27.1986 127.757 27.2293C127.729 27.2605 126.018 26.9452 123.955 26.5296L120.205 25.7738L120.089 26.699C120.025 27.2081 119.406 37.4681 118.714 49.4989L117.454 71.3731L116.15 73.5154C113.931 77.1587 112.417 79.5761 112.379 79.5333C112.36 79.5098 111.215 77.679 109.836 75.4632L107.329 71.4349L106.101 50.4319C105.425 38.8802 104.81 28.6073 104.734 27.603L104.594 25.7771L100.852 26.5313C98.7936 26.9463 97.0727 27.2482 97.0273 27.2025C96.9818 27.1574 96.3991 25.0836 95.7318 22.5944C95.0655 20.1051 94.4536 17.8593 94.3718 17.6036C94.2254 17.1413 94.2636 17.1385 100.402 17.1385H106.58L106.85 10.4294C106.998 6.73977 107.182 2.88362 107.258 1.8604L107.396 0H112.439H117.482L117.487 0.958045ZM41.0731 29.0902C41.5777 30.9957 41.5811 31.1227 41.654 50.3238L41.7275 69.6408L40.5355 69.8981C13.919 75.6347 0 70.605 0 55.2495C0 41.9844 11.9372 34.9889 30.5284 37.3595L31.6357 37.501L31.4909 35.156C31.1767 30.0761 29.8862 27.642 26.7145 26.147C22.483 24.1524 14.8425 24.3763 6.61223 26.7368C5.73215 26.9892 4.07895 21.5562 4.3129 19.1799C4.50061 17.2761 17.5379 15.3867 24.5785 16.2434C33.7741 17.3619 39.0567 21.4765 41.0731 29.0902ZM210.566 29.0902C211.071 30.9957 211.075 31.1227 211.147 50.3238L211.221 69.6408L210.029 69.8981C183.413 75.6347 169.494 70.605 169.494 55.2495C169.494 41.9844 181.431 34.9889 200.022 37.3595L201.129 37.501L200.985 35.156C200.67 30.0761 199.38 27.642 196.208 26.147C191.976 24.1524 184.336 24.3763 176.105 26.7368C175.225 26.9892 173.573 21.5562 173.806 19.1799C173.995 17.2761 187.032 15.3867 194.072 16.2434C203.267 17.3619 208.55 21.4765 210.566 29.0902ZM87.3324 18.7054C87.7407 19.0914 86.1711 25.4084 85.4074 26.4528C85.1323 26.8282 85.0493 26.8248 83.7664 26.382C71.377 22.1048 61.3018 25.092 63.4714 32.3994C64.2779 35.1148 66.1907 36.3257 73.7331 38.8952C84.2566 42.4806 87.6114 45.3269 88.7562 51.6412C91.6164 67.415 75.1295 76.2135 53.55 70.4284C52.3101 70.0959 51.2646 69.8035 51.2278 69.7789C50.8892 69.5567 53.0375 61.8734 53.5929 61.3175C53.6965 61.2145 54.4903 61.3882 55.3569 61.7045C66.76 65.8665 78.4688 62.8225 78.4688 55.6962C78.4688 51.6824 76.5215 49.7078 70.4635 47.5778C55.8989 42.4573 52.0828 38.8423 52.6031 30.6559C53.2715 20.1508 62.4805 14.6782 76.8429 16.2506C80.0128 16.5976 86.7782 18.1807 87.3324 18.7054ZM146.565 17.2661C146.801 17.5023 147.348 20.9362 147.601 23.7691L147.76 25.5515L148.237 24.7706C150.278 21.4353 153.999 18.6179 157.778 17.5474C159.503 17.0589 165.455 16.777 165.843 17.1653C166.267 17.5891 166.467 21.457 166.196 23.9757L165.913 26.6098H163.108C156.623 26.6098 152.738 28.6842 150.441 33.3753C148.462 37.413 148.523 36.7869 148.385 54.8952L148.264 70.8902L147.587 71.0818C146.685 71.338 141.211 71.4004 139.299 71.177L137.776 70.9988L137.834 44.1249L137.89 17.251L138.793 17.1006C140.114 16.8806 146.311 17.0126 146.565 17.2661ZM30.495 46.5975L31.3433 46.73L31.2843 54.5254L31.2246 62.3206L30.5852 62.4916C27.9194 63.204 20.1881 63.3895 17.6437 62.8019C9.693 60.9649 9.33873 50.0447 17.138 47.2335C19.7397 46.2955 26.5029 45.9736 30.495 46.5975ZM199.988 46.5975L200.837 46.73L200.778 54.5254L200.718 62.3206L200.079 62.4916C197.413 63.204 189.682 63.3895 187.137 62.8019C179.186 60.9649 178.833 50.0447 186.632 47.2335C189.234 46.2955 195.996 45.9736 199.988 46.5975Z" fill="white"/>
</g>
</g>
<defs>
<clipPath id="clip0_4154_2349">
<rect width="211.818" height="80" fill="white"/>
</clipPath>
</defs>
</svg>
