<svg width="213" height="80" viewBox="0 0 213 80" fill="none" xmlns="http://www.w3.org/2000/svg">
<path fill-rule="evenodd" clip-rule="evenodd" d="M118.176 0.963661C118.179 1.49424 118.33 4.93879 118.511 8.61921C118.693 12.2996 118.843 15.7431 118.846 16.2714L118.851 17.2317L125.048 17.2922L131.245 17.3521L129.901 22.3425C129.163 25.0873 128.535 27.3581 128.506 27.3889C128.478 27.4202 126.757 27.1031 124.682 26.6851L120.91 25.9249L120.793 26.8555C120.729 27.3676 120.106 37.6877 119.409 49.789L118.142 71.7914L116.831 73.9463C114.599 77.611 113.076 80.0425 113.038 79.9994C113.019 79.9758 111.867 78.1343 110.48 75.9055L107.958 71.8536L106.723 50.7275C106.043 39.1081 105.424 28.7749 105.347 27.7648L105.207 25.9282L101.443 26.6868C99.3727 27.1042 97.6417 27.4079 97.596 27.362C97.5502 27.3165 96.9641 25.2307 96.2929 22.7268C95.6226 20.2229 95.0072 17.964 94.9249 17.7068C94.7777 17.2417 94.8161 17.239 100.99 17.239H107.205L107.476 10.4905C107.625 6.77928 107.81 2.90052 107.887 1.8713L108.026 0H113.098H118.17L118.176 0.963661ZM41.3138 29.2607C41.8214 31.1774 41.8248 31.3051 41.8981 50.6188L41.9721 70.049L40.7731 70.3078C14.0006 76.078 0 71.0188 0 55.5733C0 42.2304 12.0071 35.194 30.7073 37.5785L31.8212 37.7208L31.6755 35.3621C31.3595 30.2524 30.0613 27.804 26.8711 26.3003C22.6148 24.2939 14.9295 24.5191 6.65098 26.8935C5.76575 27.1474 4.10286 21.6825 4.33818 19.2923C4.52699 17.3774 17.6407 15.4769 24.7225 16.3386C33.972 17.4637 39.2856 21.6023 41.3138 29.2607ZM211.801 29.2607C212.308 31.1774 212.312 31.3051 212.385 50.6188L212.459 70.049L211.26 70.3078C184.488 76.078 170.487 71.0188 170.487 55.5733C170.487 42.2304 182.494 35.194 201.194 37.5785L202.308 37.7208L202.163 35.3621C201.846 30.2524 200.549 27.804 197.358 26.3003C193.102 24.2939 185.417 24.5191 177.138 26.8935C176.252 27.1474 174.59 21.6825 174.825 19.2923C175.014 17.3774 188.128 15.4769 195.209 16.3386C204.459 17.4637 209.772 21.6023 211.801 29.2607ZM87.8443 18.815C88.255 19.2033 86.6761 25.5573 85.908 26.6079C85.6312 26.9854 85.5478 26.982 84.2574 26.5366C71.7953 22.2344 61.6611 25.2391 63.8434 32.5893C64.6546 35.3206 66.5787 36.5386 74.1653 39.1232C84.7505 42.7296 88.125 45.5926 89.2764 51.9439C92.1533 67.8101 75.5699 76.6602 53.8639 70.8412C52.6167 70.5068 51.5651 70.2126 51.5281 70.1879C51.1875 69.9644 53.3484 62.236 53.907 61.6769C54.0112 61.5732 54.8096 61.748 55.6814 62.0662C67.1513 66.2526 78.9287 63.1907 78.9287 56.0226C78.9287 51.9853 76.97 49.9992 70.8765 47.8567C56.2265 42.7061 52.3881 39.0699 52.9114 30.8356C53.5838 20.2689 62.8467 14.7642 77.2933 16.3459C80.4818 16.6949 87.2868 18.2873 87.8443 18.815ZM147.424 17.3673C147.661 17.6049 148.212 21.0589 148.466 23.9084L148.626 25.7013L149.106 24.9158C151.159 21.5609 154.902 18.727 158.703 17.6502C160.438 17.1589 166.424 16.8753 166.815 17.2659C167.242 17.6922 167.443 21.5828 167.17 24.1163L166.885 26.7658H164.064C157.541 26.7658 153.633 28.8523 151.323 33.5709C149.332 37.6323 149.393 37.0025 149.254 55.2169L149.133 71.3057L148.452 71.4984C147.545 71.7561 142.039 71.8189 140.116 71.5942L138.584 71.415L138.642 44.3835L138.698 17.3521L139.606 17.2009C140.935 16.9796 147.168 17.1124 147.424 17.3673ZM30.6737 46.8706L31.527 47.0039L31.4676 54.845L31.4076 62.6859L30.7644 62.8579C28.083 63.5745 20.3064 63.7611 17.7471 63.17C9.74981 61.3222 9.39346 50.3381 17.2384 47.5104C19.8554 46.5669 26.6582 46.2431 30.6737 46.8706ZM201.16 46.8706L202.014 47.0039L201.955 54.845L201.895 62.6859L201.252 62.8579C198.57 63.5745 190.794 63.7611 188.234 63.17C180.237 61.3222 179.881 50.3381 187.726 47.5104C190.343 46.5669 197.145 46.2431 201.16 46.8706Z" fill="white"/>
</svg>
