<svg width="387" height="80" viewBox="0 0 387 80" fill="none" xmlns="http://www.w3.org/2000/svg">
<mask id="mask0_4154_2328" style="mask-type:luminance" maskUnits="userSpaceOnUse" x="0" y="0" width="387" height="80">
<path d="M386.152 0H0V80H386.152V0Z" fill="white"/>
</mask>
<g mask="url(#mask0_4154_2328)">
<path d="M94.389 0H51.3042L82.2167 39.3373L51.3042 78.6747H94.389L125.298 39.3373L94.389 0Z" fill="white"/>
<path d="M61.9749 39.2525C61.9749 18.1916 45.1901 0.581035 24.2664 0H0V78.6715H24.2664C45.1901 78.0904 61.9749 60.3165 61.9749 39.2525Z" fill="white"/>
<path d="M140.999 0.161621H163.274C178.887 0.161621 189.587 9.246 189.587 23.7164C189.587 38.1868 178.887 47.2711 163.274 47.2711H140.999V0.161621ZM162.735 36.6362C170.745 36.6362 176.125 31.8575 176.125 23.7164C176.125 15.5754 170.739 10.7965 162.735 10.7965H154.323V36.6396H162.735V36.6362Z" fill="white"/>
<path d="M237.314 0.161621V47.2679H223.989V28.8967H205.82V47.2679H192.496V0.161621H205.82V17.8603H223.989V0.161621H237.314Z" fill="white"/>
<path d="M261.749 34.7495H254.483V47.2679H241.159V0.161621H262.693C275.548 0.161621 283.623 6.82392 283.623 17.5894C283.623 24.5194 280.258 29.6378 274.402 32.4612L284.564 47.2647H270.295L261.749 34.7463V34.7495ZM261.886 10.6594H254.483V24.4541H261.886C267.404 24.4541 270.164 21.8949 270.164 17.5894C270.164 13.2839 267.404 10.6594 261.886 10.6594Z" fill="white"/>
<path d="M286.149 25.3268V0.322754H299.474V24.9253C299.474 33.0012 302.839 36.2326 308.426 36.2326C314.01 36.2326 317.306 33.0012 317.306 24.9253V0.322754H330.429V25.3301C330.429 39.3958 322.221 47.2692 308.287 47.2692C294.357 47.2692 286.146 39.3958 286.146 25.3301L286.149 25.3268Z" fill="white"/>
<path d="M386.154 0.161621L365.964 47.2679H352.842L332.716 0.161621H347.122L359.908 30.8487L372.964 0.161621H386.154Z" fill="white"/>
<path d="M146.052 75.6639V61.8561H148.095V75.6639H146.052ZM141.42 62.274V60.4396H152.724V62.274H141.42ZM156.22 75.6639V64.5263H157.806V69.1159H157.722C157.722 67.4903 158.077 66.2988 158.786 65.5481C159.507 64.7841 160.587 64.4023 162.017 64.4023H162.393V66.1943H161.684C160.571 66.1943 159.716 66.4948 159.119 67.0921C158.521 67.6764 158.221 68.5249 158.221 69.6383V75.6673H156.22V75.6639ZM170.302 75.9969C168.98 75.9969 167.965 75.566 167.256 74.7041C166.548 73.8425 166.192 72.5988 166.192 70.97V64.5036H168.193V71.3649C168.193 72.2399 168.428 72.9284 168.902 73.4313C169.375 73.9175 170.015 74.1623 170.821 74.1623C171.627 74.1623 172.335 73.898 172.864 73.3692C173.393 72.8273 173.658 72.0897 173.658 71.1593V64.5068H175.659V75.6673H174.072V70.8916H174.323C174.323 71.9884 174.176 72.922 173.886 73.6857C173.595 74.4367 173.155 75.0143 172.571 75.4159C171.999 75.8044 171.271 76.0001 170.38 76.0001H170.295L170.302 75.9969ZM181.335 75.6639V60.4361H183.336V75.6639H181.335ZM179.791 62.0228V60.4361H183.336V62.0228H179.791ZM188.095 80.002V78.2068H189.701C190.175 78.2068 190.57 78.1447 190.89 78.0207C191.222 77.9097 191.493 77.714 191.702 77.4364C191.924 77.1591 192.107 76.79 192.244 76.3297L195.75 64.5231H197.712L194 76.8521C193.778 77.5897 193.465 78.1873 193.06 78.6441C192.659 79.1175 192.163 79.4569 191.578 79.666C191.007 79.8879 190.341 79.9988 189.577 79.9988H188.095V80.002ZM191.496 75.4127V73.7447H193.915V75.4127H191.496ZM191.288 75.4127L187.305 64.5231H189.349L193.165 75.4127H191.288ZM211.591 75.6639V61.8561H213.635V75.6639H211.591ZM206.959 62.274V60.4396H218.263V62.274H206.959ZM221.759 75.6639V64.5263H223.346V69.1159H223.261C223.261 67.4903 223.617 66.2988 224.325 65.5481C225.05 64.7841 226.127 64.4023 227.56 64.4023H227.935V66.1943H227.227C226.114 66.1943 225.259 66.4948 224.661 67.0921C224.064 67.6764 223.764 68.5249 223.764 69.6383V75.6673H221.763L221.759 75.6639ZM238.681 75.6639V72.3279H238.348V68.4695C238.348 67.7057 238.146 67.1279 237.744 66.7396C237.356 66.3511 236.778 66.1553 236.014 66.1553C235.583 66.1553 235.139 66.1617 234.679 66.1748C234.219 66.1879 233.782 66.2041 233.364 66.2172C232.946 66.2303 232.584 66.2532 232.28 66.2793V64.5263C232.587 64.4969 232.907 64.4775 233.24 64.4644C233.586 64.4351 233.942 64.422 234.304 64.422C234.666 64.4089 235.012 64.4023 235.345 64.4023C236.484 64.4023 237.418 64.5428 238.139 64.8201C238.864 65.0847 239.399 65.522 239.745 66.1356C240.091 66.746 240.268 67.5751 240.268 68.6164V75.6673H238.681V75.6639ZM235.032 75.9577C234.196 75.9577 233.475 75.8175 232.861 75.5399C232.264 75.246 231.797 74.8316 231.464 74.2897C231.144 73.7479 230.984 73.0951 230.984 72.3279C230.984 71.5607 231.157 70.8753 231.506 70.3465C231.869 69.8177 232.391 69.4228 233.07 69.1583C233.752 68.8809 234.571 68.7404 235.531 68.7404H238.557V70.242H235.45C234.643 70.242 234.023 70.438 233.592 70.8263C233.161 71.2148 232.946 71.7175 232.946 72.3279C232.946 72.9383 233.161 73.4345 233.592 73.8097C234.023 74.1852 234.643 74.3745 235.45 74.3745C235.923 74.3745 236.373 74.2897 236.804 74.1233C237.235 73.9436 237.591 73.65 237.868 73.2484C238.162 72.8305 238.319 72.2625 238.348 71.538L238.89 72.3311C238.822 73.1244 238.626 73.7903 238.306 74.3321C237.999 74.8609 237.568 75.2625 237.013 75.5431C236.471 75.8207 235.812 75.9609 235.032 75.9609V75.9577ZM245.611 75.6639V64.5263H247.198V69.302H246.946C246.946 68.202 247.093 67.278 247.384 66.5273C247.69 65.7636 248.147 65.1857 248.761 64.7972C249.372 64.3924 250.145 64.1935 251.075 64.1935H251.16C252.564 64.1935 253.602 64.6308 254.268 65.5089C254.95 66.3836 255.29 67.6503 255.29 69.3052V75.6673H253.289V68.8873C253.289 68.0257 253.044 67.3369 252.558 66.8212C252.071 66.2924 251.402 66.0279 250.556 66.0279C249.711 66.0279 248.97 66.2988 248.428 66.8407C247.886 67.3825 247.615 68.1073 247.615 69.0113V75.6639H245.614H245.611ZM264.273 75.9969C262.814 75.9969 261.678 75.6836 260.871 75.0567C260.078 74.43 259.667 73.5748 259.641 72.4911H261.518C261.547 72.922 261.763 73.3332 262.164 73.7217C262.582 74.0972 263.284 74.2865 264.27 74.2865C265.161 74.2865 265.84 74.1135 266.313 73.7641C266.786 73.4017 267.02 72.9644 267.02 72.4487C267.02 71.9884 266.847 71.6359 266.498 71.3844C266.153 71.1201 265.588 70.9471 264.808 70.8623L263.597 70.7383C262.539 70.6273 261.678 70.3137 261.012 69.8015C260.346 69.2727 260.01 68.5348 260.01 67.5916C260.01 66.8831 260.189 66.2759 260.552 65.7767C260.914 65.2609 261.413 64.8724 262.053 64.6079C262.693 64.3305 263.431 64.1903 264.263 64.1903C265.513 64.1903 266.527 64.4676 267.308 65.0257C268.09 65.5807 268.49 66.4097 268.519 67.5065H266.642C266.628 67.0628 266.421 66.6873 266.016 66.3804C265.627 66.0607 265.043 65.9007 264.263 65.9007C263.483 65.9007 262.892 66.0607 262.491 66.3804C262.089 66.7004 261.887 67.1052 261.887 67.5916C261.887 68.0092 262.027 68.3423 262.304 68.5937C262.595 68.8449 263.068 69.0049 263.724 69.0735L264.935 69.1975C266.13 69.3215 267.09 69.6577 267.815 70.1996C268.54 70.7284 268.898 71.4791 268.898 72.4519C268.898 73.1473 268.695 73.7673 268.295 74.3092C267.906 74.838 267.364 75.2559 266.668 75.5596C265.974 75.8532 265.174 75.9969 264.27 75.9969H264.273ZM273.764 75.6639V63.9617C273.764 62.7244 274.092 61.8137 274.746 61.2295C275.396 60.6452 276.356 60.3545 277.623 60.3545H279.002V62.0228H277.29C276.775 62.0228 276.38 62.1695 276.103 62.4601C275.826 62.7375 275.684 63.126 275.684 63.6287V75.6639H273.764ZM272.22 66.1519V64.6505H279.21V66.1519H272.22ZM288.095 76.0393C287.122 76.0393 286.268 75.8729 285.53 75.5399C284.791 75.2071 284.167 74.7695 283.652 74.2244C283.154 73.6695 282.772 73.0492 282.506 72.3671C282.255 71.6849 282.132 70.9895 282.132 70.2812V69.9057C282.132 69.1975 282.263 68.5023 282.527 67.8199C282.791 67.1247 283.18 66.5044 283.695 65.9625C284.21 65.4076 284.834 64.9671 285.572 64.6471C286.308 64.3143 287.151 64.1476 288.095 64.1476C289.039 64.1476 289.882 64.3143 290.618 64.6471C291.356 64.9671 291.983 65.4044 292.495 65.9625C293.012 66.5044 293.399 67.1247 293.663 67.8199C293.927 68.5023 294.058 69.1975 294.058 69.9057V70.2812C294.058 70.9895 293.927 71.6849 293.663 72.3671C293.412 73.0492 293.031 73.6663 292.519 74.2244C292.018 74.7663 291.399 75.2036 290.66 75.5399C289.924 75.8729 289.068 76.0393 288.095 76.0393ZM288.095 74.2441C288.93 74.2441 289.639 74.0644 290.223 73.7023C290.82 73.3268 291.274 72.8273 291.578 72.2007C291.898 71.5737 292.058 70.8721 292.058 70.0951C292.058 69.3183 291.898 68.5937 291.578 67.9668C291.258 67.3401 290.799 66.8473 290.202 66.4849C289.615 66.1225 288.914 65.9431 288.095 65.9431C287.276 65.9431 286.588 66.1225 285.988 66.4849C285.391 66.8473 284.932 67.3401 284.612 67.9668C284.292 68.5937 284.132 69.302 284.132 70.0951C284.132 70.8884 284.287 71.5772 284.594 72.2007C284.914 72.8273 285.362 73.3268 285.948 73.7023C286.546 74.0644 287.263 74.2441 288.095 74.2441ZM298.73 75.6639V64.5263H300.316V69.1159H300.231C300.231 67.4903 300.588 66.2988 301.295 65.5481C302.018 64.7841 303.098 64.4023 304.527 64.4023H304.903V66.1943H304.194C303.082 66.1943 302.226 66.4948 301.628 67.0921C301.031 67.6764 300.73 68.5249 300.73 69.6383V75.6673H298.73V75.6639ZM308.954 75.6639V64.5263H310.54V69.302H310.29C310.29 68.2183 310.428 67.3009 310.706 66.5468C310.996 65.7831 311.431 65.1988 311.999 64.794C312.57 64.3892 313.292 64.1903 314.17 64.1903H314.255C315.13 64.1903 315.855 64.3924 316.426 64.794C317.01 65.1956 317.442 65.7799 317.719 66.5468C317.996 67.2977 318.135 68.2151 318.135 69.302H317.551C317.551 68.2183 317.698 67.3009 317.988 66.5468C318.282 65.7831 318.714 65.1988 319.282 64.794C319.866 64.3892 320.596 64.1903 321.471 64.1903H321.556C322.431 64.1903 323.162 64.3924 323.748 64.794C324.332 65.1956 324.762 65.7799 325.039 66.5468C325.332 67.2977 325.476 68.2151 325.476 69.302V75.6639H323.476V68.8647C323.476 67.9604 323.255 67.2649 322.81 66.7788C322.367 66.2793 321.746 66.0279 320.954 66.0279C320.159 66.0279 319.471 66.2924 318.972 66.8212C318.471 67.3369 318.22 68.0583 318.22 68.9919V75.6673H316.22V68.8679C316.22 67.9636 315.999 67.2684 315.551 66.782C315.106 66.2825 314.487 66.0311 313.692 66.0311C312.9 66.0311 312.212 66.2956 311.711 66.8244C311.212 67.3401 310.962 68.0615 310.962 68.9951V75.6705H308.959L308.954 75.6639ZM337.546 75.6639V72.3279H337.212V68.4695C337.212 67.7057 337.01 67.1279 336.607 66.7396C336.22 66.3511 335.642 66.1553 334.879 66.1553C334.447 66.1553 334.004 66.1617 333.543 66.1748C333.082 66.1879 332.644 66.2041 332.228 66.2172C331.81 66.2303 331.447 66.2532 331.143 66.2793V64.5263C331.45 64.4969 331.77 64.4775 332.103 64.4644C332.45 64.4351 332.804 64.422 333.167 64.422C333.53 64.4089 333.876 64.4023 334.21 64.4023C335.348 64.4023 336.282 64.5428 337.004 64.8201C337.727 65.0847 338.263 65.522 338.61 66.1356C338.956 66.746 339.132 67.5751 339.132 68.6164V75.6673H337.546V75.6639ZM333.895 75.9577C333.06 75.9577 332.338 75.8175 331.724 75.5399C331.127 75.246 330.66 74.8316 330.327 74.2897C330.007 73.7479 329.847 73.0951 329.847 72.3279C329.847 71.5607 330.02 70.8753 330.37 70.3465C330.732 69.8177 331.252 69.4228 331.935 69.1583C332.615 68.8809 333.436 68.7404 334.396 68.7404H337.42V70.242H334.314C333.508 70.242 332.887 70.438 332.455 70.8263C332.026 71.2148 331.81 71.7175 331.81 72.3279C331.81 72.9383 332.026 73.4345 332.455 73.8097C332.887 74.1852 333.508 74.3745 334.314 74.3745C334.786 74.3745 335.236 74.2897 335.668 74.1233C336.098 73.9436 336.455 73.65 336.732 73.2484C337.026 72.8305 337.186 72.2625 337.212 71.538L337.754 72.3311C337.684 73.1244 337.49 73.7903 337.17 74.3321C336.863 74.8609 336.431 75.2625 335.876 75.5431C335.335 75.8207 334.674 75.9609 333.895 75.9609V75.9577ZM348.818 75.7913C347.978 75.7913 347.26 75.6737 346.642 75.4353C346.044 75.2004 345.578 74.7956 345.244 74.2244C344.924 73.6401 344.764 72.8535 344.764 71.8676V61.1447H346.684V72.1156C346.684 72.7132 346.847 73.1799 347.164 73.5129C347.5 73.8327 347.964 73.9927 348.564 73.9927H350.527V75.7879H348.818V75.7913ZM342.85 66.0279V64.5263H350.527V66.0279H342.85ZM355.567 75.6639V64.5263H357.572V75.6639H355.567ZM353.858 66.1095V64.5231H357.567V66.1095H353.858ZM356.132 62.7311C355.687 62.7311 355.351 62.6135 355.13 62.3753C354.922 62.1401 354.82 61.8399 354.82 61.4775C354.82 61.1153 354.922 60.8183 355.13 60.5799C355.351 60.3449 355.687 60.2241 356.132 60.2241C356.575 60.2241 356.903 60.3417 357.111 60.5799C357.332 60.8148 357.447 61.1153 357.447 61.4775C357.447 61.8399 357.332 62.1369 357.111 62.3753C356.903 62.6103 356.578 62.7311 356.132 62.7311ZM365.487 75.6639L361.695 64.5263H363.78L367.492 75.6639H365.487ZM365.988 75.6639V74.0775H368.41V75.6639H365.988ZM366.948 75.6639L370.18 64.5263H372.143L368.847 75.6639H366.948ZM380.959 76.0393C379.986 76.0393 379.148 75.8729 378.436 75.5399C377.724 75.2071 377.151 74.7695 376.706 74.2244C376.263 73.6695 375.927 73.0492 375.703 72.3671C375.495 71.6849 375.394 70.9895 375.394 70.2812V69.9057C375.394 69.1812 375.495 68.4793 375.703 67.8004C375.927 67.1183 376.263 66.5079 376.706 65.966C377.151 65.4111 377.711 64.9703 378.394 64.6505C379.09 64.3175 379.903 64.1511 380.836 64.1511C382.044 64.1511 383.039 64.4153 383.815 64.9441C384.604 65.4599 385.194 66.1257 385.57 66.9452C385.956 67.7644 386.154 68.6425 386.154 69.5729V70.4705H376.268V68.9689H384.695L384.234 69.7817C384.234 68.9887 384.108 68.3063 383.858 67.7383C383.607 67.154 383.231 66.7036 382.732 66.3836C382.228 66.0639 381.599 65.9039 380.836 65.9039C380.071 65.9039 379.38 66.0833 378.855 66.4457C378.338 66.8081 377.951 67.3009 377.684 67.9276C377.434 68.5545 377.311 69.2759 377.311 70.0985C377.311 70.9209 377.434 71.6065 377.684 72.2463C377.951 72.8729 378.354 73.3724 378.898 73.7479C379.439 74.1103 380.127 74.2897 380.959 74.2897C381.834 74.2897 382.546 74.0937 383.087 73.7055C383.647 73.3169 383.978 72.8633 384.09 72.3508H385.967C385.812 73.1145 385.506 73.7772 385.05 74.3321C384.588 74.8871 384.015 75.3113 383.319 75.6052C382.628 75.8991 381.842 76.0425 380.962 76.0425L380.959 76.0393Z" fill="white"/>
</g>
</svg>
