<svg width="387" height="80" viewBox="0 0 387 80" fill="none" xmlns="http://www.w3.org/2000/svg">
<g clip-path="url(#clip0_4154_2316)">
<mask id="mask0_4154_2316" style="mask-type:luminance" maskUnits="userSpaceOnUse" x="0" y="0" width="387" height="80">
<path d="M386.382 0H0.22998V80H386.382V0Z" fill="white"/>
</mask>
<g mask="url(#mask0_4154_2316)">
<path d="M94.619 0H51.5342L82.4467 39.3373L51.5342 78.6747H94.619L125.528 39.3373L94.619 0Z" fill="white"/>
<path d="M62.2049 39.2525C62.2049 18.1916 45.4201 0.581035 24.4963 0H0.22998V78.6715H24.4963C45.4201 78.0904 62.2049 60.3165 62.2049 39.2525Z" fill="white"/>
<path d="M141.229 0.161621H163.504C179.117 0.161621 189.817 9.246 189.817 23.7164C189.817 38.1868 179.117 47.2711 163.504 47.2711H141.229V0.161621ZM162.965 36.6362C170.975 36.6362 176.355 31.8575 176.355 23.7164C176.355 15.5754 170.969 10.7965 162.965 10.7965H154.553V36.6396H162.965V36.6362Z" fill="white"/>
<path d="M237.544 0.161621V47.2679H224.219V28.8967H206.05V47.2679H192.726V0.161621H206.05V17.8603H224.219V0.161621H237.544Z" fill="white"/>
<path d="M261.979 34.7495H254.713V47.2679H241.389V0.161621H262.923C275.778 0.161621 283.853 6.82392 283.853 17.5894C283.853 24.5194 280.488 29.6378 274.632 32.4612L284.794 47.2647H270.525L261.979 34.7463V34.7495ZM262.116 10.6594H254.713V24.4541H262.116C267.634 24.4541 270.394 21.8949 270.394 17.5894C270.394 13.2839 267.634 10.6594 262.116 10.6594Z" fill="white"/>
<path d="M286.379 25.3268V0.322754H299.704V24.9253C299.704 33.0012 303.069 36.2326 308.656 36.2326C314.24 36.2326 317.536 33.0012 317.536 24.9253V0.322754H330.659V25.3301C330.659 39.3958 322.451 47.2692 308.517 47.2692C294.587 47.2692 286.376 39.3958 286.376 25.3301L286.379 25.3268Z" fill="white"/>
<path d="M386.384 0.161621L366.194 47.2679H353.072L332.946 0.161621H347.352L360.138 30.8487L373.194 0.161621H386.384Z" fill="white"/>
<path d="M146.282 75.6639V61.8561H148.325V75.6639H146.282ZM141.65 62.274V60.4396H152.954V62.274H141.65ZM156.45 75.6639V64.5263H158.036V69.1159H157.951C157.951 67.4903 158.307 66.2988 159.016 65.5481C159.737 64.7841 160.817 64.4023 162.247 64.4023H162.623V66.1943H161.914C160.801 66.1943 159.946 66.4948 159.349 67.0921C158.751 67.6764 158.451 68.5249 158.451 69.6383V75.6673H156.45V75.6639ZM170.532 75.9969C169.21 75.9969 168.195 75.566 167.486 74.7041C166.778 73.8425 166.422 72.5988 166.422 70.97V64.5036H168.423V71.3649C168.423 72.2399 168.658 72.9284 169.131 73.4313C169.605 73.9175 170.245 74.1623 171.051 74.1623C171.857 74.1623 172.565 73.898 173.094 73.3692C173.623 72.8273 173.888 72.0897 173.888 71.1593V64.5068H175.889V75.6673H174.302V70.8916H174.553C174.553 71.9884 174.406 72.922 174.116 73.6857C173.825 74.4367 173.385 75.0143 172.801 75.4159C172.229 75.8044 171.501 76.0001 170.61 76.0001H170.525L170.532 75.9969ZM181.565 75.6639V60.4361H183.566V75.6639H181.565ZM180.021 62.0228V60.4361H183.566V62.0228H180.021ZM188.325 80.002V78.2068H189.931C190.405 78.2068 190.799 78.1447 191.119 78.0207C191.452 77.9097 191.723 77.714 191.932 77.4364C192.154 77.1591 192.337 76.79 192.474 76.3297L195.98 64.5231H197.942L194.23 76.8521C194.008 77.5897 193.695 78.1873 193.29 78.6441C192.889 79.1175 192.393 79.4569 191.808 79.666C191.237 79.8879 190.571 79.9988 189.807 79.9988H188.325V80.002ZM191.726 75.4127V73.7447H194.145V75.4127H191.726ZM191.518 75.4127L187.535 64.5231H189.579L193.395 75.4127H191.518ZM211.821 75.6639V61.8561H213.865V75.6639H211.821ZM207.189 62.274V60.4396H218.493V62.274H207.189ZM221.989 75.6639V64.5263H223.576V69.1159H223.491C223.491 67.4903 223.847 66.2988 224.555 65.5481C225.28 64.7841 226.357 64.4023 227.79 64.4023H228.165V66.1943H227.457C226.344 66.1943 225.489 66.4948 224.891 67.0921C224.294 67.6764 223.994 68.5249 223.994 69.6383V75.6673H221.993L221.989 75.6639ZM238.911 75.6639V72.3279H238.578V68.4695C238.578 67.7057 238.376 67.1279 237.974 66.7396C237.586 66.3511 237.008 66.1553 236.244 66.1553C235.813 66.1553 235.369 66.1617 234.909 66.1748C234.449 66.1879 234.011 66.2041 233.594 66.2172C233.176 66.2303 232.814 66.2532 232.51 66.2793V64.5263C232.817 64.4969 233.137 64.4775 233.47 64.4644C233.816 64.4351 234.171 64.422 234.534 64.422C234.896 64.4089 235.242 64.4023 235.575 64.4023C236.714 64.4023 237.648 64.5428 238.369 64.8201C239.094 65.0847 239.629 65.522 239.975 66.1356C240.321 66.746 240.498 67.5751 240.498 68.6164V75.6673H238.911V75.6639ZM235.262 75.9577C234.426 75.9577 233.705 75.8175 233.091 75.5399C232.494 75.246 232.027 74.8316 231.694 74.2897C231.374 73.7479 231.214 73.0951 231.214 72.3279C231.214 71.5607 231.387 70.8753 231.736 70.3465C232.099 69.8177 232.621 69.4228 233.3 69.1583C233.982 68.8809 234.801 68.7404 235.761 68.7404H238.787V70.242H235.679C234.873 70.242 234.253 70.438 233.822 70.8263C233.391 71.2148 233.176 71.7175 233.176 72.3279C233.176 72.9383 233.391 73.4345 233.822 73.8097C234.253 74.1852 234.873 74.3745 235.679 74.3745C236.153 74.3745 236.603 74.2897 237.034 74.1233C237.465 73.9436 237.821 73.65 238.098 73.2484C238.392 72.8305 238.549 72.2625 238.578 71.538L239.12 72.3311C239.051 73.1244 238.856 73.7903 238.536 74.3321C238.229 74.8609 237.798 75.2625 237.243 75.5431C236.701 75.8207 236.042 75.9609 235.262 75.9609V75.9577ZM245.841 75.6639V64.5263H247.427V69.302H247.176C247.176 68.202 247.323 67.278 247.614 66.5273C247.92 65.7636 248.377 65.1857 248.991 64.7972C249.602 64.3924 250.375 64.1935 251.305 64.1935H251.39C252.794 64.1935 253.832 64.6308 254.498 65.5089C255.18 66.3836 255.519 67.6503 255.519 69.3052V75.6673H253.519V68.8873C253.519 68.0257 253.274 67.3369 252.787 66.8212C252.301 66.2924 251.632 66.0279 250.786 66.0279C249.941 66.0279 249.2 66.2988 248.658 66.8407C248.116 67.3825 247.845 68.1073 247.845 69.0113V75.6639H245.844H245.841ZM264.503 75.9969C263.044 75.9969 261.908 75.6836 261.101 75.0567C260.308 74.43 259.897 73.5748 259.871 72.4911H261.748C261.777 72.922 261.993 73.3332 262.394 73.7217C262.812 74.0972 263.514 74.2865 264.499 74.2865C265.391 74.2865 266.07 74.1135 266.543 73.7641C267.016 73.4017 267.25 72.9644 267.25 72.4487C267.25 71.9884 267.077 71.6359 266.728 71.3844C266.383 71.1201 265.818 70.9471 265.038 70.8623L263.827 70.7383C262.769 70.6273 261.908 70.3137 261.242 69.8015C260.576 69.2727 260.24 68.5348 260.24 67.5916C260.24 66.8831 260.419 66.2759 260.782 65.7767C261.144 65.2609 261.643 64.8724 262.283 64.6079C262.923 64.3305 263.661 64.1903 264.493 64.1903C265.743 64.1903 266.757 64.4676 267.538 65.0257C268.32 65.5807 268.72 66.4097 268.749 67.5065H266.872C266.858 67.0628 266.651 66.6873 266.246 66.3804C265.857 66.0607 265.273 65.9007 264.493 65.9007C263.713 65.9007 263.122 66.0607 262.721 66.3804C262.319 66.7004 262.117 67.1052 262.117 67.5916C262.117 68.0092 262.257 68.3423 262.534 68.5937C262.825 68.8449 263.298 69.0049 263.954 69.0735L265.165 69.1975C266.36 69.3215 267.32 69.6577 268.045 70.1996C268.77 70.7284 269.128 71.4791 269.128 72.4519C269.128 73.1473 268.925 73.7673 268.525 74.3092C268.136 74.838 267.594 75.2559 266.898 75.5596C266.203 75.8532 265.404 75.9969 264.499 75.9969H264.503ZM273.994 75.6639V63.9617C273.994 62.7244 274.322 61.8137 274.976 61.2295C275.626 60.6452 276.586 60.3545 277.853 60.3545H279.232V62.0228H277.52C277.005 62.0228 276.61 62.1695 276.333 62.4601C276.056 62.7375 275.914 63.126 275.914 63.6287V75.6639H273.994ZM272.45 66.1519V64.6505H279.44V66.1519H272.45ZM288.325 76.0393C287.352 76.0393 286.498 75.8729 285.76 75.5399C285.021 75.2071 284.397 74.7695 283.882 74.2244C283.384 73.6695 283.002 73.0492 282.736 72.3671C282.485 71.6849 282.362 70.9895 282.362 70.2812V69.9057C282.362 69.1975 282.493 68.5023 282.757 67.8199C283.021 67.1247 283.41 66.5044 283.925 65.9625C284.44 65.4076 285.064 64.9671 285.802 64.6471C286.538 64.3143 287.381 64.1476 288.325 64.1476C289.269 64.1476 290.112 64.3143 290.848 64.6471C291.586 64.9671 292.213 65.4044 292.725 65.9625C293.242 66.5044 293.629 67.1247 293.893 67.8199C294.157 68.5023 294.288 69.1975 294.288 69.9057V70.2812C294.288 70.9895 294.157 71.6849 293.893 72.3671C293.642 73.0492 293.261 73.6663 292.749 74.2244C292.248 74.7663 291.629 75.2036 290.89 75.5399C290.154 75.8729 289.298 76.0393 288.325 76.0393ZM288.325 74.2441C289.16 74.2441 289.869 74.0644 290.453 73.7023C291.05 73.3268 291.504 72.8273 291.808 72.2007C292.128 71.5737 292.288 70.8721 292.288 70.0951C292.288 69.3183 292.128 68.5937 291.808 67.9668C291.488 67.3401 291.029 66.8473 290.432 66.4849C289.845 66.1225 289.144 65.9431 288.325 65.9431C287.506 65.9431 286.818 66.1225 286.218 66.4849C285.621 66.8473 285.162 67.3401 284.842 67.9668C284.522 68.5937 284.362 69.302 284.362 70.0951C284.362 70.8884 284.517 71.5772 284.824 72.2007C285.144 72.8273 285.592 73.3268 286.178 73.7023C286.776 74.0644 287.493 74.2441 288.325 74.2441ZM298.96 75.6639V64.5263H300.546V69.1159H300.461C300.461 67.4903 300.818 66.2988 301.525 65.5481C302.248 64.7841 303.328 64.4023 304.757 64.4023H305.133V66.1943H304.424C303.312 66.1943 302.456 66.4948 301.858 67.0921C301.261 67.6764 300.96 68.5249 300.96 69.6383V75.6673H298.96V75.6639ZM309.184 75.6639V64.5263H310.77V69.302H310.52C310.52 68.2183 310.658 67.3009 310.936 66.5468C311.226 65.7831 311.661 65.1988 312.229 64.794C312.8 64.3892 313.522 64.1903 314.4 64.1903H314.485C315.36 64.1903 316.085 64.3924 316.656 64.794C317.24 65.1956 317.672 65.7799 317.949 66.5468C318.226 67.2977 318.365 68.2151 318.365 69.302H317.781C317.781 68.2183 317.928 67.3009 318.218 66.5468C318.512 65.7831 318.944 65.1988 319.512 64.794C320.096 64.3892 320.826 64.1903 321.701 64.1903H321.786C322.661 64.1903 323.392 64.3924 323.978 64.794C324.562 65.1956 324.992 65.7799 325.269 66.5468C325.562 67.2977 325.706 68.2151 325.706 69.302V75.6639H323.706V68.8647C323.706 67.9604 323.485 67.2649 323.04 66.7788C322.597 66.2793 321.976 66.0279 321.184 66.0279C320.389 66.0279 319.701 66.2924 319.202 66.8212C318.701 67.3369 318.45 68.0583 318.45 68.9919V75.6673H316.45V68.8679C316.45 67.9636 316.229 67.2684 315.781 66.782C315.336 66.2825 314.717 66.0311 313.922 66.0311C313.13 66.0311 312.442 66.2956 311.941 66.8244C311.442 67.3401 311.192 68.0615 311.192 68.9951V75.6705H309.189L309.184 75.6639ZM337.776 75.6639V72.3279H337.442V68.4695C337.442 67.7057 337.24 67.1279 336.837 66.7396C336.45 66.3511 335.872 66.1553 335.109 66.1553C334.677 66.1553 334.234 66.1617 333.773 66.1748C333.312 66.1879 332.874 66.2041 332.458 66.2172C332.04 66.2303 331.677 66.2532 331.373 66.2793V64.5263C331.68 64.4969 332 64.4775 332.333 64.4644C332.68 64.4351 333.034 64.422 333.397 64.422C333.76 64.4089 334.106 64.4023 334.44 64.4023C335.578 64.4023 336.512 64.5428 337.234 64.8201C337.957 65.0847 338.493 65.522 338.84 66.1356C339.186 66.746 339.362 67.5751 339.362 68.6164V75.6673H337.776V75.6639ZM334.125 75.9577C333.29 75.9577 332.568 75.8175 331.954 75.5399C331.357 75.246 330.89 74.8316 330.557 74.2897C330.237 73.7479 330.077 73.0951 330.077 72.3279C330.077 71.5607 330.25 70.8753 330.6 70.3465C330.962 69.8177 331.482 69.4228 332.165 69.1583C332.845 68.8809 333.666 68.7404 334.626 68.7404H337.65V70.242H334.544C333.738 70.242 333.117 70.438 332.685 70.8263C332.256 71.2148 332.04 71.7175 332.04 72.3279C332.04 72.9383 332.256 73.4345 332.685 73.8097C333.117 74.1852 333.738 74.3745 334.544 74.3745C335.016 74.3745 335.466 74.2897 335.898 74.1233C336.328 73.9436 336.685 73.65 336.962 73.2484C337.256 72.8305 337.416 72.2625 337.442 71.538L337.984 72.3311C337.914 73.1244 337.72 73.7903 337.4 74.3321C337.093 74.8609 336.661 75.2625 336.106 75.5431C335.565 75.8207 334.904 75.9609 334.125 75.9609V75.9577ZM349.048 75.7913C348.208 75.7913 347.49 75.6737 346.872 75.4353C346.274 75.2004 345.808 74.7956 345.474 74.2244C345.154 73.6401 344.994 72.8535 344.994 71.8676V61.1447H346.914V72.1156C346.914 72.7132 347.077 73.1799 347.394 73.5129C347.73 73.8327 348.194 73.9927 348.794 73.9927H350.757V75.7879H349.048V75.7913ZM343.08 66.0279V64.5263H350.757V66.0279H343.08ZM355.797 75.6639V64.5263H357.802V75.6639H355.797ZM354.088 66.1095V64.5231H357.797V66.1095H354.088ZM356.362 62.7311C355.917 62.7311 355.581 62.6135 355.36 62.3753C355.152 62.1401 355.05 61.8399 355.05 61.4775C355.05 61.1153 355.152 60.8183 355.36 60.5799C355.581 60.3449 355.917 60.2241 356.362 60.2241C356.805 60.2241 357.133 60.3417 357.341 60.5799C357.562 60.8148 357.677 61.1153 357.677 61.4775C357.677 61.8399 357.562 62.1369 357.341 62.3753C357.133 62.6103 356.808 62.7311 356.362 62.7311ZM365.717 75.6639L361.925 64.5263H364.01L367.722 75.6639H365.717ZM366.218 75.6639V74.0775H368.64V75.6639H366.218ZM367.178 75.6639L370.41 64.5263H372.373L369.077 75.6639H367.178ZM381.189 76.0393C380.216 76.0393 379.378 75.8729 378.666 75.5399C377.954 75.2071 377.381 74.7695 376.936 74.2244C376.493 73.6695 376.157 73.0492 375.933 72.3671C375.725 71.6849 375.624 70.9895 375.624 70.2812V69.9057C375.624 69.1812 375.725 68.4793 375.933 67.8004C376.157 67.1183 376.493 66.5079 376.936 65.966C377.381 65.4111 377.941 64.9703 378.624 64.6505C379.32 64.3175 380.133 64.1511 381.066 64.1511C382.274 64.1511 383.269 64.4153 384.045 64.9441C384.834 65.4599 385.424 66.1257 385.8 66.9452C386.186 67.7644 386.384 68.6425 386.384 69.5729V70.4705H376.498V68.9689H384.925L384.464 69.7817C384.464 68.9887 384.338 68.3063 384.088 67.7383C383.837 67.154 383.461 66.7036 382.962 66.3836C382.458 66.0639 381.829 65.9039 381.066 65.9039C380.301 65.9039 379.61 66.0833 379.085 66.4457C378.568 66.8081 378.181 67.3009 377.914 67.9276C377.664 68.5545 377.541 69.2759 377.541 70.0985C377.541 70.9209 377.664 71.6065 377.914 72.2463C378.181 72.8729 378.584 73.3724 379.128 73.7479C379.669 74.1103 380.357 74.2897 381.189 74.2897C382.064 74.2897 382.776 74.0937 383.317 73.7055C383.877 73.3169 384.208 72.8633 384.32 72.3508H386.197C386.042 73.1145 385.736 73.7772 385.28 74.3321C384.818 74.8871 384.245 75.3113 383.549 75.6052C382.858 75.8991 382.072 76.0425 381.192 76.0425L381.189 76.0393Z" fill="white"/>
</g>
</g>
<defs>
<clipPath id="clip0_4154_2316">
<rect width="386.667" height="80" fill="white"/>
</clipPath>
</defs>
</svg>
