<svg width="200" height="173" viewBox="0 0 200 173" fill="none" xmlns="http://www.w3.org/2000/svg">
<g clip-path="url(#clip0_2289_2018)">
<path d="M55.3372 172.431C52.1309 172.438 48.9314 172.135 45.783 171.528C42.9256 170.971 40.1277 170.143 37.427 169.055C34.9153 168.039 32.4968 166.805 30.199 165.369C28.0313 164.011 25.9684 162.492 24.0278 160.825C20.0919 157.453 16.5052 152.788 13.3686 146.96C10.3945 141.435 7.83985 134.895 5.7761 127.526C3.69889 119.971 2.2046 112.267 1.30639 104.483C0.336829 96.2897 -0.093879 88.0411 0.0170389 79.7909C0.22039 63.9747 2.36104 48.9658 6.20758 36.3915C8.23161 29.7742 10.7086 23.9106 13.569 18.9631C16.5869 13.7449 20.0413 9.53427 23.8361 6.44866C25.7345 4.91341 27.8477 3.66461 30.1082 2.74206C32.624 1.722 35.2461 0.987218 37.9256 0.551483L43.8782 0.00520515C44.2109 0.000103151 44.5487 0.000103151 44.8814 0.000103151C51.6353 -0.0099307 58.3704 0.712088 64.9687 2.15351C70.8173 3.46454 76.5623 5.20129 82.1577 7.34989C88.5283 9.73033 94.7778 12.3994 100.733 15.2795C106.531 18.0856 112.268 21.1952 117.783 24.5265L115.286 27.0177L111.606 30.6908L56.3012 85.8758L59.6011 89.2114L62.2056 91.844L86.662 116.565L99.6612 116.498L101.296 116.49L102.444 116.484V116.429L73.7372 87.671L72.3852 86.3164L72.0011 85.9323C71.9916 85.9053 71.9825 85.8776 71.9741 85.8503L113.047 44.8805L113.085 44.8423L127.325 30.6412C129.147 31.877 130.98 33.1627 132.779 34.4626C135.802 36.647 138.635 38.8875 141.442 41.3117C144.186 43.6805 146.997 46.3095 150.036 49.3433C152.079 51.3871 154.014 53.5376 155.83 55.7857C158.017 58.4755 160.01 61.3179 161.793 64.2914C166.129 71.5833 168.329 78.5879 168.329 85.1108C168.328 87.552 168.107 89.9881 167.671 92.3899C167.245 94.7177 166.632 97.0073 165.838 99.2368C165.053 101.435 164.119 103.577 163.042 105.648C161.972 107.703 160.787 109.696 159.494 111.619C154.224 119.487 147.395 126.129 142.035 131.036C136.332 136.258 131.545 140.386 126.973 144.03C122.111 147.941 117.018 151.556 111.722 154.855L80.9467 124.146L43.1129 86.3947L43.0859 86.3127L53.2968 76.0745L54.463 74.9065L73.5568 55.7576L58.4538 55.6275L57.7756 55.6217L27.4133 86.2562L47.8705 106.741L48.0275 106.898L95.5176 154.319L97.6619 156.46L101.651 160.443C95.993 163.233 90.1143 165.55 84.0746 167.37C77.3722 169.38 70.525 170.87 63.5937 171.828C60.8592 172.223 58.1002 172.425 55.3372 172.431ZM140.673 71.4546L150.744 100.942L160.842 71.4546H156.244L150.743 88.9279L145.258 71.4546H140.673ZM97.299 71.4546V100.189H101.555V86.8018L112.985 100.19H118.388L106.092 85.8116L118.388 71.4532H112.984L101.555 84.8608V71.4535H97.299V71.4546ZM122.075 71.4546V100.189H135.45V96.2481H126.412V87.8091H135.231V83.8915H126.412V75.4273H135.45V71.455H122.075V71.4546Z" fill="white"/>
<path d="M175.265 71.4551H170.942V100.19H175.265V71.4551Z" fill="white"/>
<path d="M182.194 71.4556H200V75.431H193.281V100.198H188.905V75.4337H182.194V71.4556Z" fill="white"/>
</g>
<defs>
<clipPath id="clip0_2289_2018">
<rect width="200" height="172.431" fill="white"/>
</clipPath>
</defs>
</svg>
