<svg width="58" height="50" viewBox="0 0 58 50" fill="none" xmlns="http://www.w3.org/2000/svg">
<mask id="mask0_4154_2336" style="mask-type:luminance" maskUnits="userSpaceOnUse" x="0" y="0" width="58" height="50">
<path d="M57.8035 0H0V49.8356H57.8035V0Z" fill="white"/>
</mask>
<g mask="url(#mask0_4154_2336)">
<path d="M15.9934 49.8356C15.0667 49.8376 14.142 49.75 13.2321 49.5746C12.4062 49.4136 11.5976 49.1743 10.8171 48.8598C10.0911 48.5662 9.39214 48.2095 8.72803 47.7945C8.10153 47.402 7.50532 46.963 6.94445 46.4812C5.80691 45.5066 4.77029 44.1584 3.86376 42.474C3.00419 40.8772 2.26585 38.987 1.66939 36.8572C1.06904 34.6737 0.637168 32.4471 0.377569 30.1974C0.0973494 27.8294 -0.0271327 25.4454 0.00492453 23.061C0.0636965 18.4898 0.682382 14.152 1.7941 10.5178C2.37908 8.60526 3.09497 6.91058 3.92168 5.48067C4.7939 3.97251 5.79228 2.75557 6.88905 1.86377C7.43772 1.42006 8.04847 1.05914 8.70179 0.792503C9.4289 0.497688 10.1867 0.285323 10.9612 0.159388L12.6816 0.00150438C12.7777 2.98124e-05 12.8753 2.98123e-05 12.9715 2.98123e-05C14.9235 -0.00287014 16.8701 0.205806 18.7771 0.622402C20.4674 1.00131 22.1278 1.50326 23.745 2.12425C25.5862 2.81223 27.3924 3.58364 29.1136 4.41604C30.7893 5.22705 32.4474 6.12578 34.0413 7.08858L33.3197 7.80858L32.2561 8.87017L16.272 24.8196L17.2258 25.7836L17.9785 26.5445L25.0468 33.6893L28.8038 33.6699L29.2763 33.6676L29.6081 33.6659V33.65L21.3113 25.3384L20.9206 24.9469L20.8096 24.8359C20.8068 24.8281 20.8042 24.8201 20.8018 24.8122L32.6725 12.9712L32.6835 12.9602L36.7991 8.85584C37.3257 9.21301 37.8555 9.5846 38.3754 9.96029C39.2491 10.5916 40.0679 11.2392 40.8792 11.9398C41.6723 12.6244 42.4847 13.3842 43.363 14.2611C43.9535 14.8518 44.5127 15.4733 45.0376 16.123C45.6697 16.9004 46.2457 17.7219 46.761 18.5813C48.0142 20.6888 48.65 22.7133 48.65 24.5985C48.6497 25.304 48.5858 26.0081 48.4598 26.7023C48.3367 27.3751 48.1595 28.0368 47.9301 28.6812C47.7032 29.3165 47.4332 29.9356 47.122 30.5341C46.8127 31.128 46.4702 31.704 46.0965 32.2598C44.5734 34.5338 42.5997 36.4535 41.0506 37.8717C39.4023 39.3809 38.0188 40.574 36.6974 41.6272C35.2922 42.7575 33.8202 43.8023 32.2896 44.7558L23.395 35.8803L12.4604 24.9696L12.4526 24.9459L15.4037 21.9869L15.7408 21.6493L21.2592 16.1149L16.8942 16.0773L16.6982 16.0756L7.92292 24.9295L13.8354 30.85L13.8808 30.8954L27.6062 44.6009L28.226 45.2197L29.3789 46.3708C27.7436 47.1772 26.0446 47.8468 24.299 48.3728C22.3619 48.9538 20.3829 49.3844 18.3797 49.6613C17.5894 49.7754 16.792 49.8338 15.9934 49.8356ZM40.6569 20.6516L43.5676 29.174L46.4861 20.6516H45.1572L43.5673 25.7017L41.9821 20.6516H40.6569ZM28.1211 20.6516V28.9564H29.3512V25.0872L32.6546 28.9566H34.2162L30.6624 24.801L34.2162 20.6512H32.6543L29.3512 24.5262V20.6513H28.1211V20.6516ZM35.2818 20.6516V28.9564H39.1474V27.8174H36.5353V25.3784H39.0841V24.2461H36.5353V21.7998H39.1474V20.6517L35.2818 20.6516Z" fill="white"/>
<path d="M50.6547 20.6519H49.4053V28.9567H50.6547V20.6519Z" fill="white"/>
<path d="M52.6572 20.6519H57.8035V21.8008H55.8616V28.9589H54.5968V21.8016H52.6572V20.6519Z" fill="white"/>
</g>
</svg>
