<svg width="93" height="80" viewBox="0 0 93 80" fill="none" xmlns="http://www.w3.org/2000/svg">
<mask id="mask0_4154_2348" style="mask-type:luminance" maskUnits="userSpaceOnUse" x="0" y="0" width="93" height="80">
<path d="M92.4855 0H0V80H92.4855V0Z" fill="white"/>
</mask>
<g mask="url(#mask0_4154_2348)">
<mask id="mask1_4154_2348" style="mask-type:luminance" maskUnits="userSpaceOnUse" x="0" y="0" width="93" height="80">
<path d="M92.4855 0H0V79.7369H92.4855V0Z" fill="white"/>
</mask>
<g mask="url(#mask1_4154_2348)">
<path d="M25.5895 79.7369C24.1068 79.7401 22.6273 79.6 21.1714 79.3193C19.85 79.0617 18.5562 78.6788 17.3073 78.1757C16.1458 77.7059 15.0275 77.1353 13.9648 76.4712C12.9625 75.8433 12.0085 75.1408 11.1111 74.3699C9.29109 72.8106 7.63246 70.6535 6.18201 67.9584C4.80671 65.4035 3.62536 62.3792 2.67103 58.9715C1.71047 55.4779 1.01947 51.9154 0.604111 48.3158C0.155759 44.527 -0.0434123 40.7126 0.00787925 36.8975C0.101915 29.5836 1.09181 22.6432 2.87055 16.8285C3.80653 13.7685 4.95195 11.0569 6.27468 8.76906C7.67025 6.35603 9.26764 4.40891 11.0225 2.98204C11.9004 2.2721 12.8775 1.69462 13.9229 1.26801C15.0863 0.796301 16.2988 0.456517 17.5378 0.255021L20.2905 0.00240701C20.4444 4.77e-05 20.6005 4.76996e-05 20.7544 4.76996e-05C23.8776 -0.00459223 26.9921 0.329289 30.0434 0.995845C32.7479 1.6021 35.4045 2.40522 37.992 3.39879C40.9379 4.49957 43.8279 5.73383 46.5817 7.06566C49.2629 8.36328 51.9158 9.80127 54.4661 11.3417L53.3115 12.4937L51.6097 14.1923L26.0353 39.7114L27.5612 41.2538L28.7656 42.4712L40.0749 53.9029L46.0861 53.8719L46.8421 53.8682L47.3729 53.8655V53.84L34.0981 40.5415L33.4729 39.9151L33.2953 39.7375C33.2909 39.725 33.2867 39.7122 33.2828 39.6995L52.2761 20.754L52.2936 20.7364L58.8786 14.1694C59.7212 14.7408 60.5688 15.3354 61.4007 15.9365C62.7986 16.9465 64.1086 17.9826 65.4067 19.1036C66.6756 20.1991 67.9755 21.4148 69.3808 22.8177C70.3255 23.7628 71.2204 24.7573 72.0601 25.7968C73.0714 27.0407 73.9931 28.3551 74.8175 29.7301C76.8226 33.1021 77.84 36.3412 77.84 39.3576C77.8395 40.4865 77.7374 41.613 77.5357 42.7236C77.3387 43.8001 77.0553 44.8589 76.6881 45.8898C76.3251 46.9064 75.8932 47.8969 75.3952 48.8545C74.9004 49.8048 74.3524 50.7265 73.7544 51.6157C71.3175 55.2541 68.1595 58.3255 65.6809 60.5946C63.0437 63.0095 60.8301 64.9184 58.7158 66.6035C56.4675 68.412 54.1124 70.0837 51.6634 71.6093L37.432 57.4085L19.9366 39.9513L19.9241 39.9134L24.6459 35.179L25.1852 34.6388L34.0147 25.7838L27.0306 25.7237L26.717 25.721L12.6766 39.8873L22.1366 49.36L22.2093 49.4326L44.17 71.3614L45.1615 72.3515L47.0063 74.1933C44.3898 75.4835 41.6714 76.5549 38.8785 77.3965C35.7791 78.326 32.6127 79.015 29.4075 79.458C28.143 79.6407 26.8672 79.7341 25.5895 79.7369ZM65.0511 33.0425L69.7082 46.6784L74.3778 33.0425H72.2515L69.7077 41.1227L67.1714 33.0425H65.0511ZM44.9937 33.0425V46.3302H46.9618V40.1395L52.2474 46.3306H54.7459L49.0599 39.6816L54.7459 33.0419H52.2469L46.9618 39.242V33.0421L44.9937 33.0425ZM56.4509 33.0425V46.3302H62.6358V44.5078H58.4565V40.6054H62.5345V38.7937H58.4565V34.8796H62.6358V33.0428L56.4509 33.0425Z" fill="white"/>
<path d="M81.0474 33.043H79.0483V46.3308H81.0474V33.043Z" fill="white"/>
<path d="M84.2515 33.043H92.4853V34.8812H89.3784V46.3342H87.3547V34.8825H84.2515V33.043Z" fill="white"/>
</g>
</g>
</svg>
