<svg width="426" height="328" viewBox="0 0 426 328" fill="none" xmlns="http://www.w3.org/2000/svg">
<g clip-path="url(#clip0_2289_2018)">
<path d="M117.868 328C111.039 328.012 104.224 327.436 97.5178 326.282C91.4315 325.221 85.472 323.646 79.7196 321.578C74.3695 319.644 69.2181 317.298 64.3238 314.566C59.7066 311.982 55.3127 309.093 51.1791 305.923C42.7958 299.508 35.1561 290.634 28.4751 279.548C22.1403 269.038 16.6989 256.597 12.3031 242.581C7.87864 228.21 4.6958 213.556 2.7826 198.749C0.717446 183.163 -0.199962 167.472 0.0362928 151.779C0.46943 121.693 5.02902 93.143 13.2221 69.2242C17.5333 56.6368 22.8094 45.4829 28.902 36.0718C35.33 26.1456 42.6879 18.1361 50.7708 12.2667C54.8145 9.34631 59.3156 6.97085 64.1305 5.21596C69.489 3.2756 75.0742 1.87789 80.7815 1.04903L93.4605 0.00990126C94.1692 0.000196214 94.8887 0.000196214 95.5974 0.000196214C109.983 -0.0188902 124.329 1.35454 138.383 4.09642C150.841 6.59026 163.078 9.89392 174.996 13.981C188.565 18.5091 201.877 23.5862 214.56 29.0647C226.911 34.4025 239.13 40.3177 250.878 46.6544L245.56 51.3933L237.72 58.3802L119.921 163.353L126.95 169.698L132.498 174.706L184.59 221.731L212.278 221.603L215.76 221.587L218.205 221.576V221.471L157.06 166.768L154.18 164.192L153.362 163.461C153.342 163.41 153.323 163.357 153.305 163.305L240.789 85.372L240.871 85.2992L271.201 58.2859C275.082 60.6366 278.988 63.0823 282.82 65.555C289.258 69.7101 295.293 73.972 301.271 78.5833C307.116 83.0892 313.104 88.0901 319.576 93.8611C323.929 97.7488 328.049 101.839 331.918 106.116C336.577 111.232 340.821 116.639 344.618 122.296C353.855 136.166 358.541 149.49 358.541 161.898C358.538 166.542 358.069 171.176 357.139 175.745C356.231 180.173 354.925 184.528 353.235 188.769C351.563 192.95 349.573 197.025 347.279 200.964C344.999 204.873 342.477 208.665 339.723 212.323C328.497 227.289 313.952 239.923 302.535 249.257C290.387 259.19 280.192 267.043 270.451 273.974C260.096 281.414 249.248 288.291 237.968 294.567L172.416 236.152L91.8304 164.341L91.7729 164.185L113.522 144.709L116.006 142.488L156.676 106.062L124.507 105.815L123.062 105.804L58.3903 164.077L101.964 203.043L102.299 203.342L203.453 293.547L208.02 297.619L216.516 305.195C204.465 310.502 191.943 314.91 179.079 318.373C164.803 322.195 150.218 325.03 135.455 326.852C129.63 327.604 123.753 327.988 117.868 328ZM299.634 135.921L321.084 192.013L342.594 135.921H332.8L321.084 169.159L309.4 135.921H299.634ZM207.247 135.921V190.581H216.312V165.115L240.657 190.582H252.167L225.975 163.231L252.167 135.919H240.657L216.313 161.423V135.919H207.247V135.921ZM260.02 135.921V190.581H288.508V183.084H269.258V167.031H288.042V159.579H269.258V143.478H288.508V135.922H260.02V135.921Z" fill="white"/>
<path d="M373.314 135.922H364.106V190.582H373.314V135.922Z" fill="white"/>
<path d="M388.074 135.923H426V143.485H411.689V190.597H402.367V143.491H388.074V135.923Z" fill="white"/>
</g>
<defs>
<clipPath id="clip0_2289_2018">
<rect width="426" height="328" fill="white"/>
</clipPath>
</defs>
</svg>
