<svg width="906" height="501" viewBox="0 0 906 501" fill="none" xmlns="http://www.w3.org/2000/svg" xmlns:xlink="http://www.w3.org/1999/xlink"><path d="M43 303.333L234.546 303.333C238.747 303.333 242.153 299.928 242.153 295.726L242.153 261.607C242.153 257.406 245.559 254 249.76 254L292.001 254" stroke="#DEDEDE" stroke-width="1.52143"/><path d="M43 403L234.46 403C238.661 403 242.067 399.594 242.067 395.393L242.067 261.607C242.067 257.406 245.473 254 249.674 254L292 254" stroke="#DEDEDE" stroke-width="1.52143"/><path d="M43 455.668L245.701 455.668C249.902 455.668 253.308 452.262 253.308 448.061L253.308 362.1L253.308 276.139C253.308 271.938 256.714 268.532 260.915 268.532L292.104 268.532" stroke="#DEDEDE" stroke-width="1.52143"/><path d="M43 198L234.451 198C238.653 198 242.058 201.406 242.058 205.607L242.058 234.393C242.058 238.594 245.464 242 249.666 242L292.001 242" stroke="#DEDEDE" stroke-width="1.52143"/><path d="M43 44L245.691 44C249.893 44 253.299 47.4058 253.299 51.6072L253.299 137L253.299 222.393C253.299 226.594 256.704 230 260.906 230L292.001 230" stroke="#DEDEDE" stroke-width="1.52143"/><g filter="url(#filter0_d_1018_1129)"><rect x="435.118" y="205.392" width="89.7643" height="89.7643" rx="7.60714" fill="#0C4A3F"/></g><rect x="444" y="244.5" width="72" height="11" fill="url(#pattern0)"/><rect x="747.011" y="281.463" width="158.989" height="89.7643" rx="7.60714" fill="#0C4A3F"/><path d="M808.502 333V320.04H813.857C813.983 320.04 814.145 320.046 814.343 320.058C814.541 320.064 814.724 320.082 814.892 320.112C815.642 320.226 816.26 320.475 816.746 320.859C817.238 321.243 817.601 321.729 817.835 322.317C818.075 322.899 818.195 323.547 818.195 324.261C818.195 325.317 817.928 326.226 817.394 326.988C816.86 327.744 816.041 328.212 814.937 328.392L814.01 328.473H810.671V333H808.502ZM815.945 333L813.389 327.726L815.594 327.24L818.402 333H815.945ZM810.671 326.448H813.767C813.887 326.448 814.022 326.442 814.172 326.43C814.322 326.418 814.46 326.394 814.586 326.358C814.946 326.268 815.228 326.109 815.432 325.881C815.642 325.653 815.789 325.395 815.873 325.107C815.963 324.819 816.008 324.537 816.008 324.261C816.008 323.985 815.963 323.703 815.873 323.415C815.789 323.121 815.642 322.86 815.432 322.632C815.228 322.404 814.946 322.245 814.586 322.155C814.46 322.119 814.322 322.098 814.172 322.092C814.022 322.08 813.887 322.074 813.767 322.074H810.671V326.448ZM825.245 333.27C824.213 333.27 823.304 333.06 822.518 332.64C821.738 332.22 821.126 331.629 820.682 330.867C820.244 330.105 820.025 329.211 820.025 328.185V320.058L822.221 320.04V328.131C822.221 328.617 822.302 329.052 822.464 329.436C822.632 329.82 822.857 330.147 823.139 330.417C823.421 330.681 823.745 330.882 824.111 331.02C824.477 331.158 824.855 331.227 825.245 331.227C825.647 331.227 826.028 331.158 826.388 331.02C826.754 330.876 827.078 330.672 827.36 330.408C827.642 330.138 827.864 329.811 828.026 329.427C828.188 329.043 828.269 328.611 828.269 328.131V320.04H830.465V328.185C830.465 329.211 830.243 330.105 829.799 330.867C829.361 331.629 828.749 332.22 827.963 332.64C827.183 333.06 826.277 333.27 825.245 333.27ZM832.62 333V320.04H834.573L839.055 329.22L843.537 320.04H845.49V333H843.465V324.693L839.487 333H838.623L834.654 324.693V333H832.62Z" fill="white"/><rect x="747.011" y="410.785" width="158.989" height="89.7643" rx="7.60714" fill="#0C4A3F"/><path d="M808.713 462V449.04H810.909L816.921 458.175V449.04H819.117V462H816.921L810.909 452.865V462H808.713ZM821.273 462V449.04H826.628C826.754 449.04 826.916 449.046 827.114 449.058C827.312 449.064 827.495 449.082 827.663 449.112C828.413 449.226 829.031 449.475 829.517 449.859C830.009 450.243 830.372 450.729 830.606 451.317C830.846 451.899 830.966 452.547 830.966 453.261C830.966 453.969 830.846 454.617 830.606 455.205C830.366 455.787 830 456.27 829.508 456.654C829.022 457.038 828.407 457.287 827.663 457.401C827.495 457.425 827.309 457.443 827.105 457.455C826.907 457.467 826.748 457.473 826.628 457.473H823.442V462H821.273ZM823.442 455.448H826.538C826.658 455.448 826.793 455.442 826.943 455.43C827.093 455.418 827.231 455.394 827.357 455.358C827.717 455.268 827.999 455.109 828.203 454.881C828.413 454.653 828.56 454.395 828.644 454.107C828.734 453.819 828.779 453.537 828.779 453.261C828.779 452.985 828.734 452.703 828.644 452.415C828.56 452.121 828.413 451.86 828.203 451.632C827.999 451.404 827.717 451.245 827.357 451.155C827.231 451.119 827.093 451.098 826.943 451.092C826.793 451.08 826.658 451.074 826.538 451.074H823.442V455.448ZM832.409 462V449.04H834.362L838.844 458.22L843.326 449.04H845.279V462H843.254V453.693L839.276 462H838.412L834.443 453.693V462H832.409Z" fill="white"/><path d="M3.84998 12.1598C3.08673 12.1598 2.4424 11.9911 1.917 11.6539C1.3916 11.3131 0.994 10.8427 0.7242 10.2427C0.4544 9.6428 0.3195 8.95055 0.3195 8.166C0.3195 7.38145 0.4544 6.6892 0.7242 6.08925C0.994 5.4893 1.3916 5.0207 1.917 4.68345C2.4424 4.34265 3.08673 4.17225 3.84998 4.17225C4.74103 4.17225 5.46877 4.40123 6.03322 4.85917C6.59767 5.31357 6.98463 5.92417 7.19408 6.69097L6.39533 6.89865C6.23203 6.2916 5.93915 5.81057 5.5167 5.45557C5.09425 5.10057 4.53868 4.92307 3.84998 4.92307C3.25003 4.92307 2.75125 5.05975 2.35365 5.3331C1.95605 5.60645 1.65607 5.98807 1.45372 6.47797C1.25492 6.96432 1.15197 7.527 1.14487 8.166C1.14133 8.805 1.23895 9.36767 1.43775 9.85402C1.6401 10.3404 1.94185 10.722 2.343 10.9989C2.7477 11.2722 3.25003 11.4089 3.84998 11.4089C4.53868 11.4089 5.09425 11.2314 5.5167 10.8764C5.93915 10.5179 6.23203 10.0369 6.39533 9.43335L7.19408 9.64102C6.98463 10.4078 6.59767 11.0202 6.03322 11.4781C5.46877 11.9325 4.74103 12.1598 3.84998 12.1598ZM8.26249 12V4.17225H9.04526V12H8.26249ZM12.8303 12.1598C12.2587 12.1598 11.7706 12.0302 11.3659 11.771C10.9612 11.5119 10.6506 11.1533 10.434 10.6954C10.2175 10.2374 10.1092 9.71203 10.1092 9.11918C10.1092 8.51568 10.2192 7.98672 10.4393 7.53232C10.6594 7.07792 10.9718 6.7247 11.3765 6.47265C11.7848 6.21705 12.2694 6.08925 12.8303 6.08925C13.4054 6.08925 13.8953 6.21883 14.3 6.47797C14.7082 6.73357 15.0188 7.09035 15.2318 7.5483C15.4484 8.0027 15.5567 8.52633 15.5567 9.11918C15.5567 9.72267 15.4484 10.2534 15.2318 10.7113C15.0153 11.1657 14.7029 11.5207 14.2946 11.7763C13.8864 12.0319 13.3983 12.1598 12.8303 12.1598ZM12.8303 11.4089C13.4693 11.4089 13.945 11.1977 14.2574 10.7753C14.5698 10.3492 14.726 9.79722 14.726 9.11918C14.726 8.42337 14.568 7.86957 14.252 7.45777C13.9396 7.04597 13.4657 6.84007 12.8303 6.84007C12.4007 6.84007 12.0457 6.9377 11.7653 7.13295C11.4884 7.32465 11.2807 7.59268 11.1422 7.93703C11.0073 8.27782 10.9399 8.67187 10.9399 9.11918C10.9399 9.81143 11.0996 10.367 11.4191 10.7859C11.7386 11.2012 12.209 11.4089 12.8303 11.4089ZM18.7175 12.1438C18.3732 12.1438 18.0714 12.0905 17.8123 11.984C17.5567 11.8775 17.3384 11.7337 17.1573 11.5527C16.9798 11.3716 16.836 11.1658 16.726 10.935C16.6159 10.7007 16.5361 10.454 16.4864 10.1948C16.4367 9.93212 16.4118 9.6712 16.4118 9.41205V6.249H17.1999V9.18307C17.1999 9.49902 17.2301 9.7919 17.2904 10.0617C17.3508 10.3315 17.4466 10.5676 17.578 10.7699C17.7129 10.9687 17.8851 11.1231 18.0945 11.2332C18.3075 11.3432 18.5649 11.3983 18.8666 11.3983C19.1435 11.3983 19.3867 11.3504 19.5962 11.2545C19.8092 11.1586 19.9867 11.022 20.1287 10.8445C20.2742 10.6634 20.3843 10.4451 20.4588 10.1895C20.5334 9.93035 20.5706 9.63925 20.5706 9.3162L21.1244 9.43867C21.1244 10.028 21.0215 10.5232 20.8156 10.9244C20.6097 11.3255 20.3257 11.629 19.9636 11.8349C19.6015 12.0408 19.1861 12.1438 18.7175 12.1438ZM20.6505 12V10.5836H20.5706V6.249H21.3534V12H20.6505ZM24.8599 12.1598C24.3239 12.1598 23.8659 12.0266 23.4861 11.7604C23.1062 11.4906 22.8151 11.1267 22.6128 10.6688C22.4104 10.2108 22.3093 9.69428 22.3093 9.11918C22.3093 8.54763 22.4087 8.03288 22.6075 7.57492C22.8098 7.11697 23.0991 6.75487 23.4754 6.48862C23.8517 6.22238 24.3026 6.08925 24.828 6.08925C25.3676 6.08925 25.822 6.2206 26.1912 6.4833C26.5604 6.746 26.8391 7.10632 27.0272 7.56427C27.2189 8.01867 27.3148 8.53697 27.3148 9.11918C27.3148 9.69072 27.2207 10.2072 27.0325 10.6688C26.8444 11.1267 26.5675 11.4906 26.2018 11.7604C25.8362 12.0266 25.3889 12.1598 24.8599 12.1598ZM24.9398 11.4302C25.3481 11.4302 25.6853 11.3308 25.9516 11.132C26.2178 10.9332 26.4166 10.6599 26.548 10.312C26.6793 9.96053 26.745 9.56293 26.745 9.11918C26.745 8.66832 26.6793 8.27072 26.548 7.92637C26.4166 7.57847 26.2178 7.3069 25.9516 7.11165C25.6889 6.9164 25.3569 6.81877 24.9558 6.81877C24.544 6.81877 24.2032 6.91995 23.9334 7.1223C23.6636 7.32465 23.463 7.59977 23.3317 7.94767C23.2039 8.29557 23.14 8.68607 23.14 9.11918C23.14 9.55583 23.2056 9.94988 23.337 10.3013C23.4719 10.6492 23.6725 10.9243 23.9387 11.1267C24.205 11.329 24.5387 11.4302 24.9398 11.4302ZM26.745 12V7.67078H26.6598V4.332H27.4479V12H26.745ZM30.6671 4.332H31.4712L29.4264 12H28.6223L30.6671 4.332ZM35.7492 12.1598C34.986 12.1598 34.3416 11.9911 33.8162 11.6539C33.2908 11.3131 32.8932 10.8427 32.6234 10.2427C32.3536 9.6428 32.2187 8.95055 32.2187 8.166C32.2187 7.38145 32.3536 6.6892 32.6234 6.08925C32.8932 5.4893 33.2908 5.0207 33.8162 4.68345C34.3416 4.34265 34.986 4.17225 35.7492 4.17225C36.516 4.17225 37.1603 4.34265 37.6822 4.68345C38.2076 5.0207 38.6052 5.4893 38.875 6.08925C39.1483 6.6892 39.285 7.38145 39.285 8.166C39.285 8.95055 39.1483 9.6428 38.875 10.2427C38.6052 10.8427 38.2076 11.3131 37.6822 11.6539C37.1603 11.9911 36.516 12.1598 35.7492 12.1598ZM35.7492 11.4089C36.3492 11.4089 36.8497 11.2722 37.2509 10.9989C37.652 10.7255 37.952 10.3457 38.1508 9.85935C38.3531 9.36945 38.4543 8.805 38.4543 8.166C38.4543 7.527 38.3531 6.96432 38.1508 6.47797C37.952 5.99163 37.652 5.61178 37.2509 5.33842C36.8497 5.06507 36.3492 4.92662 35.7492 4.92307C35.1493 4.92307 34.6505 5.05975 34.2529 5.3331C33.8553 5.60645 33.5553 5.98807 33.353 6.47797C33.1542 6.96432 33.053 7.527 33.0494 8.166C33.0459 8.805 33.1435 9.36767 33.3423 9.85402C33.5447 10.3368 33.8464 10.7167 34.2476 10.9936C34.6487 11.2669 35.1493 11.4054 35.7492 11.4089ZM44.2919 12V9.06593C44.2919 8.74643 44.2618 8.45355 44.2014 8.1873C44.1411 7.9175 44.0434 7.6832 43.9085 7.4844C43.7772 7.28205 43.605 7.12585 43.392 7.0158C43.1826 6.90575 42.927 6.85072 42.6252 6.85072C42.3483 6.85072 42.1034 6.89865 41.8904 6.9945C41.6809 7.09035 41.5034 7.2288 41.3579 7.40985C41.2159 7.58735 41.1076 7.8039 41.033 8.0595C40.9585 8.3151 40.9212 8.6062 40.9212 8.9328L40.3674 8.81032C40.3674 8.22102 40.4704 7.7258 40.6763 7.32465C40.8822 6.9235 41.1662 6.61997 41.5283 6.41408C41.8904 6.20818 42.3057 6.10523 42.7743 6.10523C43.1187 6.10523 43.4186 6.15848 43.6742 6.26498C43.9334 6.37147 44.1517 6.51525 44.3292 6.6963C44.5103 6.87735 44.6558 7.08502 44.7659 7.31932C44.8759 7.55008 44.9558 7.7968 45.0055 8.0595C45.0552 8.31865 45.08 8.5778 45.08 8.83695V12H44.2919ZM40.1331 12V6.249H40.8413V7.66545H40.9212V12H40.1331ZM50.7506 12.1598C50.2216 12.1598 49.7743 12.0266 49.4087 11.7604C49.043 11.4906 48.7661 11.1267 48.578 10.6688C48.3898 10.2072 48.2958 9.69072 48.2958 9.11918C48.2958 8.53697 48.3898 8.01867 48.578 7.56427C48.7697 7.10632 49.0501 6.746 49.4193 6.4833C49.7885 6.2206 50.2429 6.08925 50.7825 6.08925C51.3079 6.08925 51.7588 6.22238 52.1351 6.48862C52.5114 6.75487 52.7989 7.11697 52.9977 7.57492C53.2001 8.03288 53.3013 8.54763 53.3013 9.11918C53.3013 9.69428 53.2001 10.2108 52.9977 10.6688C52.7954 11.1267 52.5043 11.4906 52.1244 11.7604C51.7446 12.0266 51.2866 12.1598 50.7506 12.1598ZM48.1626 14.556V6.249H48.8655V10.5782H48.9507V14.556H48.1626ZM50.6707 11.4302C51.0719 11.4302 51.4056 11.329 51.6718 11.1267C51.9381 10.9243 52.1369 10.6492 52.2682 10.3013C52.4031 9.94988 52.4706 9.55583 52.4706 9.11918C52.4706 8.68607 52.4049 8.29557 52.2735 7.94767C52.1422 7.59977 51.9416 7.32465 51.6718 7.1223C51.4056 6.91995 51.0665 6.81877 50.6547 6.81877C50.2536 6.81877 49.9199 6.9164 49.6536 7.11165C49.3909 7.3069 49.1939 7.57847 49.0626 7.92637C48.9312 8.27072 48.8655 8.66832 48.8655 9.11918C48.8655 9.56293 48.9312 9.96053 49.0626 10.312C49.1939 10.6599 49.3927 10.9332 49.659 11.132C49.9252 11.3308 50.2625 11.4302 50.6707 11.4302ZM54.2576 12V6.249H54.9605V7.6335L54.822 7.45245C54.8859 7.28205 54.9694 7.12585 55.0723 6.98385C55.1753 6.8383 55.2871 6.71937 55.4078 6.62707C55.5569 6.49573 55.7308 6.39633 55.9296 6.32887C56.1284 6.25787 56.329 6.21705 56.5314 6.2064C56.7337 6.1922 56.9183 6.2064 57.0852 6.249V6.98385C56.8757 6.9306 56.6467 6.91818 56.3982 6.94657C56.1497 6.97497 55.9208 7.07437 55.7113 7.24477C55.5196 7.39388 55.3758 7.57315 55.28 7.7826C55.1841 7.9885 55.1202 8.2086 55.0883 8.4429C55.0563 8.67365 55.0404 8.90262 55.0404 9.12982V12H54.2576ZM60.2119 12.1598C59.651 12.1598 59.1646 12.0355 58.7528 11.787C58.3446 11.5385 58.0268 11.1888 57.7996 10.738C57.5724 10.2871 57.4588 9.75817 57.4588 9.15112C57.4588 8.52278 57.5707 7.97963 57.7943 7.52168C58.018 7.06373 58.3321 6.7105 58.7368 6.462C59.1451 6.2135 59.6261 6.08925 60.1799 6.08925C60.7479 6.08925 61.2325 6.2206 61.6336 6.4833C62.0348 6.74245 62.3383 7.1152 62.5442 7.60155C62.7501 8.0879 62.8442 8.66833 62.8264 9.34283H62.0277V9.06593C62.0135 8.32043 61.852 7.75775 61.5431 7.3779C61.2378 6.99805 60.7905 6.80813 60.2012 6.80813C59.5835 6.80813 59.1096 7.0087 58.7794 7.40985C58.4528 7.811 58.2895 8.38255 58.2895 9.1245C58.2895 9.8487 58.4528 10.4114 58.7794 10.8125C59.1096 11.2101 59.5764 11.4089 60.1799 11.4089C60.5917 11.4089 60.9503 11.3148 61.2556 11.1267C61.5644 10.935 61.8076 10.6599 61.9851 10.3013L62.7146 10.5836C62.4874 11.0841 62.1519 11.4728 61.7082 11.7497C61.268 12.0231 60.7692 12.1598 60.2119 12.1598ZM58.0126 9.34283V8.68785H62.4058V9.34283H58.0126ZM70.4978 12L70.5031 8.22457C70.5031 7.78082 70.3788 7.43292 70.1303 7.18088C69.8854 6.92527 69.573 6.79747 69.1931 6.79747C68.9766 6.79747 68.7654 6.84717 68.5595 6.94657C68.3536 7.04597 68.1832 7.20572 68.0483 7.42583C67.9169 7.64592 67.8512 7.93347 67.8512 8.28847L67.388 8.15535C67.3773 7.74355 67.4572 7.38322 67.6276 7.07437C67.8015 6.76552 68.0394 6.5259 68.3411 6.3555C68.6464 6.18155 68.9908 6.09457 69.3742 6.09457C69.9528 6.09457 70.4161 6.27385 70.764 6.6324C71.1119 6.9874 71.2859 7.46842 71.2859 8.07547L71.2805 12H70.4978ZM63.6338 12V6.249H64.3367V7.66545H64.4219V12H63.6338ZM67.0738 12L67.0791 8.27782C67.0791 7.81987 66.9566 7.45955 66.7117 7.19685C66.4703 6.9306 66.1508 6.79747 65.7532 6.79747C65.3556 6.79747 65.0343 6.93415 64.7894 7.2075C64.5444 7.4773 64.4219 7.83762 64.4219 8.28847L63.9533 8.03287C63.9533 7.66367 64.0403 7.33352 64.2143 7.04242C64.3882 6.74777 64.6261 6.51702 64.9278 6.35017C65.2296 6.17977 65.5721 6.09457 65.9555 6.09457C66.3212 6.09457 66.646 6.17267 66.93 6.32887C67.2176 6.48507 67.443 6.71228 67.6063 7.01047C67.7696 7.30867 67.8512 7.67077 67.8512 8.09677L67.8459 12H67.0738Z" fill="white"/><path d="M0.852 112.667V104.999H1.63478V111.916H5.27708V112.667H0.852ZM7.61733 112.826C7.18423 112.826 6.82035 112.748 6.5257 112.592C6.2346 112.436 6.01628 112.228 5.87073 111.969C5.72518 111.71 5.6524 111.428 5.6524 111.122C5.6524 110.81 5.71453 110.544 5.83878 110.324C5.96658 110.1 6.13875 109.917 6.3553 109.775C6.5754 109.633 6.82923 109.525 7.11678 109.45C7.40788 109.379 7.72915 109.317 8.0806 109.264C8.4356 109.207 8.78173 109.159 9.11898 109.12C9.45978 109.077 9.75798 109.037 10.0136 108.998L9.73668 109.168C9.74733 108.6 9.63728 108.179 9.40653 107.906C9.17578 107.633 8.77463 107.496 8.20308 107.496C7.80903 107.496 7.47533 107.585 7.20198 107.762C6.93218 107.94 6.74225 108.22 6.6322 108.604L5.87073 108.38C6.00208 107.865 6.26655 107.466 6.66415 107.182C7.06175 106.898 7.57828 106.756 8.21373 106.756C8.73913 106.756 9.18465 106.855 9.5503 107.054C9.9195 107.249 10.1804 107.533 10.3331 107.906C10.4041 108.073 10.4502 108.259 10.4715 108.465C10.4928 108.671 10.5035 108.88 10.5035 109.093V112.667H9.8059V111.223L10.0083 111.309C9.813 111.802 9.50948 112.178 9.09768 112.438C8.68588 112.697 8.19243 112.826 7.61733 112.826ZM7.70785 112.15C8.0735 112.15 8.393 112.084 8.66635 111.953C8.9397 111.822 9.1598 111.642 9.32665 111.415C9.4935 111.184 9.60178 110.925 9.65148 110.638C9.69408 110.453 9.71715 110.251 9.7207 110.031C9.72425 109.807 9.72603 109.64 9.72603 109.53L10.0242 109.685C9.75798 109.72 9.46865 109.756 9.15625 109.791C8.8474 109.827 8.5421 109.867 8.24035 109.913C7.94215 109.96 7.67235 110.015 7.43095 110.079C7.26765 110.125 7.10968 110.19 6.95703 110.276C6.80438 110.357 6.67835 110.467 6.57895 110.606C6.4831 110.744 6.43518 110.916 6.43518 111.122C6.43518 111.289 6.476 111.451 6.55765 111.607C6.64285 111.763 6.77775 111.893 6.96235 111.996C7.1505 112.099 7.399 112.15 7.70785 112.15ZM15.8302 112.667V109.732C15.8302 109.413 15.8001 109.12 15.7397 108.854C15.6794 108.584 15.5817 108.35 15.4468 108.151C15.3155 107.949 15.1433 107.792 14.9303 107.682C14.7209 107.572 14.4653 107.517 14.1635 107.517C13.8866 107.517 13.6417 107.565 13.4287 107.661C13.2192 107.757 13.0417 107.895 12.8962 108.076C12.7542 108.254 12.6459 108.47 12.5713 108.726C12.4968 108.982 12.4595 109.273 12.4595 109.599L11.9057 109.477C11.9057 108.888 12.0087 108.392 12.2146 107.991C12.4205 107.59 12.7045 107.286 13.0666 107.081C13.4287 106.875 13.844 106.772 14.3126 106.772C14.657 106.772 14.9569 106.825 15.2125 106.931C15.4717 107.038 15.69 107.182 15.8675 107.363C16.0486 107.544 16.1941 107.752 16.3042 107.986C16.4142 108.217 16.4941 108.463 16.5438 108.726C16.5935 108.985 16.6183 109.244 16.6183 109.503V112.667H15.8302ZM11.6714 112.667V106.916H12.3796V108.332H12.4595V112.667H11.6714ZM20.0716 115.382C19.7769 115.382 19.4858 115.338 19.1983 115.249C18.9143 115.164 18.6516 115.027 18.4102 114.839C18.1688 114.655 17.9664 114.413 17.8031 114.115L18.5114 113.721C18.6711 114.04 18.8948 114.269 19.1823 114.408C19.4734 114.55 19.7698 114.621 20.0716 114.621C20.4869 114.621 20.8224 114.543 21.078 114.386C21.3372 114.234 21.5253 114.007 21.6425 113.705C21.7596 113.403 21.8164 113.027 21.8129 112.576V111.042H21.9034V106.916H22.601V112.587C22.601 112.75 22.5956 112.906 22.585 113.055C22.5779 113.208 22.5619 113.357 22.5371 113.503C22.4696 113.932 22.3294 114.285 22.1164 114.562C21.9069 114.839 21.63 115.045 21.2857 115.18C20.9449 115.315 20.5402 115.382 20.0716 115.382ZM20.0183 112.826C19.4823 112.826 19.0243 112.693 18.6445 112.427C18.2646 112.157 17.9735 111.793 17.7712 111.335C17.5688 110.877 17.4677 110.361 17.4677 109.786C17.4677 109.214 17.5671 108.699 17.7659 108.241C17.9682 107.783 18.2575 107.421 18.6338 107.155C19.0101 106.889 19.461 106.756 19.9864 106.756C20.526 106.756 20.9804 106.887 21.3496 107.15C21.7188 107.413 21.9975 107.773 22.1856 108.231C22.3773 108.685 22.4732 109.203 22.4732 109.786C22.4732 110.357 22.3791 110.874 22.1909 111.335C22.0028 111.793 21.7259 112.157 21.3602 112.427C20.9946 112.693 20.5473 112.826 20.0183 112.826ZM20.0982 112.097C20.5065 112.097 20.8437 111.997 21.11 111.799C21.3762 111.6 21.575 111.326 21.7064 110.978C21.8377 110.627 21.9034 110.229 21.9034 109.786C21.9034 109.335 21.8377 108.937 21.7064 108.593C21.575 108.245 21.3762 107.973 21.11 107.778C20.8473 107.583 20.5153 107.485 20.1142 107.485C19.7024 107.485 19.3616 107.586 19.0918 107.789C18.822 107.991 18.6214 108.266 18.4901 108.614C18.3623 108.962 18.2984 109.353 18.2984 109.786C18.2984 110.222 18.364 110.616 18.4954 110.968C18.6303 111.316 18.8309 111.591 19.0971 111.793C19.3634 111.996 19.6971 112.097 20.0982 112.097ZM26.076 112.81C25.7317 112.81 25.4299 112.757 25.1708 112.651C24.9152 112.544 24.6969 112.4 24.5158 112.219C24.3383 112.038 24.1945 111.832 24.0845 111.602C23.9744 111.367 23.8945 111.12 23.8448 110.861C23.7951 110.599 23.7703 110.338 23.7703 110.079V106.916H24.5584V109.85C24.5584 110.166 24.5886 110.458 24.6489 110.728C24.7093 110.998 24.8051 111.234 24.9365 111.436C25.0714 111.635 25.2435 111.79 25.453 111.9C25.666 112.01 25.9234 112.065 26.2251 112.065C26.502 112.065 26.7452 112.017 26.9547 111.921C27.1677 111.825 27.3452 111.688 27.4871 111.511C27.6327 111.33 27.7428 111.112 27.8173 110.856C27.8918 110.597 27.9291 110.306 27.9291 109.983L28.4829 110.105C28.4829 110.694 28.38 111.19 28.1741 111.591C27.9682 111.992 27.6842 112.296 27.3221 112.501C26.96 112.707 26.5446 112.81 26.076 112.81ZM28.009 112.667V111.25H27.9291V106.916H28.7119V112.667H28.009ZM31.6327 112.826C31.1996 112.826 30.8357 112.748 30.541 112.592C30.2499 112.436 30.0316 112.228 29.8861 111.969C29.7405 111.71 29.6677 111.428 29.6677 111.122C29.6677 110.81 29.7299 110.544 29.8541 110.324C29.9819 110.1 30.1541 109.917 30.3706 109.775C30.5907 109.633 30.8446 109.525 31.1321 109.45C31.4232 109.379 31.7445 109.317 32.0959 109.264C32.4509 109.207 32.7971 109.159 33.1343 109.12C33.4751 109.077 33.7733 109.037 34.0289 108.998L33.752 109.168C33.7627 108.6 33.6526 108.179 33.4219 107.906C33.1911 107.633 32.79 107.496 32.2184 107.496C31.8244 107.496 31.4907 107.585 31.2173 107.762C30.9475 107.94 30.7576 108.22 30.6475 108.604L29.8861 108.38C30.0174 107.865 30.2819 107.466 30.6795 107.182C31.0771 106.898 31.5936 106.756 32.2291 106.756C32.7545 106.756 33.2 106.855 33.5656 107.054C33.9348 107.249 34.1958 107.533 34.3484 107.906C34.4194 108.073 34.4656 108.259 34.4869 108.465C34.5082 108.671 34.5188 108.88 34.5188 109.093V112.667H33.8212V111.223L34.0236 111.309C33.8283 111.802 33.5248 112.178 33.113 112.438C32.7012 112.697 32.2078 112.826 31.6327 112.826ZM31.7232 112.15C32.0888 112.15 32.4083 112.084 32.6817 111.953C32.955 111.822 33.1751 111.642 33.342 111.415C33.5088 111.184 33.6171 110.925 33.6668 110.638C33.7094 110.453 33.7325 110.251 33.736 110.031C33.7396 109.807 33.7414 109.64 33.7414 109.53L34.0396 109.685C33.7733 109.72 33.484 109.756 33.1716 109.791C32.8627 109.827 32.5574 109.867 32.2557 109.913C31.9575 109.96 31.6877 110.015 31.4463 110.079C31.283 110.125 31.125 110.19 30.9724 110.276C30.8197 110.357 30.6937 110.467 30.5943 110.606C30.4984 110.744 30.4505 110.916 30.4505 111.122C30.4505 111.289 30.4913 111.451 30.573 111.607C30.6582 111.763 30.7931 111.893 30.9777 111.996C31.1658 112.099 31.4143 112.15 31.7232 112.15ZM37.9765 115.382C37.6818 115.382 37.3907 115.338 37.1032 115.249C36.8192 115.164 36.5565 115.027 36.3151 114.839C36.0737 114.655 35.8713 114.413 35.708 114.115L36.4163 113.721C36.576 114.04 36.7997 114.269 37.0872 114.408C37.3783 114.55 37.6747 114.621 37.9765 114.621C38.3918 114.621 38.7273 114.543 38.9829 114.386C39.2421 114.234 39.4302 114.007 39.5474 113.705C39.6645 113.403 39.7213 113.027 39.7178 112.576V111.042H39.8083V106.916H40.5059V112.587C40.5059 112.75 40.5005 112.906 40.4899 113.055C40.4828 113.208 40.4668 113.357 40.442 113.503C40.3745 113.932 40.2343 114.285 40.0213 114.562C39.8118 114.839 39.5349 115.045 39.1906 115.18C38.8498 115.315 38.4451 115.382 37.9765 115.382ZM37.9232 112.826C37.3872 112.826 36.9292 112.693 36.5494 112.427C36.1695 112.157 35.8784 111.793 35.6761 111.335C35.4737 110.877 35.3726 110.361 35.3726 109.786C35.3726 109.214 35.472 108.699 35.6708 108.241C35.8731 107.783 36.1624 107.421 36.5387 107.155C36.915 106.889 37.3659 106.756 37.8913 106.756C38.4309 106.756 38.8853 106.887 39.2545 107.15C39.6237 107.413 39.9024 107.773 40.0905 108.231C40.2822 108.685 40.3781 109.203 40.3781 109.786C40.3781 110.357 40.284 110.874 40.0958 111.335C39.9077 111.793 39.6308 112.157 39.2651 112.427C38.8995 112.693 38.4522 112.826 37.9232 112.826ZM38.0031 112.097C38.4114 112.097 38.7486 111.997 39.0149 111.799C39.2811 111.6 39.4799 111.326 39.6113 110.978C39.7426 110.627 39.8083 110.229 39.8083 109.786C39.8083 109.335 39.7426 108.937 39.6113 108.593C39.4799 108.245 39.2811 107.973 39.0149 107.778C38.7522 107.583 38.4202 107.485 38.0191 107.485C37.6073 107.485 37.2665 107.586 36.9967 107.789C36.7269 107.991 36.5263 108.266 36.395 108.614C36.2672 108.962 36.2033 109.353 36.2033 109.786C36.2033 110.222 36.2689 110.616 36.4003 110.968C36.5352 111.316 36.7358 111.591 37.002 111.793C37.2683 111.996 37.602 112.097 38.0031 112.097ZM44.2152 112.826C43.6543 112.826 43.168 112.702 42.7562 112.454C42.3479 112.205 42.0302 111.855 41.803 111.404C41.5758 110.954 41.4622 110.425 41.4622 109.818C41.4622 109.189 41.574 108.646 41.7977 108.188C42.0213 107.73 42.3355 107.377 42.7402 107.129C43.1484 106.88 43.6295 106.756 44.1833 106.756C44.7513 106.756 45.2358 106.887 45.637 107.15C46.0381 107.409 46.3417 107.782 46.5476 108.268C46.7535 108.754 46.8475 109.335 46.8298 110.009H46.031V109.732C46.0168 108.987 45.8553 108.424 45.5465 108.044C45.2412 107.665 44.7939 107.475 44.2046 107.475C43.5869 107.475 43.1129 107.675 42.7828 108.076C42.4562 108.478 42.2929 109.049 42.2929 109.791C42.2929 110.515 42.4562 111.078 42.7828 111.479C43.1129 111.877 43.5798 112.075 44.1833 112.075C44.5951 112.075 44.9536 111.981 45.2589 111.793C45.5678 111.602 45.8109 111.326 45.9884 110.968L46.718 111.25C46.4908 111.751 46.1553 112.139 45.7115 112.416C45.2713 112.69 44.7726 112.826 44.2152 112.826ZM42.016 110.009V109.354H46.4091V110.009H42.016ZM49.9445 112.821C49.27 112.821 48.7144 112.675 48.2778 112.384C47.8447 112.093 47.5784 111.688 47.479 111.17L48.2778 111.037C48.363 111.364 48.5565 111.625 48.8582 111.82C49.1635 112.012 49.5398 112.107 49.9871 112.107C50.4238 112.107 50.7681 112.017 51.0202 111.836C51.2722 111.651 51.3982 111.401 51.3982 111.085C51.3982 110.907 51.3574 110.764 51.2758 110.654C51.1977 110.54 51.0361 110.435 50.7912 110.339C50.5462 110.244 50.1806 110.13 49.6942 109.999C49.1724 109.857 48.7641 109.715 48.4695 109.573C48.1748 109.431 47.9654 109.267 47.8411 109.083C47.7169 108.895 47.6548 108.666 47.6548 108.396C47.6548 108.069 47.7471 107.783 47.9317 107.539C48.1163 107.29 48.3719 107.098 48.6985 106.963C49.0251 106.825 49.4049 106.756 49.838 106.756C50.2711 106.756 50.6581 106.827 50.9989 106.969C51.3432 107.107 51.6201 107.302 51.8296 107.555C52.039 107.807 52.1633 108.099 52.2023 108.433L51.4036 108.577C51.3503 108.24 51.1817 107.973 50.8977 107.778C50.6172 107.579 50.2605 107.476 49.8274 107.469C49.4191 107.459 49.0872 107.537 48.8316 107.704C48.576 107.867 48.4482 108.085 48.4482 108.359C48.4482 108.511 48.4943 108.643 48.5866 108.753C48.6789 108.859 48.8458 108.96 49.0872 109.056C49.3321 109.152 49.68 109.257 50.1309 109.37C50.6598 109.505 51.0752 109.647 51.3769 109.796C51.6787 109.945 51.8935 110.121 52.0213 110.324C52.1491 110.526 52.213 110.776 52.213 111.074C52.213 111.617 52.0106 112.045 51.6059 112.358C51.2048 112.667 50.651 112.821 49.9445 112.821Z" fill="white"/><path d="M3.84998 270.802C3.08673 270.802 2.4424 270.634 1.917 270.296C1.3916 269.956 0.994 269.485 0.7242 268.885C0.4544 268.285 0.3195 267.593 0.3195 266.809C0.3195 266.024 0.4544 265.332 0.7242 264.732C0.994 264.132 1.3916 263.663 1.917 263.326C2.4424 262.985 3.08673 262.815 3.84998 262.815C4.74103 262.815 5.46877 263.044 6.03322 263.502C6.59767 263.956 6.98463 264.567 7.19408 265.334L6.39533 265.541C6.23203 264.934 5.93915 264.453 5.5167 264.098C5.09425 263.743 4.53868 263.566 3.84998 263.566C3.25003 263.566 2.75125 263.702 2.35365 263.976C1.95605 264.249 1.65607 264.631 1.45372 265.121C1.25492 265.607 1.15197 266.17 1.14487 266.809C1.14133 267.448 1.23895 268.01 1.43775 268.497C1.6401 268.983 1.94185 269.365 2.343 269.641C2.7477 269.915 3.25003 270.052 3.84998 270.052C4.53868 270.052 5.09425 269.874 5.5167 269.519C5.93915 269.16 6.23203 268.679 6.39533 268.076L7.19408 268.284C6.98463 269.05 6.59767 269.663 6.03322 270.121C5.46877 270.575 4.74103 270.802 3.84998 270.802ZM10.5576 270.802C9.98601 270.802 9.49789 270.673 9.09319 270.414C8.68849 270.154 8.37786 269.796 8.16131 269.338C7.94476 268.88 7.83649 268.355 7.83649 267.762C7.83649 267.158 7.94654 266.629 8.16664 266.175C8.38674 265.721 8.69914 265.367 9.10384 265.115C9.51209 264.86 9.99666 264.732 10.5576 264.732C11.1327 264.732 11.6226 264.861 12.0273 265.121C12.4355 265.376 12.7461 265.733 12.9591 266.191C13.1757 266.645 13.284 267.169 13.284 267.762C13.284 268.365 13.1757 268.896 12.9591 269.354C12.7426 269.808 12.4302 270.163 12.0219 270.419C11.6137 270.675 11.1256 270.802 10.5576 270.802ZM10.5576 270.052C11.1966 270.052 11.6723 269.84 11.9847 269.418C12.2971 268.992 12.4533 268.44 12.4533 267.762C12.4533 267.066 12.2953 266.512 11.9793 266.1C11.6669 265.689 11.193 265.483 10.5576 265.483C10.128 265.483 9.77301 265.58 9.49256 265.776C9.21566 265.967 9.00799 266.235 8.86954 266.58C8.73464 266.92 8.66719 267.314 8.66719 267.762C8.66719 268.454 8.82694 269.01 9.14644 269.428C9.46594 269.844 9.93631 270.052 10.5576 270.052ZM18.3991 270.643V267.709C18.3991 267.389 18.3689 267.096 18.3086 266.83C18.2482 266.56 18.1506 266.326 18.0157 266.127C17.8844 265.925 17.7122 265.768 17.4992 265.658C17.2897 265.548 17.0341 265.493 16.7324 265.493C16.4555 265.493 16.2105 265.541 15.9975 265.637C15.7881 265.733 15.6106 265.871 15.465 266.052C15.323 266.23 15.2148 266.446 15.1402 266.702C15.0657 266.958 15.0284 267.249 15.0284 267.575L14.4746 267.453C14.4746 266.864 14.5775 266.368 14.7834 265.967C14.9893 265.566 15.2733 265.263 15.6354 265.057C15.9975 264.851 16.4129 264.748 16.8815 264.748C17.2258 264.748 17.5258 264.801 17.7814 264.908C18.0406 265.014 18.2589 265.158 18.4364 265.339C18.6174 265.52 18.763 265.728 18.873 265.962C18.9831 266.193 19.063 266.439 19.1127 266.702C19.1624 266.961 19.1872 267.22 19.1872 267.48V270.643H18.3991ZM14.2403 270.643V264.892H14.9485V266.308H15.0284V270.643H14.2403ZM23.4872 270.643C23.1641 270.71 22.8446 270.737 22.5287 270.722C22.2163 270.708 21.9358 270.641 21.6873 270.52C21.4424 270.399 21.256 270.211 21.1282 269.956C21.0252 269.743 20.9684 269.528 20.9578 269.311C20.9507 269.091 20.9471 268.841 20.9471 268.561V263.294H21.7246V268.529C21.7246 268.77 21.7264 268.972 21.7299 269.136C21.737 269.295 21.7743 269.437 21.8417 269.562C21.9695 269.799 22.1719 269.941 22.4488 269.988C22.7292 270.034 23.0754 270.023 23.4872 269.956V270.643ZM19.7171 265.563V264.892H23.4872V265.563H19.7171ZM26.0526 270.802C25.6195 270.802 25.2557 270.724 24.961 270.568C24.6699 270.412 24.4516 270.204 24.306 269.945C24.1605 269.686 24.0877 269.404 24.0877 269.098C24.0877 268.786 24.1498 268.52 24.2741 268.3C24.4019 268.076 24.5741 267.893 24.7906 267.751C25.0107 267.609 25.2645 267.501 25.5521 267.426C25.8432 267.355 26.1645 267.293 26.5159 267.24C26.8709 267.183 27.217 267.135 27.5543 267.096C27.8951 267.054 28.1933 267.013 28.4489 266.974L28.172 267.144C28.1826 266.576 28.0726 266.155 27.8418 265.882C27.6111 265.609 27.2099 265.472 26.6384 265.472C26.2443 265.472 25.9106 265.561 25.6373 265.738C25.3675 265.916 25.1776 266.196 25.0675 266.58L24.306 266.356C24.4374 265.841 24.7019 265.442 25.0995 265.158C25.4971 264.874 26.0136 264.732 26.649 264.732C27.1744 264.732 27.62 264.831 27.9856 265.03C28.3548 265.225 28.6157 265.509 28.7684 265.882C28.8394 266.049 28.8855 266.235 28.9068 266.441C28.9281 266.647 28.9388 266.857 28.9388 267.07V270.643H28.2412V269.2L28.4436 269.285C28.2483 269.778 27.9448 270.154 27.533 270.414C27.1212 270.673 26.6277 270.802 26.0526 270.802ZM26.1432 270.126C26.5088 270.126 26.8283 270.06 27.1017 269.929C27.375 269.798 27.5951 269.618 27.762 269.391C27.9288 269.16 28.0371 268.901 28.0868 268.614C28.1294 268.429 28.1525 268.227 28.156 268.007C28.1596 267.783 28.1613 267.616 28.1613 267.506L28.4595 267.661C28.1933 267.696 27.904 267.732 27.5916 267.767C27.2827 267.803 26.9774 267.843 26.6757 267.89C26.3775 267.936 26.1077 267.991 25.8663 268.055C25.703 268.101 25.545 268.166 25.3923 268.252C25.2397 268.333 25.1137 268.443 25.0143 268.582C24.9184 268.72 24.8705 268.892 24.8705 269.098C24.8705 269.265 24.9113 269.427 24.993 269.583C25.0782 269.739 25.2131 269.869 25.3977 269.972C25.5858 270.075 25.8343 270.126 26.1432 270.126ZM30.2185 263.8V262.921H31.0013V263.8H30.2185ZM30.2185 270.643V264.892H31.0013V270.643H30.2185ZM36.5382 270.643V267.709C36.5382 267.389 36.5081 267.096 36.4477 266.83C36.3874 266.56 36.2897 266.326 36.1548 266.127C36.0235 265.925 35.8513 265.768 35.6383 265.658C35.4289 265.548 35.1733 265.493 34.8715 265.493C34.5946 265.493 34.3497 265.541 34.1367 265.637C33.9272 265.733 33.7497 265.871 33.6042 266.052C33.4622 266.23 33.3539 266.446 33.2793 266.702C33.2048 266.958 33.1675 267.249 33.1675 267.575L32.6137 267.453C32.6137 266.864 32.7167 266.368 32.9226 265.967C33.1285 265.566 33.4125 265.263 33.7746 265.057C34.1367 264.851 34.552 264.748 35.0206 264.748C35.365 264.748 35.6649 264.801 35.9205 264.908C36.1797 265.014 36.398 265.158 36.5755 265.339C36.7566 265.52 36.9021 265.728 37.0122 265.962C37.1222 266.193 37.2021 266.439 37.2518 266.702C37.3015 266.961 37.3263 267.22 37.3263 267.48V270.643H36.5382ZM32.3794 270.643V264.892H33.0876V266.308H33.1675V270.643H32.3794ZM40.8975 270.802C40.3366 270.802 39.8502 270.678 39.4384 270.43C39.0302 270.181 38.7125 269.831 38.4853 269.381C38.2581 268.93 38.1445 268.401 38.1445 267.794C38.1445 267.165 38.2563 266.622 38.4799 266.164C38.7036 265.706 39.0178 265.353 39.4225 265.105C39.8307 264.856 40.3117 264.732 40.8655 264.732C41.4335 264.732 41.9181 264.863 42.3193 265.126C42.7204 265.385 43.0239 265.758 43.2298 266.244C43.4357 266.73 43.5298 267.311 43.5121 267.985H42.7133V267.709C42.6991 266.963 42.5376 266.4 42.2287 266.02C41.9234 265.641 41.4761 265.451 40.8868 265.451C40.2691 265.451 39.7952 265.651 39.4651 266.052C39.1385 266.454 38.9752 267.025 38.9752 267.767C38.9752 268.491 39.1385 269.054 39.4651 269.455C39.7952 269.853 40.262 270.052 40.8655 270.052C41.2773 270.052 41.6359 269.957 41.9412 269.769C42.25 269.578 42.4932 269.302 42.6707 268.944L43.4002 269.226C43.173 269.727 42.8376 270.115 42.3938 270.392C41.9536 270.666 41.4548 270.802 40.8975 270.802ZM38.6983 267.985V267.33H43.0914V267.985H38.6983ZM44.4808 270.643V264.892H45.1837V266.276L45.0453 266.095C45.1092 265.925 45.1926 265.768 45.2955 265.626C45.3985 265.481 45.5103 265.362 45.631 265.27C45.7801 265.138 45.9541 265.039 46.1529 264.971C46.3517 264.9 46.5522 264.86 46.7546 264.849C46.9569 264.835 47.1415 264.849 47.3084 264.892V265.626C47.0989 265.573 46.87 265.561 46.6215 265.589C46.373 265.618 46.144 265.717 45.9345 265.887C45.7428 266.036 45.5991 266.216 45.5032 266.425C45.4074 266.631 45.3435 266.851 45.3115 267.085C45.2796 267.316 45.2636 267.545 45.2636 267.772V270.643H44.4808ZM48.2121 263.8V262.921H48.9948V263.8H48.2121ZM48.2121 270.643V264.892H48.9948V270.643H48.2121ZM49.8457 270.643V270.478L53.5573 265.621H50.1226V264.892H54.8459V265.073L51.1397 269.913H54.6436V270.643H49.8457ZM57.1253 270.802C56.6922 270.802 56.3283 270.724 56.0336 270.568C55.7425 270.412 55.5242 270.204 55.3787 269.945C55.2331 269.686 55.1603 269.404 55.1603 269.098C55.1603 268.786 55.2225 268.52 55.3467 268.3C55.4745 268.076 55.6467 267.893 55.8632 267.751C56.0833 267.609 56.3372 267.501 56.6247 267.426C56.9158 267.355 57.2371 267.293 57.5885 267.24C57.9435 267.183 58.2897 267.135 58.6269 267.096C58.9677 267.054 59.2659 267.013 59.5215 266.974L59.2446 267.144C59.2553 266.576 59.1452 266.155 58.9145 265.882C58.6837 265.609 58.2826 265.472 57.711 265.472C57.317 265.472 56.9833 265.561 56.7099 265.738C56.4401 265.916 56.2502 266.196 56.1401 266.58L55.3787 266.356C55.51 265.841 55.7745 265.442 56.1721 265.158C56.5697 264.874 57.0862 264.732 57.7217 264.732C58.2471 264.732 58.6926 264.831 59.0582 265.03C59.4274 265.225 59.6884 265.509 59.841 265.882C59.912 266.049 59.9582 266.235 59.9795 266.441C60.0008 266.647 60.0114 266.857 60.0114 267.07V270.643H59.3138V269.2L59.5162 269.285C59.3209 269.778 59.0174 270.154 58.6056 270.414C58.1938 270.673 57.7004 270.802 57.1253 270.802ZM57.2158 270.126C57.5814 270.126 57.9009 270.06 58.1743 269.929C58.4476 269.798 58.6677 269.618 58.8346 269.391C59.0014 269.16 59.1097 268.901 59.1594 268.614C59.202 268.429 59.2251 268.227 59.2286 268.007C59.2322 267.783 59.234 267.616 59.234 267.506L59.5322 267.661C59.2659 267.696 58.9766 267.732 58.6642 267.767C58.3553 267.803 58.05 267.843 57.7483 267.89C57.4501 267.936 57.1803 267.991 56.9389 268.055C56.7756 268.101 56.6176 268.166 56.465 268.252C56.3123 268.333 56.1863 268.443 56.0869 268.582C55.991 268.72 55.9431 268.892 55.9431 269.098C55.9431 269.265 55.9839 269.427 56.0656 269.583C56.1508 269.739 56.2857 269.869 56.4703 269.972C56.6584 270.075 56.9069 270.126 57.2158 270.126ZM64.3158 270.643C63.9927 270.71 63.6732 270.737 63.3573 270.722C63.0449 270.708 62.7644 270.641 62.5159 270.52C62.271 270.399 62.0846 270.211 61.9568 269.956C61.8538 269.743 61.797 269.528 61.7864 269.311C61.7793 269.091 61.7757 268.841 61.7757 268.561V263.294H62.5532V268.529C62.5532 268.77 62.555 268.972 62.5585 269.136C62.5656 269.295 62.6029 269.437 62.6703 269.562C62.7981 269.799 63.0005 269.941 63.2774 269.988C63.5578 270.034 63.904 270.023 64.3158 269.956V270.643ZM60.5457 265.563V264.892H64.3158V265.563H60.5457ZM65.3423 263.8V262.921H66.1251V263.8H65.3423ZM65.3423 270.643V264.892H66.1251V270.643H65.3423ZM69.9101 270.802C69.3385 270.802 68.8504 270.673 68.4457 270.414C68.041 270.154 67.7304 269.796 67.5138 269.338C67.2973 268.88 67.189 268.355 67.189 267.762C67.189 267.158 67.2991 266.629 67.5192 266.175C67.7393 265.721 68.0517 265.367 68.4564 265.115C68.8646 264.86 69.3492 264.732 69.9101 264.732C70.4852 264.732 70.9751 264.861 71.3798 265.121C71.788 265.376 72.0987 265.733 72.3117 266.191C72.5282 266.645 72.6365 267.169 72.6365 267.762C72.6365 268.365 72.5282 268.896 72.3117 269.354C72.0951 269.808 71.7827 270.163 71.3745 270.419C70.9662 270.675 70.4781 270.802 69.9101 270.802ZM69.9101 270.052C70.5491 270.052 71.0248 269.84 71.3372 269.418C71.6496 268.992 71.8058 268.44 71.8058 267.762C71.8058 267.066 71.6478 266.512 71.3319 266.1C71.0195 265.689 70.5455 265.483 69.9101 265.483C69.4805 265.483 69.1255 265.58 68.8451 265.776C68.5682 265.967 68.3605 266.235 68.2221 266.58C68.0872 266.92 68.0197 267.314 68.0197 267.762C68.0197 268.454 68.1795 269.01 68.499 269.428C68.8185 269.844 69.2888 270.052 69.9101 270.052ZM77.7517 270.643V267.709C77.7517 267.389 77.7215 267.096 77.6611 266.83C77.6008 266.56 77.5032 266.326 77.3683 266.127C77.2369 265.925 77.0647 265.768 76.8517 265.658C76.6423 265.548 76.3867 265.493 76.0849 265.493C75.808 265.493 75.5631 265.541 75.3501 265.637C75.1406 265.733 74.9631 265.871 74.8176 266.052C74.6756 266.23 74.5673 266.446 74.4928 266.702C74.4182 266.958 74.3809 267.249 74.3809 267.575L73.8271 267.453C73.8271 266.864 73.9301 266.368 74.136 265.967C74.3419 265.566 74.6259 265.263 74.988 265.057C75.3501 264.851 75.7654 264.748 76.234 264.748C76.5784 264.748 76.8784 264.801 77.134 264.908C77.3931 265.014 77.6114 265.158 77.7889 265.339C77.97 265.52 78.1155 265.728 78.2256 265.962C78.3356 266.193 78.4155 266.439 78.4652 266.702C78.5149 266.961 78.5398 267.22 78.5398 267.48V270.643H77.7517ZM73.5928 270.643V264.892H74.3011V266.308H74.3809V270.643H73.5928ZM81.6469 262.975H82.451L80.4062 270.643H79.6021L81.6469 262.975ZM86.729 270.802C85.9658 270.802 85.3214 270.634 84.796 270.296C84.2706 269.956 83.873 269.485 83.6032 268.885C83.3334 268.285 83.1985 267.593 83.1985 266.809C83.1985 266.024 83.3334 265.332 83.6032 264.732C83.873 264.132 84.2706 263.663 84.796 263.326C85.3214 262.985 85.9658 262.815 86.729 262.815C87.4958 262.815 88.1401 262.985 88.662 263.326C89.1874 263.663 89.585 264.132 89.8548 264.732C90.1281 265.332 90.2648 266.024 90.2648 266.809C90.2648 267.593 90.1281 268.285 89.8548 268.885C89.585 269.485 89.1874 269.956 88.662 270.296C88.1401 270.634 87.4958 270.802 86.729 270.802ZM86.729 270.052C87.329 270.052 87.8295 269.915 88.2307 269.641C88.6318 269.368 88.9318 268.988 89.1306 268.502C89.3329 268.012 89.4341 267.448 89.4341 266.809C89.4341 266.17 89.3329 265.607 89.1306 265.121C88.9318 264.634 88.6318 264.254 88.2307 263.981C87.8295 263.708 87.329 263.569 86.729 263.566C86.1291 263.566 85.6303 263.702 85.2327 263.976C84.8351 264.249 84.5351 264.631 84.3328 265.121C84.134 265.607 84.0328 266.17 84.0292 266.809C84.0257 267.448 84.1233 268.01 84.3221 268.497C84.5245 268.979 84.8262 269.359 85.2274 269.636C85.6285 269.91 86.1291 270.048 86.729 270.052ZM91.1182 270.643V264.892H91.8211V266.276L91.6827 266.095C91.7466 265.925 91.83 265.768 91.933 265.626C92.0359 265.481 92.1477 265.362 92.2684 265.27C92.4175 265.138 92.5915 265.039 92.7903 264.971C92.9891 264.9 93.1897 264.86 93.392 264.849C93.5944 264.835 93.779 264.849 93.9458 264.892V265.626C93.7364 265.573 93.5074 265.561 93.2589 265.589C93.0104 265.618 92.7814 265.717 92.572 265.887C92.3803 266.036 92.2365 266.216 92.1406 266.425C92.0448 266.631 91.9809 266.851 91.9489 267.085C91.917 267.316 91.901 267.545 91.901 267.772V270.643H91.1182ZM97.0246 270.802C96.4459 270.802 95.956 270.673 95.5549 270.414C95.1537 270.154 94.8484 269.798 94.639 269.343C94.4331 268.885 94.3266 268.36 94.3195 267.767C94.3266 267.164 94.4366 266.635 94.6496 266.18C94.8626 265.722 95.1697 265.367 95.5709 265.115C95.972 264.86 96.4584 264.732 97.0299 264.732C97.6121 264.732 98.118 264.874 98.5475 265.158C98.9806 265.442 99.2771 265.831 99.4368 266.324L98.67 266.569C98.5351 266.225 98.3203 265.958 98.0257 265.77C97.7346 265.579 97.4009 265.483 97.0246 265.483C96.6021 265.483 96.2525 265.58 95.9756 265.776C95.6987 265.967 95.4928 266.235 95.3579 266.58C95.223 266.924 95.1537 267.32 95.1502 267.767C95.1573 268.456 95.317 269.01 95.6294 269.428C95.9418 269.844 96.4069 270.052 97.0246 270.052C97.4151 270.052 97.747 269.963 98.0204 269.785C98.2973 269.604 98.5067 269.342 98.6487 268.997L99.4368 269.231C99.2238 269.743 98.9114 270.133 98.4996 270.403C98.0878 270.669 97.5961 270.802 97.0246 270.802ZM104.476 270.643V267.709C104.476 267.389 104.446 267.096 104.386 266.83C104.326 266.56 104.228 266.326 104.093 266.127C103.962 265.925 103.79 265.768 103.577 265.658C103.367 265.548 103.112 265.493 102.81 265.493C102.533 265.493 102.288 265.541 102.075 265.637C101.865 265.733 101.688 265.871 101.542 266.052C101.4 266.23 101.292 266.446 101.218 266.702C101.143 266.958 101.106 267.249 101.106 267.575L100.552 267.453C100.552 266.864 100.655 266.368 100.861 265.967C101.067 265.566 101.351 265.263 101.713 265.057C102.075 264.851 102.49 264.748 102.959 264.748C103.303 264.748 103.603 264.801 103.859 264.908C104.118 265.014 104.336 265.158 104.514 265.339C104.695 265.52 104.84 265.728 104.95 265.962C105.06 266.193 105.14 266.439 105.19 266.702C105.24 266.961 105.265 267.22 105.265 267.48V270.643H104.476ZM100.318 270.643V262.975H101.026V267.304H101.106V270.643H100.318ZM108.867 270.802C108.306 270.802 107.82 270.678 107.408 270.43C107 270.181 106.682 269.831 106.455 269.381C106.228 268.93 106.114 268.401 106.114 267.794C106.114 267.165 106.226 266.622 106.449 266.164C106.673 265.706 106.987 265.353 107.392 265.105C107.8 264.856 108.281 264.732 108.835 264.732C109.403 264.732 109.888 264.863 110.289 265.126C110.69 265.385 110.993 265.758 111.199 266.244C111.405 266.73 111.499 267.311 111.482 267.985H110.683V267.709C110.669 266.963 110.507 266.4 110.198 266.02C109.893 265.641 109.446 265.451 108.856 265.451C108.239 265.451 107.765 265.651 107.435 266.052C107.108 266.454 106.945 267.025 106.945 267.767C106.945 268.491 107.108 269.054 107.435 269.455C107.765 269.853 108.232 270.052 108.835 270.052C109.247 270.052 109.605 269.957 109.911 269.769C110.22 269.578 110.463 269.302 110.64 268.944L111.37 269.226C111.143 269.727 110.807 270.115 110.363 270.392C109.923 270.666 109.424 270.802 108.867 270.802ZM106.668 267.985V267.33H111.061V267.985H106.668ZM114.596 270.797C113.922 270.797 113.366 270.651 112.93 270.36C112.496 270.069 112.23 269.665 112.131 269.146L112.93 269.013C113.015 269.34 113.208 269.601 113.51 269.796C113.815 269.988 114.192 270.083 114.639 270.083C115.075 270.083 115.42 269.993 115.672 269.812C115.924 269.627 116.05 269.377 116.05 269.061C116.05 268.884 116.009 268.74 115.927 268.63C115.849 268.516 115.688 268.411 115.443 268.316C115.198 268.22 114.832 268.106 114.346 267.975C113.824 267.833 113.416 267.691 113.121 267.549C112.827 267.407 112.617 267.243 112.493 267.059C112.369 266.871 112.306 266.642 112.306 266.372C112.306 266.045 112.399 265.76 112.583 265.515C112.768 265.266 113.024 265.074 113.35 264.94C113.677 264.801 114.057 264.732 114.49 264.732C114.923 264.732 115.31 264.803 115.651 264.945C115.995 265.083 116.272 265.279 116.481 265.531C116.691 265.783 116.815 266.076 116.854 266.409L116.055 266.553C116.002 266.216 115.833 265.949 115.549 265.754C115.269 265.555 114.912 265.452 114.479 265.445C114.071 265.435 113.739 265.513 113.483 265.68C113.228 265.843 113.1 266.061 113.1 266.335C113.1 266.487 113.146 266.619 113.238 266.729C113.331 266.835 113.498 266.936 113.739 267.032C113.984 267.128 114.332 267.233 114.783 267.346C115.312 267.481 115.727 267.623 116.029 267.772C116.33 267.922 116.545 268.097 116.673 268.3C116.801 268.502 116.865 268.752 116.865 269.05C116.865 269.594 116.662 270.021 116.258 270.334C115.856 270.643 115.303 270.797 114.596 270.797ZM120.964 270.643C120.641 270.71 120.321 270.737 120.005 270.722C119.693 270.708 119.412 270.641 119.164 270.52C118.919 270.399 118.733 270.211 118.605 269.956C118.502 269.743 118.445 269.528 118.434 269.311C118.427 269.091 118.424 268.841 118.424 268.561V263.294H119.201V268.529C119.201 268.77 119.203 268.972 119.207 269.136C119.214 269.295 119.251 269.437 119.318 269.562C119.446 269.799 119.648 269.941 119.925 269.988C120.206 270.034 120.552 270.023 120.964 269.956V270.643ZM117.194 265.563V264.892H120.964V265.563H117.194ZM121.884 270.643V264.892H122.587V266.276L122.448 266.095C122.512 265.925 122.596 265.768 122.699 265.626C122.802 265.481 122.913 265.362 123.034 265.27C123.183 265.138 123.357 265.039 123.556 264.971C123.755 264.9 123.955 264.86 124.158 264.849C124.36 264.835 124.545 264.849 124.711 264.892V265.626C124.502 265.573 124.273 265.561 124.024 265.589C123.776 265.618 123.547 265.717 123.338 265.887C123.146 266.036 123.002 266.216 122.906 266.425C122.81 266.631 122.746 266.851 122.715 267.085C122.683 267.316 122.667 267.545 122.667 267.772V270.643H121.884ZM126.936 270.802C126.502 270.802 126.139 270.724 125.844 270.568C125.553 270.412 125.335 270.204 125.189 269.945C125.043 269.686 124.971 269.404 124.971 269.098C124.971 268.786 125.033 268.52 125.157 268.3C125.285 268.076 125.457 267.893 125.674 267.751C125.894 267.609 126.147 267.501 126.435 267.426C126.726 267.355 127.047 267.293 127.399 267.24C127.754 267.183 128.1 267.135 128.437 267.096C128.778 267.054 129.076 267.013 129.332 266.974L129.055 267.144C129.066 266.576 128.956 266.155 128.725 265.882C128.494 265.609 128.093 265.472 127.521 265.472C127.127 265.472 126.794 265.561 126.52 265.738C126.25 265.916 126.061 266.196 125.95 266.58L125.189 266.356C125.32 265.841 125.585 265.442 125.982 265.158C126.38 264.874 126.897 264.732 127.532 264.732C128.057 264.732 128.503 264.831 128.869 265.03C129.238 265.225 129.499 265.509 129.651 265.882C129.722 266.049 129.768 266.235 129.79 266.441C129.811 266.647 129.822 266.857 129.822 267.07V270.643H129.124V269.2L129.327 269.285C129.131 269.778 128.828 270.154 128.416 270.414C128.004 270.673 127.511 270.802 126.936 270.802ZM127.026 270.126C127.392 270.126 127.711 270.06 127.985 269.929C128.258 269.798 128.478 269.618 128.645 269.391C128.812 269.16 128.92 268.901 128.97 268.614C129.012 268.429 129.035 268.227 129.039 268.007C129.043 267.783 129.044 267.616 129.044 267.506L129.342 267.661C129.076 267.696 128.787 267.732 128.475 267.767C128.166 267.803 127.86 267.843 127.559 267.89C127.26 267.936 126.991 267.991 126.749 268.055C126.586 268.101 126.428 268.166 126.275 268.252C126.123 268.333 125.997 268.443 125.897 268.582C125.801 268.72 125.753 268.892 125.753 269.098C125.753 269.265 125.794 269.427 125.876 269.583C125.961 269.739 126.096 269.869 126.281 269.972C126.469 270.075 126.717 270.126 127.026 270.126ZM134.126 270.643C133.803 270.71 133.484 270.737 133.168 270.722C132.855 270.708 132.575 270.641 132.326 270.52C132.081 270.399 131.895 270.211 131.767 269.956C131.664 269.743 131.607 269.528 131.597 269.311C131.59 269.091 131.586 268.841 131.586 268.561V263.294H132.364V268.529C132.364 268.77 132.365 268.972 132.369 269.136C132.376 269.295 132.413 269.437 132.481 269.562C132.608 269.799 132.811 269.941 133.088 269.988C133.368 270.034 133.714 270.023 134.126 269.956V270.643ZM130.356 265.563V264.892H134.126V265.563H130.356ZM135.153 263.8V262.921H135.935V263.8H135.153ZM135.153 270.643V264.892H135.935V270.643H135.153ZM139.72 270.802C139.149 270.802 138.661 270.673 138.256 270.414C137.851 270.154 137.541 269.796 137.324 269.338C137.108 268.88 136.999 268.355 136.999 267.762C136.999 267.158 137.109 266.629 137.329 266.175C137.55 265.721 137.862 265.367 138.267 265.115C138.675 264.86 139.16 264.732 139.72 264.732C140.296 264.732 140.785 264.861 141.19 265.121C141.598 265.376 141.909 265.733 142.122 266.191C142.339 266.645 142.447 267.169 142.447 267.762C142.447 268.365 142.339 268.896 142.122 269.354C141.905 269.808 141.593 270.163 141.185 270.419C140.777 270.675 140.288 270.802 139.72 270.802ZM139.72 270.052C140.359 270.052 140.835 269.84 141.148 269.418C141.46 268.992 141.616 268.44 141.616 267.762C141.616 267.066 141.458 266.512 141.142 266.1C140.83 265.689 140.356 265.483 139.72 265.483C139.291 265.483 138.936 265.58 138.655 265.776C138.379 265.967 138.171 266.235 138.032 266.58C137.897 266.92 137.83 267.314 137.83 267.762C137.83 268.454 137.99 269.01 138.309 269.428C138.629 269.844 139.099 270.052 139.72 270.052ZM147.562 270.643V267.709C147.562 267.389 147.532 267.096 147.471 266.83C147.411 266.56 147.313 266.326 147.179 266.127C147.047 265.925 146.875 265.768 146.662 265.658C146.453 265.548 146.197 265.493 145.895 265.493C145.618 265.493 145.373 265.541 145.16 265.637C144.951 265.733 144.773 265.871 144.628 266.052C144.486 266.23 144.378 266.446 144.303 266.702C144.229 266.958 144.191 267.249 144.191 267.575L143.637 267.453C143.637 266.864 143.74 266.368 143.946 265.967C144.152 265.566 144.436 265.263 144.798 265.057C145.16 264.851 145.576 264.748 146.044 264.748C146.389 264.748 146.689 264.801 146.944 264.908C147.203 265.014 147.422 265.158 147.599 265.339C147.78 265.52 147.926 265.728 148.036 265.962C148.146 266.193 148.226 266.439 148.276 266.702C148.325 266.961 148.35 267.22 148.35 267.48V270.643H147.562ZM143.403 270.643V264.892H144.111V266.308H144.191V270.643H143.403Z" fill="white"/><rect x="292.104" y="176.485" width="375.793" height="147.579" rx="7.60714" stroke="#00FF99" stroke-width="1.52143" stroke-dasharray="6.09 6.09"/><circle cx="3.04286" cy="3.04286" r="3.04286" transform="matrix(4.37114e-08 -1 -1 -4.37114e-08 742.446 458.711)" fill="#DEDEDE"/><circle cx="3.04286" cy="3.04286" r="3.04286" transform="matrix(4.37114e-08 -1 -1 -4.37114e-08 742.446 329.389)" fill="#DEDEDE"/><circle cx="3.04286" cy="3.04286" r="3.04286" transform="matrix(4.37114e-08 -1 -1 -4.37114e-08 742.446 204.632)" fill="#DEDEDE"/><circle cx="3.04286" cy="3.04286" r="3.04286" transform="matrix(4.37114e-08 -1 -1 -4.37114e-08 742.446 73.7891)" fill="#DEDEDE"/><path d="M96.5 44L245.691 44C249.893 44 253.299 47.4058 253.299 51.6071L253.299 137L253.299 222.393C253.299 226.594 256.704 230 260.906 230L292.001 230" stroke="#DEDEDE" stroke-width="1.52143"/><path d="M150.5 44L245.691 44C249.892 44 253.298 47.4058 253.298 51.6071L253.298 137L253.298 222.393C253.298 226.594 256.704 230 260.905 230L292 230" stroke="#DEDEDE" stroke-width="1.52143"/><path d="M43.5 144L245.624 144C249.826 144 253.232 147.406 253.232 151.607L253.232 187L253.232 222.393C253.232 226.594 256.637 230 260.839 230L292 230" stroke="#DEDEDE" stroke-width="1.52143"/><path d="M204 44L245.691 44C249.892 44 253.298 47.4058 253.298 51.6071L253.298 137L253.298 222.393C253.298 226.594 256.704 230 260.905 230L292 230" stroke="#DEDEDE" stroke-width="1.52143"/><path d="M97 144L245.624 144C249.826 144 253.232 147.406 253.232 151.607L253.232 187L253.232 222.393C253.232 226.594 256.637 230 260.839 230L292 230" stroke="#DEDEDE" stroke-width="1.52143"/><path d="M150 144L245.554 144C249.755 144 253.161 147.406 253.161 151.607L253.161 187L253.161 222.393C253.161 226.594 256.567 230 260.768 230L292 230" stroke="#DEDEDE" stroke-width="1.52143"/><path d="M204 144L245.691 144C249.892 144 253.298 147.406 253.298 151.607L253.298 187L253.298 222.393C253.298 226.594 256.704 230 260.905 230L292 230" stroke="#DEDEDE" stroke-width="1.52143"/><path d="M739.403 70.7461L714.3 70.7461C710.098 70.7461 706.693 74.1519 706.693 78.3532L706.693 150.241L706.693 222.128C706.693 226.33 703.287 229.735 699.085 229.735L667.896 229.735" stroke="#DEDEDE" stroke-width="1.52143"/><path d="M96 198L234.451 198C238.653 198 242.058 201.406 242.058 205.607L242.058 234.393C242.058 238.594 245.464 242 249.666 242L292.001 242" stroke="#DEDEDE" stroke-width="1.52143"/><path d="M149 198L234.451 198C238.652 198 242.058 201.406 242.058 205.607L242.058 234.393C242.058 238.594 245.464 242 249.665 242L292 242" stroke="#DEDEDE" stroke-width="1.52143"/><path d="M203 198L234.451 198C238.652 198 242.058 201.406 242.058 205.607L242.058 234.393C242.058 238.594 245.464 242 249.665 242L292 242" stroke="#DEDEDE" stroke-width="1.52143"/><path d="M739.403 201.589L725.472 201.589C721.271 201.589 717.865 204.995 717.865 209.196L717.865 234.3C717.865 238.501 714.459 241.907 710.258 241.907L667.896 241.907" stroke="#DEDEDE" stroke-width="1.52143"/><path d="M96.5 455.668L245.701 455.668C249.902 455.668 253.308 452.262 253.308 448.061L253.308 362.1L253.308 276.139C253.308 271.938 256.714 268.532 260.915 268.532L292.104 268.532" stroke="#DEDEDE" stroke-width="1.52143"/><path d="M150.5 455.668L245.7 455.668C249.902 455.668 253.308 452.262 253.308 448.061L253.308 362.1L253.308 276.139C253.308 271.938 256.713 268.532 260.915 268.532L292.104 268.532" stroke="#DEDEDE" stroke-width="1.52143"/><path d="M204 455.668L245.7 455.668C249.902 455.668 253.308 452.262 253.308 448.061L253.308 362.1L253.308 276.139C253.308 271.938 256.713 268.532 260.915 268.532L292.104 268.532" stroke="#DEDEDE" stroke-width="1.52143"/><path d="M739.403 455.668L714.3 455.668C710.098 455.668 706.693 452.262 706.693 448.061L706.693 362.1L706.693 276.139C706.693 271.938 703.287 268.532 699.085 268.532L667.896 268.532" stroke="#DEDEDE" stroke-width="1.52143"/><path d="M96 303.333L234.546 303.333C238.747 303.333 242.153 299.928 242.153 295.726L242.153 261.607C242.153 257.406 245.559 254 249.76 254L292.001 254" stroke="#DEDEDE" stroke-width="1.52143"/><path d="M150.5 303.333L234.546 303.333C238.747 303.333 242.153 299.928 242.153 295.726L242.153 261.607C242.153 257.406 245.559 254 249.76 254L292 254" stroke="#DEDEDE" stroke-width="1.52143"/><path d="M204 303.333L234.546 303.333C238.747 303.333 242.153 299.928 242.153 295.726L242.153 261.607C242.153 257.406 245.559 254 249.76 254L292 254" stroke="#DEDEDE" stroke-width="1.52143"/><path d="M97 403L234.46 403C238.661 403 242.067 399.594 242.067 395.393L242.067 261.607C242.067 257.406 245.473 254 249.674 254L292 254" stroke="#DEDEDE" stroke-width="1.52143"/><path d="M151 403L234.722 403C238.923 403 242.329 399.594 242.329 395.393L242.329 261.607C242.329 257.406 245.735 254 249.936 254L292 254" stroke="#DEDEDE" stroke-width="1.52143"/><path d="M204 403L234.545 403C238.747 403 242.153 399.594 242.153 395.393L242.153 261.607C242.153 257.406 245.558 254 249.76 254L292 254" stroke="#DEDEDE" stroke-width="1.52143"/><path d="M739.403 326.346L725.472 326.346C721.271 326.346 717.865 322.94 717.865 318.739L717.865 261.685C717.865 257.484 714.459 254.078 710.258 254.078L667.896 254.078" stroke="#DEDEDE" stroke-width="1.52143"/><rect x="0.333984" y="123" width="43.3333" height="43.3333" rx="7.60714" fill="#0C4A3F"/><rect x="4.33398" y="129" width="35.3333" height="32" fill="url(#pattern1)"/><rect y="176" width="43.3333" height="43.3333" rx="7.60714" fill="#0C4A3F"/><rect x="11.334" y="184.667" width="22.6667" height="26" fill="url(#pattern2)"/><rect y="281" width="43.3333" height="43.3333" rx="7.60714" fill="#0C4A3F"/><rect x="9" y="290" width="26" height="26" fill="url(#pattern3)"/><rect y="22" width="43.3333" height="43.3333" rx="7.60714" fill="#0C4A3F"/><rect x="6.66602" y="35.333" width="29.3333" height="16.6667" fill="url(#pattern4)"/><rect x="53" y="176" width="43.3333" height="43.3333" rx="7.60714" fill="#0C4A3F"/><rect x="63" y="184.667" width="23.3333" height="26" fill="url(#pattern5)"/><rect x="53" y="281" width="43.3333" height="43.3333" rx="7.60714" fill="#0C4A3F"/><rect x="59" y="287" width="32" height="31" fill="url(#pattern6)"/><rect x="53.334" y="22" width="43.3333" height="43.3333" rx="7.60714" fill="#0C4A3F"/><rect x="62.667" y="32" width="24.6667" height="23.3333" fill="url(#pattern7)"/><rect x="160" y="176" width="43.3333" height="43.3333" rx="7.60714" fill="#0C4A3F"/><rect x="171" y="187" width="22" height="22" fill="url(#pattern8)"/><rect x="160" y="281" width="43.3333" height="43.3333" rx="7.60714" fill="#0C4A3F"/><rect x="169" y="290" width="26" height="26" fill="url(#pattern9)"/><rect x="106" y="176" width="43.3333" height="43.3333" rx="7.60714" fill="#0C4A3F"/><rect x="116" y="186" width="23.5821" height="23.5821" fill="url(#pattern10)"/><rect x="106" y="281" width="43.3333" height="43.3333" rx="7.60714" fill="#0C4A3F"/><rect x="109" y="284" width="37" height="37" fill="url(#pattern11)"/><rect x="106.666" y="22" width="43.3333" height="43.3333" rx="7.60714" fill="#0C4A3F"/><rect x="115.333" y="32.6665" width="26.6667" height="21.3333" fill="url(#pattern12)"/><rect x="160" y="22" width="43.3333" height="43.3333" rx="7.60714" fill="#0C4A3F"/><rect x="167" y="29" width="30" height="30" fill="url(#pattern13)"/><rect x="53" y="123" width="43.3333" height="43.3333" rx="7.60714" fill="#0C4A3F"/><rect x="63.666" y="133" width="24" height="26.6667" fill="url(#pattern14)"/><rect x="106" y="123" width="43.3333" height="43.3333" rx="7.60714" fill="#0C4A3F"/><rect x="117" y="133" width="22" height="24" fill="url(#pattern15)"/><rect x="160" y="123" width="43.3333" height="43.3333" rx="7.60714" fill="#0C4A3F"/><rect x="174" y="129.667" width="16" height="30" fill="url(#pattern16)"/><rect x="321.011" y="205.392" width="89.7643" height="89.7643" rx="7.60714" fill="#0C4A3F"/><rect x="321.011" y="226.693" width="89.7643" height="47.1643" fill="url(#pattern17)"/><rect x="549.225" y="205.392" width="89.7643" height="89.7643" rx="7.60714" fill="#0C4A3F"/><rect x="568.243" y="225.932" width="51.7286" height="47.925" fill="url(#pattern18)"/><rect y="381" width="43.3333" height="43.3333" rx="7.60714" fill="#0C4A3F"/><rect x="9.33398" y="390.333" width="24" height="24.6667" fill="url(#pattern19)"/><rect y="434.333" width="43.3333" height="43.3333" rx="7.60714" fill="#0C4A3F"/><rect x="8" y="447" width="28" height="18" fill="url(#pattern20)"/><rect x="160" y="381" width="43.3333" height="43.3333" rx="7.60714" fill="#0C4A3F"/><rect x="170" y="391" width="24" height="24" fill="url(#pattern21)"/><rect x="53.334" y="434.333" width="43.3333" height="43.3333" rx="7.60714" fill="#0C4A3F"/><rect x="58" y="441" width="34" height="30" fill="url(#pattern22)"/><rect x="106.666" y="434.333" width="43.3333" height="43.3333" rx="7.60714" fill="#0C4A3F"/><rect x="109" y="439" width="39" height="34" fill="url(#pattern23)"/><rect x="160" y="434.333" width="43.3333" height="43.3333" rx="7.60714" fill="#0C4A3F"/><rect x="170" y="444" width="24" height="24" fill="url(#pattern24)"/><rect x="53.666" y="381.333" width="43.3333" height="43.3333" rx="7.60714" fill="#0C4A3F"/><rect x="58.333" y="386" width="34" height="34" fill="url(#pattern25)"/><rect x="58.333" y="386" width="34" height="34" fill="url(#pattern26)"/><rect x="106.334" y="381.333" width="43.3333" height="43.3333" rx="7.60714" fill="#0C4A3F"/><rect x="121" y="388.667" width="14" height="28.6667" fill="url(#pattern27)"/><path d="M1.7455 371V363.332H4.07253C4.15418 363.332 4.29263 363.334 4.48788 363.337C4.68668 363.341 4.8766 363.355 5.05765 363.38C5.63985 363.462 6.1262 363.678 6.5167 364.03C6.9072 364.381 7.20008 364.828 7.39533 365.371C7.59058 365.915 7.6882 366.513 7.6882 367.166C7.6882 367.819 7.59058 368.417 7.39533 368.961C7.20008 369.504 6.9072 369.951 6.5167 370.302C6.1262 370.654 5.63985 370.87 5.05765 370.952C4.88015 370.973 4.69022 370.988 4.48788 370.995C4.28553 370.998 4.14708 371 4.07253 371H1.7455ZM2.5549 370.249H4.07253C4.21808 370.249 4.37428 370.246 4.54112 370.239C4.71153 370.228 4.85708 370.21 4.97778 370.185C5.42508 370.107 5.7854 369.926 6.05875 369.642C6.33565 369.358 6.538 369.003 6.6658 368.577C6.7936 368.148 6.8575 367.677 6.8575 367.166C6.8575 366.651 6.7936 366.179 6.6658 365.75C6.538 365.32 6.33565 364.965 6.05875 364.685C5.78185 364.404 5.42153 364.225 4.97778 364.147C4.85708 364.122 4.70975 364.106 4.5358 364.099C4.3654 364.088 4.21098 364.083 4.07253 364.083H2.5549V370.249ZM10.3334 371.16C9.90029 371.16 9.53642 371.082 9.24177 370.925C8.95067 370.769 8.73234 370.562 8.58679 370.302C8.44124 370.043 8.36847 369.761 8.36847 369.456C8.36847 369.143 8.43059 368.877 8.55484 368.657C8.68264 368.433 8.85482 368.251 9.07137 368.109C9.29147 367.967 9.54529 367.858 9.83284 367.784C10.1239 367.713 10.4452 367.651 10.7967 367.597C11.1517 367.541 11.4978 367.493 11.835 367.454C12.1758 367.411 12.474 367.37 12.7296 367.331L12.4527 367.501C12.4634 366.933 12.3533 366.513 12.1226 366.239C11.8918 365.966 11.4907 365.829 10.9191 365.829C10.5251 365.829 10.1914 365.918 9.91804 366.096C9.64824 366.273 9.45832 366.554 9.34827 366.937L8.58679 366.713C8.71814 366.199 8.98262 365.799 9.38022 365.515C9.77782 365.231 10.2943 365.089 10.9298 365.089C11.4552 365.089 11.9007 365.189 12.2664 365.387C12.6356 365.583 12.8965 365.867 13.0491 366.239C13.1201 366.406 13.1663 366.593 13.1876 366.799C13.2089 367.004 13.2195 367.214 13.2195 367.427V371H12.522V369.557L12.7243 369.642C12.5291 370.136 12.2255 370.512 11.8137 370.771C11.4019 371.03 10.9085 371.16 10.3334 371.16ZM10.4239 370.483C10.7896 370.483 11.1091 370.418 11.3824 370.286C11.6558 370.155 11.8759 369.976 12.0427 369.749C12.2096 369.518 12.3178 369.259 12.3675 368.971C12.4101 368.787 12.4332 368.584 12.4368 368.364C12.4403 368.14 12.4421 367.974 12.4421 367.864L12.7403 368.018C12.474 368.054 12.1847 368.089 11.8723 368.124C11.5635 368.16 11.2582 368.201 10.9564 368.247C10.6582 368.293 10.3884 368.348 10.147 368.412C9.98372 368.458 9.82574 368.524 9.67309 368.609C9.52044 368.691 9.39442 368.801 9.29502 368.939C9.19917 369.078 9.15124 369.25 9.15124 369.456C9.15124 369.623 9.19207 369.784 9.27372 369.94C9.35892 370.097 9.49382 370.226 9.67842 370.329C9.86657 370.432 10.1151 370.483 10.4239 370.483ZM17.5239 371C17.2008 371.067 16.8813 371.094 16.5654 371.08C16.253 371.066 15.9725 370.998 15.724 370.878C15.4791 370.757 15.2927 370.569 15.1649 370.313C15.062 370.1 15.0052 369.885 14.9945 369.669C14.9874 369.449 14.9839 369.198 14.9839 368.918V363.651H15.7613V368.886C15.7613 369.127 15.7631 369.33 15.7666 369.493C15.7737 369.653 15.811 369.795 15.8785 369.919C16.0063 370.157 16.2086 370.299 16.4855 370.345C16.766 370.391 17.1121 370.381 17.5239 370.313V371ZM13.7538 365.92V365.249H17.5239V365.92H13.7538ZM20.0894 371.16C19.6563 371.16 19.2924 371.082 18.9978 370.925C18.7067 370.769 18.4883 370.562 18.3428 370.302C18.1972 370.043 18.1245 369.761 18.1245 369.456C18.1245 369.143 18.1866 368.877 18.3108 368.657C18.4386 368.433 18.6108 368.251 18.8274 368.109C19.0475 367.967 19.3013 367.858 19.5888 367.784C19.8799 367.713 20.2012 367.651 20.5527 367.597C20.9077 367.541 21.2538 367.493 21.591 367.454C21.9318 367.411 22.23 367.37 22.4856 367.331L22.2087 367.501C22.2194 366.933 22.1093 366.513 21.8786 366.239C21.6478 365.966 21.2467 365.829 20.6751 365.829C20.2811 365.829 19.9474 365.918 19.674 366.096C19.4042 366.273 19.2143 366.554 19.1043 366.937L18.3428 366.713C18.4741 366.199 18.7386 365.799 19.1362 365.515C19.5338 365.231 20.0503 365.089 20.6858 365.089C21.2112 365.089 21.6567 365.189 22.0224 365.387C22.3916 365.583 22.6525 365.867 22.8051 366.239C22.8761 366.406 22.9223 366.593 22.9436 366.799C22.9649 367.004 22.9755 367.214 22.9755 367.427V371H22.278V369.557L22.4803 369.642C22.2851 370.136 21.9815 370.512 21.5697 370.771C21.1579 371.03 20.6645 371.16 20.0894 371.16ZM20.1799 370.483C20.5456 370.483 20.8651 370.418 21.1384 370.286C21.4118 370.155 21.6319 369.976 21.7987 369.749C21.9656 369.518 22.0738 369.259 22.1235 368.971C22.1661 368.787 22.1892 368.584 22.1928 368.364C22.1963 368.14 22.1981 367.974 22.1981 367.864L22.4963 368.018C22.23 368.054 21.9407 368.089 21.6283 368.124C21.3195 368.16 21.0142 368.201 20.7124 368.247C20.4142 368.293 20.1444 368.348 19.903 368.412C19.7397 368.458 19.5817 368.524 19.4291 368.609C19.2764 368.691 19.1504 368.801 19.051 368.939C18.9552 369.078 18.9072 369.25 18.9072 369.456C18.9072 369.623 18.9481 369.784 19.0297 369.94C19.1149 370.097 19.2498 370.226 19.4344 370.329C19.6226 370.432 19.8711 370.483 20.1799 370.483ZM26.7314 371.16C26.2024 371.16 25.7551 371.027 25.3895 370.76C25.0238 370.491 24.7469 370.127 24.5588 369.669C24.3706 369.207 24.2766 368.691 24.2766 368.119C24.2766 367.537 24.3706 367.019 24.5588 366.564C24.7505 366.106 25.0309 365.746 25.4001 365.483C25.7693 365.221 26.2237 365.089 26.7633 365.089C27.2887 365.089 27.7396 365.222 28.1159 365.489C28.4922 365.755 28.7797 366.117 28.9785 366.575C29.1809 367.033 29.2821 367.548 29.2821 368.119C29.2821 368.694 29.1809 369.211 28.9785 369.669C28.7762 370.127 28.4851 370.491 28.1052 370.76C27.7254 371.027 27.2674 371.16 26.7314 371.16ZM24.1434 371V363.332H24.9315V366.671H24.8463V371H24.1434ZM26.6515 370.43C27.0527 370.43 27.3864 370.329 27.6526 370.127C27.9189 369.924 28.1177 369.649 28.249 369.301C28.3839 368.95 28.4514 368.556 28.4514 368.119C28.4514 367.686 28.3857 367.296 28.2543 366.948C28.123 366.6 27.9224 366.325 27.6526 366.122C27.3864 365.92 27.0473 365.819 26.6355 365.819C26.2344 365.819 25.9007 365.916 25.6344 366.112C25.3717 366.307 25.1747 366.578 25.0434 366.926C24.912 367.271 24.8463 367.668 24.8463 368.119C24.8463 368.563 24.912 368.961 25.0434 369.312C25.1747 369.66 25.3735 369.933 25.6398 370.132C25.906 370.331 26.2433 370.43 26.6515 370.43ZM31.8838 371.16C31.4507 371.16 31.0869 371.082 30.7922 370.925C30.5011 370.769 30.2828 370.562 30.1372 370.302C29.9917 370.043 29.9189 369.761 29.9189 369.456C29.9189 369.143 29.981 368.877 30.1053 368.657C30.2331 368.433 30.4053 368.251 30.6218 368.109C30.8419 367.967 31.0957 367.858 31.3833 367.784C31.6744 367.713 31.9957 367.651 32.3471 367.597C32.7021 367.541 33.0482 367.493 33.3855 367.454C33.7263 367.411 34.0245 367.37 34.2801 367.331L34.0032 367.501C34.0138 366.933 33.9038 366.513 33.673 366.239C33.4423 365.966 33.0411 365.829 32.4696 365.829C32.0755 365.829 31.7418 365.918 31.4685 366.096C31.1987 366.273 31.0088 366.554 30.8987 366.937L30.1372 366.713C30.2686 366.199 30.5331 365.799 30.9307 365.515C31.3283 365.231 31.8448 365.089 32.4802 365.089C33.0056 365.089 33.4512 365.189 33.8168 365.387C34.186 365.583 34.4469 365.867 34.5996 366.239C34.6706 366.406 34.7167 366.593 34.738 366.799C34.7593 367.004 34.77 367.214 34.77 367.427V371H34.0724V369.557L34.2748 369.642C34.0795 370.136 33.776 370.512 33.3642 370.771C32.9524 371.03 32.4589 371.16 31.8838 371.16ZM31.9744 370.483C32.34 370.483 32.6595 370.418 32.9329 370.286C33.2062 370.155 33.4263 369.976 33.5932 369.749C33.76 369.518 33.8683 369.259 33.918 368.971C33.9606 368.787 33.9837 368.584 33.9872 368.364C33.9908 368.14 33.9925 367.974 33.9925 367.864L34.2907 368.018C34.0245 368.054 33.7352 368.089 33.4228 368.124C33.1139 368.16 32.8086 368.201 32.5069 368.247C32.2087 368.293 31.9389 368.348 31.6975 368.412C31.5342 368.458 31.3762 368.524 31.2235 368.609C31.0709 368.691 30.9449 368.801 30.8455 368.939C30.7496 369.078 30.7017 369.25 30.7017 369.456C30.7017 369.623 30.7425 369.784 30.8242 369.94C30.9094 370.097 31.0443 370.226 31.2289 370.329C31.417 370.432 31.6655 370.483 31.9744 370.483ZM38.0892 371.154C37.4147 371.154 36.8591 371.009 36.4225 370.718C35.9894 370.427 35.7231 370.022 35.6237 369.504L36.4225 369.371C36.5077 369.697 36.7012 369.958 37.0029 370.153C37.3082 370.345 37.6845 370.441 38.1318 370.441C38.5685 370.441 38.9128 370.35 39.1649 370.169C39.4169 369.985 39.5429 369.734 39.5429 369.418C39.5429 369.241 39.5021 369.097 39.4205 368.987C39.3424 368.874 39.1808 368.769 38.9359 368.673C38.6909 368.577 38.3253 368.464 37.8389 368.332C37.3171 368.19 36.9088 368.048 36.6142 367.906C36.3195 367.764 36.1101 367.601 35.9858 367.416C35.8616 367.228 35.7995 366.999 35.7995 366.729C35.7995 366.403 35.8918 366.117 36.0764 365.872C36.261 365.624 36.5166 365.432 36.8432 365.297C37.1698 365.158 37.5496 365.089 37.9827 365.089C38.4158 365.089 38.8028 365.16 39.1436 365.302C39.4879 365.441 39.7648 365.636 39.9743 365.888C40.1837 366.14 40.308 366.433 40.347 366.767L39.5483 366.91C39.495 366.573 39.3264 366.307 39.0424 366.112C38.7619 365.913 38.4052 365.81 37.9721 365.803C37.5638 365.792 37.2319 365.87 36.9763 366.037C36.7207 366.2 36.5929 366.419 36.5929 366.692C36.5929 366.845 36.639 366.976 36.7313 367.086C36.8236 367.193 36.9905 367.294 37.2319 367.39C37.4768 367.485 37.8247 367.59 38.2756 367.704C38.8045 367.839 39.2199 367.981 39.5216 368.13C39.8234 368.279 40.0382 368.455 40.166 368.657C40.2938 368.859 40.3577 369.11 40.3577 369.408C40.3577 369.951 40.1553 370.379 39.7506 370.691C39.3495 371 38.7957 371.154 38.0892 371.154ZM43.7592 371.16C43.1983 371.16 42.7119 371.035 42.3001 370.787C41.8919 370.538 41.5741 370.189 41.3469 369.738C41.1197 369.287 41.0061 368.758 41.0061 368.151C41.0061 367.523 41.118 366.98 41.3416 366.522C41.5653 366.064 41.8794 365.71 42.2841 365.462C42.6924 365.214 43.1734 365.089 43.7272 365.089C44.2952 365.089 44.7798 365.221 45.1809 365.483C45.5821 365.742 45.8856 366.115 46.0915 366.602C46.2974 367.088 46.3915 367.668 46.3737 368.343H45.575V368.066C45.5608 367.32 45.3993 366.758 45.0904 366.378C44.7851 365.998 44.3378 365.808 43.7485 365.808C43.1308 365.808 42.6569 366.009 42.3267 366.41C42.0001 366.811 41.8368 367.383 41.8368 368.124C41.8368 368.849 42.0001 369.411 42.3267 369.813C42.6569 370.21 43.1237 370.409 43.7272 370.409C44.139 370.409 44.4976 370.315 44.8029 370.127C45.1117 369.935 45.3549 369.66 45.5324 369.301L46.2619 369.584C46.0347 370.084 45.6992 370.473 45.2555 370.75C44.8153 371.023 44.3165 371.16 43.7592 371.16ZM41.5599 368.343V367.688H45.9531V368.343H41.5599ZM49.4884 371.154C48.8139 371.154 48.2584 371.009 47.8217 370.718C47.3886 370.427 47.1224 370.022 47.023 369.504L47.8217 369.371C47.9069 369.697 48.1004 369.958 48.4021 370.153C48.7074 370.345 49.0837 370.441 49.531 370.441C49.9677 370.441 50.312 370.35 50.5641 370.169C50.8161 369.985 50.9422 369.734 50.9422 369.418C50.9422 369.241 50.9013 369.097 50.8197 368.987C50.7416 368.874 50.5801 368.769 50.3351 368.673C50.0902 368.577 49.7245 368.464 49.2382 368.332C48.7163 368.19 48.3081 368.048 48.0134 367.906C47.7188 367.764 47.5093 367.601 47.3851 367.416C47.2608 367.228 47.1987 366.999 47.1987 366.729C47.1987 366.403 47.291 366.117 47.4756 365.872C47.6602 365.624 47.9158 365.432 48.2424 365.297C48.569 365.158 48.9488 365.089 49.3819 365.089C49.815 365.089 50.202 365.16 50.5428 365.302C50.8871 365.441 51.164 365.636 51.3735 365.888C51.5829 366.14 51.7072 366.433 51.7462 366.767L50.9475 366.91C50.8942 366.573 50.7256 366.307 50.4416 366.112C50.1612 365.913 49.8044 365.81 49.3713 365.803C48.963 365.792 48.6311 365.87 48.3755 366.037C48.1199 366.2 47.9921 366.419 47.9921 366.692C47.9921 366.845 48.0383 366.976 48.1306 367.086C48.2229 367.193 48.3897 367.294 48.6311 367.39C48.8761 367.485 49.224 367.59 49.6748 367.704C50.2038 367.839 50.6191 367.981 50.9209 368.13C51.2226 368.279 51.4374 368.455 51.5652 368.657C51.693 368.859 51.7569 369.11 51.7569 369.408C51.7569 369.951 51.5545 370.379 51.1498 370.691C50.7487 371 50.1949 371.154 49.4884 371.154Z" fill="white"/><rect x="747.011" y="22.8208" width="158.989" height="89.7643" rx="7.60714" fill="#0C4A3F"/><path d="M789.267 62V49.04H793.398C793.506 49.04 793.719 49.043 794.037 49.049C794.361 49.055 794.673 49.076 794.973 49.112C795.999 49.244 796.866 49.61 797.574 50.21C798.288 50.804 798.828 51.563 799.194 52.487C799.56 53.411 799.743 54.422 799.743 55.52C799.743 56.618 799.56 57.629 799.194 58.553C798.828 59.477 798.288 60.239 797.574 60.839C796.866 61.433 795.999 61.796 794.973 61.928C794.679 61.964 794.37 61.985 794.046 61.991C793.722 61.997 793.506 62 793.398 62H789.267ZM791.472 59.957H793.398C793.578 59.957 793.806 59.951 794.082 59.939C794.364 59.927 794.613 59.9 794.829 59.858C795.441 59.744 795.939 59.471 796.323 59.039C796.707 58.607 796.989 58.082 797.169 57.464C797.355 56.846 797.448 56.198 797.448 55.52C797.448 54.818 797.355 54.158 797.169 53.54C796.983 52.922 796.695 52.403 796.305 51.983C795.921 51.563 795.429 51.296 794.829 51.182C794.613 51.134 794.364 51.107 794.082 51.101C793.806 51.089 793.578 51.083 793.398 51.083H791.472V59.957ZM802.789 66.32L804.661 61.181L804.697 62.693L800.458 52.28H802.717L805.723 59.984H805.147L808.072 52.28H810.241L804.823 66.32H802.789ZM817.946 62V57.32C817.946 57.014 817.925 56.675 817.883 56.303C817.841 55.931 817.742 55.574 817.586 55.232C817.436 54.884 817.208 54.599 816.902 54.377C816.602 54.155 816.194 54.044 815.678 54.044C815.402 54.044 815.129 54.089 814.859 54.179C814.589 54.269 814.343 54.425 814.121 54.647C813.905 54.863 813.731 55.163 813.599 55.547C813.467 55.925 813.401 56.411 813.401 57.005L812.114 56.456C812.114 55.628 812.273 54.878 812.591 54.206C812.915 53.534 813.389 53 814.013 52.604C814.637 52.202 815.405 52.001 816.317 52.001C817.037 52.001 817.631 52.121 818.099 52.361C818.567 52.601 818.939 52.907 819.215 53.279C819.491 53.651 819.695 54.047 819.827 54.467C819.959 54.887 820.043 55.286 820.079 55.664C820.121 56.036 820.142 56.339 820.142 56.573V62H817.946ZM811.205 62V52.28H813.14V55.295H813.401V62H811.205ZM824.848 62.27C824.146 62.27 823.552 62.138 823.066 61.874C822.58 61.604 822.211 61.247 821.959 60.803C821.713 60.359 821.59 59.87 821.59 59.336C821.59 58.868 821.668 58.448 821.824 58.076C821.98 57.698 822.22 57.374 822.544 57.104C822.868 56.828 823.288 56.603 823.804 56.429C824.194 56.303 824.65 56.189 825.172 56.087C825.7 55.985 826.27 55.892 826.882 55.808C827.5 55.718 828.145 55.622 828.817 55.52L828.043 55.961C828.049 55.289 827.899 54.794 827.593 54.476C827.287 54.158 826.771 53.999 826.045 53.999C825.607 53.999 825.184 54.101 824.776 54.305C824.368 54.509 824.083 54.86 823.921 55.358L821.941 54.737C822.181 53.915 822.637 53.255 823.309 52.757C823.987 52.259 824.899 52.01 826.045 52.01C826.909 52.01 827.668 52.151 828.322 52.433C828.982 52.715 829.471 53.177 829.789 53.819C829.963 54.161 830.068 54.512 830.104 54.872C830.14 55.226 830.158 55.613 830.158 56.033V62H828.259V59.894L828.574 60.236C828.136 60.938 827.623 61.454 827.035 61.784C826.453 62.108 825.724 62.27 824.848 62.27ZM825.28 60.542C825.772 60.542 826.192 60.455 826.54 60.281C826.888 60.107 827.164 59.894 827.368 59.642C827.578 59.39 827.719 59.153 827.791 58.931C827.905 58.655 827.968 58.34 827.98 57.986C827.998 57.626 828.007 57.335 828.007 57.113L828.673 57.311C828.019 57.413 827.458 57.503 826.99 57.581C826.522 57.659 826.12 57.734 825.784 57.806C825.448 57.872 825.151 57.947 824.893 58.031C824.641 58.121 824.428 58.226 824.254 58.346C824.08 58.466 823.945 58.604 823.849 58.76C823.759 58.916 823.714 59.099 823.714 59.309C823.714 59.549 823.774 59.762 823.894 59.948C824.014 60.128 824.188 60.272 824.416 60.38C824.65 60.488 824.938 60.542 825.28 60.542ZM843.815 62V56.096C843.815 55.43 843.65 54.911 843.32 54.539C842.99 54.161 842.543 53.972 841.979 53.972C841.631 53.972 841.319 54.053 841.043 54.215C840.767 54.371 840.548 54.605 840.386 54.917C840.224 55.223 840.143 55.589 840.143 56.015L839.18 55.448C839.174 54.776 839.324 54.185 839.63 53.675C839.942 53.159 840.362 52.757 840.89 52.469C841.418 52.181 842.006 52.037 842.654 52.037C843.728 52.037 844.55 52.361 845.12 53.009C845.696 53.651 845.984 54.497 845.984 55.547V62H843.815ZM832.124 62V52.28H834.041V55.295H834.311V62H832.124ZM837.983 62V56.123C837.983 55.445 837.818 54.917 837.488 54.539C837.158 54.161 836.708 53.972 836.138 53.972C835.586 53.972 835.142 54.161 834.806 54.539C834.476 54.917 834.311 55.409 834.311 56.015L833.339 55.367C833.339 54.737 833.495 54.17 833.807 53.666C834.119 53.162 834.539 52.766 835.067 52.478C835.601 52.184 836.198 52.037 836.858 52.037C837.584 52.037 838.19 52.193 838.676 52.505C839.168 52.811 839.534 53.231 839.774 53.765C840.02 54.293 840.143 54.89 840.143 55.556V62H837.983ZM848.151 50.804V48.815H850.32V50.804H848.151ZM848.151 62V52.28H850.32V62H848.151ZM856.877 62.27C855.875 62.27 855.02 62.048 854.312 61.604C853.604 61.154 853.061 60.542 852.683 59.768C852.311 58.994 852.122 58.118 852.116 57.14C852.122 56.144 852.317 55.262 852.701 54.494C853.091 53.72 853.643 53.114 854.357 52.676C855.071 52.232 855.92 52.01 856.904 52.01C858.008 52.01 858.941 52.289 859.703 52.847C860.471 53.399 860.972 54.155 861.206 55.115L859.046 55.7C858.878 55.178 858.599 54.773 858.209 54.485C857.819 54.191 857.375 54.044 856.877 54.044C856.313 54.044 855.848 54.179 855.482 54.449C855.116 54.713 854.846 55.079 854.672 55.547C854.498 56.015 854.411 56.546 854.411 57.14C854.411 58.064 854.618 58.811 855.032 59.381C855.446 59.951 856.061 60.236 856.877 60.236C857.453 60.236 857.906 60.104 858.236 59.84C858.572 59.576 858.824 59.195 858.992 58.697L861.206 59.192C860.906 60.182 860.381 60.944 859.631 61.478C858.881 62.006 857.963 62.27 856.877 62.27ZM776.665 87L772.579 74.04H774.811L778.231 84.894L781.696 74.04H783.928L779.842 87H776.665ZM784.749 75.804V73.815H786.918V75.804H784.749ZM784.749 87V77.28H786.918V87H784.749ZM793.007 87.27C791.807 87.27 790.832 87 790.082 86.46C789.332 85.92 788.876 85.161 788.714 84.183L790.928 83.841C791.042 84.321 791.294 84.699 791.684 84.975C792.074 85.251 792.566 85.389 793.16 85.389C793.682 85.389 794.084 85.287 794.366 85.083C794.654 84.873 794.798 84.588 794.798 84.228C794.798 84.006 794.744 83.829 794.636 83.697C794.534 83.559 794.306 83.427 793.952 83.301C793.598 83.175 793.055 83.016 792.323 82.824C791.507 82.608 790.859 82.377 790.379 82.131C789.899 81.879 789.554 81.582 789.344 81.24C789.134 80.898 789.029 80.484 789.029 79.998C789.029 79.392 789.188 78.864 789.506 78.414C789.824 77.964 790.268 77.619 790.838 77.379C791.408 77.133 792.08 77.01 792.854 77.01C793.61 77.01 794.279 77.127 794.861 77.361C795.449 77.595 795.923 77.928 796.283 78.36C796.643 78.792 796.865 79.299 796.949 79.881L794.735 80.277C794.681 79.863 794.492 79.536 794.168 79.296C793.85 79.056 793.424 78.921 792.89 78.891C792.38 78.861 791.969 78.939 791.657 79.125C791.345 79.305 791.189 79.56 791.189 79.89C791.189 80.076 791.252 80.235 791.378 80.367C791.504 80.499 791.756 80.631 792.134 80.763C792.518 80.895 793.088 81.057 793.844 81.249C794.618 81.447 795.236 81.675 795.698 81.933C796.166 82.185 796.502 82.488 796.706 82.842C796.916 83.196 797.021 83.625 797.021 84.129C797.021 85.107 796.664 85.875 795.95 86.433C795.242 86.991 794.261 87.27 793.007 87.27ZM802.277 87.279C801.557 87.279 800.963 87.159 800.495 86.919C800.027 86.679 799.655 86.373 799.379 86.001C799.103 85.629 798.899 85.233 798.767 84.813C798.635 84.393 798.548 83.997 798.506 83.625C798.47 83.247 798.452 82.941 798.452 82.707V77.28H800.648V81.96C800.648 82.26 800.669 82.599 800.711 82.977C800.753 83.349 800.849 83.709 800.999 84.057C801.155 84.399 801.383 84.681 801.683 84.903C801.989 85.125 802.4 85.236 802.916 85.236C803.192 85.236 803.465 85.191 803.735 85.101C804.005 85.011 804.248 84.858 804.464 84.642C804.686 84.42 804.863 84.117 804.995 83.733C805.127 83.349 805.193 82.863 805.193 82.275L806.48 82.824C806.48 83.652 806.318 84.402 805.994 85.074C805.676 85.746 805.205 86.283 804.581 86.685C803.957 87.081 803.189 87.279 802.277 87.279ZM805.454 87V83.985H805.193V77.28H807.371V87H805.454ZM812.258 87.27C811.556 87.27 810.962 87.138 810.476 86.874C809.99 86.604 809.621 86.247 809.369 85.803C809.123 85.359 809 84.87 809 84.336C809 83.868 809.078 83.448 809.234 83.076C809.39 82.698 809.63 82.374 809.954 82.104C810.278 81.828 810.698 81.603 811.214 81.429C811.604 81.303 812.06 81.189 812.582 81.087C813.11 80.985 813.68 80.892 814.292 80.808C814.91 80.718 815.555 80.622 816.227 80.52L815.453 80.961C815.459 80.289 815.309 79.794 815.003 79.476C814.697 79.158 814.181 78.999 813.455 78.999C813.017 78.999 812.594 79.101 812.186 79.305C811.778 79.509 811.493 79.86 811.331 80.358L809.351 79.737C809.591 78.915 810.047 78.255 810.719 77.757C811.397 77.259 812.309 77.01 813.455 77.01C814.319 77.01 815.078 77.151 815.732 77.433C816.392 77.715 816.881 78.177 817.199 78.819C817.373 79.161 817.478 79.512 817.514 79.872C817.55 80.226 817.568 80.613 817.568 81.033V87H815.669V84.894L815.984 85.236C815.546 85.938 815.033 86.454 814.445 86.784C813.863 87.108 813.134 87.27 812.258 87.27ZM812.69 85.542C813.182 85.542 813.602 85.455 813.95 85.281C814.298 85.107 814.574 84.894 814.778 84.642C814.988 84.39 815.129 84.153 815.201 83.931C815.315 83.655 815.378 83.34 815.39 82.986C815.408 82.626 815.417 82.335 815.417 82.113L816.083 82.311C815.429 82.413 814.868 82.503 814.4 82.581C813.932 82.659 813.53 82.734 813.194 82.806C812.858 82.872 812.561 82.947 812.303 83.031C812.051 83.121 811.838 83.226 811.664 83.346C811.49 83.466 811.355 83.604 811.259 83.76C811.169 83.916 811.124 84.099 811.124 84.309C811.124 84.549 811.184 84.762 811.304 84.948C811.424 85.128 811.598 85.272 811.826 85.38C812.06 85.488 812.348 85.542 812.69 85.542ZM819.731 87V73.77H821.9V87H819.731ZM824.416 75.804V73.815H826.585V75.804H824.416ZM824.416 87V77.28H826.585V87H824.416ZM828.021 87V86.703L833.169 79.179H828.543V77.28H836.544V77.586L831.414 85.101H836.328V87H828.021ZM840.331 87.27C839.629 87.27 839.035 87.138 838.549 86.874C838.063 86.604 837.694 86.247 837.442 85.803C837.196 85.359 837.073 84.87 837.073 84.336C837.073 83.868 837.151 83.448 837.307 83.076C837.463 82.698 837.703 82.374 838.027 82.104C838.351 81.828 838.771 81.603 839.287 81.429C839.677 81.303 840.133 81.189 840.655 81.087C841.183 80.985 841.753 80.892 842.365 80.808C842.983 80.718 843.628 80.622 844.3 80.52L843.526 80.961C843.532 80.289 843.382 79.794 843.076 79.476C842.77 79.158 842.254 78.999 841.528 78.999C841.09 78.999 840.667 79.101 840.259 79.305C839.851 79.509 839.566 79.86 839.404 80.358L837.424 79.737C837.664 78.915 838.12 78.255 838.792 77.757C839.47 77.259 840.382 77.01 841.528 77.01C842.392 77.01 843.151 77.151 843.805 77.433C844.465 77.715 844.954 78.177 845.272 78.819C845.446 79.161 845.551 79.512 845.587 79.872C845.623 80.226 845.641 80.613 845.641 81.033V87H843.742V84.894L844.057 85.236C843.619 85.938 843.106 86.454 842.518 86.784C841.936 87.108 841.207 87.27 840.331 87.27ZM840.763 85.542C841.255 85.542 841.675 85.455 842.023 85.281C842.371 85.107 842.647 84.894 842.851 84.642C843.061 84.39 843.202 84.153 843.274 83.931C843.388 83.655 843.451 83.34 843.463 82.986C843.481 82.626 843.49 82.335 843.49 82.113L844.156 82.311C843.502 82.413 842.941 82.503 842.473 82.581C842.005 82.659 841.603 82.734 841.267 82.806C840.931 82.872 840.634 82.947 840.376 83.031C840.124 83.121 839.911 83.226 839.737 83.346C839.563 83.466 839.428 83.604 839.332 83.76C839.242 83.916 839.197 84.099 839.197 84.309C839.197 84.549 839.257 84.762 839.377 84.948C839.497 85.128 839.671 85.272 839.899 85.38C840.133 85.488 840.421 85.542 840.763 85.542ZM853.321 87C852.679 87.12 852.049 87.171 851.431 87.153C850.819 87.141 850.27 87.03 849.784 86.82C849.298 86.604 848.929 86.265 848.677 85.803C848.455 85.383 848.338 84.954 848.326 84.516C848.314 84.078 848.308 83.583 848.308 83.031V74.58H850.468V82.905C850.468 83.295 850.471 83.637 850.477 83.931C850.489 84.225 850.552 84.465 850.666 84.651C850.882 85.011 851.227 85.212 851.701 85.254C852.175 85.296 852.715 85.272 853.321 85.182V87ZM846.544 78.981V77.28H853.321V78.981H846.544ZM855.231 75.804V73.815H857.4V75.804H855.231ZM855.231 87V77.28H857.4V87H855.231ZM864.029 87.27C863.057 87.27 862.208 87.051 861.482 86.613C860.756 86.175 860.192 85.572 859.79 84.804C859.394 84.03 859.196 83.142 859.196 82.14C859.196 81.12 859.4 80.226 859.808 79.458C860.216 78.69 860.783 78.09 861.509 77.658C862.235 77.226 863.075 77.01 864.029 77.01C865.007 77.01 865.859 77.229 866.585 77.667C867.311 78.105 867.875 78.711 868.277 79.485C868.679 80.253 868.88 81.138 868.88 82.14C868.88 83.148 868.676 84.039 868.268 84.813C867.866 85.581 867.302 86.184 866.576 86.622C865.85 87.054 865.001 87.27 864.029 87.27ZM864.029 85.236C864.893 85.236 865.535 84.948 865.955 84.372C866.375 83.796 866.585 83.052 866.585 82.14C866.585 81.198 866.372 80.448 865.946 79.89C865.52 79.326 864.881 79.044 864.029 79.044C863.447 79.044 862.967 79.176 862.589 79.44C862.217 79.698 861.941 80.061 861.761 80.529C861.581 80.991 861.491 81.528 861.491 82.14C861.491 83.082 861.704 83.835 862.13 84.399C862.562 84.957 863.195 85.236 864.029 85.236ZM877.226 87V82.32C877.226 82.014 877.205 81.675 877.163 81.303C877.121 80.931 877.022 80.574 876.866 80.232C876.716 79.884 876.488 79.599 876.182 79.377C875.882 79.155 875.474 79.044 874.958 79.044C874.682 79.044 874.409 79.089 874.139 79.179C873.869 79.269 873.623 79.425 873.401 79.647C873.185 79.863 873.011 80.163 872.879 80.547C872.747 80.925 872.681 81.411 872.681 82.005L871.394 81.456C871.394 80.628 871.553 79.878 871.871 79.206C872.195 78.534 872.669 78 873.293 77.604C873.917 77.202 874.685 77.001 875.597 77.001C876.317 77.001 876.911 77.121 877.379 77.361C877.847 77.601 878.219 77.907 878.495 78.279C878.771 78.651 878.975 79.047 879.107 79.467C879.239 79.887 879.323 80.286 879.359 80.664C879.401 81.036 879.422 81.339 879.422 81.573V87H877.226ZM870.485 87V77.28H872.42V80.295H872.681V87H870.485Z" fill="white"/><rect x="747.011" y="152" width="158.989" height="89.7643" rx="7.60714" fill="#0C4A3F"/><path d="M807.735 203L811.821 190.04H814.998L819.084 203H816.852L813.144 191.372H813.63L809.967 203H807.735ZM810.012 200.192V198.167H816.816V200.192H810.012ZM820.351 203V190.04H825.706C825.832 190.04 825.994 190.046 826.192 190.058C826.39 190.064 826.573 190.082 826.741 190.112C827.491 190.226 828.109 190.475 828.595 190.859C829.087 191.243 829.45 191.729 829.684 192.317C829.924 192.899 830.044 193.547 830.044 194.261C830.044 194.969 829.924 195.617 829.684 196.205C829.444 196.787 829.078 197.27 828.586 197.654C828.1 198.038 827.485 198.287 826.741 198.401C826.573 198.425 826.387 198.443 826.183 198.455C825.985 198.467 825.826 198.473 825.706 198.473H822.52V203H820.351ZM822.52 196.448H825.616C825.736 196.448 825.871 196.442 826.021 196.43C826.171 196.418 826.309 196.394 826.435 196.358C826.795 196.268 827.077 196.109 827.281 195.881C827.491 195.653 827.638 195.395 827.722 195.107C827.812 194.819 827.857 194.537 827.857 194.261C827.857 193.985 827.812 193.703 827.722 193.415C827.638 193.121 827.491 192.86 827.281 192.632C827.077 192.404 826.795 192.245 826.435 192.155C826.309 192.119 826.171 192.098 826.021 192.092C825.871 192.08 825.736 192.074 825.616 192.074H822.52V196.448ZM831.487 203V190.04H833.44L837.922 199.22L842.404 190.04H844.357V203H842.332V194.693L838.354 203H837.49L833.521 194.693V203H831.487Z" fill="white"/><defs><filter id="filter0_d_1018_1129" x="281.118" y="51.3921" width="397.764" height="397.764" filterUnits="userSpaceOnUse" color-interpolation-filters="sRGB"><feFlood flood-opacity="0" result="BackgroundImageFix"/><feColorMatrix in="SourceAlpha" type="matrix" values="0 0 0 0 0 0 0 0 0 0 0 0 0 0 0 0 0 0 127 0" result="hardAlpha"/><feMorphology radius="40" operator="dilate" in="SourceAlpha" result="effect1_dropShadow_1018_1129"/><feOffset/><feGaussianBlur stdDeviation="57"/><feComposite in2="hardAlpha" operator="out"/><feColorMatrix type="matrix" values="0 0 0 0 0 0 0 0 0 1 0 0 0 0 0.6 0 0 0 1 0"/><feBlend mode="normal" in2="BackgroundImageFix" result="effect1_dropShadow_1018_1129"/><feBlend mode="normal" in="SourceGraphic" in2="effect1_dropShadow_1018_1129" result="shape"/></filter><pattern id="pattern0" patternContentUnits="objectBoundingBox" width="1" height="1"><use xlink:href="#image0_1018_1129" transform="matrix(0.002 0 0 0.0124133 0 -2.60333)"/></pattern><pattern id="pattern1" patternContentUnits="objectBoundingBox" width="1" height="1"><use xlink:href="#image1_1018_1129" transform="matrix(0.000965523 0 0 0.0010661 -0.0122099 0)"/></pattern><pattern id="pattern2" patternContentUnits="objectBoundingBox" width="1" height="1"><use xlink:href="#image2_1018_1129" transform="matrix(0.00382353 0 0 0.00333333 -0.0104412 0)"/></pattern><pattern id="pattern3" patternContentUnits="objectBoundingBox" width="1" height="1"><use xlink:href="#image3_1018_1129" transform="scale(0.00195312)"/></pattern><pattern id="pattern4" patternContentUnits="objectBoundingBox" width="1" height="1"><use xlink:href="#image4_1018_1129" transform="matrix(0.00151515 0 0 0.00266667 -0.00454542 0)"/></pattern><pattern id="pattern5" patternContentUnits="objectBoundingBox" width="1" height="1"><use xlink:href="#image5_1018_1129" transform="matrix(0.00220264 0 0 0.00197673 0 -0.00604316)"/></pattern><pattern id="pattern6" patternContentUnits="objectBoundingBox" width="1" height="1"><use xlink:href="#image6_1018_1129" transform="matrix(0.00446429 0 0 0.00460829 0 -0.00460829)"/></pattern><pattern id="pattern7" patternContentUnits="objectBoundingBox" width="1" height="1"><use xlink:href="#image7_1018_1129" transform="matrix(0.000442276 0 0 0.00046385 -0.352988 -4.7643e-05)"/></pattern><pattern id="pattern8" patternContentUnits="objectBoundingBox" width="1" height="1"><use xlink:href="#image8_1018_1129" transform="scale(0.000488281)"/></pattern><pattern id="pattern9" patternContentUnits="objectBoundingBox" width="1" height="1"><use xlink:href="#image9_1018_1129" transform="scale(0.000488281)"/></pattern><pattern id="pattern10" patternContentUnits="objectBoundingBox" width="1" height="1"><use xlink:href="#image10_1018_1129" transform="scale(0.00444444)"/></pattern><pattern id="pattern11" patternContentUnits="objectBoundingBox" width="1" height="1"><use xlink:href="#image11_1018_1129" transform="translate(-0.25) scale(0.0005)"/></pattern><pattern id="pattern12" patternContentUnits="objectBoundingBox" width="1" height="1"><use xlink:href="#image12_1018_1129" transform="matrix(0.000488281 0 0 0.000610352 0 -0.00231931)"/></pattern><pattern id="pattern13" patternContentUnits="objectBoundingBox" width="1" height="1"><use xlink:href="#image13_1018_1129" transform="scale(0.005)"/></pattern><pattern id="pattern14" patternContentUnits="objectBoundingBox" width="1" height="1"><use xlink:href="#image14_1018_1129" transform="matrix(0.000542535 0 0 0.000488281 -0.00699869 0)"/></pattern><pattern id="pattern15" patternContentUnits="objectBoundingBox" width="1" height="1"><use xlink:href="#image15_1018_1129" transform="matrix(0.000548847 0 0 0.00050311 0 -0.0151848)"/></pattern><pattern id="pattern16" patternContentUnits="objectBoundingBox" width="1" height="1"><use xlink:href="#image16_1018_1129" transform="matrix(0.000854214 0 0 0.000455581 -0.0125285 0)"/></pattern><pattern id="pattern17" patternContentUnits="objectBoundingBox" width="1" height="1"><use xlink:href="#image17_1018_1129" transform="matrix(0.000716813 0 0 0.00136426 -0.00176895 0)"/></pattern><pattern id="pattern18" patternContentUnits="objectBoundingBox" width="1" height="1"><use xlink:href="#image18_1018_1129" transform="matrix(0.00310991 0 0 0.00333913 -0.440129 -0.252174)"/></pattern><pattern id="pattern19" patternContentUnits="objectBoundingBox" width="1" height="1"><use xlink:href="#image19_1018_1129" transform="matrix(0.00100705 0 0 0.000979832 0 -0.00167389)"/></pattern><pattern id="pattern20" patternContentUnits="objectBoundingBox" width="1" height="1"><use xlink:href="#image20_1018_1129" transform="matrix(0.00390625 0 0 0.00607639 0 -0.0104167)"/></pattern><pattern id="pattern21" patternContentUnits="objectBoundingBox" width="1" height="1"><use xlink:href="#image21_1018_1129" transform="translate(-0.00192431) scale(0.000641437)"/></pattern><pattern id="pattern22" patternContentUnits="objectBoundingBox" width="1" height="1"><use xlink:href="#image22_1018_1129" transform="matrix(0.00169102 0 0 0.00193259 -0.28125 -0.116497)"/></pattern><pattern id="pattern23" patternContentUnits="objectBoundingBox" width="1" height="1"><use xlink:href="#image23_1018_1129" transform="matrix(0.000435897 0 0 0.0005 -0.153846 0)"/></pattern><pattern id="pattern24" patternContentUnits="objectBoundingBox" width="1" height="1"><use xlink:href="#image24_1018_1129" transform="translate(0 -0.00793651) scale(0.00396825)"/></pattern><pattern id="pattern25" patternContentUnits="objectBoundingBox" width="1" height="1"><use xlink:href="#image25_1018_1129" transform="scale(0.000416667)"/></pattern><pattern id="pattern26" patternContentUnits="objectBoundingBox" width="1" height="1"><use xlink:href="#image26_1018_1129" transform="scale(0.000416667)"/></pattern><pattern id="pattern27" patternContentUnits="objectBoundingBox" width="1" height="1"><use xlink:href="#image27_1018_1129" transform="scale(0.00302115 0.00144928)"/></pattern></defs></svg>