<svg  width="196" height="389" viewBox="0 0 196 389" fill="none" xmlns="http://www.w3.org/2000/svg" xmlns:xlink="http://www.w3.org/1999/xlink"><path d="M164.502 36.4062V328.502C164.502 333.179 160.705 336.969 156.021 336.969H138.21" stroke="white"/><path d="M119.551 36.4062V271.776C119.551 276.453 115.754 280.243 111.07 280.243H110.222C105.538 280.243 101.741 284.034 101.741 288.71V296.753" stroke="white"/><path d="M74.6005 36.4062V271.776C74.6005 276.453 78.3975 280.243 83.0818 280.243H83.9299C88.6141 280.243 92.4112 284.034 92.4112 288.71V296.753" stroke="white"/><path d="M29.6495 36.4062V328.502C29.6495 333.179 33.4466 336.969 38.1308 336.969H55.9416" stroke="white"/><path d="M29.6495 82.1256V328.502C29.6495 333.179 33.4466 336.969 38.1308 336.969H56.3657" stroke="white"/><path d="M29.6495 127.845V328.502C29.6495 333.179 33.4466 336.969 38.1308 336.969H55.9416" stroke="white"/><path d="M29.6495 172.718V328.502C29.6495 333.179 33.4466 336.969 38.1308 336.969H55.9416" stroke="white"/><path d="M29.6495 217.591V328.502C29.6495 333.179 33.4466 336.969 38.1308 336.969H55.9416" stroke="white"/><path d="M74.6005 82.1256V271.777C74.6005 276.453 78.3975 280.243 83.0818 280.243H83.9299C88.6141 280.243 92.4112 284.034 92.4112 288.71V296.753" stroke="white"/><path d="M74.6005 127.422V271.777C74.6005 276.453 78.3975 280.243 83.0818 280.243H83.9299C88.6141 280.243 92.4112 284.034 92.4112 288.71V296.753" stroke="white"/><path d="M74.6005 172.718V271.777C74.6005 276.453 78.3975 280.243 83.0818 280.243H83.9299C88.6141 280.243 92.4112 284.034 92.4112 288.71V296.753" stroke="white"/><path d="M74.6005 218.014V271.776C74.6005 276.453 78.3975 280.243 83.0818 280.243H83.9299C88.6141 280.243 92.4112 284.034 92.4112 288.71V296.753" stroke="white"/><path d="M74.6005 263.31V271.776C74.6005 276.453 78.3975 280.243 83.0818 280.243H83.9299C88.6141 280.243 92.4112 284.034 92.4112 288.71V296.753" stroke="white"/><path d="M119.551 82.1256V271.777C119.551 276.453 115.754 280.243 111.07 280.243H110.222C105.538 280.243 101.741 284.034 101.741 288.71V296.753" stroke="white"/><path d="M119.551 126.998V271.776C119.551 276.453 115.754 280.243 111.07 280.243H110.222C105.538 280.243 101.741 284.034 101.741 288.71V296.753" stroke="white"/><path d="M119.551 172.718V271.777C119.551 276.453 115.754 280.243 111.07 280.243H110.222C105.538 280.243 101.741 284.034 101.741 288.71V296.753" stroke="white"/><path d="M119.551 218.014V271.776C119.551 276.453 115.754 280.243 111.07 280.243H110.222C105.538 280.243 101.741 284.034 101.741 288.71V296.753" stroke="white"/><path d="M119.551 263.31V271.776C119.551 276.453 115.754 280.243 111.07 280.243H110.222C105.538 280.243 101.741 284.034 101.741 288.71V296.753" stroke="white"/><path d="M164.926 82.1256V328.502C164.926 333.179 161.129 336.969 156.445 336.969H138.21" stroke="white"/><path d="M164.502 126.998V328.502C164.502 333.179 160.705 336.969 156.021 336.969H138.21" stroke="white"/><path d="M164.502 172.718V328.502C164.502 333.179 160.705 336.969 156.021 336.969H138.21" stroke="white"/><path d="M164.502 217.591V328.502C164.502 333.179 160.705 336.969 156.021 336.969H138.21" stroke="white"/><path d="M131.493 296.976H63.7067C59.8865 296.976 56.7897 300.068 56.7897 303.881V371.55C56.7897 375.364 59.8865 378.455 63.7067 378.455H131.493C135.314 378.455 138.41 375.364 138.41 371.55V303.881C138.41 300.068 135.314 296.976 131.493 296.976Z" fill="#0C4A3F"/><path d="M130.334 332.474H64.8656V342.459H130.334V332.474Z" fill="url(#pattern0)"/><path d="M40.443 45.7194H16.5944C13.0312 45.7194 10.1426 48.603 10.1426 52.1601V75.9672C10.1426 79.5242 13.0312 82.4078 16.5944 82.4078H40.443C44.0063 82.4078 46.8949 79.5242 46.8949 75.9672V52.1601C46.8949 48.603 44.0063 45.7194 40.443 45.7194Z" fill="#0C4A3F"/><path d="M43.5023 50.7993H13.535V77.8923H43.5023V50.7993Z" fill="url(#pattern1)"/><path d="M40.443 90.5922H16.5944C13.0312 90.5922 10.1426 93.4757 10.1426 97.0328V120.84C10.1426 124.397 13.0312 127.281 16.5944 127.281H40.443C44.0063 127.281 46.8949 124.397 46.8949 120.84V97.0328C46.8949 93.4757 44.0063 90.5922 40.443 90.5922Z" fill="#0C4A3F"/><path d="M38.9796 97.9301H19.7552V119.943H38.9796V97.9301Z" fill="url(#pattern2)"/><path d="M40.443 135.465H16.5944C13.0312 135.465 10.1426 138.348 10.1426 141.906V165.713C10.1426 169.27 13.0312 172.153 16.5944 172.153H40.443C44.0063 172.153 46.8949 169.27 46.8949 165.713V141.906C46.8949 138.348 44.0063 135.465 40.443 135.465Z" fill="#0C4A3F"/><path d="M39.8272 143.085H17.7758V165.098H39.8272V143.085Z" fill="url(#pattern3)"/><path d="M40.443 0H16.5944C13.0312 0 10.1426 2.88357 10.1426 6.44063V30.2478C10.1426 33.8048 13.0312 36.6884 16.5944 36.6884H40.443C44.0063 36.6884 46.8949 33.8048 46.8949 30.2478V6.44063C46.8949 2.88357 44.0063 0 40.443 0Z" fill="#0C4A3F"/><path d="M40.6746 11.2885H15.7961V25.3994H40.6746V11.2885Z" fill="url(#pattern4)"/><path d="M85.394 90.5922H61.5454C57.9821 90.5922 55.0935 93.4757 55.0935 97.0328V120.84C55.0935 124.397 57.9821 127.281 61.5454 127.281H85.394C88.9572 127.281 91.8458 124.397 91.8458 120.84V97.0328C91.8458 93.4757 88.9572 90.5922 85.394 90.5922Z" fill="#0C4A3F"/><path d="M83.3644 97.9301H63.5747V119.943H83.3644V97.9301Z" fill="url(#pattern5)"/><path d="M85.394 135.465H61.5454C57.9821 135.465 55.0935 138.348 55.0935 141.906V165.713C55.0935 169.27 57.9821 172.153 61.5454 172.153H85.394C88.9572 172.153 91.8458 169.27 91.8458 165.713V141.906C91.8458 138.348 88.9572 135.465 85.394 135.465Z" fill="#0C4A3F"/><path d="M87.3224 140.545H60.1823V166.791H87.3224V140.545Z" fill="url(#pattern6)"/><path d="M85.394 0H61.5454C57.9821 0 55.0935 2.88357 55.0935 6.44063V30.2478C55.0935 33.8048 57.9821 36.6884 61.5454 36.6884H85.394C88.9572 36.6884 91.8458 33.8048 91.8458 30.2478V6.44063C91.8458 2.88357 88.9572 0 85.394 0Z" fill="#0C4A3F"/><path d="M83.9296 8.46655H63.009V28.2218H83.9296V8.46655Z" fill="url(#pattern7)"/><path d="M175.296 90.5922H151.447C147.884 90.5922 144.995 93.4757 144.995 97.0328V120.84C144.995 124.397 147.884 127.281 151.447 127.281H175.296C178.859 127.281 181.748 124.397 181.748 120.84V97.0328C181.748 93.4757 178.859 90.5922 175.296 90.5922Z" fill="#0C4A3F"/><path d="M172.984 99.9054H154.325V118.532H172.984V99.9054Z" fill="url(#pattern8)"/><path d="M175.296 135.465H151.447C147.884 135.465 144.995 138.348 144.995 141.906V165.713C144.995 169.27 147.884 172.153 151.447 172.153H175.296C178.859 172.153 181.748 169.27 181.748 165.713V141.906C181.748 138.348 178.859 135.465 175.296 135.465Z" fill="#0C4A3F"/><path d="M174.68 143.085H152.629V165.098H174.68V143.085Z" fill="url(#pattern9)"/><path d="M130.345 90.5922H106.496C102.933 90.5922 100.044 93.4757 100.044 97.0328V120.84C100.044 124.397 102.933 127.281 106.496 127.281H130.345C133.908 127.281 136.797 124.397 136.797 120.84V97.0328C136.797 93.4757 133.908 90.5922 130.345 90.5922Z" fill="#0C4A3F"/><path d="M128.526 99.0587H108.526V119.025H128.526V99.0587Z" fill="url(#pattern10)"/><path d="M130.345 135.465H106.496C102.933 135.465 100.044 138.348 100.044 141.906V165.713C100.044 169.27 102.933 172.153 106.496 172.153H130.345C133.908 172.153 136.797 169.27 136.797 165.713V141.906C136.797 138.348 133.908 135.465 130.345 135.465Z" fill="#0C4A3F"/><path d="M133.97 138.005H102.589V169.331H133.97V138.005Z" fill="url(#pattern11)"/><path d="M130.345 0H106.496C102.933 0 100.044 2.88357 100.044 6.44063V30.2478C100.044 33.8048 102.933 36.6884 106.496 36.6884H130.345C133.908 36.6884 136.797 33.8048 136.797 30.2478V6.44063C136.797 2.88357 133.908 0 130.345 0Z" fill="#0C4A3F"/><path d="M130.012 9.03088H107.395V27.0928H130.012V9.03088Z" fill="url(#pattern12)"/><path d="M175.296 0H151.447C147.884 0 144.995 2.88357 144.995 6.44063V30.2478C144.995 33.8048 147.884 36.6884 151.447 36.6884H175.296C178.859 36.6884 181.748 33.8048 181.748 30.2478V6.44063C181.748 2.88357 178.859 0 175.296 0Z" fill="#0C4A3F"/><path d="M176.376 5.92657H150.932V31.3262H176.376V5.92657Z" fill="url(#pattern13)"/><path d="M86.2421 45.7194H62.3935C58.8302 45.7194 55.9417 48.603 55.9417 52.1601V75.9672C55.9417 79.5242 58.8302 82.4078 62.3935 82.4078H86.2421C89.8054 82.4078 92.694 79.5242 92.694 75.9672V52.1601C92.694 48.603 89.8054 45.7194 86.2421 45.7194Z" fill="#0C4A3F"/><path d="M85.3429 54.186H64.9878V76.7635H85.3429V54.186Z" fill="url(#pattern14)"/><path d="M131.193 45.7194H107.344C103.781 45.7194 100.893 48.603 100.893 52.1601V75.9672C100.893 79.5242 103.781 82.4078 107.344 82.4078H131.193C134.756 82.4078 137.645 79.5242 137.645 75.9672V52.1601C137.645 48.603 134.756 45.7194 131.193 45.7194Z" fill="#0C4A3F"/><path d="M128.881 54.186H110.222V74.5057H128.881V54.186Z" fill="url(#pattern15)"/><path d="M176.144 45.7194H152.295C148.732 45.7194 145.844 48.603 145.844 52.1601V75.9672C145.844 79.5242 148.732 82.4078 152.295 82.4078H176.144C179.707 82.4078 182.596 79.5242 182.596 75.9672V52.1601C182.596 48.603 179.707 45.7194 176.144 45.7194Z" fill="#0C4A3F"/><path d="M171.287 51.3636H157.717V76.7633H171.287V51.3636Z" fill="url(#pattern16)"/><path d="M40.443 181.184H16.5944C13.0312 181.184 10.1426 184.068 10.1426 187.625V211.432C10.1426 214.989 13.0312 217.873 16.5944 217.873H40.443C44.0063 217.873 46.8949 214.989 46.8949 211.432V187.625C46.8949 184.068 44.0063 181.184 40.443 181.184Z" fill="#0C4A3F"/><path d="M38.4132 189.086H18.0581V209.97H38.4132V189.086Z" fill="url(#pattern17)"/><path d="M40.443 226.057H16.5944C13.0312 226.057 10.1426 228.941 10.1426 232.498V256.305C10.1426 259.862 13.0312 262.746 16.5944 262.746H40.443C44.0063 262.746 46.8949 259.862 46.8949 256.305V232.498C46.8949 228.941 44.0063 226.057 40.443 226.057Z" fill="#0C4A3F"/><path d="M40.6753 236.782H16.9276V252.021H40.6753V236.782Z" fill="url(#pattern18)"/><path d="M175.296 181.184H151.447C147.884 181.184 144.995 184.068 144.995 187.625V211.432C144.995 214.989 147.884 217.873 151.447 217.873H175.296C178.859 217.873 181.748 214.989 181.748 211.432V187.625C181.748 184.068 178.859 181.184 175.296 181.184Z" fill="#0C4A3F"/><path d="M173.832 189.651H153.477V209.971H173.832V189.651Z" fill="url(#pattern19)"/><path d="M85.394 226.057H61.5454C57.9821 226.057 55.0935 228.941 55.0935 232.498V256.305C55.0935 259.862 57.9821 262.746 61.5454 262.746H85.394C88.9572 262.746 91.8458 259.862 91.8458 256.305V232.498C91.8458 228.941 88.9572 226.057 85.394 226.057Z" fill="#0C4A3F"/><path d="M87.8872 231.702H59.0508V257.101H87.8872V231.702Z" fill="url(#pattern20)"/><path d="M130.345 226.057H106.496C102.933 226.057 100.044 228.941 100.044 232.498V256.305C100.044 259.862 102.933 262.746 106.496 262.746H130.345C133.908 262.746 136.797 259.862 136.797 256.305V232.498C136.797 228.941 133.908 226.057 130.345 226.057Z" fill="#0C4A3F"/><path d="M135.101 230.008H102.024V258.795H135.101V230.008Z" fill="url(#pattern21)"/><path d="M175.296 226.057H151.447C147.884 226.057 144.995 228.941 144.995 232.498V256.305C144.995 259.862 147.884 262.746 151.447 262.746H175.296C178.859 262.746 181.748 259.862 181.748 256.305V232.498C181.748 228.941 178.859 226.057 175.296 226.057Z" fill="#0C4A3F"/><path d="M173.832 234.242H153.477V254.561H173.832V234.242Z" fill="url(#pattern22)"/><path d="M85.394 181.184H61.5454C57.9821 181.184 55.0935 184.068 55.0935 187.625V211.432C55.0935 214.989 57.9821 217.873 61.5454 217.873H85.394C88.9572 217.873 91.8458 214.989 91.8458 211.432V187.625C91.8458 184.068 88.9572 181.184 85.394 181.184Z" fill="#0C4A3F"/><path d="M87.8882 185.136H59.0518V213.922H87.8882V185.136Z" fill="url(#pattern23)"/><path d="M87.8882 185.136H59.0518V213.922H87.8882V185.136Z" fill="url(#pattern24)"/><path d="M130.345 181.184H106.496C102.933 181.184 100.044 184.068 100.044 187.625V211.432C100.044 214.989 102.933 217.873 106.496 217.873H130.345C133.908 217.873 136.797 214.989 136.797 211.432V187.625C136.797 184.068 133.908 181.184 130.345 181.184Z" fill="#0C4A3F"/><path d="M124.358 187.393H112.484V211.664H124.358V187.393Z" fill="url(#pattern25)"/><defs><pattern id="pattern0" patternContentUnits="objectBoundingBox" width="1" height="1"><use xlink:href="#image0_2_2" transform="matrix(0.002 0 0 0.0124133 0 -2.60333)"/></pattern><pattern id="pattern1" patternContentUnits="objectBoundingBox" width="1" height="1"><use xlink:href="#image1_2_2" transform="matrix(0.000965523 0 0 0.0010661 -0.0122099 0)"/></pattern><pattern id="pattern2" patternContentUnits="objectBoundingBox" width="1" height="1"><use xlink:href="#image2_2_2" transform="matrix(0.00382353 0 0 0.00333333 -0.0104412 0)"/></pattern><pattern id="pattern3" patternContentUnits="objectBoundingBox" width="1" height="1"><use xlink:href="#image3_2_2" transform="scale(0.00195312)"/></pattern><pattern id="pattern4" patternContentUnits="objectBoundingBox" width="1" height="1"><use xlink:href="#image4_2_2" transform="matrix(0.00151515 0 0 0.00266667 -0.00454542 0)"/></pattern><pattern id="pattern5" patternContentUnits="objectBoundingBox" width="1" height="1"><use xlink:href="#image5_2_2" transform="matrix(0.00220264 0 0 0.00197673 0 -0.00604316)"/></pattern><pattern id="pattern6" patternContentUnits="objectBoundingBox" width="1" height="1"><use xlink:href="#image6_2_2" transform="matrix(0.00446429 0 0 0.00460829 0 -0.00460829)"/></pattern><pattern id="pattern7" patternContentUnits="objectBoundingBox" width="1" height="1"><use xlink:href="#image7_2_2" transform="matrix(0.000442276 0 0 0.00046385 -0.352988 -4.7643e-05)"/></pattern><pattern id="pattern8" patternContentUnits="objectBoundingBox" width="1" height="1"><use xlink:href="#image8_2_2" transform="scale(0.000488281)"/></pattern><pattern id="pattern9" patternContentUnits="objectBoundingBox" width="1" height="1"><use xlink:href="#image9_2_2" transform="scale(0.000488281)"/></pattern><pattern id="pattern10" patternContentUnits="objectBoundingBox" width="1" height="1"><use xlink:href="#image10_2_2" transform="scale(0.00444444)"/></pattern><pattern id="pattern11" patternContentUnits="objectBoundingBox" width="1" height="1"><use xlink:href="#image11_2_2" transform="translate(-0.25) scale(0.0005)"/></pattern><pattern id="pattern12" patternContentUnits="objectBoundingBox" width="1" height="1"><use xlink:href="#image12_2_2" transform="matrix(0.000488281 0 0 0.000610352 0 -0.00231931)"/></pattern><pattern id="pattern13" patternContentUnits="objectBoundingBox" width="1" height="1"><use xlink:href="#image13_2_2" transform="scale(0.005)"/></pattern><pattern id="pattern14" patternContentUnits="objectBoundingBox" width="1" height="1"><use xlink:href="#image14_2_2" transform="matrix(0.000542535 0 0 0.000488281 -0.00699869 0)"/></pattern><pattern id="pattern15" patternContentUnits="objectBoundingBox" width="1" height="1"><use xlink:href="#image15_2_2" transform="matrix(0.000548847 0 0 0.00050311 0 -0.0151848)"/></pattern><pattern id="pattern16" patternContentUnits="objectBoundingBox" width="1" height="1"><use xlink:href="#image16_2_2" transform="matrix(0.000854214 0 0 0.000455581 -0.0125285 0)"/></pattern><pattern id="pattern17" patternContentUnits="objectBoundingBox" width="1" height="1"><use xlink:href="#image17_2_2" transform="matrix(0.00100705 0 0 0.000979832 0 -0.00167389)"/></pattern><pattern id="pattern18" patternContentUnits="objectBoundingBox" width="1" height="1"><use xlink:href="#image18_2_2" transform="matrix(0.00390625 0 0 0.00607639 0 -0.0104167)"/></pattern><pattern id="pattern19" patternContentUnits="objectBoundingBox" width="1" height="1"><use xlink:href="#image19_2_2" transform="translate(-0.00192431) scale(0.000641437)"/></pattern><pattern id="pattern20" patternContentUnits="objectBoundingBox" width="1" height="1"><use xlink:href="#image20_2_2" transform="matrix(0.00169102 0 0 0.00193259 -0.28125 -0.116497)"/></pattern><pattern id="pattern21" patternContentUnits="objectBoundingBox" width="1" height="1"><use xlink:href="#image21_2_2" transform="matrix(0.000435897 0 0 0.0005 -0.153846 0)"/></pattern><pattern id="pattern22" patternContentUnits="objectBoundingBox" width="1" height="1"><use xlink:href="#image22_2_2" transform="translate(0 -0.00793651) scale(0.00396825)"/></pattern><pattern id="pattern23" patternContentUnits="objectBoundingBox" width="1" height="1"><use xlink:href="#image23_2_2" transform="scale(0.000416667)"/></pattern><pattern id="pattern24" patternContentUnits="objectBoundingBox" width="1" height="1"><use xlink:href="#image24_2_2" transform="scale(0.000416667)"/></pattern><pattern id="pattern25" patternContentUnits="objectBoundingBox" width="1" height="1"><use xlink:href="#image25_2_2" transform="scale(0.00302115 0.00144928)"/></pattern></defs></svg>