<svg width="852" height="502" viewBox="0 0 852 502" fill="none" xmlns="http://www.w3.org/2000/svg" xmlns:xlink="http://www.w3.org/1999/xlink">
<path d="M463.275 205.892H388.725C384.524 205.892 381.118 209.298 381.118 213.499V288.049C381.118 292.25 384.524 295.656 388.725 295.656H463.275C467.476 295.656 470.882 292.25 470.882 288.049V213.499C470.882 209.298 467.476 205.892 463.275 205.892Z" fill="#0C4A3F"/>
<path d="M844.393 23.3208H700.618C696.417 23.3208 693.011 26.7266 693.011 30.9279V105.478C693.011 109.679 696.417 113.085 700.618 113.085H844.393C848.594 113.085 852 109.679 852 105.478V30.9279C852 26.7266 848.594 23.3208 844.393 23.3208Z" fill="#0C4A3F"/>
<path d="M844.393 152.642H700.618C696.417 152.642 693.011 156.048 693.011 160.249V234.799C693.011 239 696.417 242.406 700.618 242.406H844.393C848.594 242.406 852 239 852 234.799V160.249C852 156.048 848.594 152.642 844.393 152.642Z" fill="#0C4A3F"/>
<path d="M844.393 281.963H700.618C696.417 281.963 693.011 285.369 693.011 289.57V364.12C693.011 368.321 696.417 371.727 700.618 371.727H844.393C848.594 371.727 852 368.321 852 364.12V289.57C852 285.369 848.594 281.963 844.393 281.963Z" fill="#0C4A3F"/>
<path d="M844.393 411.285H700.618C696.417 411.285 693.011 414.691 693.011 418.892V493.442C693.011 497.643 696.417 501.049 700.618 501.049H844.393C848.594 501.049 852 497.643 852 493.442V418.892C852 414.691 848.594 411.285 844.393 411.285Z" fill="#0C4A3F"/>
<path d="M0.840515 12.5V4.832H3.16754C3.24919 4.832 3.38764 4.83378 3.58289 4.83733C3.78169 4.84087 3.97161 4.85507 4.15266 4.87992C4.73486 4.96157 5.22121 5.17812 5.61171 5.52958C6.00221 5.88103 6.29509 6.32833 6.49034 6.87147C6.68559 7.41462 6.78321 8.0128 6.78321 8.666C6.78321 9.3192 6.68559 9.91738 6.49034 10.4605C6.29509 11.0037 6.00221 11.451 5.61171 11.8024C5.22121 12.1539 4.73486 12.3704 4.15266 12.4521C3.97516 12.4734 3.78524 12.4876 3.58289 12.4947C3.38054 12.4982 3.24209 12.5 3.16754 12.5H0.840515ZM1.64991 11.7492H3.16754C3.31309 11.7492 3.46929 11.7456 3.63614 11.7385C3.80654 11.7279 3.95209 11.7101 4.07279 11.6853C4.52009 11.6072 4.88041 11.4261 5.15376 11.1421C5.43066 10.8581 5.63301 10.5031 5.76081 10.0771C5.88861 9.64757 5.95251 9.1772 5.95251 8.666C5.95251 8.15125 5.88861 7.6791 5.76081 7.24955C5.63301 6.82 5.43066 6.465 5.15376 6.18455C4.87686 5.9041 4.51654 5.72482 4.07279 5.64672C3.95209 5.62188 3.80476 5.6059 3.63081 5.5988C3.46041 5.58815 3.30599 5.58283 3.16754 5.58283H1.64991V11.7492ZM9.42841 12.6598C8.99531 12.6598 8.63143 12.5817 8.33678 12.4255C8.04568 12.2693 7.82736 12.0616 7.68181 11.8024C7.53626 11.5433 7.46348 11.261 7.46348 10.9557C7.46348 10.6433 7.52561 10.3771 7.64986 10.157C7.77766 9.93335 7.94983 9.75052 8.16638 9.60852C8.38648 9.46653 8.64031 9.35825 8.92786 9.2837C9.21896 9.2127 9.54023 9.15057 9.89168 9.09732C10.2467 9.04052 10.5928 8.9926 10.9301 8.95355C11.2709 8.91095 11.5691 8.87012 11.8247 8.83108L11.5478 9.00148C11.5584 8.43348 11.4484 8.0128 11.2176 7.73945C10.9869 7.4661 10.5857 7.32942 10.0142 7.32942C9.62011 7.32942 9.28641 7.41817 9.01306 7.59567C8.74326 7.77317 8.55333 8.05362 8.44328 8.43703L7.68181 8.21337C7.81316 7.69862 8.07763 7.29925 8.47523 7.01525C8.87283 6.73125 9.38936 6.58925 10.0248 6.58925C10.5502 6.58925 10.9957 6.68865 11.3614 6.88745C11.7306 7.0827 11.9915 7.3667 12.1442 7.73945C12.2152 7.9063 12.2613 8.09267 12.2826 8.29857C12.3039 8.50448 12.3146 8.71393 12.3146 8.92693V12.5H11.617V11.0569L11.8193 11.1421C11.6241 11.6356 11.3206 12.0119 10.9088 12.271C10.497 12.5302 10.0035 12.6598 9.42841 12.6598ZM9.51893 11.9835C9.88458 11.9835 10.2041 11.9178 10.4774 11.7865C10.7508 11.6551 10.9709 11.4758 11.1377 11.2486C11.3046 11.0179 11.4129 10.7587 11.4626 10.4712C11.5052 10.2866 11.5282 10.0842 11.5318 9.86412C11.5353 9.64047 11.5371 9.47362 11.5371 9.36357L11.8353 9.518C11.5691 9.5535 11.2797 9.589 10.9673 9.6245C10.6585 9.66 10.3532 9.70082 10.0514 9.74697C9.75323 9.79313 9.48343 9.84815 9.24203 9.91205C9.07873 9.9582 8.92076 10.0239 8.76811 10.1091C8.61546 10.1907 8.48943 10.3008 8.39003 10.4392C8.29418 10.5777 8.24626 10.7498 8.24626 10.9557C8.24626 11.1226 8.28708 11.2841 8.36873 11.4403C8.45393 11.5965 8.58883 11.7261 8.77343 11.8291C8.96158 11.932 9.21008 11.9835 9.51893 11.9835ZM16.6189 12.5C16.2959 12.5675 15.9764 12.5941 15.6604 12.5799C15.348 12.5657 15.0676 12.4982 14.8191 12.3775C14.5741 12.2568 14.3877 12.0687 14.2599 11.8131C14.157 11.6001 14.1002 11.3853 14.0895 11.1688C14.0824 10.9487 14.0789 10.6984 14.0789 10.4179V5.1515H14.8563V10.386C14.8563 10.6274 14.8581 10.8297 14.8617 10.993C14.8688 11.1528 14.906 11.2948 14.9735 11.419C15.1013 11.6569 15.3036 11.7989 15.5805 11.845C15.861 11.8912 16.2071 11.8805 16.6189 11.8131V12.5ZM12.8488 7.41995V6.749H16.6189V7.41995H12.8488ZM19.1844 12.6598C18.7513 12.6598 18.3874 12.5817 18.0928 12.4255C17.8017 12.2693 17.5833 12.0616 17.4378 11.8024C17.2922 11.5433 17.2195 11.261 17.2195 10.9557C17.2195 10.6433 17.2816 10.3771 17.4058 10.157C17.5336 9.93335 17.7058 9.75052 17.9224 9.60852C18.1425 9.46653 18.3963 9.35825 18.6838 9.2837C18.9749 9.2127 19.2962 9.15057 19.6477 9.09732C20.0027 9.04052 20.3488 8.9926 20.686 8.95355C21.0268 8.91095 21.325 8.87012 21.5806 8.83108L21.3037 9.00148C21.3144 8.43348 21.2043 8.0128 20.9736 7.73945C20.7428 7.4661 20.3417 7.32942 19.7701 7.32942C19.3761 7.32942 19.0424 7.41817 18.769 7.59567C18.4992 7.77317 18.3093 8.05362 18.1993 8.43703L17.4378 8.21337C17.5691 7.69862 17.8336 7.29925 18.2312 7.01525C18.6288 6.73125 19.1453 6.58925 19.7808 6.58925C20.3062 6.58925 20.7517 6.68865 21.1174 6.88745C21.4866 7.0827 21.7475 7.3667 21.9001 7.73945C21.9711 7.9063 22.0173 8.09267 22.0386 8.29857C22.0599 8.50448 22.0705 8.71393 22.0705 8.92693V12.5H21.373V11.0569L21.5753 11.1421C21.3801 11.6356 21.0765 12.0119 20.6647 12.271C20.2529 12.5302 19.7595 12.6598 19.1844 12.6598ZM19.2749 11.9835C19.6406 11.9835 19.9601 11.9178 20.2334 11.7865C20.5068 11.6551 20.7269 11.4758 20.8937 11.2486C21.0606 11.0179 21.1688 10.7587 21.2185 10.4712C21.2611 10.2866 21.2842 10.0842 21.2878 9.86412C21.2913 9.64047 21.2931 9.47362 21.2931 9.36357L21.5913 9.518C21.325 9.5535 21.0357 9.589 20.7233 9.6245C20.4145 9.66 20.1092 9.70082 19.8074 9.74697C19.5092 9.79313 19.2394 9.84815 18.998 9.91205C18.8347 9.9582 18.6767 10.0239 18.5241 10.1091C18.3714 10.1907 18.2454 10.3008 18.146 10.4392C18.0502 10.5777 18.0022 10.7498 18.0022 10.9557C18.0022 11.1226 18.0431 11.2841 18.1247 11.4403C18.2099 11.5965 18.3448 11.7261 18.5294 11.8291C18.7176 11.932 18.9661 11.9835 19.2749 11.9835ZM25.8264 12.6598C25.2975 12.6598 24.8502 12.5266 24.4845 12.2604C24.1189 11.9906 23.842 11.6267 23.6538 11.1688C23.4657 10.7072 23.3716 10.1907 23.3716 9.61918C23.3716 9.03697 23.4657 8.51867 23.6538 8.06427C23.8455 7.60632 24.126 7.246 24.4952 6.9833C24.8644 6.7206 25.3188 6.58925 25.8584 6.58925C26.3838 6.58925 26.8346 6.72238 27.2109 6.98862C27.5872 7.25487 27.8748 7.61697 28.0736 8.07492C28.2759 8.53288 28.3771 9.04763 28.3771 9.61918C28.3771 10.1943 28.2759 10.7108 28.0736 11.1688C27.8712 11.6267 27.5801 11.9906 27.2003 12.2604C26.8204 12.5266 26.3625 12.6598 25.8264 12.6598ZM23.2385 12.5V4.832H24.0266V8.17078H23.9414V12.5H23.2385ZM25.7465 11.9302C26.1477 11.9302 26.4814 11.829 26.7476 11.6267C27.0139 11.4243 27.2127 11.1492 27.344 10.8013C27.4789 10.4499 27.5464 10.0558 27.5464 9.61918C27.5464 9.18607 27.4807 8.79557 27.3494 8.44767C27.218 8.09977 27.0174 7.82465 26.7476 7.6223C26.4814 7.41995 26.1424 7.31877 25.7306 7.31877C25.3294 7.31877 24.9957 7.4164 24.7295 7.61165C24.4668 7.8069 24.2697 8.07847 24.1384 8.42637C24.007 8.77072 23.9414 9.16832 23.9414 9.61918C23.9414 10.0629 24.007 10.4605 24.1384 10.812C24.2697 11.1599 24.4685 11.4332 24.7348 11.632C25.001 11.8308 25.3383 11.9302 25.7465 11.9302ZM30.9788 12.6598C30.5457 12.6598 30.1819 12.5817 29.8872 12.4255C29.5961 12.2693 29.3778 12.0616 29.2322 11.8024C29.0867 11.5433 29.0139 11.261 29.0139 10.9557C29.0139 10.6433 29.076 10.3771 29.2003 10.157C29.3281 9.93335 29.5003 9.75052 29.7168 9.60852C29.9369 9.46653 30.1907 9.35825 30.4783 9.2837C30.7694 9.2127 31.0907 9.15057 31.4421 9.09732C31.7971 9.04052 32.1432 8.9926 32.4805 8.95355C32.8213 8.91095 33.1195 8.87012 33.3751 8.83108L33.0982 9.00148C33.1088 8.43348 32.9988 8.0128 32.768 7.73945C32.5373 7.4661 32.1361 7.32942 31.5646 7.32942C31.1705 7.32942 30.8368 7.41817 30.5635 7.59567C30.2937 7.77317 30.1038 8.05362 29.9937 8.43703L29.2322 8.21337C29.3636 7.69862 29.6281 7.29925 30.0257 7.01525C30.4233 6.73125 30.9398 6.58925 31.5752 6.58925C32.1006 6.58925 32.5462 6.68865 32.9118 6.88745C33.281 7.0827 33.5419 7.3667 33.6946 7.73945C33.7656 7.9063 33.8117 8.09267 33.833 8.29857C33.8543 8.50448 33.865 8.71393 33.865 8.92693V12.5H33.1674V11.0569L33.3698 11.1421C33.1745 11.6356 32.871 12.0119 32.4592 12.271C32.0474 12.5302 31.5539 12.6598 30.9788 12.6598ZM31.0694 11.9835C31.435 11.9835 31.7545 11.9178 32.0279 11.7865C32.3012 11.6551 32.5213 11.4758 32.6882 11.2486C32.855 11.0179 32.9633 10.7587 33.013 10.4712C33.0556 10.2866 33.0787 10.0842 33.0822 9.86412C33.0858 9.64047 33.0875 9.47362 33.0875 9.36357L33.3857 9.518C33.1195 9.5535 32.8302 9.589 32.5178 9.6245C32.2089 9.66 31.9036 9.70082 31.6019 9.74697C31.3037 9.79313 31.0339 9.84815 30.7925 9.91205C30.6292 9.9582 30.4712 10.0239 30.3185 10.1091C30.1659 10.1907 30.0399 10.3008 29.9405 10.4392C29.8446 10.5777 29.7967 10.7498 29.7967 10.9557C29.7967 11.1226 29.8375 11.2841 29.9192 11.4403C30.0044 11.5965 30.1393 11.7261 30.3239 11.8291C30.512 11.932 30.7605 11.9835 31.0694 11.9835ZM37.1842 12.6544C36.5097 12.6544 35.9541 12.5089 35.5175 12.2178C35.0844 11.9267 34.8181 11.522 34.7187 11.0037L35.5175 10.8705C35.6027 11.1971 35.7962 11.4581 36.0979 11.6533C36.4032 11.845 36.7795 11.9409 37.2268 11.9409C37.6635 11.9409 38.0078 11.8504 38.2599 11.6693C38.5119 11.4847 38.6379 11.2344 38.6379 10.9185C38.6379 10.741 38.5971 10.5972 38.5155 10.4871C38.4374 10.3735 38.2758 10.2688 38.0309 10.173C37.7859 10.0771 37.4203 9.96352 36.9339 9.83217C36.4121 9.69017 36.0038 9.54818 35.7092 9.40617C35.4145 9.26417 35.2051 9.10087 35.0808 8.91627C34.9566 8.72813 34.8945 8.49915 34.8945 8.22935C34.8945 7.90275 34.9868 7.61697 35.1714 7.37202C35.356 7.12353 35.6116 6.93183 35.9382 6.79692C36.2648 6.65847 36.6446 6.58925 37.0777 6.58925C37.5108 6.58925 37.8978 6.66025 38.2386 6.80225C38.5829 6.9407 38.8598 7.13595 39.0693 7.388C39.2787 7.64005 39.403 7.93292 39.442 8.26663L38.6433 8.4104C38.59 8.07315 38.4214 7.8069 38.1374 7.61165C37.8569 7.41285 37.5002 7.3099 37.0671 7.3028C36.6588 7.29215 36.3269 7.37025 36.0713 7.5371C35.8157 7.7004 35.6879 7.91873 35.6879 8.19208C35.6879 8.34473 35.734 8.47608 35.8263 8.58613C35.9186 8.69262 36.0855 8.7938 36.3269 8.88965C36.5718 8.9855 36.9197 9.09023 37.3706 9.20383C37.8995 9.33872 38.3149 9.48072 38.6166 9.62982C38.9184 9.77893 39.1332 9.95465 39.261 10.157C39.3888 10.3593 39.4527 10.6096 39.4527 10.9078C39.4527 11.451 39.2503 11.8787 38.8456 12.1912C38.4445 12.5 37.8907 12.6544 37.1842 12.6544ZM42.8542 12.6598C42.2933 12.6598 41.8069 12.5355 41.3951 12.287C40.9869 12.0385 40.6692 11.6888 40.442 11.238C40.2148 10.7871 40.1012 10.2582 40.1012 9.65112C40.1012 9.02278 40.213 8.47963 40.4366 8.02168C40.6603 7.56373 40.9745 7.2105 41.3792 6.962C41.7874 6.7135 42.2684 6.58925 42.8222 6.58925C43.3902 6.58925 43.8748 6.7206 44.276 6.9833C44.6771 7.24245 44.9806 7.6152 45.1865 8.10155C45.3924 8.5879 45.4865 9.16833 45.4688 9.84283H44.67V9.56593C44.6558 8.82043 44.4943 8.25775 44.1854 7.8779C43.8801 7.49805 43.4328 7.30813 42.8435 7.30813C42.2258 7.30813 41.7519 7.5087 41.4218 7.90985C41.0952 8.311 40.9319 8.88255 40.9319 9.6245C40.9319 10.3487 41.0952 10.9114 41.4218 11.3125C41.7519 11.7101 42.2187 11.9089 42.8222 11.9089C43.234 11.9089 43.5926 11.8148 43.8979 11.6267C44.2067 11.435 44.4499 11.1599 44.6274 10.8013L45.3569 11.0836C45.1297 11.5841 44.7943 11.9728 44.3505 12.2497C43.9103 12.5231 43.4115 12.6598 42.8542 12.6598ZM40.655 9.84283V9.18785H45.0481V9.84283H40.655Z" fill="white"/>
<path d="M3.84997 165.326C3.08672 165.326 2.44239 165.158 1.91699 164.82C1.39159 164.48 0.993989 164.009 0.724189 163.409C0.454389 162.809 0.319489 162.117 0.319489 161.333C0.319489 160.548 0.454389 159.856 0.724189 159.256C0.993989 158.656 1.39159 158.187 1.91699 157.85C2.44239 157.509 3.08672 157.339 3.84997 157.339C4.74102 157.339 5.46876 157.568 6.03321 158.026C6.59766 158.48 6.98462 159.091 7.19407 159.857L6.39532 160.065C6.23202 159.458 5.93914 158.977 5.51669 158.622C5.09424 158.267 4.53867 158.09 3.84997 158.09C3.25002 158.09 2.75124 158.226 2.35364 158.5C1.95604 158.773 1.65606 159.155 1.45371 159.644C1.25491 160.131 1.15196 160.694 1.14486 161.333C1.14132 161.972 1.23894 162.534 1.43774 163.021C1.64009 163.507 1.94184 163.889 2.34299 164.165C2.74769 164.439 3.25002 164.575 3.84997 164.575C4.53867 164.575 5.09424 164.398 5.51669 164.043C5.93914 163.684 6.23202 163.203 6.39532 162.6L7.19407 162.808C6.98462 163.574 6.59766 164.187 6.03321 164.645C5.46876 165.099 4.74102 165.326 3.84997 165.326ZM8.26248 165.167V157.339H9.04525V165.167H8.26248ZM12.8303 165.326C12.2587 165.326 11.7706 165.197 11.3659 164.938C10.9612 164.678 10.6506 164.32 10.434 163.862C10.2175 163.404 10.1092 162.879 10.1092 162.286C10.1092 161.682 10.2192 161.153 10.4393 160.699C10.6594 160.244 10.9718 159.891 11.3765 159.639C11.7848 159.384 12.2694 159.256 12.8303 159.256C13.4054 159.256 13.8953 159.385 14.3 159.644C14.7082 159.9 15.0188 160.257 15.2318 160.715C15.4484 161.169 15.5567 161.693 15.5567 162.286C15.5567 162.889 15.4484 163.42 15.2318 163.878C15.0153 164.332 14.7029 164.687 14.2946 164.943C13.8864 165.198 13.3983 165.326 12.8303 165.326ZM12.8303 164.575C13.4693 164.575 13.945 164.364 14.2574 163.942C14.5698 163.516 14.726 162.964 14.726 162.286C14.726 161.59 14.568 161.036 14.252 160.624C13.9396 160.212 13.4657 160.007 12.8303 160.007C12.4007 160.007 12.0457 160.104 11.7653 160.299C11.4884 160.491 11.2807 160.759 11.1422 161.104C11.0073 161.444 10.9399 161.838 10.9399 162.286C10.9399 162.978 11.0996 163.534 11.4191 163.952C11.7386 164.368 12.209 164.575 12.8303 164.575ZM18.7175 165.31C18.3732 165.31 18.0714 165.257 17.8123 165.151C17.5567 165.044 17.3384 164.9 17.1573 164.719C16.9798 164.538 16.836 164.332 16.726 164.102C16.6159 163.867 16.5361 163.62 16.4864 163.361C16.4367 163.099 16.4118 162.838 16.4118 162.579V159.416H17.1999V162.35C17.1999 162.666 17.2301 162.958 17.2904 163.228C17.3508 163.498 17.4466 163.734 17.578 163.936C17.7129 164.135 17.8851 164.29 18.0945 164.4C18.3075 164.51 18.5649 164.565 18.8666 164.565C19.1435 164.565 19.3867 164.517 19.5962 164.421C19.8092 164.325 19.9867 164.188 20.1287 164.011C20.2742 163.83 20.3843 163.612 20.4588 163.356C20.5334 163.097 20.5706 162.806 20.5706 162.483L21.1244 162.605C21.1244 163.194 21.0215 163.69 20.8156 164.091C20.6097 164.492 20.3257 164.796 19.9636 165.001C19.6015 165.207 19.1861 165.31 18.7175 165.31ZM20.6505 165.167V163.75H20.5706V159.416H21.3534V165.167H20.6505ZM24.8599 165.326C24.3239 165.326 23.8659 165.193 23.4861 164.927C23.1062 164.657 22.8151 164.293 22.6128 163.835C22.4104 163.377 22.3093 162.861 22.3093 162.286C22.3093 161.714 22.4087 161.199 22.6075 160.741C22.8098 160.283 23.0991 159.921 23.4754 159.655C23.8517 159.389 24.3026 159.256 24.828 159.256C25.3676 159.256 25.822 159.387 26.1912 159.65C26.5604 159.913 26.8391 160.273 27.0272 160.731C27.2189 161.185 27.3148 161.703 27.3148 162.286C27.3148 162.857 27.2207 163.374 27.0325 163.835C26.8444 164.293 26.5675 164.657 26.2018 164.927C25.8362 165.193 25.3889 165.326 24.8599 165.326ZM24.9398 164.597C25.3481 164.597 25.6853 164.497 25.9516 164.299C26.2178 164.1 26.4166 163.826 26.548 163.478C26.6793 163.127 26.745 162.729 26.745 162.286C26.745 161.835 26.6793 161.437 26.548 161.093C26.4166 160.745 26.2178 160.473 25.9516 160.278C25.6889 160.083 25.3569 159.985 24.9558 159.985C24.544 159.985 24.2032 160.086 23.9334 160.289C23.6636 160.491 23.463 160.766 23.3317 161.114C23.2039 161.462 23.14 161.853 23.14 162.286C23.14 162.722 23.2056 163.116 23.337 163.468C23.4719 163.816 23.6725 164.091 23.9387 164.293C24.205 164.496 24.5387 164.597 24.9398 164.597ZM26.745 165.167V160.837H26.6598V157.499H27.4479V165.167H26.745Z" fill="white"/>
<path d="M0.85199 271.143V263.475H1.63477V270.392H5.27707V271.143H0.85199ZM7.61732 271.302C7.18422 271.302 6.82034 271.224 6.52569 271.068C6.23459 270.912 6.01627 270.704 5.87072 270.445C5.72517 270.186 5.65239 269.904 5.65239 269.598C5.65239 269.286 5.71452 269.02 5.83877 268.8C5.96657 268.576 6.13874 268.393 6.35529 268.251C6.57539 268.109 6.82922 268.001 7.11677 267.926C7.40787 267.855 7.72914 267.793 8.08059 267.74C8.43559 267.683 8.78172 267.635 9.11897 267.596C9.45977 267.554 9.75797 267.513 10.0136 267.474L9.73667 267.644C9.74732 267.076 9.63727 266.655 9.40652 266.382C9.17577 266.109 8.77462 265.972 8.20307 265.972C7.80902 265.972 7.47532 266.061 7.20197 266.238C6.93217 266.416 6.74224 266.696 6.63219 267.08L5.87072 266.856C6.00207 266.341 6.26654 265.942 6.66414 265.658C7.06174 265.374 7.57827 265.232 8.21372 265.232C8.73912 265.232 9.18464 265.331 9.55029 265.53C9.91949 265.725 10.1804 266.009 10.3331 266.382C10.4041 266.549 10.4502 266.735 10.4715 266.941C10.4928 267.147 10.5035 267.357 10.5035 267.57V271.143H9.80589V269.7L10.0083 269.785C9.81299 270.278 9.50947 270.654 9.09767 270.914C8.68587 271.173 8.19242 271.302 7.61732 271.302ZM7.70784 270.626C8.07349 270.626 8.39299 270.56 8.66634 270.429C8.93969 270.298 9.15979 270.118 9.32664 269.891C9.49349 269.66 9.60177 269.401 9.65147 269.114C9.69407 268.929 9.71714 268.727 9.72069 268.507C9.72424 268.283 9.72602 268.116 9.72602 268.006L10.0242 268.161C9.75797 268.196 9.46864 268.232 9.15624 268.267C8.84739 268.303 8.54209 268.343 8.24034 268.39C7.94214 268.436 7.67234 268.491 7.43094 268.555C7.26764 268.601 7.10967 268.666 6.95702 268.752C6.80437 268.833 6.67834 268.943 6.57894 269.082C6.48309 269.22 6.43517 269.392 6.43517 269.598C6.43517 269.765 6.47599 269.927 6.55764 270.083C6.64284 270.239 6.77774 270.369 6.96234 270.472C7.15049 270.575 7.39899 270.626 7.70784 270.626ZM15.8302 271.143V268.209C15.8302 267.889 15.8001 267.596 15.7397 267.33C15.6794 267.06 15.5817 266.826 15.4468 266.627C15.3155 266.425 15.1433 266.268 14.9303 266.158C14.7209 266.048 14.4653 265.993 14.1635 265.993C13.8866 265.993 13.6417 266.041 13.4287 266.137C13.2192 266.233 13.0417 266.371 12.8962 266.552C12.7542 266.73 12.6459 266.946 12.5713 267.202C12.4968 267.458 12.4595 267.749 12.4595 268.075L11.9057 267.953C11.9057 267.364 12.0087 266.868 12.2146 266.467C12.4205 266.066 12.7045 265.763 13.0666 265.557C13.4287 265.351 13.844 265.248 14.3126 265.248C14.657 265.248 14.9569 265.301 15.2125 265.408C15.4717 265.514 15.69 265.658 15.8675 265.839C16.0486 266.02 16.1941 266.228 16.3042 266.462C16.4142 266.693 16.4941 266.939 16.5438 267.202C16.5935 267.461 16.6183 267.72 16.6183 267.98V271.143H15.8302ZM11.6714 271.143V265.392H12.3796V266.808H12.4595V271.143H11.6714ZM20.0716 273.858C19.7769 273.858 19.4858 273.814 19.1983 273.725C18.9143 273.64 18.6516 273.503 18.4102 273.315C18.1688 273.131 17.9664 272.889 17.8031 272.591L18.5114 272.197C18.6711 272.516 18.8948 272.745 19.1823 272.884C19.4734 273.026 19.7698 273.097 20.0716 273.097C20.4869 273.097 20.8224 273.019 21.078 272.863C21.3372 272.71 21.5253 272.483 21.6425 272.181C21.7596 271.879 21.8164 271.503 21.8129 271.052V269.518H21.9034V265.392H22.601V271.063C22.601 271.226 22.5956 271.382 22.585 271.531C22.5779 271.684 22.5619 271.833 22.5371 271.979C22.4696 272.408 22.3294 272.761 22.1164 273.038C21.9069 273.315 21.63 273.521 21.2857 273.656C20.9449 273.791 20.5402 273.858 20.0716 273.858ZM20.0183 271.302C19.4823 271.302 19.0243 271.169 18.6445 270.903C18.2646 270.633 17.9735 270.269 17.7712 269.811C17.5688 269.353 17.4677 268.837 17.4677 268.262C17.4677 267.69 17.5671 267.175 17.7659 266.718C17.9682 266.26 18.2575 265.897 18.6338 265.631C19.0101 265.365 19.461 265.232 19.9864 265.232C20.526 265.232 20.9804 265.363 21.3496 265.626C21.7188 265.889 21.9975 266.249 22.1856 266.707C22.3773 267.161 22.4732 267.68 22.4732 268.262C22.4732 268.833 22.3791 269.35 22.1909 269.811C22.0028 270.269 21.7259 270.633 21.3602 270.903C20.9946 271.169 20.5473 271.302 20.0183 271.302ZM20.0982 270.573C20.5065 270.573 20.8437 270.473 21.11 270.275C21.3762 270.076 21.575 269.802 21.7064 269.455C21.8377 269.103 21.9034 268.706 21.9034 268.262C21.9034 267.811 21.8377 267.413 21.7064 267.069C21.575 266.721 21.3762 266.449 21.11 266.254C20.8473 266.059 20.5153 265.961 20.1142 265.961C19.7024 265.961 19.3616 266.063 19.0918 266.265C18.822 266.467 18.6214 266.742 18.4901 267.09C18.3623 267.438 18.2984 267.829 18.2984 268.262C18.2984 268.698 18.364 269.092 18.4954 269.444C18.6303 269.792 18.8309 270.067 19.0971 270.269C19.3634 270.472 19.6971 270.573 20.0982 270.573ZM26.076 271.286C25.7317 271.286 25.4299 271.233 25.1708 271.127C24.9152 271.02 24.6969 270.876 24.5158 270.695C24.3383 270.514 24.1945 270.308 24.0845 270.078C23.9744 269.843 23.8945 269.597 23.8448 269.337C23.7951 269.075 23.7703 268.814 23.7703 268.555V265.392H24.5584V268.326C24.5584 268.642 24.5886 268.934 24.6489 269.204C24.7093 269.474 24.8051 269.71 24.9365 269.913C25.0714 270.111 25.2435 270.266 25.453 270.376C25.666 270.486 25.9234 270.541 26.2251 270.541C26.502 270.541 26.7452 270.493 26.9547 270.397C27.1677 270.301 27.3452 270.165 27.4871 269.987C27.6327 269.806 27.7428 269.588 27.8173 269.332C27.8918 269.073 27.9291 268.782 27.9291 268.459L28.4829 268.581C28.4829 269.171 28.38 269.666 28.1741 270.067C27.9682 270.468 27.6842 270.772 27.3221 270.978C26.96 271.183 26.5446 271.286 26.076 271.286ZM28.009 271.143V269.726H27.9291V265.392H28.7119V271.143H28.009ZM31.6327 271.302C31.1996 271.302 30.8357 271.224 30.541 271.068C30.2499 270.912 30.0316 270.704 29.8861 270.445C29.7405 270.186 29.6677 269.904 29.6677 269.598C29.6677 269.286 29.7299 269.02 29.8541 268.8C29.9819 268.576 30.1541 268.393 30.3706 268.251C30.5907 268.109 30.8446 268.001 31.1321 267.926C31.4232 267.855 31.7445 267.793 32.0959 267.74C32.4509 267.683 32.7971 267.635 33.1343 267.596C33.4751 267.554 33.7733 267.513 34.0289 267.474L33.752 267.644C33.7627 267.076 33.6526 266.655 33.4219 266.382C33.1911 266.109 32.79 265.972 32.2184 265.972C31.8244 265.972 31.4907 266.061 31.2173 266.238C30.9475 266.416 30.7576 266.696 30.6475 267.08L29.8861 266.856C30.0174 266.341 30.2819 265.942 30.6795 265.658C31.0771 265.374 31.5936 265.232 32.2291 265.232C32.7545 265.232 33.2 265.331 33.5656 265.53C33.9348 265.725 34.1958 266.009 34.3484 266.382C34.4194 266.549 34.4656 266.735 34.4869 266.941C34.5082 267.147 34.5188 267.357 34.5188 267.57V271.143H33.8212V269.7L34.0236 269.785C33.8283 270.278 33.5248 270.654 33.113 270.914C32.7012 271.173 32.2078 271.302 31.6327 271.302ZM31.7232 270.626C32.0888 270.626 32.4083 270.56 32.6817 270.429C32.955 270.298 33.1751 270.118 33.342 269.891C33.5088 269.66 33.6171 269.401 33.6668 269.114C33.7094 268.929 33.7325 268.727 33.736 268.507C33.7396 268.283 33.7414 268.116 33.7414 268.006L34.0396 268.161C33.7733 268.196 33.484 268.232 33.1716 268.267C32.8627 268.303 32.5574 268.343 32.2557 268.39C31.9575 268.436 31.6877 268.491 31.4463 268.555C31.283 268.601 31.125 268.666 30.9724 268.752C30.8197 268.833 30.6937 268.943 30.5943 269.082C30.4984 269.22 30.4505 269.392 30.4505 269.598C30.4505 269.765 30.4913 269.927 30.573 270.083C30.6582 270.239 30.7931 270.369 30.9777 270.472C31.1658 270.575 31.4143 270.626 31.7232 270.626ZM37.9765 273.858C37.6818 273.858 37.3907 273.814 37.1032 273.725C36.8192 273.64 36.5565 273.503 36.3151 273.315C36.0737 273.131 35.8713 272.889 35.708 272.591L36.4163 272.197C36.576 272.516 36.7997 272.745 37.0872 272.884C37.3783 273.026 37.6747 273.097 37.9765 273.097C38.3918 273.097 38.7273 273.019 38.9829 272.863C39.2421 272.71 39.4302 272.483 39.5474 272.181C39.6645 271.879 39.7213 271.503 39.7178 271.052V269.518H39.8083V265.392H40.5059V271.063C40.5059 271.226 40.5005 271.382 40.4899 271.531C40.4828 271.684 40.4668 271.833 40.442 271.979C40.3745 272.408 40.2343 272.761 40.0213 273.038C39.8118 273.315 39.5349 273.521 39.1906 273.656C38.8498 273.791 38.4451 273.858 37.9765 273.858ZM37.9232 271.302C37.3872 271.302 36.9292 271.169 36.5494 270.903C36.1695 270.633 35.8784 270.269 35.6761 269.811C35.4737 269.353 35.3726 268.837 35.3726 268.262C35.3726 267.69 35.472 267.175 35.6708 266.718C35.8731 266.26 36.1624 265.897 36.5387 265.631C36.915 265.365 37.3659 265.232 37.8913 265.232C38.4309 265.232 38.8853 265.363 39.2545 265.626C39.6237 265.889 39.9024 266.249 40.0905 266.707C40.2822 267.161 40.3781 267.68 40.3781 268.262C40.3781 268.833 40.284 269.35 40.0958 269.811C39.9077 270.269 39.6308 270.633 39.2651 270.903C38.8995 271.169 38.4522 271.302 37.9232 271.302ZM38.0031 270.573C38.4114 270.573 38.7486 270.473 39.0149 270.275C39.2811 270.076 39.4799 269.802 39.6113 269.455C39.7426 269.103 39.8083 268.706 39.8083 268.262C39.8083 267.811 39.7426 267.413 39.6113 267.069C39.4799 266.721 39.2811 266.449 39.0149 266.254C38.7522 266.059 38.4202 265.961 38.0191 265.961C37.6073 265.961 37.2665 266.063 36.9967 266.265C36.7269 266.467 36.5263 266.742 36.395 267.09C36.2672 267.438 36.2033 267.829 36.2033 268.262C36.2033 268.698 36.2689 269.092 36.4003 269.444C36.5352 269.792 36.7358 270.067 37.002 270.269C37.2683 270.472 37.602 270.573 38.0031 270.573ZM44.2152 271.302C43.6543 271.302 43.168 271.178 42.7562 270.93C42.3479 270.681 42.0302 270.331 41.803 269.881C41.5758 269.43 41.4622 268.901 41.4622 268.294C41.4622 267.665 41.574 267.122 41.7977 266.664C42.0213 266.206 42.3355 265.853 42.7402 265.605C43.1484 265.356 43.6295 265.232 44.1833 265.232C44.7513 265.232 45.2358 265.363 45.637 265.626C46.0381 265.885 46.3417 266.258 46.5476 266.744C46.7535 267.23 46.8475 267.811 46.8298 268.485H46.031V268.209C46.0168 267.463 45.8553 266.9 45.5465 266.52C45.2412 266.141 44.7939 265.951 44.2046 265.951C43.5869 265.951 43.1129 266.151 42.7828 266.552C42.4562 266.954 42.2929 267.525 42.2929 268.267C42.2929 268.991 42.4562 269.554 42.7828 269.955C43.1129 270.353 43.5798 270.552 44.1833 270.552C44.5951 270.552 44.9536 270.457 45.2589 270.269C45.5678 270.078 45.8109 269.802 45.9884 269.444L46.718 269.726C46.4908 270.227 46.1553 270.615 45.7115 270.892C45.2713 271.166 44.7726 271.302 44.2152 271.302ZM42.016 268.485V267.83H46.4091V268.485H42.016ZM49.9445 271.297C49.27 271.297 48.7144 271.151 48.2778 270.86C47.8447 270.569 47.5784 270.165 47.479 269.646L48.2778 269.513C48.363 269.84 48.5565 270.101 48.8582 270.296C49.1635 270.488 49.5398 270.583 49.9871 270.583C50.4238 270.583 50.7681 270.493 51.0202 270.312C51.2722 270.127 51.3982 269.877 51.3982 269.561C51.3982 269.384 51.3574 269.24 51.2758 269.13C51.1977 269.016 51.0361 268.911 50.7912 268.816C50.5462 268.72 50.1806 268.606 49.6942 268.475C49.1724 268.333 48.7641 268.191 48.4695 268.049C48.1748 267.907 47.9654 267.743 47.8411 267.559C47.7169 267.371 47.6548 267.142 47.6548 266.872C47.6548 266.545 47.7471 266.26 47.9317 266.015C48.1163 265.766 48.3719 265.574 48.6985 265.44C49.0251 265.301 49.4049 265.232 49.838 265.232C50.2711 265.232 50.6581 265.303 50.9989 265.445C51.3432 265.583 51.6201 265.779 51.8296 266.031C52.039 266.283 52.1633 266.576 52.2023 266.909L51.4036 267.053C51.3503 266.716 51.1817 266.449 50.8977 266.254C50.6172 266.055 50.2605 265.952 49.8274 265.945C49.4191 265.935 49.0872 266.013 48.8316 266.18C48.576 266.343 48.4482 266.561 48.4482 266.835C48.4482 266.987 48.4943 267.119 48.5866 267.229C48.6789 267.335 48.8458 267.436 49.0872 267.532C49.3321 267.628 49.68 267.733 50.1309 267.846C50.6598 267.981 51.0752 268.123 51.3769 268.272C51.6787 268.422 51.8935 268.597 52.0213 268.8C52.1491 269.002 52.213 269.252 52.213 269.55C52.213 270.094 52.0106 270.521 51.6059 270.834C51.2048 271.143 50.651 271.297 49.9445 271.297Z" fill="white"/>
<path d="M3.40801 423.993C2.87196 423.993 2.38916 423.904 1.95961 423.727C1.53361 423.546 1.18039 423.29 0.899931 422.96C0.623031 422.63 0.441981 422.238 0.356781 421.783L1.15553 421.65C1.28334 422.147 1.55314 422.538 1.96494 422.822C2.37673 423.102 2.86841 423.242 3.43996 423.242C3.81626 423.242 4.15351 423.184 4.45171 423.067C4.74991 422.946 4.98421 422.776 5.15461 422.555C5.32501 422.335 5.41021 422.074 5.41021 421.773C5.41021 421.574 5.37471 421.405 5.30371 421.267C5.23271 421.125 5.13864 421.008 5.02148 420.915C4.90433 420.823 4.77654 420.747 4.63809 420.686C4.49963 420.623 4.36473 420.571 4.23338 420.532L2.28976 419.952C2.05546 419.884 1.83891 419.799 1.64011 419.696C1.44131 419.589 1.26736 419.463 1.11826 419.318C0.972706 419.169 0.859106 418.995 0.777456 418.796C0.695806 418.597 0.654981 418.37 0.654981 418.114C0.654981 417.681 0.768581 417.307 0.995781 416.991C1.22299 416.675 1.53361 416.432 1.92766 416.261C2.32171 416.091 2.77078 416.008 3.27488 416.011C3.78609 416.011 4.24226 416.102 4.64341 416.283C5.04811 416.464 5.38181 416.723 5.64451 417.06C5.90721 417.394 6.08116 417.79 6.16636 418.248L5.34631 418.397C5.29306 418.063 5.17059 417.774 4.97889 417.529C4.78719 417.284 4.54224 417.096 4.24404 416.964C3.94939 416.829 3.62456 416.76 3.26956 416.757C2.92521 416.757 2.61814 416.815 2.34833 416.932C2.08209 417.046 1.87086 417.202 1.71466 417.401C1.55846 417.6 1.48036 417.827 1.48036 418.082C1.48036 418.342 1.55136 418.549 1.69336 418.706C1.83891 418.862 2.01641 418.984 2.22586 419.073C2.43886 419.162 2.64476 419.234 2.84356 419.291L4.34521 419.733C4.50141 419.776 4.68423 419.838 4.89368 419.92C5.10668 419.998 5.31259 420.111 5.51139 420.26C5.71373 420.406 5.88058 420.598 6.01194 420.836C6.14328 421.073 6.20896 421.375 6.20896 421.741C6.20896 422.096 6.13796 422.413 5.99596 422.694C5.85751 422.974 5.66049 423.21 5.40489 423.402C5.15284 423.594 4.85641 423.739 4.51561 423.839C4.17836 423.942 3.80916 423.993 3.40801 423.993ZM10.2262 423.833C9.90321 423.901 9.58371 423.928 9.26776 423.913C8.95536 423.899 8.67491 423.832 8.42641 423.711C8.18146 423.59 7.99508 423.402 7.86728 423.147C7.76433 422.934 7.70753 422.719 7.69688 422.502C7.68978 422.282 7.68623 422.032 7.68623 421.751V416.485H8.46368V421.719C8.46368 421.961 8.46546 422.163 8.46901 422.327C8.47611 422.486 8.51338 422.628 8.58083 422.753C8.70863 422.99 8.91098 423.132 9.18788 423.179C9.46833 423.225 9.81446 423.214 10.2262 423.147V423.833ZM6.45616 418.753V418.082H10.2262V418.753H6.45616ZM11.1463 423.833V418.082H11.8492V419.467L11.7108 419.286C11.7747 419.116 11.8581 418.959 11.961 418.817C12.064 418.672 12.1758 418.553 12.2965 418.461C12.4456 418.329 12.6196 418.23 12.8184 418.162C13.0172 418.091 13.2177 418.051 13.4201 418.04C13.6224 418.026 13.807 418.04 13.9739 418.082V418.817C13.7644 418.764 13.5355 418.752 13.287 418.78C13.0385 418.808 12.8095 418.908 12.6 419.078C12.4083 419.227 12.2646 419.407 12.1687 419.616C12.0729 419.822 12.009 420.042 11.977 420.276C11.9451 420.507 11.9291 420.736 11.9291 420.963V423.833H11.1463ZM17.1006 423.993C16.5397 423.993 16.0533 423.869 15.6415 423.62C15.2333 423.372 14.9155 423.022 14.6883 422.571C14.4611 422.121 14.3475 421.592 14.3475 420.985C14.3475 420.356 14.4594 419.813 14.683 419.355C14.9067 418.897 15.2208 418.544 15.6255 418.295C16.0338 418.047 16.5148 417.923 17.0686 417.923C17.6366 417.923 18.1212 418.054 18.5223 418.317C18.9235 418.576 19.227 418.949 19.4329 419.435C19.6388 419.921 19.7329 420.502 19.7151 421.176H18.9164V420.899C18.9022 420.154 18.7407 419.591 18.4318 419.211C18.1265 418.832 17.6792 418.642 17.0899 418.642C16.4722 418.642 15.9983 418.842 15.6681 419.243C15.3415 419.644 15.1782 420.216 15.1782 420.958C15.1782 421.682 15.3415 422.245 15.6681 422.646C15.9983 423.044 16.4651 423.242 17.0686 423.242C17.4804 423.242 17.839 423.148 18.1443 422.96C18.4531 422.768 18.6963 422.493 18.8738 422.135L19.6033 422.417C19.3761 422.918 19.0406 423.306 18.5969 423.583C18.1567 423.857 17.6579 423.993 17.1006 423.993ZM14.9013 421.176V420.521H19.2945V421.176H14.9013ZM22.2253 423.993C21.7922 423.993 21.4283 423.915 21.1337 423.759C20.8426 423.603 20.6243 423.395 20.4787 423.136C20.3332 422.877 20.2604 422.595 20.2604 422.289C20.2604 421.977 20.3225 421.711 20.4468 421.49C20.5746 421.267 20.7467 421.084 20.9633 420.942C21.1834 420.8 21.4372 420.692 21.7248 420.617C22.0159 420.546 22.3371 420.484 22.6886 420.431C23.0436 420.374 23.3897 420.326 23.727 420.287C24.0678 420.244 24.366 420.204 24.6216 420.165L24.3447 420.335C24.3553 419.767 24.2453 419.346 24.0145 419.073C23.7838 418.8 23.3826 418.663 22.8111 418.663C22.417 418.663 22.0833 418.752 21.81 418.929C21.5402 419.107 21.3502 419.387 21.2402 419.771L20.4787 419.547C20.6101 419.032 20.8745 418.633 21.2721 418.349C21.6697 418.065 22.1863 417.923 22.8217 417.923C23.3471 417.923 23.7926 418.022 24.1583 418.221C24.5275 418.416 24.7884 418.7 24.9411 419.073C25.0121 419.24 25.0582 419.426 25.0795 419.632C25.1008 419.838 25.1115 420.047 25.1115 420.26V423.833H24.4139V422.39L24.6162 422.476C24.421 422.969 24.1175 423.345 23.7057 423.605C23.2939 423.864 22.8004 423.993 22.2253 423.993ZM22.3158 423.317C22.6815 423.317 23.001 423.251 23.2743 423.12C23.5477 422.989 23.7678 422.809 23.9346 422.582C24.1015 422.351 24.2098 422.092 24.2595 421.805C24.3021 421.62 24.3251 421.418 24.3287 421.198C24.3322 420.974 24.334 420.807 24.334 420.697L24.6322 420.851C24.366 420.887 24.0766 420.922 23.7642 420.958C23.4554 420.993 23.1501 421.034 22.8483 421.08C22.5501 421.127 22.2803 421.182 22.0389 421.246C21.8756 421.292 21.7177 421.357 21.565 421.443C21.4124 421.524 21.2863 421.634 21.1869 421.773C21.0911 421.911 21.0432 422.083 21.0432 422.289C21.0432 422.456 21.084 422.618 21.1656 422.774C21.2508 422.93 21.3857 423.06 21.5703 423.163C21.7585 423.265 22.007 423.317 22.3158 423.317ZM33.1433 423.833L33.1486 420.058C33.1486 419.614 33.0244 419.266 32.7759 419.014C32.5309 418.759 32.2185 418.631 31.8387 418.631C31.6221 418.631 31.4109 418.681 31.205 418.78C30.9991 418.879 30.8287 419.039 30.6938 419.259C30.5624 419.479 30.4968 419.767 30.4968 420.122L30.0335 419.989C30.0228 419.577 30.1027 419.217 30.2731 418.908C30.4471 418.599 30.6849 418.359 30.9867 418.189C31.292 418.015 31.6363 417.928 32.0197 417.928C32.5984 417.928 33.0616 418.107 33.4095 418.466C33.7574 418.821 33.9314 419.302 33.9314 419.909L33.9261 423.833H33.1433ZM26.2794 423.833V418.082H26.9823V419.499H27.0675V423.833H26.2794ZM29.7193 423.833L29.7246 420.111C29.7246 419.653 29.6022 419.293 29.3572 419.03C29.1158 418.764 28.7963 418.631 28.3987 418.631C28.0011 418.631 27.6798 418.768 27.4349 419.041C27.1899 419.311 27.0675 419.671 27.0675 420.122L26.5989 419.866C26.5989 419.497 26.6858 419.167 26.8598 418.876C27.0337 418.581 27.2716 418.351 27.5733 418.184C27.8751 418.013 28.2177 417.928 28.6011 417.928C28.9667 417.928 29.2915 418.006 29.5755 418.162C29.8631 418.319 30.0885 418.546 30.2518 418.844C30.4151 419.142 30.4968 419.504 30.4968 419.93L30.4914 423.833H29.7193ZM37.2452 423.988C36.5707 423.988 36.0151 423.842 35.5785 423.551C35.1454 423.26 34.8791 422.855 34.7797 422.337L35.5785 422.204C35.6637 422.531 35.8572 422.792 36.1589 422.987C36.4642 423.179 36.8405 423.274 37.2878 423.274C37.7245 423.274 38.0688 423.184 38.3209 423.003C38.5729 422.818 38.6989 422.568 38.6989 422.252C38.6989 422.074 38.6581 421.931 38.5765 421.821C38.4984 421.707 38.3368 421.602 38.0919 421.506C37.8469 421.411 37.4813 421.297 36.9949 421.166C36.4731 421.024 36.0648 420.882 35.7702 420.74C35.4755 420.598 35.2661 420.434 35.1418 420.25C35.0176 420.062 34.9555 419.833 34.9555 419.563C34.9555 419.236 35.0478 418.95 35.2324 418.706C35.417 418.457 35.6726 418.265 35.9992 418.13C36.3258 417.992 36.7056 417.923 37.1387 417.923C37.5718 417.923 37.9588 417.994 38.2996 418.136C38.6439 418.274 38.9208 418.469 39.1303 418.721C39.3397 418.974 39.464 419.266 39.503 419.6L38.7043 419.744C38.651 419.407 38.4824 419.14 38.1984 418.945C37.9179 418.746 37.5612 418.643 37.1281 418.636C36.7198 418.626 36.3879 418.704 36.1323 418.871C35.8767 419.034 35.7489 419.252 35.7489 419.526C35.7489 419.678 35.795 419.81 35.8873 419.92C35.9796 420.026 36.1465 420.127 36.3879 420.223C36.6328 420.319 36.9807 420.424 37.4316 420.537C37.9605 420.672 38.3759 420.814 38.6776 420.963C38.9794 421.112 39.1942 421.288 39.322 421.49C39.4498 421.693 39.5137 421.943 39.5137 422.241C39.5137 422.784 39.3113 423.212 38.9066 423.525C38.5055 423.833 37.9517 423.988 37.2452 423.988Z" fill="white"/>
<path d="M606.29 176.985H245.711C241.51 176.985 238.104 180.391 238.104 184.592V316.957C238.104 321.158 241.51 324.564 245.711 324.564H606.29C610.491 324.564 613.897 321.158 613.897 316.957V184.592C613.897 180.391 610.491 176.985 606.29 176.985Z" stroke="#00FF99" stroke-width="1.52143" stroke-dasharray="6.09 6.09"/>
<path d="M43.3335 44.5H191.691C195.892 44.5 199.298 47.9058 199.298 52.1071V137.5V222.893C199.298 227.094 202.704 230.5 206.905 230.5H238" stroke="#DEDEDE" stroke-width="1.52143"/>
<path d="M96.5 44.5H191.691C195.892 44.5 199.298 47.9058 199.298 52.1071V137.5V222.893C199.298 227.094 202.704 230.5 206.905 230.5H238" stroke="#DEDEDE" stroke-width="1.52143"/>
<path d="M150 44.5H191.691C195.892 44.5 199.298 47.9058 199.298 52.1071V137.5V222.893C199.298 227.094 202.704 230.5 206.905 230.5H238" stroke="#DEDEDE" stroke-width="1.52143"/>
<path d="M43.3335 98.5H191.691C195.892 98.5 199.298 101.906 199.298 106.107V164.5V222.893C199.298 227.094 202.704 230.5 206.905 230.5H238" stroke="#DEDEDE" stroke-width="1.52143"/>
<path d="M96.5 98.5H191.691C195.892 98.5 199.298 101.906 199.298 106.107V164.5V222.893C199.298 227.094 202.704 230.5 206.905 230.5H238" stroke="#DEDEDE" stroke-width="1.52143"/>
<path d="M150 98.5H191.691C195.892 98.5 199.298 101.906 199.298 106.107V164.5V222.893C199.298 227.094 202.704 230.5 206.905 230.5H238" stroke="#DEDEDE" stroke-width="1.52143"/>
<path d="M685.403 71.2461H660.3C656.098 71.2461 652.693 74.6519 652.693 78.8532V150.741V222.628C652.693 226.83 649.287 230.235 645.085 230.235H613.896" stroke="#DEDEDE" stroke-width="1.52143"/>
<path d="M43.3335 198.5H180.451C184.652 198.5 188.058 201.906 188.058 206.107V234.893C188.058 239.094 191.464 242.5 195.665 242.5H238" stroke="#DEDEDE" stroke-width="1.52143"/>
<path d="M96.5 198.5H180.451C184.652 198.5 188.058 201.906 188.058 206.107V234.893C188.058 239.094 191.464 242.5 195.665 242.5H238" stroke="#DEDEDE" stroke-width="1.52143"/>
<path d="M150 198.5H180.451C184.652 198.5 188.058 201.906 188.058 206.107V234.893C188.058 239.094 191.464 242.5 195.665 242.5H238" stroke="#DEDEDE" stroke-width="1.52143"/>
<path d="M685.403 202.089H671.472C667.271 202.089 663.865 205.495 663.865 209.696V234.8C663.865 239.001 660.459 242.407 656.258 242.407H613.896" stroke="#DEDEDE" stroke-width="1.52143"/>
<path d="M43.3335 456.168H191.7C195.902 456.168 199.308 452.762 199.308 448.561V362.6V276.639C199.308 272.438 202.713 269.032 206.915 269.032H238.104" stroke="#DEDEDE" stroke-width="1.52143"/>
<path d="M96.5 456.168H191.7C195.902 456.168 199.308 452.762 199.308 448.561V362.6V276.639C199.308 272.438 202.713 269.032 206.915 269.032H238.104" stroke="#DEDEDE" stroke-width="1.52143"/>
<path d="M150 456.168H191.7C195.902 456.168 199.308 452.762 199.308 448.561V362.6V276.639C199.308 272.438 202.713 269.032 206.915 269.032H238.104" stroke="#DEDEDE" stroke-width="1.52143"/>
<path d="M685.403 456.168H660.3C656.098 456.168 652.693 452.762 652.693 448.561V362.6V276.639C652.693 272.438 649.287 269.032 645.085 269.032H613.896" stroke="#DEDEDE" stroke-width="1.52143"/>
<path d="M43.3335 303.833H180.546C184.747 303.833 188.153 300.428 188.153 296.226V262.107C188.153 257.906 191.559 254.5 195.76 254.5H238" stroke="#DEDEDE" stroke-width="1.52143"/>
<path d="M96.5 303.833H180.546C184.747 303.833 188.153 300.428 188.153 296.226V262.107C188.153 257.906 191.559 254.5 195.76 254.5H238" stroke="#DEDEDE" stroke-width="1.52143"/>
<path d="M150 303.833H180.546C184.747 303.833 188.153 300.428 188.153 296.226V262.107C188.153 257.906 191.559 254.5 195.76 254.5H238" stroke="#DEDEDE" stroke-width="1.52143"/>
<path d="M43.3335 357.833H180.546C184.747 357.833 188.153 354.428 188.153 350.226V262.107C188.153 257.906 191.559 254.5 195.76 254.5H238" stroke="#DEDEDE" stroke-width="1.52143"/>
<path d="M96.5 357.833H180.546C184.747 357.833 188.153 354.428 188.153 350.226V262.107C188.153 257.906 191.559 254.5 195.76 254.5H238" stroke="#DEDEDE" stroke-width="1.52143"/>
<path d="M150 357.833H180.545C184.747 357.833 188.153 354.428 188.153 350.226V262.107C188.153 257.906 191.558 254.5 195.76 254.5H238" stroke="#DEDEDE" stroke-width="1.52143"/>
<path d="M685.403 326.846H671.472C667.271 326.846 663.865 323.44 663.865 319.239V262.185C663.865 257.984 660.459 254.578 656.258 254.578H613.896" stroke="#DEDEDE" stroke-width="1.52143"/>
<path d="M35.7262 23.1665H7.60714C3.40583 23.1665 0 26.5723 0 30.7736V58.8927C0 63.094 3.40583 66.4998 7.60714 66.4998H35.7262C39.9275 66.4998 43.3333 63.094 43.3333 58.8927V30.7736C43.3333 26.5723 39.9275 23.1665 35.7262 23.1665Z" fill="#0C4A3F"/>
<path d="M35.7262 281.833H7.60714C3.40583 281.833 0 285.239 0 289.44V317.559C0 321.76 3.40583 325.166 7.60714 325.166H35.7262C39.9275 325.166 43.3333 321.76 43.3333 317.559V289.44C43.3333 285.239 39.9275 281.833 35.7262 281.833Z" fill="#0C4A3F"/>
<path d="M35.7262 76.5H7.60714C3.40583 76.5 0 79.9058 0 84.1071V112.226C0 116.427 3.40583 119.833 7.60714 119.833H35.7262C39.9275 119.833 43.3333 116.427 43.3333 112.226V84.1071C43.3333 79.9058 39.9275 76.5 35.7262 76.5Z" fill="#0C4A3F"/>
<path d="M35.7262 335.167H7.60714C3.40583 335.167 0 338.573 0 342.774V370.893C0 375.094 3.40583 378.5 7.60714 378.5H35.7262C39.9275 378.5 43.3333 375.094 43.3333 370.893V342.774C43.3333 338.573 39.9275 335.167 35.7262 335.167Z" fill="#0C4A3F"/>
<path d="M35.7262 175.833H7.60714C3.40583 175.833 0 179.239 0 183.44V211.559C0 215.76 3.40583 219.166 7.60714 219.166H35.7262C39.9275 219.166 43.3333 215.76 43.3333 211.559V183.44C43.3333 179.239 39.9275 175.833 35.7262 175.833Z" fill="#0C4A3F"/>
<path d="M89.0597 76.5H60.9406C56.7393 76.5 53.3335 79.9058 53.3335 84.1071V112.226C53.3335 116.427 56.7393 119.833 60.9406 119.833H89.0597C93.261 119.833 96.6668 116.427 96.6668 112.226V84.1071C96.6668 79.9058 93.261 76.5 89.0597 76.5Z" fill="#0C4A3F"/>
<path d="M89.0597 335.167H60.9406C56.7393 335.167 53.3335 338.573 53.3335 342.774V370.893C53.3335 375.094 56.7393 378.5 60.9406 378.5H89.0597C93.261 378.5 96.6668 375.094 96.6668 370.893V342.774C96.6668 338.573 93.261 335.167 89.0597 335.167Z" fill="#0C4A3F"/>
<path d="M89.0597 175.833H60.9406C56.7393 175.833 53.3335 179.239 53.3335 183.44V211.559C53.3335 215.76 56.7393 219.166 60.9406 219.166H89.0597C93.261 219.166 96.6668 215.76 96.6668 211.559V183.44C96.6668 179.239 93.261 175.833 89.0597 175.833Z" fill="#0C4A3F"/>
<path d="M35.7262 434.5H7.60714C3.40583 434.5 0 437.906 0 442.107V470.226C0 474.427 3.40583 477.833 7.60714 477.833H35.7262C39.9275 477.833 43.3333 474.427 43.3333 470.226V442.107C43.3333 437.906 39.9275 434.5 35.7262 434.5Z" fill="#0C4A3F"/>
<path d="M89.0597 434.5H60.9406C56.7393 434.5 53.3335 437.906 53.3335 442.107V470.226C53.3335 474.427 56.7393 477.833 60.9406 477.833H89.0597C93.261 477.833 96.6668 474.427 96.6668 470.226V442.107C96.6668 437.906 93.261 434.5 89.0597 434.5Z" fill="#0C4A3F"/>
<path d="M142.393 76.5H114.274C110.073 76.5 106.667 79.9058 106.667 84.1071V112.226C106.667 116.427 110.073 119.833 114.274 119.833H142.393C146.594 119.833 150 116.427 150 112.226V84.1071C150 79.9058 146.594 76.5 142.393 76.5Z" fill="#0C4A3F"/>
<path d="M142.393 335.167H114.274C110.073 335.167 106.667 338.573 106.667 342.774V370.893C106.667 375.094 110.073 378.5 114.274 378.5H142.393C146.594 378.5 150 375.094 150 370.893V342.774C150 338.573 146.594 335.167 142.393 335.167Z" fill="#0C4A3F"/>
<path d="M142.393 175.833H114.274C110.073 175.833 106.667 179.239 106.667 183.44V211.559C106.667 215.76 110.073 219.166 114.274 219.166H142.393C146.594 219.166 150 215.76 150 211.559V183.44C150 179.239 146.594 175.833 142.393 175.833Z" fill="#0C4A3F"/>
<path d="M142.393 434.5H114.274C110.073 434.5 106.667 437.906 106.667 442.107V470.226C106.667 474.427 110.073 477.833 114.274 477.833H142.393C146.594 477.833 150 474.427 150 470.226V442.107C150 437.906 146.594 434.5 142.393 434.5Z" fill="#0C4A3F"/>
<path d="M89.0597 23.1665H60.9406C56.7393 23.1665 53.3335 26.5723 53.3335 30.7736V58.8927C53.3335 63.094 56.7393 66.4998 60.9406 66.4998H89.0597C93.261 66.4998 96.6668 63.094 96.6668 58.8927V30.7736C96.6668 26.5723 93.261 23.1665 89.0597 23.1665Z" fill="#0C4A3F"/>
<path d="M89.0597 281.833H60.9406C56.7393 281.833 53.3335 285.239 53.3335 289.44V317.559C53.3335 321.76 56.7393 325.166 60.9406 325.166H89.0597C93.261 325.166 96.6668 321.76 96.6668 317.559V289.44C96.6668 285.239 93.261 281.833 89.0597 281.833Z" fill="#0C4A3F"/>
<path d="M142.393 23.1665H114.274C110.073 23.1665 106.667 26.5723 106.667 30.7736V58.8927C106.667 63.094 110.073 66.4998 114.274 66.4998H142.393C146.594 66.4998 150 63.094 150 58.8927V30.7736C150 26.5723 146.594 23.1665 142.393 23.1665Z" fill="#0C4A3F"/>
<path d="M142.393 281.833H114.274C110.073 281.833 106.667 285.239 106.667 289.44V317.559C106.667 321.76 110.073 325.166 114.274 325.166H142.393C146.594 325.166 150 321.76 150 317.559V289.44C150 285.239 146.594 281.833 142.393 281.833Z" fill="#0C4A3F"/>
<path d="M349.168 205.892H274.618C270.417 205.892 267.011 209.298 267.011 213.499V288.049C267.011 292.25 270.417 295.656 274.618 295.656H349.168C353.369 295.656 356.775 292.25 356.775 288.049V213.499C356.775 209.298 353.369 205.892 349.168 205.892Z" fill="#0C4A3F"/>
<path d="M577.382 205.892H502.832C498.631 205.892 495.225 209.298 495.225 213.499V288.049C495.225 292.25 498.631 295.656 502.832 295.656H577.382C581.583 295.656 584.989 292.25 584.989 288.049V213.499C584.989 209.298 581.583 205.892 577.382 205.892Z" fill="#0C4A3F"/>
<path d="M462 245H390V256H462V245Z" fill="url(#pattern0)"/>
<path d="M33.3335 32.5H9.3335V57.1667H33.3335V32.5Z" fill="url(#pattern1)"/>
<path d="M34.6665 291.833H10.6665V318.5H34.6665V291.833Z" fill="url(#pattern2)"/>
<path d="M34 86.5H10V110.5H34V86.5Z" fill="url(#pattern3)"/>
<path d="M34.0002 343.833H11.3335V369.833H34.0002V343.833Z" fill="url(#pattern4)"/>
<path d="M35.9998 189.167H6.6665V205.834H35.9998V189.167Z" fill="url(#pattern5)"/>
<path d="M82 83.8335H68V112.5H82V83.8335Z" fill="url(#pattern6)"/>
<path d="M92.6668 341.167H57.3335V373.167H92.6668V341.167Z" fill="url(#pattern7)"/>
<path d="M87.3332 185.833H62.6665V209.166H87.3332V185.833Z" fill="url(#pattern8)"/>
<path d="M36.6667 440.5H6V471.167H36.6667V440.5Z" fill="url(#pattern9)"/>
<path d="M88 443.167H62V469.167H88V443.167Z" fill="url(#pattern10)"/>
<path d="M145.333 81.1665H111.333V115.167H145.333V81.1665Z" fill="url(#pattern11)"/>
<path d="M145.333 81.1665H111.333V115.167H145.333V81.1665Z" fill="url(#pattern12)"/>
<path d="M140.249 345.167H116.667V368.749H140.249V345.167Z" fill="url(#pattern13)"/>
<path d="M142 186.5H115.333V207.833H142V186.5Z" fill="url(#pattern14)"/>
<path d="M140.667 444.5H116V468.5H140.667V444.5Z" fill="url(#pattern15)"/>
<path d="M88.6665 31.1665H60.6665V59.1665H88.6665V31.1665Z" fill="url(#pattern16)"/>
<path d="M86.6668 290.5H63.3335V316.5H86.6668V290.5Z" fill="url(#pattern17)"/>
<path d="M140.667 31.8335H116.667V57.8335H140.667V31.8335Z" fill="url(#pattern18)"/>
<path d="M136.667 288.5H120.667V318.5H136.667V288.5Z" fill="url(#pattern19)"/>
<path d="M356.775 227.193H267.011V274.357H356.775V227.193Z" fill="url(#pattern20)"/>
<path d="M565.972 226.432H514.243V274.357H565.972V226.432Z" fill="url(#pattern21)"/>
<path d="M682.36 456.168C682.36 454.488 683.723 453.125 685.403 453.125C687.084 453.125 688.446 454.488 688.446 456.168C688.446 457.849 687.084 459.211 685.403 459.211C683.723 459.211 682.36 457.849 682.36 456.168Z" fill="#DEDEDE"/>
<path d="M682.36 326.846C682.36 325.166 683.723 323.803 685.403 323.803C687.084 323.803 688.446 325.166 688.446 326.846C688.446 328.527 687.084 329.889 685.403 329.889C683.723 329.889 682.36 328.527 682.36 326.846Z" fill="#DEDEDE"/>
<path d="M682.36 202.089C682.36 200.409 683.723 199.046 685.403 199.046C687.084 199.046 688.446 200.409 688.446 202.089C688.446 203.77 687.084 205.132 685.403 205.132C683.723 205.132 682.36 203.77 682.36 202.089Z" fill="#DEDEDE"/>
<path d="M682.36 71.2462C682.36 69.5657 683.723 68.2034 685.403 68.2034C687.084 68.2034 688.446 69.5657 688.446 71.2462C688.446 72.9268 687.084 74.2891 685.403 74.2891C683.723 74.2891 682.36 72.9268 682.36 71.2462Z" fill="#DEDEDE"/>
<defs>
<pattern id="pattern0" patternContentUnits="objectBoundingBox" width="1" height="1">
<use xlink:href="#image0_1_2" transform="matrix(0.002 0 0 0.0124133 0 -2.60333)"/>
</pattern>
<pattern id="pattern1" patternContentUnits="objectBoundingBox" width="1" height="1">
<use xlink:href="#image1_1_2" transform="matrix(0.00100705 0 0 0.000979832 0 -0.00167389)"/>
</pattern>
<pattern id="pattern2" patternContentUnits="objectBoundingBox" width="1" height="1">
<use xlink:href="#image2_1_2" transform="matrix(0.000542535 0 0 0.000488281 -0.00699869 0)"/>
</pattern>
<pattern id="pattern3" patternContentUnits="objectBoundingBox" width="1" height="1">
<use xlink:href="#image3_1_2" transform="translate(-0.00192431) scale(0.000641437)"/>
</pattern>
<pattern id="pattern4" patternContentUnits="objectBoundingBox" width="1" height="1">
<use xlink:href="#image4_1_2" transform="matrix(0.00382353 0 0 0.00333333 -0.0104412 0)"/>
</pattern>
<pattern id="pattern5" patternContentUnits="objectBoundingBox" width="1" height="1">
<use xlink:href="#image5_1_2" transform="matrix(0.00151515 0 0 0.00266667 -0.00454542 0)"/>
</pattern>
<pattern id="pattern6" patternContentUnits="objectBoundingBox" width="1" height="1">
<use xlink:href="#image6_1_2" transform="scale(0.00302115 0.00144928)"/>
</pattern>
<pattern id="pattern7" patternContentUnits="objectBoundingBox" width="1" height="1">
<use xlink:href="#image7_1_2" transform="matrix(0.000965523 0 0 0.0010661 -0.0122099 0)"/>
</pattern>
<pattern id="pattern8" patternContentUnits="objectBoundingBox" width="1" height="1">
<use xlink:href="#image8_1_2" transform="matrix(0.000442276 0 0 0.00046385 -0.352988 -4.7643e-05)"/>
</pattern>
<pattern id="pattern9" patternContentUnits="objectBoundingBox" width="1" height="1">
<use xlink:href="#image9_1_2" transform="scale(0.00195312)"/>
</pattern>
<pattern id="pattern10" patternContentUnits="objectBoundingBox" width="1" height="1">
<use xlink:href="#image10_1_2" transform="scale(0.00357143)"/>
</pattern>
<pattern id="pattern11" patternContentUnits="objectBoundingBox" width="1" height="1">
<use xlink:href="#image11_1_2" transform="scale(0.000416667)"/>
</pattern>
<pattern id="pattern12" patternContentUnits="objectBoundingBox" width="1" height="1">
<use xlink:href="#image12_1_2" transform="scale(0.000416667)"/>
</pattern>
<pattern id="pattern13" patternContentUnits="objectBoundingBox" width="1" height="1">
<use xlink:href="#image13_1_2" transform="scale(0.00444444)"/>
</pattern>
<pattern id="pattern14" patternContentUnits="objectBoundingBox" width="1" height="1">
<use xlink:href="#image14_1_2" transform="matrix(0.000488281 0 0 0.000610352 0 -0.00231931)"/>
</pattern>
<pattern id="pattern15" patternContentUnits="objectBoundingBox" width="1" height="1">
<use xlink:href="#image15_1_2" transform="matrix(0.00333333 0 0 0.00342593 0 -0.0138889)"/>
</pattern>
<pattern id="pattern16" patternContentUnits="objectBoundingBox" width="1" height="1">
<use xlink:href="#image16_1_2" transform="scale(0.0004)"/>
</pattern>
<pattern id="pattern17" patternContentUnits="objectBoundingBox" width="1" height="1">
<use xlink:href="#image17_1_2" transform="matrix(0.00220264 0 0 0.00197673 0 -0.00604316)"/>
</pattern>
<pattern id="pattern18" patternContentUnits="objectBoundingBox" width="1" height="1">
<use xlink:href="#image18_1_2" transform="matrix(0.000833333 0 0 0.000769231 0 -0.00769231)"/>
</pattern>
<pattern id="pattern19" patternContentUnits="objectBoundingBox" width="1" height="1">
<use xlink:href="#image19_1_2" transform="matrix(0.000854214 0 0 0.000455581 -0.0125285 0)"/>
</pattern>
<pattern id="pattern20" patternContentUnits="objectBoundingBox" width="1" height="1">
<use xlink:href="#image20_1_2" transform="matrix(0.000716813 0 0 0.00136426 -0.00176895 0)"/>
</pattern>
<pattern id="pattern21" patternContentUnits="objectBoundingBox" width="1" height="1">
<use xlink:href="#image21_1_2" transform="matrix(0.00310991 0 0 0.00333913 -0.440129 -0.252174)"/>
</pattern>
</defs>
</svg>
