<svg width="906" height="501" viewBox="0 0 906 501" fill="none" xmlns="http://www.w3.org/2000/svg">
<path d="M43 303.333H234.546C238.747 303.333 242.153 299.928 242.153 295.726V261.607C242.153 257.406 245.559 254 249.76 254H292.001" stroke="#DEDEDE" stroke-width="1.52143"/>
<path d="M43 403H234.46C238.661 403 242.067 399.594 242.067 395.393V261.607C242.067 257.406 245.473 254 249.674 254H292" stroke="#DEDEDE" stroke-width="1.52143"/>
<path d="M43 455.668H245.701C249.902 455.668 253.308 452.262 253.308 448.061V362.1V276.139C253.308 271.938 256.714 268.532 260.915 268.532H292.104" stroke="#DEDEDE" stroke-width="1.52143"/>
<path d="M43 198H234.451C238.653 198 242.058 201.406 242.058 205.607V234.393C242.058 238.594 245.464 242 249.666 242H292.001" stroke="#DEDEDE" stroke-width="1.52143"/>
<path d="M43 44H245.691C249.893 44 253.299 47.4058 253.299 51.6072V137V222.393C253.299 226.594 256.704 230 260.906 230H292.001" stroke="#DEDEDE" stroke-width="1.52143"/>
<path d="M517.275 205.392H442.725C438.524 205.392 435.118 208.798 435.118 212.999V287.549C435.118 291.75 438.524 295.156 442.725 295.156H517.275C521.477 295.156 524.882 291.75 524.882 287.549V212.999C524.882 208.798 521.477 205.392 517.275 205.392Z" fill="#0C4A3F"/>
<path d="M898.393 281.463H754.618C750.417 281.463 747.011 284.869 747.011 289.07V363.62C747.011 367.821 750.417 371.227 754.618 371.227H898.393C902.594 371.227 906 367.821 906 363.62V289.07C906 284.869 902.594 281.463 898.393 281.463Z" fill="#0C4A3F"/>
<path d="M808.502 333V320.04H813.857C813.983 320.04 814.145 320.046 814.343 320.058C814.541 320.064 814.724 320.082 814.892 320.112C815.642 320.226 816.26 320.475 816.746 320.859C817.238 321.243 817.601 321.729 817.835 322.317C818.075 322.899 818.195 323.547 818.195 324.261C818.195 325.317 817.928 326.226 817.394 326.988C816.86 327.744 816.041 328.212 814.937 328.392L814.01 328.473H810.671V333H808.502ZM815.945 333L813.389 327.726L815.594 327.24L818.402 333H815.945ZM810.671 326.448H813.767C813.887 326.448 814.022 326.442 814.172 326.43C814.322 326.418 814.46 326.394 814.586 326.358C814.946 326.268 815.228 326.109 815.432 325.881C815.642 325.653 815.789 325.395 815.873 325.107C815.963 324.819 816.008 324.537 816.008 324.261C816.008 323.985 815.963 323.703 815.873 323.415C815.789 323.121 815.642 322.86 815.432 322.632C815.228 322.404 814.946 322.245 814.586 322.155C814.46 322.119 814.322 322.098 814.172 322.092C814.022 322.08 813.887 322.074 813.767 322.074H810.671V326.448ZM825.245 333.27C824.213 333.27 823.304 333.06 822.518 332.64C821.738 332.22 821.126 331.629 820.682 330.867C820.244 330.105 820.025 329.211 820.025 328.185V320.058L822.221 320.04V328.131C822.221 328.617 822.302 329.052 822.464 329.436C822.632 329.82 822.857 330.147 823.139 330.417C823.421 330.681 823.745 330.882 824.111 331.02C824.477 331.158 824.855 331.227 825.245 331.227C825.647 331.227 826.028 331.158 826.388 331.02C826.754 330.876 827.078 330.672 827.36 330.408C827.642 330.138 827.864 329.811 828.026 329.427C828.188 329.043 828.269 328.611 828.269 328.131V320.04H830.465V328.185C830.465 329.211 830.243 330.105 829.799 330.867C829.361 331.629 828.749 332.22 827.963 332.64C827.183 333.06 826.277 333.27 825.245 333.27ZM832.62 333V320.04H834.573L839.055 329.22L843.537 320.04H845.49V333H843.465V324.693L839.487 333H838.623L834.654 324.693V333H832.62Z" fill="white"/>
<path d="M898.393 410.785H754.618C750.417 410.785 747.011 414.191 747.011 418.392V492.942C747.011 497.144 750.417 500.549 754.618 500.549H898.393C902.594 500.549 906 497.144 906 492.942V418.392C906 414.191 902.594 410.785 898.393 410.785Z" fill="#0C4A3F"/>
<path d="M808.713 462V449.04H810.909L816.921 458.175V449.04H819.117V462H816.921L810.909 452.865V462H808.713ZM821.273 462V449.04H826.628C826.754 449.04 826.916 449.046 827.114 449.058C827.312 449.064 827.495 449.082 827.663 449.112C828.413 449.226 829.031 449.475 829.517 449.859C830.009 450.243 830.372 450.729 830.606 451.317C830.846 451.899 830.966 452.547 830.966 453.261C830.966 453.969 830.846 454.617 830.606 455.205C830.366 455.787 830 456.27 829.508 456.654C829.022 457.038 828.407 457.287 827.663 457.401C827.495 457.425 827.309 457.443 827.105 457.455C826.907 457.467 826.748 457.473 826.628 457.473H823.442V462H821.273ZM823.442 455.448H826.538C826.658 455.448 826.793 455.442 826.943 455.43C827.093 455.418 827.231 455.394 827.357 455.358C827.717 455.268 827.999 455.109 828.203 454.881C828.413 454.653 828.56 454.395 828.644 454.107C828.734 453.819 828.779 453.537 828.779 453.261C828.779 452.985 828.734 452.703 828.644 452.415C828.56 452.121 828.413 451.86 828.203 451.632C827.999 451.404 827.717 451.245 827.357 451.155C827.231 451.119 827.093 451.098 826.943 451.092C826.793 451.08 826.658 451.074 826.538 451.074H823.442V455.448ZM832.409 462V449.04H834.362L838.844 458.22L843.326 449.04H845.279V462H843.254V453.693L839.276 462H838.412L834.443 453.693V462H832.409Z" fill="white"/>
<path d="M3.84982 12.1598C3.08657 12.1598 2.44224 11.9911 1.91684 11.6539C1.39144 11.3131 0.993836 10.8427 0.724036 10.2427C0.454236 9.64279 0.319336 8.95054 0.319336 8.16599C0.319336 7.38144 0.454236 6.68919 0.724036 6.08924C0.993836 5.48929 1.39144 5.02069 1.91684 4.68344C2.44224 4.34264 3.08657 4.17224 3.84982 4.17224C4.74087 4.17224 5.46861 4.40122 6.03306 4.85916C6.59751 5.31356 6.98447 5.92416 7.19392 6.69096L6.39517 6.89864C6.23187 6.29159 5.93899 5.81056 5.51654 5.45556C5.09409 5.10056 4.53852 4.92306 3.84982 4.92306C3.24987 4.92306 2.75109 5.05974 2.35349 5.33309C1.95589 5.60644 1.65591 5.98806 1.45356 6.47796C1.25476 6.96431 1.15181 7.52699 1.14471 8.16599C1.14117 8.80499 1.23879 9.36766 1.43759 9.85401C1.63994 10.3404 1.94169 10.722 2.34284 10.9989C2.74754 11.2722 3.24987 11.4089 3.84982 11.4089C4.53852 11.4089 5.09409 11.2314 5.51654 10.8764C5.93899 10.5179 6.23187 10.0369 6.39517 9.43334L7.19392 9.64101C6.98447 10.4078 6.59751 11.0202 6.03306 11.4781C5.46861 11.9325 4.74087 12.1598 3.84982 12.1598ZM8.26233 12V4.17224H9.0451V12H8.26233ZM12.8301 12.1598C12.2585 12.1598 11.7704 12.0302 11.3657 11.771C10.961 11.5119 10.6504 11.1533 10.4338 10.6954C10.2173 10.2374 10.109 9.71202 10.109 9.11917C10.109 8.51567 10.219 7.98671 10.4391 7.53231C10.6592 7.07791 10.9716 6.72469 11.3763 6.47264C11.7846 6.21704 12.2692 6.08924 12.8301 6.08924C13.4052 6.08924 13.8951 6.21882 14.2998 6.47796C14.708 6.73356 15.0186 7.09034 15.2316 7.54829C15.4482 8.00269 15.5565 8.52632 15.5565 9.11917C15.5565 9.72266 15.4482 10.2534 15.2316 10.7113C15.0151 11.1657 14.7027 11.5207 14.2944 11.7763C13.8862 12.0319 13.3981 12.1598 12.8301 12.1598ZM12.8301 11.4089C13.4691 11.4089 13.9448 11.1977 14.2572 10.7753C14.5696 10.3492 14.7258 9.79721 14.7258 9.11917C14.7258 8.42336 14.5678 7.86956 14.2518 7.45776C13.9394 7.04596 13.4655 6.84006 12.8301 6.84006C12.4005 6.84006 12.0455 6.93769 11.7651 7.13294C11.4882 7.32464 11.2805 7.59267 11.142 7.93702C11.0071 8.27781 10.9397 8.67186 10.9397 9.11917C10.9397 9.81142 11.0994 10.367 11.4189 10.7859C11.7384 11.2012 12.2088 11.4089 12.8301 11.4089ZM18.7173 12.1438C18.373 12.1438 18.0712 12.0905 17.8121 11.984C17.5565 11.8775 17.3382 11.7337 17.1571 11.5527C16.9796 11.3716 16.8358 11.1658 16.7258 10.935C16.6157 10.7007 16.5359 10.454 16.4862 10.1948C16.4365 9.93211 16.4116 9.67119 16.4116 9.41204V6.24899H17.1997V9.18306C17.1997 9.49901 17.2299 9.79189 17.2902 10.0617C17.3506 10.3315 17.4464 10.5676 17.5778 10.7699C17.7127 10.9687 17.8849 11.1231 18.0943 11.2332C18.3073 11.3432 18.5647 11.3983 18.8664 11.3983C19.1433 11.3983 19.3865 11.3504 19.596 11.2545C19.809 11.1586 19.9865 11.022 20.1285 10.8445C20.274 10.6634 20.3841 10.4451 20.4586 10.1895C20.5332 9.93034 20.5704 9.63924 20.5704 9.31619L21.1242 9.43866C21.1242 10.028 21.0213 10.5232 20.8154 10.9244C20.6095 11.3255 20.3255 11.629 19.9634 11.8349C19.6013 12.0408 19.1859 12.1438 18.7173 12.1438ZM20.6503 12V10.5836H20.5704V6.24899H21.3532V12H20.6503ZM24.8597 12.1598C24.3237 12.1598 23.8657 12.0266 23.4859 11.7604C23.106 11.4906 22.8149 11.1267 22.6126 10.6688C22.4102 10.2108 22.3091 9.69427 22.3091 9.11917C22.3091 8.54762 22.4085 8.03287 22.6073 7.57491C22.8096 7.11696 23.0989 6.75486 23.4752 6.48861C23.8515 6.22237 24.3024 6.08924 24.8278 6.08924C25.3674 6.08924 25.8218 6.22059 26.191 6.48329C26.5602 6.74599 26.8389 7.10631 27.027 7.56426C27.2187 8.01866 27.3146 8.53696 27.3146 9.11917C27.3146 9.69071 27.2205 10.2072 27.0323 10.6688C26.8442 11.1267 26.5673 11.4906 26.2016 11.7604C25.836 12.0266 25.3887 12.1598 24.8597 12.1598ZM24.9396 11.4302C25.3479 11.4302 25.6851 11.3308 25.9514 11.132C26.2176 10.9332 26.4164 10.6599 26.5478 10.312C26.6791 9.96052 26.7448 9.56292 26.7448 9.11917C26.7448 8.66831 26.6791 8.27071 26.5478 7.92636C26.4164 7.57846 26.2176 7.30689 25.9514 7.11164C25.6887 6.91639 25.3567 6.81876 24.9556 6.81876C24.5438 6.81876 24.203 6.91994 23.9332 7.12229C23.6634 7.32464 23.4628 7.59976 23.3315 7.94766C23.2037 8.29556 23.1398 8.68606 23.1398 9.11917C23.1398 9.55582 23.2054 9.94987 23.3368 10.3013C23.4717 10.6492 23.6723 10.9243 23.9385 11.1267C24.2048 11.329 24.5385 11.4302 24.9396 11.4302ZM26.7448 12V7.67077H26.6596V4.33199H27.4477V12H26.7448ZM30.6669 4.33199H31.471L29.4262 12H28.6221L30.6669 4.33199ZM35.749 12.1598C34.9858 12.1598 34.3414 11.9911 33.816 11.6539C33.2906 11.3131 32.893 10.8427 32.6232 10.2427C32.3534 9.64279 32.2185 8.95054 32.2185 8.16599C32.2185 7.38144 32.3534 6.68919 32.6232 6.08924C32.893 5.48929 33.2906 5.02069 33.816 4.68344C34.3414 4.34264 34.9858 4.17224 35.749 4.17224C36.5158 4.17224 37.1601 4.34264 37.682 4.68344C38.2074 5.02069 38.605 5.48929 38.8748 6.08924C39.1481 6.68919 39.2848 7.38144 39.2848 8.16599C39.2848 8.95054 39.1481 9.64279 38.8748 10.2427C38.605 10.8427 38.2074 11.3131 37.682 11.6539C37.1601 11.9911 36.5158 12.1598 35.749 12.1598ZM35.749 11.4089C36.349 11.4089 36.8495 11.2722 37.2507 10.9989C37.6518 10.7255 37.9518 10.3457 38.1506 9.85934C38.3529 9.36944 38.4541 8.80499 38.4541 8.16599C38.4541 7.52699 38.3529 6.96431 38.1506 6.47796C37.9518 5.99162 37.6518 5.61177 37.2507 5.33841C36.8495 5.06506 36.349 4.92661 35.749 4.92306C35.1491 4.92306 34.6503 5.05974 34.2527 5.33309C33.8551 5.60644 33.5551 5.98806 33.3528 6.47796C33.154 6.96431 33.0528 7.52699 33.0492 8.16599C33.0457 8.80499 33.1433 9.36766 33.3421 9.85401C33.5445 10.3368 33.8462 10.7167 34.2474 10.9936C34.6485 11.2669 35.1491 11.4054 35.749 11.4089ZM44.2917 12V9.06592C44.2917 8.74642 44.2616 8.45354 44.2012 8.18729C44.1409 7.91749 44.0432 7.68319 43.9083 7.48439C43.777 7.28204 43.6048 7.12584 43.3918 7.01579C43.1824 6.90574 42.9268 6.85071 42.625 6.85071C42.3481 6.85071 42.1032 6.89864 41.8902 6.99449C41.6807 7.09034 41.5032 7.22879 41.3577 7.40984C41.2157 7.58734 41.1074 7.80389 41.0328 8.05949C40.9583 8.31509 40.921 8.60619 40.921 8.93279L40.3672 8.81031C40.3672 8.22101 40.4702 7.72579 40.6761 7.32464C40.882 6.92349 41.166 6.61996 41.5281 6.41407C41.8902 6.20817 42.3055 6.10522 42.7741 6.10522C43.1185 6.10522 43.4184 6.15847 43.674 6.26497C43.9332 6.37146 44.1515 6.51524 44.329 6.69629C44.5101 6.87734 44.6556 7.08501 44.7657 7.31931C44.8757 7.55007 44.9556 7.79679 45.0053 8.05949C45.055 8.31864 45.0798 8.57779 45.0798 8.83694V12H44.2917ZM40.1329 12V6.24899H40.8411V7.66544H40.921V12H40.1329ZM50.7504 12.1598C50.2214 12.1598 49.7741 12.0266 49.4085 11.7604C49.0428 11.4906 48.7659 11.1267 48.5778 10.6688C48.3896 10.2072 48.2956 9.69071 48.2956 9.11917C48.2956 8.53696 48.3896 8.01866 48.5778 7.56426C48.7695 7.10631 49.0499 6.74599 49.4191 6.48329C49.7883 6.22059 50.2427 6.08924 50.7823 6.08924C51.3077 6.08924 51.7586 6.22237 52.1349 6.48861C52.5112 6.75486 52.7987 7.11696 52.9975 7.57491C53.1999 8.03287 53.3011 8.54762 53.3011 9.11917C53.3011 9.69427 53.1999 10.2108 52.9975 10.6688C52.7952 11.1267 52.5041 11.4906 52.1242 11.7604C51.7444 12.0266 51.2864 12.1598 50.7504 12.1598ZM48.1624 14.556V6.24899H48.8653V10.5782H48.9505V14.556H48.1624ZM50.6705 11.4302C51.0717 11.4302 51.4054 11.329 51.6716 11.1267C51.9379 10.9243 52.1367 10.6492 52.268 10.3013C52.4029 9.94987 52.4704 9.55582 52.4704 9.11917C52.4704 8.68606 52.4047 8.29556 52.2733 7.94766C52.142 7.59976 51.9414 7.32464 51.6716 7.12229C51.4054 6.91994 51.0663 6.81876 50.6545 6.81876C50.2534 6.81876 49.9197 6.91639 49.6534 7.11164C49.3907 7.30689 49.1937 7.57846 49.0624 7.92636C48.931 8.27071 48.8653 8.66831 48.8653 9.11917C48.8653 9.56292 48.931 9.96052 49.0624 10.312C49.1937 10.6599 49.3925 10.9332 49.6588 11.132C49.925 11.3308 50.2623 11.4302 50.6705 11.4302ZM54.2574 12V6.24899H54.9603V7.63349L54.8218 7.45244C54.8857 7.28204 54.9692 7.12584 55.0721 6.98384C55.1751 6.83829 55.2869 6.71936 55.4076 6.62706C55.5567 6.49572 55.7306 6.39632 55.9294 6.32886C56.1282 6.25786 56.3288 6.21704 56.5312 6.20639C56.7335 6.19219 56.9181 6.20639 57.085 6.24899V6.98384C56.8755 6.93059 56.6465 6.91817 56.398 6.94656C56.1495 6.97496 55.9206 7.07436 55.7111 7.24476C55.5194 7.39387 55.3756 7.57314 55.2798 7.78259C55.1839 7.98849 55.12 8.20859 55.0881 8.44289C55.0561 8.67364 55.0402 8.90261 55.0402 9.12981V12H54.2574ZM60.2117 12.1598C59.6508 12.1598 59.1644 12.0355 58.7526 11.787C58.3444 11.5385 58.0266 11.1888 57.7994 10.738C57.5722 10.2871 57.4586 9.75816 57.4586 9.15111C57.4586 8.52277 57.5705 7.97962 57.7941 7.52167C58.0178 7.06372 58.3319 6.71049 58.7366 6.46199C59.1449 6.21349 59.6259 6.08924 60.1797 6.08924C60.7477 6.08924 61.2323 6.22059 61.6334 6.48329C62.0346 6.74244 62.3381 7.11519 62.544 7.60154C62.7499 8.08789 62.844 8.66832 62.8262 9.34282H62.0275V9.06592C62.0133 8.32042 61.8518 7.75774 61.5429 7.37789C61.2376 6.99804 60.7903 6.80812 60.201 6.80812C59.5833 6.80812 59.1094 7.00869 58.7792 7.40984C58.4526 7.81099 58.2893 8.38254 58.2893 9.12449C58.2893 9.84869 58.4526 10.4114 58.7792 10.8125C59.1094 11.2101 59.5762 11.4089 60.1797 11.4089C60.5915 11.4089 60.9501 11.3148 61.2554 11.1267C61.5642 10.935 61.8074 10.6599 61.9849 10.3013L62.7144 10.5836C62.4872 11.0841 62.1517 11.4728 61.708 11.7497C61.2678 12.0231 60.769 12.1598 60.2117 12.1598ZM58.0124 9.34282V8.68784H62.4056V9.34282H58.0124ZM70.4976 12L70.5029 8.22456C70.5029 7.78081 70.3786 7.43291 70.1301 7.18087C69.8852 6.92526 69.5728 6.79746 69.1929 6.79746C68.9764 6.79746 68.7652 6.84716 68.5593 6.94656C68.3534 7.04596 68.183 7.20571 68.0481 7.42582C67.9167 7.64591 67.851 7.93346 67.851 8.28846L67.3878 8.15534C67.3771 7.74354 67.457 7.38321 67.6274 7.07436C67.8013 6.76551 68.0392 6.52589 68.3409 6.35549C68.6462 6.18154 68.9906 6.09456 69.374 6.09456C69.9526 6.09456 70.4159 6.27384 70.7638 6.63239C71.1117 6.98739 71.2857 7.46841 71.2857 8.07546L71.2803 12H70.4976ZM63.6336 12V6.24899H64.3365V7.66544H64.4217V12H63.6336ZM67.0736 12L67.0789 8.27781C67.0789 7.81986 66.9564 7.45954 66.7115 7.19684C66.4701 6.93059 66.1506 6.79746 65.753 6.79746C65.3554 6.79746 65.0341 6.93414 64.7892 7.20749C64.5442 7.47729 64.4217 7.83761 64.4217 8.28846L63.9531 8.03286C63.9531 7.66366 64.0401 7.33351 64.2141 7.04241C64.388 6.74776 64.6259 6.51701 64.9276 6.35016C65.2294 6.17976 65.5719 6.09456 65.9553 6.09456C66.321 6.09456 66.6458 6.17266 66.9298 6.32886C67.2174 6.48506 67.4428 6.71227 67.6061 7.01046C67.7694 7.30866 67.851 7.67076 67.851 8.09676L67.8457 12H67.0736Z" fill="white"/>
<path d="M0.852051 112.667V104.999H1.63483V111.916H5.27713V112.667H0.852051ZM7.61738 112.826C7.18428 112.826 6.8204 112.748 6.52575 112.592C6.23465 112.436 6.01633 112.228 5.87078 111.969C5.72523 111.71 5.65245 111.428 5.65245 111.122C5.65245 110.81 5.71458 110.544 5.83883 110.324C5.96663 110.1 6.1388 109.917 6.35535 109.775C6.57545 109.633 6.82928 109.525 7.11683 109.45C7.40793 109.379 7.7292 109.317 8.08065 109.264C8.43565 109.207 8.78178 109.159 9.11903 109.12C9.45983 109.077 9.75803 109.037 10.0137 108.998L9.73673 109.168C9.74738 108.6 9.63733 108.179 9.40658 107.906C9.17583 107.633 8.77468 107.496 8.20313 107.496C7.80908 107.496 7.47538 107.585 7.20203 107.762C6.93223 107.94 6.7423 108.22 6.63225 108.604L5.87078 108.38C6.00213 107.865 6.2666 107.466 6.6642 107.182C7.0618 106.898 7.57833 106.756 8.21378 106.756C8.73918 106.756 9.1847 106.855 9.55035 107.054C9.91955 107.249 10.1805 107.533 10.3332 107.906C10.4042 108.073 10.4503 108.259 10.4716 108.465C10.4929 108.671 10.5036 108.88 10.5036 109.093V112.667H9.80595V111.223L10.0084 111.309C9.81305 111.802 9.50953 112.178 9.09773 112.438C8.68593 112.697 8.19248 112.826 7.61738 112.826ZM7.7079 112.15C8.07355 112.15 8.39305 112.084 8.6664 111.953C8.93975 111.822 9.15985 111.642 9.3267 111.415C9.49355 111.184 9.60183 110.925 9.65153 110.638C9.69413 110.453 9.7172 110.251 9.72075 110.031C9.7243 109.807 9.72608 109.64 9.72608 109.53L10.0243 109.685C9.75803 109.72 9.4687 109.756 9.1563 109.791C8.84745 109.827 8.54215 109.867 8.2404 109.913C7.9422 109.96 7.6724 110.015 7.431 110.079C7.2677 110.125 7.10973 110.19 6.95708 110.276C6.80443 110.357 6.6784 110.467 6.579 110.606C6.48315 110.744 6.43523 110.916 6.43523 111.122C6.43523 111.289 6.47605 111.451 6.5577 111.607C6.6429 111.763 6.7778 111.893 6.9624 111.996C7.15055 112.099 7.39905 112.15 7.7079 112.15ZM15.8303 112.667V109.732C15.8303 109.413 15.8002 109.12 15.7398 108.854C15.6795 108.584 15.5818 108.35 15.4469 108.151C15.3156 107.949 15.1434 107.792 14.9304 107.682C14.721 107.572 14.4654 107.517 14.1636 107.517C13.8867 107.517 13.6418 107.565 13.4288 107.661C13.2193 107.757 13.0418 107.895 12.8963 108.076C12.7543 108.254 12.646 108.47 12.5714 108.726C12.4969 108.982 12.4596 109.273 12.4596 109.599L11.9058 109.477C11.9058 108.888 12.0088 108.392 12.2147 107.991C12.4206 107.59 12.7046 107.286 13.0667 107.081C13.4288 106.875 13.8441 106.772 14.3127 106.772C14.6571 106.772 14.957 106.825 15.2126 106.931C15.4718 107.038 15.6901 107.182 15.8676 107.363C16.0487 107.544 16.1941 107.752 16.3042 107.986C16.4142 108.217 16.4942 108.463 16.5439 108.726C16.5936 108.985 16.6184 109.244 16.6184 109.503V112.667H15.8303ZM11.6715 112.667V106.916H12.3797V108.332H12.4596V112.667H11.6715ZM20.0717 115.382C19.777 115.382 19.4859 115.338 19.1984 115.249C18.9144 115.164 18.6517 115.027 18.4103 114.839C18.1689 114.655 17.9665 114.413 17.8032 114.115L18.5115 113.721C18.6712 114.04 18.8949 114.269 19.1824 114.408C19.4735 114.55 19.7699 114.621 20.0717 114.621C20.487 114.621 20.8225 114.543 21.0781 114.386C21.3373 114.234 21.5254 114.007 21.6426 113.705C21.7597 113.403 21.8165 113.027 21.813 112.576V111.042H21.9035V106.916H22.6011V112.587C22.6011 112.75 22.5957 112.906 22.5851 113.055C22.578 113.208 22.562 113.357 22.5372 113.503C22.4697 113.932 22.3295 114.285 22.1165 114.562C21.907 114.839 21.6301 115.045 21.2858 115.18C20.945 115.315 20.5403 115.382 20.0717 115.382ZM20.0184 112.826C19.4824 112.826 19.0244 112.693 18.6446 112.427C18.2647 112.157 17.9736 111.793 17.7713 111.335C17.5689 110.877 17.4678 110.361 17.4678 109.786C17.4678 109.214 17.5672 108.699 17.766 108.241C17.9683 107.783 18.2576 107.421 18.6339 107.155C19.0102 106.889 19.4611 106.756 19.9865 106.756C20.5261 106.756 20.9805 106.887 21.3497 107.15C21.7189 107.413 21.9976 107.773 22.1857 108.231C22.3774 108.685 22.4733 109.203 22.4733 109.786C22.4733 110.357 22.3792 110.874 22.191 111.335C22.0029 111.793 21.726 112.157 21.3603 112.427C20.9947 112.693 20.5474 112.826 20.0184 112.826ZM20.0983 112.097C20.5066 112.097 20.8438 111.997 21.1101 111.799C21.3763 111.6 21.5751 111.326 21.7065 110.978C21.8378 110.627 21.9035 110.229 21.9035 109.786C21.9035 109.335 21.8378 108.937 21.7065 108.593C21.5751 108.245 21.3763 107.973 21.1101 107.778C20.8474 107.583 20.5154 107.485 20.1143 107.485C19.7025 107.485 19.3617 107.586 19.0919 107.789C18.8221 107.991 18.6215 108.266 18.4902 108.614C18.3624 108.962 18.2985 109.353 18.2985 109.786C18.2985 110.222 18.3641 110.616 18.4955 110.968C18.6304 111.316 18.831 111.591 19.0972 111.793C19.3635 111.996 19.6972 112.097 20.0983 112.097ZM26.0761 112.81C25.7318 112.81 25.43 112.757 25.1709 112.651C24.9153 112.544 24.697 112.4 24.5159 112.219C24.3384 112.038 24.1946 111.832 24.0846 111.602C23.9745 111.367 23.8946 111.12 23.8449 110.861C23.7952 110.599 23.7704 110.338 23.7704 110.079V106.916H24.5585V109.85C24.5585 110.166 24.5887 110.458 24.649 110.728C24.7094 110.998 24.8052 111.234 24.9366 111.436C25.0715 111.635 25.2436 111.79 25.4531 111.9C25.6661 112.01 25.9235 112.065 26.2252 112.065C26.5021 112.065 26.7453 112.017 26.9548 111.921C27.1678 111.825 27.3453 111.688 27.4872 111.511C27.6328 111.33 27.7429 111.112 27.8174 110.856C27.8919 110.597 27.9292 110.306 27.9292 109.983L28.483 110.105C28.483 110.694 28.3801 111.19 28.1742 111.591C27.9683 111.992 27.6843 112.296 27.3222 112.501C26.9601 112.707 26.5447 112.81 26.0761 112.81ZM28.0091 112.667V111.25H27.9292V106.916H28.712V112.667H28.0091ZM31.6328 112.826C31.1997 112.826 30.8358 112.748 30.5411 112.592C30.25 112.436 30.0317 112.228 29.8862 111.969C29.7406 111.71 29.6678 111.428 29.6678 111.122C29.6678 110.81 29.73 110.544 29.8542 110.324C29.982 110.1 30.1542 109.917 30.3707 109.775C30.5908 109.633 30.8447 109.525 31.1322 109.45C31.4233 109.379 31.7446 109.317 32.096 109.264C32.451 109.207 32.7971 109.159 33.1343 109.12C33.4751 109.077 33.7733 109.037 34.0289 108.998L33.752 109.168C33.7627 108.6 33.6527 108.179 33.422 107.906C33.1912 107.633 32.7901 107.496 32.2185 107.496C31.8245 107.496 31.4908 107.585 31.2174 107.762C30.9476 107.94 30.7577 108.22 30.6476 108.604L29.8862 108.38C30.0175 107.865 30.282 107.466 30.6796 107.182C31.0772 106.898 31.5937 106.756 32.2292 106.756C32.7546 106.756 33.2001 106.855 33.5657 107.054C33.9349 107.249 34.1958 107.533 34.3484 107.906C34.4194 108.073 34.4656 108.259 34.4869 108.465C34.5082 108.671 34.5188 108.88 34.5188 109.093V112.667H33.8213V111.223L34.0237 111.309C33.8284 111.802 33.5248 112.178 33.113 112.438C32.7012 112.697 32.2079 112.826 31.6328 112.826ZM31.7233 112.15C32.0889 112.15 32.4084 112.084 32.6818 111.953C32.9551 111.822 33.1751 111.642 33.342 111.415C33.5088 111.184 33.6172 110.925 33.6669 110.638C33.7095 110.453 33.7325 110.251 33.736 110.031C33.7396 109.807 33.7415 109.64 33.7415 109.53L34.0396 109.685C33.7733 109.72 33.484 109.756 33.1716 109.791C32.8627 109.827 32.5575 109.867 32.2558 109.913C31.9576 109.96 31.6878 110.015 31.4464 110.079C31.2831 110.125 31.1251 110.19 30.9725 110.276C30.8198 110.357 30.6938 110.467 30.5944 110.606C30.4985 110.744 30.4506 110.916 30.4506 111.122C30.4506 111.289 30.4914 111.451 30.5731 111.607C30.6583 111.763 30.7932 111.893 30.9778 111.996C31.1659 112.099 31.4144 112.15 31.7233 112.15ZM37.9766 115.382C37.6819 115.382 37.3907 115.338 37.1032 115.249C36.8192 115.164 36.5566 115.027 36.3152 114.839C36.0738 114.655 35.8713 114.413 35.708 114.115L36.4164 113.721C36.5761 114.04 36.7997 114.269 37.0872 114.408C37.3783 114.55 37.6748 114.621 37.9766 114.621C38.3919 114.621 38.7273 114.543 38.9829 114.386C39.2421 114.234 39.4303 114.007 39.5475 113.705C39.6646 113.403 39.7213 113.027 39.7178 112.576V111.042H39.8083V106.916H40.506V112.587C40.506 112.75 40.5005 112.906 40.4899 113.055C40.4828 113.208 40.4669 113.357 40.4421 113.503C40.3746 113.932 40.2344 114.285 40.0214 114.562C39.8119 114.839 39.535 115.045 39.1907 115.18C38.8499 115.315 38.4452 115.382 37.9766 115.382ZM37.9232 112.826C37.3872 112.826 36.9292 112.693 36.5494 112.427C36.1695 112.157 35.8785 111.793 35.6762 111.335C35.4738 110.877 35.3727 110.361 35.3727 109.786C35.3727 109.214 35.472 108.699 35.6708 108.241C35.8731 107.783 36.1624 107.421 36.5387 107.155C36.915 106.889 37.3659 106.756 37.8913 106.756C38.4309 106.756 38.8854 106.887 39.2546 107.15C39.6238 107.413 39.9024 107.773 40.0905 108.231C40.2822 108.685 40.3782 109.203 40.3782 109.786C40.3782 110.357 40.284 110.874 40.0958 111.335C39.9077 111.793 39.6308 112.157 39.2651 112.427C38.8995 112.693 38.4522 112.826 37.9232 112.826ZM38.0032 112.097C38.4115 112.097 38.7486 111.997 39.0149 111.799C39.2811 111.6 39.48 111.326 39.6114 110.978C39.7427 110.627 39.8083 110.229 39.8083 109.786C39.8083 109.335 39.7427 108.937 39.6114 108.593C39.48 108.245 39.2811 107.973 39.0149 107.778C38.7522 107.583 38.4202 107.485 38.0191 107.485C37.6073 107.485 37.2665 107.586 36.9967 107.789C36.7269 107.991 36.5264 108.266 36.3951 108.614C36.2673 108.962 36.2034 109.353 36.2034 109.786C36.2034 110.222 36.2689 110.616 36.4003 110.968C36.5352 111.316 36.7358 111.591 37.002 111.793C37.2683 111.996 37.6021 112.097 38.0032 112.097ZM44.2152 112.826C43.6543 112.826 43.168 112.702 42.7562 112.454C42.3479 112.205 42.0303 111.855 41.8031 111.404C41.5759 110.954 41.4622 110.425 41.4622 109.818C41.4622 109.189 41.574 108.646 41.7977 108.188C42.0213 107.73 42.3355 107.377 42.7402 107.129C43.1484 106.88 43.6295 106.756 44.1833 106.756C44.7513 106.756 45.2359 106.887 45.6371 107.15C46.0382 107.409 46.3417 107.782 46.5476 108.268C46.7535 108.754 46.8475 109.335 46.8298 110.009H46.031V109.732C46.0168 108.987 45.8554 108.424 45.5466 108.044C45.2413 107.665 44.794 107.475 44.2047 107.475C43.587 107.475 43.1129 107.675 42.7828 108.076C42.4562 108.478 42.2929 109.049 42.2929 109.791C42.2929 110.515 42.4562 111.078 42.7828 111.479C43.1129 111.877 43.5798 112.075 44.1833 112.075C44.5951 112.075 44.9536 111.981 45.2589 111.793C45.5678 111.602 45.8109 111.326 45.9884 110.968L46.718 111.25C46.4908 111.751 46.1553 112.139 45.7115 112.416C45.2713 112.69 44.7726 112.826 44.2152 112.826ZM42.016 110.009V109.354H46.4091V110.009H42.016ZM49.9445 112.821C49.27 112.821 48.7145 112.675 48.2779 112.384C47.8448 112.093 47.5784 111.688 47.479 111.17L48.2779 111.037C48.3631 111.364 48.5565 111.625 48.8582 111.82C49.1635 112.012 49.5398 112.107 49.9871 112.107C50.4238 112.107 50.7681 112.017 51.0202 111.836C51.2722 111.651 51.3983 111.401 51.3983 111.085C51.3983 110.907 51.3574 110.764 51.2758 110.654C51.1977 110.54 51.0361 110.435 50.7912 110.339C50.5462 110.244 50.1806 110.13 49.6942 109.999C49.1724 109.857 48.7642 109.715 48.4696 109.573C48.1749 109.431 47.9654 109.267 47.8411 109.083C47.7169 108.895 47.6549 108.666 47.6549 108.396C47.6549 108.069 47.7472 107.783 47.9318 107.539C48.1164 107.29 48.372 107.098 48.6986 106.963C49.0252 106.825 49.405 106.756 49.8381 106.756C50.2712 106.756 50.6582 106.827 50.999 106.969C51.3433 107.107 51.6202 107.302 51.8297 107.555C52.0391 107.807 52.1634 108.099 52.2024 108.433L51.4036 108.577C51.3503 108.24 51.1818 107.973 50.8978 107.778C50.6173 107.579 50.2605 107.476 49.8274 107.469C49.4191 107.459 49.0872 107.537 48.8316 107.704C48.576 107.867 48.4482 108.085 48.4482 108.359C48.4482 108.511 48.4944 108.643 48.5867 108.753C48.679 108.859 48.8458 108.96 49.0872 109.056C49.3321 109.152 49.6801 109.257 50.131 109.37C50.6599 109.505 51.0752 109.647 51.3769 109.796C51.6787 109.945 51.8936 110.121 52.0214 110.324C52.1492 110.526 52.2131 110.776 52.2131 111.074C52.2131 111.617 52.0106 112.045 51.6059 112.358C51.2048 112.667 50.651 112.821 49.9445 112.821Z" fill="white"/>
<path d="M3.84982 270.802C3.08657 270.802 2.44224 270.634 1.91684 270.296C1.39144 269.956 0.993836 269.485 0.724036 268.885C0.454236 268.285 0.319336 267.593 0.319336 266.809C0.319336 266.024 0.454236 265.332 0.724036 264.732C0.993836 264.132 1.39144 263.663 1.91684 263.326C2.44224 262.985 3.08657 262.815 3.84982 262.815C4.74087 262.815 5.46861 263.044 6.03306 263.502C6.59751 263.956 6.98447 264.567 7.19392 265.334L6.39517 265.541C6.23187 264.934 5.93899 264.453 5.51654 264.098C5.09409 263.743 4.53852 263.566 3.84982 263.566C3.24987 263.566 2.75109 263.702 2.35349 263.976C1.95589 264.249 1.65591 264.631 1.45356 265.121C1.25476 265.607 1.15181 266.17 1.14471 266.809C1.14117 267.448 1.23879 268.01 1.43759 268.497C1.63994 268.983 1.94169 269.365 2.34284 269.641C2.74754 269.915 3.24987 270.052 3.84982 270.052C4.53852 270.052 5.09409 269.874 5.51654 269.519C5.93899 269.16 6.23187 268.679 6.39517 268.076L7.19392 268.284C6.98447 269.05 6.59751 269.663 6.03306 270.121C5.46861 270.575 4.74087 270.802 3.84982 270.802ZM10.5574 270.802C9.98585 270.802 9.49773 270.673 9.09303 270.414C8.68833 270.154 8.3777 269.796 8.16115 269.338C7.9446 268.88 7.83633 268.355 7.83633 267.762C7.83633 267.158 7.94638 266.629 8.16648 266.175C8.38658 265.721 8.69898 265.367 9.10368 265.115C9.51193 264.86 9.9965 264.732 10.5574 264.732C11.1325 264.732 11.6224 264.861 12.0271 265.121C12.4353 265.376 12.7459 265.733 12.9589 266.191C13.1755 266.645 13.2838 267.169 13.2838 267.762C13.2838 268.365 13.1755 268.896 12.9589 269.354C12.7424 269.808 12.43 270.163 12.0217 270.419C11.6135 270.675 11.1254 270.802 10.5574 270.802ZM10.5574 270.052C11.1964 270.052 11.6721 269.84 11.9845 269.418C12.2969 268.992 12.4531 268.44 12.4531 267.762C12.4531 267.066 12.2951 266.512 11.9791 266.1C11.6667 265.689 11.1928 265.483 10.5574 265.483C10.1278 265.483 9.77285 265.58 9.4924 265.776C9.2155 265.967 9.00783 266.235 8.86938 266.58C8.73448 266.92 8.66703 267.314 8.66703 267.762C8.66703 268.454 8.82678 269.01 9.14628 269.428C9.46578 269.844 9.93615 270.052 10.5574 270.052ZM18.3989 270.643V267.709C18.3989 267.389 18.3687 267.096 18.3084 266.83C18.248 266.56 18.1504 266.326 18.0155 266.127C17.8842 265.925 17.712 265.768 17.499 265.658C17.2895 265.548 17.0339 265.493 16.7322 265.493C16.4553 265.493 16.2103 265.541 15.9973 265.637C15.7879 265.733 15.6104 265.871 15.4648 266.052C15.3228 266.23 15.2146 266.446 15.14 266.702C15.0655 266.958 15.0282 267.249 15.0282 267.575L14.4744 267.453C14.4744 266.864 14.5773 266.368 14.7832 265.967C14.9891 265.566 15.2731 265.263 15.6352 265.057C15.9973 264.851 16.4127 264.748 16.8813 264.748C17.2256 264.748 17.5256 264.801 17.7812 264.908C18.0404 265.014 18.2587 265.158 18.4362 265.339C18.6172 265.52 18.7628 265.728 18.8728 265.962C18.9829 266.193 19.0628 266.439 19.1125 266.702C19.1622 266.961 19.187 267.22 19.187 267.48V270.643H18.3989ZM14.2401 270.643V264.892H14.9483V266.308H15.0282V270.643H14.2401ZM23.487 270.643C23.1639 270.71 22.8444 270.737 22.5285 270.722C22.2161 270.708 21.9356 270.641 21.6871 270.52C21.4422 270.399 21.2558 270.211 21.128 269.956C21.025 269.743 20.9682 269.528 20.9576 269.311C20.9505 269.091 20.9469 268.841 20.9469 268.561V263.294H21.7244V268.529C21.7244 268.77 21.7262 268.972 21.7297 269.136C21.7368 269.295 21.7741 269.437 21.8415 269.562C21.9693 269.799 22.1717 269.941 22.4486 269.988C22.729 270.034 23.0752 270.023 23.487 269.956V270.643ZM19.7169 265.563V264.892H23.487V265.563H19.7169ZM26.0524 270.802C25.6193 270.802 25.2555 270.724 24.9608 270.568C24.6697 270.412 24.4514 270.204 24.3058 269.945C24.1603 269.686 24.0875 269.404 24.0875 269.098C24.0875 268.786 24.1496 268.52 24.2739 268.3C24.4017 268.076 24.5739 267.893 24.7904 267.751C25.0105 267.609 25.2643 267.501 25.5519 267.426C25.843 267.355 26.1643 267.293 26.5157 267.24C26.8707 267.183 27.2168 267.135 27.5541 267.096C27.8949 267.054 28.1931 267.013 28.4487 266.974L28.1718 267.144C28.1824 266.576 28.0724 266.155 27.8416 265.882C27.6109 265.609 27.2097 265.472 26.6382 265.472C26.2441 265.472 25.9104 265.561 25.6371 265.738C25.3673 265.916 25.1774 266.196 25.0673 266.58L24.3058 266.356C24.4372 265.841 24.7017 265.442 25.0993 265.158C25.4969 264.874 26.0134 264.732 26.6488 264.732C27.1742 264.732 27.6198 264.831 27.9854 265.03C28.3546 265.225 28.6155 265.509 28.7682 265.882C28.8392 266.049 28.8853 266.235 28.9066 266.441C28.9279 266.647 28.9386 266.857 28.9386 267.07V270.643H28.241V269.2L28.4434 269.285C28.2481 269.778 27.9446 270.154 27.5328 270.414C27.121 270.673 26.6275 270.802 26.0524 270.802ZM26.143 270.126C26.5086 270.126 26.8281 270.06 27.1015 269.929C27.3748 269.798 27.5949 269.618 27.7618 269.391C27.9286 269.16 28.0369 268.901 28.0866 268.614C28.1292 268.429 28.1523 268.227 28.1558 268.007C28.1594 267.783 28.1611 267.616 28.1611 267.506L28.4593 267.661C28.1931 267.696 27.9038 267.732 27.5914 267.767C27.2825 267.803 26.9772 267.843 26.6755 267.89C26.3773 267.936 26.1075 267.991 25.8661 268.055C25.7028 268.101 25.5448 268.166 25.3921 268.252C25.2395 268.333 25.1135 268.443 25.0141 268.582C24.9182 268.72 24.8703 268.892 24.8703 269.098C24.8703 269.265 24.9111 269.427 24.9928 269.583C25.078 269.739 25.2129 269.869 25.3975 269.972C25.5856 270.075 25.8341 270.126 26.143 270.126ZM30.2183 263.8V262.921H31.0011V263.8H30.2183ZM30.2183 270.643V264.892H31.0011V270.643H30.2183ZM36.538 270.643V267.709C36.538 267.389 36.5079 267.096 36.4475 266.83C36.3872 266.56 36.2895 266.326 36.1546 266.127C36.0233 265.925 35.8511 265.768 35.6381 265.658C35.4287 265.548 35.1731 265.493 34.8713 265.493C34.5944 265.493 34.3495 265.541 34.1365 265.637C33.927 265.733 33.7495 265.871 33.604 266.052C33.462 266.23 33.3537 266.446 33.2791 266.702C33.2046 266.958 33.1673 267.249 33.1673 267.575L32.6135 267.453C32.6135 266.864 32.7165 266.368 32.9224 265.967C33.1283 265.566 33.4123 265.263 33.7744 265.057C34.1365 264.851 34.5518 264.748 35.0204 264.748C35.3648 264.748 35.6647 264.801 35.9203 264.908C36.1795 265.014 36.3978 265.158 36.5753 265.339C36.7564 265.52 36.9019 265.728 37.012 265.962C37.122 266.193 37.2019 266.439 37.2516 266.702C37.3013 266.961 37.3261 267.22 37.3261 267.48V270.643H36.538ZM32.3792 270.643V264.892H33.0874V266.308H33.1673V270.643H32.3792ZM40.8973 270.802C40.3364 270.802 39.85 270.678 39.4382 270.43C39.03 270.181 38.7123 269.831 38.4851 269.381C38.2579 268.93 38.1443 268.401 38.1443 267.794C38.1443 267.165 38.2561 266.622 38.4797 266.164C38.7034 265.706 39.0176 265.353 39.4223 265.105C39.8305 264.856 40.3115 264.732 40.8653 264.732C41.4333 264.732 41.9179 264.863 42.3191 265.126C42.7202 265.385 43.0237 265.758 43.2296 266.244C43.4355 266.73 43.5296 267.311 43.5119 267.985H42.7131V267.709C42.6989 266.963 42.5374 266.4 42.2285 266.02C41.9232 265.641 41.4759 265.451 40.8866 265.451C40.2689 265.451 39.795 265.651 39.4649 266.052C39.1383 266.454 38.975 267.025 38.975 267.767C38.975 268.491 39.1383 269.054 39.4649 269.455C39.795 269.853 40.2618 270.052 40.8653 270.052C41.2771 270.052 41.6357 269.957 41.941 269.769C42.2498 269.578 42.493 269.302 42.6705 268.944L43.4 269.226C43.1728 269.727 42.8374 270.115 42.3936 270.392C41.9534 270.666 41.4546 270.802 40.8973 270.802ZM38.6981 267.985V267.33H43.0912V267.985H38.6981ZM44.4806 270.643V264.892H45.1835V266.276L45.0451 266.095C45.109 265.925 45.1924 265.768 45.2953 265.626C45.3983 265.481 45.5101 265.362 45.6308 265.27C45.7799 265.138 45.9539 265.039 46.1527 264.971C46.3515 264.9 46.552 264.86 46.7544 264.849C46.9567 264.835 47.1413 264.849 47.3082 264.892V265.626C47.0987 265.573 46.8698 265.561 46.6213 265.589C46.3728 265.618 46.1438 265.717 45.9343 265.887C45.7426 266.036 45.5989 266.216 45.503 266.425C45.4072 266.631 45.3433 266.851 45.3113 267.085C45.2794 267.316 45.2634 267.545 45.2634 267.772V270.643H44.4806ZM48.2119 263.8V262.921H48.9946V263.8H48.2119ZM48.2119 270.643V264.892H48.9946V270.643H48.2119ZM49.8455 270.643V270.478L53.5571 265.621H50.1224V264.892H54.8457V265.073L51.1395 269.913H54.6434V270.643H49.8455ZM57.1251 270.802C56.692 270.802 56.3281 270.724 56.0334 270.568C55.7423 270.412 55.524 270.204 55.3785 269.945C55.2329 269.686 55.1601 269.404 55.1601 269.098C55.1601 268.786 55.2223 268.52 55.3465 268.3C55.4743 268.076 55.6465 267.893 55.863 267.751C56.0831 267.609 56.337 267.501 56.6245 267.426C56.9156 267.355 57.2369 267.293 57.5883 267.24C57.9433 267.183 58.2895 267.135 58.6267 267.096C58.9675 267.054 59.2657 267.013 59.5213 266.974L59.2444 267.144C59.2551 266.576 59.145 266.155 58.9143 265.882C58.6835 265.609 58.2824 265.472 57.7108 265.472C57.3168 265.472 56.9831 265.561 56.7097 265.738C56.4399 265.916 56.25 266.196 56.1399 266.58L55.3785 266.356C55.5098 265.841 55.7743 265.442 56.1719 265.158C56.5695 264.874 57.086 264.732 57.7215 264.732C58.2469 264.732 58.6924 264.831 59.058 265.03C59.4272 265.225 59.6882 265.509 59.8408 265.882C59.9118 266.049 59.958 266.235 59.9793 266.441C60.0006 266.647 60.0112 266.857 60.0112 267.07V270.643H59.3136V269.2L59.516 269.285C59.3207 269.778 59.0172 270.154 58.6054 270.414C58.1936 270.673 57.7002 270.802 57.1251 270.802ZM57.2156 270.126C57.5812 270.126 57.9007 270.06 58.1741 269.929C58.4474 269.798 58.6675 269.618 58.8344 269.391C59.0012 269.16 59.1095 268.901 59.1592 268.614C59.2018 268.429 59.2249 268.227 59.2284 268.007C59.232 267.783 59.2338 267.616 59.2338 267.506L59.532 267.661C59.2657 267.696 58.9764 267.732 58.664 267.767C58.3551 267.803 58.0498 267.843 57.7481 267.89C57.4499 267.936 57.1801 267.991 56.9387 268.055C56.7754 268.101 56.6174 268.166 56.4648 268.252C56.3121 268.333 56.1861 268.443 56.0867 268.582C55.9908 268.72 55.9429 268.892 55.9429 269.098C55.9429 269.265 55.9837 269.427 56.0654 269.583C56.1506 269.739 56.2855 269.869 56.4701 269.972C56.6582 270.075 56.9067 270.126 57.2156 270.126ZM64.3156 270.643C63.9925 270.71 63.673 270.737 63.3571 270.722C63.0447 270.708 62.7642 270.641 62.5157 270.52C62.2708 270.399 62.0844 270.211 61.9566 269.956C61.8536 269.743 61.7968 269.528 61.7862 269.311C61.7791 269.091 61.7755 268.841 61.7755 268.561V263.294H62.553V268.529C62.553 268.77 62.5548 268.972 62.5583 269.136C62.5654 269.295 62.6027 269.437 62.6701 269.562C62.7979 269.799 63.0003 269.941 63.2772 269.988C63.5576 270.034 63.9038 270.023 64.3156 269.956V270.643ZM60.5455 265.563V264.892H64.3156V265.563H60.5455ZM65.3421 263.8V262.921H66.1249V263.8H65.3421ZM65.3421 270.643V264.892H66.1249V270.643H65.3421ZM69.9099 270.802C69.3383 270.802 68.8502 270.673 68.4455 270.414C68.0408 270.154 67.7302 269.796 67.5136 269.338C67.2971 268.88 67.1888 268.355 67.1888 267.762C67.1888 267.158 67.2989 266.629 67.519 266.175C67.7391 265.721 68.0515 265.367 68.4562 265.115C68.8644 264.86 69.349 264.732 69.9099 264.732C70.485 264.732 70.9749 264.861 71.3796 265.121C71.7878 265.376 72.0985 265.733 72.3115 266.191C72.528 266.645 72.6363 267.169 72.6363 267.762C72.6363 268.365 72.528 268.896 72.3115 269.354C72.0949 269.808 71.7825 270.163 71.3743 270.419C70.966 270.675 70.4779 270.802 69.9099 270.802ZM69.9099 270.052C70.5489 270.052 71.0246 269.84 71.337 269.418C71.6494 268.992 71.8056 268.44 71.8056 267.762C71.8056 267.066 71.6476 266.512 71.3317 266.1C71.0193 265.689 70.5453 265.483 69.9099 265.483C69.4803 265.483 69.1253 265.58 68.8449 265.776C68.568 265.967 68.3603 266.235 68.2219 266.58C68.087 266.92 68.0195 267.314 68.0195 267.762C68.0195 268.454 68.1793 269.01 68.4988 269.428C68.8183 269.844 69.2886 270.052 69.9099 270.052ZM77.7515 270.643V267.709C77.7515 267.389 77.7213 267.096 77.6609 266.83C77.6006 266.56 77.503 266.326 77.3681 266.127C77.2367 265.925 77.0645 265.768 76.8515 265.658C76.6421 265.548 76.3865 265.493 76.0847 265.493C75.8078 265.493 75.5629 265.541 75.3499 265.637C75.1404 265.733 74.9629 265.871 74.8174 266.052C74.6754 266.23 74.5671 266.446 74.4926 266.702C74.418 266.958 74.3807 267.249 74.3807 267.575L73.8269 267.453C73.8269 266.864 73.9299 266.368 74.1358 265.967C74.3417 265.566 74.6257 265.263 74.9878 265.057C75.3499 264.851 75.7652 264.748 76.2338 264.748C76.5782 264.748 76.8782 264.801 77.1338 264.908C77.3929 265.014 77.6112 265.158 77.7887 265.339C77.9698 265.52 78.1153 265.728 78.2254 265.962C78.3354 266.193 78.4153 266.439 78.465 266.702C78.5147 266.961 78.5396 267.22 78.5396 267.48V270.643H77.7515ZM73.5926 270.643V264.892H74.3009V266.308H74.3807V270.643H73.5926ZM81.6467 262.975H82.4508L80.406 270.643H79.6019L81.6467 262.975ZM86.7288 270.802C85.9656 270.802 85.3212 270.634 84.7958 270.296C84.2704 269.956 83.8728 269.485 83.603 268.885C83.3332 268.285 83.1983 267.593 83.1983 266.809C83.1983 266.024 83.3332 265.332 83.603 264.732C83.8728 264.132 84.2704 263.663 84.7958 263.326C85.3212 262.985 85.9656 262.815 86.7288 262.815C87.4956 262.815 88.1399 262.985 88.6618 263.326C89.1872 263.663 89.5848 264.132 89.8546 264.732C90.1279 265.332 90.2646 266.024 90.2646 266.809C90.2646 267.593 90.1279 268.285 89.8546 268.885C89.5848 269.485 89.1872 269.956 88.6618 270.296C88.1399 270.634 87.4956 270.802 86.7288 270.802ZM86.7288 270.052C87.3288 270.052 87.8293 269.915 88.2305 269.641C88.6316 269.368 88.9316 268.988 89.1304 268.502C89.3327 268.012 89.4339 267.448 89.4339 266.809C89.4339 266.17 89.3327 265.607 89.1304 265.121C88.9316 264.634 88.6316 264.254 88.2305 263.981C87.8293 263.708 87.3288 263.569 86.7288 263.566C86.1289 263.566 85.6301 263.702 85.2325 263.976C84.8349 264.249 84.5349 264.631 84.3326 265.121C84.1338 265.607 84.0326 266.17 84.029 266.809C84.0255 267.448 84.1231 268.01 84.3219 268.497C84.5243 268.979 84.826 269.359 85.2272 269.636C85.6283 269.91 86.1289 270.048 86.7288 270.052ZM91.118 270.643V264.892H91.8209V266.276L91.6825 266.095C91.7464 265.925 91.8298 265.768 91.9328 265.626C92.0357 265.481 92.1475 265.362 92.2682 265.27C92.4173 265.138 92.5913 265.039 92.7901 264.971C92.9889 264.9 93.1895 264.86 93.3918 264.849C93.5942 264.835 93.7788 264.849 93.9456 264.892V265.626C93.7362 265.573 93.5072 265.561 93.2587 265.589C93.0102 265.618 92.7812 265.717 92.5718 265.887C92.3801 266.036 92.2363 266.216 92.1404 266.425C92.0446 266.631 91.9807 266.851 91.9487 267.085C91.9168 267.316 91.9008 267.545 91.9008 267.772V270.643H91.118ZM97.0244 270.802C96.4457 270.802 95.9558 270.673 95.5547 270.414C95.1535 270.154 94.8482 269.798 94.6388 269.343C94.4329 268.885 94.3264 268.36 94.3193 267.767C94.3264 267.164 94.4364 266.635 94.6494 266.18C94.8624 265.722 95.1695 265.367 95.5707 265.115C95.9718 264.86 96.4582 264.732 97.0297 264.732C97.6119 264.732 98.1178 264.874 98.5473 265.158C98.9804 265.442 99.2769 265.831 99.4366 266.324L98.6698 266.569C98.5349 266.225 98.3201 265.958 98.0255 265.77C97.7344 265.579 97.4007 265.483 97.0244 265.483C96.6019 265.483 96.2523 265.58 95.9754 265.776C95.6985 265.967 95.4926 266.235 95.3577 266.58C95.2228 266.924 95.1535 267.32 95.15 267.767C95.1571 268.456 95.3168 269.01 95.6292 269.428C95.9416 269.844 96.4067 270.052 97.0244 270.052C97.4149 270.052 97.7468 269.963 98.0202 269.785C98.2971 269.604 98.5065 269.342 98.6485 268.997L99.4366 269.231C99.2236 269.743 98.9112 270.133 98.4994 270.403C98.0876 270.669 97.5959 270.802 97.0244 270.802ZM104.476 270.643V267.709C104.476 267.389 104.446 267.096 104.386 266.83C104.326 266.56 104.228 266.326 104.093 266.127C103.962 265.925 103.79 265.768 103.577 265.658C103.367 265.548 103.112 265.493 102.81 265.493C102.533 265.493 102.288 265.541 102.075 265.637C101.865 265.733 101.688 265.871 101.542 266.052C101.4 266.23 101.292 266.446 101.218 266.702C101.143 266.958 101.106 267.249 101.106 267.575L100.552 267.453C100.552 266.864 100.655 266.368 100.861 265.967C101.067 265.566 101.351 265.263 101.713 265.057C102.075 264.851 102.49 264.748 102.959 264.748C103.303 264.748 103.603 264.801 103.859 264.908C104.118 265.014 104.336 265.158 104.514 265.339C104.695 265.52 104.84 265.728 104.95 265.962C105.06 266.193 105.14 266.439 105.19 266.702C105.24 266.961 105.265 267.22 105.265 267.48V270.643H104.476ZM100.318 270.643V262.975H101.026V267.304H101.106V270.643H100.318ZM108.867 270.802C108.306 270.802 107.82 270.678 107.408 270.43C107 270.181 106.682 269.831 106.455 269.381C106.228 268.93 106.114 268.401 106.114 267.794C106.114 267.165 106.226 266.622 106.449 266.164C106.673 265.706 106.987 265.353 107.392 265.105C107.8 264.856 108.281 264.732 108.835 264.732C109.403 264.732 109.888 264.863 110.289 265.126C110.69 265.385 110.993 265.758 111.199 266.244C111.405 266.73 111.499 267.311 111.482 267.985H110.683V267.709C110.669 266.963 110.507 266.4 110.198 266.02C109.893 265.641 109.446 265.451 108.856 265.451C108.239 265.451 107.765 265.651 107.435 266.052C107.108 266.454 106.945 267.025 106.945 267.767C106.945 268.491 107.108 269.054 107.435 269.455C107.765 269.853 108.232 270.052 108.835 270.052C109.247 270.052 109.605 269.957 109.911 269.769C110.22 269.578 110.463 269.302 110.64 268.944L111.37 269.226C111.143 269.727 110.807 270.115 110.363 270.392C109.923 270.666 109.424 270.802 108.867 270.802ZM106.668 267.985V267.33H111.061V267.985H106.668ZM114.596 270.797C113.922 270.797 113.366 270.651 112.93 270.36C112.496 270.069 112.23 269.665 112.131 269.146L112.93 269.013C113.015 269.34 113.208 269.601 113.51 269.796C113.815 269.988 114.192 270.083 114.639 270.083C115.075 270.083 115.42 269.993 115.672 269.812C115.924 269.627 116.05 269.377 116.05 269.061C116.05 268.884 116.009 268.74 115.927 268.63C115.849 268.516 115.688 268.411 115.443 268.316C115.198 268.22 114.832 268.106 114.346 267.975C113.824 267.833 113.416 267.691 113.121 267.549C112.827 267.407 112.617 267.243 112.493 267.059C112.369 266.871 112.306 266.642 112.306 266.372C112.306 266.045 112.399 265.76 112.583 265.515C112.768 265.266 113.024 265.074 113.35 264.94C113.677 264.801 114.057 264.732 114.49 264.732C114.923 264.732 115.31 264.803 115.651 264.945C115.995 265.083 116.272 265.279 116.481 265.531C116.691 265.783 116.815 266.076 116.854 266.409L116.055 266.553C116.002 266.216 115.833 265.949 115.549 265.754C115.269 265.555 114.912 265.452 114.479 265.445C114.071 265.435 113.739 265.513 113.483 265.68C113.228 265.843 113.1 266.061 113.1 266.335C113.1 266.487 113.146 266.619 113.238 266.729C113.331 266.835 113.498 266.936 113.739 267.032C113.984 267.128 114.332 267.233 114.783 267.346C115.312 267.481 115.727 267.623 116.029 267.772C116.33 267.922 116.545 268.097 116.673 268.3C116.801 268.502 116.865 268.752 116.865 269.05C116.865 269.594 116.662 270.021 116.258 270.334C115.856 270.643 115.303 270.797 114.596 270.797ZM120.964 270.643C120.641 270.71 120.321 270.737 120.005 270.722C119.693 270.708 119.412 270.641 119.164 270.52C118.919 270.399 118.733 270.211 118.605 269.956C118.502 269.743 118.445 269.528 118.434 269.311C118.427 269.091 118.424 268.841 118.424 268.561V263.294H119.201V268.529C119.201 268.77 119.203 268.972 119.207 269.136C119.214 269.295 119.251 269.437 119.318 269.562C119.446 269.799 119.648 269.941 119.925 269.988C120.206 270.034 120.552 270.023 120.964 269.956V270.643ZM117.194 265.563V264.892H120.964V265.563H117.194ZM121.884 270.643V264.892H122.587V266.276L122.448 266.095C122.512 265.925 122.596 265.768 122.699 265.626C122.802 265.481 122.913 265.362 123.034 265.27C123.183 265.138 123.357 265.039 123.556 264.971C123.755 264.9 123.955 264.86 124.158 264.849C124.36 264.835 124.545 264.849 124.711 264.892V265.626C124.502 265.573 124.273 265.561 124.024 265.589C123.776 265.618 123.547 265.717 123.338 265.887C123.146 266.036 123.002 266.216 122.906 266.425C122.81 266.631 122.746 266.851 122.715 267.085C122.683 267.316 122.667 267.545 122.667 267.772V270.643H121.884ZM126.936 270.802C126.502 270.802 126.139 270.724 125.844 270.568C125.553 270.412 125.335 270.204 125.189 269.945C125.043 269.686 124.971 269.404 124.971 269.098C124.971 268.786 125.033 268.52 125.157 268.3C125.285 268.076 125.457 267.893 125.674 267.751C125.894 267.609 126.147 267.501 126.435 267.426C126.726 267.355 127.047 267.293 127.399 267.24C127.754 267.183 128.1 267.135 128.437 267.096C128.778 267.054 129.076 267.013 129.332 266.974L129.055 267.144C129.066 266.576 128.956 266.155 128.725 265.882C128.494 265.609 128.093 265.472 127.521 265.472C127.127 265.472 126.794 265.561 126.52 265.738C126.25 265.916 126.061 266.196 125.95 266.58L125.189 266.356C125.32 265.841 125.585 265.442 125.982 265.158C126.38 264.874 126.897 264.732 127.532 264.732C128.057 264.732 128.503 264.831 128.869 265.03C129.238 265.225 129.499 265.509 129.651 265.882C129.722 266.049 129.768 266.235 129.79 266.441C129.811 266.647 129.822 266.857 129.822 267.07V270.643H129.124V269.2L129.327 269.285C129.131 269.778 128.828 270.154 128.416 270.414C128.004 270.673 127.511 270.802 126.936 270.802ZM127.026 270.126C127.392 270.126 127.711 270.06 127.985 269.929C128.258 269.798 128.478 269.618 128.645 269.391C128.812 269.16 128.92 268.901 128.97 268.614C129.012 268.429 129.035 268.227 129.039 268.007C129.043 267.783 129.044 267.616 129.044 267.506L129.342 267.661C129.076 267.696 128.787 267.732 128.475 267.767C128.166 267.803 127.86 267.843 127.559 267.89C127.26 267.936 126.991 267.991 126.749 268.055C126.586 268.101 126.428 268.166 126.275 268.252C126.123 268.333 125.997 268.443 125.897 268.582C125.801 268.72 125.753 268.892 125.753 269.098C125.753 269.265 125.794 269.427 125.876 269.583C125.961 269.739 126.096 269.869 126.281 269.972C126.469 270.075 126.717 270.126 127.026 270.126ZM134.126 270.643C133.803 270.71 133.484 270.737 133.168 270.722C132.855 270.708 132.575 270.641 132.326 270.52C132.081 270.399 131.895 270.211 131.767 269.956C131.664 269.743 131.607 269.528 131.597 269.311C131.59 269.091 131.586 268.841 131.586 268.561V263.294H132.364V268.529C132.364 268.77 132.365 268.972 132.369 269.136C132.376 269.295 132.413 269.437 132.481 269.562C132.608 269.799 132.811 269.941 133.088 269.988C133.368 270.034 133.714 270.023 134.126 269.956V270.643ZM130.356 265.563V264.892H134.126V265.563H130.356ZM135.153 263.8V262.921H135.935V263.8H135.153ZM135.153 270.643V264.892H135.935V270.643H135.153ZM139.72 270.802C139.149 270.802 138.661 270.673 138.256 270.414C137.851 270.154 137.541 269.796 137.324 269.338C137.108 268.88 136.999 268.355 136.999 267.762C136.999 267.158 137.109 266.629 137.329 266.175C137.55 265.721 137.862 265.367 138.267 265.115C138.675 264.86 139.16 264.732 139.72 264.732C140.296 264.732 140.785 264.861 141.19 265.121C141.598 265.376 141.909 265.733 142.122 266.191C142.339 266.645 142.447 267.169 142.447 267.762C142.447 268.365 142.339 268.896 142.122 269.354C141.905 269.808 141.593 270.163 141.185 270.419C140.777 270.675 140.288 270.802 139.72 270.802ZM139.72 270.052C140.359 270.052 140.835 269.84 141.148 269.418C141.46 268.992 141.616 268.44 141.616 267.762C141.616 267.066 141.458 266.512 141.142 266.1C140.83 265.689 140.356 265.483 139.72 265.483C139.291 265.483 138.936 265.58 138.655 265.776C138.379 265.967 138.171 266.235 138.032 266.58C137.897 266.92 137.83 267.314 137.83 267.762C137.83 268.454 137.99 269.01 138.309 269.428C138.629 269.844 139.099 270.052 139.72 270.052ZM147.562 270.643V267.709C147.562 267.389 147.532 267.096 147.471 266.83C147.411 266.56 147.313 266.326 147.179 266.127C147.047 265.925 146.875 265.768 146.662 265.658C146.453 265.548 146.197 265.493 145.895 265.493C145.618 265.493 145.373 265.541 145.16 265.637C144.951 265.733 144.773 265.871 144.628 266.052C144.486 266.23 144.378 266.446 144.303 266.702C144.229 266.958 144.191 267.249 144.191 267.575L143.637 267.453C143.637 266.864 143.74 266.368 143.946 265.967C144.152 265.566 144.436 265.263 144.798 265.057C145.16 264.851 145.576 264.748 146.044 264.748C146.389 264.748 146.689 264.801 146.944 264.908C147.203 265.014 147.422 265.158 147.599 265.339C147.78 265.52 147.926 265.728 148.036 265.962C148.146 266.193 148.226 266.439 148.276 266.702C148.325 266.961 148.35 267.22 148.35 267.48V270.643H147.562ZM143.403 270.643V264.892H144.111V266.308H144.191V270.643H143.403Z" fill="white"/>
<path d="M660.29 176.485H299.711C295.51 176.485 292.104 179.891 292.104 184.092V316.457C292.104 320.658 295.51 324.064 299.711 324.064H660.29C664.491 324.064 667.897 320.658 667.897 316.457V184.092C667.897 179.891 664.491 176.485 660.29 176.485Z" stroke="#00FF99" stroke-width="1.52143" stroke-dasharray="6.09 6.09"/>
<path d="M736.36 455.668C736.36 453.988 737.723 452.625 739.403 452.625C741.084 452.625 742.446 453.988 742.446 455.668C742.446 457.349 741.084 458.711 739.403 458.711C737.723 458.711 736.36 457.349 736.36 455.668Z" fill="#DEDEDE"/>
<path d="M736.36 326.346C736.36 324.666 737.723 323.303 739.403 323.303C741.084 323.303 742.446 324.666 742.446 326.346C742.446 328.027 741.084 329.389 739.403 329.389C737.723 329.389 736.36 328.027 736.36 326.346Z" fill="#DEDEDE"/>
<path d="M736.36 201.589C736.36 199.909 737.723 198.546 739.403 198.546C741.084 198.546 742.446 199.909 742.446 201.589C742.446 203.27 741.084 204.632 739.403 204.632C737.723 204.632 736.36 203.27 736.36 201.589Z" fill="#DEDEDE"/>
<path d="M736.36 70.7462C736.36 69.0657 737.723 67.7033 739.403 67.7033C741.084 67.7033 742.446 69.0657 742.446 70.7462C742.446 72.4267 741.084 73.7891 739.403 73.7891C737.723 73.7891 736.36 72.4267 736.36 70.7462Z" fill="#DEDEDE"/>
<path d="M96.5 44H245.691C249.893 44 253.299 47.4058 253.299 51.6071V137V222.393C253.299 226.594 256.704 230 260.906 230H292.001" stroke="#DEDEDE" stroke-width="1.52143"/>
<path d="M150.5 44H245.691C249.892 44 253.298 47.4058 253.298 51.6071V137V222.393C253.298 226.594 256.704 230 260.905 230H292" stroke="#DEDEDE" stroke-width="1.52143"/>
<path d="M43.5 144H245.624C249.826 144 253.232 147.406 253.232 151.607V187V222.393C253.232 226.594 256.637 230 260.839 230H292" stroke="#DEDEDE" stroke-width="1.52143"/>
<path d="M204 44H245.691C249.892 44 253.298 47.4058 253.298 51.6071V137V222.393C253.298 226.594 256.704 230 260.905 230H292" stroke="#DEDEDE" stroke-width="1.52143"/>
<path d="M97 144H245.624C249.826 144 253.232 147.406 253.232 151.607V187V222.393C253.232 226.594 256.637 230 260.839 230H292" stroke="#DEDEDE" stroke-width="1.52143"/>
<path d="M150 144H245.554C249.755 144 253.161 147.406 253.161 151.607V187V222.393C253.161 226.594 256.567 230 260.768 230H292" stroke="#DEDEDE" stroke-width="1.52143"/>
<path d="M204 144H245.691C249.892 144 253.298 147.406 253.298 151.607V187V222.393C253.298 226.594 256.704 230 260.905 230H292" stroke="#DEDEDE" stroke-width="1.52143"/>
<path d="M739.403 70.7461H714.3C710.098 70.7461 706.693 74.1519 706.693 78.3532V150.241V222.128C706.693 226.33 703.287 229.735 699.085 229.735H667.896" stroke="#DEDEDE" stroke-width="1.52143"/>
<path d="M96 198H234.451C238.653 198 242.058 201.406 242.058 205.607V234.393C242.058 238.594 245.464 242 249.666 242H292.001" stroke="#DEDEDE" stroke-width="1.52143"/>
<path d="M149 198H234.451C238.652 198 242.058 201.406 242.058 205.607V234.393C242.058 238.594 245.464 242 249.665 242H292" stroke="#DEDEDE" stroke-width="1.52143"/>
<path d="M203 198H234.451C238.652 198 242.058 201.406 242.058 205.607V234.393C242.058 238.594 245.464 242 249.665 242H292" stroke="#DEDEDE" stroke-width="1.52143"/>
<path d="M739.403 201.589H725.472C721.271 201.589 717.865 204.995 717.865 209.196V234.3C717.865 238.501 714.459 241.907 710.258 241.907H667.896" stroke="#DEDEDE" stroke-width="1.52143"/>
<path d="M96.5 455.668H245.701C249.902 455.668 253.308 452.262 253.308 448.061V362.1V276.139C253.308 271.938 256.714 268.532 260.915 268.532H292.104" stroke="#DEDEDE" stroke-width="1.52143"/>
<path d="M150.5 455.668H245.7C249.902 455.668 253.308 452.262 253.308 448.061V362.1V276.139C253.308 271.938 256.713 268.532 260.915 268.532H292.104" stroke="#DEDEDE" stroke-width="1.52143"/>
<path d="M204 455.668H245.7C249.902 455.668 253.308 452.262 253.308 448.061V362.1V276.139C253.308 271.938 256.713 268.532 260.915 268.532H292.104" stroke="#DEDEDE" stroke-width="1.52143"/>
<path d="M739.403 455.668H714.3C710.098 455.668 706.693 452.262 706.693 448.061V362.1V276.139C706.693 271.938 703.287 268.532 699.085 268.532H667.896" stroke="#DEDEDE" stroke-width="1.52143"/>
<path d="M96 303.333H234.546C238.747 303.333 242.153 299.928 242.153 295.726V261.607C242.153 257.406 245.559 254 249.76 254H292.001" stroke="#DEDEDE" stroke-width="1.52143"/>
<path d="M150.5 303.333H234.546C238.747 303.333 242.153 299.928 242.153 295.726V261.607C242.153 257.406 245.559 254 249.76 254H292" stroke="#DEDEDE" stroke-width="1.52143"/>
<path d="M204 303.333H234.546C238.747 303.333 242.153 299.928 242.153 295.726V261.607C242.153 257.406 245.559 254 249.76 254H292" stroke="#DEDEDE" stroke-width="1.52143"/>
<path d="M97 403H234.46C238.661 403 242.067 399.594 242.067 395.393V261.607C242.067 257.406 245.473 254 249.674 254H292" stroke="#DEDEDE" stroke-width="1.52143"/>
<path d="M151 403H234.722C238.923 403 242.329 399.594 242.329 395.393V261.607C242.329 257.406 245.735 254 249.936 254H292" stroke="#DEDEDE" stroke-width="1.52143"/>
<path d="M204 403H234.545C238.747 403 242.153 399.594 242.153 395.393V261.607C242.153 257.406 245.558 254 249.76 254H292" stroke="#DEDEDE" stroke-width="1.52143"/>
<path d="M739.403 326.346H725.472C721.271 326.346 717.865 322.94 717.865 318.739V261.685C717.865 257.484 714.459 254.078 710.258 254.078H667.896" stroke="#DEDEDE" stroke-width="1.52143"/>
<path d="M36.0601 123H7.94112C3.73982 123 0.333984 126.406 0.333984 130.607V158.726C0.333984 162.927 3.73982 166.333 7.94112 166.333H36.0601C40.2615 166.333 43.6673 162.927 43.6673 158.726V130.607C43.6673 126.406 40.2615 123 36.0601 123Z" fill="#0C4A3F"/>
<path d="M35.7262 176H7.60714C3.40583 176 0 179.406 0 183.607V211.726C0 215.927 3.40583 219.333 7.60714 219.333H35.7262C39.9275 219.333 43.3333 215.927 43.3333 211.726V183.607C43.3333 179.406 39.9275 176 35.7262 176Z" fill="#0C4A3F"/>
<path d="M35.7262 281H7.60714C3.40583 281 0 284.406 0 288.607V316.726C0 320.927 3.40583 324.333 7.60714 324.333H35.7262C39.9275 324.333 43.3333 320.927 43.3333 316.726V288.607C43.3333 284.406 39.9275 281 35.7262 281Z" fill="#0C4A3F"/>
<path d="M35.7262 22H7.60714C3.40583 22 0 25.4058 0 29.6071V57.7262C0 61.9275 3.40583 65.3333 7.60714 65.3333H35.7262C39.9275 65.3333 43.3333 61.9275 43.3333 57.7262V29.6071C43.3333 25.4058 39.9275 22 35.7262 22Z" fill="#0C4A3F"/>
<path d="M88.7262 176H60.6071C56.4058 176 53 179.406 53 183.607V211.726C53 215.927 56.4058 219.333 60.6071 219.333H88.7262C92.9275 219.333 96.3333 215.927 96.3333 211.726V183.607C96.3333 179.406 92.9275 176 88.7262 176Z" fill="#0C4A3F"/>
<path d="M88.7262 281H60.6071C56.4058 281 53 284.406 53 288.607V316.726C53 320.927 56.4058 324.333 60.6071 324.333H88.7262C92.9275 324.333 96.3333 320.927 96.3333 316.726V288.607C96.3333 284.406 92.9275 281 88.7262 281Z" fill="#0C4A3F"/>
<path d="M89.0601 22H60.9411C56.7398 22 53.334 25.4058 53.334 29.6071V57.7262C53.334 61.9275 56.7398 65.3333 60.9411 65.3333H89.0601C93.2615 65.3333 96.6673 61.9275 96.6673 57.7262V29.6071C96.6673 25.4058 93.2615 22 89.0601 22Z" fill="#0C4A3F"/>
<path d="M195.726 176H167.607C163.406 176 160 179.406 160 183.607V211.726C160 215.927 163.406 219.333 167.607 219.333H195.726C199.927 219.333 203.333 215.927 203.333 211.726V183.607C203.333 179.406 199.927 176 195.726 176Z" fill="#0C4A3F"/>
<path d="M195.726 281H167.607C163.406 281 160 284.406 160 288.607V316.726C160 320.927 163.406 324.333 167.607 324.333H195.726C199.927 324.333 203.333 320.927 203.333 316.726V288.607C203.333 284.406 199.927 281 195.726 281Z" fill="#0C4A3F"/>
<path d="M141.726 176H113.607C109.406 176 106 179.406 106 183.607V211.726C106 215.927 109.406 219.333 113.607 219.333H141.726C145.927 219.333 149.333 215.927 149.333 211.726V183.607C149.333 179.406 145.927 176 141.726 176Z" fill="#0C4A3F"/>
<path d="M141.726 281H113.607C109.406 281 106 284.406 106 288.607V316.726C106 320.927 109.406 324.333 113.607 324.333H141.726C145.927 324.333 149.333 320.927 149.333 316.726V288.607C149.333 284.406 145.927 281 141.726 281Z" fill="#0C4A3F"/>
<path d="M142.392 22H114.273C110.072 22 106.666 25.4058 106.666 29.6071V57.7262C106.666 61.9275 110.072 65.3333 114.273 65.3333H142.392C146.593 65.3333 149.999 61.9275 149.999 57.7262V29.6071C149.999 25.4058 146.593 22 142.392 22Z" fill="#0C4A3F"/>
<path d="M195.726 22H167.607C163.406 22 160 25.4058 160 29.6071V57.7262C160 61.9275 163.406 65.3333 167.607 65.3333H195.726C199.927 65.3333 203.333 61.9275 203.333 57.7262V29.6071C203.333 25.4058 199.927 22 195.726 22Z" fill="#0C4A3F"/>
<path d="M88.7262 123H60.6071C56.4058 123 53 126.406 53 130.607V158.726C53 162.927 56.4058 166.333 60.6071 166.333H88.7262C92.9275 166.333 96.3333 162.927 96.3333 158.726V130.607C96.3333 126.406 92.9275 123 88.7262 123Z" fill="#0C4A3F"/>
<path d="M141.726 123H113.607C109.406 123 106 126.406 106 130.607V158.726C106 162.927 109.406 166.333 113.607 166.333H141.726C145.927 166.333 149.333 162.927 149.333 158.726V130.607C149.333 126.406 145.927 123 141.726 123Z" fill="#0C4A3F"/>
<path d="M195.726 123H167.607C163.406 123 160 126.406 160 130.607V158.726C160 162.927 163.406 166.333 167.607 166.333H195.726C199.927 166.333 203.333 162.927 203.333 158.726V130.607C203.333 126.406 199.927 123 195.726 123Z" fill="#0C4A3F"/>
<path d="M403.168 205.392H328.618C324.417 205.392 321.011 208.798 321.011 212.999V287.549C321.011 291.75 324.417 295.156 328.618 295.156H403.168C407.369 295.156 410.775 291.75 410.775 287.549V212.999C410.775 208.798 407.369 205.392 403.168 205.392Z" fill="#0C4A3F"/>
<path d="M631.382 205.392H556.832C552.631 205.392 549.225 208.798 549.225 212.999V287.549C549.225 291.75 552.631 295.156 556.832 295.156H631.382C635.584 295.156 638.989 291.75 638.989 287.549V212.999C638.989 208.798 635.584 205.392 631.382 205.392Z" fill="#0C4A3F"/>
<path d="M35.7262 381H7.60714C3.40583 381 0 384.406 0 388.607V416.726C0 420.927 3.40583 424.333 7.60714 424.333H35.7262C39.9275 424.333 43.3333 420.927 43.3333 416.726V388.607C43.3333 384.406 39.9275 381 35.7262 381Z" fill="#0C4A3F"/>
<path d="M35.7262 434.333H7.60714C3.40583 434.333 0 437.739 0 441.94V470.059C0 474.26 3.40583 477.666 7.60714 477.666H35.7262C39.9275 477.666 43.3333 474.26 43.3333 470.059V441.94C43.3333 437.739 39.9275 434.333 35.7262 434.333Z" fill="#0C4A3F"/>
<path d="M195.726 381H167.607C163.406 381 160 384.406 160 388.607V416.726C160 420.927 163.406 424.333 167.607 424.333H195.726C199.927 424.333 203.333 420.927 203.333 416.726V388.607C203.333 384.406 199.927 381 195.726 381Z" fill="#0C4A3F"/>
<path d="M89.0601 434.333H60.9411C56.7398 434.333 53.334 437.739 53.334 441.94V470.059C53.334 474.26 56.7398 477.666 60.9411 477.666H89.0601C93.2615 477.666 96.6673 474.26 96.6673 470.059V441.94C96.6673 437.739 93.2615 434.333 89.0601 434.333Z" fill="#0C4A3F"/>
<path d="M142.392 434.333H114.273C110.072 434.333 106.666 437.739 106.666 441.94V470.059C106.666 474.26 110.072 477.666 114.273 477.666H142.392C146.593 477.666 149.999 474.26 149.999 470.059V441.94C149.999 437.739 146.593 434.333 142.392 434.333Z" fill="#0C4A3F"/>
<path d="M195.726 434.333H167.607C163.406 434.333 160 437.739 160 441.94V470.059C160 474.26 163.406 477.666 167.607 477.666H195.726C199.927 477.666 203.333 474.26 203.333 470.059V441.94C203.333 437.739 199.927 434.333 195.726 434.333Z" fill="#0C4A3F"/>
<path d="M89.3922 381.333H61.2732C57.0718 381.333 53.666 384.739 53.666 388.94V417.059C53.666 421.26 57.0718 424.666 61.2732 424.666H89.3922C93.5935 424.666 96.9993 421.26 96.9993 417.059V388.94C96.9993 384.739 93.5935 381.333 89.3922 381.333Z" fill="#0C4A3F"/>
<path d="M142.06 381.333H113.941C109.74 381.333 106.334 384.739 106.334 388.94V417.059C106.334 421.26 109.74 424.666 113.941 424.666H142.06C146.261 424.666 149.667 421.26 149.667 417.059V388.94C149.667 384.739 146.261 381.333 142.06 381.333Z" fill="#0C4A3F"/>
<path d="M1.74561 371V363.332H4.07264C4.15429 363.332 4.29274 363.334 4.48799 363.337C4.68679 363.341 4.87671 363.355 5.05776 363.38C5.63996 363.462 6.12631 363.678 6.51681 364.03C6.90731 364.381 7.20019 364.828 7.39544 365.371C7.59069 365.915 7.68831 366.513 7.68831 367.166C7.68831 367.819 7.59069 368.417 7.39544 368.961C7.20019 369.504 6.90731 369.951 6.51681 370.302C6.12631 370.654 5.63996 370.87 5.05776 370.952C4.88026 370.973 4.69033 370.988 4.48799 370.995C4.28564 370.998 4.14719 371 4.07264 371H1.74561ZM2.55501 370.249H4.07264C4.21819 370.249 4.37439 370.246 4.54123 370.239C4.71164 370.228 4.85719 370.21 4.97789 370.185C5.42519 370.107 5.78551 369.926 6.05886 369.642C6.33576 369.358 6.5381 369.003 6.6659 368.577C6.79371 368.148 6.85761 367.677 6.85761 367.166C6.85761 366.651 6.79371 366.179 6.6659 365.75C6.5381 365.32 6.33576 364.965 6.05886 364.685C5.78196 364.404 5.42164 364.225 4.97789 364.147C4.85719 364.122 4.70986 364.106 4.53591 364.099C4.36551 364.088 4.21109 364.083 4.07264 364.083H2.55501V370.249ZM10.3335 371.16C9.9004 371.16 9.53653 371.082 9.24188 370.925C8.95078 370.769 8.73244 370.562 8.58689 370.302C8.44134 370.043 8.36858 369.761 8.36858 369.456C8.36858 369.143 8.43069 368.877 8.55494 368.657C8.68274 368.433 8.85493 368.251 9.07148 368.109C9.29158 367.967 9.54539 367.858 9.83294 367.784C10.124 367.713 10.4453 367.651 10.7968 367.597C11.1518 367.541 11.4979 367.493 11.8351 367.454C12.1759 367.411 12.4741 367.37 12.7297 367.331L12.4528 367.501C12.4635 366.933 12.3534 366.513 12.1227 366.239C11.8919 365.966 11.4908 365.829 10.9192 365.829C10.5252 365.829 10.1915 365.918 9.91815 366.096C9.64835 366.273 9.45843 366.554 9.34838 366.937L8.58689 366.713C8.71824 366.199 8.98273 365.799 9.38033 365.515C9.77793 365.231 10.2944 365.089 10.9299 365.089C11.4553 365.089 11.9008 365.189 12.2665 365.387C12.6357 365.583 12.8966 365.867 13.0492 366.239C13.1202 366.406 13.1664 366.593 13.1877 366.799C13.209 367.004 13.2196 367.214 13.2196 367.427V371H12.5221V369.557L12.7244 369.642C12.5292 370.136 12.2256 370.512 11.8138 370.771C11.402 371.03 10.9086 371.16 10.3335 371.16ZM10.424 370.483C10.7897 370.483 11.1092 370.418 11.3825 370.286C11.6559 370.155 11.876 369.976 12.0428 369.749C12.2097 369.518 12.3179 369.259 12.3676 368.971C12.4102 368.787 12.4333 368.584 12.4369 368.364C12.4404 368.14 12.4422 367.974 12.4422 367.864L12.7404 368.018C12.4741 368.054 12.1848 368.089 11.8724 368.124C11.5636 368.16 11.2583 368.201 10.9565 368.247C10.6583 368.293 10.3885 368.348 10.1471 368.412C9.98383 368.458 9.82584 368.524 9.67319 368.609C9.52054 368.691 9.39453 368.801 9.29513 368.939C9.19928 369.078 9.15135 369.25 9.15135 369.456C9.15135 369.623 9.19218 369.784 9.27383 369.94C9.35903 370.097 9.49392 370.226 9.67852 370.329C9.86667 370.432 10.1152 370.483 10.424 370.483ZM17.524 371C17.2009 371.067 16.8814 371.094 16.5655 371.08C16.2531 371.066 15.9726 370.998 15.7241 370.878C15.4792 370.757 15.2928 370.569 15.165 370.313C15.0621 370.1 15.0053 369.885 14.9946 369.669C14.9875 369.449 14.984 369.198 14.984 368.918V363.651H15.7614V368.886C15.7614 369.127 15.7632 369.33 15.7667 369.493C15.7738 369.653 15.8111 369.795 15.8786 369.919C16.0064 370.157 16.2087 370.299 16.4856 370.345C16.7661 370.391 17.1122 370.381 17.524 370.313V371ZM13.7539 365.92V365.249H17.524V365.92H13.7539ZM20.0895 371.16C19.6564 371.16 19.2925 371.082 18.9979 370.925C18.7068 370.769 18.4884 370.562 18.3429 370.302C18.1973 370.043 18.1246 369.761 18.1246 369.456C18.1246 369.143 18.1867 368.877 18.3109 368.657C18.4387 368.433 18.6109 368.251 18.8275 368.109C19.0476 367.967 19.3014 367.858 19.5889 367.784C19.88 367.713 20.2013 367.651 20.5528 367.597C20.9078 367.541 21.2539 367.493 21.5911 367.454C21.9319 367.411 22.2301 367.37 22.4857 367.331L22.2088 367.501C22.2195 366.933 22.1094 366.513 21.8787 366.239C21.6479 365.966 21.2468 365.829 20.6752 365.829C20.2812 365.829 19.9475 365.918 19.6741 366.096C19.4043 366.273 19.2144 366.554 19.1044 366.937L18.3429 366.713C18.4742 366.199 18.7387 365.799 19.1363 365.515C19.5339 365.231 20.0504 365.089 20.6859 365.089C21.2113 365.089 21.6568 365.189 22.0225 365.387C22.3917 365.583 22.6526 365.867 22.8052 366.239C22.8762 366.406 22.9224 366.593 22.9437 366.799C22.965 367.004 22.9756 367.214 22.9756 367.427V371H22.2781V369.557L22.4804 369.642C22.2852 370.136 21.9816 370.512 21.5698 370.771C21.158 371.03 20.6646 371.16 20.0895 371.16ZM20.18 370.483C20.5457 370.483 20.8652 370.418 21.1385 370.286C21.4119 370.155 21.632 369.976 21.7988 369.749C21.9657 369.518 22.0739 369.259 22.1236 368.971C22.1662 368.787 22.1893 368.584 22.1929 368.364C22.1964 368.14 22.1982 367.974 22.1982 367.864L22.4964 368.018C22.2301 368.054 21.9408 368.089 21.6284 368.124C21.3196 368.16 21.0143 368.201 20.7125 368.247C20.4143 368.293 20.1445 368.348 19.9031 368.412C19.7398 368.458 19.5818 368.524 19.4292 368.609C19.2765 368.691 19.1505 368.801 19.0511 368.939C18.9553 369.078 18.9073 369.25 18.9073 369.456C18.9073 369.623 18.9482 369.784 19.0298 369.94C19.115 370.097 19.2499 370.226 19.4345 370.329C19.6227 370.432 19.8712 370.483 20.18 370.483ZM26.7315 371.16C26.2025 371.16 25.7552 371.027 25.3896 370.76C25.0239 370.491 24.747 370.127 24.5589 369.669C24.3707 369.207 24.2767 368.691 24.2767 368.119C24.2767 367.537 24.3707 367.019 24.5589 366.564C24.7506 366.106 25.031 365.746 25.4002 365.483C25.7694 365.221 26.2238 365.089 26.7634 365.089C27.2888 365.089 27.7397 365.222 28.116 365.489C28.4923 365.755 28.7798 366.117 28.9786 366.575C29.181 367.033 29.2822 367.548 29.2822 368.119C29.2822 368.694 29.181 369.211 28.9786 369.669C28.7763 370.127 28.4852 370.491 28.1053 370.76C27.7255 371.027 27.2675 371.16 26.7315 371.16ZM24.1435 371V363.332H24.9316V366.671H24.8464V371H24.1435ZM26.6516 370.43C27.0528 370.43 27.3865 370.329 27.6527 370.127C27.919 369.924 28.1178 369.649 28.2491 369.301C28.384 368.95 28.4515 368.556 28.4515 368.119C28.4515 367.686 28.3858 367.296 28.2544 366.948C28.1231 366.6 27.9225 366.325 27.6527 366.122C27.3865 365.92 27.0474 365.819 26.6356 365.819C26.2345 365.819 25.9008 365.916 25.6345 366.112C25.3718 366.307 25.1748 366.578 25.0435 366.926C24.9121 367.271 24.8464 367.668 24.8464 368.119C24.8464 368.563 24.9121 368.961 25.0435 369.312C25.1748 369.66 25.3736 369.933 25.6399 370.132C25.9061 370.331 26.2434 370.43 26.6516 370.43ZM31.8839 371.16C31.4508 371.16 31.087 371.082 30.7923 370.925C30.5012 370.769 30.2829 370.562 30.1373 370.302C29.9918 370.043 29.919 369.761 29.919 369.456C29.919 369.143 29.9811 368.877 30.1054 368.657C30.2332 368.433 30.4054 368.251 30.6219 368.109C30.842 367.967 31.0958 367.858 31.3834 367.784C31.6745 367.713 31.9958 367.651 32.3472 367.597C32.7022 367.541 33.0483 367.493 33.3856 367.454C33.7264 367.411 34.0246 367.37 34.2802 367.331L34.0033 367.501C34.0139 366.933 33.9039 366.513 33.6731 366.239C33.4424 365.966 33.0412 365.829 32.4697 365.829C32.0756 365.829 31.7419 365.918 31.4686 366.096C31.1988 366.273 31.0089 366.554 30.8988 366.937L30.1373 366.713C30.2687 366.199 30.5332 365.799 30.9308 365.515C31.3284 365.231 31.8449 365.089 32.4803 365.089C33.0057 365.089 33.4513 365.189 33.8169 365.387C34.1861 365.583 34.447 365.867 34.5997 366.239C34.6707 366.406 34.7168 366.593 34.7381 366.799C34.7594 367.004 34.7701 367.214 34.7701 367.427V371H34.0725V369.557L34.2749 369.642C34.0796 370.136 33.7761 370.512 33.3643 370.771C32.9525 371.03 32.459 371.16 31.8839 371.16ZM31.9745 370.483C32.3401 370.483 32.6596 370.418 32.933 370.286C33.2063 370.155 33.4264 369.976 33.5933 369.749C33.7601 369.518 33.8684 369.259 33.9181 368.971C33.9607 368.787 33.9838 368.584 33.9873 368.364C33.9909 368.14 33.9926 367.974 33.9926 367.864L34.2908 368.018C34.0246 368.054 33.7353 368.089 33.4229 368.124C33.114 368.16 32.8087 368.201 32.507 368.247C32.2088 368.293 31.939 368.348 31.6976 368.412C31.5343 368.458 31.3763 368.524 31.2236 368.609C31.071 368.691 30.945 368.801 30.8456 368.939C30.7497 369.078 30.7018 369.25 30.7018 369.456C30.7018 369.623 30.7426 369.784 30.8243 369.94C30.9095 370.097 31.0444 370.226 31.229 370.329C31.4171 370.432 31.6656 370.483 31.9745 370.483ZM38.0893 371.154C37.4148 371.154 36.8592 371.009 36.4226 370.718C35.9895 370.427 35.7232 370.022 35.6238 369.504L36.4226 369.371C36.5078 369.697 36.7013 369.958 37.003 370.153C37.3083 370.345 37.6846 370.441 38.1319 370.441C38.5686 370.441 38.9129 370.35 39.165 370.169C39.417 369.985 39.543 369.734 39.543 369.418C39.543 369.241 39.5022 369.097 39.4206 368.987C39.3425 368.874 39.1809 368.769 38.936 368.673C38.691 368.577 38.3254 368.464 37.839 368.332C37.3172 368.19 36.9089 368.048 36.6143 367.906C36.3196 367.764 36.1102 367.601 35.9859 367.416C35.8617 367.228 35.7996 366.999 35.7996 366.729C35.7996 366.403 35.8919 366.117 36.0765 365.872C36.2611 365.624 36.5167 365.432 36.8433 365.297C37.1699 365.158 37.5497 365.089 37.9828 365.089C38.4159 365.089 38.8029 365.16 39.1437 365.302C39.488 365.441 39.7649 365.636 39.9744 365.888C40.1838 366.14 40.3081 366.433 40.3471 366.767L39.5484 366.91C39.4951 366.573 39.3265 366.307 39.0425 366.112C38.762 365.913 38.4053 365.81 37.9722 365.803C37.5639 365.792 37.232 365.87 36.9764 366.037C36.7208 366.2 36.593 366.419 36.593 366.692C36.593 366.845 36.6391 366.976 36.7314 367.086C36.8237 367.193 36.9906 367.294 37.232 367.39C37.4769 367.485 37.8248 367.59 38.2757 367.704C38.8046 367.839 39.22 367.981 39.5217 368.13C39.8235 368.279 40.0383 368.455 40.1661 368.657C40.2939 368.859 40.3578 369.11 40.3578 369.408C40.3578 369.951 40.1554 370.379 39.7507 370.691C39.3496 371 38.7958 371.154 38.0893 371.154ZM43.7593 371.16C43.1984 371.16 42.712 371.035 42.3002 370.787C41.892 370.538 41.5742 370.189 41.347 369.738C41.1198 369.287 41.0062 368.758 41.0062 368.151C41.0062 367.523 41.1181 366.98 41.3417 366.522C41.5654 366.064 41.8795 365.71 42.2842 365.462C42.6925 365.214 43.1735 365.089 43.7273 365.089C44.2953 365.089 44.7799 365.221 45.181 365.483C45.5822 365.742 45.8857 366.115 46.0916 366.602C46.2975 367.088 46.3916 367.668 46.3738 368.343H45.5751V368.066C45.5609 367.32 45.3994 366.758 45.0905 366.378C44.7852 365.998 44.3379 365.808 43.7486 365.808C43.1309 365.808 42.657 366.009 42.3268 366.41C42.0002 366.811 41.8369 367.383 41.8369 368.124C41.8369 368.849 42.0002 369.411 42.3268 369.813C42.657 370.21 43.1238 370.409 43.7273 370.409C44.1391 370.409 44.4977 370.315 44.803 370.127C45.1118 369.935 45.355 369.66 45.5325 369.301L46.262 369.584C46.0348 370.084 45.6993 370.473 45.2556 370.75C44.8154 371.023 44.3166 371.16 43.7593 371.16ZM41.56 368.343V367.688H45.9532V368.343H41.56ZM49.4885 371.154C48.814 371.154 48.2585 371.009 47.8218 370.718C47.3887 370.427 47.1225 370.022 47.0231 369.504L47.8218 369.371C47.907 369.697 48.1005 369.958 48.4022 370.153C48.7075 370.345 49.0838 370.441 49.5311 370.441C49.9678 370.441 50.3121 370.35 50.5642 370.169C50.8162 369.985 50.9423 369.734 50.9423 369.418C50.9423 369.241 50.9014 369.097 50.8198 368.987C50.7417 368.874 50.5802 368.769 50.3352 368.673C50.0903 368.577 49.7246 368.464 49.2383 368.332C48.7164 368.19 48.3082 368.048 48.0135 367.906C47.7189 367.764 47.5094 367.601 47.3852 367.416C47.2609 367.228 47.1988 366.999 47.1988 366.729C47.1988 366.403 47.2911 366.117 47.4757 365.872C47.6603 365.624 47.9159 365.432 48.2425 365.297C48.5691 365.158 48.9489 365.089 49.382 365.089C49.8151 365.089 50.2021 365.16 50.5429 365.302C50.8872 365.441 51.1641 365.636 51.3736 365.888C51.583 366.14 51.7073 366.433 51.7463 366.767L50.9476 366.91C50.8943 366.573 50.7257 366.307 50.4417 366.112C50.1613 365.913 49.8045 365.81 49.3714 365.803C48.9631 365.792 48.6312 365.87 48.3756 366.037C48.12 366.2 47.9922 366.419 47.9922 366.692C47.9922 366.845 48.0384 366.976 48.1307 367.086C48.223 367.193 48.3898 367.294 48.6312 367.39C48.8762 367.485 49.2241 367.59 49.6749 367.704C50.2039 367.839 50.6192 367.981 50.921 368.13C51.2227 368.279 51.4375 368.455 51.5653 368.657C51.6931 368.859 51.757 369.11 51.757 369.408C51.757 369.951 51.5546 370.379 51.1499 370.691C50.7488 371 50.195 371.154 49.4885 371.154Z" fill="white"/>
<path d="M898.393 22.8208H754.618C750.417 22.8208 747.011 26.2266 747.011 30.4279V104.978C747.011 109.179 750.417 112.585 754.618 112.585H898.393C902.594 112.585 906 109.179 906 104.978V30.4279C906 26.2266 902.594 22.8208 898.393 22.8208Z" fill="#0C4A3F"/>
<path d="M789.267 61.9999V49.0399H793.398C793.506 49.0399 793.719 49.0429 794.037 49.0489C794.361 49.0549 794.673 49.0759 794.973 49.1119C795.999 49.2439 796.866 49.6099 797.574 50.2099C798.288 50.8039 798.828 51.5629 799.194 52.4869C799.56 53.4109 799.743 54.4219 799.743 55.5199C799.743 56.6179 799.56 57.6289 799.194 58.5529C798.828 59.4769 798.288 60.2389 797.574 60.8389C796.866 61.4329 795.999 61.7959 794.973 61.9279C794.679 61.9639 794.37 61.9849 794.046 61.9909C793.722 61.9969 793.506 61.9999 793.398 61.9999H789.267ZM791.472 59.9569H793.398C793.578 59.9569 793.806 59.9509 794.082 59.9389C794.364 59.9269 794.613 59.8999 794.829 59.8579C795.441 59.7439 795.939 59.4709 796.323 59.0389C796.707 58.6069 796.989 58.0819 797.169 57.4639C797.355 56.8459 797.448 56.1979 797.448 55.5199C797.448 54.8179 797.355 54.1579 797.169 53.5399C796.983 52.9219 796.695 52.4029 796.305 51.9829C795.921 51.5629 795.429 51.2959 794.829 51.1819C794.613 51.1339 794.364 51.1069 794.082 51.1009C793.806 51.0889 793.578 51.0829 793.398 51.0829H791.472V59.9569ZM802.789 66.3199L804.661 61.1809L804.697 62.6929L800.458 52.2799H802.717L805.723 59.9839H805.147L808.072 52.2799H810.241L804.823 66.3199H802.789ZM817.946 61.9999V57.3199C817.946 57.0139 817.925 56.6749 817.883 56.3029C817.841 55.9309 817.742 55.5739 817.586 55.2319C817.436 54.8839 817.208 54.5989 816.902 54.3769C816.602 54.1549 816.194 54.0439 815.678 54.0439C815.402 54.0439 815.129 54.0889 814.859 54.1789C814.589 54.2689 814.343 54.4249 814.121 54.6469C813.905 54.8629 813.731 55.1629 813.599 55.5469C813.467 55.9249 813.401 56.4109 813.401 57.0049L812.114 56.4559C812.114 55.6279 812.273 54.8779 812.591 54.2059C812.915 53.5339 813.389 52.9999 814.013 52.6039C814.637 52.2019 815.405 52.0009 816.317 52.0009C817.037 52.0009 817.631 52.1209 818.099 52.3609C818.567 52.6009 818.939 52.9069 819.215 53.2789C819.491 53.6509 819.695 54.0469 819.827 54.4669C819.959 54.8869 820.043 55.2859 820.079 55.6639C820.121 56.0359 820.142 56.3389 820.142 56.5729V61.9999H817.946ZM811.205 61.9999V52.2799H813.14V55.2949H813.401V61.9999H811.205ZM824.848 62.2699C824.146 62.2699 823.552 62.1379 823.066 61.8739C822.58 61.6039 822.211 61.2469 821.959 60.8029C821.713 60.3589 821.59 59.8699 821.59 59.3359C821.59 58.8679 821.668 58.4479 821.824 58.0759C821.98 57.6979 822.22 57.3739 822.544 57.1039C822.868 56.8279 823.288 56.6029 823.804 56.4289C824.194 56.3029 824.65 56.1889 825.172 56.0869C825.7 55.9849 826.27 55.8919 826.882 55.8079C827.5 55.7179 828.145 55.6219 828.817 55.5199L828.043 55.9609C828.049 55.2889 827.899 54.7939 827.593 54.4759C827.287 54.1579 826.771 53.9989 826.045 53.9989C825.607 53.9989 825.184 54.1009 824.776 54.3049C824.368 54.5089 824.083 54.8599 823.921 55.3579L821.941 54.7369C822.181 53.9149 822.637 53.2549 823.309 52.7569C823.987 52.2589 824.899 52.0099 826.045 52.0099C826.909 52.0099 827.668 52.1509 828.322 52.4329C828.982 52.7149 829.471 53.1769 829.789 53.8189C829.963 54.1609 830.068 54.5119 830.104 54.8719C830.14 55.2259 830.158 55.6129 830.158 56.0329V61.9999H828.259V59.8939L828.574 60.2359C828.136 60.9379 827.623 61.4539 827.035 61.7839C826.453 62.1079 825.724 62.2699 824.848 62.2699ZM825.28 60.5419C825.772 60.5419 826.192 60.4549 826.54 60.2809C826.888 60.1069 827.164 59.8939 827.368 59.6419C827.578 59.3899 827.719 59.1529 827.791 58.9309C827.905 58.6549 827.968 58.3399 827.98 57.9859C827.998 57.6259 828.007 57.3349 828.007 57.1129L828.673 57.3109C828.019 57.4129 827.458 57.5029 826.99 57.5809C826.522 57.6589 826.12 57.7339 825.784 57.8059C825.448 57.8719 825.151 57.9469 824.893 58.0309C824.641 58.1209 824.428 58.2259 824.254 58.3459C824.08 58.4659 823.945 58.6039 823.849 58.7599C823.759 58.9159 823.714 59.0989 823.714 59.3089C823.714 59.5489 823.774 59.7619 823.894 59.9479C824.014 60.1279 824.188 60.2719 824.416 60.3799C824.65 60.4879 824.938 60.5419 825.28 60.5419ZM843.815 61.9999V56.0959C843.815 55.4299 843.65 54.9109 843.32 54.5389C842.99 54.1609 842.543 53.9719 841.979 53.9719C841.631 53.9719 841.319 54.0529 841.043 54.2149C840.767 54.3709 840.548 54.6049 840.386 54.9169C840.224 55.2229 840.143 55.5889 840.143 56.0149L839.18 55.4479C839.174 54.7759 839.324 54.1849 839.63 53.6749C839.942 53.1589 840.362 52.7569 840.89 52.4689C841.418 52.1809 842.006 52.0369 842.654 52.0369C843.728 52.0369 844.55 52.3609 845.12 53.0089C845.696 53.6509 845.984 54.4969 845.984 55.5469V61.9999H843.815ZM832.124 61.9999V52.2799H834.041V55.2949H834.311V61.9999H832.124ZM837.983 61.9999V56.1229C837.983 55.4449 837.818 54.9169 837.488 54.5389C837.158 54.1609 836.708 53.9719 836.138 53.9719C835.586 53.9719 835.142 54.1609 834.806 54.5389C834.476 54.9169 834.311 55.4089 834.311 56.0149L833.339 55.3669C833.339 54.7369 833.495 54.1699 833.807 53.6659C834.119 53.1619 834.539 52.7659 835.067 52.4779C835.601 52.1839 836.198 52.0369 836.858 52.0369C837.584 52.0369 838.19 52.1929 838.676 52.5049C839.168 52.8109 839.534 53.2309 839.774 53.7649C840.02 54.2929 840.143 54.8899 840.143 55.5559V61.9999H837.983ZM848.151 50.8039V48.8149H850.32V50.8039H848.151ZM848.151 61.9999V52.2799H850.32V61.9999H848.151ZM856.877 62.2699C855.875 62.2699 855.02 62.0479 854.312 61.6039C853.604 61.1539 853.061 60.5419 852.683 59.7679C852.311 58.9939 852.122 58.1179 852.116 57.1399C852.122 56.1439 852.317 55.2619 852.701 54.4939C853.091 53.7199 853.643 53.1139 854.357 52.6759C855.071 52.2319 855.92 52.0099 856.904 52.0099C858.008 52.0099 858.941 52.2889 859.703 52.8469C860.471 53.3989 860.972 54.1549 861.206 55.1149L859.046 55.6999C858.878 55.1779 858.599 54.7729 858.209 54.4849C857.819 54.1909 857.375 54.0439 856.877 54.0439C856.313 54.0439 855.848 54.1789 855.482 54.4489C855.116 54.7129 854.846 55.0789 854.672 55.5469C854.498 56.0149 854.411 56.5459 854.411 57.1399C854.411 58.0639 854.618 58.8109 855.032 59.3809C855.446 59.9509 856.061 60.2359 856.877 60.2359C857.453 60.2359 857.906 60.1039 858.236 59.8399C858.572 59.5759 858.824 59.1949 858.992 58.6969L861.206 59.1919C860.906 60.1819 860.381 60.9439 859.631 61.4779C858.881 62.0059 857.963 62.2699 856.877 62.2699ZM776.665 86.9999L772.579 74.0399H774.811L778.231 84.8939L781.696 74.0399H783.928L779.842 86.9999H776.665ZM784.749 75.8039V73.8149H786.918V75.8039H784.749ZM784.749 86.9999V77.2799H786.918V86.9999H784.749ZM793.007 87.2699C791.807 87.2699 790.832 86.9999 790.082 86.4599C789.332 85.9199 788.876 85.1609 788.714 84.1829L790.928 83.8409C791.042 84.3209 791.294 84.6989 791.684 84.9749C792.074 85.2509 792.566 85.3889 793.16 85.3889C793.682 85.3889 794.084 85.2869 794.366 85.0829C794.654 84.8729 794.798 84.5879 794.798 84.2279C794.798 84.0059 794.744 83.8289 794.636 83.6969C794.534 83.5589 794.306 83.4269 793.952 83.3009C793.598 83.1749 793.055 83.0159 792.323 82.8239C791.507 82.6079 790.859 82.3769 790.379 82.1309C789.899 81.8789 789.554 81.5819 789.344 81.2399C789.134 80.8979 789.029 80.4839 789.029 79.9979C789.029 79.3919 789.188 78.8639 789.506 78.4139C789.824 77.9639 790.268 77.6189 790.838 77.3789C791.408 77.1329 792.08 77.0099 792.854 77.0099C793.61 77.0099 794.279 77.1269 794.861 77.3609C795.449 77.5949 795.923 77.9279 796.283 78.3599C796.643 78.7919 796.865 79.2989 796.949 79.8809L794.735 80.2769C794.681 79.8629 794.492 79.5359 794.168 79.2959C793.85 79.0559 793.424 78.9209 792.89 78.8909C792.38 78.8609 791.969 78.9389 791.657 79.1249C791.345 79.3049 791.189 79.5599 791.189 79.8899C791.189 80.0759 791.252 80.2349 791.378 80.3669C791.504 80.4989 791.756 80.6309 792.134 80.7629C792.518 80.8949 793.088 81.0569 793.844 81.2489C794.618 81.4469 795.236 81.6749 795.698 81.9329C796.166 82.1849 796.502 82.4879 796.706 82.8419C796.916 83.1959 797.021 83.6249 797.021 84.1289C797.021 85.1069 796.664 85.8749 795.95 86.4329C795.242 86.9909 794.261 87.2699 793.007 87.2699ZM802.277 87.2789C801.557 87.2789 800.963 87.1589 800.495 86.9189C800.027 86.6789 799.655 86.3729 799.379 86.0009C799.103 85.6289 798.899 85.2329 798.767 84.8129C798.635 84.3929 798.548 83.9969 798.506 83.6249C798.47 83.2469 798.452 82.9409 798.452 82.7069V77.2799H800.648V81.9599C800.648 82.2599 800.669 82.5989 800.711 82.9769C800.753 83.3489 800.849 83.7089 800.999 84.0569C801.155 84.3989 801.383 84.6809 801.683 84.9029C801.989 85.1249 802.4 85.2359 802.916 85.2359C803.192 85.2359 803.465 85.1909 803.735 85.1009C804.005 85.0109 804.248 84.8579 804.464 84.6419C804.686 84.4199 804.863 84.1169 804.995 83.7329C805.127 83.3489 805.193 82.8629 805.193 82.2749L806.48 82.8239C806.48 83.6519 806.318 84.4019 805.994 85.0739C805.676 85.7459 805.205 86.2829 804.581 86.6849C803.957 87.0809 803.189 87.2789 802.277 87.2789ZM805.454 86.9999V83.9849H805.193V77.2799H807.371V86.9999H805.454ZM812.258 87.2699C811.556 87.2699 810.962 87.1379 810.476 86.8739C809.99 86.6039 809.621 86.2469 809.369 85.8029C809.123 85.3589 809 84.8699 809 84.3359C809 83.8679 809.078 83.4479 809.234 83.0759C809.39 82.6979 809.63 82.3739 809.954 82.1039C810.278 81.8279 810.698 81.6029 811.214 81.4289C811.604 81.3029 812.06 81.1889 812.582 81.0869C813.11 80.9849 813.68 80.8919 814.292 80.8079C814.91 80.7179 815.555 80.6219 816.227 80.5199L815.453 80.9609C815.459 80.2889 815.309 79.7939 815.003 79.4759C814.697 79.1579 814.181 78.9989 813.455 78.9989C813.017 78.9989 812.594 79.1009 812.186 79.3049C811.778 79.5089 811.493 79.8599 811.331 80.3579L809.351 79.7369C809.591 78.9149 810.047 78.2549 810.719 77.7569C811.397 77.2589 812.309 77.0099 813.455 77.0099C814.319 77.0099 815.078 77.1509 815.732 77.4329C816.392 77.7149 816.881 78.1769 817.199 78.8189C817.373 79.1609 817.478 79.5119 817.514 79.8719C817.55 80.2259 817.568 80.6129 817.568 81.0329V86.9999H815.669V84.8939L815.984 85.2359C815.546 85.9379 815.033 86.4539 814.445 86.7839C813.863 87.1079 813.134 87.2699 812.258 87.2699ZM812.69 85.5419C813.182 85.5419 813.602 85.4549 813.95 85.2809C814.298 85.1069 814.574 84.8939 814.778 84.6419C814.988 84.3899 815.129 84.1529 815.201 83.9309C815.315 83.6549 815.378 83.3399 815.39 82.9859C815.408 82.6259 815.417 82.3349 815.417 82.1129L816.083 82.3109C815.429 82.4129 814.868 82.5029 814.4 82.5809C813.932 82.6589 813.53 82.7339 813.194 82.8059C812.858 82.8719 812.561 82.9469 812.303 83.0309C812.051 83.1209 811.838 83.2259 811.664 83.3459C811.49 83.4659 811.355 83.6039 811.259 83.7599C811.169 83.9159 811.124 84.0989 811.124 84.3089C811.124 84.5489 811.184 84.7619 811.304 84.9479C811.424 85.1279 811.598 85.2719 811.826 85.3799C812.06 85.4879 812.348 85.5419 812.69 85.5419ZM819.731 86.9999V73.7699H821.9V86.9999H819.731ZM824.416 75.8039V73.8149H826.585V75.8039H824.416ZM824.416 86.9999V77.2799H826.585V86.9999H824.416ZM828.021 86.9999V86.7029L833.169 79.1789H828.543V77.2799H836.544V77.5859L831.414 85.1009H836.328V86.9999H828.021ZM840.331 87.2699C839.629 87.2699 839.035 87.1379 838.549 86.8739C838.063 86.6039 837.694 86.2469 837.442 85.8029C837.196 85.3589 837.073 84.8699 837.073 84.3359C837.073 83.8679 837.151 83.4479 837.307 83.0759C837.463 82.6979 837.703 82.3739 838.027 82.1039C838.351 81.8279 838.771 81.6029 839.287 81.4289C839.677 81.3029 840.133 81.1889 840.655 81.0869C841.183 80.9849 841.753 80.8919 842.365 80.8079C842.983 80.7179 843.628 80.6219 844.3 80.5199L843.526 80.9609C843.532 80.2889 843.382 79.7939 843.076 79.4759C842.77 79.1579 842.254 78.9989 841.528 78.9989C841.09 78.9989 840.667 79.1009 840.259 79.3049C839.851 79.5089 839.566 79.8599 839.404 80.3579L837.424 79.7369C837.664 78.9149 838.12 78.2549 838.792 77.7569C839.47 77.2589 840.382 77.0099 841.528 77.0099C842.392 77.0099 843.151 77.1509 843.805 77.4329C844.465 77.7149 844.954 78.1769 845.272 78.8189C845.446 79.1609 845.551 79.5119 845.587 79.8719C845.623 80.2259 845.641 80.6129 845.641 81.0329V86.9999H843.742V84.8939L844.057 85.2359C843.619 85.9379 843.106 86.4539 842.518 86.7839C841.936 87.1079 841.207 87.2699 840.331 87.2699ZM840.763 85.5419C841.255 85.5419 841.675 85.4549 842.023 85.2809C842.371 85.1069 842.647 84.8939 842.851 84.6419C843.061 84.3899 843.202 84.1529 843.274 83.9309C843.388 83.6549 843.451 83.3399 843.463 82.9859C843.481 82.6259 843.49 82.3349 843.49 82.1129L844.156 82.3109C843.502 82.4129 842.941 82.5029 842.473 82.5809C842.005 82.6589 841.603 82.7339 841.267 82.8059C840.931 82.8719 840.634 82.9469 840.376 83.0309C840.124 83.1209 839.911 83.2259 839.737 83.3459C839.563 83.4659 839.428 83.6039 839.332 83.7599C839.242 83.9159 839.197 84.0989 839.197 84.3089C839.197 84.5489 839.257 84.7619 839.377 84.9479C839.497 85.1279 839.671 85.2719 839.899 85.3799C840.133 85.4879 840.421 85.5419 840.763 85.5419ZM853.321 86.9999C852.679 87.1199 852.049 87.1709 851.431 87.1529C850.819 87.1409 850.27 87.0299 849.784 86.8199C849.298 86.6039 848.929 86.2649 848.677 85.8029C848.455 85.3829 848.338 84.9539 848.326 84.5159C848.314 84.0779 848.308 83.5829 848.308 83.0309V74.5799H850.468V82.9049C850.468 83.2949 850.471 83.6369 850.477 83.9309C850.489 84.2249 850.552 84.4649 850.666 84.6509C850.882 85.0109 851.227 85.2119 851.701 85.2539C852.175 85.2959 852.715 85.2719 853.321 85.1819V86.9999ZM846.544 78.9809V77.2799H853.321V78.9809H846.544ZM855.231 75.8039V73.8149H857.4V75.8039H855.231ZM855.231 86.9999V77.2799H857.4V86.9999H855.231ZM864.029 87.2699C863.057 87.2699 862.208 87.0509 861.482 86.6129C860.756 86.1749 860.192 85.5719 859.79 84.8039C859.394 84.0299 859.196 83.1419 859.196 82.1399C859.196 81.1199 859.4 80.2259 859.808 79.4579C860.216 78.6899 860.783 78.0899 861.509 77.6579C862.235 77.2259 863.075 77.0099 864.029 77.0099C865.007 77.0099 865.859 77.2289 866.585 77.6669C867.311 78.1049 867.875 78.7109 868.277 79.4849C868.679 80.2529 868.88 81.1379 868.88 82.1399C868.88 83.1479 868.676 84.0389 868.268 84.8129C867.866 85.5809 867.302 86.1839 866.576 86.6219C865.85 87.0539 865.001 87.2699 864.029 87.2699ZM864.029 85.2359C864.893 85.2359 865.535 84.9479 865.955 84.3719C866.375 83.7959 866.585 83.0519 866.585 82.1399C866.585 81.1979 866.372 80.4479 865.946 79.8899C865.52 79.3259 864.881 79.0439 864.029 79.0439C863.447 79.0439 862.967 79.1759 862.589 79.4399C862.217 79.6979 861.941 80.0609 861.761 80.5289C861.581 80.9909 861.491 81.5279 861.491 82.1399C861.491 83.0819 861.704 83.8349 862.13 84.3989C862.562 84.9569 863.195 85.2359 864.029 85.2359ZM877.226 86.9999V82.3199C877.226 82.0139 877.205 81.6749 877.163 81.3029C877.121 80.9309 877.022 80.5739 876.866 80.2319C876.716 79.8839 876.488 79.5989 876.182 79.3769C875.882 79.1549 875.474 79.0439 874.958 79.0439C874.682 79.0439 874.409 79.0889 874.139 79.1789C873.869 79.2689 873.623 79.4249 873.401 79.6469C873.185 79.8629 873.011 80.1629 872.879 80.5469C872.747 80.9249 872.681 81.4109 872.681 82.0049L871.394 81.4559C871.394 80.6279 871.553 79.8779 871.871 79.2059C872.195 78.5339 872.669 77.9999 873.293 77.6039C873.917 77.2019 874.685 77.0009 875.597 77.0009C876.317 77.0009 876.911 77.1209 877.379 77.3609C877.847 77.6009 878.219 77.9069 878.495 78.2789C878.771 78.6509 878.975 79.0469 879.107 79.4669C879.239 79.8869 879.323 80.2859 879.359 80.6639C879.401 81.0359 879.422 81.3389 879.422 81.5729V86.9999H877.226ZM870.485 86.9999V77.2799H872.42V80.2949H872.681V86.9999H870.485Z" fill="white"/>
<path d="M898.393 152H754.618C750.417 152 747.011 155.406 747.011 159.607V234.157C747.011 238.358 750.417 241.764 754.618 241.764H898.393C902.594 241.764 906 238.358 906 234.157V159.607C906 155.406 902.594 152 898.393 152Z" fill="#0C4A3F"/>
<path d="M807.735 203L811.821 190.04H814.998L819.084 203H816.852L813.144 191.372H813.63L809.967 203H807.735ZM810.012 200.192V198.167H816.816V200.192H810.012ZM820.351 203V190.04H825.706C825.832 190.04 825.994 190.046 826.192 190.058C826.39 190.064 826.573 190.082 826.741 190.112C827.491 190.226 828.109 190.475 828.595 190.859C829.087 191.243 829.45 191.729 829.684 192.317C829.924 192.899 830.044 193.547 830.044 194.261C830.044 194.969 829.924 195.617 829.684 196.205C829.444 196.787 829.078 197.27 828.586 197.654C828.1 198.038 827.485 198.287 826.741 198.401C826.573 198.425 826.387 198.443 826.183 198.455C825.985 198.467 825.826 198.473 825.706 198.473H822.52V203H820.351ZM822.52 196.448H825.616C825.736 196.448 825.871 196.442 826.021 196.43C826.171 196.418 826.309 196.394 826.435 196.358C826.795 196.268 827.077 196.109 827.281 195.881C827.491 195.653 827.638 195.395 827.722 195.107C827.812 194.819 827.857 194.537 827.857 194.261C827.857 193.985 827.812 193.703 827.722 193.415C827.638 193.121 827.491 192.86 827.281 192.632C827.077 192.404 826.795 192.245 826.435 192.155C826.309 192.119 826.171 192.098 826.021 192.092C825.871 192.08 825.736 192.074 825.616 192.074H822.52V196.448ZM831.487 203V190.04H833.44L837.922 199.22L842.404 190.04H844.357V203H842.332V194.693L838.354 203H837.49L833.521 194.693V203H831.487Z" fill="white"/>
</svg>
