<svg width="283" height="549" viewBox="0 0 283 549" fill="none" xmlns="http://www.w3.org/2000/svg">
<path d="M226 43V388C226 393.523 221.523 398 216 398H195" stroke="white"/>
<path d="M173 43V321C173 326.523 168.523 331 163 331H162C156.477 331 152 335.477 152 341V350.5" stroke="white"/>
<path d="M120 43V321C120 326.523 124.477 331 130 331H131C136.523 331 141 335.477 141 341V350.5" stroke="white"/>
<path d="M67 43V388C67 393.523 71.477 398 77 398H98" stroke="white"/>
<path d="M67 97V388C67 393.523 71.477 398 77 398H98.5" stroke="white"/>
<path d="M67 151V388C67 393.523 71.477 398 77 398H98" stroke="white"/>
<path d="M67 204V388C67 393.523 71.477 398 77 398H98" stroke="white"/>
<path d="M67 257V388C67 393.523 71.477 398 77 398H98" stroke="white"/>
<path d="M120 97V321C120 326.523 124.477 331 130 331H131C136.523 331 141 335.477 141 341V350.5" stroke="white"/>
<path d="M120 150.5V321C120 326.523 124.477 331 130 331H131C136.523 331 141 335.477 141 341V350.5" stroke="white"/>
<path d="M120 204V321C120 326.523 124.477 331 130 331H131C136.523 331 141 335.477 141 341V350.5" stroke="white"/>
<path d="M120 257.5V321C120 326.523 124.477 331 130 331H131C136.523 331 141 335.477 141 341V350.5" stroke="white"/>
<path d="M120 311V321C120 326.523 124.477 331 130 331H131C136.523 331 141 335.477 141 341V350.5" stroke="white"/>
<path d="M173 97V321C173 326.523 168.523 331 163 331H162C156.477 331 152 335.477 152 341V350.5" stroke="white"/>
<path d="M173 150V321C173 326.523 168.523 331 163 331H162C156.477 331 152 335.477 152 341V350.5" stroke="white"/>
<path d="M173 204V321C173 326.523 168.523 331 163 331H162C156.477 331 152 335.477 152 341V350.5" stroke="white"/>
<path d="M173 257.5V321C173 326.523 168.523 331 163 331H162C156.477 331 152 335.477 152 341V350.5" stroke="white"/>
<path d="M173 311V321C173 326.523 168.523 331 163 331H162C156.477 331 152 335.477 152 341V350.5" stroke="white"/>
<path d="M226.5 97V388C226.5 393.523 222.023 398 216.5 398H195" stroke="white"/>
<path d="M226 150V388C226 393.523 221.523 398 216 398H195" stroke="white"/>
<path d="M226 204V388C226 393.523 221.523 398 216 398H195" stroke="white"/>
<path d="M226 257V388C226 393.523 221.523 398 216 398H195" stroke="white"/>
<path d="M187.08 350.764H107.156C102.651 350.764 99 354.415 99 358.92V438.844C99 443.349 102.651 447 107.156 447H187.08C191.585 447 195.236 443.349 195.236 438.844V358.92C195.236 354.415 191.585 350.764 187.08 350.764Z" fill="#0C4A3F"/>
<path d="M79.7262 54H51.6071C47.4058 54 44 57.4058 44 61.6071V89.7262C44 93.9275 47.4058 97.3333 51.6071 97.3333H79.7262C83.9275 97.3333 87.3333 93.9275 87.3333 89.7262V61.6071C87.3333 57.4058 83.9275 54 79.7262 54Z" fill="#0C4A3F"/>
<path d="M79.7262 107H51.6071C47.4058 107 44 110.406 44 114.607V142.726C44 146.927 47.4058 150.333 51.6071 150.333H79.7262C83.9275 150.333 87.3333 146.927 87.3333 142.726V114.607C87.3333 110.406 83.9275 107 79.7262 107Z" fill="#0C4A3F"/>
<path d="M79.7262 160H51.6071C47.4058 160 44 163.406 44 167.607V195.726C44 199.927 47.4058 203.333 51.6071 203.333H79.7262C83.9275 203.333 87.3333 199.927 87.3333 195.726V167.607C87.3333 163.406 83.9275 160 79.7262 160Z" fill="#0C4A3F"/>
<path d="M79.7262 0H51.6071C47.4058 0 44 3.40583 44 7.60714V35.7262C44 39.9275 47.4058 43.3333 51.6071 43.3333H79.7262C83.9275 43.3333 87.3333 39.9275 87.3333 35.7262V7.60714C87.3333 3.40583 83.9275 0 79.7262 0Z" fill="#0C4A3F"/>
<path d="M132.726 107H104.607C100.406 107 97 110.406 97 114.607V142.726C97 146.927 100.406 150.333 104.607 150.333H132.726C136.927 150.333 140.333 146.927 140.333 142.726V114.607C140.333 110.406 136.927 107 132.726 107Z" fill="#0C4A3F"/>
<path d="M132.726 160H104.607C100.406 160 97 163.406 97 167.607V195.726C97 199.927 100.406 203.333 104.607 203.333H132.726C136.927 203.333 140.333 199.927 140.333 195.726V167.607C140.333 163.406 136.927 160 132.726 160Z" fill="#0C4A3F"/>
<path d="M132.726 0H104.607C100.406 0 97 3.40583 97 7.60714V35.7262C97 39.9275 100.406 43.3333 104.607 43.3333H132.726C136.927 43.3333 140.333 39.9275 140.333 35.7262V7.60714C140.333 3.40583 136.927 0 132.726 0Z" fill="#0C4A3F"/>
<path d="M238.726 107H210.607C206.406 107 203 110.406 203 114.607V142.726C203 146.927 206.406 150.333 210.607 150.333H238.726C242.927 150.333 246.333 146.927 246.333 142.726V114.607C246.333 110.406 242.927 107 238.726 107Z" fill="#0C4A3F"/>
<path d="M238.726 160H210.607C206.406 160 203 163.406 203 167.607V195.726C203 199.927 206.406 203.333 210.607 203.333H238.726C242.927 203.333 246.333 199.927 246.333 195.726V167.607C246.333 163.406 242.927 160 238.726 160Z" fill="#0C4A3F"/>
<path d="M185.726 107H157.607C153.406 107 150 110.406 150 114.607V142.726C150 146.927 153.406 150.333 157.607 150.333H185.726C189.927 150.333 193.333 146.927 193.333 142.726V114.607C193.333 110.406 189.927 107 185.726 107Z" fill="#0C4A3F"/>
<path d="M185.726 160H157.607C153.406 160 150 163.406 150 167.607V195.726C150 199.927 153.406 203.333 157.607 203.333H185.726C189.927 203.333 193.333 199.927 193.333 195.726V167.607C193.333 163.406 189.927 160 185.726 160Z" fill="#0C4A3F"/>
<path d="M185.726 0H157.607C153.406 0 150 3.40583 150 7.60714V35.7262C150 39.9275 153.406 43.3333 157.607 43.3333H185.726C189.927 43.3333 193.333 39.9275 193.333 35.7262V7.60714C193.333 3.40583 189.927 0 185.726 0Z" fill="#0C4A3F"/>
<path d="M238.726 0H210.607C206.406 0 203 3.40583 203 7.60714V35.7262C203 39.9275 206.406 43.3333 210.607 43.3333H238.726C242.927 43.3333 246.333 39.9275 246.333 35.7262V7.60714C246.333 3.40583 242.927 0 238.726 0Z" fill="#0C4A3F"/>
<path d="M133.726 54H105.607C101.406 54 98 57.4058 98 61.6071V89.7262C98 93.9275 101.406 97.3333 105.607 97.3333H133.726C137.927 97.3333 141.333 93.9275 141.333 89.7262V61.6071C141.333 57.4058 137.927 54 133.726 54Z" fill="#0C4A3F"/>
<path d="M186.726 54H158.607C154.406 54 151 57.4058 151 61.6071V89.7262C151 93.9275 154.406 97.3333 158.607 97.3333H186.726C190.927 97.3333 194.333 93.9275 194.333 89.7262V61.6071C194.333 57.4058 190.927 54 186.726 54Z" fill="#0C4A3F"/>
<path d="M239.726 54H211.607C207.406 54 204 57.4058 204 61.6071V89.7262C204 93.9275 207.406 97.3333 211.607 97.3333H239.726C243.927 97.3333 247.333 93.9275 247.333 89.7262V61.6071C247.333 57.4058 243.927 54 239.726 54Z" fill="#0C4A3F"/>
<path d="M79.7262 214H51.6071C47.4058 214 44 217.406 44 221.607V249.726C44 253.927 47.4058 257.333 51.6071 257.333H79.7262C83.9275 257.333 87.3333 253.927 87.3333 249.726V221.607C87.3333 217.406 83.9275 214 79.7262 214Z" fill="#0C4A3F"/>
<path d="M79.7262 267H51.6071C47.4058 267 44 270.406 44 274.607V302.726C44 306.927 47.4058 310.333 51.6071 310.333H79.7262C83.9275 310.333 87.3333 306.927 87.3333 302.726V274.607C87.3333 270.406 83.9275 267 79.7262 267Z" fill="#0C4A3F"/>
<path d="M238.726 214H210.607C206.406 214 203 217.406 203 221.607V249.726C203 253.927 206.406 257.333 210.607 257.333H238.726C242.927 257.333 246.333 253.927 246.333 249.726V221.607C246.333 217.406 242.927 214 238.726 214Z" fill="#0C4A3F"/>
<path d="M132.726 267H104.607C100.406 267 97 270.406 97 274.607V302.726C97 306.927 100.406 310.333 104.607 310.333H132.726C136.927 310.333 140.333 306.927 140.333 302.726V274.607C140.333 270.406 136.927 267 132.726 267Z" fill="#0C4A3F"/>
<path d="M185.726 267H157.607C153.406 267 150 270.406 150 274.607V302.726C150 306.927 153.406 310.333 157.607 310.333H185.726C189.927 310.333 193.333 306.927 193.333 302.726V274.607C193.333 270.406 189.927 267 185.726 267Z" fill="#0C4A3F"/>
<path d="M238.726 267H210.607C206.406 267 203 270.406 203 274.607V302.726C203 306.927 206.406 310.333 210.607 310.333H238.726C242.927 310.333 246.333 306.927 246.333 302.726V274.607C246.333 270.406 242.927 267 238.726 267Z" fill="#0C4A3F"/>
<path d="M132.726 214H104.607C100.406 214 97 217.406 97 221.607V249.726C97 253.927 100.406 257.333 104.607 257.333H132.726C136.927 257.333 140.333 253.927 140.333 249.726V221.607C140.333 217.406 136.927 214 132.726 214Z" fill="#0C4A3F"/>
<path d="M185.726 214H157.607C153.406 214 150 217.406 150 221.607V249.726C150 253.927 153.406 257.333 157.607 257.333H185.726C189.927 257.333 193.333 253.927 193.333 249.726V221.607C193.333 217.406 189.927 214 185.726 214Z" fill="#0C4A3F"/>
</svg>
