<svg width="608" height="361" viewBox="0 0 608 361" fill="none" xmlns="http://www.w3.org/2000/svg">
<line x1="89" y1="317.5" x2="608" y2="317.5" stroke="#494949"/>
<path d="M476.112 349V344.28L472.192 337.48H474.44L477.088 342.072L479.728 337.48H481.976L478.064 344.28V349H476.112ZM486.06 349.24C485.186 349.24 484.418 349.051 483.756 348.672C483.095 348.293 482.578 347.768 482.204 347.096C481.836 346.424 481.652 345.651 481.652 344.776C481.652 343.832 481.834 343.013 482.196 342.32C482.559 341.621 483.063 341.08 483.708 340.696C484.354 340.312 485.1 340.12 485.948 340.12C486.844 340.12 487.604 340.331 488.228 340.752C488.858 341.168 489.324 341.757 489.628 342.52C489.932 343.283 490.047 344.181 489.972 345.216H488.06V344.512C488.055 343.573 487.89 342.888 487.564 342.456C487.239 342.024 486.727 341.808 486.028 341.808C485.239 341.808 484.652 342.053 484.268 342.544C483.884 343.029 483.692 343.741 483.692 344.68C483.692 345.555 483.884 346.232 484.268 346.712C484.652 347.192 485.212 347.432 485.948 347.432C486.423 347.432 486.831 347.328 487.172 347.12C487.519 346.907 487.786 346.6 487.972 346.2L489.876 346.776C489.546 347.555 489.034 348.16 488.34 348.592C487.652 349.024 486.892 349.24 486.06 349.24ZM483.084 345.216V343.76H489.028V345.216H483.084ZM494.337 349.24C493.713 349.24 493.185 349.123 492.753 348.888C492.321 348.648 491.993 348.331 491.769 347.936C491.55 347.541 491.441 347.107 491.441 346.632C491.441 346.216 491.51 345.843 491.649 345.512C491.788 345.176 492.001 344.888 492.289 344.648C492.577 344.403 492.95 344.203 493.409 344.048C493.756 343.936 494.161 343.835 494.625 343.744C495.094 343.653 495.601 343.571 496.145 343.496C496.694 343.416 497.268 343.331 497.865 343.24L497.177 343.632C497.182 343.035 497.049 342.595 496.777 342.312C496.505 342.029 496.046 341.888 495.401 341.888C495.012 341.888 494.636 341.979 494.273 342.16C493.91 342.341 493.657 342.653 493.513 343.096L491.753 342.544C491.966 341.813 492.372 341.227 492.969 340.784C493.572 340.341 494.382 340.12 495.401 340.12C496.169 340.12 496.844 340.245 497.425 340.496C498.012 340.747 498.446 341.157 498.729 341.728C498.884 342.032 498.977 342.344 499.009 342.664C499.041 342.979 499.057 343.323 499.057 343.696V349H497.369V347.128L497.649 347.432C497.26 348.056 496.804 348.515 496.281 348.808C495.764 349.096 495.116 349.24 494.337 349.24ZM494.721 347.704C495.158 347.704 495.532 347.627 495.841 347.472C496.15 347.317 496.396 347.128 496.577 346.904C496.764 346.68 496.889 346.469 496.953 346.272C497.054 346.027 497.11 345.747 497.121 345.432C497.137 345.112 497.145 344.853 497.145 344.656L497.737 344.832C497.156 344.923 496.657 345.003 496.241 345.072C495.825 345.141 495.468 345.208 495.169 345.272C494.87 345.331 494.606 345.397 494.377 345.472C494.153 345.552 493.964 345.645 493.809 345.752C493.654 345.859 493.534 345.981 493.449 346.12C493.369 346.259 493.329 346.421 493.329 346.608C493.329 346.821 493.382 347.011 493.489 347.176C493.596 347.336 493.75 347.464 493.953 347.56C494.161 347.656 494.417 347.704 494.721 347.704ZM501.46 349V340.36H503.164V342.464L502.956 342.192C503.062 341.904 503.204 341.643 503.38 341.408C503.561 341.168 503.777 340.971 504.028 340.816C504.241 340.672 504.476 340.56 504.732 340.48C504.993 340.395 505.26 340.344 505.532 340.328C505.804 340.307 506.068 340.317 506.324 340.36V342.16C506.068 342.085 505.772 342.061 505.436 342.088C505.105 342.115 504.806 342.208 504.54 342.368C504.273 342.512 504.054 342.696 503.884 342.92C503.718 343.144 503.596 343.4 503.516 343.688C503.436 343.971 503.396 344.277 503.396 344.608V349H501.46ZM508.33 349V337.24H510.258V349H508.33ZM514.111 352.84L515.775 348.272L515.807 349.616L512.039 340.36H514.047L516.719 347.208H516.207L518.807 340.36H520.735L515.919 352.84H514.111Z" fill="#DEDEDE"/>
<g filter="url(#filter0_d_2118_877)">
<mask id="path-3-outside-1_2118_877" maskUnits="userSpaceOnUse" x="172" y="336" width="68" height="18" fill="black">
<rect fill="white" x="172" y="336" width="68" height="18"/>
<path d="M173.176 349V337.48H174.912L178.896 345.64L182.88 337.48H184.616V349H182.816V341.616L179.28 349H178.512L174.984 341.616V349H173.176ZM190.999 349.24C190.135 349.24 189.38 349.045 188.735 348.656C188.09 348.267 187.588 347.731 187.231 347.048C186.879 346.36 186.703 345.571 186.703 344.68C186.703 343.773 186.884 342.979 187.247 342.296C187.61 341.613 188.114 341.08 188.759 340.696C189.404 340.312 190.151 340.12 190.999 340.12C191.868 340.12 192.626 340.315 193.271 340.704C193.916 341.093 194.418 341.632 194.775 342.32C195.132 343.003 195.311 343.789 195.311 344.68C195.311 345.576 195.13 346.368 194.767 347.056C194.41 347.739 193.908 348.275 193.263 348.664C192.618 349.048 191.863 349.24 190.999 349.24ZM190.999 347.432C191.767 347.432 192.338 347.176 192.711 346.664C193.084 346.152 193.271 345.491 193.271 344.68C193.271 343.843 193.082 343.176 192.703 342.68C192.324 342.179 191.756 341.928 190.999 341.928C190.482 341.928 190.055 342.045 189.719 342.28C189.388 342.509 189.143 342.832 188.983 343.248C188.823 343.659 188.743 344.136 188.743 344.68C188.743 345.517 188.932 346.187 189.311 346.688C189.695 347.184 190.258 347.432 190.999 347.432ZM203.37 349V344.84C203.37 344.568 203.351 344.267 203.314 343.936C203.276 343.605 203.188 343.288 203.05 342.984C202.916 342.675 202.714 342.421 202.442 342.224C202.175 342.027 201.812 341.928 201.354 341.928C201.108 341.928 200.866 341.968 200.626 342.048C200.386 342.128 200.167 342.267 199.97 342.464C199.778 342.656 199.623 342.923 199.506 343.264C199.388 343.6 199.33 344.032 199.33 344.56L198.186 344.072C198.186 343.336 198.327 342.669 198.61 342.072C198.898 341.475 199.319 341 199.874 340.648C200.428 340.291 201.111 340.112 201.922 340.112C202.562 340.112 203.09 340.219 203.506 340.432C203.922 340.645 204.252 340.917 204.498 341.248C204.743 341.579 204.924 341.931 205.042 342.304C205.159 342.677 205.234 343.032 205.266 343.368C205.303 343.699 205.322 343.968 205.322 344.176V349H203.37ZM197.378 349V340.36H199.098V343.04H199.33V349H197.378ZM212.793 349C212.223 349.107 211.663 349.152 211.113 349.136C210.569 349.125 210.081 349.027 209.649 348.84C209.217 348.648 208.889 348.347 208.665 347.936C208.468 347.563 208.364 347.181 208.353 346.792C208.343 346.403 208.337 345.963 208.337 345.472V337.96H210.257V345.36C210.257 345.707 210.26 346.011 210.265 346.272C210.276 346.533 210.332 346.747 210.433 346.912C210.625 347.232 210.932 347.411 211.353 347.448C211.775 347.485 212.255 347.464 212.793 347.384V349ZM206.769 341.872V340.36H212.793V341.872H206.769ZM220.947 349V344.84C220.947 344.568 220.929 344.267 220.891 343.936C220.854 343.605 220.766 343.288 220.627 342.984C220.494 342.675 220.291 342.421 220.019 342.224C219.753 342.027 219.39 341.928 218.931 341.928C218.686 341.928 218.443 341.968 218.203 342.048C217.963 342.128 217.745 342.267 217.547 342.464C217.355 342.656 217.201 342.923 217.083 343.264C216.966 343.6 216.907 344.032 216.907 344.56L215.763 344.072C215.763 343.336 215.905 342.669 216.187 342.072C216.475 341.475 216.897 341 217.451 340.648C218.006 340.291 218.689 340.112 219.499 340.112C220.139 340.112 220.667 340.219 221.083 340.432C221.499 340.645 221.83 340.917 222.075 341.248C222.321 341.579 222.502 341.931 222.619 342.304C222.737 342.677 222.811 343.032 222.843 343.368C222.881 343.699 222.899 343.968 222.899 344.176V349H220.947ZM214.955 349V337.48H216.675V343.544H216.907V349H214.955ZM225.467 349V337.24H227.395V349H225.467ZM231.247 352.84L232.911 348.272L232.943 349.616L229.175 340.36H231.183L233.855 347.208H233.343L235.943 340.36H237.871L233.055 352.84H231.247Z"/>
</mask>
<path d="M173.176 349V337.48H174.912L178.896 345.64L182.88 337.48H184.616V349H182.816V341.616L179.28 349H178.512L174.984 341.616V349H173.176ZM190.999 349.24C190.135 349.24 189.38 349.045 188.735 348.656C188.09 348.267 187.588 347.731 187.231 347.048C186.879 346.36 186.703 345.571 186.703 344.68C186.703 343.773 186.884 342.979 187.247 342.296C187.61 341.613 188.114 341.08 188.759 340.696C189.404 340.312 190.151 340.12 190.999 340.12C191.868 340.12 192.626 340.315 193.271 340.704C193.916 341.093 194.418 341.632 194.775 342.32C195.132 343.003 195.311 343.789 195.311 344.68C195.311 345.576 195.13 346.368 194.767 347.056C194.41 347.739 193.908 348.275 193.263 348.664C192.618 349.048 191.863 349.24 190.999 349.24ZM190.999 347.432C191.767 347.432 192.338 347.176 192.711 346.664C193.084 346.152 193.271 345.491 193.271 344.68C193.271 343.843 193.082 343.176 192.703 342.68C192.324 342.179 191.756 341.928 190.999 341.928C190.482 341.928 190.055 342.045 189.719 342.28C189.388 342.509 189.143 342.832 188.983 343.248C188.823 343.659 188.743 344.136 188.743 344.68C188.743 345.517 188.932 346.187 189.311 346.688C189.695 347.184 190.258 347.432 190.999 347.432ZM203.37 349V344.84C203.37 344.568 203.351 344.267 203.314 343.936C203.276 343.605 203.188 343.288 203.05 342.984C202.916 342.675 202.714 342.421 202.442 342.224C202.175 342.027 201.812 341.928 201.354 341.928C201.108 341.928 200.866 341.968 200.626 342.048C200.386 342.128 200.167 342.267 199.97 342.464C199.778 342.656 199.623 342.923 199.506 343.264C199.388 343.6 199.33 344.032 199.33 344.56L198.186 344.072C198.186 343.336 198.327 342.669 198.61 342.072C198.898 341.475 199.319 341 199.874 340.648C200.428 340.291 201.111 340.112 201.922 340.112C202.562 340.112 203.09 340.219 203.506 340.432C203.922 340.645 204.252 340.917 204.498 341.248C204.743 341.579 204.924 341.931 205.042 342.304C205.159 342.677 205.234 343.032 205.266 343.368C205.303 343.699 205.322 343.968 205.322 344.176V349H203.37ZM197.378 349V340.36H199.098V343.04H199.33V349H197.378ZM212.793 349C212.223 349.107 211.663 349.152 211.113 349.136C210.569 349.125 210.081 349.027 209.649 348.84C209.217 348.648 208.889 348.347 208.665 347.936C208.468 347.563 208.364 347.181 208.353 346.792C208.343 346.403 208.337 345.963 208.337 345.472V337.96H210.257V345.36C210.257 345.707 210.26 346.011 210.265 346.272C210.276 346.533 210.332 346.747 210.433 346.912C210.625 347.232 210.932 347.411 211.353 347.448C211.775 347.485 212.255 347.464 212.793 347.384V349ZM206.769 341.872V340.36H212.793V341.872H206.769ZM220.947 349V344.84C220.947 344.568 220.929 344.267 220.891 343.936C220.854 343.605 220.766 343.288 220.627 342.984C220.494 342.675 220.291 342.421 220.019 342.224C219.753 342.027 219.39 341.928 218.931 341.928C218.686 341.928 218.443 341.968 218.203 342.048C217.963 342.128 217.745 342.267 217.547 342.464C217.355 342.656 217.201 342.923 217.083 343.264C216.966 343.6 216.907 344.032 216.907 344.56L215.763 344.072C215.763 343.336 215.905 342.669 216.187 342.072C216.475 341.475 216.897 341 217.451 340.648C218.006 340.291 218.689 340.112 219.499 340.112C220.139 340.112 220.667 340.219 221.083 340.432C221.499 340.645 221.83 340.917 222.075 341.248C222.321 341.579 222.502 341.931 222.619 342.304C222.737 342.677 222.811 343.032 222.843 343.368C222.881 343.699 222.899 343.968 222.899 344.176V349H220.947ZM214.955 349V337.48H216.675V343.544H216.907V349H214.955ZM225.467 349V337.24H227.395V349H225.467ZM231.247 352.84L232.911 348.272L232.943 349.616L229.175 340.36H231.183L233.855 347.208H233.343L235.943 340.36H237.871L233.055 352.84H231.247Z" fill="#DEDEDE"/>
<path d="M173.176 349H172.176V350H173.176V349ZM173.176 337.48V336.48H172.176V337.48H173.176ZM174.912 337.48L175.81 337.041L175.536 336.48H174.912V337.48ZM178.896 345.64L177.997 346.079L178.896 347.919L179.794 346.079L178.896 345.64ZM182.88 337.48V336.48H182.255L181.981 337.041L182.88 337.48ZM184.616 337.48H185.616V336.48H184.616V337.48ZM184.616 349V350H185.616V349H184.616ZM182.816 349H181.816V350H182.816V349ZM182.816 341.616H183.816L181.914 341.184L182.816 341.616ZM179.28 349V350H179.91L180.182 349.432L179.28 349ZM178.512 349L177.609 349.431L177.881 350H178.512V349ZM174.984 341.616L175.886 341.185L173.984 341.616H174.984ZM174.984 349V350H175.984V349H174.984ZM174.176 349V337.48H172.176V349H174.176ZM173.176 338.48H174.912V336.48H173.176V338.48ZM174.013 337.919L177.997 346.079L179.794 345.201L175.81 337.041L174.013 337.919ZM179.794 346.079L183.778 337.919L181.981 337.041L177.997 345.201L179.794 346.079ZM182.88 338.48H184.616V336.48H182.88V338.48ZM183.616 337.48V349H185.616V337.48H183.616ZM184.616 348H182.816V350H184.616V348ZM183.816 349V341.616H181.816V349H183.816ZM181.914 341.184L178.378 348.568L180.182 349.432L183.718 342.048L181.914 341.184ZM179.28 348H178.512V350H179.28V348ZM179.414 348.569L175.886 341.185L174.081 342.047L177.609 349.431L179.414 348.569ZM173.984 341.616V349H175.984V341.616H173.984ZM174.984 348H173.176V350H174.984V348ZM188.735 348.656L189.252 347.8L188.735 348.656ZM187.231 347.048L186.341 347.503L186.345 347.512L187.231 347.048ZM187.247 342.296L186.364 341.827L187.247 342.296ZM188.759 340.696L188.248 339.837V339.837L188.759 340.696ZM193.271 340.704L193.788 339.848L193.271 340.704ZM194.775 342.32L193.888 342.781L193.889 342.784L194.775 342.32ZM194.767 347.056L193.883 346.59L193.881 346.592L194.767 347.056ZM193.263 348.664L193.774 349.523L193.78 349.52L193.263 348.664ZM192.711 346.664L191.903 346.075V346.075L192.711 346.664ZM192.703 342.68L191.905 343.283L191.908 343.287L192.703 342.68ZM189.719 342.28L190.289 343.102L190.292 343.1L189.719 342.28ZM188.983 343.248L189.915 343.611L189.916 343.607L188.983 343.248ZM189.311 346.688L188.513 347.291L188.52 347.3L189.311 346.688ZM190.999 348.24C190.29 348.24 189.719 348.082 189.252 347.8L188.219 349.512C189.041 350.009 189.98 350.24 190.999 350.24V348.24ZM189.252 347.8C188.767 347.507 188.392 347.109 188.117 346.584L186.345 347.512C186.785 348.353 187.413 349.026 188.219 349.512L189.252 347.8ZM188.121 346.593C187.852 346.066 187.703 345.437 187.703 344.68H185.703C185.703 345.705 185.906 346.654 186.341 347.503L188.121 346.593ZM187.703 344.68C187.703 343.909 187.857 343.28 188.13 342.765L186.364 341.827C185.912 342.677 185.703 343.638 185.703 344.68H187.703ZM188.13 342.765C188.41 342.239 188.787 341.843 189.27 341.555L188.248 339.837C187.44 340.317 186.81 340.988 186.364 341.827L188.13 342.765ZM189.27 341.555C189.742 341.275 190.307 341.12 190.999 341.12V339.12C189.995 339.12 189.067 339.349 188.248 339.837L189.27 341.555ZM190.999 341.12C191.715 341.12 192.288 341.279 192.755 341.56L193.788 339.848C192.964 339.351 192.022 339.12 190.999 339.12V341.12ZM192.755 341.56C193.238 341.852 193.613 342.251 193.888 342.781L195.663 341.859C195.223 341.013 194.595 340.335 193.788 339.848L192.755 341.56ZM193.889 342.784C194.161 343.302 194.311 343.926 194.311 344.68H196.311C196.311 343.653 196.104 342.703 195.661 341.856L193.889 342.784ZM194.311 344.68C194.311 345.438 194.159 346.066 193.883 346.59L195.652 347.522C196.101 346.67 196.311 345.714 196.311 344.68H194.311ZM193.881 346.592C193.607 347.117 193.232 347.515 192.747 347.808L193.78 349.52C194.585 349.034 195.213 348.361 195.653 347.52L193.881 346.592ZM192.752 347.805C192.283 348.083 191.711 348.24 190.999 348.24V350.24C192.016 350.24 192.952 350.013 193.774 349.523L192.752 347.805ZM190.999 348.432C192.01 348.432 192.917 348.079 193.519 347.253L191.903 346.075C191.759 346.273 191.524 346.432 190.999 346.432V348.432ZM193.519 347.253C194.048 346.528 194.271 345.643 194.271 344.68H192.271C192.271 345.338 192.121 345.776 191.903 346.075L193.519 347.253ZM194.271 344.68C194.271 343.698 194.049 342.795 193.498 342.073L191.908 343.287C192.115 343.557 192.271 343.988 192.271 344.68H194.271ZM193.501 342.077C192.894 341.273 191.998 340.928 190.999 340.928V342.928C191.515 342.928 191.755 343.084 191.905 343.283L193.501 342.077ZM190.999 340.928C190.331 340.928 189.69 341.081 189.147 341.46L190.292 343.1C190.42 343.01 190.633 342.928 190.999 342.928V340.928ZM189.149 341.458C188.636 341.814 188.274 342.307 188.05 342.889L189.916 343.607C190.013 343.357 190.141 343.205 190.289 343.102L189.149 341.458ZM188.051 342.885C187.837 343.435 187.743 344.04 187.743 344.68H189.743C189.743 344.232 189.809 343.882 189.915 343.611L188.051 342.885ZM187.743 344.68C187.743 345.663 187.966 346.566 188.513 347.291L190.109 346.085C189.899 345.807 189.743 345.372 189.743 344.68H187.743ZM188.52 347.3C189.129 348.087 190.012 348.432 190.999 348.432V346.432C190.504 346.432 190.261 346.281 190.102 346.076L188.52 347.3ZM203.37 349H202.37V350H203.37V349ZM203.314 343.936L204.307 343.824V343.824L203.314 343.936ZM203.05 342.984L202.131 343.38L202.136 343.389L202.14 343.399L203.05 342.984ZM202.442 342.224L201.847 343.028L201.855 343.033L202.442 342.224ZM200.626 342.048L200.942 342.997L200.626 342.048ZM199.97 342.464L199.263 341.757L199.97 342.464ZM199.506 343.264L200.45 343.594L200.451 343.589L199.506 343.264ZM199.33 344.56L198.937 345.48L200.33 346.074V344.56H199.33ZM198.186 344.072H197.186V344.733L197.793 344.992L198.186 344.072ZM198.61 342.072L197.709 341.638L197.706 341.644L198.61 342.072ZM199.874 340.648L200.41 341.492L200.415 341.489L199.874 340.648ZM203.506 340.432L203.962 339.542L203.962 339.542L203.506 340.432ZM204.498 341.248L203.695 341.844V341.844L204.498 341.248ZM205.042 342.304L205.996 342.004L205.996 342.004L205.042 342.304ZM205.266 343.368L204.27 343.463L204.271 343.472L204.272 343.48L205.266 343.368ZM205.322 349V350H206.322V349H205.322ZM197.378 349H196.378V350H197.378V349ZM197.378 340.36V339.36H196.378V340.36H197.378ZM199.098 340.36H200.098V339.36H199.098V340.36ZM199.098 343.04H198.098V344.04H199.098V343.04ZM199.33 343.04H200.33V342.04H199.33V343.04ZM199.33 349V350H200.33V349H199.33ZM204.37 349V344.84H202.37V349H204.37ZM204.37 344.84C204.37 344.523 204.348 344.184 204.307 343.824L202.32 344.048C202.354 344.349 202.37 344.613 202.37 344.84H204.37ZM204.307 343.824C204.258 343.388 204.142 342.968 203.96 342.569L202.14 343.399C202.235 343.608 202.295 343.823 202.32 344.048L204.307 343.824ZM203.968 342.588C203.764 342.114 203.447 341.718 203.029 341.415L201.855 343.033C201.981 343.125 202.069 343.235 202.131 343.38L203.968 342.588ZM203.037 341.42C202.543 341.055 201.946 340.928 201.354 340.928V342.928C201.678 342.928 201.807 342.999 201.847 343.028L203.037 341.42ZM201.354 340.928C200.998 340.928 200.648 340.986 200.31 341.099L200.942 342.997C201.083 342.95 201.219 342.928 201.354 342.928V340.928ZM200.31 341.099C199.908 341.233 199.558 341.461 199.263 341.757L200.677 343.171C200.776 343.072 200.864 343.023 200.942 342.997L200.31 341.099ZM199.263 341.757C198.934 342.086 198.711 342.499 198.56 342.939L200.451 343.589C200.535 343.346 200.622 343.226 200.677 343.171L199.263 341.757ZM198.562 342.934C198.394 343.414 198.33 343.969 198.33 344.56H200.33C200.33 344.095 200.383 343.786 200.45 343.594L198.562 342.934ZM199.722 343.64L198.578 343.152L197.793 344.992L198.937 345.48L199.722 343.64ZM199.186 344.072C199.186 343.467 199.301 342.949 199.514 342.5L197.706 341.644C197.353 342.39 197.186 343.205 197.186 344.072H199.186ZM199.511 342.506C199.718 342.075 200.014 341.743 200.41 341.492L199.338 339.804C198.624 340.257 198.077 340.874 197.709 341.638L199.511 342.506ZM200.415 341.489C200.775 341.257 201.259 341.112 201.922 341.112V339.112C200.963 339.112 200.082 339.324 199.332 339.807L200.415 341.489ZM201.922 341.112C202.459 341.112 202.817 341.203 203.049 341.322L203.962 339.542C203.363 339.235 202.665 339.112 201.922 339.112V341.112ZM203.049 341.322C203.347 341.475 203.553 341.652 203.695 341.844L205.301 340.652C204.952 340.182 204.496 339.816 203.962 339.542L203.049 341.322ZM203.695 341.844C203.877 342.09 204.006 342.342 204.088 342.604L205.996 342.004C205.843 341.519 205.609 341.068 205.301 340.652L203.695 341.844ZM204.088 342.604C204.187 342.921 204.246 343.206 204.27 343.463L206.261 343.273C206.222 342.858 206.131 342.434 205.996 342.004L204.088 342.604ZM204.272 343.48C204.307 343.793 204.322 344.021 204.322 344.176H206.322C206.322 343.915 206.299 343.605 206.259 343.256L204.272 343.48ZM204.322 344.176V349H206.322V344.176H204.322ZM205.322 348H203.37V350H205.322V348ZM198.378 349V340.36H196.378V349H198.378ZM197.378 341.36H199.098V339.36H197.378V341.36ZM198.098 340.36V343.04H200.098V340.36H198.098ZM199.098 344.04H199.33V342.04H199.098V344.04ZM198.33 343.04V349H200.33V343.04H198.33ZM199.33 348H197.378V350H199.33V348ZM212.793 349L212.977 349.983L213.793 349.83V349H212.793ZM211.113 349.136L211.142 348.136L211.133 348.136L211.113 349.136ZM209.649 348.84L209.243 349.754L209.253 349.758L209.649 348.84ZM208.665 347.936L207.781 348.403L207.787 348.415L208.665 347.936ZM208.353 346.792L209.353 346.765L208.353 346.792ZM208.337 337.96V336.96H207.337V337.96H208.337ZM210.257 337.96H211.257V336.96H210.257V337.96ZM210.265 346.272L209.266 346.292L209.266 346.303L209.266 346.313L210.265 346.272ZM210.433 346.912L211.291 346.397L211.286 346.389L210.433 346.912ZM211.353 347.448L211.442 346.452L211.353 347.448ZM212.793 347.384H213.793V346.225L212.646 346.395L212.793 347.384ZM206.769 341.872H205.769V342.872H206.769V341.872ZM206.769 340.36V339.36H205.769V340.36H206.769ZM212.793 340.36H213.793V339.36H212.793V340.36ZM212.793 341.872V342.872H213.793V341.872H212.793ZM212.61 348.017C212.105 348.111 211.617 348.15 211.142 348.136L211.084 350.136C211.709 350.154 212.34 350.102 212.977 349.983L212.61 348.017ZM211.133 348.136C210.699 348.128 210.342 348.05 210.046 347.922L209.253 349.758C209.821 350.004 210.44 350.123 211.094 350.136L211.133 348.136ZM210.056 347.926C209.822 347.822 209.661 347.673 209.543 347.457L207.787 348.415C208.118 349.021 208.613 349.474 209.243 349.754L210.056 347.926ZM209.549 347.469C209.418 347.22 209.359 346.988 209.353 346.765L207.354 346.819C207.369 347.375 207.518 347.906 207.781 348.403L209.549 347.469ZM209.353 346.765C209.343 346.386 209.337 345.956 209.337 345.472H207.337C207.337 345.97 207.343 346.419 207.354 346.819L209.353 346.765ZM209.337 345.472V337.96H207.337V345.472H209.337ZM208.337 338.96H210.257V336.96H208.337V338.96ZM209.257 337.96V345.36H211.257V337.96H209.257ZM209.257 345.36C209.257 345.711 209.26 346.022 209.266 346.292L211.265 346.252C211.26 345.999 211.257 345.702 211.257 345.36H209.257ZM209.266 346.313C209.282 346.687 209.365 347.082 209.581 347.435L211.286 346.389C211.3 346.412 211.271 346.379 211.265 346.231L209.266 346.313ZM209.576 347.426C209.956 348.06 210.574 348.383 211.265 348.444L211.442 346.452C211.35 346.444 211.315 346.424 211.311 346.422C211.308 346.42 211.307 346.419 211.306 346.418C211.305 346.417 211.299 346.411 211.291 346.398L209.576 347.426ZM211.265 348.444C211.783 348.49 212.345 348.462 212.94 348.373L212.646 346.395C212.165 346.466 211.766 346.481 211.442 346.452L211.265 348.444ZM211.793 347.384V349H213.793V347.384H211.793ZM207.769 341.872V340.36H205.769V341.872H207.769ZM206.769 341.36H212.793V339.36H206.769V341.36ZM211.793 340.36V341.872H213.793V340.36H211.793ZM212.793 340.872H206.769V342.872H212.793V340.872ZM220.947 349H219.947V350H220.947V349ZM220.891 343.936L221.885 343.824V343.824L220.891 343.936ZM220.627 342.984L219.709 343.38L219.713 343.389L219.717 343.399L220.627 342.984ZM220.019 342.224L219.424 343.028L219.432 343.033L220.019 342.224ZM218.203 342.048L218.519 342.997L218.203 342.048ZM217.547 342.464L216.84 341.757L217.547 342.464ZM217.083 343.264L218.027 343.594L218.029 343.589L217.083 343.264ZM216.907 344.56L216.515 345.48L217.907 346.074V344.56H216.907ZM215.763 344.072H214.763V344.733L215.371 344.992L215.763 344.072ZM216.187 342.072L215.286 341.638L215.283 341.644L216.187 342.072ZM217.451 340.648L217.987 341.492L217.993 341.489L217.451 340.648ZM221.083 340.432L221.54 339.542V339.542L221.083 340.432ZM222.075 341.248L221.272 341.844V341.844L222.075 341.248ZM222.619 342.304L223.573 342.004L223.573 342.004L222.619 342.304ZM222.843 343.368L221.848 343.463L221.849 343.472L221.85 343.48L222.843 343.368ZM222.899 349V350H223.899V349H222.899ZM214.955 349H213.955V350H214.955V349ZM214.955 337.48V336.48H213.955V337.48H214.955ZM216.675 337.48H217.675V336.48H216.675V337.48ZM216.675 343.544H215.675V344.544H216.675V343.544ZM216.907 343.544H217.907V342.544H216.907V343.544ZM216.907 349V350H217.907V349H216.907ZM221.947 349V344.84H219.947V349H221.947ZM221.947 344.84C221.947 344.523 221.926 344.184 221.885 343.824L219.898 344.048C219.932 344.349 219.947 344.613 219.947 344.84H221.947ZM221.885 343.824C221.836 343.388 221.719 342.968 221.537 342.569L219.717 343.399C219.813 343.608 219.872 343.823 219.898 344.048L221.885 343.824ZM221.546 342.588C221.341 342.114 221.024 341.718 220.606 341.415L219.432 343.033C219.558 343.125 219.647 343.235 219.709 343.38L221.546 342.588ZM220.614 341.42C220.12 341.055 219.524 340.928 218.931 340.928V342.928C219.256 342.928 219.385 342.999 219.424 343.028L220.614 341.42ZM218.931 340.928C218.575 340.928 218.226 340.986 217.887 341.099L218.519 342.997C218.661 342.95 218.797 342.928 218.931 342.928V340.928ZM217.887 341.099C217.485 341.233 217.136 341.461 216.84 341.757L218.254 343.171C218.353 343.072 218.441 343.023 218.519 342.997L217.887 341.099ZM216.84 341.757C216.511 342.086 216.289 342.499 216.138 342.939L218.029 343.589C218.112 343.346 218.199 343.226 218.254 343.171L216.84 341.757ZM216.139 342.934C215.972 343.414 215.907 343.969 215.907 344.56H217.907C217.907 344.095 217.96 343.786 218.027 343.594L216.139 342.934ZM217.3 343.64L216.156 343.152L215.371 344.992L216.515 345.48L217.3 343.64ZM216.763 344.072C216.763 343.467 216.879 342.949 217.091 342.5L215.283 341.644C214.931 342.39 214.763 343.205 214.763 344.072H216.763ZM217.088 342.506C217.296 342.075 217.591 341.743 217.987 341.492L216.915 339.804C216.202 340.257 215.655 340.874 215.286 341.638L217.088 342.506ZM217.993 341.489C218.353 341.257 218.837 341.112 219.499 341.112V339.112C218.541 339.112 217.659 339.324 216.91 339.807L217.993 341.489ZM219.499 341.112C220.036 341.112 220.394 341.203 220.627 341.322L221.54 339.542C220.94 339.235 220.242 339.112 219.499 339.112V341.112ZM220.627 341.322C220.925 341.475 221.13 341.652 221.272 341.844L222.878 340.652C222.53 340.182 222.074 339.816 221.54 339.542L220.627 341.322ZM221.272 341.844C221.455 342.09 221.583 342.342 221.665 342.604L223.573 342.004C223.421 341.519 223.187 341.068 222.878 340.652L221.272 341.844ZM221.665 342.604C221.765 342.921 221.823 343.206 221.848 343.463L223.839 343.273C223.799 342.858 223.708 342.434 223.573 342.004L221.665 342.604ZM221.85 343.48C221.885 343.793 221.899 344.021 221.899 344.176H223.899C223.899 343.915 223.876 343.605 223.837 343.256L221.85 343.48ZM221.899 344.176V349H223.899V344.176H221.899ZM222.899 348H220.947V350H222.899V348ZM215.955 349V337.48H213.955V349H215.955ZM214.955 338.48H216.675V336.48H214.955V338.48ZM215.675 337.48V343.544H217.675V337.48H215.675ZM216.675 344.544H216.907V342.544H216.675V344.544ZM215.907 343.544V349H217.907V343.544H215.907ZM216.907 348H214.955V350H216.907V348ZM225.467 349H224.467V350H225.467V349ZM225.467 337.24V336.24H224.467V337.24H225.467ZM227.395 337.24H228.395V336.24H227.395V337.24ZM227.395 349V350H228.395V349H227.395ZM226.467 349V337.24H224.467V349H226.467ZM225.467 338.24H227.395V336.24H225.467V338.24ZM226.395 337.24V349H228.395V337.24H226.395ZM227.395 348H225.467V350H227.395V348ZM231.247 352.84L230.308 352.498L229.819 353.84H231.247V352.84ZM232.911 348.272L233.911 348.248L231.972 347.93L232.911 348.272ZM232.943 349.616L232.017 349.993L233.943 349.592L232.943 349.616ZM229.175 340.36V339.36H227.688L228.249 340.737L229.175 340.36ZM231.183 340.36L232.115 339.997L231.866 339.36H231.183V340.36ZM233.855 347.208V348.208H235.319L234.787 346.845L233.855 347.208ZM233.343 347.208L232.408 346.853L231.894 348.208H233.343V347.208ZM235.943 340.36V339.36H235.253L235.008 340.005L235.943 340.36ZM237.871 340.36L238.804 340.72L239.329 339.36H237.871V340.36ZM233.055 352.84V353.84H233.741L233.988 353.2L233.055 352.84ZM232.187 353.182L233.851 348.614L231.972 347.93L230.308 352.498L232.187 353.182ZM231.912 348.296L231.944 349.64L233.943 349.592L233.911 348.248L231.912 348.296ZM233.869 349.239L230.101 339.983L228.249 340.737L232.017 349.993L233.869 349.239ZM229.175 341.36H231.183V339.36H229.175V341.36ZM230.252 340.723L232.924 347.571L234.787 346.845L232.115 339.997L230.252 340.723ZM233.855 346.208H233.343V348.208H233.855V346.208ZM234.278 347.563L236.878 340.715L235.008 340.005L232.408 346.853L234.278 347.563ZM235.943 341.36H237.871V339.36H235.943V341.36ZM236.938 340L232.122 352.48L233.988 353.2L238.804 340.72L236.938 340ZM233.055 351.84H231.247V353.84H233.055V351.84Z" fill="black" mask="url(#path-3-outside-1_2118_877)"/>
</g>
<path d="M34.7148 319.592V317.696H36.6428V319.592H34.7148ZM34.7148 306.792V304.896H36.6428V306.792H34.7148ZM35.7228 318.24C34.9121 318.24 34.1868 318.091 33.5468 317.792C32.9068 317.493 32.3814 317.072 31.9708 316.528C31.5654 315.984 31.3068 315.339 31.1948 314.592L33.0988 314.288C33.2481 314.944 33.5681 315.467 34.0588 315.856C34.5548 316.24 35.1468 316.432 35.8348 316.432C36.4961 316.432 37.0401 316.277 37.4668 315.968C37.8934 315.653 38.1068 315.256 38.1068 314.776C38.1068 314.44 38.0054 314.168 37.8028 313.96C37.6001 313.747 37.2748 313.571 36.8268 313.432L34.0508 312.568C32.4348 312.067 31.6268 311.085 31.6268 309.624C31.6268 308.941 31.7894 308.347 32.1148 307.84C32.4454 307.328 32.9094 306.936 33.5068 306.664C34.1041 306.387 34.8081 306.251 35.6188 306.256C36.3708 306.261 37.0401 306.397 37.6268 306.664C38.2188 306.931 38.7094 307.315 39.0988 307.816C39.4934 308.317 39.7734 308.92 39.9388 309.624L37.9628 309.984C37.8881 309.605 37.7414 309.272 37.5228 308.984C37.3041 308.696 37.0294 308.472 36.6988 308.312C36.3681 308.152 36.0001 308.067 35.5948 308.056C35.2054 308.051 34.8561 308.112 34.5468 308.24C34.2374 308.363 33.9921 308.539 33.8108 308.768C33.6294 308.992 33.5388 309.245 33.5388 309.528C33.5388 309.843 33.6641 310.112 33.9148 310.336C34.1708 310.56 34.5734 310.752 35.1228 310.912L37.1948 311.512C38.1921 311.8 38.9094 312.192 39.3468 312.688C39.7894 313.179 40.0108 313.832 40.0108 314.648C40.0108 315.363 39.8321 315.989 39.4748 316.528C39.1174 317.067 38.6161 317.488 37.9708 317.792C37.3254 318.091 36.5761 318.24 35.7228 318.24ZM49.7328 318.24C48.9168 318.24 48.1968 318.067 47.5728 317.72C46.9488 317.368 46.4608 316.88 46.1088 316.256C45.7621 315.632 45.5888 314.912 45.5888 314.096V310.384C45.5888 309.568 45.7621 308.848 46.1088 308.224C46.4608 307.6 46.9488 307.115 47.5728 306.768C48.1968 306.416 48.9168 306.24 49.7328 306.24C50.5488 306.24 51.2661 306.416 51.8848 306.768C52.5088 307.115 52.9968 307.6 53.3488 308.224C53.7008 308.848 53.8768 309.568 53.8768 310.384V314.096C53.8768 314.912 53.7008 315.632 53.3488 316.256C52.9968 316.88 52.5088 317.368 51.8848 317.72C51.2661 318.067 50.5488 318.24 49.7328 318.24ZM49.7328 316.408C50.1381 316.408 50.5061 316.312 50.8368 316.12C51.1674 315.923 51.4288 315.661 51.6208 315.336C51.8128 315.005 51.9088 314.637 51.9088 314.232V310.24C51.9088 309.829 51.8128 309.461 51.6208 309.136C51.4288 308.805 51.1674 308.544 50.8368 308.352C50.5061 308.155 50.1381 308.056 49.7328 308.056C49.3274 308.056 48.9594 308.155 48.6288 308.352C48.2981 308.544 48.0368 308.805 47.8448 309.136C47.6528 309.461 47.5568 309.829 47.5568 310.24V314.232C47.5568 314.637 47.6528 315.005 47.8448 315.336C48.0368 315.661 48.2981 315.923 48.6288 316.12C48.9594 316.312 49.3274 316.408 49.7328 316.408Z" fill="#DEDEDE"/>
<path d="M7.5985 247.592V245.696H9.5265V247.592H7.5985ZM7.5985 234.792V232.896H9.5265V234.792H7.5985ZM8.6065 246.24C7.79584 246.24 7.0705 246.091 6.4305 245.792C5.7905 245.493 5.26517 245.072 4.8545 244.528C4.44917 243.984 4.1905 243.339 4.0785 242.592L5.9825 242.288C6.13184 242.944 6.45184 243.467 6.9425 243.856C7.4385 244.24 8.0305 244.432 8.7185 244.432C9.37983 244.432 9.92384 244.277 10.3505 243.968C10.7772 243.653 10.9905 243.256 10.9905 242.776C10.9905 242.44 10.8892 242.168 10.6865 241.96C10.4838 241.747 10.1585 241.571 9.7105 241.432L6.9345 240.568C5.3185 240.067 4.5105 239.085 4.5105 237.624C4.5105 236.941 4.67317 236.347 4.9985 235.84C5.32917 235.328 5.79317 234.936 6.3905 234.664C6.98784 234.387 7.69184 234.251 8.5025 234.256C9.2545 234.261 9.92384 234.397 10.5105 234.664C11.1025 234.931 11.5932 235.315 11.9825 235.816C12.3772 236.317 12.6572 236.92 12.8225 237.624L10.8465 237.984C10.7718 237.605 10.6252 237.272 10.4065 236.984C10.1878 236.696 9.91317 236.472 9.5825 236.312C9.25184 236.152 8.88383 236.067 8.4785 236.056C8.08917 236.051 7.73984 236.112 7.4305 236.24C7.12117 236.363 6.87584 236.539 6.6945 236.768C6.51317 236.992 6.4225 237.245 6.4225 237.528C6.4225 237.843 6.54783 238.112 6.7985 238.336C7.0545 238.56 7.45717 238.752 8.0065 238.912L10.0785 239.512C11.0758 239.8 11.7932 240.192 12.2305 240.688C12.6732 241.179 12.8945 241.832 12.8945 242.648C12.8945 243.363 12.7158 243.989 12.3585 244.528C12.0012 245.067 11.4998 245.488 10.8545 245.792C10.2092 246.091 9.45984 246.24 8.6065 246.24ZM20.4725 246V236.584L18.3125 237.904V235.776L20.4725 234.48H22.4405V246H20.4725ZM29.9521 246.24C29.1361 246.24 28.4161 246.067 27.7921 245.72C27.1681 245.368 26.6801 244.88 26.3281 244.256C25.9815 243.632 25.8081 242.912 25.8081 242.096V238.384C25.8081 237.568 25.9815 236.848 26.3281 236.224C26.6801 235.6 27.1681 235.115 27.7921 234.768C28.4161 234.416 29.1361 234.24 29.9521 234.24C30.7681 234.24 31.4855 234.416 32.1041 234.768C32.7281 235.115 33.2161 235.6 33.5681 236.224C33.9201 236.848 34.0961 237.568 34.0961 238.384V242.096C34.0961 242.912 33.9201 243.632 33.5681 244.256C33.2161 244.88 32.7281 245.368 32.1041 245.72C31.4855 246.067 30.7681 246.24 29.9521 246.24ZM29.9521 244.408C30.3575 244.408 30.7255 244.312 31.0561 244.12C31.3868 243.923 31.6481 243.661 31.8401 243.336C32.0321 243.005 32.1281 242.637 32.1281 242.232V238.24C32.1281 237.829 32.0321 237.461 31.8401 237.136C31.6481 236.805 31.3868 236.544 31.0561 236.352C30.7255 236.155 30.3575 236.056 29.9521 236.056C29.5468 236.056 29.1788 236.155 28.8481 236.352C28.5175 236.544 28.2561 236.805 28.0641 237.136C27.8721 237.461 27.7761 237.829 27.7761 238.24V242.232C27.7761 242.637 27.8721 243.005 28.0641 243.336C28.2561 243.661 28.5175 243.923 28.8481 244.12C29.1788 244.312 29.5468 244.408 29.9521 244.408ZM40.8034 246.24C39.9874 246.24 39.2674 246.067 38.6434 245.72C38.0194 245.368 37.5314 244.88 37.1794 244.256C36.8327 243.632 36.6594 242.912 36.6594 242.096V238.384C36.6594 237.568 36.8327 236.848 37.1794 236.224C37.5314 235.6 38.0194 235.115 38.6434 234.768C39.2674 234.416 39.9874 234.24 40.8034 234.24C41.6194 234.24 42.3367 234.416 42.9554 234.768C43.5794 235.115 44.0674 235.6 44.4194 236.224C44.7714 236.848 44.9474 237.568 44.9474 238.384V242.096C44.9474 242.912 44.7714 243.632 44.4194 244.256C44.0674 244.88 43.5794 245.368 42.9554 245.72C42.3367 246.067 41.6194 246.24 40.8034 246.24ZM40.8034 244.408C41.2087 244.408 41.5767 244.312 41.9074 244.12C42.238 243.923 42.4994 243.661 42.6914 243.336C42.8834 243.005 42.9794 242.637 42.9794 242.232V238.24C42.9794 237.829 42.8834 237.461 42.6914 237.136C42.4994 236.805 42.238 236.544 41.9074 236.352C41.5767 236.155 41.2087 236.056 40.8034 236.056C40.398 236.056 40.03 236.155 39.6994 236.352C39.3687 236.544 39.1074 236.805 38.9154 237.136C38.7234 237.461 38.6274 237.829 38.6274 238.24V242.232C38.6274 242.637 38.7234 243.005 38.9154 243.336C39.1074 243.661 39.3687 243.923 39.6994 244.12C40.03 244.312 40.398 244.408 40.8034 244.408ZM47.4946 246L47.5106 234.48H49.4626V241.52L52.6226 237.36H55.0306L51.6786 241.68L55.3186 246H52.7666L49.4626 241.84V246H47.4946Z" fill="#DEDEDE"/>
<path d="M5.08288 175.592V173.696H7.01088V175.592H5.08288ZM5.08288 162.792V160.896H7.01088V162.792H5.08288ZM6.09088 174.24C5.28021 174.24 4.55488 174.091 3.91488 173.792C3.27488 173.493 2.74954 173.072 2.33888 172.528C1.93354 171.984 1.67488 171.339 1.56288 170.592L3.46688 170.288C3.61621 170.944 3.93621 171.467 4.42688 171.856C4.92288 172.24 5.51488 172.432 6.20288 172.432C6.86421 172.432 7.40821 172.277 7.83488 171.968C8.26154 171.653 8.47488 171.256 8.47488 170.776C8.47488 170.44 8.37354 170.168 8.17088 169.96C7.96821 169.747 7.64288 169.571 7.19488 169.432L4.41888 168.568C2.80288 168.067 1.99488 167.085 1.99488 165.624C1.99488 164.941 2.15754 164.347 2.48288 163.84C2.81354 163.328 3.27754 162.936 3.87488 162.664C4.47221 162.387 5.17621 162.251 5.98688 162.256C6.73888 162.261 7.40821 162.397 7.99488 162.664C8.58688 162.931 9.07754 163.315 9.46688 163.816C9.86154 164.317 10.1415 164.92 10.3069 165.624L8.33088 165.984C8.25621 165.605 8.10954 165.272 7.89088 164.984C7.67221 164.696 7.39754 164.472 7.06688 164.312C6.73621 164.152 6.36821 164.067 5.96288 164.056C5.57354 164.051 5.22421 164.112 4.91488 164.24C4.60554 164.363 4.36021 164.539 4.17888 164.768C3.99754 164.992 3.90688 165.245 3.90688 165.528C3.90688 165.843 4.03221 166.112 4.28288 166.336C4.53888 166.56 4.94154 166.752 5.49088 166.912L7.56288 167.512C8.56021 167.8 9.27754 168.192 9.71488 168.688C10.1575 169.179 10.3789 169.832 10.3789 170.648C10.3789 171.363 10.2002 171.989 9.84288 172.528C9.48554 173.067 8.98421 173.488 8.33888 173.792C7.69354 174.091 6.94421 174.24 6.09088 174.24ZM15.6369 173.984V172.304L20.5649 167.912C20.9489 167.571 21.2155 167.248 21.3649 166.944C21.5142 166.64 21.5889 166.347 21.5889 166.064C21.5889 165.68 21.5062 165.339 21.3409 165.04C21.1755 164.736 20.9462 164.496 20.6529 164.32C20.3649 164.144 20.0315 164.056 19.6529 164.056C19.2529 164.056 18.8982 164.149 18.5889 164.336C18.2849 164.517 18.0475 164.76 17.8769 165.064C17.7062 165.368 17.6262 165.696 17.6369 166.048H15.6529C15.6529 165.28 15.8235 164.611 16.1649 164.04C16.5115 163.469 16.9862 163.027 17.5889 162.712C18.1969 162.397 18.8982 162.24 19.6929 162.24C20.4289 162.24 21.0902 162.405 21.6769 162.736C22.2635 163.061 22.7249 163.515 23.0609 164.096C23.3969 164.672 23.5649 165.336 23.5649 166.088C23.5649 166.637 23.4902 167.099 23.3409 167.472C23.1915 167.845 22.9675 168.189 22.6689 168.504C22.3755 168.819 22.0102 169.168 21.5729 169.552L18.0769 172.648L17.9009 172.168H23.5649V173.984H15.6369ZM29.9521 174.24C29.1361 174.24 28.4161 174.067 27.7921 173.72C27.1681 173.368 26.6801 172.88 26.3281 172.256C25.9815 171.632 25.8081 170.912 25.8081 170.096V166.384C25.8081 165.568 25.9815 164.848 26.3281 164.224C26.6801 163.6 27.1681 163.115 27.7921 162.768C28.4161 162.416 29.1361 162.24 29.9521 162.24C30.7681 162.24 31.4855 162.416 32.1041 162.768C32.7281 163.115 33.2161 163.6 33.5681 164.224C33.9201 164.848 34.0961 165.568 34.0961 166.384V170.096C34.0961 170.912 33.9201 171.632 33.5681 172.256C33.2161 172.88 32.7281 173.368 32.1041 173.72C31.4855 174.067 30.7681 174.24 29.9521 174.24ZM29.9521 172.408C30.3575 172.408 30.7255 172.312 31.0561 172.12C31.3868 171.923 31.6481 171.661 31.8401 171.336C32.0321 171.005 32.1281 170.637 32.1281 170.232V166.24C32.1281 165.829 32.0321 165.461 31.8401 165.136C31.6481 164.805 31.3868 164.544 31.0561 164.352C30.7255 164.155 30.3575 164.056 29.9521 164.056C29.5468 164.056 29.1788 164.155 28.8481 164.352C28.5175 164.544 28.2561 164.805 28.0641 165.136C27.8721 165.461 27.7761 165.829 27.7761 166.24V170.232C27.7761 170.637 27.8721 171.005 28.0641 171.336C28.2561 171.661 28.5175 171.923 28.8481 172.12C29.1788 172.312 29.5468 172.408 29.9521 172.408ZM40.8034 174.24C39.9874 174.24 39.2674 174.067 38.6434 173.72C38.0194 173.368 37.5314 172.88 37.1794 172.256C36.8327 171.632 36.6594 170.912 36.6594 170.096V166.384C36.6594 165.568 36.8327 164.848 37.1794 164.224C37.5314 163.6 38.0194 163.115 38.6434 162.768C39.2674 162.416 39.9874 162.24 40.8034 162.24C41.6194 162.24 42.3367 162.416 42.9554 162.768C43.5794 163.115 44.0674 163.6 44.4194 164.224C44.7714 164.848 44.9474 165.568 44.9474 166.384V170.096C44.9474 170.912 44.7714 171.632 44.4194 172.256C44.0674 172.88 43.5794 173.368 42.9554 173.72C42.3367 174.067 41.6194 174.24 40.8034 174.24ZM40.8034 172.408C41.2087 172.408 41.5767 172.312 41.9074 172.12C42.238 171.923 42.4994 171.661 42.6914 171.336C42.8834 171.005 42.9794 170.637 42.9794 170.232V166.24C42.9794 165.829 42.8834 165.461 42.6914 165.136C42.4994 164.805 42.238 164.544 41.9074 164.352C41.5767 164.155 41.2087 164.056 40.8034 164.056C40.398 164.056 40.03 164.155 39.6994 164.352C39.3687 164.544 39.1074 164.805 38.9154 165.136C38.7234 165.461 38.6274 165.829 38.6274 166.24V170.232C38.6274 170.637 38.7234 171.005 38.9154 171.336C39.1074 171.661 39.3687 171.923 39.6994 172.12C40.03 172.312 40.398 172.408 40.8034 172.408ZM47.4946 174L47.5106 162.48H49.4626V169.52L52.6226 165.36H55.0306L51.6786 169.68L55.3186 174H52.7666L49.4626 169.84V174H47.4946Z" fill="#DEDEDE"/>
<path d="M5.31725 103.592V101.696H7.24525V103.592H5.31725ZM5.31725 90.792V88.896H7.24525V90.792H5.31725ZM6.32525 102.24C5.51459 102.24 4.78925 102.091 4.14925 101.792C3.50925 101.493 2.98392 101.072 2.57325 100.528C2.16792 99.984 1.90925 99.3387 1.79725 98.592L3.70125 98.288C3.85059 98.944 4.17059 99.4667 4.66125 99.856C5.15725 100.24 5.74925 100.432 6.43725 100.432C7.09858 100.432 7.64259 100.277 8.06925 99.968C8.49592 99.6533 8.70925 99.256 8.70925 98.776C8.70925 98.44 8.60792 98.168 8.40525 97.96C8.20259 97.7467 7.87725 97.5707 7.42925 97.432L4.65325 96.568C3.03725 96.0667 2.22925 95.0853 2.22925 93.624C2.22925 92.9413 2.39192 92.3467 2.71725 91.84C3.04792 91.328 3.51192 90.936 4.10925 90.664C4.70659 90.3867 5.41059 90.2507 6.22125 90.256C6.97325 90.2613 7.64259 90.3973 8.22925 90.664C8.82125 90.9307 9.31192 91.3147 9.70125 91.816C10.0959 92.3173 10.3759 92.92 10.5413 93.624L8.56525 93.984C8.49059 93.6053 8.34392 93.272 8.12525 92.984C7.90659 92.696 7.63192 92.472 7.30125 92.312C6.97059 92.152 6.60258 92.0667 6.19725 92.056C5.80792 92.0507 5.45859 92.112 5.14925 92.24C4.83992 92.3627 4.59459 92.5387 4.41325 92.768C4.23192 92.992 4.14125 93.2453 4.14125 93.528C4.14125 93.8427 4.26658 94.112 4.51725 94.336C4.77325 94.56 5.17592 94.752 5.72525 94.912L7.79725 95.512C8.79459 95.8 9.51192 96.192 9.94925 96.688C10.3919 97.1787 10.6133 97.832 10.6133 98.648C10.6133 99.3627 10.4346 99.9893 10.0773 100.528C9.71992 101.067 9.21859 101.488 8.57325 101.792C7.92792 102.091 7.17859 102.24 6.32525 102.24ZM19.4873 102.216C18.9113 102.216 18.3673 102.104 17.8553 101.88C17.3433 101.656 16.8979 101.339 16.5193 100.928C16.1459 100.517 15.8766 100.032 15.7113 99.472L17.5753 98.968C17.7086 99.4267 17.9513 99.7813 18.3033 100.032C18.6606 100.277 19.0526 100.397 19.4793 100.392C19.8579 100.392 20.1966 100.304 20.4953 100.128C20.7939 99.952 21.0286 99.7147 21.1993 99.416C21.3699 99.112 21.4553 98.7733 21.4553 98.4C21.4553 97.8293 21.2713 97.352 20.9033 96.968C20.5353 96.584 20.0606 96.392 19.4793 96.392C19.3033 96.392 19.1299 96.416 18.9593 96.464C18.7939 96.512 18.6339 96.5787 18.4793 96.664L17.5993 95.144L21.4713 91.832L21.6393 92.296H16.1593V90.48H23.2233V92.304L20.1113 95.296L20.0953 94.728C20.7939 94.776 21.3886 94.9707 21.8793 95.312C22.3753 95.6533 22.7539 96.0933 23.0153 96.632C23.2819 97.1707 23.4153 97.76 23.4153 98.4C23.4153 99.1253 23.2366 99.776 22.8793 100.352C22.5273 100.928 22.0526 101.384 21.4553 101.72C20.8633 102.051 20.2073 102.216 19.4873 102.216ZM29.9521 102.24C29.1361 102.24 28.4161 102.067 27.7921 101.72C27.1681 101.368 26.6801 100.88 26.3281 100.256C25.9815 99.632 25.8081 98.912 25.8081 98.096V94.384C25.8081 93.568 25.9815 92.848 26.3281 92.224C26.6801 91.6 27.1681 91.1147 27.7921 90.768C28.4161 90.416 29.1361 90.24 29.9521 90.24C30.7681 90.24 31.4855 90.416 32.1041 90.768C32.7281 91.1147 33.2161 91.6 33.5681 92.224C33.9201 92.848 34.0961 93.568 34.0961 94.384V98.096C34.0961 98.912 33.9201 99.632 33.5681 100.256C33.2161 100.88 32.7281 101.368 32.1041 101.72C31.4855 102.067 30.7681 102.24 29.9521 102.24ZM29.9521 100.408C30.3575 100.408 30.7255 100.312 31.0561 100.12C31.3868 99.9227 31.6481 99.6613 31.8401 99.336C32.0321 99.0053 32.1281 98.6373 32.1281 98.232V94.24C32.1281 93.8293 32.0321 93.4613 31.8401 93.136C31.6481 92.8053 31.3868 92.544 31.0561 92.352C30.7255 92.1547 30.3575 92.056 29.9521 92.056C29.5468 92.056 29.1788 92.1547 28.8481 92.352C28.5175 92.544 28.2561 92.8053 28.0641 93.136C27.8721 93.4613 27.7761 93.8293 27.7761 94.24V98.232C27.7761 98.6373 27.8721 99.0053 28.0641 99.336C28.2561 99.6613 28.5175 99.9227 28.8481 100.12C29.1788 100.312 29.5468 100.408 29.9521 100.408ZM40.8034 102.24C39.9874 102.24 39.2674 102.067 38.6434 101.72C38.0194 101.368 37.5314 100.88 37.1794 100.256C36.8327 99.632 36.6594 98.912 36.6594 98.096V94.384C36.6594 93.568 36.8327 92.848 37.1794 92.224C37.5314 91.6 38.0194 91.1147 38.6434 90.768C39.2674 90.416 39.9874 90.24 40.8034 90.24C41.6194 90.24 42.3367 90.416 42.9554 90.768C43.5794 91.1147 44.0674 91.6 44.4194 92.224C44.7714 92.848 44.9474 93.568 44.9474 94.384V98.096C44.9474 98.912 44.7714 99.632 44.4194 100.256C44.0674 100.88 43.5794 101.368 42.9554 101.72C42.3367 102.067 41.6194 102.24 40.8034 102.24ZM40.8034 100.408C41.2087 100.408 41.5767 100.312 41.9074 100.12C42.238 99.9227 42.4994 99.6613 42.6914 99.336C42.8834 99.0053 42.9794 98.6373 42.9794 98.232V94.24C42.9794 93.8293 42.8834 93.4613 42.6914 93.136C42.4994 92.8053 42.238 92.544 41.9074 92.352C41.5767 92.1547 41.2087 92.056 40.8034 92.056C40.398 92.056 40.03 92.1547 39.6994 92.352C39.3687 92.544 39.1074 92.8053 38.9154 93.136C38.7234 93.4613 38.6274 93.8293 38.6274 94.24V98.232C38.6274 98.6373 38.7234 99.0053 38.9154 99.336C39.1074 99.6613 39.3687 99.9227 39.6994 100.12C40.03 100.312 40.398 100.408 40.8034 100.408ZM47.4946 102L47.5106 90.48H49.4626V97.52L52.6226 93.36H55.0306L51.6786 97.68L55.3186 102H52.7666L49.4626 97.84V102H47.4946Z" fill="#DEDEDE"/>
<path d="M185 308C185 306.895 185.895 306 187 306H222C223.105 306 224 306.895 224 308V317H185V308Z" fill="#FFA900"/>
<path d="M471 249C471 247.895 471.895 247 473 247H508C509.105 247 510 247.895 510 249V317H471V249Z" fill="#FFA900"/>
<path d="M224 302C224 300.895 224.895 300 226 300H261C262.105 300 263 300.895 263 302V317H224V302Z" fill="#00CAFF"/>
<path d="M510 208C510 206.895 510.895 206 512 206H547C548.105 206 549 206.895 549 208V317H510V208Z" fill="#00CAFF"/>
<path d="M263 283C263 281.895 263.895 281 265 281H300C301.105 281 302 281.895 302 283V317H263V283Z" fill="#5920AD"/>
<path d="M549 92C549 90.8954 549.895 90 551 90H586C587.105 90 588 90.8954 588 92V317H549V92Z" fill="#5920AD"/>
<path d="M107 317C107 316.448 107.448 316 108 316H145C145.552 316 146 316.448 146 317H107Z" fill="#00FF99"/>
<path d="M393 313C393 311.895 393.895 311 395 311H430C431.105 311 432 311.895 432 313V317H393V313Z" fill="#00FF99"/>
<path d="M146 314C146 312.895 146.895 312 148 312H183C184.105 312 185 312.895 185 314V317H146V314Z" fill="#F25733"/>
<path d="M432 282C432 280.895 432.895 280 434 280H469C470.105 280 471 280.895 471 282V317H432V282Z" fill="#F25733"/>
<rect x="41.5" width="15" height="15" fill="#00FF99"/>
<path d="M61.78 13.5V1.98H63.204V13.5H61.78ZM71.4364 13.5V9.172C71.4364 8.76133 71.399 8.36667 71.3244 7.988C71.255 7.60933 71.1297 7.27067 70.9484 6.972C70.7724 6.668 70.5324 6.428 70.2284 6.252C69.9297 6.076 69.551 5.988 69.0924 5.988C68.735 5.988 68.4097 6.04933 68.1164 6.172C67.8284 6.28933 67.5804 6.47067 67.3724 6.716C67.1644 6.96133 67.0017 7.27067 66.8844 7.644C66.7724 8.012 66.7164 8.44667 66.7164 8.948L65.7804 8.66C65.7804 7.82267 65.9297 7.10533 66.2284 6.508C66.5324 5.90533 66.9564 5.444 67.5004 5.124C68.0497 4.79867 68.695 4.636 69.4364 4.636C69.9964 4.636 70.4737 4.724 70.8684 4.9C71.263 5.076 71.591 5.31067 71.8524 5.604C72.1137 5.892 72.319 6.21733 72.4684 6.58C72.6177 6.93733 72.7217 7.30267 72.7804 7.676C72.8444 8.044 72.8764 8.39333 72.8764 8.724V13.5H71.4364ZM65.2764 13.5V4.86H66.5564V7.172H66.7164V13.5H65.2764ZM78.1981 13.74C77.3235 13.74 76.5795 13.5453 75.9661 13.156C75.3581 12.7613 74.8941 12.22 74.5741 11.532C74.2541 10.844 74.0888 10.06 74.0781 9.18C74.0888 8.27867 74.2568 7.48667 74.5821 6.804C74.9128 6.116 75.3848 5.58 75.9981 5.196C76.6115 4.812 77.3501 4.62 78.2141 4.62C79.1261 4.62 79.9101 4.844 80.5661 5.292C81.2275 5.74 81.6701 6.35333 81.8941 7.132L80.4861 7.556C80.3048 7.05467 80.0088 6.66533 79.5981 6.388C79.1928 6.11067 78.7261 5.972 78.1981 5.972C77.6061 5.972 77.1181 6.11067 76.7341 6.388C76.3501 6.66 76.0648 7.03867 75.8781 7.524C75.6915 8.004 75.5955 8.556 75.5901 9.18C75.6008 10.14 75.8221 10.916 76.2541 11.508C76.6915 12.0947 77.3395 12.388 78.1981 12.388C78.7635 12.388 79.2328 12.26 79.6061 12.004C79.9795 11.7427 80.2621 11.3667 80.4541 10.876L81.8941 11.252C81.5955 12.0573 81.1288 12.6733 80.4941 13.1C79.8595 13.5267 79.0941 13.74 78.1981 13.74ZM86.7165 13.74C85.8685 13.74 85.1272 13.5533 84.4925 13.18C83.8632 12.8013 83.3725 12.276 83.0205 11.604C82.6685 10.9267 82.4925 10.1373 82.4925 9.236C82.4925 8.292 82.6658 7.476 83.0125 6.788C83.3592 6.09467 83.8418 5.56133 84.4605 5.188C85.0845 4.80933 85.8152 4.62 86.6525 4.62C87.5218 4.62 88.2605 4.82 88.8685 5.22C89.4818 5.62 89.9405 6.19067 90.2445 6.932C90.5538 7.67333 90.6872 8.556 90.6445 9.58H89.2045V9.068C89.1885 8.00667 88.9725 7.21467 88.5565 6.692C88.1405 6.164 87.5218 5.9 86.7005 5.9C85.8205 5.9 85.1512 6.18267 84.6925 6.748C84.2338 7.31333 84.0045 8.124 84.0045 9.18C84.0045 10.1987 84.2338 10.988 84.6925 11.548C85.1512 12.108 85.8045 12.388 86.6525 12.388C87.2232 12.388 87.7192 12.2573 88.1405 11.996C88.5618 11.7347 88.8925 11.3587 89.1325 10.868L90.5005 11.34C90.1645 12.1027 89.6578 12.6947 88.9805 13.116C88.3085 13.532 87.5538 13.74 86.7165 13.74ZM83.5245 9.58V8.436H89.9085V9.58H83.5245ZM92.1056 13.5V4.86H93.3776V6.948L93.1696 6.676C93.271 6.40933 93.4016 6.164 93.5616 5.94C93.727 5.716 93.911 5.532 94.1136 5.388C94.3376 5.20667 94.591 5.068 94.8736 4.972C95.1563 4.876 95.4443 4.82 95.7376 4.804C96.031 4.78267 96.3056 4.80133 96.5616 4.86V6.196C96.263 6.116 95.935 6.09467 95.5776 6.132C95.2203 6.16933 94.8896 6.3 94.5856 6.524C94.3083 6.72133 94.0923 6.96133 93.9376 7.244C93.7883 7.52667 93.6843 7.83333 93.6256 8.164C93.567 8.48933 93.5376 8.82267 93.5376 9.164V13.5H92.1056ZM102.578 13.5C102.066 13.6013 101.56 13.6413 101.058 13.62C100.562 13.604 100.12 13.5053 99.7304 13.324C99.341 13.1373 99.045 12.8493 98.8424 12.46C98.6717 12.1187 98.5784 11.7747 98.5624 11.428C98.5517 11.076 98.5464 10.6787 98.5464 10.236V2.46H99.9704V10.172C99.9704 10.524 99.973 10.8253 99.9784 11.076C99.989 11.3267 100.045 11.5427 100.146 11.724C100.338 12.0653 100.642 12.2653 101.058 12.324C101.48 12.3827 101.986 12.3667 102.578 12.276V13.5ZM96.7944 6.036V4.86H102.578V6.036H96.7944ZM107.333 13.74C106.474 13.74 105.733 13.5453 105.109 13.156C104.49 12.7667 104.013 12.228 103.677 11.54C103.341 10.852 103.173 10.0627 103.173 9.172C103.173 8.26533 103.344 7.47067 103.685 6.788C104.026 6.10533 104.509 5.57467 105.133 5.196C105.757 4.812 106.49 4.62 107.333 4.62C108.197 4.62 108.941 4.81467 109.565 5.204C110.189 5.588 110.666 6.124 110.997 6.812C111.333 7.49467 111.501 8.28133 111.501 9.172C111.501 10.0733 111.333 10.868 110.997 11.556C110.661 12.2387 110.181 12.7747 109.557 13.164C108.933 13.548 108.192 13.74 107.333 13.74ZM107.333 12.388C108.229 12.388 108.896 12.0893 109.333 11.492C109.77 10.8947 109.989 10.1213 109.989 9.172C109.989 8.196 109.768 7.42 109.325 6.844C108.882 6.26267 108.218 5.972 107.333 5.972C106.73 5.972 106.234 6.108 105.845 6.38C105.456 6.652 105.165 7.028 104.973 7.508C104.781 7.988 104.685 8.54267 104.685 9.172C104.685 10.1427 104.909 10.9213 105.357 11.508C105.805 12.0947 106.464 12.388 107.333 12.388Z" fill="#EDEDED"/>
<rect x="152.5" width="15" height="15" fill="#F25733"/>
<path d="M177.261 13.74C176.445 13.74 175.709 13.6013 175.053 13.324C174.402 13.0467 173.864 12.652 173.437 12.14C173.016 11.6227 172.741 11.012 172.613 10.308L174.085 10.076C174.272 10.8013 174.658 11.3693 175.245 11.78C175.837 12.1853 176.533 12.388 177.333 12.388C177.85 12.388 178.317 12.308 178.733 12.148C179.154 11.9827 179.488 11.748 179.733 11.444C179.978 11.14 180.101 10.78 180.101 10.364C180.101 10.108 180.056 9.88933 179.965 9.708C179.88 9.52133 179.76 9.364 179.605 9.236C179.456 9.10267 179.285 8.99067 179.093 8.9C178.901 8.80933 178.701 8.73467 178.493 8.676L175.557 7.804C175.237 7.708 174.928 7.588 174.629 7.444C174.33 7.29467 174.064 7.11067 173.829 6.892C173.594 6.668 173.408 6.40133 173.269 6.092C173.13 5.77733 173.061 5.40667 173.061 4.98C173.061 4.29733 173.237 3.716 173.589 3.236C173.946 2.75067 174.429 2.38 175.037 2.124C175.645 1.868 176.33 1.74267 177.093 1.748C177.866 1.75333 178.557 1.892 179.165 2.164C179.778 2.43067 180.285 2.81467 180.685 3.316C181.09 3.81733 181.362 4.41733 181.501 5.116L179.989 5.38C179.909 4.91067 179.73 4.508 179.453 4.172C179.181 3.83067 178.84 3.56933 178.429 3.388C178.018 3.20133 177.568 3.10533 177.077 3.1C176.608 3.09467 176.184 3.16933 175.805 3.324C175.426 3.47867 175.125 3.69467 174.901 3.972C174.677 4.244 174.565 4.55867 174.565 4.916C174.565 5.268 174.666 5.55333 174.869 5.772C175.072 5.98533 175.32 6.156 175.613 6.284C175.912 6.40667 176.202 6.508 176.485 6.588L178.677 7.22C178.928 7.28933 179.216 7.38533 179.541 7.508C179.872 7.63067 180.192 7.804 180.501 8.028C180.81 8.24667 181.066 8.54 181.269 8.908C181.472 9.27067 181.573 9.72933 181.573 10.284C181.573 10.8387 181.461 11.332 181.237 11.764C181.018 12.196 180.712 12.5587 180.317 12.852C179.922 13.14 179.464 13.3587 178.941 13.508C178.418 13.6627 177.858 13.74 177.261 13.74ZM183.091 3.332V1.86H184.515V3.332H183.091ZM183.091 13.5V4.86H184.515V13.5H183.091ZM190.092 17.58C189.638 17.58 189.196 17.5107 188.764 17.372C188.332 17.2333 187.934 17.0227 187.572 16.74C187.214 16.4627 186.916 16.1107 186.676 15.684L187.98 14.996C188.193 15.4173 188.494 15.724 188.884 15.916C189.278 16.108 189.684 16.204 190.1 16.204C190.649 16.204 191.105 16.1027 191.468 15.9C191.83 15.7027 192.097 15.4067 192.268 15.012C192.444 14.6173 192.529 14.1267 192.524 13.54V11.18H192.692V4.86H193.956V13.556C193.956 13.7907 193.948 14.0173 193.932 14.236C193.921 14.4547 193.894 14.6707 193.852 14.884C193.74 15.4973 193.518 16.0013 193.188 16.396C192.857 16.796 192.43 17.092 191.908 17.284C191.385 17.4813 190.78 17.58 190.092 17.58ZM189.988 13.74C189.182 13.74 188.492 13.54 187.916 13.14C187.34 12.7347 186.894 12.188 186.58 11.5C186.27 10.812 186.116 10.036 186.116 9.172C186.116 8.308 186.27 7.532 186.58 6.844C186.894 6.156 187.34 5.61467 187.916 5.22C188.492 4.82 189.18 4.62 189.98 4.62C190.796 4.62 191.481 4.81733 192.036 5.212C192.59 5.60667 193.009 6.148 193.292 6.836C193.58 7.524 193.724 8.30267 193.724 9.172C193.724 10.0307 193.58 10.8067 193.292 11.5C193.009 12.188 192.59 12.7347 192.036 13.14C191.481 13.54 190.798 13.74 189.988 13.74ZM190.164 12.436C190.745 12.436 191.222 12.2973 191.596 12.02C191.969 11.7373 192.244 11.3507 192.42 10.86C192.601 10.364 192.692 9.80133 192.692 9.172C192.692 8.532 192.601 7.96933 192.42 7.484C192.244 6.99333 191.972 6.612 191.604 6.34C191.236 6.06267 190.769 5.924 190.204 5.924C189.617 5.924 189.132 6.068 188.748 6.356C188.369 6.644 188.086 7.03333 187.9 7.524C187.718 8.01467 187.628 8.564 187.628 9.172C187.628 9.78533 187.721 10.34 187.908 10.836C188.094 11.3267 188.374 11.716 188.748 12.004C189.126 12.292 189.598 12.436 190.164 12.436ZM202.021 13.5V9.172C202.021 8.76133 201.984 8.36667 201.909 7.988C201.84 7.60933 201.715 7.27067 201.533 6.972C201.357 6.668 201.117 6.428 200.813 6.252C200.515 6.076 200.136 5.988 199.677 5.988C199.32 5.988 198.995 6.04933 198.701 6.172C198.413 6.28933 198.165 6.47067 197.957 6.716C197.749 6.96133 197.587 7.27067 197.469 7.644C197.357 8.012 197.301 8.44667 197.301 8.948L196.365 8.66C196.365 7.82267 196.515 7.10533 196.813 6.508C197.117 5.90533 197.541 5.444 198.085 5.124C198.635 4.79867 199.28 4.636 200.021 4.636C200.581 4.636 201.059 4.724 201.453 4.9C201.848 5.076 202.176 5.31067 202.437 5.604C202.699 5.892 202.904 6.21733 203.053 6.58C203.203 6.93733 203.307 7.30267 203.365 7.676C203.429 8.044 203.461 8.39333 203.461 8.724V13.5H202.021ZM195.861 13.5V4.86H197.141V7.172H197.301V13.5H195.861ZM208.823 13.74C207.964 13.74 207.223 13.5453 206.599 13.156C205.98 12.7667 205.503 12.228 205.167 11.54C204.831 10.852 204.663 10.0627 204.663 9.172C204.663 8.26533 204.834 7.47067 205.175 6.788C205.516 6.10533 205.999 5.57467 206.623 5.196C207.247 4.812 207.98 4.62 208.823 4.62C209.687 4.62 210.431 4.81467 211.055 5.204C211.679 5.588 212.156 6.124 212.487 6.812C212.823 7.49467 212.991 8.28133 212.991 9.172C212.991 10.0733 212.823 10.868 212.487 11.556C212.151 12.2387 211.671 12.7747 211.047 13.164C210.423 13.548 209.682 13.74 208.823 13.74ZM208.823 12.388C209.719 12.388 210.386 12.0893 210.823 11.492C211.26 10.8947 211.479 10.1213 211.479 9.172C211.479 8.196 211.258 7.42 210.815 6.844C210.372 6.26267 209.708 5.972 208.823 5.972C208.22 5.972 207.724 6.108 207.335 6.38C206.946 6.652 206.655 7.028 206.463 7.508C206.271 7.988 206.175 8.54267 206.175 9.172C206.175 10.1427 206.399 10.9213 206.847 11.508C207.295 12.0947 207.954 12.388 208.823 12.388ZM213.32 13.5V13.244L218.56 6.156H213.752V4.86H220.856V5.132L215.624 12.204H220.584V13.5H213.32Z" fill="#EDEDED"/>
<rect x="261.5" width="15" height="15" fill="#FFA900"/>
<path d="M286.86 13.74C286.071 13.74 285.351 13.6013 284.7 13.324C284.05 13.0467 283.49 12.6493 283.02 12.132C282.551 11.6093 282.188 10.98 281.932 10.244C281.682 9.50267 281.556 8.668 281.556 7.74C281.556 6.51333 281.775 5.452 282.212 4.556C282.65 3.66 283.266 2.96933 284.06 2.484C284.855 1.99333 285.788 1.748 286.86 1.748C288.151 1.748 289.191 2.04933 289.98 2.652C290.77 3.24933 291.314 4.068 291.612 5.108L290.172 5.404C289.932 4.70533 289.538 4.148 288.988 3.732C288.439 3.316 287.754 3.108 286.932 3.108C286.074 3.10267 285.359 3.29467 284.788 3.684C284.223 4.068 283.796 4.60933 283.508 5.308C283.22 6.00667 283.074 6.81733 283.068 7.74C283.063 8.65733 283.204 9.46267 283.492 10.156C283.78 10.8493 284.21 11.3933 284.78 11.788C285.356 12.1773 286.074 12.3747 286.932 12.38C287.674 12.3853 288.298 12.244 288.804 11.956C289.311 11.668 289.703 11.252 289.98 10.708C290.258 10.164 290.426 9.51067 290.484 8.748H288.036V7.572H291.988C292.004 7.67867 292.012 7.80667 292.012 7.956C292.018 8.1 292.02 8.19867 292.02 8.252C292.02 9.30267 291.823 10.244 291.428 11.076C291.039 11.9027 290.46 12.5533 289.692 13.028C288.93 13.5027 287.986 13.74 286.86 13.74ZM293.298 13.5V4.86H294.57V6.948L294.362 6.676C294.463 6.40933 294.594 6.164 294.754 5.94C294.919 5.716 295.103 5.532 295.306 5.388C295.53 5.20667 295.783 5.068 296.066 4.972C296.349 4.876 296.637 4.82 296.93 4.804C297.223 4.78267 297.498 4.80133 297.754 4.86V6.196C297.455 6.116 297.127 6.09467 296.77 6.132C296.413 6.16933 296.082 6.3 295.778 6.524C295.501 6.72133 295.285 6.96133 295.13 7.244C294.981 7.52667 294.877 7.83333 294.818 8.164C294.759 8.48933 294.73 8.82267 294.73 9.164V13.5H293.298ZM301.122 13.74C300.476 13.74 299.935 13.6227 299.498 13.388C299.066 13.148 298.738 12.8333 298.514 12.444C298.295 12.0547 298.186 11.628 298.186 11.164C298.186 10.7107 298.271 10.3187 298.442 9.988C298.618 9.652 298.863 9.37467 299.178 9.156C299.492 8.932 299.868 8.756 300.306 8.628C300.716 8.516 301.175 8.42 301.682 8.34C302.194 8.25467 302.711 8.17733 303.234 8.108C303.756 8.03867 304.244 7.972 304.698 7.908L304.186 8.204C304.202 7.436 304.047 6.868 303.722 6.5C303.402 6.132 302.847 5.948 302.058 5.948C301.535 5.948 301.076 6.068 300.682 6.308C300.292 6.54267 300.018 6.92667 299.858 7.46L298.506 7.052C298.714 6.29467 299.116 5.7 299.714 5.268C300.311 4.836 301.098 4.62 302.074 4.62C302.858 4.62 303.53 4.76133 304.09 5.044C304.655 5.32133 305.06 5.74267 305.306 6.308C305.428 6.57467 305.506 6.86533 305.538 7.18C305.57 7.48933 305.586 7.81467 305.586 8.156V13.5H304.322V11.428L304.618 11.62C304.292 12.3187 303.836 12.8467 303.25 13.204C302.668 13.5613 301.959 13.74 301.122 13.74ZM301.338 12.548C301.85 12.548 302.292 12.4573 302.666 12.276C303.044 12.0893 303.348 11.8467 303.578 11.548C303.807 11.244 303.956 10.9133 304.026 10.556C304.106 10.2893 304.148 9.99333 304.154 9.668C304.164 9.33733 304.17 9.084 304.17 8.908L304.666 9.124C304.202 9.188 303.746 9.24933 303.298 9.308C302.85 9.36667 302.426 9.43067 302.026 9.5C301.626 9.564 301.266 9.64133 300.946 9.732C300.711 9.80667 300.49 9.90267 300.282 10.02C300.079 10.1373 299.914 10.2893 299.786 10.476C299.663 10.6573 299.602 10.884 299.602 11.156C299.602 11.3907 299.66 11.6147 299.778 11.828C299.9 12.0413 300.087 12.2147 300.338 12.348C300.594 12.4813 300.927 12.548 301.338 12.548ZM308.17 13.5V4.388C308.17 4.164 308.18 3.93733 308.202 3.708C308.223 3.47333 308.271 3.24667 308.346 3.028C308.42 2.804 308.543 2.59867 308.714 2.412C308.911 2.19333 309.127 2.03867 309.362 1.948C309.596 1.852 309.834 1.79333 310.074 1.772C310.319 1.75067 310.551 1.74 310.77 1.74H311.866V2.924H310.85C310.428 2.924 310.114 3.028 309.906 3.236C309.698 3.43867 309.594 3.748 309.594 4.164V13.5H308.17ZM306.706 6.036V4.86H311.866V6.036H306.706ZM315.044 13.74C314.399 13.74 313.857 13.6227 313.42 13.388C312.988 13.148 312.66 12.8333 312.436 12.444C312.217 12.0547 312.108 11.628 312.108 11.164C312.108 10.7107 312.193 10.3187 312.364 9.988C312.54 9.652 312.785 9.37467 313.1 9.156C313.415 8.932 313.791 8.756 314.228 8.628C314.639 8.516 315.097 8.42 315.604 8.34C316.116 8.25467 316.633 8.17733 317.156 8.108C317.679 8.03867 318.167 7.972 318.62 7.908L318.108 8.204C318.124 7.436 317.969 6.868 317.644 6.5C317.324 6.132 316.769 5.948 315.98 5.948C315.457 5.948 314.999 6.068 314.604 6.308C314.215 6.54267 313.94 6.92667 313.78 7.46L312.428 7.052C312.636 6.29467 313.039 5.7 313.636 5.268C314.233 4.836 315.02 4.62 315.996 4.62C316.78 4.62 317.452 4.76133 318.012 5.044C318.577 5.32133 318.983 5.74267 319.228 6.308C319.351 6.57467 319.428 6.86533 319.46 7.18C319.492 7.48933 319.508 7.81467 319.508 8.156V13.5H318.244V11.428L318.54 11.62C318.215 12.3187 317.759 12.8467 317.172 13.204C316.591 13.5613 315.881 13.74 315.044 13.74ZM315.26 12.548C315.772 12.548 316.215 12.4573 316.588 12.276C316.967 12.0893 317.271 11.8467 317.5 11.548C317.729 11.244 317.879 10.9133 317.948 10.556C318.028 10.2893 318.071 9.99333 318.076 9.668C318.087 9.33733 318.092 9.084 318.092 8.908L318.588 9.124C318.124 9.188 317.668 9.24933 317.22 9.308C316.772 9.36667 316.348 9.43067 315.948 9.5C315.548 9.564 315.188 9.64133 314.868 9.732C314.633 9.80667 314.412 9.90267 314.204 10.02C314.001 10.1373 313.836 10.2893 313.708 10.476C313.585 10.6573 313.524 10.884 313.524 11.156C313.524 11.3907 313.583 11.6147 313.7 11.828C313.823 12.0413 314.009 12.2147 314.26 12.348C314.516 12.4813 314.849 12.548 315.26 12.548ZM327.42 13.5V9.172C327.42 8.76133 327.383 8.36667 327.308 7.988C327.239 7.60933 327.113 7.27067 326.932 6.972C326.756 6.668 326.516 6.428 326.212 6.252C325.913 6.076 325.535 5.988 325.076 5.988C324.719 5.988 324.393 6.04933 324.1 6.172C323.812 6.28933 323.564 6.47067 323.356 6.716C323.148 6.96133 322.985 7.27067 322.868 7.644C322.756 8.012 322.7 8.44667 322.7 8.948L321.764 8.66C321.764 7.82267 321.913 7.10533 322.212 6.508C322.516 5.90533 322.94 5.444 323.484 5.124C324.033 4.79867 324.679 4.636 325.42 4.636C325.98 4.636 326.457 4.724 326.852 4.9C327.247 5.076 327.575 5.31067 327.836 5.604C328.097 5.892 328.303 6.21733 328.452 6.58C328.601 6.93733 328.705 7.30267 328.764 7.676C328.828 8.044 328.86 8.39333 328.86 8.724V13.5H327.42ZM321.26 13.5V4.86H322.54V7.172H322.7V13.5H321.26ZM333.076 13.74C332.431 13.74 331.889 13.6227 331.452 13.388C331.02 13.148 330.692 12.8333 330.468 12.444C330.249 12.0547 330.14 11.628 330.14 11.164C330.14 10.7107 330.225 10.3187 330.396 9.988C330.572 9.652 330.817 9.37467 331.132 9.156C331.447 8.932 331.823 8.756 332.26 8.628C332.671 8.516 333.129 8.42 333.636 8.34C334.148 8.25467 334.665 8.17733 335.188 8.108C335.711 8.03867 336.199 7.972 336.652 7.908L336.14 8.204C336.156 7.436 336.001 6.868 335.676 6.5C335.356 6.132 334.801 5.948 334.012 5.948C333.489 5.948 333.031 6.068 332.636 6.308C332.247 6.54267 331.972 6.92667 331.812 7.46L330.46 7.052C330.668 6.29467 331.071 5.7 331.668 5.268C332.265 4.836 333.052 4.62 334.028 4.62C334.812 4.62 335.484 4.76133 336.044 5.044C336.609 5.32133 337.015 5.74267 337.26 6.308C337.383 6.57467 337.46 6.86533 337.492 7.18C337.524 7.48933 337.54 7.81467 337.54 8.156V13.5H336.276V11.428L336.572 11.62C336.247 12.3187 335.791 12.8467 335.204 13.204C334.623 13.5613 333.913 13.74 333.076 13.74ZM333.292 12.548C333.804 12.548 334.247 12.4573 334.62 12.276C334.999 12.0893 335.303 11.8467 335.532 11.548C335.761 11.244 335.911 10.9133 335.98 10.556C336.06 10.2893 336.103 9.99333 336.108 9.668C336.119 9.33733 336.124 9.084 336.124 8.908L336.62 9.124C336.156 9.188 335.7 9.24933 335.252 9.308C334.804 9.36667 334.38 9.43067 333.98 9.5C333.58 9.564 333.22 9.64133 332.9 9.732C332.665 9.80667 332.444 9.90267 332.236 10.02C332.033 10.1373 331.868 10.2893 331.74 10.476C331.617 10.6573 331.556 10.884 331.556 11.156C331.556 11.3907 331.615 11.6147 331.732 11.828C331.855 12.0413 332.041 12.2147 332.292 12.348C332.548 12.4813 332.881 12.548 333.292 12.548Z" fill="#EDEDED"/>
<rect x="378.5" width="15" height="15" fill="#00CAFF"/>
<path d="M399.602 13.5V1.98H401.042L407.05 10.98V1.98H408.49V13.5H407.05L401.042 4.492V13.5H399.602ZM414.151 13.74C413.303 13.74 412.562 13.5533 411.927 13.18C411.298 12.8013 410.807 12.276 410.455 11.604C410.103 10.9267 409.927 10.1373 409.927 9.236C409.927 8.292 410.1 7.476 410.447 6.788C410.794 6.09467 411.276 5.56133 411.895 5.188C412.519 4.80933 413.25 4.62 414.087 4.62C414.956 4.62 415.695 4.82 416.303 5.22C416.916 5.62 417.375 6.19067 417.679 6.932C417.988 7.67333 418.122 8.556 418.079 9.58H416.639V9.068C416.623 8.00667 416.407 7.21467 415.991 6.692C415.575 6.164 414.956 5.9 414.135 5.9C413.255 5.9 412.586 6.18267 412.127 6.748C411.668 7.31333 411.439 8.124 411.439 9.18C411.439 10.1987 411.668 10.988 412.127 11.548C412.586 12.108 413.239 12.388 414.087 12.388C414.658 12.388 415.154 12.2573 415.575 11.996C415.996 11.7347 416.327 11.3587 416.567 10.868L417.935 11.34C417.599 12.1027 417.092 12.6947 416.415 13.116C415.743 13.532 414.988 13.74 414.151 13.74ZM410.959 9.58V8.436H417.343V9.58H410.959ZM421.067 13.5L418.427 4.852L419.843 4.86L421.771 11.18L423.715 4.86H424.971L426.907 11.18L428.843 4.86H430.251L427.611 13.5H426.427L424.339 6.932L422.251 13.5H421.067ZM434.259 13.5V1.98H438.811C438.923 1.98 439.057 1.98533 439.211 1.996C439.366 2.00133 439.515 2.01733 439.659 2.044C440.283 2.14 440.806 2.35333 441.227 2.684C441.654 3.01467 441.974 3.43333 442.187 3.94C442.401 4.44133 442.507 4.99867 442.507 5.612C442.507 6.50267 442.275 7.276 441.811 7.932C441.347 8.58267 440.667 8.99067 439.771 9.156L439.227 9.244H435.683V13.5H434.259ZM441.115 13.5L438.843 8.812L440.251 8.38L442.747 13.5H441.115ZM435.683 7.892H438.763C438.865 7.892 438.979 7.88667 439.107 7.876C439.241 7.86533 439.366 7.84667 439.483 7.82C439.851 7.73467 440.15 7.58 440.379 7.356C440.614 7.12667 440.785 6.86 440.891 6.556C440.998 6.24667 441.051 5.932 441.051 5.612C441.051 5.292 440.998 4.98 440.891 4.676C440.785 4.36667 440.614 4.09733 440.379 3.868C440.15 3.63867 439.851 3.484 439.483 3.404C439.366 3.372 439.241 3.35333 439.107 3.348C438.979 3.33733 438.865 3.332 438.763 3.332H435.683V7.892ZM447.933 13.74C447.085 13.74 446.344 13.5533 445.709 13.18C445.08 12.8013 444.589 12.276 444.237 11.604C443.885 10.9267 443.709 10.1373 443.709 9.236C443.709 8.292 443.883 7.476 444.229 6.788C444.576 6.09467 445.059 5.56133 445.677 5.188C446.301 4.80933 447.032 4.62 447.869 4.62C448.739 4.62 449.477 4.82 450.085 5.22C450.699 5.62 451.157 6.19067 451.461 6.932C451.771 7.67333 451.904 8.556 451.861 9.58H450.421V9.068C450.405 8.00667 450.189 7.21467 449.773 6.692C449.357 6.164 448.739 5.9 447.917 5.9C447.037 5.9 446.368 6.18267 445.909 6.748C445.451 7.31333 445.221 8.124 445.221 9.18C445.221 10.1987 445.451 10.988 445.909 11.548C446.368 12.108 447.021 12.388 447.869 12.388C448.44 12.388 448.936 12.2573 449.357 11.996C449.779 11.7347 450.109 11.3587 450.349 10.868L451.717 11.34C451.381 12.1027 450.875 12.6947 450.197 13.116C449.525 13.532 448.771 13.74 447.933 13.74ZM444.741 9.58V8.436H451.125V9.58H444.741ZM453.482 13.5V1.74H454.906V13.5H453.482ZM457.147 3.332V1.86H458.571V3.332H457.147ZM457.147 13.5V4.86H458.571V13.5H457.147ZM464.291 13.74C463.417 13.74 462.673 13.5453 462.059 13.156C461.451 12.7613 460.987 12.22 460.667 11.532C460.347 10.844 460.182 10.06 460.171 9.18C460.182 8.27867 460.35 7.48667 460.675 6.804C461.006 6.116 461.478 5.58 462.091 5.196C462.705 4.812 463.443 4.62 464.307 4.62C465.219 4.62 466.003 4.844 466.659 5.292C467.321 5.74 467.763 6.35333 467.987 7.132L466.579 7.556C466.398 7.05467 466.102 6.66533 465.691 6.388C465.286 6.11067 464.819 5.972 464.291 5.972C463.699 5.972 463.211 6.11067 462.827 6.388C462.443 6.66 462.158 7.03867 461.971 7.524C461.785 8.004 461.689 8.556 461.683 9.18C461.694 10.14 461.915 10.916 462.347 11.508C462.785 12.0947 463.433 12.388 464.291 12.388C464.857 12.388 465.326 12.26 465.699 12.004C466.073 11.7427 466.355 11.3667 466.547 10.876L467.987 11.252C467.689 12.0573 467.222 12.6733 466.587 13.1C465.953 13.5267 465.187 13.74 464.291 13.74Z" fill="#EDEDED"/>
<rect x="508.5" width="15" height="15" fill="#5920AD"/>
<path d="M529.259 13.5V1.98H532.811C532.928 1.98 533.133 1.98267 533.427 1.988C533.72 1.99333 534 2.01467 534.267 2.052C535.157 2.16933 535.901 2.49467 536.499 3.028C537.101 3.556 537.555 4.228 537.859 5.044C538.163 5.86 538.315 6.75867 538.315 7.74C538.315 8.72133 538.163 9.62 537.859 10.436C537.555 11.252 537.101 11.9267 536.499 12.46C535.901 12.988 535.157 13.3107 534.267 13.428C534 13.46 533.717 13.4813 533.419 13.492C533.125 13.4973 532.923 13.5 532.811 13.5H529.259ZM530.723 12.14H532.811C533.013 12.14 533.24 12.1347 533.491 12.124C533.741 12.108 533.96 12.084 534.147 12.052C534.776 11.9347 535.285 11.6707 535.675 11.26C536.064 10.8493 536.349 10.3373 536.531 9.724C536.712 9.11067 536.803 8.44933 536.803 7.74C536.803 7.01467 536.709 6.34533 536.523 5.732C536.341 5.11867 536.056 4.60933 535.667 4.204C535.277 3.79867 534.771 3.54 534.147 3.428C533.96 3.39067 533.739 3.36667 533.483 3.356C533.227 3.34533 533.003 3.34 532.811 3.34H530.723V12.14ZM542.285 13.74C541.64 13.74 541.099 13.6227 540.661 13.388C540.229 13.148 539.901 12.8333 539.677 12.444C539.459 12.0547 539.349 11.628 539.349 11.164C539.349 10.7107 539.435 10.3187 539.605 9.988C539.781 9.652 540.027 9.37467 540.341 9.156C540.656 8.932 541.032 8.756 541.469 8.628C541.88 8.516 542.339 8.42 542.845 8.34C543.357 8.25467 543.875 8.17733 544.397 8.108C544.92 8.03867 545.408 7.972 545.861 7.908L545.349 8.204C545.365 7.436 545.211 6.868 544.885 6.5C544.565 6.132 544.011 5.948 543.221 5.948C542.699 5.948 542.24 6.068 541.845 6.308C541.456 6.54267 541.181 6.92667 541.021 7.46L539.669 7.052C539.877 6.29467 540.28 5.7 540.877 5.268C541.475 4.836 542.261 4.62 543.237 4.62C544.021 4.62 544.693 4.76133 545.253 5.044C545.819 5.32133 546.224 5.74267 546.469 6.308C546.592 6.57467 546.669 6.86533 546.701 7.18C546.733 7.48933 546.749 7.81467 546.749 8.156V13.5H545.485V11.428L545.781 11.62C545.456 12.3187 545 12.8467 544.413 13.204C543.832 13.5613 543.123 13.74 542.285 13.74ZM542.501 12.548C543.013 12.548 543.456 12.4573 543.829 12.276C544.208 12.0893 544.512 11.8467 544.741 11.548C544.971 11.244 545.12 10.9133 545.189 10.556C545.269 10.2893 545.312 9.99333 545.317 9.668C545.328 9.33733 545.333 9.084 545.333 8.908L545.829 9.124C545.365 9.188 544.909 9.24933 544.461 9.308C544.013 9.36667 543.589 9.43067 543.189 9.5C542.789 9.564 542.429 9.64133 542.109 9.732C541.875 9.80667 541.653 9.90267 541.445 10.02C541.243 10.1373 541.077 10.2893 540.949 10.476C540.827 10.6573 540.765 10.884 540.765 11.156C540.765 11.3907 540.824 11.6147 540.941 11.828C541.064 12.0413 541.251 12.2147 541.501 12.348C541.757 12.4813 542.091 12.548 542.501 12.548ZM553.333 13.5C552.821 13.6013 552.315 13.6413 551.813 13.62C551.317 13.604 550.875 13.5053 550.485 13.324C550.096 13.1373 549.8 12.8493 549.597 12.46C549.427 12.1187 549.333 11.7747 549.317 11.428C549.307 11.076 549.301 10.6787 549.301 10.236V2.46H550.725V10.172C550.725 10.524 550.728 10.8253 550.733 11.076C550.744 11.3267 550.8 11.5427 550.901 11.724C551.093 12.0653 551.397 12.2653 551.813 12.324C552.235 12.3827 552.741 12.3667 553.333 12.276V13.5ZM547.549 6.036V4.86H553.333V6.036H547.549ZM557.223 13.74C556.578 13.74 556.037 13.6227 555.599 13.388C555.167 13.148 554.839 12.8333 554.615 12.444C554.397 12.0547 554.287 11.628 554.287 11.164C554.287 10.7107 554.373 10.3187 554.543 9.988C554.719 9.652 554.965 9.37467 555.279 9.156C555.594 8.932 555.97 8.756 556.407 8.628C556.818 8.516 557.277 8.42 557.783 8.34C558.295 8.25467 558.813 8.17733 559.335 8.108C559.858 8.03867 560.346 7.972 560.799 7.908L560.287 8.204C560.303 7.436 560.149 6.868 559.823 6.5C559.503 6.132 558.949 5.948 558.159 5.948C557.637 5.948 557.178 6.068 556.783 6.308C556.394 6.54267 556.119 6.92667 555.959 7.46L554.607 7.052C554.815 6.29467 555.218 5.7 555.815 5.268C556.413 4.836 557.199 4.62 558.175 4.62C558.959 4.62 559.631 4.76133 560.191 5.044C560.757 5.32133 561.162 5.74267 561.407 6.308C561.53 6.57467 561.607 6.86533 561.639 7.18C561.671 7.48933 561.687 7.81467 561.687 8.156V13.5H560.423V11.428L560.719 11.62C560.394 12.3187 559.938 12.8467 559.351 13.204C558.77 13.5613 558.061 13.74 557.223 13.74ZM557.439 12.548C557.951 12.548 558.394 12.4573 558.767 12.276C559.146 12.0893 559.45 11.8467 559.679 11.548C559.909 11.244 560.058 10.9133 560.127 10.556C560.207 10.2893 560.25 9.99333 560.255 9.668C560.266 9.33733 560.271 9.084 560.271 8.908L560.767 9.124C560.303 9.188 559.847 9.24933 559.399 9.308C558.951 9.36667 558.527 9.43067 558.127 9.5C557.727 9.564 557.367 9.64133 557.047 9.732C556.813 9.80667 556.591 9.90267 556.383 10.02C556.181 10.1373 556.015 10.2893 555.887 10.476C555.765 10.6573 555.703 10.884 555.703 11.156C555.703 11.3907 555.762 11.6147 555.879 11.828C556.002 12.0413 556.189 12.2147 556.439 12.348C556.695 12.4813 557.029 12.548 557.439 12.548ZM566.839 13.74C566.034 13.74 565.343 13.54 564.767 13.14C564.191 12.7347 563.746 12.188 563.431 11.5C563.122 10.812 562.967 10.036 562.967 9.172C562.967 8.308 563.122 7.532 563.431 6.844C563.746 6.156 564.191 5.61467 564.767 5.22C565.343 4.82 566.031 4.62 566.831 4.62C567.647 4.62 568.333 4.81733 568.887 5.212C569.442 5.60667 569.861 6.148 570.143 6.836C570.431 7.524 570.575 8.30267 570.575 9.172C570.575 10.0307 570.431 10.8067 570.143 11.5C569.861 12.188 569.442 12.7347 568.887 13.14C568.333 13.54 567.65 13.74 566.839 13.74ZM567.015 12.436C567.597 12.436 568.074 12.2973 568.447 12.02C568.821 11.7373 569.095 11.3507 569.271 10.86C569.453 10.364 569.543 9.80133 569.543 9.172C569.543 8.532 569.453 7.96933 569.271 7.484C569.095 6.99333 568.823 6.612 568.455 6.34C568.087 6.06267 567.621 5.924 567.055 5.924C566.469 5.924 565.983 6.068 565.599 6.356C565.221 6.644 564.938 7.03333 564.751 7.524C564.57 8.01467 564.479 8.564 564.479 9.172C564.479 9.78533 564.573 10.34 564.759 10.836C564.946 11.3267 565.226 11.716 565.599 12.004C565.978 12.292 566.45 12.436 567.015 12.436ZM569.543 13.5V7.14H569.383V1.98H570.816V13.5H569.543ZM576.417 13.74C575.558 13.74 574.817 13.5453 574.193 13.156C573.574 12.7667 573.097 12.228 572.761 11.54C572.425 10.852 572.257 10.0627 572.257 9.172C572.257 8.26533 572.428 7.47067 572.769 6.788C573.11 6.10533 573.593 5.57467 574.217 5.196C574.841 4.812 575.574 4.62 576.417 4.62C577.281 4.62 578.025 4.81467 578.649 5.204C579.273 5.588 579.75 6.124 580.081 6.812C580.417 7.49467 580.585 8.28133 580.585 9.172C580.585 10.0733 580.417 10.868 580.081 11.556C579.745 12.2387 579.265 12.7747 578.641 13.164C578.017 13.548 577.276 13.74 576.417 13.74ZM576.417 12.388C577.313 12.388 577.98 12.0893 578.417 11.492C578.854 10.8947 579.073 10.1213 579.073 9.172C579.073 8.196 578.852 7.42 578.409 6.844C577.966 6.26267 577.302 5.972 576.417 5.972C575.814 5.972 575.318 6.108 574.929 6.38C574.54 6.652 574.249 7.028 574.057 7.508C573.865 7.988 573.769 8.54267 573.769 9.172C573.769 10.1427 573.993 10.9213 574.441 11.508C574.889 12.0947 575.548 12.388 576.417 12.388ZM585.522 17.58C585.069 17.58 584.626 17.5107 584.194 17.372C583.762 17.2333 583.365 17.0227 583.002 16.74C582.645 16.4627 582.346 16.1107 582.106 15.684L583.41 14.996C583.624 15.4173 583.925 15.724 584.314 15.916C584.709 16.108 585.114 16.204 585.53 16.204C586.08 16.204 586.536 16.1027 586.898 15.9C587.261 15.7027 587.528 15.4067 587.698 15.012C587.874 14.6173 587.96 14.1267 587.954 13.54V11.18H588.122V4.86H589.386V13.556C589.386 13.7907 589.378 14.0173 589.362 14.236C589.352 14.4547 589.325 14.6707 589.282 14.884C589.17 15.4973 588.949 16.0013 588.618 16.396C588.288 16.796 587.861 17.092 587.338 17.284C586.816 17.4813 586.21 17.58 585.522 17.58ZM585.418 13.74C584.613 13.74 583.922 13.54 583.346 13.14C582.77 12.7347 582.325 12.188 582.01 11.5C581.701 10.812 581.546 10.036 581.546 9.172C581.546 8.308 581.701 7.532 582.01 6.844C582.325 6.156 582.77 5.61467 583.346 5.22C583.922 4.82 584.61 4.62 585.41 4.62C586.226 4.62 586.912 4.81733 587.466 5.212C588.021 5.60667 588.44 6.148 588.722 6.836C589.01 7.524 589.154 8.30267 589.154 9.172C589.154 10.0307 589.01 10.8067 588.722 11.5C588.44 12.188 588.021 12.7347 587.466 13.14C586.912 13.54 586.229 13.74 585.418 13.74ZM585.594 12.436C586.176 12.436 586.653 12.2973 587.026 12.02C587.4 11.7373 587.674 11.3507 587.85 10.86C588.032 10.364 588.122 9.80133 588.122 9.172C588.122 8.532 588.032 7.96933 587.85 7.484C587.674 6.99333 587.402 6.612 587.034 6.34C586.666 6.06267 586.2 5.924 585.634 5.924C585.048 5.924 584.562 6.068 584.178 6.356C583.8 6.644 583.517 7.03333 583.33 7.524C583.149 8.01467 583.058 8.564 583.058 9.172C583.058 9.78533 583.152 10.34 583.338 10.836C583.525 11.3267 583.805 11.716 584.178 12.004C584.557 12.292 585.029 12.436 585.594 12.436Z" fill="#EDEDED"/>
<defs>
<filter id="filter0_d_2118_877" x="169.176" y="337.24" width="72.6953" height="23.5996" filterUnits="userSpaceOnUse" color-interpolation-filters="sRGB">
<feFlood flood-opacity="0" result="BackgroundImageFix"/>
<feColorMatrix in="SourceAlpha" type="matrix" values="0 0 0 0 0 0 0 0 0 0 0 0 0 0 0 0 0 0 127 0" result="hardAlpha"/>
<feOffset dy="4"/>
<feGaussianBlur stdDeviation="2"/>
<feComposite in2="hardAlpha" operator="out"/>
<feColorMatrix type="matrix" values="0 0 0 0 0 0 0 0 0 0 0 0 0 0 0 0 0 0 0.25 0"/>
<feBlend mode="normal" in2="BackgroundImageFix" result="effect1_dropShadow_2118_877"/>
<feBlend mode="normal" in="SourceGraphic" in2="effect1_dropShadow_2118_877" result="shape"/>
</filter>
</defs>
</svg>
