<svg width="752" height="384" viewBox="0 0 752 384" fill="none" xmlns="http://www.w3.org/2000/svg">
<line x1="127" y1="347.5" x2="752" y2="347.5" stroke="#494949"/>
<path d="M414.112 379.24C413.301 379.24 412.571 379.099 411.92 378.816C411.269 378.533 410.715 378.131 410.256 377.608C409.803 377.085 409.456 376.456 409.216 375.72C408.976 374.979 408.856 374.152 408.856 373.24C408.856 372.035 409.064 370.984 409.48 370.088C409.901 369.187 410.504 368.488 411.288 367.992C412.072 367.496 413.013 367.248 414.112 367.248C415.339 367.248 416.336 367.536 417.104 368.112C417.877 368.683 418.416 369.451 418.72 370.416L417.536 370.704C417.285 370 416.872 369.437 416.296 369.016C415.725 368.595 415.013 368.384 414.16 368.384C413.259 368.379 412.509 368.581 411.912 368.992C411.315 369.397 410.864 369.968 410.56 370.704C410.261 371.435 410.109 372.28 410.104 373.24C410.099 374.2 410.245 375.045 410.544 375.776C410.848 376.501 411.301 377.072 411.904 377.488C412.507 377.899 413.259 378.107 414.16 378.112C414.987 378.112 415.669 377.952 416.208 377.632C416.747 377.312 417.155 376.853 417.432 376.256C417.715 375.659 417.875 374.952 417.912 374.136H415.256V373.128H419.144C419.16 373.251 419.168 373.381 419.168 373.52C419.173 373.653 419.176 373.749 419.176 373.808C419.176 374.848 418.989 375.779 418.616 376.6C418.243 377.416 417.68 378.061 416.928 378.536C416.181 379.005 415.243 379.24 414.112 379.24ZM421.097 379V370.36H422.153V372.44L421.945 372.168C422.041 371.912 422.167 371.677 422.321 371.464C422.476 371.245 422.644 371.067 422.825 370.928C423.049 370.731 423.311 370.581 423.609 370.48C423.908 370.373 424.209 370.312 424.513 370.296C424.817 370.275 425.095 370.296 425.345 370.36V371.464C425.031 371.384 424.687 371.365 424.313 371.408C423.94 371.451 423.596 371.6 423.281 371.856C422.993 372.08 422.777 372.349 422.633 372.664C422.489 372.973 422.393 373.304 422.345 373.656C422.297 374.003 422.273 374.347 422.273 374.688V379H421.097ZM429.327 379.24C428.676 379.24 428.129 379.123 427.687 378.888C427.249 378.653 426.921 378.341 426.703 377.952C426.484 377.563 426.375 377.139 426.375 376.68C426.375 376.211 426.468 375.811 426.655 375.48C426.847 375.144 427.105 374.869 427.431 374.656C427.761 374.443 428.143 374.28 428.575 374.168C429.012 374.061 429.495 373.968 430.023 373.888C430.556 373.803 431.076 373.731 431.583 373.672C432.095 373.608 432.543 373.547 432.927 373.488L432.511 373.744C432.527 372.891 432.361 372.259 432.015 371.848C431.668 371.437 431.065 371.232 430.207 371.232C429.615 371.232 429.113 371.365 428.703 371.632C428.297 371.899 428.012 372.32 427.847 372.896L426.703 372.56C426.9 371.787 427.297 371.187 427.895 370.76C428.492 370.333 429.268 370.12 430.223 370.12C431.012 370.12 431.681 370.269 432.231 370.568C432.785 370.861 433.177 371.288 433.407 371.848C433.513 372.099 433.583 372.379 433.615 372.688C433.647 372.997 433.663 373.312 433.663 373.632V379H432.615V376.832L432.919 376.96C432.625 377.701 432.169 378.267 431.551 378.656C430.932 379.045 430.191 379.24 429.327 379.24ZM429.463 378.224C430.012 378.224 430.492 378.125 430.903 377.928C431.313 377.731 431.644 377.461 431.895 377.12C432.145 376.773 432.308 376.384 432.383 375.952C432.447 375.675 432.481 375.371 432.487 375.04C432.492 374.704 432.495 374.453 432.495 374.288L432.943 374.52C432.543 374.573 432.108 374.627 431.639 374.68C431.175 374.733 430.716 374.795 430.263 374.864C429.815 374.933 429.409 375.016 429.047 375.112C428.801 375.181 428.564 375.28 428.335 375.408C428.105 375.531 427.916 375.696 427.767 375.904C427.623 376.112 427.551 376.371 427.551 376.68C427.551 376.931 427.612 377.173 427.735 377.408C427.863 377.643 428.065 377.837 428.343 377.992C428.625 378.147 428.999 378.224 429.463 378.224ZM436.921 379V369.72C436.921 369.496 436.932 369.275 436.953 369.056C436.98 368.837 437.031 368.629 437.105 368.432C437.18 368.229 437.297 368.043 437.457 367.872C437.633 367.68 437.825 367.541 438.033 367.456C438.241 367.365 438.457 367.307 438.681 367.28C438.911 367.253 439.135 367.24 439.353 367.24H440.457V368.232H439.433C438.985 368.232 438.649 368.341 438.425 368.56C438.207 368.779 438.097 369.123 438.097 369.592V379H436.921ZM435.425 371.368V370.36H440.457V371.368H435.425ZM444.295 379.24C443.644 379.24 443.097 379.123 442.655 378.888C442.217 378.653 441.889 378.341 441.671 377.952C441.452 377.563 441.343 377.139 441.343 376.68C441.343 376.211 441.436 375.811 441.623 375.48C441.815 375.144 442.073 374.869 442.399 374.656C442.729 374.443 443.111 374.28 443.543 374.168C443.98 374.061 444.463 373.968 444.991 373.888C445.524 373.803 446.044 373.731 446.551 373.672C447.063 373.608 447.511 373.547 447.895 373.488L447.479 373.744C447.495 372.891 447.329 372.259 446.983 371.848C446.636 371.437 446.033 371.232 445.175 371.232C444.583 371.232 444.081 371.365 443.671 371.632C443.265 371.899 442.98 372.32 442.815 372.896L441.671 372.56C441.868 371.787 442.265 371.187 442.863 370.76C443.46 370.333 444.236 370.12 445.191 370.12C445.98 370.12 446.649 370.269 447.199 370.568C447.753 370.861 448.145 371.288 448.375 371.848C448.481 372.099 448.551 372.379 448.583 372.688C448.615 372.997 448.631 373.312 448.631 373.632V379H447.583V376.832L447.887 376.96C447.593 377.701 447.137 378.267 446.519 378.656C445.9 379.045 445.159 379.24 444.295 379.24ZM444.431 378.224C444.98 378.224 445.46 378.125 445.871 377.928C446.281 377.731 446.612 377.461 446.863 377.12C447.113 376.773 447.276 376.384 447.351 375.952C447.415 375.675 447.449 375.371 447.455 375.04C447.46 374.704 447.463 374.453 447.463 374.288L447.911 374.52C447.511 374.573 447.076 374.627 446.607 374.68C446.143 374.733 445.684 374.795 445.231 374.864C444.783 374.933 444.377 375.016 444.015 375.112C443.769 375.181 443.532 375.28 443.303 375.408C443.073 375.531 442.884 375.696 442.735 375.904C442.591 376.112 442.519 376.371 442.519 376.68C442.519 376.931 442.58 377.173 442.703 377.408C442.831 377.643 443.033 377.837 443.311 377.992C443.593 378.147 443.967 378.224 444.431 378.224ZM457.273 379V374.592C457.273 374.112 457.228 373.672 457.137 373.272C457.047 372.867 456.9 372.515 456.697 372.216C456.5 371.912 456.241 371.677 455.921 371.512C455.607 371.347 455.223 371.264 454.769 371.264C454.353 371.264 453.985 371.336 453.665 371.48C453.351 371.624 453.084 371.832 452.865 372.104C452.652 372.371 452.489 372.696 452.377 373.08C452.265 373.464 452.209 373.901 452.209 374.392L451.377 374.208C451.377 373.323 451.532 372.579 451.841 371.976C452.151 371.373 452.577 370.917 453.121 370.608C453.665 370.299 454.289 370.144 454.993 370.144C455.511 370.144 455.961 370.224 456.345 370.384C456.735 370.544 457.063 370.76 457.329 371.032C457.601 371.304 457.82 371.616 457.985 371.968C458.151 372.315 458.271 372.685 458.345 373.08C458.42 373.469 458.457 373.859 458.457 374.248V379H457.273ZM451.025 379V370.36H452.089V372.488H452.209V379H451.025ZM463.325 379.24C462.675 379.24 462.128 379.123 461.685 378.888C461.248 378.653 460.92 378.341 460.701 377.952C460.483 377.563 460.373 377.139 460.373 376.68C460.373 376.211 460.467 375.811 460.653 375.48C460.845 375.144 461.104 374.869 461.429 374.656C461.76 374.443 462.141 374.28 462.573 374.168C463.011 374.061 463.493 373.968 464.021 373.888C464.555 373.803 465.075 373.731 465.581 373.672C466.093 373.608 466.541 373.547 466.925 373.488L466.509 373.744C466.525 372.891 466.36 372.259 466.013 371.848C465.667 371.437 465.064 371.232 464.205 371.232C463.613 371.232 463.112 371.365 462.701 371.632C462.296 371.899 462.011 372.32 461.845 372.896L460.701 372.56C460.899 371.787 461.296 371.187 461.893 370.76C462.491 370.333 463.267 370.12 464.221 370.12C465.011 370.12 465.68 370.269 466.229 370.568C466.784 370.861 467.176 371.288 467.405 371.848C467.512 372.099 467.581 372.379 467.613 372.688C467.645 372.997 467.661 373.312 467.661 373.632V379H466.613V376.832L466.917 376.96C466.624 377.701 466.168 378.267 465.549 378.656C464.931 379.045 464.189 379.24 463.325 379.24ZM463.461 378.224C464.011 378.224 464.491 378.125 464.901 377.928C465.312 377.731 465.643 377.461 465.893 377.12C466.144 376.773 466.307 376.384 466.381 375.952C466.445 375.675 466.48 375.371 466.485 375.04C466.491 374.704 466.493 374.453 466.493 374.288L466.941 374.52C466.541 374.573 466.107 374.627 465.637 374.68C465.173 374.733 464.715 374.795 464.261 374.864C463.813 374.933 463.408 375.016 463.045 375.112C462.8 375.181 462.563 375.28 462.333 375.408C462.104 375.531 461.915 375.696 461.765 375.904C461.621 376.112 461.549 376.371 461.549 376.68C461.549 376.931 461.611 377.173 461.733 377.408C461.861 377.643 462.064 377.837 462.341 377.992C462.624 378.147 462.997 378.224 463.461 378.224Z" fill="#FFA900"/>
<path d="M285.25 379.24C284.444 379.24 283.719 379.107 283.074 378.84C282.434 378.568 281.903 378.184 281.482 377.688C281.066 377.192 280.794 376.603 280.666 375.92L281.866 375.72C282.058 376.467 282.463 377.053 283.082 377.48C283.7 377.901 284.439 378.112 285.298 378.112C285.863 378.112 286.37 378.024 286.818 377.848C287.266 377.667 287.618 377.411 287.874 377.08C288.13 376.749 288.258 376.357 288.258 375.904C288.258 375.605 288.204 375.352 288.098 375.144C287.991 374.931 287.85 374.755 287.674 374.616C287.498 374.477 287.306 374.363 287.098 374.272C286.89 374.176 286.687 374.099 286.49 374.04L283.57 373.168C283.218 373.067 282.892 372.939 282.594 372.784C282.295 372.624 282.034 372.435 281.81 372.216C281.591 371.992 281.42 371.731 281.298 371.432C281.175 371.133 281.114 370.792 281.114 370.408C281.114 369.757 281.284 369.195 281.626 368.72C281.967 368.245 282.434 367.88 283.026 367.624C283.618 367.368 284.292 367.243 285.05 367.248C285.818 367.248 286.503 367.384 287.106 367.656C287.714 367.928 288.215 368.317 288.61 368.824C289.004 369.325 289.266 369.92 289.394 370.608L288.162 370.832C288.082 370.331 287.898 369.896 287.61 369.528C287.322 369.16 286.954 368.877 286.506 368.68C286.063 368.477 285.575 368.373 285.042 368.368C284.524 368.368 284.063 368.456 283.658 368.632C283.258 368.803 282.94 369.037 282.706 369.336C282.471 369.635 282.354 369.976 282.354 370.36C282.354 370.749 282.46 371.061 282.674 371.296C282.892 371.531 283.159 371.715 283.474 371.848C283.794 371.981 284.103 372.091 284.402 372.176L286.658 372.84C286.892 372.904 287.167 372.997 287.482 373.12C287.802 373.237 288.111 373.408 288.41 373.632C288.714 373.851 288.964 374.139 289.162 374.496C289.359 374.853 289.458 375.307 289.458 375.856C289.458 376.389 289.351 376.867 289.138 377.288C288.93 377.709 288.634 378.064 288.25 378.352C287.871 378.64 287.426 378.859 286.914 379.008C286.407 379.163 285.852 379.24 285.25 379.24ZM291.589 368.72V367.4H292.765V368.72H291.589ZM291.589 379V370.36H292.765V379H291.589ZM298.915 383.08C298.473 383.08 298.035 383.013 297.603 382.88C297.177 382.752 296.782 382.547 296.419 382.264C296.057 381.987 295.753 381.624 295.507 381.176L296.571 380.584C296.811 381.064 297.147 381.408 297.579 381.616C298.017 381.829 298.462 381.936 298.915 381.936C299.539 381.936 300.043 381.819 300.427 381.584C300.817 381.355 301.099 381.013 301.275 380.56C301.451 380.107 301.537 379.541 301.531 378.864V376.56H301.667V370.36H302.715V378.88C302.715 379.125 302.707 379.36 302.691 379.584C302.681 379.813 302.657 380.037 302.619 380.256C302.518 380.901 302.307 381.432 301.987 381.848C301.673 382.264 301.257 382.573 300.739 382.776C300.227 382.979 299.619 383.08 298.915 383.08ZM298.835 379.24C298.03 379.24 297.342 379.04 296.771 378.64C296.201 378.235 295.763 377.688 295.459 377C295.155 376.312 295.003 375.536 295.003 374.672C295.003 373.813 295.153 373.04 295.451 372.352C295.755 371.664 296.19 371.12 296.755 370.72C297.321 370.32 297.998 370.12 298.787 370.12C299.598 370.12 300.281 370.317 300.835 370.712C301.39 371.107 301.809 371.648 302.091 372.336C302.379 373.019 302.523 373.797 302.523 374.672C302.523 375.531 302.382 376.307 302.099 377C301.817 377.688 301.401 378.235 300.851 378.64C300.302 379.04 299.63 379.24 298.835 379.24ZM298.955 378.144C299.569 378.144 300.075 377.995 300.475 377.696C300.875 377.397 301.174 376.987 301.371 376.464C301.569 375.936 301.667 375.339 301.667 374.672C301.667 373.995 301.569 373.397 301.371 372.88C301.174 372.357 300.875 371.949 300.475 371.656C300.081 371.363 299.582 371.216 298.979 371.216C298.361 371.216 297.849 371.368 297.443 371.672C297.038 371.976 296.737 372.389 296.539 372.912C296.347 373.435 296.251 374.021 296.251 374.672C296.251 375.328 296.35 375.92 296.547 376.448C296.75 376.971 297.051 377.384 297.451 377.688C297.851 377.992 298.353 378.144 298.955 378.144ZM311.512 379V374.592C311.512 374.112 311.467 373.672 311.376 373.272C311.286 372.867 311.139 372.515 310.936 372.216C310.739 371.912 310.48 371.677 310.16 371.512C309.846 371.347 309.462 371.264 309.008 371.264C308.592 371.264 308.224 371.336 307.904 371.48C307.59 371.624 307.323 371.832 307.104 372.104C306.891 372.371 306.728 372.696 306.616 373.08C306.504 373.464 306.448 373.901 306.448 374.392L305.616 374.208C305.616 373.323 305.771 372.579 306.08 371.976C306.39 371.373 306.816 370.917 307.36 370.608C307.904 370.299 308.528 370.144 309.232 370.144C309.75 370.144 310.2 370.224 310.584 370.384C310.974 370.544 311.302 370.76 311.568 371.032C311.84 371.304 312.059 371.616 312.224 371.968C312.39 372.315 312.51 372.685 312.584 373.08C312.659 373.469 312.696 373.859 312.696 374.248V379H311.512ZM305.264 379V370.36H306.328V372.488H306.448V379H305.264ZM318.653 379.24C317.795 379.24 317.061 379.045 316.453 378.656C315.845 378.267 315.379 377.728 315.053 377.04C314.728 376.352 314.565 375.563 314.565 374.672C314.565 373.765 314.731 372.971 315.061 372.288C315.392 371.605 315.861 371.075 316.469 370.696C317.083 370.312 317.811 370.12 318.653 370.12C319.517 370.12 320.253 370.315 320.861 370.704C321.475 371.088 321.941 371.624 322.261 372.312C322.587 372.995 322.749 373.781 322.749 374.672C322.749 375.579 322.587 376.376 322.261 377.064C321.936 377.747 321.467 378.28 320.853 378.664C320.24 379.048 319.507 379.24 318.653 379.24ZM318.653 378.112C319.613 378.112 320.328 377.795 320.797 377.16C321.267 376.52 321.501 375.691 321.501 374.672C321.501 373.627 321.264 372.795 320.789 372.176C320.32 371.557 319.608 371.248 318.653 371.248C318.008 371.248 317.475 371.395 317.053 371.688C316.637 371.976 316.325 372.379 316.117 372.896C315.915 373.408 315.813 374 315.813 374.672C315.813 375.712 316.053 376.547 316.533 377.176C317.013 377.8 317.72 378.112 318.653 378.112ZM323.722 379V378.752L329.298 371.456H324.138V370.36H331.234V370.632L325.666 377.904H330.93V379H323.722Z" fill="#F25733"/>
<path d="M148.57 379V367.48H149.746V379H148.57ZM158.704 379V374.592C158.704 374.112 158.659 373.672 158.568 373.272C158.478 372.867 158.331 372.515 158.128 372.216C157.931 371.912 157.672 371.677 157.352 371.512C157.038 371.347 156.654 371.264 156.2 371.264C155.784 371.264 155.416 371.336 155.096 371.48C154.782 371.624 154.515 371.832 154.296 372.104C154.083 372.371 153.92 372.696 153.808 373.08C153.696 373.464 153.64 373.901 153.64 374.392L152.808 374.208C152.808 373.323 152.963 372.579 153.272 371.976C153.582 371.373 154.008 370.917 154.552 370.608C155.096 370.299 155.72 370.144 156.424 370.144C156.942 370.144 157.392 370.224 157.776 370.384C158.166 370.544 158.494 370.76 158.76 371.032C159.032 371.304 159.251 371.616 159.416 371.968C159.582 372.315 159.702 372.685 159.776 373.08C159.851 373.469 159.888 373.859 159.888 374.248V379H158.704ZM152.456 379V370.36H153.52V372.488H153.64V379H152.456ZM165.822 379.24C164.952 379.24 164.216 379.045 163.614 378.656C163.011 378.267 162.552 377.731 162.238 377.048C161.928 376.36 161.768 375.571 161.758 374.68C161.768 373.773 161.934 372.979 162.254 372.296C162.574 371.608 163.035 371.075 163.638 370.696C164.24 370.312 164.971 370.12 165.83 370.12C166.704 370.12 167.464 370.333 168.11 370.76C168.76 371.187 169.206 371.771 169.446 372.512L168.294 372.88C168.091 372.363 167.768 371.963 167.326 371.68C166.888 371.392 166.387 371.248 165.822 371.248C165.187 371.248 164.662 371.395 164.246 371.688C163.83 371.976 163.52 372.379 163.318 372.896C163.115 373.413 163.011 374.008 163.006 374.68C163.016 375.715 163.256 376.547 163.726 377.176C164.195 377.8 164.894 378.112 165.822 378.112C166.408 378.112 166.907 377.979 167.318 377.712C167.734 377.44 168.048 377.045 168.262 376.528L169.446 376.88C169.126 377.648 168.656 378.235 168.038 378.64C167.419 379.04 166.68 379.24 165.822 379.24ZM174.839 379.24C173.996 379.24 173.265 379.053 172.647 378.68C172.033 378.307 171.556 377.781 171.215 377.104C170.873 376.427 170.703 375.632 170.703 374.72C170.703 373.776 170.871 372.96 171.207 372.272C171.543 371.584 172.015 371.053 172.623 370.68C173.236 370.307 173.959 370.12 174.791 370.12C175.644 370.12 176.372 370.317 176.975 370.712C177.577 371.101 178.033 371.661 178.343 372.392C178.652 373.123 178.793 373.995 178.767 375.008H177.567V374.592C177.545 373.472 177.303 372.627 176.839 372.056C176.38 371.485 175.708 371.2 174.823 371.2C173.895 371.2 173.183 371.501 172.687 372.104C172.196 372.707 171.951 373.565 171.951 374.68C171.951 375.768 172.196 376.613 172.687 377.216C173.183 377.813 173.884 378.112 174.791 378.112C175.409 378.112 175.948 377.971 176.407 377.688C176.871 377.4 177.236 376.987 177.503 376.448L178.599 376.872C178.257 377.624 177.753 378.208 177.087 378.624C176.425 379.035 175.676 379.24 174.839 379.24ZM171.535 375.008V374.024H178.135V375.008H171.535ZM180.862 379V370.36H181.918V372.44L181.71 372.168C181.806 371.912 181.931 371.677 182.086 371.464C182.241 371.245 182.409 371.067 182.59 370.928C182.814 370.731 183.075 370.581 183.374 370.48C183.673 370.373 183.974 370.312 184.278 370.296C184.582 370.275 184.859 370.296 185.11 370.36V371.464C184.795 371.384 184.451 371.365 184.078 371.408C183.705 371.451 183.361 371.6 183.046 371.856C182.758 372.08 182.542 372.349 182.398 372.664C182.254 372.973 182.158 373.304 182.11 373.656C182.062 374.003 182.038 374.347 182.038 374.688V379H180.862ZM191.651 379C191.166 379.101 190.686 379.141 190.211 379.12C189.742 379.099 189.321 378.997 188.947 378.816C188.579 378.635 188.299 378.352 188.107 377.968C187.953 377.648 187.867 377.325 187.851 377C187.841 376.669 187.835 376.293 187.835 375.872V367.96H189.003V375.824C189.003 376.187 189.006 376.491 189.011 376.736C189.022 376.976 189.078 377.189 189.179 377.376C189.371 377.733 189.675 377.947 190.091 378.016C190.513 378.085 191.033 378.069 191.651 377.968V379ZM185.987 371.368V370.36H191.651V371.368H185.987ZM196.969 379.24C196.111 379.24 195.377 379.045 194.769 378.656C194.161 378.267 193.695 377.728 193.369 377.04C193.044 376.352 192.881 375.563 192.881 374.672C192.881 373.765 193.047 372.971 193.377 372.288C193.708 371.605 194.177 371.075 194.785 370.696C195.399 370.312 196.127 370.12 196.969 370.12C197.833 370.12 198.569 370.315 199.177 370.704C199.791 371.088 200.257 371.624 200.577 372.312C200.903 372.995 201.065 373.781 201.065 374.672C201.065 375.579 200.903 376.376 200.577 377.064C200.252 377.747 199.783 378.28 199.169 378.664C198.556 379.048 197.823 379.24 196.969 379.24ZM196.969 378.112C197.929 378.112 198.644 377.795 199.113 377.16C199.583 376.52 199.817 375.691 199.817 374.672C199.817 373.627 199.58 372.795 199.105 372.176C198.636 371.557 197.924 371.248 196.969 371.248C196.324 371.248 195.791 371.395 195.369 371.688C194.953 371.976 194.641 372.379 194.433 372.896C194.231 373.408 194.129 374 194.129 374.672C194.129 375.712 194.369 376.547 194.849 377.176C195.329 377.8 196.036 378.112 196.969 378.112Z" fill="#00FF99"/>
<path d="M531.207 379V367.48H532.391L538.735 376.92V367.48H539.919V379H538.735L532.391 369.552V379H531.207ZM546.136 379.24C545.294 379.24 544.563 379.053 543.944 378.68C543.331 378.307 542.854 377.781 542.512 377.104C542.171 376.427 542 375.632 542 374.72C542 373.776 542.168 372.96 542.504 372.272C542.84 371.584 543.312 371.053 543.92 370.68C544.534 370.307 545.256 370.12 546.088 370.12C546.942 370.12 547.67 370.317 548.272 370.712C548.875 371.101 549.331 371.661 549.64 372.392C549.95 373.123 550.091 373.995 550.064 375.008H548.864V374.592C548.843 373.472 548.6 372.627 548.136 372.056C547.678 371.485 547.006 371.2 546.12 371.2C545.192 371.2 544.48 371.501 543.984 372.104C543.494 372.707 543.248 373.565 543.248 374.68C543.248 375.768 543.494 376.613 543.984 377.216C544.48 377.813 545.182 378.112 546.088 378.112C546.707 378.112 547.246 377.971 547.704 377.688C548.168 377.4 548.534 376.987 548.8 376.448L549.896 376.872C549.555 377.624 549.051 378.208 548.384 378.624C547.723 379.035 546.974 379.24 546.136 379.24ZM542.832 375.008V374.024H549.432V375.008H542.832ZM553.687 379L551.047 370.352L552.223 370.36L554.271 377.072L556.327 370.36H557.399L559.455 377.072L561.519 370.36H562.687L560.047 379H559.023L556.863 372.12L554.711 379H553.687ZM567.972 379V367.48H572.42C572.532 367.48 572.657 367.485 572.796 367.496C572.94 367.501 573.084 367.517 573.228 367.544C573.83 367.635 574.34 367.845 574.756 368.176C575.177 368.501 575.494 368.912 575.708 369.408C575.926 369.904 576.036 370.453 576.036 371.056C576.036 371.925 575.806 372.68 575.348 373.32C574.889 373.96 574.233 374.363 573.38 374.528L572.972 374.624H569.148V379H567.972ZM574.948 379L572.676 374.312L573.804 373.88L576.3 379H574.948ZM569.148 373.504H572.388C572.484 373.504 572.596 373.499 572.724 373.488C572.852 373.477 572.977 373.459 573.1 373.432C573.494 373.347 573.817 373.184 574.068 372.944C574.324 372.704 574.513 372.419 574.636 372.088C574.764 371.757 574.828 371.413 574.828 371.056C574.828 370.699 574.764 370.355 574.636 370.024C574.513 369.688 574.324 369.4 574.068 369.16C573.817 368.92 573.494 368.757 573.1 368.672C572.977 368.645 572.852 368.629 572.724 368.624C572.596 368.613 572.484 368.608 572.388 368.608H569.148V373.504ZM582.041 379.24C581.199 379.24 580.468 379.053 579.849 378.68C579.236 378.307 578.759 377.781 578.417 377.104C578.076 376.427 577.905 375.632 577.905 374.72C577.905 373.776 578.073 372.96 578.409 372.272C578.745 371.584 579.217 371.053 579.825 370.68C580.439 370.307 581.161 370.12 581.993 370.12C582.847 370.12 583.575 370.317 584.177 370.712C584.78 371.101 585.236 371.661 585.545 372.392C585.855 373.123 585.996 373.995 585.969 375.008H584.769V374.592C584.748 373.472 584.505 372.627 584.041 372.056C583.583 371.485 582.911 371.2 582.025 371.2C581.097 371.2 580.385 371.501 579.889 372.104C579.399 372.707 579.153 373.565 579.153 374.68C579.153 375.768 579.399 376.613 579.889 377.216C580.385 377.813 581.087 378.112 581.993 378.112C582.612 378.112 583.151 377.971 583.609 377.688C584.073 377.4 584.439 376.987 584.705 376.448L585.801 376.872C585.46 377.624 584.956 378.208 584.289 378.624C583.628 379.035 582.879 379.24 582.041 379.24ZM578.737 375.008V374.024H585.337V375.008H578.737ZM588.225 379V367.24H589.401V379H588.225ZM592.279 368.72V367.4H593.455V368.72H592.279ZM592.279 379V370.36H593.455V379H592.279ZM599.757 379.24C598.888 379.24 598.152 379.045 597.549 378.656C596.947 378.267 596.488 377.731 596.173 377.048C595.864 376.36 595.704 375.571 595.693 374.68C595.704 373.773 595.869 372.979 596.189 372.296C596.509 371.608 596.971 371.075 597.573 370.696C598.176 370.312 598.907 370.12 599.765 370.12C600.64 370.12 601.4 370.333 602.045 370.76C602.696 371.187 603.141 371.771 603.381 372.512L602.229 372.88C602.027 372.363 601.704 371.963 601.261 371.68C600.824 371.392 600.323 371.248 599.757 371.248C599.123 371.248 598.597 371.395 598.181 371.688C597.765 371.976 597.456 372.379 597.253 372.896C597.051 373.413 596.947 374.008 596.941 374.68C596.952 375.715 597.192 376.547 597.661 377.176C598.131 377.8 598.829 378.112 599.757 378.112C600.344 378.112 600.843 377.979 601.253 377.712C601.669 377.44 601.984 377.045 602.197 376.528L603.381 376.88C603.061 377.648 602.592 378.235 601.973 378.64C601.355 379.04 600.616 379.24 599.757 379.24Z" fill="#00CAFF"/>
<path d="M670.48 379V367.48H673.976C674.099 367.48 674.307 367.483 674.6 367.488C674.899 367.493 675.184 367.515 675.456 367.552C676.331 367.675 677.062 368 677.648 368.528C678.235 369.056 678.675 369.728 678.968 370.544C679.262 371.36 679.408 372.259 679.408 373.24C679.408 374.221 679.262 375.12 678.968 375.936C678.675 376.752 678.235 377.424 677.648 377.952C677.062 378.48 676.331 378.805 675.456 378.928C675.19 378.96 674.904 378.981 674.6 378.992C674.296 378.997 674.088 379 673.976 379H670.48ZM671.696 377.872H673.976C674.195 377.872 674.43 377.867 674.68 377.856C674.936 377.84 675.155 377.813 675.336 377.776C676.008 377.659 676.55 377.387 676.96 376.96C677.376 376.533 677.68 376 677.872 375.36C678.064 374.715 678.16 374.008 678.16 373.24C678.16 372.467 678.064 371.757 677.872 371.112C677.68 370.467 677.376 369.933 676.96 369.512C676.544 369.091 676.003 368.821 675.336 368.704C675.155 368.667 674.934 368.643 674.672 368.632C674.416 368.616 674.184 368.608 673.976 368.608H671.696V377.872ZM684.022 379.24C683.372 379.24 682.825 379.123 682.382 378.888C681.945 378.653 681.617 378.341 681.398 377.952C681.18 377.563 681.07 377.139 681.07 376.68C681.07 376.211 681.164 375.811 681.35 375.48C681.542 375.144 681.801 374.869 682.126 374.656C682.457 374.443 682.838 374.28 683.27 374.168C683.708 374.061 684.19 373.968 684.718 373.888C685.252 373.803 685.772 373.731 686.278 373.672C686.79 373.608 687.238 373.547 687.622 373.488L687.206 373.744C687.222 372.891 687.057 372.259 686.71 371.848C686.364 371.437 685.761 371.232 684.902 371.232C684.31 371.232 683.809 371.365 683.398 371.632C682.993 371.899 682.708 372.32 682.542 372.896L681.398 372.56C681.596 371.787 681.993 371.187 682.59 370.76C683.188 370.333 683.964 370.12 684.918 370.12C685.708 370.12 686.377 370.269 686.926 370.568C687.481 370.861 687.873 371.288 688.102 371.848C688.209 372.099 688.278 372.379 688.31 372.688C688.342 372.997 688.358 373.312 688.358 373.632V379H687.31V376.832L687.614 376.96C687.321 377.701 686.865 378.267 686.246 378.656C685.628 379.045 684.886 379.24 684.022 379.24ZM684.158 378.224C684.708 378.224 685.188 378.125 685.598 377.928C686.009 377.731 686.34 377.461 686.59 377.12C686.841 376.773 687.004 376.384 687.078 375.952C687.142 375.675 687.177 375.371 687.182 375.04C687.188 374.704 687.19 374.453 687.19 374.288L687.638 374.52C687.238 374.573 686.804 374.627 686.334 374.68C685.87 374.733 685.412 374.795 684.958 374.864C684.51 374.933 684.105 375.016 683.742 375.112C683.497 375.181 683.26 375.28 683.03 375.408C682.801 375.531 682.612 375.696 682.462 375.904C682.318 376.112 682.246 376.371 682.246 376.68C682.246 376.931 682.308 377.173 682.43 377.408C682.558 377.643 682.761 377.837 683.038 377.992C683.321 378.147 683.694 378.224 684.158 378.224ZM695.465 379C694.98 379.101 694.5 379.141 694.025 379.12C693.556 379.099 693.134 378.997 692.761 378.816C692.393 378.635 692.113 378.352 691.921 377.968C691.766 377.648 691.681 377.325 691.665 377C691.654 376.669 691.649 376.293 691.649 375.872V367.96H692.817V375.824C692.817 376.187 692.82 376.491 692.825 376.736C692.836 376.976 692.892 377.189 692.993 377.376C693.185 377.733 693.489 377.947 693.905 378.016C694.326 378.085 694.846 378.069 695.465 377.968V379ZM689.801 371.368V370.36H695.465V371.368H689.801ZM699.959 379.24C699.309 379.24 698.762 379.123 698.319 378.888C697.882 378.653 697.554 378.341 697.335 377.952C697.117 377.563 697.007 377.139 697.007 376.68C697.007 376.211 697.101 375.811 697.287 375.48C697.479 375.144 697.738 374.869 698.063 374.656C698.394 374.443 698.775 374.28 699.207 374.168C699.645 374.061 700.127 373.968 700.655 373.888C701.189 373.803 701.709 373.731 702.215 373.672C702.727 373.608 703.175 373.547 703.559 373.488L703.143 373.744C703.159 372.891 702.994 372.259 702.647 371.848C702.301 371.437 701.698 371.232 700.839 371.232C700.247 371.232 699.746 371.365 699.335 371.632C698.93 371.899 698.645 372.32 698.479 372.896L697.335 372.56C697.533 371.787 697.93 371.187 698.527 370.76C699.125 370.333 699.901 370.12 700.855 370.12C701.645 370.12 702.314 370.269 702.863 370.568C703.418 370.861 703.81 371.288 704.039 371.848C704.146 372.099 704.215 372.379 704.247 372.688C704.279 372.997 704.295 373.312 704.295 373.632V379H703.247V376.832L703.551 376.96C703.258 377.701 702.802 378.267 702.183 378.656C701.565 379.045 700.823 379.24 699.959 379.24ZM700.095 378.224C700.645 378.224 701.125 378.125 701.535 377.928C701.946 377.731 702.277 377.461 702.527 377.12C702.778 376.773 702.941 376.384 703.015 375.952C703.079 375.675 703.114 375.371 703.119 375.04C703.125 374.704 703.127 374.453 703.127 374.288L703.575 374.52C703.175 374.573 702.741 374.627 702.271 374.68C701.807 374.733 701.349 374.795 700.895 374.864C700.447 374.933 700.042 375.016 699.679 375.112C699.434 375.181 699.197 375.28 698.967 375.408C698.738 375.531 698.549 375.696 698.399 375.904C698.255 376.112 698.183 376.371 698.183 376.68C698.183 376.931 698.245 377.173 698.367 377.408C698.495 377.643 698.698 377.837 698.975 377.992C699.258 378.147 699.631 378.224 700.095 378.224ZM710.05 379.24C709.244 379.24 708.556 379.04 707.986 378.64C707.415 378.235 706.978 377.688 706.674 377C706.37 376.312 706.218 375.536 706.218 374.672C706.218 373.813 706.367 373.04 706.666 372.352C706.97 371.664 707.404 371.12 707.97 370.72C708.535 370.32 709.212 370.12 710.002 370.12C710.812 370.12 711.495 370.317 712.05 370.712C712.604 371.107 713.023 371.648 713.306 372.336C713.594 373.019 713.738 373.797 713.738 374.672C713.738 375.531 713.596 376.307 713.314 377C713.031 377.688 712.615 378.235 712.066 378.64C711.516 379.04 710.844 379.24 710.05 379.24ZM710.17 378.144C710.783 378.144 711.29 377.995 711.69 377.696C712.09 377.397 712.388 376.987 712.586 376.464C712.783 375.936 712.882 375.339 712.882 374.672C712.882 373.995 712.783 373.397 712.586 372.88C712.388 372.357 712.09 371.949 711.69 371.656C711.295 371.363 710.796 371.216 710.194 371.216C709.575 371.216 709.063 371.368 708.658 371.672C708.252 371.976 707.951 372.389 707.754 372.912C707.562 373.435 707.466 374.021 707.466 374.672C707.466 375.328 707.564 375.92 707.762 376.448C707.964 376.971 708.266 377.384 708.666 377.688C709.066 377.992 709.567 378.144 710.17 378.144ZM712.882 379V372.496H712.754V367.48H713.938V379H712.882ZM720.11 379.24C719.252 379.24 718.518 379.045 717.91 378.656C717.302 378.267 716.836 377.728 716.51 377.04C716.185 376.352 716.022 375.563 716.022 374.672C716.022 373.765 716.188 372.971 716.518 372.288C716.849 371.605 717.318 371.075 717.926 370.696C718.54 370.312 719.268 370.12 720.11 370.12C720.974 370.12 721.71 370.315 722.318 370.704C722.932 371.088 723.398 371.624 723.718 372.312C724.044 372.995 724.206 373.781 724.206 374.672C724.206 375.579 724.044 376.376 723.718 377.064C723.393 377.747 722.924 378.28 722.31 378.664C721.697 379.048 720.964 379.24 720.11 379.24ZM720.11 378.112C721.07 378.112 721.785 377.795 722.254 377.16C722.724 376.52 722.958 375.691 722.958 374.672C722.958 373.627 722.721 372.795 722.246 372.176C721.777 371.557 721.065 371.248 720.11 371.248C719.465 371.248 718.932 371.395 718.51 371.688C718.094 371.976 717.782 372.379 717.574 372.896C717.372 373.408 717.27 374 717.27 374.672C717.27 375.712 717.51 376.547 717.99 377.176C718.47 377.8 719.177 378.112 720.11 378.112ZM729.723 383.08C729.28 383.08 728.843 383.013 728.411 382.88C727.984 382.752 727.59 382.547 727.227 382.264C726.864 381.987 726.56 381.624 726.315 381.176L727.379 380.584C727.619 381.064 727.955 381.408 728.387 381.616C728.824 381.829 729.27 381.936 729.723 381.936C730.347 381.936 730.851 381.819 731.235 381.584C731.624 381.355 731.907 381.013 732.083 380.56C732.259 380.107 732.344 379.541 732.339 378.864V376.56H732.475V370.36H733.523V378.88C733.523 379.125 733.515 379.36 733.499 379.584C733.488 379.813 733.464 380.037 733.427 380.256C733.326 380.901 733.115 381.432 732.795 381.848C732.48 382.264 732.064 382.573 731.547 382.776C731.035 382.979 730.427 383.08 729.723 383.08ZM729.643 379.24C728.838 379.24 728.15 379.04 727.579 378.64C727.008 378.235 726.571 377.688 726.267 377C725.963 376.312 725.811 375.536 725.811 374.672C725.811 373.813 725.96 373.04 726.259 372.352C726.563 371.664 726.998 371.12 727.563 370.72C728.128 370.32 728.806 370.12 729.595 370.12C730.406 370.12 731.088 370.317 731.643 370.712C732.198 371.107 732.616 371.648 732.899 372.336C733.187 373.019 733.331 373.797 733.331 374.672C733.331 375.531 733.19 376.307 732.907 377C732.624 377.688 732.208 378.235 731.659 378.64C731.11 379.04 730.438 379.24 729.643 379.24ZM729.763 378.144C730.376 378.144 730.883 377.995 731.283 377.696C731.683 377.397 731.982 376.987 732.179 376.464C732.376 375.936 732.475 375.339 732.475 374.672C732.475 373.995 732.376 373.397 732.179 372.88C731.982 372.357 731.683 371.949 731.283 371.656C730.888 371.363 730.39 371.216 729.787 371.216C729.168 371.216 728.656 371.368 728.251 371.672C727.846 371.976 727.544 372.389 727.347 372.912C727.155 373.435 727.059 374.021 727.059 374.672C727.059 375.328 727.158 375.92 727.355 376.448C727.558 376.971 727.859 377.384 728.259 377.688C728.659 377.992 729.16 378.144 729.763 378.144Z" fill="#823EE6"/>
<path d="M74.1294 349.576V347.752H75.3054V349.576H74.1294ZM74.1294 336.72V334.888H75.3054V336.72H74.1294ZM74.8574 348.24C74.0947 348.24 73.4067 348.104 72.7934 347.832C72.1854 347.56 71.6814 347.176 71.2814 346.68C70.8867 346.184 70.628 345.597 70.5054 344.92L71.6494 344.72C71.8254 345.456 72.204 346.04 72.7854 346.472C73.372 346.899 74.0787 347.112 74.9054 347.112C75.7427 347.112 76.42 346.909 76.9374 346.504C77.4547 346.093 77.7134 345.557 77.7134 344.896C77.7134 344.405 77.5694 344.013 77.2814 343.72C76.9934 343.427 76.5054 343.176 75.8174 342.968L73.2574 342.168C71.7107 341.683 70.9374 340.765 70.9374 339.416C70.9374 338.787 71.092 338.235 71.4014 337.76C71.716 337.28 72.1507 336.907 72.7054 336.64C73.2654 336.373 73.9187 336.243 74.6654 336.248C75.396 336.248 76.0494 336.387 76.6254 336.664C77.2067 336.936 77.684 337.323 78.0574 337.824C78.4307 338.325 78.6787 338.92 78.8014 339.608L77.6254 339.832C77.5507 339.341 77.3774 338.912 77.1054 338.544C76.8387 338.176 76.4947 337.891 76.0734 337.688C75.652 337.48 75.1827 337.373 74.6654 337.368C74.1747 337.368 73.7374 337.453 73.3534 337.624C72.9694 337.795 72.6654 338.032 72.4414 338.336C72.2227 338.635 72.1134 338.979 72.1134 339.368C72.1134 339.795 72.2654 340.157 72.5694 340.456C72.8787 340.749 73.3667 340.997 74.0334 341.2L76.2334 341.864C77.1614 342.141 77.8307 342.515 78.2414 342.984C78.652 343.453 78.8574 344.08 78.8574 344.864C78.8574 345.541 78.692 346.133 78.3614 346.64C78.0307 347.147 77.564 347.541 76.9614 347.824C76.364 348.101 75.6627 348.24 74.8574 348.24ZM88.1144 348.24C87.405 348.24 86.765 348.075 86.1944 347.744C85.629 347.413 85.181 346.965 84.8504 346.4C84.5197 345.829 84.3544 345.189 84.3544 344.48V340C84.3544 339.291 84.5197 338.653 84.8504 338.088C85.181 337.517 85.629 337.067 86.1944 336.736C86.765 336.405 87.405 336.24 88.1144 336.24C88.8237 336.24 89.461 336.405 90.0264 336.736C90.597 337.067 91.0477 337.517 91.3784 338.088C91.709 338.653 91.8744 339.291 91.8744 340V344.48C91.8744 345.189 91.709 345.829 91.3784 346.4C91.0477 346.965 90.597 347.413 90.0264 347.744C89.461 348.075 88.8237 348.24 88.1144 348.24ZM88.1144 347.104C88.589 347.104 89.021 346.989 89.4104 346.76C89.7997 346.525 90.109 346.213 90.3384 345.824C90.5677 345.435 90.6824 345.005 90.6824 344.536V339.944C90.6824 339.469 90.5677 339.037 90.3384 338.648C90.109 338.259 89.7997 337.949 89.4104 337.72C89.021 337.485 88.589 337.368 88.1144 337.368C87.6397 337.368 87.2077 337.485 86.8184 337.72C86.429 337.949 86.1197 338.259 85.8904 338.648C85.661 339.037 85.5464 339.469 85.5464 339.944V344.536C85.5464 345.005 85.661 345.435 85.8904 345.824C86.1197 346.213 86.429 346.525 86.8184 346.76C87.2077 346.989 87.6397 347.104 88.1144 347.104Z" fill="#DEDEDE"/>
<path d="M19.6625 278.576V276.752H20.8385V278.576H19.6625ZM19.6625 265.72V263.888H20.8385V265.72H19.6625ZM20.3905 277.24C19.6278 277.24 18.9398 277.104 18.3265 276.832C17.7185 276.56 17.2145 276.176 16.8145 275.68C16.4198 275.184 16.1612 274.597 16.0385 273.92L17.1825 273.72C17.3585 274.456 17.7372 275.04 18.3185 275.472C18.9052 275.899 19.6118 276.112 20.4385 276.112C21.2758 276.112 21.9532 275.909 22.4705 275.504C22.9878 275.093 23.2465 274.557 23.2465 273.896C23.2465 273.405 23.1025 273.013 22.8145 272.72C22.5265 272.427 22.0385 272.176 21.3505 271.968L18.7905 271.168C17.2438 270.683 16.4705 269.765 16.4705 268.416C16.4705 267.787 16.6252 267.235 16.9345 266.76C17.2492 266.28 17.6838 265.907 18.2385 265.64C18.7985 265.373 19.4518 265.243 20.1985 265.248C20.9292 265.248 21.5825 265.387 22.1585 265.664C22.7398 265.936 23.2172 266.323 23.5905 266.824C23.9638 267.325 24.2118 267.92 24.3345 268.608L23.1585 268.832C23.0838 268.341 22.9105 267.912 22.6385 267.544C22.3718 267.176 22.0278 266.891 21.6065 266.688C21.1852 266.48 20.7158 266.373 20.1985 266.368C19.7078 266.368 19.2705 266.453 18.8865 266.624C18.5025 266.795 18.1985 267.032 17.9745 267.336C17.7558 267.635 17.6465 267.979 17.6465 268.368C17.6465 268.795 17.7985 269.157 18.1025 269.456C18.4118 269.749 18.8998 269.997 19.5665 270.2L21.7665 270.864C22.6945 271.141 23.3638 271.515 23.7745 271.984C24.1852 272.453 24.3905 273.08 24.3905 273.864C24.3905 274.541 24.2252 275.133 23.8945 275.64C23.5638 276.147 23.0972 276.541 22.4945 276.824C21.8972 277.101 21.1958 277.24 20.3905 277.24ZM33.2875 277.24C32.6902 277.24 32.1382 277.117 31.6315 276.872C31.1248 276.627 30.6928 276.288 30.3355 275.856C29.9782 275.424 29.7222 274.928 29.5675 274.368L30.6955 274.064C30.7968 274.48 30.9808 274.84 31.2475 275.144C31.5142 275.443 31.8262 275.675 32.1835 275.84C32.5462 276.005 32.9248 276.088 33.3195 276.088C33.8315 276.088 34.2902 275.965 34.6955 275.72C35.1062 275.469 35.4315 275.139 35.6715 274.728C35.9115 274.317 36.0315 273.867 36.0315 273.376C36.0315 272.869 35.9062 272.413 35.6555 272.008C35.4048 271.597 35.0742 271.272 34.6635 271.032C34.2528 270.792 33.8048 270.672 33.3195 270.672C32.7755 270.672 32.3062 270.792 31.9115 271.032C31.5168 271.267 31.2022 271.563 30.9675 271.92L29.8955 271.472L30.2475 265.48H36.3995V266.608H30.7675L31.3515 266.056L31.0395 271.168L30.7435 270.776C31.0742 270.397 31.4742 270.101 31.9435 269.888C32.4128 269.675 32.9062 269.568 33.4235 269.568C34.1328 269.568 34.7728 269.739 35.3435 270.08C35.9142 270.416 36.3675 270.872 36.7035 271.448C37.0395 272.024 37.2075 272.667 37.2075 273.376C37.2075 274.08 37.0288 274.725 36.6715 275.312C36.3142 275.893 35.8395 276.36 35.2475 276.712C34.6555 277.064 34.0022 277.24 33.2875 277.24ZM43.2019 277.24C42.4925 277.24 41.8525 277.075 41.2819 276.744C40.7165 276.413 40.2685 275.965 39.9379 275.4C39.6072 274.829 39.4419 274.189 39.4419 273.48V269C39.4419 268.291 39.6072 267.653 39.9379 267.088C40.2685 266.517 40.7165 266.067 41.2819 265.736C41.8525 265.405 42.4925 265.24 43.2019 265.24C43.9112 265.24 44.5485 265.405 45.1139 265.736C45.6845 266.067 46.1352 266.517 46.4659 267.088C46.7965 267.653 46.9619 268.291 46.9619 269V273.48C46.9619 274.189 46.7965 274.829 46.4659 275.4C46.1352 275.965 45.6845 276.413 45.1139 276.744C44.5485 277.075 43.9112 277.24 43.2019 277.24ZM43.2019 276.104C43.6765 276.104 44.1085 275.989 44.4979 275.76C44.8872 275.525 45.1965 275.213 45.4259 274.824C45.6552 274.435 45.7699 274.005 45.7699 273.536V268.944C45.7699 268.469 45.6552 268.037 45.4259 267.648C45.1965 267.259 44.8872 266.949 44.4979 266.72C44.1085 266.485 43.6765 266.368 43.2019 266.368C42.7272 266.368 42.2952 266.485 41.9059 266.72C41.5165 266.949 41.2072 267.259 40.9779 267.648C40.7485 268.037 40.6339 268.469 40.6339 268.944V273.536C40.6339 274.005 40.7485 274.435 40.9779 274.824C41.2072 275.213 41.5165 275.525 41.9059 275.76C42.2952 275.989 42.7272 276.104 43.2019 276.104ZM53.2875 277.24C52.5782 277.24 51.9382 277.075 51.3675 276.744C50.8022 276.413 50.3542 275.965 50.0235 275.4C49.6928 274.829 49.5275 274.189 49.5275 273.48V269C49.5275 268.291 49.6928 267.653 50.0235 267.088C50.3542 266.517 50.8022 266.067 51.3675 265.736C51.9382 265.405 52.5782 265.24 53.2875 265.24C53.9968 265.24 54.6342 265.405 55.1995 265.736C55.7702 266.067 56.2208 266.517 56.5515 267.088C56.8822 267.653 57.0475 268.291 57.0475 269V273.48C57.0475 274.189 56.8822 274.829 56.5515 275.4C56.2208 275.965 55.7702 276.413 55.1995 276.744C54.6342 277.075 53.9968 277.24 53.2875 277.24ZM53.2875 276.104C53.7622 276.104 54.1942 275.989 54.5835 275.76C54.9728 275.525 55.2822 275.213 55.5115 274.824C55.7408 274.435 55.8555 274.005 55.8555 273.536V268.944C55.8555 268.469 55.7408 268.037 55.5115 267.648C55.2822 267.259 54.9728 266.949 54.5835 266.72C54.1942 266.485 53.7622 266.368 53.2875 266.368C52.8128 266.368 52.3808 266.485 51.9915 266.72C51.6022 266.949 51.2928 267.259 51.0635 267.648C50.8342 268.037 50.7195 268.469 50.7195 268.944V273.536C50.7195 274.005 50.8342 274.435 51.0635 274.824C51.2928 275.213 51.6022 275.525 51.9915 275.76C52.3808 275.989 52.8128 276.104 53.2875 276.104ZM59.4531 278.672L59.5251 278.088C59.7385 278.104 59.8931 278.061 59.9891 277.96C60.0851 277.859 60.1438 277.723 60.1651 277.552C60.1865 277.381 60.1918 277.197 60.1811 277H59.4531V275.312H60.8211V277.32C60.8211 277.811 60.6958 278.179 60.4451 278.424C60.1998 278.669 59.8691 278.752 59.4531 278.672ZM67.9431 277.24C67.2338 277.24 66.5938 277.075 66.0231 276.744C65.4578 276.413 65.0098 275.965 64.6791 275.4C64.3485 274.829 64.1831 274.189 64.1831 273.48V269C64.1831 268.291 64.3485 267.653 64.6791 267.088C65.0098 266.517 65.4578 266.067 66.0231 265.736C66.5938 265.405 67.2338 265.24 67.9431 265.24C68.6525 265.24 69.2898 265.405 69.8551 265.736C70.4258 266.067 70.8765 266.517 71.2071 267.088C71.5378 267.653 71.7031 268.291 71.7031 269V273.48C71.7031 274.189 71.5378 274.829 71.2071 275.4C70.8765 275.965 70.4258 276.413 69.8551 276.744C69.2898 277.075 68.6525 277.24 67.9431 277.24ZM67.9431 276.104C68.4178 276.104 68.8498 275.989 69.2391 275.76C69.6285 275.525 69.9378 275.213 70.1671 274.824C70.3965 274.435 70.5111 274.005 70.5111 273.536V268.944C70.5111 268.469 70.3965 268.037 70.1671 267.648C69.9378 267.259 69.6285 266.949 69.2391 266.72C68.8498 266.485 68.4178 266.368 67.9431 266.368C67.4685 266.368 67.0365 266.485 66.6471 266.72C66.2578 266.949 65.9485 267.259 65.7191 267.648C65.4898 268.037 65.3751 268.469 65.3751 268.944V273.536C65.3751 274.005 65.4898 274.435 65.7191 274.824C65.9485 275.213 66.2578 275.525 66.6471 275.76C67.0365 275.989 67.4685 276.104 67.9431 276.104ZM78.0288 277.24C77.3194 277.24 76.6794 277.075 76.1088 276.744C75.5434 276.413 75.0954 275.965 74.7648 275.4C74.4341 274.829 74.2688 274.189 74.2688 273.48V269C74.2688 268.291 74.4341 267.653 74.7648 267.088C75.0954 266.517 75.5434 266.067 76.1088 265.736C76.6794 265.405 77.3194 265.24 78.0288 265.24C78.7381 265.24 79.3754 265.405 79.9408 265.736C80.5114 266.067 80.9621 266.517 81.2928 267.088C81.6234 267.653 81.7888 268.291 81.7888 269V273.48C81.7888 274.189 81.6234 274.829 81.2928 275.4C80.9621 275.965 80.5114 276.413 79.9408 276.744C79.3754 277.075 78.7381 277.24 78.0288 277.24ZM78.0288 276.104C78.5034 276.104 78.9354 275.989 79.3248 275.76C79.7141 275.525 80.0234 275.213 80.2528 274.824C80.4821 274.435 80.5968 274.005 80.5968 273.536V268.944C80.5968 268.469 80.4821 268.037 80.2528 267.648C80.0234 267.259 79.7141 266.949 79.3248 266.72C78.9354 266.485 78.5034 266.368 78.0288 266.368C77.5541 266.368 77.1221 266.485 76.7328 266.72C76.3434 266.949 76.0341 267.259 75.8048 267.648C75.5754 268.037 75.4608 268.469 75.4608 268.944V273.536C75.4608 274.005 75.5754 274.435 75.8048 274.824C76.0341 275.213 76.3434 275.525 76.7328 275.76C77.1221 275.989 77.5541 276.104 78.0288 276.104ZM88.1144 277.24C87.405 277.24 86.765 277.075 86.1944 276.744C85.629 276.413 85.181 275.965 84.8504 275.4C84.5197 274.829 84.3544 274.189 84.3544 273.48V269C84.3544 268.291 84.5197 267.653 84.8504 267.088C85.181 266.517 85.629 266.067 86.1944 265.736C86.765 265.405 87.405 265.24 88.1144 265.24C88.8237 265.24 89.461 265.405 90.0264 265.736C90.597 266.067 91.0477 266.517 91.3784 267.088C91.709 267.653 91.8744 268.291 91.8744 269V273.48C91.8744 274.189 91.709 274.829 91.3784 275.4C91.0477 275.965 90.597 276.413 90.0264 276.744C89.461 277.075 88.8237 277.24 88.1144 277.24ZM88.1144 276.104C88.589 276.104 89.021 275.989 89.4104 275.76C89.7997 275.525 90.109 275.213 90.3384 274.824C90.5677 274.435 90.6824 274.005 90.6824 273.536V268.944C90.6824 268.469 90.5677 268.037 90.3384 267.648C90.109 267.259 89.7997 266.949 89.4104 266.72C89.021 266.485 88.589 266.368 88.1144 266.368C87.6397 266.368 87.2077 266.485 86.8184 266.72C86.429 266.949 86.1197 267.259 85.8904 267.648C85.661 268.037 85.5464 268.469 85.5464 268.944V273.536C85.5464 274.005 85.661 274.435 85.8904 274.824C86.1197 275.213 86.429 275.525 86.8184 275.76C87.2077 275.989 87.6397 276.104 88.1144 276.104Z" fill="#DEDEDE"/>
<path d="M8.6475 207.576V205.752H9.8235V207.576H8.6475ZM8.6475 194.72V192.888H9.8235V194.72H8.6475ZM9.3755 206.24C8.61284 206.24 7.92484 206.104 7.3115 205.832C6.7035 205.56 6.1995 205.176 5.7995 204.68C5.40484 204.184 5.14617 203.597 5.0235 202.92L6.1675 202.72C6.3435 203.456 6.72217 204.04 7.3035 204.472C7.89017 204.899 8.59684 205.112 9.4235 205.112C10.2608 205.112 10.9382 204.909 11.4555 204.504C11.9728 204.093 12.2315 203.557 12.2315 202.896C12.2315 202.405 12.0875 202.013 11.7995 201.72C11.5115 201.427 11.0235 201.176 10.3355 200.968L7.7755 200.168C6.22884 199.683 5.4555 198.765 5.4555 197.416C5.4555 196.787 5.61017 196.235 5.9195 195.76C6.23417 195.28 6.66884 194.907 7.2235 194.64C7.7835 194.373 8.43684 194.243 9.1835 194.248C9.91417 194.248 10.5675 194.387 11.1435 194.664C11.7248 194.936 12.2022 195.323 12.5755 195.824C12.9488 196.325 13.1968 196.92 13.3195 197.608L12.1435 197.832C12.0688 197.341 11.8955 196.912 11.6235 196.544C11.3568 196.176 11.0128 195.891 10.5915 195.688C10.1702 195.48 9.70084 195.373 9.1835 195.368C8.69284 195.368 8.2555 195.453 7.8715 195.624C7.4875 195.795 7.1835 196.032 6.9595 196.336C6.74084 196.635 6.6315 196.979 6.6315 197.368C6.6315 197.795 6.7835 198.157 7.0875 198.456C7.39684 198.749 7.88484 198.997 8.5515 199.2L10.7515 199.864C11.6795 200.141 12.3488 200.515 12.7595 200.984C13.1702 201.453 13.3755 202.08 13.3755 202.864C13.3755 203.541 13.2102 204.133 12.8795 204.64C12.5488 205.147 12.0822 205.541 11.4795 205.824C10.8822 206.101 10.1808 206.24 9.3755 206.24ZM20.8805 206V195.792L18.7125 197.096V195.776L20.8805 194.48H22.0725V206H20.8805ZM24.6263 207.672L24.6983 207.088C24.9116 207.104 25.0663 207.061 25.1623 206.96C25.2583 206.859 25.3169 206.723 25.3383 206.552C25.3596 206.381 25.3649 206.197 25.3543 206H24.6263V204.312H25.9943V206.32C25.9943 206.811 25.8689 207.179 25.6183 207.424C25.3729 207.669 25.0423 207.752 24.6263 207.672ZM33.1163 206.24C32.4069 206.24 31.7669 206.075 31.1963 205.744C30.6309 205.413 30.1829 204.965 29.8523 204.4C29.5216 203.829 29.3563 203.189 29.3563 202.48V198C29.3563 197.291 29.5216 196.653 29.8523 196.088C30.1829 195.517 30.6309 195.067 31.1963 194.736C31.7669 194.405 32.4069 194.24 33.1163 194.24C33.8256 194.24 34.4629 194.405 35.0283 194.736C35.5989 195.067 36.0496 195.517 36.3803 196.088C36.7109 196.653 36.8763 197.291 36.8763 198V202.48C36.8763 203.189 36.7109 203.829 36.3803 204.4C36.0496 204.965 35.5989 205.413 35.0283 205.744C34.4629 206.075 33.8256 206.24 33.1163 206.24ZM33.1163 205.104C33.5909 205.104 34.0229 204.989 34.4123 204.76C34.8016 204.525 35.1109 204.213 35.3403 203.824C35.5696 203.435 35.6843 203.005 35.6843 202.536V197.944C35.6843 197.469 35.5696 197.037 35.3403 196.648C35.1109 196.259 34.8016 195.949 34.4123 195.72C34.0229 195.485 33.5909 195.368 33.1163 195.368C32.6416 195.368 32.2096 195.485 31.8203 195.72C31.4309 195.949 31.1216 196.259 30.8923 196.648C30.6629 197.037 30.5483 197.469 30.5483 197.944V202.536C30.5483 203.005 30.6629 203.435 30.8923 203.824C31.1216 204.213 31.4309 204.525 31.8203 204.76C32.2096 204.989 32.6416 205.104 33.1163 205.104ZM43.2019 206.24C42.4925 206.24 41.8525 206.075 41.2819 205.744C40.7165 205.413 40.2685 204.965 39.9379 204.4C39.6072 203.829 39.4419 203.189 39.4419 202.48V198C39.4419 197.291 39.6072 196.653 39.9379 196.088C40.2685 195.517 40.7165 195.067 41.2819 194.736C41.8525 194.405 42.4925 194.24 43.2019 194.24C43.9112 194.24 44.5485 194.405 45.1139 194.736C45.6845 195.067 46.1352 195.517 46.4659 196.088C46.7965 196.653 46.9619 197.291 46.9619 198V202.48C46.9619 203.189 46.7965 203.829 46.4659 204.4C46.1352 204.965 45.6845 205.413 45.1139 205.744C44.5485 206.075 43.9112 206.24 43.2019 206.24ZM43.2019 205.104C43.6765 205.104 44.1085 204.989 44.4979 204.76C44.8872 204.525 45.1965 204.213 45.4259 203.824C45.6552 203.435 45.7699 203.005 45.7699 202.536V197.944C45.7699 197.469 45.6552 197.037 45.4259 196.648C45.1965 196.259 44.8872 195.949 44.4979 195.72C44.1085 195.485 43.6765 195.368 43.2019 195.368C42.7272 195.368 42.2952 195.485 41.9059 195.72C41.5165 195.949 41.2072 196.259 40.9779 196.648C40.7485 197.037 40.6339 197.469 40.6339 197.944V202.536C40.6339 203.005 40.7485 203.435 40.9779 203.824C41.2072 204.213 41.5165 204.525 41.9059 204.76C42.2952 204.989 42.7272 205.104 43.2019 205.104ZM53.2875 206.24C52.5782 206.24 51.9382 206.075 51.3675 205.744C50.8022 205.413 50.3542 204.965 50.0235 204.4C49.6928 203.829 49.5275 203.189 49.5275 202.48V198C49.5275 197.291 49.6928 196.653 50.0235 196.088C50.3542 195.517 50.8022 195.067 51.3675 194.736C51.9382 194.405 52.5782 194.24 53.2875 194.24C53.9968 194.24 54.6342 194.405 55.1995 194.736C55.7702 195.067 56.2208 195.517 56.5515 196.088C56.8822 196.653 57.0475 197.291 57.0475 198V202.48C57.0475 203.189 56.8822 203.829 56.5515 204.4C56.2208 204.965 55.7702 205.413 55.1995 205.744C54.6342 206.075 53.9968 206.24 53.2875 206.24ZM53.2875 205.104C53.7622 205.104 54.1942 204.989 54.5835 204.76C54.9728 204.525 55.2822 204.213 55.5115 203.824C55.7408 203.435 55.8555 203.005 55.8555 202.536V197.944C55.8555 197.469 55.7408 197.037 55.5115 196.648C55.2822 196.259 54.9728 195.949 54.5835 195.72C54.1942 195.485 53.7622 195.368 53.2875 195.368C52.8128 195.368 52.3808 195.485 51.9915 195.72C51.6022 195.949 51.2928 196.259 51.0635 196.648C50.8342 197.037 50.7195 197.469 50.7195 197.944V202.536C50.7195 203.005 50.8342 203.435 51.0635 203.824C51.2928 204.213 51.6022 204.525 51.9915 204.76C52.3808 204.989 52.8128 205.104 53.2875 205.104ZM59.4531 207.672L59.5251 207.088C59.7385 207.104 59.8931 207.061 59.9891 206.96C60.0851 206.859 60.1438 206.723 60.1651 206.552C60.1865 206.381 60.1918 206.197 60.1811 206H59.4531V204.312H60.8211V206.32C60.8211 206.811 60.6958 207.179 60.4451 207.424C60.1998 207.669 59.8691 207.752 59.4531 207.672ZM67.9431 206.24C67.2338 206.24 66.5938 206.075 66.0231 205.744C65.4578 205.413 65.0098 204.965 64.6791 204.4C64.3485 203.829 64.1831 203.189 64.1831 202.48V198C64.1831 197.291 64.3485 196.653 64.6791 196.088C65.0098 195.517 65.4578 195.067 66.0231 194.736C66.5938 194.405 67.2338 194.24 67.9431 194.24C68.6525 194.24 69.2898 194.405 69.8551 194.736C70.4258 195.067 70.8765 195.517 71.2071 196.088C71.5378 196.653 71.7031 197.291 71.7031 198V202.48C71.7031 203.189 71.5378 203.829 71.2071 204.4C70.8765 204.965 70.4258 205.413 69.8551 205.744C69.2898 206.075 68.6525 206.24 67.9431 206.24ZM67.9431 205.104C68.4178 205.104 68.8498 204.989 69.2391 204.76C69.6285 204.525 69.9378 204.213 70.1671 203.824C70.3965 203.435 70.5111 203.005 70.5111 202.536V197.944C70.5111 197.469 70.3965 197.037 70.1671 196.648C69.9378 196.259 69.6285 195.949 69.2391 195.72C68.8498 195.485 68.4178 195.368 67.9431 195.368C67.4685 195.368 67.0365 195.485 66.6471 195.72C66.2578 195.949 65.9485 196.259 65.7191 196.648C65.4898 197.037 65.3751 197.469 65.3751 197.944V202.536C65.3751 203.005 65.4898 203.435 65.7191 203.824C65.9485 204.213 66.2578 204.525 66.6471 204.76C67.0365 204.989 67.4685 205.104 67.9431 205.104ZM78.0288 206.24C77.3194 206.24 76.6794 206.075 76.1088 205.744C75.5434 205.413 75.0954 204.965 74.7648 204.4C74.4341 203.829 74.2688 203.189 74.2688 202.48V198C74.2688 197.291 74.4341 196.653 74.7648 196.088C75.0954 195.517 75.5434 195.067 76.1088 194.736C76.6794 194.405 77.3194 194.24 78.0288 194.24C78.7381 194.24 79.3754 194.405 79.9408 194.736C80.5114 195.067 80.9621 195.517 81.2928 196.088C81.6234 196.653 81.7888 197.291 81.7888 198V202.48C81.7888 203.189 81.6234 203.829 81.2928 204.4C80.9621 204.965 80.5114 205.413 79.9408 205.744C79.3754 206.075 78.7381 206.24 78.0288 206.24ZM78.0288 205.104C78.5034 205.104 78.9354 204.989 79.3248 204.76C79.7141 204.525 80.0234 204.213 80.2528 203.824C80.4821 203.435 80.5968 203.005 80.5968 202.536V197.944C80.5968 197.469 80.4821 197.037 80.2528 196.648C80.0234 196.259 79.7141 195.949 79.3248 195.72C78.9354 195.485 78.5034 195.368 78.0288 195.368C77.5541 195.368 77.1221 195.485 76.7328 195.72C76.3434 195.949 76.0341 196.259 75.8048 196.648C75.5754 197.037 75.4608 197.469 75.4608 197.944V202.536C75.4608 203.005 75.5754 203.435 75.8048 203.824C76.0341 204.213 76.3434 204.525 76.7328 204.76C77.1221 204.989 77.5541 205.104 78.0288 205.104ZM88.1144 206.24C87.405 206.24 86.765 206.075 86.1944 205.744C85.629 205.413 85.181 204.965 84.8504 204.4C84.5197 203.829 84.3544 203.189 84.3544 202.48V198C84.3544 197.291 84.5197 196.653 84.8504 196.088C85.181 195.517 85.629 195.067 86.1944 194.736C86.765 194.405 87.405 194.24 88.1144 194.24C88.8237 194.24 89.461 194.405 90.0264 194.736C90.597 195.067 91.0477 195.517 91.3784 196.088C91.709 196.653 91.8744 197.291 91.8744 198V202.48C91.8744 203.189 91.709 203.829 91.3784 204.4C91.0477 204.965 90.597 205.413 90.0264 205.744C89.461 206.075 88.8237 206.24 88.1144 206.24ZM88.1144 205.104C88.589 205.104 89.021 204.989 89.4104 204.76C89.7997 204.525 90.109 204.213 90.3384 203.824C90.5677 203.435 90.6824 203.005 90.6824 202.536V197.944C90.6824 197.469 90.5677 197.037 90.3384 196.648C90.109 196.259 89.7997 195.949 89.4104 195.72C89.021 195.485 88.589 195.368 88.1144 195.368C87.6397 195.368 87.2077 195.485 86.8184 195.72C86.429 195.949 86.1197 196.259 85.8904 196.648C85.661 197.037 85.5464 197.469 85.5464 197.944V202.536C85.5464 203.005 85.661 203.435 85.8904 203.824C86.1197 204.213 86.429 204.525 86.8184 204.76C87.2077 204.989 87.6397 205.104 88.1144 205.104Z" fill="#DEDEDE"/>
<path d="M9.17875 136.576V134.752H10.3548V136.576H9.17875ZM9.17875 123.72V121.888H10.3548V123.72H9.17875ZM9.90675 135.24C9.14409 135.24 8.45609 135.104 7.84275 134.832C7.23475 134.56 6.73075 134.176 6.33075 133.68C5.93609 133.184 5.67742 132.597 5.55475 131.92L6.69875 131.72C6.87475 132.456 7.25342 133.04 7.83475 133.472C8.42142 133.899 9.12809 134.112 9.95475 134.112C10.7921 134.112 11.4694 133.909 11.9868 133.504C12.5041 133.093 12.7628 132.557 12.7628 131.896C12.7628 131.405 12.6188 131.013 12.3308 130.72C12.0428 130.427 11.5548 130.176 10.8668 129.968L8.30675 129.168C6.76009 128.683 5.98675 127.765 5.98675 126.416C5.98675 125.787 6.14142 125.235 6.45075 124.76C6.76542 124.28 7.20009 123.907 7.75475 123.64C8.31475 123.373 8.96809 123.243 9.71475 123.248C10.4454 123.248 11.0988 123.387 11.6748 123.664C12.2561 123.936 12.7334 124.323 13.1068 124.824C13.4801 125.325 13.7281 125.92 13.8508 126.608L12.6748 126.832C12.6001 126.341 12.4268 125.912 12.1548 125.544C11.8881 125.176 11.5441 124.891 11.1228 124.688C10.7014 124.48 10.2321 124.373 9.71475 124.368C9.22409 124.368 8.78675 124.453 8.40275 124.624C8.01875 124.795 7.71475 125.032 7.49075 125.336C7.27209 125.635 7.16275 125.979 7.16275 126.368C7.16275 126.795 7.31475 127.157 7.61875 127.456C7.92809 127.749 8.41609 127.997 9.08275 128.2L11.2828 128.864C12.2108 129.141 12.8801 129.515 13.2908 129.984C13.7014 130.453 13.9068 131.08 13.9068 131.864C13.9068 132.541 13.7414 133.133 13.4108 133.64C13.0801 134.147 12.6134 134.541 12.0108 134.824C11.4134 135.101 10.7121 135.24 9.90675 135.24ZM21.4118 135V124.792L19.2438 126.096V124.776L21.4118 123.48H22.6038V135H21.4118ZM25.1575 136.672L25.2295 136.088C25.4428 136.104 25.5975 136.061 25.6935 135.96C25.7895 135.859 25.8482 135.723 25.8695 135.552C25.8908 135.381 25.8962 135.197 25.8855 135H25.1575V133.312H26.5255V135.32C26.5255 135.811 26.4002 136.179 26.1495 136.424C25.9042 136.669 25.5735 136.752 25.1575 136.672ZM33.2875 135.24C32.6902 135.24 32.1382 135.117 31.6315 134.872C31.1248 134.627 30.6928 134.288 30.3355 133.856C29.9782 133.424 29.7222 132.928 29.5675 132.368L30.6955 132.064C30.7968 132.48 30.9808 132.84 31.2475 133.144C31.5142 133.443 31.8262 133.675 32.1835 133.84C32.5462 134.005 32.9248 134.088 33.3195 134.088C33.8315 134.088 34.2902 133.965 34.6955 133.72C35.1062 133.469 35.4315 133.139 35.6715 132.728C35.9115 132.317 36.0315 131.867 36.0315 131.376C36.0315 130.869 35.9062 130.413 35.6555 130.008C35.4048 129.597 35.0742 129.272 34.6635 129.032C34.2528 128.792 33.8048 128.672 33.3195 128.672C32.7755 128.672 32.3062 128.792 31.9115 129.032C31.5168 129.267 31.2022 129.563 30.9675 129.92L29.8955 129.472L30.2475 123.48H36.3995V124.608H30.7675L31.3515 124.056L31.0395 129.168L30.7435 128.776C31.0742 128.397 31.4742 128.101 31.9435 127.888C32.4128 127.675 32.9062 127.568 33.4235 127.568C34.1328 127.568 34.7728 127.739 35.3435 128.08C35.9142 128.416 36.3675 128.872 36.7035 129.448C37.0395 130.024 37.2075 130.667 37.2075 131.376C37.2075 132.08 37.0288 132.725 36.6715 133.312C36.3142 133.893 35.8395 134.36 35.2475 134.712C34.6555 135.064 34.0022 135.24 33.2875 135.24ZM43.2019 135.24C42.4925 135.24 41.8525 135.075 41.2819 134.744C40.7165 134.413 40.2685 133.965 39.9379 133.4C39.6072 132.829 39.4419 132.189 39.4419 131.48V127C39.4419 126.291 39.6072 125.653 39.9379 125.088C40.2685 124.517 40.7165 124.067 41.2819 123.736C41.8525 123.405 42.4925 123.24 43.2019 123.24C43.9112 123.24 44.5485 123.405 45.1139 123.736C45.6845 124.067 46.1352 124.517 46.4659 125.088C46.7965 125.653 46.9619 126.291 46.9619 127V131.48C46.9619 132.189 46.7965 132.829 46.4659 133.4C46.1352 133.965 45.6845 134.413 45.1139 134.744C44.5485 135.075 43.9112 135.24 43.2019 135.24ZM43.2019 134.104C43.6765 134.104 44.1085 133.989 44.4979 133.76C44.8872 133.525 45.1965 133.213 45.4259 132.824C45.6552 132.435 45.7699 132.005 45.7699 131.536V126.944C45.7699 126.469 45.6552 126.037 45.4259 125.648C45.1965 125.259 44.8872 124.949 44.4979 124.72C44.1085 124.485 43.6765 124.368 43.2019 124.368C42.7272 124.368 42.2952 124.485 41.9059 124.72C41.5165 124.949 41.2072 125.259 40.9779 125.648C40.7485 126.037 40.6339 126.469 40.6339 126.944V131.536C40.6339 132.005 40.7485 132.435 40.9779 132.824C41.2072 133.213 41.5165 133.525 41.9059 133.76C42.2952 133.989 42.7272 134.104 43.2019 134.104ZM53.2875 135.24C52.5782 135.24 51.9382 135.075 51.3675 134.744C50.8022 134.413 50.3542 133.965 50.0235 133.4C49.6928 132.829 49.5275 132.189 49.5275 131.48V127C49.5275 126.291 49.6928 125.653 50.0235 125.088C50.3542 124.517 50.8022 124.067 51.3675 123.736C51.9382 123.405 52.5782 123.24 53.2875 123.24C53.9968 123.24 54.6342 123.405 55.1995 123.736C55.7702 124.067 56.2208 124.517 56.5515 125.088C56.8822 125.653 57.0475 126.291 57.0475 127V131.48C57.0475 132.189 56.8822 132.829 56.5515 133.4C56.2208 133.965 55.7702 134.413 55.1995 134.744C54.6342 135.075 53.9968 135.24 53.2875 135.24ZM53.2875 134.104C53.7622 134.104 54.1942 133.989 54.5835 133.76C54.9728 133.525 55.2822 133.213 55.5115 132.824C55.7408 132.435 55.8555 132.005 55.8555 131.536V126.944C55.8555 126.469 55.7408 126.037 55.5115 125.648C55.2822 125.259 54.9728 124.949 54.5835 124.72C54.1942 124.485 53.7622 124.368 53.2875 124.368C52.8128 124.368 52.3808 124.485 51.9915 124.72C51.6022 124.949 51.2928 125.259 51.0635 125.648C50.8342 126.037 50.7195 126.469 50.7195 126.944V131.536C50.7195 132.005 50.8342 132.435 51.0635 132.824C51.2928 133.213 51.6022 133.525 51.9915 133.76C52.3808 133.989 52.8128 134.104 53.2875 134.104ZM59.4531 136.672L59.5251 136.088C59.7385 136.104 59.8931 136.061 59.9891 135.96C60.0851 135.859 60.1438 135.723 60.1651 135.552C60.1865 135.381 60.1918 135.197 60.1811 135H59.4531V133.312H60.8211V135.32C60.8211 135.811 60.6958 136.179 60.4451 136.424C60.1998 136.669 59.8691 136.752 59.4531 136.672ZM67.9431 135.24C67.2338 135.24 66.5938 135.075 66.0231 134.744C65.4578 134.413 65.0098 133.965 64.6791 133.4C64.3485 132.829 64.1831 132.189 64.1831 131.48V127C64.1831 126.291 64.3485 125.653 64.6791 125.088C65.0098 124.517 65.4578 124.067 66.0231 123.736C66.5938 123.405 67.2338 123.24 67.9431 123.24C68.6525 123.24 69.2898 123.405 69.8551 123.736C70.4258 124.067 70.8765 124.517 71.2071 125.088C71.5378 125.653 71.7031 126.291 71.7031 127V131.48C71.7031 132.189 71.5378 132.829 71.2071 133.4C70.8765 133.965 70.4258 134.413 69.8551 134.744C69.2898 135.075 68.6525 135.24 67.9431 135.24ZM67.9431 134.104C68.4178 134.104 68.8498 133.989 69.2391 133.76C69.6285 133.525 69.9378 133.213 70.1671 132.824C70.3965 132.435 70.5111 132.005 70.5111 131.536V126.944C70.5111 126.469 70.3965 126.037 70.1671 125.648C69.9378 125.259 69.6285 124.949 69.2391 124.72C68.8498 124.485 68.4178 124.368 67.9431 124.368C67.4685 124.368 67.0365 124.485 66.6471 124.72C66.2578 124.949 65.9485 125.259 65.7191 125.648C65.4898 126.037 65.3751 126.469 65.3751 126.944V131.536C65.3751 132.005 65.4898 132.435 65.7191 132.824C65.9485 133.213 66.2578 133.525 66.6471 133.76C67.0365 133.989 67.4685 134.104 67.9431 134.104ZM78.0288 135.24C77.3194 135.24 76.6794 135.075 76.1088 134.744C75.5434 134.413 75.0954 133.965 74.7648 133.4C74.4341 132.829 74.2688 132.189 74.2688 131.48V127C74.2688 126.291 74.4341 125.653 74.7648 125.088C75.0954 124.517 75.5434 124.067 76.1088 123.736C76.6794 123.405 77.3194 123.24 78.0288 123.24C78.7381 123.24 79.3754 123.405 79.9408 123.736C80.5114 124.067 80.9621 124.517 81.2928 125.088C81.6234 125.653 81.7888 126.291 81.7888 127V131.48C81.7888 132.189 81.6234 132.829 81.2928 133.4C80.9621 133.965 80.5114 134.413 79.9408 134.744C79.3754 135.075 78.7381 135.24 78.0288 135.24ZM78.0288 134.104C78.5034 134.104 78.9354 133.989 79.3248 133.76C79.7141 133.525 80.0234 133.213 80.2528 132.824C80.4821 132.435 80.5968 132.005 80.5968 131.536V126.944C80.5968 126.469 80.4821 126.037 80.2528 125.648C80.0234 125.259 79.7141 124.949 79.3248 124.72C78.9354 124.485 78.5034 124.368 78.0288 124.368C77.5541 124.368 77.1221 124.485 76.7328 124.72C76.3434 124.949 76.0341 125.259 75.8048 125.648C75.5754 126.037 75.4608 126.469 75.4608 126.944V131.536C75.4608 132.005 75.5754 132.435 75.8048 132.824C76.0341 133.213 76.3434 133.525 76.7328 133.76C77.1221 133.989 77.5541 134.104 78.0288 134.104ZM88.1144 135.24C87.405 135.24 86.765 135.075 86.1944 134.744C85.629 134.413 85.181 133.965 84.8504 133.4C84.5197 132.829 84.3544 132.189 84.3544 131.48V127C84.3544 126.291 84.5197 125.653 84.8504 125.088C85.181 124.517 85.629 124.067 86.1944 123.736C86.765 123.405 87.405 123.24 88.1144 123.24C88.8237 123.24 89.461 123.405 90.0264 123.736C90.597 124.067 91.0477 124.517 91.3784 125.088C91.709 125.653 91.8744 126.291 91.8744 127V131.48C91.8744 132.189 91.709 132.829 91.3784 133.4C91.0477 133.965 90.597 134.413 90.0264 134.744C89.461 135.075 88.8237 135.24 88.1144 135.24ZM88.1144 134.104C88.589 134.104 89.021 133.989 89.4104 133.76C89.7997 133.525 90.109 133.213 90.3384 132.824C90.5677 132.435 90.6824 132.005 90.6824 131.536V126.944C90.6824 126.469 90.5677 126.037 90.3384 125.648C90.109 125.259 89.7997 124.949 89.4104 124.72C89.021 124.485 88.589 124.368 88.1144 124.368C87.6397 124.368 87.2077 124.485 86.8184 124.72C86.429 124.949 86.1197 125.259 85.8904 125.648C85.661 126.037 85.5464 126.469 85.5464 126.944V131.536C85.5464 132.005 85.661 132.435 85.8904 132.824C86.1197 133.213 86.429 133.525 86.8184 133.76C87.2077 133.989 87.6397 134.104 88.1144 134.104Z" fill="#DEDEDE"/>
<path d="M5.11625 65.576V63.752H6.29225V65.576H5.11625ZM5.11625 52.72V50.888H6.29225V52.72H5.11625ZM5.84425 64.24C5.08159 64.24 4.39359 64.104 3.78025 63.832C3.17225 63.56 2.66825 63.176 2.26825 62.68C1.87359 62.184 1.61492 61.5973 1.49225 60.92L2.63625 60.72C2.81225 61.456 3.19092 62.04 3.77225 62.472C4.35892 62.8987 5.06559 63.112 5.89225 63.112C6.72959 63.112 7.40692 62.9093 7.92425 62.504C8.44159 62.0933 8.70025 61.5573 8.70025 60.896C8.70025 60.4053 8.55625 60.0133 8.26825 59.72C7.98025 59.4267 7.49225 59.176 6.80425 58.968L4.24425 58.168C2.69759 57.6827 1.92425 56.7653 1.92425 55.416C1.92425 54.7867 2.07892 54.2347 2.38825 53.76C2.70292 53.28 3.13759 52.9067 3.69225 52.64C4.25225 52.3733 4.90559 52.2427 5.65225 52.248C6.38292 52.248 7.03625 52.3867 7.61225 52.664C8.19359 52.936 8.67092 53.3227 9.04425 53.824C9.41759 54.3253 9.66559 54.92 9.78825 55.608L8.61225 55.832C8.53759 55.3413 8.36425 54.912 8.09225 54.544C7.82559 54.176 7.48159 53.8907 7.06025 53.688C6.63892 53.48 6.16959 53.3733 5.65225 53.368C5.16159 53.368 4.72425 53.4533 4.34025 53.624C3.95625 53.7947 3.65225 54.032 3.42825 54.336C3.20959 54.6347 3.10025 54.9787 3.10025 55.368C3.10025 55.7947 3.25225 56.1573 3.55625 56.456C3.86559 56.7493 4.35359 56.9973 5.02025 57.2L7.22025 57.864C8.14825 58.1413 8.81759 58.5147 9.22825 58.984C9.63892 59.4533 9.84425 60.08 9.84425 60.864C9.84425 61.5413 9.67892 62.1333 9.34825 62.64C9.01759 63.1467 8.55092 63.5413 7.94825 63.824C7.35092 64.1013 6.64959 64.24 5.84425 64.24ZM15.0213 63.992L15.0293 62.92L20.2373 58.216C20.6853 57.8107 20.9813 57.4267 21.1253 57.064C21.2746 56.696 21.3493 56.312 21.3493 55.912C21.3493 55.4373 21.2373 55.008 21.0133 54.624C20.7893 54.24 20.4879 53.936 20.1093 53.712C19.7306 53.4827 19.3066 53.368 18.8373 53.368C18.3466 53.368 17.9093 53.4853 17.5253 53.72C17.1413 53.9547 16.8373 54.264 16.6133 54.648C16.3946 55.032 16.2879 55.4507 16.2933 55.904H15.0933C15.0933 55.2053 15.2586 54.5787 15.5893 54.024C15.9199 53.4693 16.3679 53.0347 16.9333 52.72C17.4986 52.4 18.1386 52.24 18.8533 52.24C19.5519 52.24 20.1786 52.4053 20.7333 52.736C21.2933 53.0613 21.7333 53.504 22.0533 54.064C22.3786 54.6187 22.5413 55.2373 22.5413 55.92C22.5413 56.4 22.4826 56.824 22.3653 57.192C22.2533 57.5547 22.0746 57.8933 21.8293 58.208C21.5893 58.5173 21.2826 58.8373 20.9093 59.168L16.2853 63.344L16.1013 62.864H22.5413V63.992H15.0213ZM24.6263 65.672L24.6983 65.088C24.9116 65.104 25.0663 65.0613 25.1623 64.96C25.2583 64.8587 25.3169 64.7227 25.3383 64.552C25.3596 64.3813 25.3649 64.1973 25.3543 64H24.6263V62.312H25.9943V64.32C25.9943 64.8107 25.8689 65.1787 25.6183 65.424C25.3729 65.6693 25.0423 65.752 24.6263 65.672ZM33.1163 64.24C32.4069 64.24 31.7669 64.0747 31.1963 63.744C30.6309 63.4133 30.1829 62.9653 29.8523 62.4C29.5216 61.8293 29.3563 61.1893 29.3563 60.48V56C29.3563 55.2907 29.5216 54.6533 29.8523 54.088C30.1829 53.5173 30.6309 53.0667 31.1963 52.736C31.7669 52.4053 32.4069 52.24 33.1163 52.24C33.8256 52.24 34.4629 52.4053 35.0283 52.736C35.5989 53.0667 36.0496 53.5173 36.3803 54.088C36.7109 54.6533 36.8763 55.2907 36.8763 56V60.48C36.8763 61.1893 36.7109 61.8293 36.3803 62.4C36.0496 62.9653 35.5989 63.4133 35.0283 63.744C34.4629 64.0747 33.8256 64.24 33.1163 64.24ZM33.1163 63.104C33.5909 63.104 34.0229 62.9893 34.4123 62.76C34.8016 62.5253 35.1109 62.2133 35.3403 61.824C35.5696 61.4347 35.6843 61.0053 35.6843 60.536V55.944C35.6843 55.4693 35.5696 55.0373 35.3403 54.648C35.1109 54.2587 34.8016 53.9493 34.4123 53.72C34.0229 53.4853 33.5909 53.368 33.1163 53.368C32.6416 53.368 32.2096 53.4853 31.8203 53.72C31.4309 53.9493 31.1216 54.2587 30.8923 54.648C30.6629 55.0373 30.5483 55.4693 30.5483 55.944V60.536C30.5483 61.0053 30.6629 61.4347 30.8923 61.824C31.1216 62.2133 31.4309 62.5253 31.8203 62.76C32.2096 62.9893 32.6416 63.104 33.1163 63.104ZM43.2019 64.24C42.4925 64.24 41.8525 64.0747 41.2819 63.744C40.7165 63.4133 40.2685 62.9653 39.9379 62.4C39.6072 61.8293 39.4419 61.1893 39.4419 60.48V56C39.4419 55.2907 39.6072 54.6533 39.9379 54.088C40.2685 53.5173 40.7165 53.0667 41.2819 52.736C41.8525 52.4053 42.4925 52.24 43.2019 52.24C43.9112 52.24 44.5485 52.4053 45.1139 52.736C45.6845 53.0667 46.1352 53.5173 46.4659 54.088C46.7965 54.6533 46.9619 55.2907 46.9619 56V60.48C46.9619 61.1893 46.7965 61.8293 46.4659 62.4C46.1352 62.9653 45.6845 63.4133 45.1139 63.744C44.5485 64.0747 43.9112 64.24 43.2019 64.24ZM43.2019 63.104C43.6765 63.104 44.1085 62.9893 44.4979 62.76C44.8872 62.5253 45.1965 62.2133 45.4259 61.824C45.6552 61.4347 45.7699 61.0053 45.7699 60.536V55.944C45.7699 55.4693 45.6552 55.0373 45.4259 54.648C45.1965 54.2587 44.8872 53.9493 44.4979 53.72C44.1085 53.4853 43.6765 53.368 43.2019 53.368C42.7272 53.368 42.2952 53.4853 41.9059 53.72C41.5165 53.9493 41.2072 54.2587 40.9779 54.648C40.7485 55.0373 40.6339 55.4693 40.6339 55.944V60.536C40.6339 61.0053 40.7485 61.4347 40.9779 61.824C41.2072 62.2133 41.5165 62.5253 41.9059 62.76C42.2952 62.9893 42.7272 63.104 43.2019 63.104ZM53.2875 64.24C52.5782 64.24 51.9382 64.0747 51.3675 63.744C50.8022 63.4133 50.3542 62.9653 50.0235 62.4C49.6928 61.8293 49.5275 61.1893 49.5275 60.48V56C49.5275 55.2907 49.6928 54.6533 50.0235 54.088C50.3542 53.5173 50.8022 53.0667 51.3675 52.736C51.9382 52.4053 52.5782 52.24 53.2875 52.24C53.9968 52.24 54.6342 52.4053 55.1995 52.736C55.7702 53.0667 56.2208 53.5173 56.5515 54.088C56.8822 54.6533 57.0475 55.2907 57.0475 56V60.48C57.0475 61.1893 56.8822 61.8293 56.5515 62.4C56.2208 62.9653 55.7702 63.4133 55.1995 63.744C54.6342 64.0747 53.9968 64.24 53.2875 64.24ZM53.2875 63.104C53.7622 63.104 54.1942 62.9893 54.5835 62.76C54.9728 62.5253 55.2822 62.2133 55.5115 61.824C55.7408 61.4347 55.8555 61.0053 55.8555 60.536V55.944C55.8555 55.4693 55.7408 55.0373 55.5115 54.648C55.2822 54.2587 54.9728 53.9493 54.5835 53.72C54.1942 53.4853 53.7622 53.368 53.2875 53.368C52.8128 53.368 52.3808 53.4853 51.9915 53.72C51.6022 53.9493 51.2928 54.2587 51.0635 54.648C50.8342 55.0373 50.7195 55.4693 50.7195 55.944V60.536C50.7195 61.0053 50.8342 61.4347 51.0635 61.824C51.2928 62.2133 51.6022 62.5253 51.9915 62.76C52.3808 62.9893 52.8128 63.104 53.2875 63.104ZM59.4531 65.672L59.5251 65.088C59.7385 65.104 59.8931 65.0613 59.9891 64.96C60.0851 64.8587 60.1438 64.7227 60.1651 64.552C60.1865 64.3813 60.1918 64.1973 60.1811 64H59.4531V62.312H60.8211V64.32C60.8211 64.8107 60.6958 65.1787 60.4451 65.424C60.1998 65.6693 59.8691 65.752 59.4531 65.672ZM67.9431 64.24C67.2338 64.24 66.5938 64.0747 66.0231 63.744C65.4578 63.4133 65.0098 62.9653 64.6791 62.4C64.3485 61.8293 64.1831 61.1893 64.1831 60.48V56C64.1831 55.2907 64.3485 54.6533 64.6791 54.088C65.0098 53.5173 65.4578 53.0667 66.0231 52.736C66.5938 52.4053 67.2338 52.24 67.9431 52.24C68.6525 52.24 69.2898 52.4053 69.8551 52.736C70.4258 53.0667 70.8765 53.5173 71.2071 54.088C71.5378 54.6533 71.7031 55.2907 71.7031 56V60.48C71.7031 61.1893 71.5378 61.8293 71.2071 62.4C70.8765 62.9653 70.4258 63.4133 69.8551 63.744C69.2898 64.0747 68.6525 64.24 67.9431 64.24ZM67.9431 63.104C68.4178 63.104 68.8498 62.9893 69.2391 62.76C69.6285 62.5253 69.9378 62.2133 70.1671 61.824C70.3965 61.4347 70.5111 61.0053 70.5111 60.536V55.944C70.5111 55.4693 70.3965 55.0373 70.1671 54.648C69.9378 54.2587 69.6285 53.9493 69.2391 53.72C68.8498 53.4853 68.4178 53.368 67.9431 53.368C67.4685 53.368 67.0365 53.4853 66.6471 53.72C66.2578 53.9493 65.9485 54.2587 65.7191 54.648C65.4898 55.0373 65.3751 55.4693 65.3751 55.944V60.536C65.3751 61.0053 65.4898 61.4347 65.7191 61.824C65.9485 62.2133 66.2578 62.5253 66.6471 62.76C67.0365 62.9893 67.4685 63.104 67.9431 63.104ZM78.0288 64.24C77.3194 64.24 76.6794 64.0747 76.1088 63.744C75.5434 63.4133 75.0954 62.9653 74.7648 62.4C74.4341 61.8293 74.2688 61.1893 74.2688 60.48V56C74.2688 55.2907 74.4341 54.6533 74.7648 54.088C75.0954 53.5173 75.5434 53.0667 76.1088 52.736C76.6794 52.4053 77.3194 52.24 78.0288 52.24C78.7381 52.24 79.3754 52.4053 79.9408 52.736C80.5114 53.0667 80.9621 53.5173 81.2928 54.088C81.6234 54.6533 81.7888 55.2907 81.7888 56V60.48C81.7888 61.1893 81.6234 61.8293 81.2928 62.4C80.9621 62.9653 80.5114 63.4133 79.9408 63.744C79.3754 64.0747 78.7381 64.24 78.0288 64.24ZM78.0288 63.104C78.5034 63.104 78.9354 62.9893 79.3248 62.76C79.7141 62.5253 80.0234 62.2133 80.2528 61.824C80.4821 61.4347 80.5968 61.0053 80.5968 60.536V55.944C80.5968 55.4693 80.4821 55.0373 80.2528 54.648C80.0234 54.2587 79.7141 53.9493 79.3248 53.72C78.9354 53.4853 78.5034 53.368 78.0288 53.368C77.5541 53.368 77.1221 53.4853 76.7328 53.72C76.3434 53.9493 76.0341 54.2587 75.8048 54.648C75.5754 55.0373 75.4608 55.4693 75.4608 55.944V60.536C75.4608 61.0053 75.5754 61.4347 75.8048 61.824C76.0341 62.2133 76.3434 62.5253 76.7328 62.76C77.1221 62.9893 77.5541 63.104 78.0288 63.104ZM88.1144 64.24C87.405 64.24 86.765 64.0747 86.1944 63.744C85.629 63.4133 85.181 62.9653 84.8504 62.4C84.5197 61.8293 84.3544 61.1893 84.3544 60.48V56C84.3544 55.2907 84.5197 54.6533 84.8504 54.088C85.181 53.5173 85.629 53.0667 86.1944 52.736C86.765 52.4053 87.405 52.24 88.1144 52.24C88.8237 52.24 89.461 52.4053 90.0264 52.736C90.597 53.0667 91.0477 53.5173 91.3784 54.088C91.709 54.6533 91.8744 55.2907 91.8744 56V60.48C91.8744 61.1893 91.709 61.8293 91.3784 62.4C91.0477 62.9653 90.597 63.4133 90.0264 63.744C89.461 64.0747 88.8237 64.24 88.1144 64.24ZM88.1144 63.104C88.589 63.104 89.021 62.9893 89.4104 62.76C89.7997 62.5253 90.109 62.2133 90.3384 61.824C90.5677 61.4347 90.6824 61.0053 90.6824 60.536V55.944C90.6824 55.4693 90.5677 55.0373 90.3384 54.648C90.109 54.2587 89.7997 53.9493 89.4104 53.72C89.021 53.4853 88.589 53.368 88.1144 53.368C87.6397 53.368 87.2077 53.4853 86.8184 53.72C86.429 53.9493 86.1197 54.2587 85.8904 54.648C85.661 55.0373 85.5464 55.4693 85.5464 55.944V60.536C85.5464 61.0053 85.661 61.4347 85.8904 61.824C86.1197 62.2133 86.429 62.5253 86.8184 62.76C87.2077 62.9893 87.6397 63.104 88.1144 63.104Z" fill="#DEDEDE"/>
<rect x="409" y="248" width="57" height="100" rx="2" fill="#565656"/>
<rect x="409" y="293" width="57" height="55" rx="2" fill="#8F8F8F"/>
<rect x="277" y="309" width="57" height="39" rx="2" fill="#565656"/>
<rect x="277" y="325" width="57" height="23" rx="2" fill="#8F8F8F"/>
<rect x="145" y="326" width="57" height="22" rx="2" fill="#565656"/>
<rect x="145" y="335" width="57" height="13" rx="2" fill="#8F8F8F"/>
<rect x="541" y="236" width="57" height="112" rx="2" fill="#565656"/>
<rect x="541" y="277" width="57" height="71" rx="2" fill="#8F8F8F"/>
<rect x="673" y="80" width="57" height="268" rx="2" fill="#565656"/>
<rect x="673" y="184" width="57" height="164" rx="2" fill="#8F8F8F"/>
<rect x="409" y="337" width="57" height="11" fill="#ECECEC"/>
<rect x="277" y="340" width="57" height="8" fill="#ECECEC"/>
<rect x="145" y="343" width="57" height="5" fill="#ECECEC"/>
<rect x="541" y="325" width="57" height="23" fill="#ECECEC"/>
<rect x="673" y="285" width="57" height="63" fill="#ECECEC"/>
<path d="M402.519 14V2.813L400.08 4.289V2.498L402.519 1.04H404.148V14H402.519ZM413.561 14V8.609L409.196 1.04H411.059L414.371 6.773L417.674 1.04H419.537L415.181 8.609V14H413.561ZM423.203 14.27C422.249 14.27 421.415 14.06 420.701 13.64C419.993 13.214 419.441 12.623 419.045 11.867C418.649 11.105 418.451 10.217 418.451 9.203C418.451 8.141 418.646 7.223 419.036 6.449C419.426 5.669 419.969 5.069 420.665 4.649C421.367 4.223 422.189 4.01 423.131 4.01C424.109 4.01 424.94 4.235 425.624 4.685C426.314 5.135 426.83 5.777 427.172 6.611C427.52 7.445 427.67 8.438 427.622 9.59H426.002V9.014C425.984 7.82 425.741 6.929 425.273 6.341C424.805 5.747 424.109 5.45 423.185 5.45C422.195 5.45 421.442 5.768 420.926 6.404C420.41 7.04 420.152 7.952 420.152 9.14C420.152 10.286 420.41 11.174 420.926 11.804C421.442 12.434 422.177 12.749 423.131 12.749C423.773 12.749 424.331 12.602 424.805 12.308C425.279 12.014 425.651 11.591 425.921 11.039L427.46 11.57C427.082 12.428 426.512 13.094 425.75 13.568C424.994 14.036 424.145 14.27 423.203 14.27ZM419.612 9.59V8.303H426.794V9.59H419.612ZM431.853 14.27C431.127 14.27 430.518 14.138 430.026 13.874C429.54 13.604 429.171 13.25 428.919 12.812C428.673 12.374 428.55 11.894 428.55 11.372C428.55 10.862 428.646 10.421 428.838 10.049C429.036 9.671 429.312 9.359 429.666 9.113C430.02 8.861 430.443 8.663 430.935 8.519C431.397 8.393 431.913 8.285 432.483 8.195C433.059 8.099 433.641 8.012 434.229 7.934C434.817 7.856 435.366 7.781 435.876 7.709L435.3 8.042C435.318 7.178 435.144 6.539 434.778 6.125C434.418 5.711 433.794 5.504 432.906 5.504C432.318 5.504 431.802 5.639 431.358 5.909C430.92 6.173 430.611 6.605 430.431 7.205L428.91 6.746C429.144 5.894 429.597 5.225 430.269 4.739C430.941 4.253 431.826 4.01 432.924 4.01C433.806 4.01 434.562 4.169 435.192 4.487C435.828 4.799 436.284 5.273 436.56 5.909C436.698 6.209 436.785 6.536 436.821 6.89C436.857 7.238 436.875 7.604 436.875 7.988V14H435.453V11.669L435.786 11.885C435.42 12.671 434.907 13.265 434.247 13.667C433.593 14.069 432.795 14.27 431.853 14.27ZM432.096 12.929C432.672 12.929 433.17 12.827 433.59 12.623C434.016 12.413 434.358 12.14 434.616 11.804C434.874 11.462 435.042 11.09 435.12 10.688C435.21 10.388 435.258 10.055 435.264 9.689C435.276 9.317 435.282 9.032 435.282 8.834L435.84 9.077C435.318 9.149 434.805 9.218 434.301 9.284C433.797 9.35 433.32 9.422 432.87 9.5C432.42 9.572 432.015 9.659 431.655 9.761C431.391 9.845 431.142 9.953 430.908 10.085C430.68 10.217 430.494 10.388 430.35 10.598C430.212 10.802 430.143 11.057 430.143 11.363C430.143 11.627 430.209 11.879 430.341 12.119C430.479 12.359 430.689 12.554 430.971 12.704C431.259 12.854 431.634 12.929 432.096 12.929ZM438.855 14V4.28H440.286V6.629L440.052 6.323C440.166 6.023 440.313 5.747 440.493 5.495C440.679 5.243 440.886 5.036 441.114 4.874C441.366 4.67 441.651 4.514 441.969 4.406C442.287 4.298 442.611 4.235 442.941 4.217C443.271 4.193 443.58 4.214 443.868 4.28V5.783C443.532 5.693 443.163 5.669 442.761 5.711C442.359 5.753 441.987 5.9 441.645 6.152C441.333 6.374 441.09 6.644 440.916 6.962C440.748 7.28 440.631 7.625 440.565 7.997C440.499 8.363 440.466 8.738 440.466 9.122V14H438.855Z" fill="#ECECEC"/>
<rect x="457" width="15" height="15" fill="#ECECEC"/>
<path d="M541.693 14.252C541.051 14.252 540.454 14.135 539.902 13.901C539.35 13.661 538.873 13.325 538.471 12.893C538.075 12.455 537.784 11.936 537.598 11.336L539.137 10.895C539.335 11.495 539.665 11.951 540.127 12.263C540.589 12.575 541.108 12.728 541.684 12.722C542.212 12.71 542.668 12.59 543.052 12.362C543.442 12.128 543.742 11.81 543.952 11.408C544.168 11.006 544.276 10.541 544.276 10.013C544.276 9.209 544.036 8.558 543.556 8.06C543.076 7.556 542.446 7.304 541.666 7.304C541.45 7.304 541.222 7.334 540.982 7.394C540.748 7.454 540.529 7.538 540.325 7.646L539.551 6.377L544.357 2.03L544.564 2.57H538.111V1.04H545.752V2.579L541.657 6.503L541.639 5.936C542.497 5.876 543.247 6.017 543.889 6.359C544.531 6.701 545.029 7.19 545.383 7.826C545.743 8.462 545.923 9.191 545.923 10.013C545.923 10.841 545.737 11.573 545.365 12.209C544.993 12.845 544.489 13.346 543.853 13.712C543.217 14.072 542.497 14.252 541.693 14.252ZM554.252 14V8.609L549.887 1.04H551.75L555.062 6.773L558.365 1.04H560.228L555.872 8.609V14H554.252ZM563.893 14.27C562.939 14.27 562.105 14.06 561.391 13.64C560.683 13.214 560.131 12.623 559.735 11.867C559.339 11.105 559.141 10.217 559.141 9.203C559.141 8.141 559.336 7.223 559.726 6.449C560.116 5.669 560.659 5.069 561.355 4.649C562.057 4.223 562.879 4.01 563.821 4.01C564.799 4.01 565.63 4.235 566.314 4.685C567.004 5.135 567.52 5.777 567.862 6.611C568.21 7.445 568.36 8.438 568.312 9.59H566.692V9.014C566.674 7.82 566.431 6.929 565.963 6.341C565.495 5.747 564.799 5.45 563.875 5.45C562.885 5.45 562.132 5.768 561.616 6.404C561.1 7.04 560.842 7.952 560.842 9.14C560.842 10.286 561.1 11.174 561.616 11.804C562.132 12.434 562.867 12.749 563.821 12.749C564.463 12.749 565.021 12.602 565.495 12.308C565.969 12.014 566.341 11.591 566.611 11.039L568.15 11.57C567.772 12.428 567.202 13.094 566.44 13.568C565.684 14.036 564.835 14.27 563.893 14.27ZM560.302 9.59V8.303H567.484V9.59H560.302ZM572.543 14.27C571.817 14.27 571.208 14.138 570.716 13.874C570.23 13.604 569.861 13.25 569.609 12.812C569.363 12.374 569.24 11.894 569.24 11.372C569.24 10.862 569.336 10.421 569.528 10.049C569.726 9.671 570.002 9.359 570.356 9.113C570.71 8.861 571.133 8.663 571.625 8.519C572.087 8.393 572.603 8.285 573.173 8.195C573.749 8.099 574.331 8.012 574.919 7.934C575.507 7.856 576.056 7.781 576.566 7.709L575.99 8.042C576.008 7.178 575.834 6.539 575.468 6.125C575.108 5.711 574.484 5.504 573.596 5.504C573.008 5.504 572.492 5.639 572.048 5.909C571.61 6.173 571.301 6.605 571.121 7.205L569.6 6.746C569.834 5.894 570.287 5.225 570.959 4.739C571.631 4.253 572.516 4.01 573.614 4.01C574.496 4.01 575.252 4.169 575.882 4.487C576.518 4.799 576.974 5.273 577.25 5.909C577.388 6.209 577.475 6.536 577.511 6.89C577.547 7.238 577.565 7.604 577.565 7.988V14H576.143V11.669L576.476 11.885C576.11 12.671 575.597 13.265 574.937 13.667C574.283 14.069 573.485 14.27 572.543 14.27ZM572.786 12.929C573.362 12.929 573.86 12.827 574.28 12.623C574.706 12.413 575.048 12.14 575.306 11.804C575.564 11.462 575.732 11.09 575.81 10.688C575.9 10.388 575.948 10.055 575.954 9.689C575.966 9.317 575.972 9.032 575.972 8.834L576.53 9.077C576.008 9.149 575.495 9.218 574.991 9.284C574.487 9.35 574.01 9.422 573.56 9.5C573.11 9.572 572.705 9.659 572.345 9.761C572.081 9.845 571.832 9.953 571.598 10.085C571.37 10.217 571.184 10.388 571.04 10.598C570.902 10.802 570.833 11.057 570.833 11.363C570.833 11.627 570.899 11.879 571.031 12.119C571.169 12.359 571.379 12.554 571.661 12.704C571.949 12.854 572.324 12.929 572.786 12.929ZM579.545 14V4.28H580.976V6.629L580.742 6.323C580.856 6.023 581.003 5.747 581.183 5.495C581.369 5.243 581.576 5.036 581.804 4.874C582.056 4.67 582.341 4.514 582.659 4.406C582.977 4.298 583.301 4.235 583.631 4.217C583.961 4.193 584.27 4.214 584.558 4.28V5.783C584.222 5.693 583.853 5.669 583.451 5.711C583.049 5.753 582.677 5.9 582.335 6.152C582.023 6.374 581.78 6.644 581.606 6.962C581.438 7.28 581.321 7.625 581.255 7.997C581.189 8.363 581.156 8.738 581.156 9.122V14H579.545Z" fill="#ECECEC"/>
<rect x="597" width="15" height="15" fill="#8F8F8F"/>
<path d="M681.656 14.27C680.99 14.27 680.369 14.132 679.793 13.856C679.223 13.58 678.734 13.202 678.326 12.722C677.924 12.236 677.636 11.678 677.462 11.048L679.001 10.634C679.109 11.06 679.301 11.429 679.577 11.741C679.853 12.047 680.174 12.287 680.54 12.461C680.912 12.629 681.299 12.713 681.701 12.713C682.229 12.713 682.703 12.587 683.123 12.335C683.549 12.077 683.885 11.738 684.131 11.318C684.377 10.892 684.5 10.427 684.5 9.923C684.5 9.401 684.371 8.93 684.113 8.51C683.861 8.084 683.522 7.748 683.096 7.502C682.67 7.256 682.205 7.133 681.701 7.133C681.131 7.133 680.642 7.253 680.234 7.493C679.832 7.727 679.514 8.015 679.28 8.357L677.858 7.817L678.254 1.04H685.211V2.561H679.028L679.739 1.895L679.406 7.322L679.055 6.863C679.415 6.479 679.844 6.182 680.342 5.972C680.846 5.762 681.359 5.657 681.881 5.657C682.685 5.657 683.405 5.846 684.041 6.224C684.677 6.596 685.181 7.106 685.553 7.754C685.925 8.396 686.111 9.119 686.111 9.923C686.111 10.721 685.907 11.45 685.499 12.11C685.091 12.764 684.548 13.289 683.87 13.685C683.198 14.075 682.46 14.27 681.656 14.27ZM694.252 14V8.609L689.887 1.04H691.75L695.062 6.773L698.365 1.04H700.228L695.872 8.609V14H694.252ZM703.893 14.27C702.939 14.27 702.105 14.06 701.391 13.64C700.683 13.214 700.131 12.623 699.735 11.867C699.339 11.105 699.141 10.217 699.141 9.203C699.141 8.141 699.336 7.223 699.726 6.449C700.116 5.669 700.659 5.069 701.355 4.649C702.057 4.223 702.879 4.01 703.821 4.01C704.799 4.01 705.63 4.235 706.314 4.685C707.004 5.135 707.52 5.777 707.862 6.611C708.21 7.445 708.36 8.438 708.312 9.59H706.692V9.014C706.674 7.82 706.431 6.929 705.963 6.341C705.495 5.747 704.799 5.45 703.875 5.45C702.885 5.45 702.132 5.768 701.616 6.404C701.1 7.04 700.842 7.952 700.842 9.14C700.842 10.286 701.1 11.174 701.616 11.804C702.132 12.434 702.867 12.749 703.821 12.749C704.463 12.749 705.021 12.602 705.495 12.308C705.969 12.014 706.341 11.591 706.611 11.039L708.15 11.57C707.772 12.428 707.202 13.094 706.44 13.568C705.684 14.036 704.835 14.27 703.893 14.27ZM700.302 9.59V8.303H707.484V9.59H700.302ZM712.543 14.27C711.817 14.27 711.208 14.138 710.716 13.874C710.23 13.604 709.861 13.25 709.609 12.812C709.363 12.374 709.24 11.894 709.24 11.372C709.24 10.862 709.336 10.421 709.528 10.049C709.726 9.671 710.002 9.359 710.356 9.113C710.71 8.861 711.133 8.663 711.625 8.519C712.087 8.393 712.603 8.285 713.173 8.195C713.749 8.099 714.331 8.012 714.919 7.934C715.507 7.856 716.056 7.781 716.566 7.709L715.99 8.042C716.008 7.178 715.834 6.539 715.468 6.125C715.108 5.711 714.484 5.504 713.596 5.504C713.008 5.504 712.492 5.639 712.048 5.909C711.61 6.173 711.301 6.605 711.121 7.205L709.6 6.746C709.834 5.894 710.287 5.225 710.959 4.739C711.631 4.253 712.516 4.01 713.614 4.01C714.496 4.01 715.252 4.169 715.882 4.487C716.518 4.799 716.974 5.273 717.25 5.909C717.388 6.209 717.475 6.536 717.511 6.89C717.547 7.238 717.565 7.604 717.565 7.988V14H716.143V11.669L716.476 11.885C716.11 12.671 715.597 13.265 714.937 13.667C714.283 14.069 713.485 14.27 712.543 14.27ZM712.786 12.929C713.362 12.929 713.86 12.827 714.28 12.623C714.706 12.413 715.048 12.14 715.306 11.804C715.564 11.462 715.732 11.09 715.81 10.688C715.9 10.388 715.948 10.055 715.954 9.689C715.966 9.317 715.972 9.032 715.972 8.834L716.53 9.077C716.008 9.149 715.495 9.218 714.991 9.284C714.487 9.35 714.01 9.422 713.56 9.5C713.11 9.572 712.705 9.659 712.345 9.761C712.081 9.845 711.832 9.953 711.598 10.085C711.37 10.217 711.184 10.388 711.04 10.598C710.902 10.802 710.833 11.057 710.833 11.363C710.833 11.627 710.899 11.879 711.031 12.119C711.169 12.359 711.379 12.554 711.661 12.704C711.949 12.854 712.324 12.929 712.786 12.929ZM719.545 14V4.28H720.976V6.629L720.742 6.323C720.856 6.023 721.003 5.747 721.183 5.495C721.369 5.243 721.576 5.036 721.804 4.874C722.056 4.67 722.341 4.514 722.659 4.406C722.977 4.298 723.301 4.235 723.631 4.217C723.961 4.193 724.27 4.214 724.558 4.28V5.783C724.222 5.693 723.853 5.669 723.451 5.711C723.049 5.753 722.677 5.9 722.335 6.152C722.023 6.374 721.78 6.644 721.606 6.962C721.438 7.28 721.321 7.625 721.255 7.997C721.189 8.363 721.156 8.738 721.156 9.122V14H719.545Z" fill="#ECECEC"/>
<rect x="737" width="15" height="15" fill="#565656"/>
</svg>
