<svg width="632" height="352" viewBox="0 0 632 352" fill="none" xmlns="http://www.w3.org/2000/svg">
<line x1="113" y1="319.5" x2="632" y2="319.5" stroke="#494949"/>
<path d="M496.375 351V340.792L494.207 342.096V340.776L496.375 339.48H497.567V351H496.375ZM507.188 351V346.176L503.324 339.48H504.684L507.78 344.832L510.86 339.48H512.22L508.372 346.176V351H507.188ZM516.03 351.24C515.187 351.24 514.456 351.053 513.838 350.68C513.224 350.307 512.747 349.781 512.406 349.104C512.064 348.427 511.894 347.632 511.894 346.72C511.894 345.776 512.062 344.96 512.398 344.272C512.734 343.584 513.206 343.053 513.814 342.68C514.427 342.307 515.15 342.12 515.982 342.12C516.835 342.12 517.563 342.317 518.166 342.712C518.768 343.101 519.224 343.661 519.534 344.392C519.843 345.123 519.984 345.995 519.958 347.008H518.758V346.592C518.736 345.472 518.494 344.627 518.03 344.056C517.571 343.485 516.899 343.2 516.014 343.2C515.086 343.2 514.374 343.501 513.878 344.104C513.387 344.707 513.142 345.565 513.142 346.68C513.142 347.768 513.387 348.613 513.878 349.216C514.374 349.813 515.075 350.112 515.982 350.112C516.6 350.112 517.139 349.971 517.598 349.688C518.062 349.4 518.427 348.987 518.694 348.448L519.79 348.872C519.448 349.624 518.944 350.208 518.278 350.624C517.616 351.035 516.867 351.24 516.03 351.24ZM512.726 347.008V346.024H519.326V347.008H512.726ZM524.369 351.24C523.718 351.24 523.172 351.123 522.729 350.888C522.292 350.653 521.964 350.341 521.745 349.952C521.526 349.563 521.417 349.139 521.417 348.68C521.417 348.211 521.51 347.811 521.697 347.48C521.889 347.144 522.148 346.869 522.473 346.656C522.804 346.443 523.185 346.28 523.617 346.168C524.054 346.061 524.537 345.968 525.065 345.888C525.598 345.803 526.118 345.731 526.625 345.672C527.137 345.608 527.585 345.547 527.969 345.488L527.553 345.744C527.569 344.891 527.404 344.259 527.057 343.848C526.71 343.437 526.108 343.232 525.249 343.232C524.657 343.232 524.156 343.365 523.745 343.632C523.34 343.899 523.054 344.32 522.889 344.896L521.745 344.56C521.942 343.787 522.34 343.187 522.937 342.76C523.534 342.333 524.31 342.12 525.265 342.12C526.054 342.12 526.724 342.269 527.273 342.568C527.828 342.861 528.22 343.288 528.449 343.848C528.556 344.099 528.625 344.379 528.657 344.688C528.689 344.997 528.705 345.312 528.705 345.632V351H527.657V348.832L527.961 348.96C527.668 349.701 527.212 350.267 526.593 350.656C525.974 351.045 525.233 351.24 524.369 351.24ZM524.505 350.224C525.054 350.224 525.534 350.125 525.945 349.928C526.356 349.731 526.686 349.461 526.937 349.12C527.188 348.773 527.35 348.384 527.425 347.952C527.489 347.675 527.524 347.371 527.529 347.04C527.534 346.704 527.537 346.453 527.537 346.288L527.985 346.52C527.585 346.573 527.15 346.627 526.681 346.68C526.217 346.733 525.758 346.795 525.305 346.864C524.857 346.933 524.452 347.016 524.089 347.112C523.844 347.181 523.606 347.28 523.377 347.408C523.148 347.531 522.958 347.696 522.809 347.904C522.665 348.112 522.593 348.371 522.593 348.68C522.593 348.931 522.654 349.173 522.777 349.408C522.905 349.643 523.108 349.837 523.385 349.992C523.668 350.147 524.041 350.224 524.505 350.224ZM531.107 351V342.36H532.163V344.44L531.955 344.168C532.051 343.912 532.177 343.677 532.331 343.464C532.486 343.245 532.654 343.067 532.835 342.928C533.059 342.731 533.321 342.581 533.619 342.48C533.918 342.373 534.219 342.312 534.523 342.296C534.827 342.275 535.105 342.296 535.355 342.36V343.464C535.041 343.384 534.697 343.365 534.323 343.408C533.95 343.451 533.606 343.6 533.291 343.856C533.003 344.08 532.787 344.349 532.643 344.664C532.499 344.973 532.403 345.304 532.355 345.656C532.307 346.003 532.283 346.347 532.283 346.688V351H531.107Z" fill="#DEDEDE"/>
<path d="M205.316 351V339.48H206.396L210.924 349.168L215.428 339.48H216.524V350.992H215.404V342.104L211.3 351H210.54L206.444 342.104V351H205.316ZM222.697 351.24C221.838 351.24 221.105 351.045 220.497 350.656C219.889 350.267 219.422 349.728 219.097 349.04C218.772 348.352 218.609 347.563 218.609 346.672C218.609 345.765 218.774 344.971 219.105 344.288C219.436 343.605 219.905 343.075 220.513 342.696C221.126 342.312 221.854 342.12 222.697 342.12C223.561 342.12 224.297 342.315 224.905 342.704C225.518 343.088 225.985 343.624 226.305 344.312C226.63 344.995 226.793 345.781 226.793 346.672C226.793 347.579 226.63 348.376 226.305 349.064C225.98 349.747 225.51 350.28 224.897 350.664C224.284 351.048 223.55 351.24 222.697 351.24ZM222.697 350.112C223.657 350.112 224.372 349.795 224.841 349.16C225.31 348.52 225.545 347.691 225.545 346.672C225.545 345.627 225.308 344.795 224.833 344.176C224.364 343.557 223.652 343.248 222.697 343.248C222.052 343.248 221.518 343.395 221.097 343.688C220.681 343.976 220.369 344.379 220.161 344.896C219.958 345.408 219.857 346 219.857 346.672C219.857 347.712 220.097 348.547 220.577 349.176C221.057 349.8 221.764 350.112 222.697 350.112ZM235.118 351V346.592C235.118 346.112 235.072 345.672 234.982 345.272C234.891 344.867 234.744 344.515 234.542 344.216C234.344 343.912 234.086 343.677 233.766 343.512C233.451 343.347 233.067 343.264 232.614 343.264C232.198 343.264 231.83 343.336 231.51 343.48C231.195 343.624 230.928 343.832 230.71 344.104C230.496 344.371 230.334 344.696 230.222 345.08C230.11 345.464 230.054 345.901 230.054 346.392L229.222 346.208C229.222 345.323 229.376 344.579 229.686 343.976C229.995 343.373 230.422 342.917 230.966 342.608C231.51 342.299 232.134 342.144 232.838 342.144C233.355 342.144 233.806 342.224 234.19 342.384C234.579 342.544 234.907 342.76 235.174 343.032C235.446 343.304 235.664 343.616 235.83 343.968C235.995 344.315 236.115 344.685 236.19 345.08C236.264 345.469 236.302 345.859 236.302 346.248V351H235.118ZM228.87 351V342.36H229.934V344.488H230.054V351H228.87ZM243.402 351C242.916 351.101 242.436 351.141 241.962 351.12C241.492 351.099 241.071 350.997 240.698 350.816C240.33 350.635 240.05 350.352 239.858 349.968C239.703 349.648 239.618 349.325 239.602 349C239.591 348.669 239.586 348.293 239.586 347.872V339.96H240.754V347.824C240.754 348.187 240.756 348.491 240.762 348.736C240.772 348.976 240.828 349.189 240.93 349.376C241.122 349.733 241.426 349.947 241.842 350.016C242.263 350.085 242.783 350.069 243.402 349.968V351ZM237.738 343.368V342.36H243.402V343.368H237.738ZM251.664 351V346.592C251.664 346.112 251.619 345.672 251.528 345.272C251.437 344.867 251.291 344.515 251.088 344.216C250.891 343.912 250.632 343.677 250.312 343.512C249.997 343.347 249.613 343.264 249.16 343.264C248.744 343.264 248.376 343.336 248.056 343.48C247.741 343.624 247.475 343.832 247.256 344.104C247.043 344.371 246.88 344.696 246.768 345.08C246.656 345.464 246.6 345.901 246.6 346.392L245.768 346.208C245.768 345.323 245.923 344.579 246.232 343.976C246.541 343.373 246.968 342.917 247.512 342.608C248.056 342.299 248.68 342.144 249.384 342.144C249.901 342.144 250.352 342.224 250.736 342.384C251.125 342.544 251.453 342.76 251.72 343.032C251.992 343.304 252.211 343.616 252.376 343.968C252.541 344.315 252.661 344.685 252.736 345.08C252.811 345.469 252.848 345.859 252.848 346.248V351H251.664ZM245.416 351V339.48H246.48V345.984H246.6V351H245.416Z" fill="#DEDEDE"/>
<path d="M60.1294 321.576V319.752H61.3054V321.576H60.1294ZM60.1294 308.72V306.888H61.3054V308.72H60.1294ZM60.8574 320.24C60.0947 320.24 59.4067 320.104 58.7934 319.832C58.1854 319.56 57.6814 319.176 57.2814 318.68C56.8867 318.184 56.628 317.597 56.5054 316.92L57.6494 316.72C57.8254 317.456 58.204 318.04 58.7854 318.472C59.372 318.899 60.0787 319.112 60.9054 319.112C61.7427 319.112 62.42 318.909 62.9374 318.504C63.4547 318.093 63.7134 317.557 63.7134 316.896C63.7134 316.405 63.5694 316.013 63.2814 315.72C62.9934 315.427 62.5054 315.176 61.8174 314.968L59.2574 314.168C57.7107 313.683 56.9374 312.765 56.9374 311.416C56.9374 310.787 57.092 310.235 57.4014 309.76C57.716 309.28 58.1507 308.907 58.7054 308.64C59.2654 308.373 59.9187 308.243 60.6654 308.248C61.396 308.248 62.0494 308.387 62.6254 308.664C63.2067 308.936 63.684 309.323 64.0574 309.824C64.4307 310.325 64.6787 310.92 64.8014 311.608L63.6254 311.832C63.5507 311.341 63.3774 310.912 63.1054 310.544C62.8387 310.176 62.4947 309.891 62.0734 309.688C61.652 309.48 61.1827 309.373 60.6654 309.368C60.1747 309.368 59.7374 309.453 59.3534 309.624C58.9694 309.795 58.6654 310.032 58.4414 310.336C58.2227 310.635 58.1134 310.979 58.1134 311.368C58.1134 311.795 58.2654 312.157 58.5694 312.456C58.8787 312.749 59.3667 312.997 60.0334 313.2L62.2334 313.864C63.1614 314.141 63.8307 314.515 64.2414 314.984C64.652 315.453 64.8574 316.08 64.8574 316.864C64.8574 317.541 64.692 318.133 64.3614 318.64C64.0307 319.147 63.564 319.541 62.9614 319.824C62.364 320.101 61.6627 320.24 60.8574 320.24ZM74.1144 320.24C73.405 320.24 72.765 320.075 72.1944 319.744C71.629 319.413 71.181 318.965 70.8504 318.4C70.5197 317.829 70.3544 317.189 70.3544 316.48V312C70.3544 311.291 70.5197 310.653 70.8504 310.088C71.181 309.517 71.629 309.067 72.1944 308.736C72.765 308.405 73.405 308.24 74.1144 308.24C74.8237 308.24 75.461 308.405 76.0264 308.736C76.597 309.067 77.0477 309.517 77.3784 310.088C77.709 310.653 77.8744 311.291 77.8744 312V316.48C77.8744 317.189 77.709 317.829 77.3784 318.4C77.0477 318.965 76.597 319.413 76.0264 319.744C75.461 320.075 74.8237 320.24 74.1144 320.24ZM74.1144 319.104C74.589 319.104 75.021 318.989 75.4104 318.76C75.7997 318.525 76.109 318.213 76.3384 317.824C76.5677 317.435 76.6824 317.005 76.6824 316.536V311.944C76.6824 311.469 76.5677 311.037 76.3384 310.648C76.109 310.259 75.7997 309.949 75.4104 309.72C75.021 309.485 74.589 309.368 74.1144 309.368C73.6397 309.368 73.2077 309.485 72.8184 309.72C72.429 309.949 72.1197 310.259 71.8904 310.648C71.661 311.037 71.5464 311.469 71.5464 311.944V316.536C71.5464 317.005 71.661 317.435 71.8904 317.824C72.1197 318.213 72.429 318.525 72.8184 318.76C73.2077 318.989 73.6397 319.104 74.1144 319.104Z" fill="#DEDEDE"/>
<path d="M15.7481 249.576V247.752H16.9241V249.576H15.7481ZM15.7481 236.72V234.888H16.9241V236.72H15.7481ZM16.4761 248.24C15.7135 248.24 15.0255 248.104 14.4121 247.832C13.8041 247.56 13.3001 247.176 12.9001 246.68C12.5055 246.184 12.2468 245.597 12.1241 244.92L13.2681 244.72C13.4441 245.456 13.8228 246.04 14.4041 246.472C14.9908 246.899 15.6975 247.112 16.5241 247.112C17.3615 247.112 18.0388 246.909 18.5561 246.504C19.0735 246.093 19.3321 245.557 19.3321 244.896C19.3321 244.405 19.1881 244.013 18.9001 243.72C18.6121 243.427 18.1241 243.176 17.4361 242.968L14.8761 242.168C13.3295 241.683 12.5561 240.765 12.5561 239.416C12.5561 238.787 12.7108 238.235 13.0201 237.76C13.3348 237.28 13.7695 236.907 14.3241 236.64C14.8841 236.373 15.5375 236.243 16.2841 236.248C17.0148 236.248 17.6681 236.387 18.2441 236.664C18.8255 236.936 19.3028 237.323 19.6761 237.824C20.0495 238.325 20.2975 238.92 20.4201 239.608L19.2441 239.832C19.1695 239.341 18.9961 238.912 18.7241 238.544C18.4575 238.176 18.1135 237.891 17.6921 237.688C17.2708 237.48 16.8015 237.373 16.2841 237.368C15.7935 237.368 15.3561 237.453 14.9721 237.624C14.5881 237.795 14.2841 238.032 14.0601 238.336C13.8415 238.635 13.7321 238.979 13.7321 239.368C13.7321 239.795 13.8841 240.157 14.1881 240.456C14.4975 240.749 14.9855 240.997 15.6521 241.2L17.8521 241.864C18.7801 242.141 19.4495 242.515 19.8601 242.984C20.2708 243.453 20.4761 244.08 20.4761 244.864C20.4761 245.541 20.3108 246.133 19.9801 246.64C19.6495 247.147 19.1828 247.541 18.5801 247.824C17.9828 248.101 17.2815 248.24 16.4761 248.24ZM29.3731 248.24C28.7758 248.24 28.2238 248.117 27.7171 247.872C27.2105 247.627 26.7785 247.288 26.4211 246.856C26.0638 246.424 25.8078 245.928 25.6531 245.368L26.7811 245.064C26.8825 245.48 27.0665 245.84 27.3331 246.144C27.5998 246.443 27.9118 246.675 28.2691 246.84C28.6318 247.005 29.0105 247.088 29.4051 247.088C29.9171 247.088 30.3758 246.965 30.7811 246.72C31.1918 246.469 31.5171 246.139 31.7571 245.728C31.9971 245.317 32.1171 244.867 32.1171 244.376C32.1171 243.869 31.9918 243.413 31.7411 243.008C31.4905 242.597 31.1598 242.272 30.7491 242.032C30.3385 241.792 29.8905 241.672 29.4051 241.672C28.8611 241.672 28.3918 241.792 27.9971 242.032C27.6025 242.267 27.2878 242.563 27.0531 242.92L25.9811 242.472L26.3331 236.48H32.4851V237.608H26.8531L27.4371 237.056L27.1251 242.168L26.8291 241.776C27.1598 241.397 27.5598 241.101 28.0291 240.888C28.4985 240.675 28.9918 240.568 29.5091 240.568C30.2185 240.568 30.8585 240.739 31.4291 241.08C31.9998 241.416 32.4531 241.872 32.7891 242.448C33.1251 243.024 33.2931 243.667 33.2931 244.376C33.2931 245.08 33.1145 245.725 32.7571 246.312C32.3998 246.893 31.9251 247.36 31.3331 247.712C30.7411 248.064 30.0878 248.24 29.3731 248.24ZM39.2875 248.24C38.5782 248.24 37.9382 248.075 37.3675 247.744C36.8022 247.413 36.3542 246.965 36.0235 246.4C35.6928 245.829 35.5275 245.189 35.5275 244.48V240C35.5275 239.291 35.6928 238.653 36.0235 238.088C36.3542 237.517 36.8022 237.067 37.3675 236.736C37.9382 236.405 38.5782 236.24 39.2875 236.24C39.9968 236.24 40.6342 236.405 41.1995 236.736C41.7702 237.067 42.2208 237.517 42.5515 238.088C42.8822 238.653 43.0475 239.291 43.0475 240V244.48C43.0475 245.189 42.8822 245.829 42.5515 246.4C42.2208 246.965 41.7702 247.413 41.1995 247.744C40.6342 248.075 39.9968 248.24 39.2875 248.24ZM39.2875 247.104C39.7622 247.104 40.1942 246.989 40.5835 246.76C40.9728 246.525 41.2822 246.213 41.5115 245.824C41.7408 245.435 41.8555 245.005 41.8555 244.536V239.944C41.8555 239.469 41.7408 239.037 41.5115 238.648C41.2822 238.259 40.9728 237.949 40.5835 237.72C40.1942 237.485 39.7622 237.368 39.2875 237.368C38.8128 237.368 38.3808 237.485 37.9915 237.72C37.6022 237.949 37.2928 238.259 37.0635 238.648C36.8342 239.037 36.7195 239.469 36.7195 239.944V244.536C36.7195 245.005 36.8342 245.435 37.0635 245.824C37.2928 246.213 37.6022 246.525 37.9915 246.76C38.3808 246.989 38.8128 247.104 39.2875 247.104ZM45.4531 249.672L45.5251 249.088C45.7385 249.104 45.8931 249.061 45.9891 248.96C46.0851 248.859 46.1438 248.723 46.1651 248.552C46.1865 248.381 46.1918 248.197 46.1811 248H45.4531V246.312H46.8211V248.32C46.8211 248.811 46.6958 249.179 46.4451 249.424C46.1998 249.669 45.8691 249.752 45.4531 249.672ZM53.9431 248.24C53.2338 248.24 52.5938 248.075 52.0231 247.744C51.4578 247.413 51.0098 246.965 50.6791 246.4C50.3485 245.829 50.1831 245.189 50.1831 244.48V240C50.1831 239.291 50.3485 238.653 50.6791 238.088C51.0098 237.517 51.4578 237.067 52.0231 236.736C52.5938 236.405 53.2338 236.24 53.9431 236.24C54.6525 236.24 55.2898 236.405 55.8551 236.736C56.4258 237.067 56.8765 237.517 57.2071 238.088C57.5378 238.653 57.7031 239.291 57.7031 240V244.48C57.7031 245.189 57.5378 245.829 57.2071 246.4C56.8765 246.965 56.4258 247.413 55.8551 247.744C55.2898 248.075 54.6525 248.24 53.9431 248.24ZM53.9431 247.104C54.4178 247.104 54.8498 246.989 55.2391 246.76C55.6285 246.525 55.9378 246.213 56.1671 245.824C56.3965 245.435 56.5111 245.005 56.5111 244.536V239.944C56.5111 239.469 56.3965 239.037 56.1671 238.648C55.9378 238.259 55.6285 237.949 55.2391 237.72C54.8498 237.485 54.4178 237.368 53.9431 237.368C53.4685 237.368 53.0365 237.485 52.6471 237.72C52.2578 237.949 51.9485 238.259 51.7191 238.648C51.4898 239.037 51.3751 239.469 51.3751 239.944V244.536C51.3751 245.005 51.4898 245.435 51.7191 245.824C51.9485 246.213 52.2578 246.525 52.6471 246.76C53.0365 246.989 53.4685 247.104 53.9431 247.104ZM64.0288 248.24C63.3194 248.24 62.6794 248.075 62.1088 247.744C61.5434 247.413 61.0954 246.965 60.7648 246.4C60.4341 245.829 60.2688 245.189 60.2688 244.48V240C60.2688 239.291 60.4341 238.653 60.7648 238.088C61.0954 237.517 61.5434 237.067 62.1088 236.736C62.6794 236.405 63.3194 236.24 64.0288 236.24C64.7381 236.24 65.3754 236.405 65.9408 236.736C66.5114 237.067 66.9621 237.517 67.2928 238.088C67.6234 238.653 67.7888 239.291 67.7888 240V244.48C67.7888 245.189 67.6234 245.829 67.2928 246.4C66.9621 246.965 66.5114 247.413 65.9408 247.744C65.3754 248.075 64.7381 248.24 64.0288 248.24ZM64.0288 247.104C64.5034 247.104 64.9354 246.989 65.3248 246.76C65.7141 246.525 66.0234 246.213 66.2528 245.824C66.4821 245.435 66.5968 245.005 66.5968 244.536V239.944C66.5968 239.469 66.4821 239.037 66.2528 238.648C66.0234 238.259 65.7141 237.949 65.3248 237.72C64.9354 237.485 64.5034 237.368 64.0288 237.368C63.5541 237.368 63.1221 237.485 62.7328 237.72C62.3434 237.949 62.0341 238.259 61.8048 238.648C61.5754 239.037 61.4608 239.469 61.4608 239.944V244.536C61.4608 245.005 61.5754 245.435 61.8048 245.824C62.0341 246.213 62.3434 246.525 62.7328 246.76C63.1221 246.989 63.5541 247.104 64.0288 247.104ZM74.1144 248.24C73.405 248.24 72.765 248.075 72.1944 247.744C71.629 247.413 71.181 246.965 70.8504 246.4C70.5197 245.829 70.3544 245.189 70.3544 244.48V240C70.3544 239.291 70.5197 238.653 70.8504 238.088C71.181 237.517 71.629 237.067 72.1944 236.736C72.765 236.405 73.405 236.24 74.1144 236.24C74.8237 236.24 75.461 236.405 76.0264 236.736C76.597 237.067 77.0477 237.517 77.3784 238.088C77.709 238.653 77.8744 239.291 77.8744 240V244.48C77.8744 245.189 77.709 245.829 77.3784 246.4C77.0477 246.965 76.597 247.413 76.0264 247.744C75.461 248.075 74.8237 248.24 74.1144 248.24ZM74.1144 247.104C74.589 247.104 75.021 246.989 75.4104 246.76C75.7997 246.525 76.109 246.213 76.3384 245.824C76.5677 245.435 76.6824 245.005 76.6824 244.536V239.944C76.6824 239.469 76.5677 239.037 76.3384 238.648C76.109 238.259 75.7997 237.949 75.4104 237.72C75.021 237.485 74.589 237.368 74.1144 237.368C73.6397 237.368 73.2077 237.485 72.8184 237.72C72.429 237.949 72.1197 238.259 71.8904 238.648C71.661 239.037 71.5464 239.469 71.5464 239.944V244.536C71.5464 245.005 71.661 245.435 71.8904 245.824C72.1197 246.213 72.429 246.525 72.8184 246.76C73.2077 246.989 73.6397 247.104 74.1144 247.104Z" fill="#DEDEDE"/>
<path d="M4.73313 177.576V175.752H5.90913V177.576H4.73313ZM4.73313 164.72V162.888H5.90913V164.72H4.73313ZM5.46113 176.24C4.69846 176.24 4.01046 176.104 3.39713 175.832C2.78913 175.56 2.28513 175.176 1.88513 174.68C1.49046 174.184 1.23179 173.597 1.10913 172.92L2.25313 172.72C2.42913 173.456 2.80779 174.04 3.38913 174.472C3.97579 174.899 4.68246 175.112 5.50913 175.112C6.34646 175.112 7.02379 174.909 7.54113 174.504C8.05846 174.093 8.31713 173.557 8.31713 172.896C8.31713 172.405 8.17313 172.013 7.88513 171.72C7.59713 171.427 7.10913 171.176 6.42113 170.968L3.86113 170.168C2.31446 169.683 1.54113 168.765 1.54113 167.416C1.54113 166.787 1.69579 166.235 2.00513 165.76C2.31979 165.28 2.75446 164.907 3.30913 164.64C3.86913 164.373 4.52246 164.243 5.26913 164.248C5.99979 164.248 6.65313 164.387 7.22913 164.664C7.81046 164.936 8.28779 165.323 8.66113 165.824C9.03446 166.325 9.28246 166.92 9.40513 167.608L8.22913 167.832C8.15446 167.341 7.98113 166.912 7.70913 166.544C7.44246 166.176 7.09846 165.891 6.67713 165.688C6.25579 165.48 5.78646 165.373 5.26913 165.368C4.77846 165.368 4.34113 165.453 3.95713 165.624C3.57313 165.795 3.26913 166.032 3.04513 166.336C2.82646 166.635 2.71713 166.979 2.71713 167.368C2.71713 167.795 2.86913 168.157 3.17313 168.456C3.48246 168.749 3.97046 168.997 4.63713 169.2L6.83713 169.864C7.76513 170.141 8.43446 170.515 8.84513 170.984C9.25579 171.453 9.46113 172.08 9.46113 172.864C9.46113 173.541 9.29579 174.133 8.96513 174.64C8.63446 175.147 8.16779 175.541 7.56513 175.824C6.96779 176.101 6.26646 176.24 5.46113 176.24ZM16.9661 176V165.792L14.7981 167.096V165.776L16.9661 164.48H18.1581V176H16.9661ZM20.7119 177.672L20.7839 177.088C20.9972 177.104 21.1519 177.061 21.2479 176.96C21.3439 176.859 21.4025 176.723 21.4239 176.552C21.4452 176.381 21.4505 176.197 21.4399 176H20.7119V174.312H22.0799V176.32C22.0799 176.811 21.9545 177.179 21.7039 177.424C21.4585 177.669 21.1279 177.752 20.7119 177.672ZM29.2019 176.24C28.4925 176.24 27.8525 176.075 27.2819 175.744C26.7165 175.413 26.2685 174.965 25.9379 174.4C25.6072 173.829 25.4419 173.189 25.4419 172.48V168C25.4419 167.291 25.6072 166.653 25.9379 166.088C26.2685 165.517 26.7165 165.067 27.2819 164.736C27.8525 164.405 28.4925 164.24 29.2019 164.24C29.9112 164.24 30.5485 164.405 31.1139 164.736C31.6845 165.067 32.1352 165.517 32.4659 166.088C32.7965 166.653 32.9619 167.291 32.9619 168V172.48C32.9619 173.189 32.7965 173.829 32.4659 174.4C32.1352 174.965 31.6845 175.413 31.1139 175.744C30.5485 176.075 29.9112 176.24 29.2019 176.24ZM29.2019 175.104C29.6765 175.104 30.1085 174.989 30.4979 174.76C30.8872 174.525 31.1965 174.213 31.4259 173.824C31.6552 173.435 31.7699 173.005 31.7699 172.536V167.944C31.7699 167.469 31.6552 167.037 31.4259 166.648C31.1965 166.259 30.8872 165.949 30.4979 165.72C30.1085 165.485 29.6765 165.368 29.2019 165.368C28.7272 165.368 28.2952 165.485 27.9059 165.72C27.5165 165.949 27.2072 166.259 26.9779 166.648C26.7485 167.037 26.6339 167.469 26.6339 167.944V172.536C26.6339 173.005 26.7485 173.435 26.9779 173.824C27.2072 174.213 27.5165 174.525 27.9059 174.76C28.2952 174.989 28.7272 175.104 29.2019 175.104ZM39.2875 176.24C38.5782 176.24 37.9382 176.075 37.3675 175.744C36.8022 175.413 36.3542 174.965 36.0235 174.4C35.6928 173.829 35.5275 173.189 35.5275 172.48V168C35.5275 167.291 35.6928 166.653 36.0235 166.088C36.3542 165.517 36.8022 165.067 37.3675 164.736C37.9382 164.405 38.5782 164.24 39.2875 164.24C39.9968 164.24 40.6342 164.405 41.1995 164.736C41.7702 165.067 42.2208 165.517 42.5515 166.088C42.8822 166.653 43.0475 167.291 43.0475 168V172.48C43.0475 173.189 42.8822 173.829 42.5515 174.4C42.2208 174.965 41.7702 175.413 41.1995 175.744C40.6342 176.075 39.9968 176.24 39.2875 176.24ZM39.2875 175.104C39.7622 175.104 40.1942 174.989 40.5835 174.76C40.9728 174.525 41.2822 174.213 41.5115 173.824C41.7408 173.435 41.8555 173.005 41.8555 172.536V167.944C41.8555 167.469 41.7408 167.037 41.5115 166.648C41.2822 166.259 40.9728 165.949 40.5835 165.72C40.1942 165.485 39.7622 165.368 39.2875 165.368C38.8128 165.368 38.3808 165.485 37.9915 165.72C37.6022 165.949 37.2928 166.259 37.0635 166.648C36.8342 167.037 36.7195 167.469 36.7195 167.944V172.536C36.7195 173.005 36.8342 173.435 37.0635 173.824C37.2928 174.213 37.6022 174.525 37.9915 174.76C38.3808 174.989 38.8128 175.104 39.2875 175.104ZM45.4531 177.672L45.5251 177.088C45.7385 177.104 45.8931 177.061 45.9891 176.96C46.0851 176.859 46.1438 176.723 46.1651 176.552C46.1865 176.381 46.1918 176.197 46.1811 176H45.4531V174.312H46.8211V176.32C46.8211 176.811 46.6958 177.179 46.4451 177.424C46.1998 177.669 45.8691 177.752 45.4531 177.672ZM53.9431 176.24C53.2338 176.24 52.5938 176.075 52.0231 175.744C51.4578 175.413 51.0098 174.965 50.6791 174.4C50.3485 173.829 50.1831 173.189 50.1831 172.48V168C50.1831 167.291 50.3485 166.653 50.6791 166.088C51.0098 165.517 51.4578 165.067 52.0231 164.736C52.5938 164.405 53.2338 164.24 53.9431 164.24C54.6525 164.24 55.2898 164.405 55.8551 164.736C56.4258 165.067 56.8765 165.517 57.2071 166.088C57.5378 166.653 57.7031 167.291 57.7031 168V172.48C57.7031 173.189 57.5378 173.829 57.2071 174.4C56.8765 174.965 56.4258 175.413 55.8551 175.744C55.2898 176.075 54.6525 176.24 53.9431 176.24ZM53.9431 175.104C54.4178 175.104 54.8498 174.989 55.2391 174.76C55.6285 174.525 55.9378 174.213 56.1671 173.824C56.3965 173.435 56.5111 173.005 56.5111 172.536V167.944C56.5111 167.469 56.3965 167.037 56.1671 166.648C55.9378 166.259 55.6285 165.949 55.2391 165.72C54.8498 165.485 54.4178 165.368 53.9431 165.368C53.4685 165.368 53.0365 165.485 52.6471 165.72C52.2578 165.949 51.9485 166.259 51.7191 166.648C51.4898 167.037 51.3751 167.469 51.3751 167.944V172.536C51.3751 173.005 51.4898 173.435 51.7191 173.824C51.9485 174.213 52.2578 174.525 52.6471 174.76C53.0365 174.989 53.4685 175.104 53.9431 175.104ZM64.0288 176.24C63.3194 176.24 62.6794 176.075 62.1088 175.744C61.5434 175.413 61.0954 174.965 60.7648 174.4C60.4341 173.829 60.2688 173.189 60.2688 172.48V168C60.2688 167.291 60.4341 166.653 60.7648 166.088C61.0954 165.517 61.5434 165.067 62.1088 164.736C62.6794 164.405 63.3194 164.24 64.0288 164.24C64.7381 164.24 65.3754 164.405 65.9408 164.736C66.5114 165.067 66.9621 165.517 67.2928 166.088C67.6234 166.653 67.7888 167.291 67.7888 168V172.48C67.7888 173.189 67.6234 173.829 67.2928 174.4C66.9621 174.965 66.5114 175.413 65.9408 175.744C65.3754 176.075 64.7381 176.24 64.0288 176.24ZM64.0288 175.104C64.5034 175.104 64.9354 174.989 65.3248 174.76C65.7141 174.525 66.0234 174.213 66.2528 173.824C66.4821 173.435 66.5968 173.005 66.5968 172.536V167.944C66.5968 167.469 66.4821 167.037 66.2528 166.648C66.0234 166.259 65.7141 165.949 65.3248 165.72C64.9354 165.485 64.5034 165.368 64.0288 165.368C63.5541 165.368 63.1221 165.485 62.7328 165.72C62.3434 165.949 62.0341 166.259 61.8048 166.648C61.5754 167.037 61.4608 167.469 61.4608 167.944V172.536C61.4608 173.005 61.5754 173.435 61.8048 173.824C62.0341 174.213 62.3434 174.525 62.7328 174.76C63.1221 174.989 63.5541 175.104 64.0288 175.104ZM74.1144 176.24C73.405 176.24 72.765 176.075 72.1944 175.744C71.629 175.413 71.181 174.965 70.8504 174.4C70.5197 173.829 70.3544 173.189 70.3544 172.48V168C70.3544 167.291 70.5197 166.653 70.8504 166.088C71.181 165.517 71.629 165.067 72.1944 164.736C72.765 164.405 73.405 164.24 74.1144 164.24C74.8237 164.24 75.461 164.405 76.0264 164.736C76.597 165.067 77.0477 165.517 77.3784 166.088C77.709 166.653 77.8744 167.291 77.8744 168V172.48C77.8744 173.189 77.709 173.829 77.3784 174.4C77.0477 174.965 76.597 175.413 76.0264 175.744C75.461 176.075 74.8237 176.24 74.1144 176.24ZM74.1144 175.104C74.589 175.104 75.021 174.989 75.4104 174.76C75.7997 174.525 76.109 174.213 76.3384 173.824C76.5677 173.435 76.6824 173.005 76.6824 172.536V167.944C76.6824 167.469 76.5677 167.037 76.3384 166.648C76.109 166.259 75.7997 165.949 75.4104 165.72C75.021 165.485 74.589 165.368 74.1144 165.368C73.6397 165.368 73.2077 165.485 72.8184 165.72C72.429 165.949 72.1197 166.259 71.8904 166.648C71.661 167.037 71.5464 167.469 71.5464 167.944V172.536C71.5464 173.005 71.661 173.435 71.8904 173.824C72.1197 174.213 72.429 174.525 72.8184 174.76C73.2077 174.989 73.6397 175.104 74.1144 175.104Z" fill="#DEDEDE"/>
<path d="M5.26438 105.576V103.752H6.44038V105.576H5.26438ZM5.26438 92.72V90.888H6.44038V92.72H5.26438ZM5.99238 104.24C5.22971 104.24 4.54171 104.104 3.92838 103.832C3.32038 103.56 2.81638 103.176 2.41638 102.68C2.02171 102.184 1.76304 101.597 1.64038 100.92L2.78438 100.72C2.96038 101.456 3.33904 102.04 3.92038 102.472C4.50704 102.899 5.21371 103.112 6.04038 103.112C6.87771 103.112 7.55504 102.909 8.07238 102.504C8.58971 102.093 8.84838 101.557 8.84838 100.896C8.84838 100.405 8.70438 100.013 8.41638 99.72C8.12838 99.4267 7.64038 99.176 6.95238 98.968L4.39238 98.168C2.84571 97.6827 2.07238 96.7653 2.07238 95.416C2.07238 94.7867 2.22704 94.2347 2.53638 93.76C2.85104 93.28 3.28571 92.9067 3.84038 92.64C4.40038 92.3733 5.05371 92.2427 5.80038 92.248C6.53104 92.248 7.18438 92.3867 7.76038 92.664C8.34171 92.936 8.81904 93.3227 9.19238 93.824C9.56571 94.3253 9.81371 94.92 9.93638 95.608L8.76038 95.832C8.68571 95.3413 8.51238 94.912 8.24038 94.544C7.97371 94.176 7.62971 93.8907 7.20838 93.688C6.78704 93.48 6.31771 93.3733 5.80038 93.368C5.30971 93.368 4.87238 93.4533 4.48838 93.624C4.10438 93.7947 3.80038 94.032 3.57638 94.336C3.35771 94.6347 3.24838 94.9787 3.24838 95.368C3.24838 95.7947 3.40038 96.1573 3.70438 96.456C4.01371 96.7493 4.50171 96.9973 5.16838 97.2L7.36838 97.864C8.29638 98.1413 8.96571 98.5147 9.37638 98.984C9.78704 99.4533 9.99238 100.08 9.99238 100.864C9.99238 101.541 9.82704 102.133 9.49638 102.64C9.16571 103.147 8.69904 103.541 8.09638 103.824C7.49904 104.101 6.79771 104.24 5.99238 104.24ZM17.4974 104V93.792L15.3294 95.096V93.776L17.4974 92.48H18.6894V104H17.4974ZM21.2431 105.672L21.3151 105.088C21.5285 105.104 21.6831 105.061 21.7791 104.96C21.8751 104.859 21.9338 104.723 21.9551 104.552C21.9765 104.381 21.9818 104.197 21.9711 104H21.2431V102.312H22.6111V104.32C22.6111 104.811 22.4858 105.179 22.2351 105.424C21.9898 105.669 21.6591 105.752 21.2431 105.672ZM29.3731 104.24C28.7758 104.24 28.2238 104.117 27.7171 103.872C27.2105 103.627 26.7785 103.288 26.4211 102.856C26.0638 102.424 25.8078 101.928 25.6531 101.368L26.7811 101.064C26.8825 101.48 27.0665 101.84 27.3331 102.144C27.5998 102.443 27.9118 102.675 28.2691 102.84C28.6318 103.005 29.0105 103.088 29.4051 103.088C29.9171 103.088 30.3758 102.965 30.7811 102.72C31.1918 102.469 31.5171 102.139 31.7571 101.728C31.9971 101.317 32.1171 100.867 32.1171 100.376C32.1171 99.8693 31.9918 99.4133 31.7411 99.008C31.4905 98.5973 31.1598 98.272 30.7491 98.032C30.3385 97.792 29.8905 97.672 29.4051 97.672C28.8611 97.672 28.3918 97.792 27.9971 98.032C27.6025 98.2667 27.2878 98.5627 27.0531 98.92L25.9811 98.472L26.3331 92.48H32.4851V93.608H26.8531L27.4371 93.056L27.1251 98.168L26.8291 97.776C27.1598 97.3973 27.5598 97.1013 28.0291 96.888C28.4985 96.6747 28.9918 96.568 29.5091 96.568C30.2185 96.568 30.8585 96.7387 31.4291 97.08C31.9998 97.416 32.4531 97.872 32.7891 98.448C33.1251 99.024 33.2931 99.6667 33.2931 100.376C33.2931 101.08 33.1145 101.725 32.7571 102.312C32.3998 102.893 31.9251 103.36 31.3331 103.712C30.7411 104.064 30.0878 104.24 29.3731 104.24ZM39.2875 104.24C38.5782 104.24 37.9382 104.075 37.3675 103.744C36.8022 103.413 36.3542 102.965 36.0235 102.4C35.6928 101.829 35.5275 101.189 35.5275 100.48V96C35.5275 95.2907 35.6928 94.6533 36.0235 94.088C36.3542 93.5173 36.8022 93.0667 37.3675 92.736C37.9382 92.4053 38.5782 92.24 39.2875 92.24C39.9968 92.24 40.6342 92.4053 41.1995 92.736C41.7702 93.0667 42.2208 93.5173 42.5515 94.088C42.8822 94.6533 43.0475 95.2907 43.0475 96V100.48C43.0475 101.189 42.8822 101.829 42.5515 102.4C42.2208 102.965 41.7702 103.413 41.1995 103.744C40.6342 104.075 39.9968 104.24 39.2875 104.24ZM39.2875 103.104C39.7622 103.104 40.1942 102.989 40.5835 102.76C40.9728 102.525 41.2822 102.213 41.5115 101.824C41.7408 101.435 41.8555 101.005 41.8555 100.536V95.944C41.8555 95.4693 41.7408 95.0373 41.5115 94.648C41.2822 94.2587 40.9728 93.9493 40.5835 93.72C40.1942 93.4853 39.7622 93.368 39.2875 93.368C38.8128 93.368 38.3808 93.4853 37.9915 93.72C37.6022 93.9493 37.2928 94.2587 37.0635 94.648C36.8342 95.0373 36.7195 95.4693 36.7195 95.944V100.536C36.7195 101.005 36.8342 101.435 37.0635 101.824C37.2928 102.213 37.6022 102.525 37.9915 102.76C38.3808 102.989 38.8128 103.104 39.2875 103.104ZM45.4531 105.672L45.5251 105.088C45.7385 105.104 45.8931 105.061 45.9891 104.96C46.0851 104.859 46.1438 104.723 46.1651 104.552C46.1865 104.381 46.1918 104.197 46.1811 104H45.4531V102.312H46.8211V104.32C46.8211 104.811 46.6958 105.179 46.4451 105.424C46.1998 105.669 45.8691 105.752 45.4531 105.672ZM53.9431 104.24C53.2338 104.24 52.5938 104.075 52.0231 103.744C51.4578 103.413 51.0098 102.965 50.6791 102.4C50.3485 101.829 50.1831 101.189 50.1831 100.48V96C50.1831 95.2907 50.3485 94.6533 50.6791 94.088C51.0098 93.5173 51.4578 93.0667 52.0231 92.736C52.5938 92.4053 53.2338 92.24 53.9431 92.24C54.6525 92.24 55.2898 92.4053 55.8551 92.736C56.4258 93.0667 56.8765 93.5173 57.2071 94.088C57.5378 94.6533 57.7031 95.2907 57.7031 96V100.48C57.7031 101.189 57.5378 101.829 57.2071 102.4C56.8765 102.965 56.4258 103.413 55.8551 103.744C55.2898 104.075 54.6525 104.24 53.9431 104.24ZM53.9431 103.104C54.4178 103.104 54.8498 102.989 55.2391 102.76C55.6285 102.525 55.9378 102.213 56.1671 101.824C56.3965 101.435 56.5111 101.005 56.5111 100.536V95.944C56.5111 95.4693 56.3965 95.0373 56.1671 94.648C55.9378 94.2587 55.6285 93.9493 55.2391 93.72C54.8498 93.4853 54.4178 93.368 53.9431 93.368C53.4685 93.368 53.0365 93.4853 52.6471 93.72C52.2578 93.9493 51.9485 94.2587 51.7191 94.648C51.4898 95.0373 51.3751 95.4693 51.3751 95.944V100.536C51.3751 101.005 51.4898 101.435 51.7191 101.824C51.9485 102.213 52.2578 102.525 52.6471 102.76C53.0365 102.989 53.4685 103.104 53.9431 103.104ZM64.0288 104.24C63.3194 104.24 62.6794 104.075 62.1088 103.744C61.5434 103.413 61.0954 102.965 60.7648 102.4C60.4341 101.829 60.2688 101.189 60.2688 100.48V96C60.2688 95.2907 60.4341 94.6533 60.7648 94.088C61.0954 93.5173 61.5434 93.0667 62.1088 92.736C62.6794 92.4053 63.3194 92.24 64.0288 92.24C64.7381 92.24 65.3754 92.4053 65.9408 92.736C66.5114 93.0667 66.9621 93.5173 67.2928 94.088C67.6234 94.6533 67.7888 95.2907 67.7888 96V100.48C67.7888 101.189 67.6234 101.829 67.2928 102.4C66.9621 102.965 66.5114 103.413 65.9408 103.744C65.3754 104.075 64.7381 104.24 64.0288 104.24ZM64.0288 103.104C64.5034 103.104 64.9354 102.989 65.3248 102.76C65.7141 102.525 66.0234 102.213 66.2528 101.824C66.4821 101.435 66.5968 101.005 66.5968 100.536V95.944C66.5968 95.4693 66.4821 95.0373 66.2528 94.648C66.0234 94.2587 65.7141 93.9493 65.3248 93.72C64.9354 93.4853 64.5034 93.368 64.0288 93.368C63.5541 93.368 63.1221 93.4853 62.7328 93.72C62.3434 93.9493 62.0341 94.2587 61.8048 94.648C61.5754 95.0373 61.4608 95.4693 61.4608 95.944V100.536C61.4608 101.005 61.5754 101.435 61.8048 101.824C62.0341 102.213 62.3434 102.525 62.7328 102.76C63.1221 102.989 63.5541 103.104 64.0288 103.104ZM74.1144 104.24C73.405 104.24 72.765 104.075 72.1944 103.744C71.629 103.413 71.181 102.965 70.8504 102.4C70.5197 101.829 70.3544 101.189 70.3544 100.48V96C70.3544 95.2907 70.5197 94.6533 70.8504 94.088C71.181 93.5173 71.629 93.0667 72.1944 92.736C72.765 92.4053 73.405 92.24 74.1144 92.24C74.8237 92.24 75.461 92.4053 76.0264 92.736C76.597 93.0667 77.0477 93.5173 77.3784 94.088C77.709 94.6533 77.8744 95.2907 77.8744 96V100.48C77.8744 101.189 77.709 101.829 77.3784 102.4C77.0477 102.965 76.597 103.413 76.0264 103.744C75.461 104.075 74.8237 104.24 74.1144 104.24ZM74.1144 103.104C74.589 103.104 75.021 102.989 75.4104 102.76C75.7997 102.525 76.109 102.213 76.3384 101.824C76.5677 101.435 76.6824 101.005 76.6824 100.536V95.944C76.6824 95.4693 76.5677 95.0373 76.3384 94.648C76.109 94.2587 75.7997 93.9493 75.4104 93.72C75.021 93.4853 74.589 93.368 74.1144 93.368C73.6397 93.368 73.2077 93.4853 72.8184 93.72C72.429 93.9493 72.1197 94.2587 71.8904 94.648C71.661 95.0373 71.5464 95.4693 71.5464 95.944V100.536C71.5464 101.005 71.661 101.435 71.8904 101.824C72.1197 102.213 72.429 102.525 72.8184 102.76C73.2077 102.989 73.6397 103.104 74.1144 103.104Z" fill="#DEDEDE"/>
<path d="M209 310C209 308.895 209.895 308 211 308H246C247.105 308 248 308.895 248 310V319H209V310Z" fill="#FFA900"/>
<path d="M495 251C495 249.895 495.895 249 497 249H532C533.105 249 534 249.895 534 251V319H495V251Z" fill="#FFA900"/>
<path d="M248 304C248 302.895 248.895 302 250 302H285C286.105 302 287 302.895 287 304V319H248V304Z" fill="#00CAFF"/>
<path d="M534 210C534 208.895 534.895 208 536 208H571C572.105 208 573 208.895 573 210V319H534V210Z" fill="#00CAFF"/>
<path d="M287 285C287 283.895 287.895 283 289 283H324C325.105 283 326 283.895 326 285V319H287V285Z" fill="#5920AD"/>
<path d="M573 94C573 92.8954 573.895 92 575 92H610C611.105 92 612 92.8954 612 94V319H573V94Z" fill="#5920AD"/>
<path d="M131 319C131 318.448 131.448 318 132 318H169C169.552 318 170 318.448 170 319H131Z" fill="#00FF99"/>
<path d="M417 315C417 313.895 417.895 313 419 313H454C455.105 313 456 313.895 456 315V319H417V315Z" fill="#00FF99"/>
<path d="M170 316C170 314.895 170.895 314 172 314H207C208.105 314 209 314.895 209 316V319H170V316Z" fill="#F25733"/>
<path d="M456 284C456 282.895 456.895 282 458 282H493C494.105 282 495 282.895 495 284V319H456V284Z" fill="#F25733"/>
<rect x="134" width="12" height="12" fill="#00FF99"/>
<path d="M151.12 11V0.92H152.366V11H151.12ZM159.569 11V7.213C159.569 6.85367 159.537 6.50833 159.471 6.177C159.411 5.84567 159.301 5.54933 159.142 5.288C158.988 5.022 158.778 4.812 158.512 4.658C158.251 4.504 157.92 4.427 157.518 4.427C157.206 4.427 156.921 4.48067 156.664 4.588C156.412 4.69067 156.195 4.84933 156.013 5.064C155.831 5.27867 155.689 5.54933 155.586 5.876C155.488 6.198 155.439 6.57833 155.439 7.017L154.62 6.765C154.62 6.03233 154.751 5.40467 155.012 4.882C155.278 4.35467 155.649 3.951 156.125 3.671C156.606 3.38633 157.171 3.244 157.819 3.244C158.309 3.244 158.727 3.321 159.072 3.475C159.418 3.629 159.705 3.83433 159.933 4.091C160.162 4.343 160.342 4.62767 160.472 4.945C160.603 5.25767 160.694 5.57733 160.745 5.904C160.801 6.226 160.829 6.53167 160.829 6.821V11H159.569ZM154.179 11V3.44H155.299V5.463H155.439V11H154.179ZM165.486 11.21C164.721 11.21 164.07 11.0397 163.533 10.699C163.001 10.3537 162.595 9.88 162.315 9.278C162.035 8.676 161.89 7.99 161.881 7.22C161.89 6.43133 162.037 5.73833 162.322 5.141C162.611 4.539 163.024 4.07 163.561 3.734C164.098 3.398 164.744 3.23 165.5 3.23C166.298 3.23 166.984 3.426 167.558 3.818C168.137 4.21 168.524 4.74667 168.72 5.428L167.488 5.799C167.329 5.36033 167.07 5.01967 166.711 4.777C166.356 4.53433 165.948 4.413 165.486 4.413C164.968 4.413 164.541 4.53433 164.205 4.777C163.869 5.015 163.619 5.34633 163.456 5.771C163.293 6.191 163.209 6.674 163.204 7.22C163.213 8.06 163.407 8.739 163.785 9.257C164.168 9.77033 164.735 10.027 165.486 10.027C165.981 10.027 166.391 9.915 166.718 9.691C167.045 9.46233 167.292 9.13333 167.46 8.704L168.72 9.033C168.459 9.73767 168.05 10.2767 167.495 10.65C166.94 11.0233 166.27 11.21 165.486 11.21ZM172.939 11.21C172.197 11.21 171.549 11.0467 170.993 10.72C170.443 10.3887 170.013 9.929 169.705 9.341C169.397 8.74833 169.243 8.05767 169.243 7.269C169.243 6.443 169.395 5.729 169.698 5.127C170.002 4.52033 170.424 4.05367 170.965 3.727C171.511 3.39567 172.151 3.23 172.883 3.23C173.644 3.23 174.29 3.405 174.822 3.755C175.359 4.105 175.76 4.60433 176.026 5.253C176.297 5.90167 176.414 6.674 176.376 7.57H175.116V7.122C175.102 6.19333 174.913 5.50033 174.549 5.043C174.185 4.581 173.644 4.35 172.925 4.35C172.155 4.35 171.57 4.59733 171.168 5.092C170.767 5.58667 170.566 6.296 170.566 7.22C170.566 8.11133 170.767 8.802 171.168 9.292C171.57 9.782 172.141 10.027 172.883 10.027C173.383 10.027 173.817 9.91267 174.185 9.684C174.554 9.45533 174.843 9.12633 175.053 8.697L176.25 9.11C175.956 9.77733 175.513 10.2953 174.92 10.664C174.332 11.028 173.672 11.21 172.939 11.21ZM170.146 7.57V6.569H175.732V7.57H170.146ZM177.655 11V3.44H178.768V5.267L178.586 5.029C178.675 4.79567 178.789 4.581 178.929 4.385C179.074 4.189 179.235 4.028 179.412 3.902C179.608 3.74333 179.83 3.622 180.077 3.538C180.324 3.454 180.576 3.405 180.833 3.391C181.09 3.37233 181.33 3.38867 181.554 3.44V4.609C181.293 4.539 181.006 4.52033 180.693 4.553C180.38 4.58567 180.091 4.7 179.825 4.896C179.582 5.06867 179.393 5.27867 179.258 5.526C179.127 5.77333 179.036 6.04167 178.985 6.331C178.934 6.61567 178.908 6.90733 178.908 7.206V11H177.655ZM186.819 11C186.371 11.0887 185.927 11.1237 185.489 11.105C185.055 11.091 184.667 11.0047 184.327 10.846C183.986 10.6827 183.727 10.4307 183.55 10.09C183.4 9.79133 183.319 9.49033 183.305 9.187C183.295 8.879 183.291 8.53133 183.291 8.144V1.34H184.537V8.088C184.537 8.396 184.539 8.65967 184.544 8.879C184.553 9.09833 184.602 9.28733 184.691 9.446C184.859 9.74467 185.125 9.91967 185.489 9.971C185.857 10.0223 186.301 10.0083 186.819 9.929V11ZM181.758 4.469V3.44H186.819V4.469H181.758ZM190.979 11.21C190.228 11.21 189.579 11.0397 189.033 10.699C188.492 10.3583 188.074 9.887 187.78 9.285C187.486 8.683 187.339 7.99233 187.339 7.213C187.339 6.41967 187.488 5.72433 187.787 5.127C188.086 4.52967 188.508 4.06533 189.054 3.734C189.6 3.398 190.242 3.23 190.979 3.23C191.735 3.23 192.386 3.40033 192.932 3.741C193.478 4.077 193.896 4.546 194.185 5.148C194.479 5.74533 194.626 6.43367 194.626 7.213C194.626 8.00167 194.479 8.697 194.185 9.299C193.891 9.89633 193.471 10.3653 192.925 10.706C192.379 11.042 191.73 11.21 190.979 11.21ZM190.979 10.027C191.763 10.027 192.346 9.76567 192.729 9.243C193.112 8.72033 193.303 8.04367 193.303 7.213C193.303 6.359 193.109 5.68 192.722 5.176C192.335 4.66733 191.754 4.413 190.979 4.413C190.452 4.413 190.018 4.532 189.677 4.77C189.336 5.008 189.082 5.337 188.914 5.757C188.746 6.177 188.662 6.66233 188.662 7.213C188.662 8.06233 188.858 8.74367 189.25 9.257C189.642 9.77033 190.218 10.027 190.979 10.027Z" fill="#EDEDED"/>
<rect x="236" width="12" height="12" fill="#F25733"/>
<path d="M257.291 11.21C256.577 11.21 255.933 11.0887 255.359 10.846C254.79 10.6033 254.318 10.258 253.945 9.81C253.576 9.35733 253.336 8.823 253.224 8.207L254.512 8.004C254.675 8.63867 255.014 9.13567 255.527 9.495C256.045 9.84967 256.654 10.027 257.354 10.027C257.807 10.027 258.215 9.957 258.579 9.817C258.948 9.67233 259.239 9.467 259.454 9.201C259.669 8.935 259.776 8.62 259.776 8.256C259.776 8.032 259.736 7.84067 259.657 7.682C259.582 7.51867 259.477 7.381 259.342 7.269C259.211 7.15233 259.062 7.05433 258.894 6.975C258.726 6.89567 258.551 6.83033 258.369 6.779L255.8 6.016C255.52 5.932 255.249 5.827 254.988 5.701C254.727 5.57033 254.493 5.40933 254.288 5.218C254.083 5.022 253.919 4.78867 253.798 4.518C253.677 4.24267 253.616 3.91833 253.616 3.545C253.616 2.94767 253.77 2.439 254.078 2.019C254.391 1.59433 254.813 1.27 255.345 1.046C255.877 0.822 256.477 0.712333 257.144 0.716999C257.821 0.721666 258.425 0.843 258.957 1.081C259.494 1.31433 259.937 1.65033 260.287 2.089C260.642 2.52767 260.88 3.05267 261.001 3.664L259.678 3.895C259.608 3.48433 259.452 3.132 259.209 2.838C258.971 2.53933 258.672 2.31067 258.313 2.152C257.954 1.98867 257.559 1.90467 257.13 1.9C256.719 1.89533 256.348 1.96067 256.017 2.096C255.686 2.23133 255.422 2.42033 255.226 2.663C255.03 2.901 254.932 3.17633 254.932 3.489C254.932 3.797 255.021 4.04667 255.198 4.238C255.375 4.42467 255.592 4.574 255.849 4.686C256.11 4.79333 256.365 4.882 256.612 4.952L258.53 5.505C258.749 5.56567 259.001 5.64967 259.286 5.757C259.575 5.86433 259.855 6.016 260.126 6.212C260.397 6.40333 260.621 6.66 260.798 6.982C260.975 7.29933 261.064 7.70067 261.064 8.186C261.064 8.67133 260.966 9.103 260.77 9.481C260.579 9.859 260.31 10.1763 259.965 10.433C259.62 10.685 259.218 10.8763 258.761 11.007C258.304 11.1423 257.814 11.21 257.291 11.21ZM262.392 2.103V0.815H263.638V2.103H262.392ZM262.392 11V3.44H263.638V11H262.392ZM268.518 14.57C268.121 14.57 267.734 14.5093 267.356 14.388C266.978 14.2667 266.63 14.0823 266.313 13.835C266 13.5923 265.739 13.2843 265.529 12.911L266.67 12.309C266.856 12.6777 267.12 12.946 267.461 13.114C267.806 13.282 268.161 13.366 268.525 13.366C269.005 13.366 269.404 13.2773 269.722 13.1C270.039 12.9273 270.272 12.6683 270.422 12.323C270.576 11.9777 270.65 11.5483 270.646 11.035V8.97H270.793V3.44H271.899V11.049C271.899 11.2543 271.892 11.4527 271.878 11.644C271.868 11.8353 271.845 12.0243 271.808 12.211C271.71 12.7477 271.516 13.1887 271.227 13.534C270.937 13.884 270.564 14.143 270.107 14.311C269.649 14.4837 269.12 14.57 268.518 14.57ZM268.427 11.21C267.722 11.21 267.118 11.035 266.614 10.685C266.11 10.3303 265.72 9.852 265.445 9.25C265.174 8.648 265.039 7.969 265.039 7.213C265.039 6.457 265.174 5.778 265.445 5.176C265.72 4.574 266.11 4.10033 266.614 3.755C267.118 3.405 267.72 3.23 268.42 3.23C269.134 3.23 269.733 3.40267 270.219 3.748C270.704 4.09333 271.07 4.567 271.318 5.169C271.57 5.771 271.696 6.45233 271.696 7.213C271.696 7.96433 271.57 8.64333 271.318 9.25C271.07 9.852 270.704 10.3303 270.219 10.685C269.733 11.035 269.136 11.21 268.427 11.21ZM268.581 10.069C269.089 10.069 269.507 9.94767 269.834 9.705C270.16 9.45767 270.401 9.11933 270.555 8.69C270.713 8.256 270.793 7.76367 270.793 7.213C270.793 6.653 270.713 6.16067 270.555 5.736C270.401 5.30667 270.163 4.973 269.841 4.735C269.519 4.49233 269.11 4.371 268.616 4.371C268.102 4.371 267.678 4.497 267.342 4.749C267.01 5.001 266.763 5.34167 266.6 5.771C266.441 6.20033 266.362 6.681 266.362 7.213C266.362 7.74967 266.443 8.235 266.607 8.669C266.77 9.09833 267.015 9.439 267.342 9.691C267.673 9.943 268.086 10.069 268.581 10.069ZM278.956 11V7.213C278.956 6.85367 278.924 6.50833 278.858 6.177C278.798 5.84567 278.688 5.54933 278.529 5.288C278.375 5.022 278.165 4.812 277.899 4.658C277.638 4.504 277.307 4.427 276.905 4.427C276.593 4.427 276.308 4.48067 276.051 4.588C275.799 4.69067 275.582 4.84933 275.4 5.064C275.218 5.27867 275.076 5.54933 274.973 5.876C274.875 6.198 274.826 6.57833 274.826 7.017L274.007 6.765C274.007 6.03233 274.138 5.40467 274.399 4.882C274.665 4.35467 275.036 3.951 275.512 3.671C275.993 3.38633 276.558 3.244 277.206 3.244C277.696 3.244 278.114 3.321 278.459 3.475C278.805 3.629 279.092 3.83433 279.32 4.091C279.549 4.343 279.729 4.62767 279.859 4.945C279.99 5.25767 280.081 5.57733 280.132 5.904C280.188 6.226 280.216 6.53167 280.216 6.821V11H278.956ZM273.566 11V3.44H274.686V5.463H274.826V11H273.566ZM284.908 11.21C284.156 11.21 283.508 11.0397 282.962 10.699C282.42 10.3583 282.003 9.887 281.709 9.285C281.415 8.683 281.268 7.99233 281.268 7.213C281.268 6.41967 281.417 5.72433 281.716 5.127C282.014 4.52967 282.437 4.06533 282.983 3.734C283.529 3.398 284.17 3.23 284.908 3.23C285.664 3.23 286.315 3.40033 286.861 3.741C287.407 4.077 287.824 4.546 288.114 5.148C288.408 5.74533 288.555 6.43367 288.555 7.213C288.555 8.00167 288.408 8.697 288.114 9.299C287.82 9.89633 287.4 10.3653 286.854 10.706C286.308 11.042 285.659 11.21 284.908 11.21ZM284.908 10.027C285.692 10.027 286.275 9.76567 286.658 9.243C287.04 8.72033 287.232 8.04367 287.232 7.213C287.232 6.359 287.038 5.68 286.651 5.176C286.263 4.66733 285.682 4.413 284.908 4.413C284.38 4.413 283.946 4.532 283.606 4.77C283.265 5.008 283.011 5.337 282.843 5.757C282.675 6.177 282.591 6.66233 282.591 7.213C282.591 8.06233 282.787 8.74367 283.179 9.257C283.571 9.77033 284.147 10.027 284.908 10.027ZM288.843 11V10.776L293.428 4.574H289.221V3.44H295.437V3.678L290.859 9.866H295.199V11H288.843Z" fill="#EDEDED"/>
<rect x="336" width="12" height="12" fill="#FFA900"/>
<path d="M357.815 11.21C357.125 11.21 356.495 11.0887 355.925 10.846C355.356 10.6033 354.866 10.2557 354.455 9.803C354.045 9.34567 353.727 8.795 353.503 8.151C353.284 7.50233 353.174 6.772 353.174 5.96C353.174 4.88667 353.366 3.958 353.748 3.174C354.131 2.39 354.67 1.78567 355.365 1.361C356.061 0.931666 356.877 0.716999 357.815 0.716999C358.945 0.716999 359.855 0.980666 360.545 1.508C361.236 2.03067 361.712 2.747 361.973 3.657L360.713 3.916C360.503 3.30467 360.158 2.817 359.677 2.453C359.197 2.089 358.597 1.907 357.878 1.907C357.127 1.90233 356.502 2.07033 356.002 2.411C355.508 2.747 355.134 3.22067 354.882 3.832C354.63 4.44333 354.502 5.15267 354.497 5.96C354.493 6.76267 354.616 7.46733 354.868 8.074C355.12 8.68067 355.496 9.15667 355.995 9.502C356.499 9.84267 357.127 10.0153 357.878 10.02C358.527 10.0247 359.073 9.901 359.516 9.649C359.96 9.397 360.303 9.033 360.545 8.557C360.788 8.081 360.935 7.50933 360.986 6.842H358.844V5.813H362.302C362.316 5.90633 362.323 6.01833 362.323 6.149C362.328 6.275 362.33 6.36133 362.33 6.408C362.33 7.32733 362.158 8.151 361.812 8.879C361.472 9.60233 360.965 10.1717 360.293 10.587C359.626 11.0023 358.8 11.21 357.815 11.21ZM363.448 11V3.44H364.561V5.267L364.379 5.029C364.468 4.79567 364.582 4.581 364.722 4.385C364.867 4.189 365.028 4.028 365.205 3.902C365.401 3.74333 365.623 3.622 365.87 3.538C366.118 3.454 366.37 3.405 366.626 3.391C366.883 3.37233 367.123 3.38867 367.347 3.44V4.609C367.086 4.539 366.799 4.52033 366.486 4.553C366.174 4.58567 365.884 4.7 365.618 4.896C365.376 5.06867 365.187 5.27867 365.051 5.526C364.921 5.77333 364.83 6.04167 364.778 6.331C364.727 6.61567 364.701 6.90733 364.701 7.206V11H363.448ZM370.294 11.21C369.729 11.21 369.256 11.1073 368.873 10.902C368.495 10.692 368.208 10.4167 368.012 10.076C367.821 9.73533 367.725 9.362 367.725 8.956C367.725 8.55933 367.8 8.21633 367.949 7.927C368.103 7.633 368.318 7.39033 368.593 7.199C368.868 7.003 369.197 6.849 369.58 6.737C369.939 6.639 370.341 6.555 370.784 6.485C371.232 6.41033 371.685 6.34267 372.142 6.282C372.599 6.22133 373.026 6.163 373.423 6.107L372.975 6.366C372.989 5.694 372.854 5.197 372.569 4.875C372.289 4.553 371.804 4.392 371.113 4.392C370.656 4.392 370.254 4.497 369.909 4.707C369.568 4.91233 369.328 5.24833 369.188 5.715L368.005 5.358C368.187 4.69533 368.539 4.175 369.062 3.797C369.585 3.419 370.273 3.23 371.127 3.23C371.813 3.23 372.401 3.35367 372.891 3.601C373.386 3.84367 373.74 4.21233 373.955 4.707C374.062 4.94033 374.13 5.19467 374.158 5.47C374.186 5.74067 374.2 6.02533 374.2 6.324V11H373.094V9.187L373.353 9.355C373.068 9.96633 372.669 10.4283 372.156 10.741C371.647 11.0537 371.027 11.21 370.294 11.21ZM370.483 10.167C370.931 10.167 371.318 10.0877 371.645 9.929C371.976 9.76567 372.242 9.55333 372.443 9.292C372.644 9.026 372.774 8.73667 372.835 8.424C372.905 8.19067 372.942 7.93167 372.947 7.647C372.956 7.35767 372.961 7.136 372.961 6.982L373.395 7.171C372.989 7.227 372.59 7.28067 372.198 7.332C371.806 7.38333 371.435 7.43933 371.085 7.5C370.735 7.556 370.42 7.62367 370.14 7.703C369.935 7.76833 369.741 7.85233 369.559 7.955C369.382 8.05767 369.237 8.19067 369.125 8.354C369.018 8.51267 368.964 8.711 368.964 8.949C368.964 9.15433 369.015 9.35033 369.118 9.537C369.225 9.72367 369.389 9.87533 369.608 9.992C369.832 10.1087 370.124 10.167 370.483 10.167ZM376.461 11V3.027C376.461 2.831 376.47 2.63267 376.489 2.432C376.508 2.22667 376.55 2.02833 376.615 1.837C376.68 1.641 376.788 1.46133 376.937 1.298C377.11 1.10667 377.299 0.971333 377.504 0.891999C377.709 0.808 377.917 0.756666 378.127 0.737999C378.342 0.719333 378.545 0.71 378.736 0.71H379.695V1.746H378.806C378.437 1.746 378.162 1.837 377.98 2.019C377.798 2.19633 377.707 2.467 377.707 2.831V11H376.461ZM375.18 4.469V3.44H379.695V4.469H375.18ZM382.476 11.21C381.911 11.21 381.438 11.1073 381.055 10.902C380.677 10.692 380.39 10.4167 380.194 10.076C380.003 9.73533 379.907 9.362 379.907 8.956C379.907 8.55933 379.982 8.21633 380.131 7.927C380.285 7.633 380.5 7.39033 380.775 7.199C381.05 7.003 381.379 6.849 381.762 6.737C382.121 6.639 382.523 6.555 382.966 6.485C383.414 6.41033 383.867 6.34267 384.324 6.282C384.781 6.22133 385.208 6.163 385.605 6.107L385.157 6.366C385.171 5.694 385.036 5.197 384.751 4.875C384.471 4.553 383.986 4.392 383.295 4.392C382.838 4.392 382.436 4.497 382.091 4.707C381.75 4.91233 381.51 5.24833 381.37 5.715L380.187 5.358C380.369 4.69533 380.721 4.175 381.244 3.797C381.767 3.419 382.455 3.23 383.309 3.23C383.995 3.23 384.583 3.35367 385.073 3.601C385.568 3.84367 385.922 4.21233 386.137 4.707C386.244 4.94033 386.312 5.19467 386.34 5.47C386.368 5.74067 386.382 6.02533 386.382 6.324V11H385.276V9.187L385.535 9.355C385.25 9.96633 384.851 10.4283 384.338 10.741C383.829 11.0537 383.209 11.21 382.476 11.21ZM382.665 10.167C383.113 10.167 383.5 10.0877 383.827 9.929C384.158 9.76567 384.424 9.55333 384.625 9.292C384.826 9.026 384.956 8.73667 385.017 8.424C385.087 8.19067 385.124 7.93167 385.129 7.647C385.138 7.35767 385.143 7.136 385.143 6.982L385.577 7.171C385.171 7.227 384.772 7.28067 384.38 7.332C383.988 7.38333 383.617 7.43933 383.267 7.5C382.917 7.556 382.602 7.62367 382.322 7.703C382.117 7.76833 381.923 7.85233 381.741 7.955C381.564 8.05767 381.419 8.19067 381.307 8.354C381.2 8.51267 381.146 8.711 381.146 8.949C381.146 9.15433 381.197 9.35033 381.3 9.537C381.407 9.72367 381.571 9.87533 381.79 9.992C382.014 10.1087 382.306 10.167 382.665 10.167ZM393.305 11V7.213C393.305 6.85367 393.272 6.50833 393.207 6.177C393.146 5.84567 393.037 5.54933 392.878 5.288C392.724 5.022 392.514 4.812 392.248 4.658C391.987 4.504 391.655 4.427 391.254 4.427C390.941 4.427 390.657 4.48067 390.4 4.588C390.148 4.69067 389.931 4.84933 389.749 5.064C389.567 5.27867 389.425 5.54933 389.322 5.876C389.224 6.198 389.175 6.57833 389.175 7.017L388.356 6.765C388.356 6.03233 388.487 5.40467 388.748 4.882C389.014 4.35467 389.385 3.951 389.861 3.671C390.342 3.38633 390.906 3.244 391.555 3.244C392.045 3.244 392.463 3.321 392.808 3.475C393.153 3.629 393.44 3.83433 393.669 4.091C393.898 4.343 394.077 4.62767 394.208 4.945C394.339 5.25767 394.43 5.57733 394.481 5.904C394.537 6.226 394.565 6.53167 394.565 6.821V11H393.305ZM387.915 11V3.44H389.035V5.463H389.175V11H387.915ZM398.254 11.21C397.689 11.21 397.216 11.1073 396.833 10.902C396.455 10.692 396.168 10.4167 395.972 10.076C395.781 9.73533 395.685 9.362 395.685 8.956C395.685 8.55933 395.76 8.21633 395.909 7.927C396.063 7.633 396.278 7.39033 396.553 7.199C396.828 7.003 397.157 6.849 397.54 6.737C397.899 6.639 398.301 6.555 398.744 6.485C399.192 6.41033 399.645 6.34267 400.102 6.282C400.559 6.22133 400.986 6.163 401.383 6.107L400.935 6.366C400.949 5.694 400.814 5.197 400.529 4.875C400.249 4.553 399.764 4.392 399.073 4.392C398.616 4.392 398.214 4.497 397.869 4.707C397.528 4.91233 397.288 5.24833 397.148 5.715L395.965 5.358C396.147 4.69533 396.499 4.175 397.022 3.797C397.545 3.419 398.233 3.23 399.087 3.23C399.773 3.23 400.361 3.35367 400.851 3.601C401.346 3.84367 401.7 4.21233 401.915 4.707C402.022 4.94033 402.09 5.19467 402.118 5.47C402.146 5.74067 402.16 6.02533 402.16 6.324V11H401.054V9.187L401.313 9.355C401.028 9.96633 400.629 10.4283 400.116 10.741C399.607 11.0537 398.987 11.21 398.254 11.21ZM398.443 10.167C398.891 10.167 399.278 10.0877 399.605 9.929C399.936 9.76567 400.202 9.55333 400.403 9.292C400.604 9.026 400.734 8.73667 400.795 8.424C400.865 8.19067 400.902 7.93167 400.907 7.647C400.916 7.35767 400.921 7.136 400.921 6.982L401.355 7.171C400.949 7.227 400.55 7.28067 400.158 7.332C399.766 7.38333 399.395 7.43933 399.045 7.5C398.695 7.556 398.38 7.62367 398.1 7.703C397.895 7.76833 397.701 7.85233 397.519 7.955C397.342 8.05767 397.197 8.19067 397.085 8.354C396.978 8.51267 396.924 8.711 396.924 8.949C396.924 9.15433 396.975 9.35033 397.078 9.537C397.185 9.72367 397.349 9.87533 397.568 9.992C397.792 10.1087 398.084 10.167 398.443 10.167Z" fill="#EDEDED"/>
<rect x="443" width="12" height="12" fill="#00CAFF"/>
<path d="M460.714 11V0.92H461.974L467.231 8.795V0.92H468.491V11H467.231L461.974 3.118V11H460.714ZM473.445 11.21C472.703 11.21 472.054 11.0467 471.499 10.72C470.948 10.3887 470.519 9.929 470.211 9.341C469.903 8.74833 469.749 8.05767 469.749 7.269C469.749 6.443 469.9 5.729 470.204 5.127C470.507 4.52033 470.929 4.05367 471.471 3.727C472.017 3.39567 472.656 3.23 473.389 3.23C474.149 3.23 474.796 3.405 475.328 3.755C475.864 4.105 476.266 4.60433 476.532 5.253C476.802 5.90167 476.919 6.674 476.882 7.57H475.622V7.122C475.608 6.19333 475.419 5.50033 475.055 5.043C474.691 4.581 474.149 4.35 473.431 4.35C472.661 4.35 472.075 4.59733 471.674 5.092C471.272 5.58667 471.072 6.296 471.072 7.22C471.072 8.11133 471.272 8.802 471.674 9.292C472.075 9.782 472.647 10.027 473.389 10.027C473.888 10.027 474.322 9.91267 474.691 9.684C475.059 9.45533 475.349 9.12633 475.559 8.697L476.756 9.11C476.462 9.77733 476.018 10.2953 475.426 10.664C474.838 11.028 474.177 11.21 473.445 11.21ZM470.652 7.57V6.569H476.238V7.57H470.652ZM479.497 11L477.187 3.433L478.426 3.44L480.113 8.97L481.814 3.44H482.913L484.607 8.97L486.301 3.44H487.533L485.223 11H484.187L482.36 5.253L480.533 11H479.497ZM491.039 11V0.92H495.022C495.12 0.92 495.237 0.924666 495.372 0.933999C495.508 0.938666 495.638 0.952666 495.764 0.976C496.31 1.06 496.768 1.24667 497.136 1.536C497.51 1.82533 497.79 2.19167 497.976 2.635C498.163 3.07367 498.256 3.56133 498.256 4.098C498.256 4.87733 498.053 5.554 497.647 6.128C497.241 6.69733 496.646 7.05433 495.862 7.199L495.386 7.276H492.285V11H491.039ZM497.038 11L495.05 6.898L496.282 6.52L498.466 11H497.038ZM492.285 6.093H494.98C495.069 6.093 495.169 6.08833 495.281 6.079C495.398 6.06967 495.508 6.05333 495.61 6.03C495.932 5.95533 496.194 5.82 496.394 5.624C496.6 5.42333 496.749 5.19 496.842 4.924C496.936 4.65333 496.982 4.378 496.982 4.098C496.982 3.818 496.936 3.545 496.842 3.279C496.749 3.00833 496.6 2.77267 496.394 2.572C496.194 2.37133 495.932 2.236 495.61 2.166C495.508 2.138 495.398 2.12167 495.281 2.117C495.169 2.10767 495.069 2.103 494.98 2.103H492.285V6.093ZM503.004 11.21C502.262 11.21 501.614 11.0467 501.058 10.72C500.508 10.3887 500.078 9.929 499.77 9.341C499.462 8.74833 499.308 8.05767 499.308 7.269C499.308 6.443 499.46 5.729 499.763 5.127C500.067 4.52033 500.489 4.05367 501.03 3.727C501.576 3.39567 502.216 3.23 502.948 3.23C503.709 3.23 504.355 3.405 504.887 3.755C505.424 4.105 505.825 4.60433 506.091 5.253C506.362 5.90167 506.479 6.674 506.441 7.57H505.181V7.122C505.167 6.19333 504.978 5.50033 504.614 5.043C504.25 4.581 503.709 4.35 502.99 4.35C502.22 4.35 501.635 4.59733 501.233 5.092C500.832 5.58667 500.631 6.296 500.631 7.22C500.631 8.11133 500.832 8.802 501.233 9.292C501.635 9.782 502.206 10.027 502.948 10.027C503.448 10.027 503.882 9.91267 504.25 9.684C504.619 9.45533 504.908 9.12633 505.118 8.697L506.315 9.11C506.021 9.77733 505.578 10.2953 504.985 10.664C504.397 11.028 503.737 11.21 503.004 11.21ZM500.211 7.57V6.569H505.797V7.57H500.211ZM507.86 11V0.71H509.106V11H507.86ZM511.066 2.103V0.815H512.312V2.103H511.066ZM511.066 11V3.44H512.312V11H511.066ZM517.317 11.21C516.552 11.21 515.901 11.0397 515.364 10.699C514.832 10.3537 514.426 9.88 514.146 9.278C513.866 8.676 513.722 7.99 513.712 7.22C513.722 6.43133 513.869 5.73833 514.153 5.141C514.443 4.539 514.856 4.07 515.392 3.734C515.929 3.398 516.575 3.23 517.331 3.23C518.129 3.23 518.815 3.426 519.389 3.818C519.968 4.21 520.355 4.74667 520.551 5.428L519.319 5.799C519.161 5.36033 518.902 5.01967 518.542 4.777C518.188 4.53433 517.779 4.413 517.317 4.413C516.799 4.413 516.372 4.53433 516.036 4.777C515.7 5.015 515.451 5.34633 515.287 5.771C515.124 6.191 515.04 6.674 515.035 7.22C515.045 8.06 515.238 8.739 515.616 9.257C515.999 9.77033 516.566 10.027 517.317 10.027C517.812 10.027 518.223 9.915 518.549 9.691C518.876 9.46233 519.123 9.13333 519.291 8.704L520.551 9.033C520.29 9.73767 519.882 10.2767 519.326 10.65C518.771 11.0233 518.101 11.21 517.317 11.21Z" fill="#EDEDED"/>
<rect x="561" width="12" height="12" fill="#5920AD"/>
<path d="M578.414 11V0.92H581.522C581.625 0.92 581.804 0.922333 582.061 0.927C582.318 0.931666 582.563 0.950333 582.796 0.982999C583.575 1.08567 584.226 1.37033 584.749 1.837C585.276 2.299 585.673 2.887 585.939 3.601C586.205 4.315 586.338 5.10133 586.338 5.96C586.338 6.81867 586.205 7.605 585.939 8.319C585.673 9.033 585.276 9.62333 584.749 10.09C584.226 10.552 583.575 10.8343 582.796 10.937C582.563 10.965 582.315 10.9837 582.054 10.993C581.797 10.9977 581.62 11 581.522 11H578.414ZM579.695 9.81H581.522C581.699 9.81 581.898 9.80533 582.117 9.796C582.336 9.782 582.528 9.761 582.691 9.733C583.242 9.63033 583.687 9.39933 584.028 9.04C584.369 8.68067 584.618 8.23267 584.777 7.696C584.936 7.15933 585.015 6.58067 585.015 5.96C585.015 5.32533 584.933 4.73967 584.77 4.203C584.611 3.66633 584.362 3.22067 584.021 2.866C583.68 2.51133 583.237 2.285 582.691 2.187C582.528 2.15433 582.334 2.13333 582.11 2.124C581.886 2.11467 581.69 2.11 581.522 2.11H579.695V9.81ZM589.812 11.21C589.248 11.21 588.774 11.1073 588.391 10.902C588.013 10.692 587.726 10.4167 587.53 10.076C587.339 9.73533 587.243 9.362 587.243 8.956C587.243 8.55933 587.318 8.21633 587.467 7.927C587.621 7.633 587.836 7.39033 588.111 7.199C588.387 7.003 588.716 6.849 589.098 6.737C589.458 6.639 589.859 6.555 590.302 6.485C590.75 6.41033 591.203 6.34267 591.66 6.282C592.118 6.22133 592.545 6.163 592.941 6.107L592.493 6.366C592.507 5.694 592.372 5.197 592.087 4.875C591.807 4.553 591.322 4.392 590.631 4.392C590.174 4.392 589.773 4.497 589.427 4.707C589.087 4.91233 588.846 5.24833 588.706 5.715L587.523 5.358C587.705 4.69533 588.058 4.175 588.58 3.797C589.103 3.419 589.791 3.23 590.645 3.23C591.331 3.23 591.919 3.35367 592.409 3.601C592.904 3.84367 593.259 4.21233 593.473 4.707C593.581 4.94033 593.648 5.19467 593.676 5.47C593.704 5.74067 593.718 6.02533 593.718 6.324V11H592.612V9.187L592.871 9.355C592.587 9.96633 592.188 10.4283 591.674 10.741C591.166 11.0537 590.545 11.21 589.812 11.21ZM590.001 10.167C590.449 10.167 590.837 10.0877 591.163 9.929C591.495 9.76567 591.761 9.55333 591.961 9.292C592.162 9.026 592.293 8.73667 592.353 8.424C592.423 8.19067 592.461 7.93167 592.465 7.647C592.475 7.35767 592.479 7.136 592.479 6.982L592.913 7.171C592.507 7.227 592.108 7.28067 591.716 7.332C591.324 7.38333 590.953 7.43933 590.603 7.5C590.253 7.556 589.938 7.62367 589.658 7.703C589.453 7.76833 589.259 7.85233 589.077 7.955C588.9 8.05767 588.755 8.19067 588.643 8.354C588.536 8.51267 588.482 8.711 588.482 8.949C588.482 9.15433 588.534 9.35033 588.636 9.537C588.744 9.72367 588.907 9.87533 589.126 9.992C589.35 10.1087 589.642 10.167 590.001 10.167ZM599.479 11C599.031 11.0887 598.588 11.1237 598.149 11.105C597.715 11.091 597.328 11.0047 596.987 10.846C596.647 10.6827 596.388 10.4307 596.21 10.09C596.061 9.79133 595.979 9.49033 595.965 9.187C595.956 8.879 595.951 8.53133 595.951 8.144V1.34H597.197V8.088C597.197 8.396 597.2 8.65967 597.204 8.879C597.214 9.09833 597.263 9.28733 597.351 9.446C597.519 9.74467 597.785 9.91967 598.149 9.971C598.518 10.0223 598.961 10.0083 599.479 9.929V11ZM594.418 4.469V3.44H599.479V4.469H594.418ZM602.883 11.21C602.318 11.21 601.845 11.1073 601.462 10.902C601.084 10.692 600.797 10.4167 600.601 10.076C600.41 9.73533 600.314 9.362 600.314 8.956C600.314 8.55933 600.389 8.21633 600.538 7.927C600.692 7.633 600.907 7.39033 601.182 7.199C601.457 7.003 601.786 6.849 602.169 6.737C602.528 6.639 602.93 6.555 603.373 6.485C603.821 6.41033 604.274 6.34267 604.731 6.282C605.188 6.22133 605.615 6.163 606.012 6.107L605.564 6.366C605.578 5.694 605.443 5.197 605.158 4.875C604.878 4.553 604.393 4.392 603.702 4.392C603.245 4.392 602.843 4.497 602.498 4.707C602.157 4.91233 601.917 5.24833 601.777 5.715L600.594 5.358C600.776 4.69533 601.128 4.175 601.651 3.797C602.174 3.419 602.862 3.23 603.716 3.23C604.402 3.23 604.99 3.35367 605.48 3.601C605.975 3.84367 606.329 4.21233 606.544 4.707C606.651 4.94033 606.719 5.19467 606.747 5.47C606.775 5.74067 606.789 6.02533 606.789 6.324V11H605.683V9.187L605.942 9.355C605.657 9.96633 605.258 10.4283 604.745 10.741C604.236 11.0537 603.616 11.21 602.883 11.21ZM603.072 10.167C603.52 10.167 603.907 10.0877 604.234 9.929C604.565 9.76567 604.831 9.55333 605.032 9.292C605.233 9.026 605.363 8.73667 605.424 8.424C605.494 8.19067 605.531 7.93167 605.536 7.647C605.545 7.35767 605.55 7.136 605.55 6.982L605.984 7.171C605.578 7.227 605.179 7.28067 604.787 7.332C604.395 7.38333 604.024 7.43933 603.674 7.5C603.324 7.556 603.009 7.62367 602.729 7.703C602.524 7.76833 602.33 7.85233 602.148 7.955C601.971 8.05767 601.826 8.19067 601.714 8.354C601.607 8.51267 601.553 8.711 601.553 8.949C601.553 9.15433 601.604 9.35033 601.707 9.537C601.814 9.72367 601.978 9.87533 602.197 9.992C602.421 10.1087 602.713 10.167 603.072 10.167ZM611.297 11.21C610.592 11.21 609.988 11.035 609.484 10.685C608.98 10.3303 608.59 9.852 608.315 9.25C608.044 8.648 607.909 7.969 607.909 7.213C607.909 6.457 608.044 5.778 608.315 5.176C608.59 4.574 608.98 4.10033 609.484 3.755C609.988 3.405 610.59 3.23 611.29 3.23C612.004 3.23 612.604 3.40267 613.089 3.748C613.574 4.09333 613.941 4.567 614.188 5.169C614.44 5.771 614.566 6.45233 614.566 7.213C614.566 7.96433 614.44 8.64333 614.188 9.25C613.941 9.852 613.574 10.3303 613.089 10.685C612.604 11.035 612.006 11.21 611.297 11.21ZM611.451 10.069C611.96 10.069 612.377 9.94767 612.704 9.705C613.031 9.45767 613.271 9.11933 613.425 8.69C613.584 8.256 613.663 7.76367 613.663 7.213C613.663 6.653 613.584 6.16067 613.425 5.736C613.271 5.30667 613.033 4.973 612.711 4.735C612.389 4.49233 611.981 4.371 611.486 4.371C610.973 4.371 610.548 4.497 610.212 4.749C609.881 5.001 609.633 5.34167 609.47 5.771C609.311 6.20033 609.232 6.681 609.232 7.213C609.232 7.74967 609.314 8.235 609.477 8.669C609.64 9.09833 609.885 9.439 610.212 9.691C610.543 9.943 610.956 10.069 611.451 10.069ZM613.663 11V5.435H613.523V0.92H614.776V11H613.663ZM619.677 11.21C618.926 11.21 618.277 11.0397 617.731 10.699C617.19 10.3583 616.772 9.887 616.478 9.285C616.184 8.683 616.037 7.99233 616.037 7.213C616.037 6.41967 616.187 5.72433 616.485 5.127C616.784 4.52967 617.206 4.06533 617.752 3.734C618.298 3.398 618.94 3.23 619.677 3.23C620.433 3.23 621.084 3.40033 621.63 3.741C622.176 4.077 622.594 4.546 622.883 5.148C623.177 5.74533 623.324 6.43367 623.324 7.213C623.324 8.00167 623.177 8.697 622.883 9.299C622.589 9.89633 622.169 10.3653 621.623 10.706C621.077 11.042 620.429 11.21 619.677 11.21ZM619.677 10.027C620.461 10.027 621.045 9.76567 621.427 9.243C621.81 8.72033 622.001 8.04367 622.001 7.213C622.001 6.359 621.808 5.68 621.42 5.176C621.033 4.66733 620.452 4.413 619.677 4.413C619.15 4.413 618.716 4.532 618.375 4.77C618.035 5.008 617.78 5.337 617.612 5.757C617.444 6.177 617.36 6.66233 617.36 7.213C617.36 8.06233 617.556 8.74367 617.948 9.257C618.34 9.77033 618.917 10.027 619.677 10.027ZM627.644 14.57C627.248 14.57 626.86 14.5093 626.482 14.388C626.104 14.2667 625.757 14.0823 625.439 13.835C625.127 13.5923 624.865 13.2843 624.655 12.911L625.796 12.309C625.983 12.6777 626.247 12.946 626.587 13.114C626.933 13.282 627.287 13.366 627.651 13.366C628.132 13.366 628.531 13.2773 628.848 13.1C629.166 12.9273 629.399 12.6683 629.548 12.323C629.702 11.9777 629.777 11.5483 629.772 11.035V8.97H629.919V3.44H631.025V11.049C631.025 11.2543 631.018 11.4527 631.004 11.644C630.995 11.8353 630.972 12.0243 630.934 12.211C630.836 12.7477 630.643 13.1887 630.353 13.534C630.064 13.884 629.691 14.143 629.233 14.311C628.776 14.4837 628.246 14.57 627.644 14.57ZM627.553 11.21C626.849 11.21 626.244 11.035 625.74 10.685C625.236 10.3303 624.847 9.852 624.571 9.25C624.301 8.648 624.165 7.969 624.165 7.213C624.165 6.457 624.301 5.778 624.571 5.176C624.847 4.574 625.236 4.10033 625.74 3.755C626.244 3.405 626.846 3.23 627.546 3.23C628.26 3.23 628.86 3.40267 629.345 3.748C629.831 4.09333 630.197 4.567 630.444 5.169C630.696 5.771 630.822 6.45233 630.822 7.213C630.822 7.96433 630.696 8.64333 630.444 9.25C630.197 9.852 629.831 10.3303 629.345 10.685C628.86 11.035 628.263 11.21 627.553 11.21ZM627.707 10.069C628.216 10.069 628.634 9.94767 628.96 9.705C629.287 9.45767 629.527 9.11933 629.681 8.69C629.84 8.256 629.919 7.76367 629.919 7.213C629.919 6.653 629.84 6.16067 629.681 5.736C629.527 5.30667 629.289 4.973 628.967 4.735C628.645 4.49233 628.237 4.371 627.742 4.371C627.229 4.371 626.804 4.497 626.468 4.749C626.137 5.001 625.89 5.34167 625.726 5.771C625.568 6.20033 625.488 6.681 625.488 7.213C625.488 7.74967 625.57 8.235 625.733 8.669C625.897 9.09833 626.142 9.439 626.468 9.691C626.8 9.943 627.213 10.069 627.707 10.069Z" fill="#EDEDED"/>
</svg>
