<svg width="507" height="349" viewBox="0 0 507 349" fill="none" xmlns="http://www.w3.org/2000/svg">
<line x1="33.5" y1="318" x2="33.5" y2="33" stroke="#494949"/>
<line y1="-0.5" x2="468.223" y2="-0.5" transform="matrix(0.999998 -0.00195993 0.00245374 0.999997 33.7773 317.482)" stroke="#494949"/>
<path d="M92.5685 344.232C91.9978 344.232 91.4725 344.131 90.9925 343.928C90.5125 343.725 90.0992 343.437 89.7525 343.064C89.4058 342.685 89.1525 342.235 88.9925 341.712L90.1125 341.376C90.3045 341.947 90.6192 342.379 91.0565 342.672C91.4992 342.965 91.9978 343.107 92.5525 343.096C93.0645 343.085 93.5045 342.971 93.8725 342.752C94.2458 342.533 94.5312 342.229 94.7285 341.84C94.9258 341.451 95.0245 341 95.0245 340.488C95.0245 339.704 94.7952 339.075 94.3365 338.6C93.8832 338.12 93.2832 337.88 92.5365 337.88C92.3285 337.88 92.1098 337.909 91.8805 337.968C91.6512 338.021 91.4378 338.099 91.2405 338.2L90.6485 337.264L95.1285 333.128L95.3205 333.608H89.4485V332.48H96.1045V333.624L92.2005 337.352L92.1845 336.888C92.9845 336.787 93.6885 336.877 94.2965 337.16C94.9045 337.443 95.3792 337.875 95.7205 338.456C96.0672 339.032 96.2405 339.709 96.2405 340.488C96.2405 341.224 96.0805 341.875 95.7605 342.44C95.4458 343 95.0112 343.44 94.4565 343.76C93.9018 344.075 93.2725 344.232 92.5685 344.232ZM102.159 344V332.48H103.239L107.767 342.168L112.271 332.48H113.367V343.992H112.247V335.104L108.143 344H107.383L103.287 335.104V344H102.159ZM119.541 344.24C118.682 344.24 117.949 344.045 117.341 343.656C116.733 343.267 116.266 342.728 115.941 342.04C115.615 341.352 115.453 340.563 115.453 339.672C115.453 338.765 115.618 337.971 115.949 337.288C116.279 336.605 116.749 336.075 117.357 335.696C117.97 335.312 118.698 335.12 119.541 335.12C120.405 335.12 121.141 335.315 121.749 335.704C122.362 336.088 122.829 336.624 123.149 337.312C123.474 337.995 123.637 338.781 123.637 339.672C123.637 340.579 123.474 341.376 123.149 342.064C122.823 342.747 122.354 343.28 121.741 343.664C121.127 344.048 120.394 344.24 119.541 344.24ZM119.541 343.112C120.501 343.112 121.215 342.795 121.685 342.16C122.154 341.52 122.389 340.691 122.389 339.672C122.389 338.627 122.151 337.795 121.677 337.176C121.207 336.557 120.495 336.248 119.541 336.248C118.895 336.248 118.362 336.395 117.941 336.688C117.525 336.976 117.213 337.379 117.005 337.896C116.802 338.408 116.701 339 116.701 339.672C116.701 340.712 116.941 341.547 117.421 342.176C117.901 342.8 118.607 343.112 119.541 343.112ZM131.961 344V339.592C131.961 339.112 131.916 338.672 131.825 338.272C131.735 337.867 131.588 337.515 131.385 337.216C131.188 336.912 130.929 336.677 130.609 336.512C130.295 336.347 129.911 336.264 129.457 336.264C129.041 336.264 128.673 336.336 128.353 336.48C128.039 336.624 127.772 336.832 127.553 337.104C127.34 337.371 127.177 337.696 127.065 338.08C126.953 338.464 126.897 338.901 126.897 339.392L126.065 339.208C126.065 338.323 126.22 337.579 126.529 336.976C126.839 336.373 127.265 335.917 127.809 335.608C128.353 335.299 128.977 335.144 129.681 335.144C130.199 335.144 130.649 335.224 131.033 335.384C131.423 335.544 131.751 335.76 132.017 336.032C132.289 336.304 132.508 336.616 132.673 336.968C132.839 337.315 132.959 337.685 133.033 338.08C133.108 338.469 133.145 338.859 133.145 339.248V344H131.961ZM125.713 344V335.36H126.777V337.488H126.897V344H125.713ZM140.245 344C139.76 344.101 139.28 344.141 138.805 344.12C138.336 344.099 137.915 343.997 137.541 343.816C137.173 343.635 136.893 343.352 136.701 342.968C136.547 342.648 136.461 342.325 136.445 342C136.435 341.669 136.429 341.293 136.429 340.872V332.96H137.597V340.824C137.597 341.187 137.6 341.491 137.605 341.736C137.616 341.976 137.672 342.189 137.773 342.376C137.965 342.733 138.269 342.947 138.685 343.016C139.107 343.085 139.627 343.069 140.245 342.968V344ZM134.581 336.368V335.36H140.245V336.368H134.581ZM148.507 344V339.592C148.507 339.112 148.462 338.672 148.371 338.272C148.281 337.867 148.134 337.515 147.931 337.216C147.734 336.912 147.475 336.677 147.155 336.512C146.841 336.347 146.457 336.264 146.003 336.264C145.587 336.264 145.219 336.336 144.899 336.48C144.585 336.624 144.318 336.832 144.099 337.104C143.886 337.371 143.723 337.696 143.611 338.08C143.499 338.464 143.443 338.901 143.443 339.392L142.611 339.208C142.611 338.323 142.766 337.579 143.075 336.976C143.385 336.373 143.811 335.917 144.355 335.608C144.899 335.299 145.523 335.144 146.227 335.144C146.745 335.144 147.195 335.224 147.579 335.384C147.969 335.544 148.297 335.76 148.563 336.032C148.835 336.304 149.054 336.616 149.219 336.968C149.385 337.315 149.505 337.685 149.579 338.08C149.654 338.469 149.691 338.859 149.691 339.248V344H148.507ZM142.259 344V332.48H143.323V338.984H143.443V344H142.259Z" fill="#DEDEDE"/>
<path d="M238.563 344V333.792L236.395 335.096V333.776L238.563 332.48H239.755V344H238.563ZM242.789 343.992L242.797 342.92L248.005 338.216C248.453 337.811 248.749 337.427 248.893 337.064C249.042 336.696 249.117 336.312 249.117 335.912C249.117 335.437 249.005 335.008 248.781 334.624C248.557 334.24 248.256 333.936 247.877 333.712C247.498 333.483 247.074 333.368 246.605 333.368C246.114 333.368 245.677 333.485 245.293 333.72C244.909 333.955 244.605 334.264 244.381 334.648C244.162 335.032 244.056 335.451 244.061 335.904H242.861C242.861 335.205 243.026 334.579 243.357 334.024C243.688 333.469 244.136 333.035 244.701 332.72C245.266 332.4 245.906 332.24 246.621 332.24C247.32 332.24 247.946 332.405 248.501 332.736C249.061 333.061 249.501 333.504 249.821 334.064C250.146 334.619 250.309 335.237 250.309 335.92C250.309 336.4 250.25 336.824 250.133 337.192C250.021 337.555 249.842 337.893 249.597 338.208C249.357 338.517 249.05 338.837 248.677 339.168L244.053 343.344L243.869 342.864H250.309V343.992H242.789ZM256.077 344V332.48H257.157L261.685 342.168L266.189 332.48H267.285V343.992H266.165V335.104L262.061 344H261.301L257.205 335.104V344H256.077ZM273.458 344.24C272.6 344.24 271.866 344.045 271.258 343.656C270.65 343.267 270.184 342.728 269.858 342.04C269.533 341.352 269.37 340.563 269.37 339.672C269.37 338.765 269.536 337.971 269.866 337.288C270.197 336.605 270.666 336.075 271.274 335.696C271.888 335.312 272.616 335.12 273.458 335.12C274.322 335.12 275.058 335.315 275.666 335.704C276.28 336.088 276.746 336.624 277.066 337.312C277.392 337.995 277.554 338.781 277.554 339.672C277.554 340.579 277.392 341.376 277.066 342.064C276.741 342.747 276.272 343.28 275.658 343.664C275.045 344.048 274.312 344.24 273.458 344.24ZM273.458 343.112C274.418 343.112 275.133 342.795 275.602 342.16C276.072 341.52 276.306 340.691 276.306 339.672C276.306 338.627 276.069 337.795 275.594 337.176C275.125 336.557 274.413 336.248 273.458 336.248C272.813 336.248 272.28 336.395 271.858 336.688C271.442 336.976 271.13 337.379 270.922 337.896C270.72 338.408 270.618 339 270.618 339.672C270.618 340.712 270.858 341.547 271.338 342.176C271.818 342.8 272.525 343.112 273.458 343.112ZM285.879 344V339.592C285.879 339.112 285.834 338.672 285.743 338.272C285.652 337.867 285.506 337.515 285.303 337.216C285.106 336.912 284.847 336.677 284.527 336.512C284.212 336.347 283.828 336.264 283.375 336.264C282.959 336.264 282.591 336.336 282.271 336.48C281.956 336.624 281.69 336.832 281.471 337.104C281.258 337.371 281.095 337.696 280.983 338.08C280.871 338.464 280.815 338.901 280.815 339.392L279.983 339.208C279.983 338.323 280.138 337.579 280.447 336.976C280.756 336.373 281.183 335.917 281.727 335.608C282.271 335.299 282.895 335.144 283.599 335.144C284.116 335.144 284.567 335.224 284.951 335.384C285.34 335.544 285.668 335.76 285.935 336.032C286.207 336.304 286.426 336.616 286.591 336.968C286.756 337.315 286.876 337.685 286.951 338.08C287.026 338.469 287.063 338.859 287.063 339.248V344H285.879ZM279.631 344V335.36H280.695V337.488H280.815V344H279.631ZM294.163 344C293.678 344.101 293.198 344.141 292.723 344.12C292.254 344.099 291.832 343.997 291.459 343.816C291.091 343.635 290.811 343.352 290.619 342.968C290.464 342.648 290.379 342.325 290.363 342C290.352 341.669 290.347 341.293 290.347 340.872V332.96H291.515V340.824C291.515 341.187 291.518 341.491 291.523 341.736C291.534 341.976 291.59 342.189 291.691 342.376C291.883 342.733 292.187 342.947 292.603 343.016C293.024 343.085 293.544 343.069 294.163 342.968V344ZM288.499 336.368V335.36H294.163V336.368H288.499ZM302.425 344V339.592C302.425 339.112 302.38 338.672 302.289 338.272C302.199 337.867 302.052 337.515 301.849 337.216C301.652 336.912 301.393 336.677 301.073 336.512C300.759 336.347 300.375 336.264 299.921 336.264C299.505 336.264 299.137 336.336 298.817 336.48C298.503 336.624 298.236 336.832 298.017 337.104C297.804 337.371 297.641 337.696 297.529 338.08C297.417 338.464 297.361 338.901 297.361 339.392L296.529 339.208C296.529 338.323 296.684 337.579 296.993 336.976C297.303 336.373 297.729 335.917 298.273 335.608C298.817 335.299 299.441 335.144 300.145 335.144C300.663 335.144 301.113 335.224 301.497 335.384C301.887 335.544 302.215 335.76 302.481 336.032C302.753 336.304 302.972 336.616 303.137 336.968C303.303 337.315 303.423 337.685 303.497 338.08C303.572 338.469 303.609 338.859 303.609 339.248V344H302.425ZM296.177 344V332.48H297.241V338.984H297.361V344H296.177Z" fill="#DEDEDE"/>
<path d="M390.289 343.992L390.297 342.92L395.505 338.216C395.953 337.811 396.249 337.427 396.393 337.064C396.543 336.696 396.617 336.312 396.617 335.912C396.617 335.437 396.505 335.008 396.281 334.624C396.057 334.24 395.756 333.936 395.377 333.712C394.999 333.483 394.575 333.368 394.105 333.368C393.615 333.368 393.177 333.485 392.793 333.72C392.409 333.955 392.105 334.264 391.881 334.648C391.663 335.032 391.556 335.451 391.561 335.904H390.361C390.361 335.205 390.527 334.579 390.857 334.024C391.188 333.469 391.636 333.035 392.201 332.72C392.767 332.4 393.407 332.24 394.121 332.24C394.82 332.24 395.447 332.405 396.001 332.736C396.561 333.061 397.001 333.504 397.321 334.064C397.647 334.619 397.809 335.237 397.809 335.92C397.809 336.4 397.751 336.824 397.633 337.192C397.521 337.555 397.343 337.893 397.097 338.208C396.857 338.517 396.551 338.837 396.177 339.168L391.553 343.344L391.369 342.864H397.809V343.992H390.289ZM404.814 344V341.768H399.422V340.648L403.278 332.48H404.598L400.742 340.648H404.814V337.288H405.998V340.648H407.254V341.768H405.998V344H404.814ZM413.023 344V332.48H414.103L418.631 342.168L423.135 332.48H424.231V343.992H423.111V335.104L419.007 344H418.247L414.151 335.104V344H413.023ZM430.404 344.24C429.545 344.24 428.812 344.045 428.204 343.656C427.596 343.267 427.129 342.728 426.804 342.04C426.478 341.352 426.316 340.563 426.316 339.672C426.316 338.765 426.481 337.971 426.812 337.288C427.142 336.605 427.612 336.075 428.22 335.696C428.833 335.312 429.561 335.12 430.404 335.12C431.268 335.12 432.004 335.315 432.612 335.704C433.225 336.088 433.692 336.624 434.012 337.312C434.337 337.995 434.5 338.781 434.5 339.672C434.5 340.579 434.337 341.376 434.012 342.064C433.686 342.747 433.217 343.28 432.604 343.664C431.99 344.048 431.257 344.24 430.404 344.24ZM430.404 343.112C431.364 343.112 432.078 342.795 432.548 342.16C433.017 341.52 433.252 340.691 433.252 339.672C433.252 338.627 433.014 337.795 432.54 337.176C432.07 336.557 431.358 336.248 430.404 336.248C429.758 336.248 429.225 336.395 428.804 336.688C428.388 336.976 428.076 337.379 427.868 337.896C427.665 338.408 427.564 339 427.564 339.672C427.564 340.712 427.804 341.547 428.284 342.176C428.764 342.8 429.47 343.112 430.404 343.112ZM442.824 344V339.592C442.824 339.112 442.779 338.672 442.688 338.272C442.598 337.867 442.451 337.515 442.248 337.216C442.051 336.912 441.792 336.677 441.472 336.512C441.158 336.347 440.774 336.264 440.32 336.264C439.904 336.264 439.536 336.336 439.216 336.48C438.902 336.624 438.635 336.832 438.416 337.104C438.203 337.371 438.04 337.696 437.928 338.08C437.816 338.464 437.76 338.901 437.76 339.392L436.928 339.208C436.928 338.323 437.083 337.579 437.392 336.976C437.702 336.373 438.128 335.917 438.672 335.608C439.216 335.299 439.84 335.144 440.544 335.144C441.062 335.144 441.512 335.224 441.896 335.384C442.286 335.544 442.614 335.76 442.88 336.032C443.152 336.304 443.371 336.616 443.536 336.968C443.702 337.315 443.822 337.685 443.896 338.08C443.971 338.469 444.008 338.859 444.008 339.248V344H442.824ZM436.576 344V335.36H437.64V337.488H437.76V344H436.576ZM451.108 344C450.623 344.101 450.143 344.141 449.668 344.12C449.199 344.099 448.778 343.997 448.404 343.816C448.036 343.635 447.756 343.352 447.564 342.968C447.41 342.648 447.324 342.325 447.308 342C447.298 341.669 447.292 341.293 447.292 340.872V332.96H448.46V340.824C448.46 341.187 448.463 341.491 448.468 341.736C448.479 341.976 448.535 342.189 448.636 342.376C448.828 342.733 449.132 342.947 449.548 343.016C449.97 343.085 450.49 343.069 451.108 342.968V344ZM445.444 336.368V335.36H451.108V336.368H445.444ZM459.371 344V339.592C459.371 339.112 459.325 338.672 459.235 338.272C459.144 337.867 458.997 337.515 458.795 337.216C458.597 336.912 458.339 336.677 458.019 336.512C457.704 336.347 457.32 336.264 456.867 336.264C456.451 336.264 456.083 336.336 455.763 336.48C455.448 336.624 455.181 336.832 454.963 337.104C454.749 337.371 454.587 337.696 454.475 338.08C454.363 338.464 454.307 338.901 454.307 339.392L453.475 339.208C453.475 338.323 453.629 337.579 453.939 336.976C454.248 336.373 454.675 335.917 455.219 335.608C455.763 335.299 456.387 335.144 457.091 335.144C457.608 335.144 458.059 335.224 458.443 335.384C458.832 335.544 459.16 335.76 459.427 336.032C459.699 336.304 459.917 336.616 460.083 336.968C460.248 337.315 460.368 337.685 460.443 338.08C460.517 338.469 460.555 338.859 460.555 339.248V344H459.371ZM453.123 344V332.48H454.187V338.984H454.307V344H453.123Z" fill="#DEDEDE"/>
<path d="M21.33 191.394C21.33 192.971 20.9817 194.302 20.285 195.387C19.581 196.473 18.6093 197.294 17.37 197.851C16.1307 198.409 14.7007 198.687 13.08 198.687C11.4593 198.687 10.0293 198.409 8.79 197.851C7.55067 197.294 6.58267 196.473 5.886 195.387C5.182 194.302 4.83 192.971 4.83 191.394C4.83 189.554 5.303 188.05 6.249 186.884C7.18767 185.718 8.449 184.919 10.033 184.486L10.462 186.136C9.208 186.474 8.21433 187.079 7.481 187.951C6.74767 188.824 6.381 189.972 6.381 191.394C6.381 192.634 6.66333 193.664 7.228 194.485C7.79267 195.307 8.581 195.926 9.593 196.344C10.5977 196.755 11.76 196.968 13.08 196.982C14.4 196.99 15.5623 196.788 16.567 196.377C17.5717 195.959 18.36 195.336 18.932 194.507C19.4967 193.671 19.779 192.634 19.779 191.394C19.779 189.972 19.4123 188.824 18.679 187.951C17.9383 187.079 16.9447 186.474 15.698 186.136L16.127 184.486C17.711 184.919 18.976 185.718 19.922 186.884C20.8607 188.05 21.33 189.554 21.33 191.394ZM21.33 176.658C21.33 177.839 21.0623 178.847 20.527 179.683C19.9917 180.519 19.251 181.161 18.305 181.608C17.359 182.056 16.2737 182.279 15.049 182.279C13.8023 182.279 12.7097 182.052 11.771 181.597C10.8323 181.143 10.1027 180.497 9.582 179.661C9.054 178.818 8.79 177.817 8.79 176.658C8.79 175.47 9.05767 174.458 9.593 173.622C10.121 172.779 10.858 172.137 11.804 171.697C12.7427 171.25 13.8243 171.026 15.049 171.026C16.2957 171.026 17.392 171.25 18.338 171.697C19.2767 172.145 20.01 172.79 20.538 173.633C21.066 174.477 21.33 175.485 21.33 176.658ZM19.779 176.658C19.779 175.338 19.3427 174.356 18.47 173.71C17.59 173.065 16.4497 172.742 15.049 172.742C13.6117 172.742 12.4677 173.069 11.617 173.721C10.7663 174.367 10.341 175.346 10.341 176.658C10.341 177.546 10.5427 178.279 10.946 178.858C11.342 179.43 11.8957 179.859 12.607 180.145C13.311 180.424 14.125 180.563 15.049 180.563C16.479 180.563 17.6267 180.233 18.492 179.573C19.35 178.913 19.779 177.942 19.779 176.658ZM21.319 163.834C21.319 165.228 21.0183 166.375 20.417 167.277C19.8157 168.172 18.9797 168.722 17.909 168.927L17.634 167.277C18.3087 167.101 18.8477 166.702 19.251 166.078C19.647 165.448 19.845 164.67 19.845 163.746C19.845 162.844 19.658 162.133 19.284 161.612C18.9027 161.092 18.3857 160.831 17.733 160.831C17.3663 160.831 17.0693 160.916 16.842 161.084C16.6073 161.246 16.391 161.579 16.193 162.085C15.995 162.591 15.7603 163.347 15.489 164.351C15.1957 165.429 14.9023 166.273 14.609 166.881C14.3157 167.49 13.9783 167.923 13.597 168.179C13.2083 168.436 12.7353 168.564 12.178 168.564C11.5033 168.564 10.913 168.374 10.407 167.992C9.89367 167.611 9.49767 167.083 9.219 166.408C8.933 165.734 8.79 164.949 8.79 164.054C8.79 163.16 8.93667 162.36 9.23 161.656C9.516 160.945 9.91933 160.373 10.44 159.94C10.9607 159.508 11.5657 159.251 12.255 159.17L12.552 160.82C11.8553 160.93 11.3053 161.279 10.902 161.865C10.4913 162.445 10.2787 163.182 10.264 164.076C10.242 164.92 10.4033 165.605 10.748 166.133C11.0853 166.661 11.5363 166.925 12.101 166.925C12.4163 166.925 12.6877 166.83 12.915 166.639C13.135 166.449 13.344 166.104 13.542 165.605C13.74 165.099 13.9563 164.381 14.191 163.449C14.4697 162.357 14.763 161.499 15.071 160.875C15.379 160.252 15.742 159.808 16.16 159.544C16.578 159.28 17.095 159.148 17.711 159.148C18.833 159.148 19.7167 159.566 20.362 160.402C21 161.231 21.319 162.375 21.319 163.834ZM21 149.801C21.1393 150.468 21.1943 151.128 21.165 151.781C21.1357 152.426 20.9963 153.005 20.747 153.519C20.4977 154.025 20.109 154.41 19.581 154.674C19.141 154.886 18.6973 155.004 18.25 155.026C17.7953 155.04 17.2783 155.048 16.699 155.048H5.82L5.82 153.442H16.633C17.1317 153.442 17.5497 153.438 17.887 153.431C18.217 153.416 18.5103 153.339 18.767 153.2C19.2583 152.936 19.5517 152.518 19.647 151.946C19.7423 151.366 19.7203 150.651 19.581 149.801H21ZM10.506 157.589H9.12L9.12 149.801H10.506L10.506 157.589Z" fill="#DEDEDE"/>
<path d="M130 276C130 274.895 129.105 274 128 274H118C116.895 274 116 274.895 116 276V317H130V276Z" fill="#5920AD"/>
<path d="M103 308C103 306.895 102.105 306 101 306H90C88.8954 306 88 306.895 88 308V317H103V308Z" fill="#00CAFF"/>
<path d="M116 308C116 306.895 115.105 306 114 306H105C103.895 306 103 306.895 103 308V317H116V308Z" fill="#FFA900"/>
<path d="M88 308C88 306.895 87.1046 306 86 306H78C76.8954 306 76 306.895 76 308V317H88V308Z" fill="#F25733"/>
<path d="M311 182C311 180.895 310.105 180 309 180H300C298.895 180 298 180.895 298 182V317H311V182Z" fill="#5920AD"/>
<path d="M285 297C285 295.895 284.105 295 283 295H273C271.895 295 271 295.895 271 297V317H285V297Z" fill="#00CAFF"/>
<path d="M298 282C298 280.895 297.105 280 296 280H287C285.895 280 285 280.895 285 282V317H298V282Z" fill="#FFA900"/>
<path d="M271 297C271 295.895 270.105 295 269 295H260C258.895 295 258 295.895 258 297V317H271V297Z" fill="#F25733"/>
<path d="M491 47C491 45.8954 490.105 45 489 45H478C476.895 45 476 45.8954 476 47V317H491V47Z" fill="#5920AD"/>
<path d="M464 273C464 271.895 463.105 271 462 271H452C450.895 271 450 271.895 450 273V317H464V273Z" fill="#00CAFF"/>
<path d="M476 247C476 245.895 475.105 245 474 245H466C464.895 245 464 245.895 464 247V317H476V247Z" fill="#FFA900"/>
<path d="M450 273C450 271.895 449.105 271 448 271H438C436.895 271 436 271.895 436 273V317H450V273Z" fill="#F25733"/>
<g filter="url(#filter0_ddddd_2175_2018)">
<path d="M76 317C76 315.895 75.1046 315 74 315H63C61.8954 315 61 315.895 61 317V317H76V317Z" fill="#00FF99"/>
</g>
<g filter="url(#filter1_ddddd_2175_2018)">
<path d="M258 317C258 315.895 257.105 315 256 315H246C244.895 315 244 315.895 244 317V317H258V317Z" fill="#00FF99"/>
</g>
<g filter="url(#filter2_ddddd_2175_2018)">
<path d="M436 308C436 306.895 435.105 306 434 306H424C422.895 306 422 306.895 422 308V317H436V308Z" fill="#00FF99"/>
</g>
<rect x="30" y="5" width="10" height="10" fill="#00FF99"/>
<path d="M45.12 15V4.92H46.366V15H45.12ZM53.5693 15V11.213C53.5693 10.8537 53.5367 10.5083 53.4713 10.177C53.4107 9.84567 53.301 9.54933 53.1423 9.288C52.9883 9.022 52.7783 8.812 52.5123 8.658C52.251 8.504 51.9197 8.427 51.5183 8.427C51.2057 8.427 50.921 8.48067 50.6643 8.588C50.4123 8.69067 50.1953 8.84933 50.0133 9.064C49.8313 9.27867 49.689 9.54933 49.5863 9.876C49.4883 10.198 49.4393 10.5783 49.4393 11.017L48.6203 10.765C48.6203 10.0323 48.751 9.40467 49.0123 8.882C49.2783 8.35467 49.6493 7.951 50.1253 7.671C50.606 7.38633 51.1707 7.244 51.8193 7.244C52.3093 7.244 52.727 7.321 53.0723 7.475C53.4177 7.629 53.7047 7.83433 53.9333 8.091C54.162 8.343 54.3417 8.62767 54.4723 8.945C54.603 9.25767 54.694 9.57733 54.7453 9.904C54.8013 10.226 54.8293 10.5317 54.8293 10.821V15H53.5693ZM48.1793 15V7.44H49.2993V9.463H49.4393V15H48.1793ZM59.4859 15.21C58.7205 15.21 58.0695 15.0397 57.5329 14.699C57.0009 14.3537 56.5949 13.88 56.3149 13.278C56.0349 12.676 55.8902 11.99 55.8809 11.22C55.8902 10.4313 56.0372 9.73833 56.3219 9.141C56.6112 8.539 57.0242 8.07 57.5609 7.734C58.0975 7.398 58.7439 7.23 59.4999 7.23C60.2979 7.23 60.9839 7.426 61.5579 7.818C62.1365 8.21 62.5239 8.74667 62.7199 9.428L61.4879 9.799C61.3292 9.36033 61.0702 9.01967 60.7109 8.777C60.3562 8.53433 59.9479 8.413 59.4859 8.413C58.9679 8.413 58.5409 8.53433 58.2049 8.777C57.8689 9.015 57.6192 9.34633 57.4559 9.771C57.2925 10.191 57.2085 10.674 57.2039 11.22C57.2132 12.06 57.4069 12.739 57.7849 13.257C58.1675 13.7703 58.7345 14.027 59.4859 14.027C59.9805 14.027 60.3912 13.915 60.7179 13.691C61.0445 13.4623 61.2919 13.1333 61.4599 12.704L62.7199 13.033C62.4585 13.7377 62.0502 14.2767 61.4949 14.65C60.9395 15.0233 60.2699 15.21 59.4859 15.21ZM66.9394 15.21C66.1974 15.21 65.5488 15.0467 64.9934 14.72C64.4428 14.3887 64.0134 13.929 63.7054 13.341C63.3974 12.7483 63.2434 12.0577 63.2434 11.269C63.2434 10.443 63.3951 9.729 63.6984 9.127C64.0018 8.52033 64.4241 8.05367 64.9654 7.727C65.5114 7.39567 66.1508 7.23 66.8834 7.23C67.6441 7.23 68.2904 7.405 68.8224 7.755C69.3591 8.105 69.7604 8.60433 70.0264 9.253C70.2971 9.90167 70.4138 10.674 70.3764 11.57H69.1164V11.122C69.1024 10.1933 68.9134 9.50033 68.5494 9.043C68.1854 8.581 67.6441 8.35 66.9254 8.35C66.1554 8.35 65.5698 8.59733 65.1684 9.092C64.7671 9.58667 64.5664 10.296 64.5664 11.22C64.5664 12.1113 64.7671 12.802 65.1684 13.292C65.5698 13.782 66.1414 14.027 66.8834 14.027C67.3828 14.027 67.8168 13.9127 68.1854 13.684C68.5541 13.4553 68.8434 13.1263 69.0534 12.697L70.2504 13.11C69.9564 13.7773 69.5131 14.2953 68.9204 14.664C68.3324 15.028 67.6721 15.21 66.9394 15.21ZM64.1464 11.57V10.569H69.7324V11.57H64.1464ZM71.6549 15V7.44H72.7679V9.267L72.5859 9.029C72.6746 8.79567 72.7889 8.581 72.9289 8.385C73.0736 8.189 73.2346 8.028 73.4119 7.902C73.6079 7.74333 73.8296 7.622 74.0769 7.538C74.3243 7.454 74.5763 7.405 74.8329 7.391C75.0896 7.37233 75.3299 7.38867 75.5539 7.44V8.609C75.2926 8.539 75.0056 8.52033 74.6929 8.553C74.3803 8.58567 74.0909 8.7 73.8249 8.896C73.5823 9.06867 73.3933 9.27867 73.2579 9.526C73.1273 9.77333 73.0363 10.0417 72.9849 10.331C72.9336 10.6157 72.9079 10.9073 72.9079 11.206V15H71.6549ZM80.8186 15C80.3706 15.0887 79.9272 15.1237 79.4886 15.105C79.0546 15.091 78.6672 15.0047 78.3266 14.846C77.9859 14.6827 77.7269 14.4307 77.5496 14.09C77.4002 13.7913 77.3186 13.4903 77.3046 13.187C77.2952 12.879 77.2906 12.5313 77.2906 12.144V5.34H78.5366V12.088C78.5366 12.396 78.5389 12.6597 78.5436 12.879C78.5529 13.0983 78.6019 13.2873 78.6906 13.446C78.8586 13.7447 79.1246 13.9197 79.4886 13.971C79.8572 14.0223 80.3006 14.0083 80.8186 13.929V15ZM75.7576 8.469V7.44H80.8186V8.469H75.7576ZM84.979 15.21C84.2277 15.21 83.579 15.0397 83.033 14.699C82.4917 14.3583 82.074 13.887 81.78 13.285C81.486 12.683 81.339 11.9923 81.339 11.213C81.339 10.4197 81.4883 9.72433 81.787 9.127C82.0857 8.52967 82.508 8.06533 83.054 7.734C83.6 7.398 84.2417 7.23 84.979 7.23C85.735 7.23 86.386 7.40033 86.932 7.741C87.478 8.077 87.8957 8.546 88.185 9.148C88.479 9.74533 88.626 10.4337 88.626 11.213C88.626 12.0017 88.479 12.697 88.185 13.299C87.891 13.8963 87.471 14.3653 86.925 14.706C86.379 15.042 85.7303 15.21 84.979 15.21ZM84.979 14.027C85.763 14.027 86.3463 13.7657 86.729 13.243C87.1117 12.7203 87.303 12.0437 87.303 11.213C87.303 10.359 87.1093 9.68 86.722 9.176C86.3347 8.66733 85.7537 8.413 84.979 8.413C84.4517 8.413 84.0177 8.532 83.677 8.77C83.3363 9.008 83.082 9.337 82.914 9.757C82.746 10.177 82.662 10.6623 82.662 11.213C82.662 12.0623 82.858 12.7437 83.25 13.257C83.642 13.7703 84.2183 14.027 84.979 14.027Z" fill="#EDEDED"/>
<rect x="117" y="5" width="10" height="10" fill="#F25733"/>
<path d="M136.291 15.21C135.577 15.21 134.933 15.0887 134.359 14.846C133.79 14.6033 133.318 14.258 132.945 13.81C132.576 13.3573 132.336 12.823 132.224 12.207L133.512 12.004C133.675 12.6387 134.014 13.1357 134.527 13.495C135.045 13.8497 135.654 14.027 136.354 14.027C136.807 14.027 137.215 13.957 137.579 13.817C137.948 13.6723 138.239 13.467 138.454 13.201C138.669 12.935 138.776 12.62 138.776 12.256C138.776 12.032 138.736 11.8407 138.657 11.682C138.582 11.5187 138.477 11.381 138.342 11.269C138.211 11.1523 138.062 11.0543 137.894 10.975C137.726 10.8957 137.551 10.8303 137.369 10.779L134.8 10.016C134.52 9.932 134.249 9.827 133.988 9.701C133.727 9.57033 133.493 9.40933 133.288 9.218C133.083 9.022 132.919 8.78867 132.798 8.518C132.677 8.24267 132.616 7.91833 132.616 7.545C132.616 6.94767 132.77 6.439 133.078 6.019C133.391 5.59433 133.813 5.27 134.345 5.046C134.877 4.822 135.477 4.71233 136.144 4.717C136.821 4.72167 137.425 4.843 137.957 5.081C138.494 5.31433 138.937 5.65033 139.287 6.089C139.642 6.52767 139.88 7.05267 140.001 7.664L138.678 7.895C138.608 7.48433 138.452 7.132 138.209 6.838C137.971 6.53933 137.672 6.31067 137.313 6.152C136.954 5.98867 136.559 5.90467 136.13 5.9C135.719 5.89533 135.348 5.96067 135.017 6.096C134.686 6.23133 134.422 6.42033 134.226 6.663C134.03 6.901 133.932 7.17633 133.932 7.489C133.932 7.797 134.021 8.04667 134.198 8.238C134.375 8.42467 134.592 8.574 134.849 8.686C135.11 8.79333 135.365 8.882 135.612 8.952L137.53 9.505C137.749 9.56567 138.001 9.64967 138.286 9.757C138.575 9.86433 138.855 10.016 139.126 10.212C139.397 10.4033 139.621 10.66 139.798 10.982C139.975 11.2993 140.064 11.7007 140.064 12.186C140.064 12.6713 139.966 13.103 139.77 13.481C139.579 13.859 139.31 14.1763 138.965 14.433C138.62 14.685 138.218 14.8763 137.761 15.007C137.304 15.1423 136.814 15.21 136.291 15.21ZM141.392 6.103V4.815H142.638V6.103H141.392ZM141.392 15V7.44H142.638V15H141.392ZM147.518 18.57C147.121 18.57 146.734 18.5093 146.356 18.388C145.978 18.2667 145.63 18.0823 145.313 17.835C145 17.5923 144.739 17.2843 144.529 16.911L145.67 16.309C145.856 16.6777 146.12 16.946 146.461 17.114C146.806 17.282 147.161 17.366 147.525 17.366C148.005 17.366 148.404 17.2773 148.722 17.1C149.039 16.9273 149.272 16.6683 149.422 16.323C149.576 15.9777 149.65 15.5483 149.646 15.035V12.97H149.793V7.44H150.899V15.049C150.899 15.2543 150.892 15.4527 150.878 15.644C150.868 15.8353 150.845 16.0243 150.808 16.211C150.71 16.7477 150.516 17.1887 150.227 17.534C149.937 17.884 149.564 18.143 149.107 18.311C148.649 18.4837 148.12 18.57 147.518 18.57ZM147.427 15.21C146.722 15.21 146.118 15.035 145.614 14.685C145.11 14.3303 144.72 13.852 144.445 13.25C144.174 12.648 144.039 11.969 144.039 11.213C144.039 10.457 144.174 9.778 144.445 9.176C144.72 8.574 145.11 8.10033 145.614 7.755C146.118 7.405 146.72 7.23 147.42 7.23C148.134 7.23 148.733 7.40267 149.219 7.748C149.704 8.09333 150.07 8.567 150.318 9.169C150.57 9.771 150.696 10.4523 150.696 11.213C150.696 11.9643 150.57 12.6433 150.318 13.25C150.07 13.852 149.704 14.3303 149.219 14.685C148.733 15.035 148.136 15.21 147.427 15.21ZM147.581 14.069C148.089 14.069 148.507 13.9477 148.834 13.705C149.16 13.4577 149.401 13.1193 149.555 12.69C149.713 12.256 149.793 11.7637 149.793 11.213C149.793 10.653 149.713 10.1607 149.555 9.736C149.401 9.30667 149.163 8.973 148.841 8.735C148.519 8.49233 148.11 8.371 147.616 8.371C147.102 8.371 146.678 8.497 146.342 8.749C146.01 9.001 145.763 9.34167 145.6 9.771C145.441 10.2003 145.362 10.681 145.362 11.213C145.362 11.7497 145.443 12.235 145.607 12.669C145.77 13.0983 146.015 13.439 146.342 13.691C146.673 13.943 147.086 14.069 147.581 14.069ZM157.956 15V11.213C157.956 10.8537 157.924 10.5083 157.858 10.177C157.798 9.84567 157.688 9.54933 157.529 9.288C157.375 9.022 157.165 8.812 156.899 8.658C156.638 8.504 156.307 8.427 155.905 8.427C155.593 8.427 155.308 8.48067 155.051 8.588C154.799 8.69067 154.582 8.84933 154.4 9.064C154.218 9.27867 154.076 9.54933 153.973 9.876C153.875 10.198 153.826 10.5783 153.826 11.017L153.007 10.765C153.007 10.0323 153.138 9.40467 153.399 8.882C153.665 8.35467 154.036 7.951 154.512 7.671C154.993 7.38633 155.558 7.244 156.206 7.244C156.696 7.244 157.114 7.321 157.459 7.475C157.805 7.629 158.092 7.83433 158.32 8.091C158.549 8.343 158.729 8.62767 158.859 8.945C158.99 9.25767 159.081 9.57733 159.132 9.904C159.188 10.226 159.216 10.5317 159.216 10.821V15H157.956ZM152.566 15V7.44H153.686V9.463H153.826V15H152.566ZM163.908 15.21C163.156 15.21 162.508 15.0397 161.962 14.699C161.42 14.3583 161.003 13.887 160.709 13.285C160.415 12.683 160.268 11.9923 160.268 11.213C160.268 10.4197 160.417 9.72433 160.716 9.127C161.014 8.52967 161.437 8.06533 161.983 7.734C162.529 7.398 163.17 7.23 163.908 7.23C164.664 7.23 165.315 7.40033 165.861 7.741C166.407 8.077 166.824 8.546 167.114 9.148C167.408 9.74533 167.555 10.4337 167.555 11.213C167.555 12.0017 167.408 12.697 167.114 13.299C166.82 13.8963 166.4 14.3653 165.854 14.706C165.308 15.042 164.659 15.21 163.908 15.21ZM163.908 14.027C164.692 14.027 165.275 13.7657 165.658 13.243C166.04 12.7203 166.232 12.0437 166.232 11.213C166.232 10.359 166.038 9.68 165.651 9.176C165.263 8.66733 164.682 8.413 163.908 8.413C163.38 8.413 162.946 8.532 162.606 8.77C162.265 9.008 162.011 9.337 161.843 9.757C161.675 10.177 161.591 10.6623 161.591 11.213C161.591 12.0623 161.787 12.7437 162.179 13.257C162.571 13.7703 163.147 14.027 163.908 14.027ZM167.843 15V14.776L172.428 8.574H168.221V7.44H174.437V7.678L169.859 13.866H174.199V15H167.843Z" fill="#EDEDED"/>
<rect x="202" y="5" width="10" height="10" fill="#00CAFF"/>
<path d="M217.714 15V4.92H218.974L224.231 12.795V4.92H225.491V15H224.231L218.974 7.118V15H217.714ZM230.445 15.21C229.703 15.21 229.054 15.0467 228.499 14.72C227.948 14.3887 227.519 13.929 227.211 13.341C226.903 12.7483 226.749 12.0577 226.749 11.269C226.749 10.443 226.9 9.729 227.204 9.127C227.507 8.52033 227.929 8.05367 228.471 7.727C229.017 7.39567 229.656 7.23 230.389 7.23C231.149 7.23 231.796 7.405 232.328 7.755C232.864 8.105 233.266 8.60433 233.532 9.253C233.802 9.90167 233.919 10.674 233.882 11.57H232.622V11.122C232.608 10.1933 232.419 9.50033 232.055 9.043C231.691 8.581 231.149 8.35 230.431 8.35C229.661 8.35 229.075 8.59733 228.674 9.092C228.272 9.58667 228.072 10.296 228.072 11.22C228.072 12.1113 228.272 12.802 228.674 13.292C229.075 13.782 229.647 14.027 230.389 14.027C230.888 14.027 231.322 13.9127 231.691 13.684C232.059 13.4553 232.349 13.1263 232.559 12.697L233.756 13.11C233.462 13.7773 233.018 14.2953 232.426 14.664C231.838 15.028 231.177 15.21 230.445 15.21ZM227.652 11.57V10.569H233.238V11.57H227.652ZM236.497 15L234.187 7.433L235.426 7.44L237.113 12.97L238.814 7.44H239.913L241.607 12.97L243.301 7.44H244.533L242.223 15H241.187L239.36 9.253L237.533 15H236.497ZM248.039 15V4.92H252.022C252.12 4.92 252.237 4.92467 252.372 4.934C252.508 4.93867 252.638 4.95267 252.764 4.976C253.31 5.06 253.768 5.24667 254.136 5.536C254.51 5.82533 254.79 6.19167 254.976 6.635C255.163 7.07367 255.256 7.56133 255.256 8.098C255.256 8.87733 255.053 9.554 254.647 10.128C254.241 10.6973 253.646 11.0543 252.862 11.199L252.386 11.276H249.285V15H248.039ZM254.038 15L252.05 10.898L253.282 10.52L255.466 15H254.038ZM249.285 10.093H251.98C252.069 10.093 252.169 10.0883 252.281 10.079C252.398 10.0697 252.508 10.0533 252.61 10.03C252.932 9.95533 253.194 9.82 253.394 9.624C253.6 9.42333 253.749 9.19 253.842 8.924C253.936 8.65333 253.982 8.378 253.982 8.098C253.982 7.818 253.936 7.545 253.842 7.279C253.749 7.00833 253.6 6.77267 253.394 6.572C253.194 6.37133 252.932 6.236 252.61 6.166C252.508 6.138 252.398 6.12167 252.281 6.117C252.169 6.10767 252.069 6.103 251.98 6.103H249.285V10.093ZM260.004 15.21C259.262 15.21 258.614 15.0467 258.058 14.72C257.508 14.3887 257.078 13.929 256.77 13.341C256.462 12.7483 256.308 12.0577 256.308 11.269C256.308 10.443 256.46 9.729 256.763 9.127C257.067 8.52033 257.489 8.05367 258.03 7.727C258.576 7.39567 259.216 7.23 259.948 7.23C260.709 7.23 261.355 7.405 261.887 7.755C262.424 8.105 262.825 8.60433 263.091 9.253C263.362 9.90167 263.479 10.674 263.441 11.57H262.181V11.122C262.167 10.1933 261.978 9.50033 261.614 9.043C261.25 8.581 260.709 8.35 259.99 8.35C259.22 8.35 258.635 8.59733 258.233 9.092C257.832 9.58667 257.631 10.296 257.631 11.22C257.631 12.1113 257.832 12.802 258.233 13.292C258.635 13.782 259.206 14.027 259.948 14.027C260.448 14.027 260.882 13.9127 261.25 13.684C261.619 13.4553 261.908 13.1263 262.118 12.697L263.315 13.11C263.021 13.7773 262.578 14.2953 261.985 14.664C261.397 15.028 260.737 15.21 260.004 15.21ZM257.211 11.57V10.569H262.797V11.57H257.211ZM264.86 15V4.71H266.106V15H264.86ZM268.066 6.103V4.815H269.312V6.103H268.066ZM268.066 15V7.44H269.312V15H268.066ZM274.317 15.21C273.552 15.21 272.901 15.0397 272.364 14.699C271.832 14.3537 271.426 13.88 271.146 13.278C270.866 12.676 270.722 11.99 270.712 11.22C270.722 10.4313 270.869 9.73833 271.153 9.141C271.443 8.539 271.856 8.07 272.392 7.734C272.929 7.398 273.575 7.23 274.331 7.23C275.129 7.23 275.815 7.426 276.389 7.818C276.968 8.21 277.355 8.74667 277.551 9.428L276.319 9.799C276.161 9.36033 275.902 9.01967 275.542 8.777C275.188 8.53433 274.779 8.413 274.317 8.413C273.799 8.413 273.372 8.53433 273.036 8.777C272.7 9.015 272.451 9.34633 272.287 9.771C272.124 10.191 272.04 10.674 272.035 11.22C272.045 12.06 272.238 12.739 272.616 13.257C272.999 13.7703 273.566 14.027 274.317 14.027C274.812 14.027 275.223 13.915 275.549 13.691C275.876 13.4623 276.123 13.1333 276.291 12.704L277.551 13.033C277.29 13.7377 276.882 14.2767 276.326 14.65C275.771 15.0233 275.101 15.21 274.317 15.21Z" fill="#EDEDED"/>
<rect x="305" y="5" width="10" height="10" fill="#FFA900"/>
<path d="M324.815 15.21C324.125 15.21 323.495 15.0887 322.925 14.846C322.356 14.6033 321.866 14.2557 321.455 13.803C321.045 13.3457 320.727 12.795 320.503 12.151C320.284 11.5023 320.174 10.772 320.174 9.96C320.174 8.88667 320.366 7.958 320.748 7.174C321.131 6.39 321.67 5.78567 322.365 5.361C323.061 4.93167 323.877 4.717 324.815 4.717C325.945 4.717 326.855 4.98067 327.545 5.508C328.236 6.03067 328.712 6.747 328.973 7.657L327.713 7.916C327.503 7.30467 327.158 6.817 326.677 6.453C326.197 6.089 325.597 5.907 324.878 5.907C324.127 5.90233 323.502 6.07033 323.002 6.411C322.508 6.747 322.134 7.22067 321.882 7.832C321.63 8.44333 321.502 9.15267 321.497 9.96C321.493 10.7627 321.616 11.4673 321.868 12.074C322.12 12.6807 322.496 13.1567 322.995 13.502C323.499 13.8427 324.127 14.0153 324.878 14.02C325.527 14.0247 326.073 13.901 326.516 13.649C326.96 13.397 327.303 13.033 327.545 12.557C327.788 12.081 327.935 11.5093 327.986 10.842H325.844V9.813H329.302C329.316 9.90633 329.323 10.0183 329.323 10.149C329.328 10.275 329.33 10.3613 329.33 10.408C329.33 11.3273 329.158 12.151 328.812 12.879C328.472 13.6023 327.965 14.1717 327.293 14.587C326.626 15.0023 325.8 15.21 324.815 15.21ZM330.448 15V7.44H331.561V9.267L331.379 9.029C331.468 8.79567 331.582 8.581 331.722 8.385C331.867 8.189 332.028 8.028 332.205 7.902C332.401 7.74333 332.623 7.622 332.87 7.538C333.118 7.454 333.37 7.405 333.626 7.391C333.883 7.37233 334.123 7.38867 334.347 7.44V8.609C334.086 8.539 333.799 8.52033 333.486 8.553C333.174 8.58567 332.884 8.7 332.618 8.896C332.376 9.06867 332.187 9.27867 332.051 9.526C331.921 9.77333 331.83 10.0417 331.778 10.331C331.727 10.6157 331.701 10.9073 331.701 11.206V15H330.448ZM337.294 15.21C336.729 15.21 336.256 15.1073 335.873 14.902C335.495 14.692 335.208 14.4167 335.012 14.076C334.821 13.7353 334.725 13.362 334.725 12.956C334.725 12.5593 334.8 12.2163 334.949 11.927C335.103 11.633 335.318 11.3903 335.593 11.199C335.868 11.003 336.197 10.849 336.58 10.737C336.939 10.639 337.341 10.555 337.784 10.485C338.232 10.4103 338.685 10.3427 339.142 10.282C339.599 10.2213 340.026 10.163 340.423 10.107L339.975 10.366C339.989 9.694 339.854 9.197 339.569 8.875C339.289 8.553 338.804 8.392 338.113 8.392C337.656 8.392 337.254 8.497 336.909 8.707C336.568 8.91233 336.328 9.24833 336.188 9.715L335.005 9.358C335.187 8.69533 335.539 8.175 336.062 7.797C336.585 7.419 337.273 7.23 338.127 7.23C338.813 7.23 339.401 7.35367 339.891 7.601C340.386 7.84367 340.74 8.21233 340.955 8.707C341.062 8.94033 341.13 9.19467 341.158 9.47C341.186 9.74067 341.2 10.0253 341.2 10.324V15H340.094V13.187L340.353 13.355C340.068 13.9663 339.669 14.4283 339.156 14.741C338.647 15.0537 338.027 15.21 337.294 15.21ZM337.483 14.167C337.931 14.167 338.318 14.0877 338.645 13.929C338.976 13.7657 339.242 13.5533 339.443 13.292C339.644 13.026 339.774 12.7367 339.835 12.424C339.905 12.1907 339.942 11.9317 339.947 11.647C339.956 11.3577 339.961 11.136 339.961 10.982L340.395 11.171C339.989 11.227 339.59 11.2807 339.198 11.332C338.806 11.3833 338.435 11.4393 338.085 11.5C337.735 11.556 337.42 11.6237 337.14 11.703C336.935 11.7683 336.741 11.8523 336.559 11.955C336.382 12.0577 336.237 12.1907 336.125 12.354C336.018 12.5127 335.964 12.711 335.964 12.949C335.964 13.1543 336.015 13.3503 336.118 13.537C336.225 13.7237 336.389 13.8753 336.608 13.992C336.832 14.1087 337.124 14.167 337.483 14.167ZM343.461 15V7.027C343.461 6.831 343.47 6.63267 343.489 6.432C343.508 6.22667 343.55 6.02833 343.615 5.837C343.68 5.641 343.788 5.46133 343.937 5.298C344.11 5.10667 344.299 4.97133 344.504 4.892C344.709 4.808 344.917 4.75667 345.127 4.738C345.342 4.71933 345.545 4.71 345.736 4.71H346.695V5.746H345.806C345.437 5.746 345.162 5.837 344.98 6.019C344.798 6.19633 344.707 6.467 344.707 6.831V15H343.461ZM342.18 8.469V7.44H346.695V8.469H342.18ZM349.476 15.21C348.911 15.21 348.438 15.1073 348.055 14.902C347.677 14.692 347.39 14.4167 347.194 14.076C347.003 13.7353 346.907 13.362 346.907 12.956C346.907 12.5593 346.982 12.2163 347.131 11.927C347.285 11.633 347.5 11.3903 347.775 11.199C348.05 11.003 348.379 10.849 348.762 10.737C349.121 10.639 349.523 10.555 349.966 10.485C350.414 10.4103 350.867 10.3427 351.324 10.282C351.781 10.2213 352.208 10.163 352.605 10.107L352.157 10.366C352.171 9.694 352.036 9.197 351.751 8.875C351.471 8.553 350.986 8.392 350.295 8.392C349.838 8.392 349.436 8.497 349.091 8.707C348.75 8.91233 348.51 9.24833 348.37 9.715L347.187 9.358C347.369 8.69533 347.721 8.175 348.244 7.797C348.767 7.419 349.455 7.23 350.309 7.23C350.995 7.23 351.583 7.35367 352.073 7.601C352.568 7.84367 352.922 8.21233 353.137 8.707C353.244 8.94033 353.312 9.19467 353.34 9.47C353.368 9.74067 353.382 10.0253 353.382 10.324V15H352.276V13.187L352.535 13.355C352.25 13.9663 351.851 14.4283 351.338 14.741C350.829 15.0537 350.209 15.21 349.476 15.21ZM349.665 14.167C350.113 14.167 350.5 14.0877 350.827 13.929C351.158 13.7657 351.424 13.5533 351.625 13.292C351.826 13.026 351.956 12.7367 352.017 12.424C352.087 12.1907 352.124 11.9317 352.129 11.647C352.138 11.3577 352.143 11.136 352.143 10.982L352.577 11.171C352.171 11.227 351.772 11.2807 351.38 11.332C350.988 11.3833 350.617 11.4393 350.267 11.5C349.917 11.556 349.602 11.6237 349.322 11.703C349.117 11.7683 348.923 11.8523 348.741 11.955C348.564 12.0577 348.419 12.1907 348.307 12.354C348.2 12.5127 348.146 12.711 348.146 12.949C348.146 13.1543 348.197 13.3503 348.3 13.537C348.407 13.7237 348.571 13.8753 348.79 13.992C349.014 14.1087 349.306 14.167 349.665 14.167ZM360.305 15V11.213C360.305 10.8537 360.272 10.5083 360.207 10.177C360.146 9.84567 360.037 9.54933 359.878 9.288C359.724 9.022 359.514 8.812 359.248 8.658C358.987 8.504 358.655 8.427 358.254 8.427C357.941 8.427 357.657 8.48067 357.4 8.588C357.148 8.69067 356.931 8.84933 356.749 9.064C356.567 9.27867 356.425 9.54933 356.322 9.876C356.224 10.198 356.175 10.5783 356.175 11.017L355.356 10.765C355.356 10.0323 355.487 9.40467 355.748 8.882C356.014 8.35467 356.385 7.951 356.861 7.671C357.342 7.38633 357.906 7.244 358.555 7.244C359.045 7.244 359.463 7.321 359.808 7.475C360.153 7.629 360.44 7.83433 360.669 8.091C360.898 8.343 361.077 8.62767 361.208 8.945C361.339 9.25767 361.43 9.57733 361.481 9.904C361.537 10.226 361.565 10.5317 361.565 10.821V15H360.305ZM354.915 15V7.44H356.035V9.463H356.175V15H354.915ZM365.254 15.21C364.689 15.21 364.216 15.1073 363.833 14.902C363.455 14.692 363.168 14.4167 362.972 14.076C362.781 13.7353 362.685 13.362 362.685 12.956C362.685 12.5593 362.76 12.2163 362.909 11.927C363.063 11.633 363.278 11.3903 363.553 11.199C363.828 11.003 364.157 10.849 364.54 10.737C364.899 10.639 365.301 10.555 365.744 10.485C366.192 10.4103 366.645 10.3427 367.102 10.282C367.559 10.2213 367.986 10.163 368.383 10.107L367.935 10.366C367.949 9.694 367.814 9.197 367.529 8.875C367.249 8.553 366.764 8.392 366.073 8.392C365.616 8.392 365.214 8.497 364.869 8.707C364.528 8.91233 364.288 9.24833 364.148 9.715L362.965 9.358C363.147 8.69533 363.499 8.175 364.022 7.797C364.545 7.419 365.233 7.23 366.087 7.23C366.773 7.23 367.361 7.35367 367.851 7.601C368.346 7.84367 368.7 8.21233 368.915 8.707C369.022 8.94033 369.09 9.19467 369.118 9.47C369.146 9.74067 369.16 10.0253 369.16 10.324V15H368.054V13.187L368.313 13.355C368.028 13.9663 367.629 14.4283 367.116 14.741C366.607 15.0537 365.987 15.21 365.254 15.21ZM365.443 14.167C365.891 14.167 366.278 14.0877 366.605 13.929C366.936 13.7657 367.202 13.5533 367.403 13.292C367.604 13.026 367.734 12.7367 367.795 12.424C367.865 12.1907 367.902 11.9317 367.907 11.647C367.916 11.3577 367.921 11.136 367.921 10.982L368.355 11.171C367.949 11.227 367.55 11.2807 367.158 11.332C366.766 11.3833 366.395 11.4393 366.045 11.5C365.695 11.556 365.38 11.6237 365.1 11.703C364.895 11.7683 364.701 11.8523 364.519 11.955C364.342 12.0577 364.197 12.1907 364.085 12.354C363.978 12.5127 363.924 12.711 363.924 12.949C363.924 13.1543 363.975 13.3503 364.078 13.537C364.185 13.7237 364.349 13.8753 364.568 13.992C364.792 14.1087 365.084 14.167 365.443 14.167Z" fill="#EDEDED"/>
<rect x="397" y="5" width="10" height="10" fill="#5920AD"/>
<path d="M412.414 15V4.92H415.522C415.625 4.92 415.804 4.92233 416.061 4.927C416.318 4.93167 416.563 4.95033 416.796 4.983C417.575 5.08567 418.226 5.37033 418.749 5.837C419.276 6.299 419.673 6.887 419.939 7.601C420.205 8.315 420.338 9.10133 420.338 9.96C420.338 10.8187 420.205 11.605 419.939 12.319C419.673 13.033 419.276 13.6233 418.749 14.09C418.226 14.552 417.575 14.8343 416.796 14.937C416.563 14.965 416.315 14.9837 416.054 14.993C415.797 14.9977 415.62 15 415.522 15H412.414ZM413.695 13.81H415.522C415.699 13.81 415.898 13.8053 416.117 13.796C416.336 13.782 416.528 13.761 416.691 13.733C417.242 13.6303 417.687 13.3993 418.028 13.04C418.369 12.6807 418.618 12.2327 418.777 11.696C418.936 11.1593 419.015 10.5807 419.015 9.96C419.015 9.32533 418.933 8.73967 418.77 8.203C418.611 7.66633 418.362 7.22067 418.021 6.866C417.68 6.51133 417.237 6.285 416.691 6.187C416.528 6.15433 416.334 6.13333 416.11 6.124C415.886 6.11467 415.69 6.11 415.522 6.11H413.695V13.81ZM423.812 15.21C423.248 15.21 422.774 15.1073 422.391 14.902C422.013 14.692 421.726 14.4167 421.53 14.076C421.339 13.7353 421.243 13.362 421.243 12.956C421.243 12.5593 421.318 12.2163 421.467 11.927C421.621 11.633 421.836 11.3903 422.111 11.199C422.387 11.003 422.716 10.849 423.098 10.737C423.458 10.639 423.859 10.555 424.302 10.485C424.75 10.4103 425.203 10.3427 425.66 10.282C426.118 10.2213 426.545 10.163 426.941 10.107L426.493 10.366C426.507 9.694 426.372 9.197 426.087 8.875C425.807 8.553 425.322 8.392 424.631 8.392C424.174 8.392 423.773 8.497 423.427 8.707C423.087 8.91233 422.846 9.24833 422.706 9.715L421.523 9.358C421.705 8.69533 422.058 8.175 422.58 7.797C423.103 7.419 423.791 7.23 424.645 7.23C425.331 7.23 425.919 7.35367 426.409 7.601C426.904 7.84367 427.259 8.21233 427.473 8.707C427.581 8.94033 427.648 9.19467 427.676 9.47C427.704 9.74067 427.718 10.0253 427.718 10.324V15H426.612V13.187L426.871 13.355C426.587 13.9663 426.188 14.4283 425.674 14.741C425.166 15.0537 424.545 15.21 423.812 15.21ZM424.001 14.167C424.449 14.167 424.837 14.0877 425.163 13.929C425.495 13.7657 425.761 13.5533 425.961 13.292C426.162 13.026 426.293 12.7367 426.353 12.424C426.423 12.1907 426.461 11.9317 426.465 11.647C426.475 11.3577 426.479 11.136 426.479 10.982L426.913 11.171C426.507 11.227 426.108 11.2807 425.716 11.332C425.324 11.3833 424.953 11.4393 424.603 11.5C424.253 11.556 423.938 11.6237 423.658 11.703C423.453 11.7683 423.259 11.8523 423.077 11.955C422.9 12.0577 422.755 12.1907 422.643 12.354C422.536 12.5127 422.482 12.711 422.482 12.949C422.482 13.1543 422.534 13.3503 422.636 13.537C422.744 13.7237 422.907 13.8753 423.126 13.992C423.35 14.1087 423.642 14.167 424.001 14.167ZM433.479 15C433.031 15.0887 432.588 15.1237 432.149 15.105C431.715 15.091 431.328 15.0047 430.987 14.846C430.647 14.6827 430.388 14.4307 430.21 14.09C430.061 13.7913 429.979 13.4903 429.965 13.187C429.956 12.879 429.951 12.5313 429.951 12.144V5.34H431.197V12.088C431.197 12.396 431.2 12.6597 431.204 12.879C431.214 13.0983 431.263 13.2873 431.351 13.446C431.519 13.7447 431.785 13.9197 432.149 13.971C432.518 14.0223 432.961 14.0083 433.479 13.929V15ZM428.418 8.469V7.44H433.479V8.469H428.418ZM436.883 15.21C436.318 15.21 435.845 15.1073 435.462 14.902C435.084 14.692 434.797 14.4167 434.601 14.076C434.41 13.7353 434.314 13.362 434.314 12.956C434.314 12.5593 434.389 12.2163 434.538 11.927C434.692 11.633 434.907 11.3903 435.182 11.199C435.457 11.003 435.786 10.849 436.169 10.737C436.528 10.639 436.93 10.555 437.373 10.485C437.821 10.4103 438.274 10.3427 438.731 10.282C439.188 10.2213 439.615 10.163 440.012 10.107L439.564 10.366C439.578 9.694 439.443 9.197 439.158 8.875C438.878 8.553 438.393 8.392 437.702 8.392C437.245 8.392 436.843 8.497 436.498 8.707C436.157 8.91233 435.917 9.24833 435.777 9.715L434.594 9.358C434.776 8.69533 435.128 8.175 435.651 7.797C436.174 7.419 436.862 7.23 437.716 7.23C438.402 7.23 438.99 7.35367 439.48 7.601C439.975 7.84367 440.329 8.21233 440.544 8.707C440.651 8.94033 440.719 9.19467 440.747 9.47C440.775 9.74067 440.789 10.0253 440.789 10.324V15H439.683V13.187L439.942 13.355C439.657 13.9663 439.258 14.4283 438.745 14.741C438.236 15.0537 437.616 15.21 436.883 15.21ZM437.072 14.167C437.52 14.167 437.907 14.0877 438.234 13.929C438.565 13.7657 438.831 13.5533 439.032 13.292C439.233 13.026 439.363 12.7367 439.424 12.424C439.494 12.1907 439.531 11.9317 439.536 11.647C439.545 11.3577 439.55 11.136 439.55 10.982L439.984 11.171C439.578 11.227 439.179 11.2807 438.787 11.332C438.395 11.3833 438.024 11.4393 437.674 11.5C437.324 11.556 437.009 11.6237 436.729 11.703C436.524 11.7683 436.33 11.8523 436.148 11.955C435.971 12.0577 435.826 12.1907 435.714 12.354C435.607 12.5127 435.553 12.711 435.553 12.949C435.553 13.1543 435.604 13.3503 435.707 13.537C435.814 13.7237 435.978 13.8753 436.197 13.992C436.421 14.1087 436.713 14.167 437.072 14.167ZM445.297 15.21C444.592 15.21 443.988 15.035 443.484 14.685C442.98 14.3303 442.59 13.852 442.315 13.25C442.044 12.648 441.909 11.969 441.909 11.213C441.909 10.457 442.044 9.778 442.315 9.176C442.59 8.574 442.98 8.10033 443.484 7.755C443.988 7.405 444.59 7.23 445.29 7.23C446.004 7.23 446.604 7.40267 447.089 7.748C447.574 8.09333 447.941 8.567 448.188 9.169C448.44 9.771 448.566 10.4523 448.566 11.213C448.566 11.9643 448.44 12.6433 448.188 13.25C447.941 13.852 447.574 14.3303 447.089 14.685C446.604 15.035 446.006 15.21 445.297 15.21ZM445.451 14.069C445.96 14.069 446.377 13.9477 446.704 13.705C447.031 13.4577 447.271 13.1193 447.425 12.69C447.584 12.256 447.663 11.7637 447.663 11.213C447.663 10.653 447.584 10.1607 447.425 9.736C447.271 9.30667 447.033 8.973 446.711 8.735C446.389 8.49233 445.981 8.371 445.486 8.371C444.973 8.371 444.548 8.497 444.212 8.749C443.881 9.001 443.633 9.34167 443.47 9.771C443.311 10.2003 443.232 10.681 443.232 11.213C443.232 11.7497 443.314 12.235 443.477 12.669C443.64 13.0983 443.885 13.439 444.212 13.691C444.543 13.943 444.956 14.069 445.451 14.069ZM447.663 15V9.435H447.523V4.92H448.776V15H447.663ZM453.677 15.21C452.926 15.21 452.277 15.0397 451.731 14.699C451.19 14.3583 450.772 13.887 450.478 13.285C450.184 12.683 450.037 11.9923 450.037 11.213C450.037 10.4197 450.187 9.72433 450.485 9.127C450.784 8.52967 451.206 8.06533 451.752 7.734C452.298 7.398 452.94 7.23 453.677 7.23C454.433 7.23 455.084 7.40033 455.63 7.741C456.176 8.077 456.594 8.546 456.883 9.148C457.177 9.74533 457.324 10.4337 457.324 11.213C457.324 12.0017 457.177 12.697 456.883 13.299C456.589 13.8963 456.169 14.3653 455.623 14.706C455.077 15.042 454.429 15.21 453.677 15.21ZM453.677 14.027C454.461 14.027 455.045 13.7657 455.427 13.243C455.81 12.7203 456.001 12.0437 456.001 11.213C456.001 10.359 455.808 9.68 455.42 9.176C455.033 8.66733 454.452 8.413 453.677 8.413C453.15 8.413 452.716 8.532 452.375 8.77C452.035 9.008 451.78 9.337 451.612 9.757C451.444 10.177 451.36 10.6623 451.36 11.213C451.36 12.0623 451.556 12.7437 451.948 13.257C452.34 13.7703 452.917 14.027 453.677 14.027ZM461.644 18.57C461.248 18.57 460.86 18.5093 460.482 18.388C460.104 18.2667 459.757 18.0823 459.439 17.835C459.127 17.5923 458.865 17.2843 458.655 16.911L459.796 16.309C459.983 16.6777 460.247 16.946 460.587 17.114C460.933 17.282 461.287 17.366 461.651 17.366C462.132 17.366 462.531 17.2773 462.848 17.1C463.166 16.9273 463.399 16.6683 463.548 16.323C463.702 15.9777 463.777 15.5483 463.772 15.035V12.97H463.919V7.44H465.025V15.049C465.025 15.2543 465.018 15.4527 465.004 15.644C464.995 15.8353 464.972 16.0243 464.934 16.211C464.836 16.7477 464.643 17.1887 464.353 17.534C464.064 17.884 463.691 18.143 463.233 18.311C462.776 18.4837 462.246 18.57 461.644 18.57ZM461.553 15.21C460.849 15.21 460.244 15.035 459.74 14.685C459.236 14.3303 458.847 13.852 458.571 13.25C458.301 12.648 458.165 11.969 458.165 11.213C458.165 10.457 458.301 9.778 458.571 9.176C458.847 8.574 459.236 8.10033 459.74 7.755C460.244 7.405 460.846 7.23 461.546 7.23C462.26 7.23 462.86 7.40267 463.345 7.748C463.831 8.09333 464.197 8.567 464.444 9.169C464.696 9.771 464.822 10.4523 464.822 11.213C464.822 11.9643 464.696 12.6433 464.444 13.25C464.197 13.852 463.831 14.3303 463.345 14.685C462.86 15.035 462.263 15.21 461.553 15.21ZM461.707 14.069C462.216 14.069 462.634 13.9477 462.96 13.705C463.287 13.4577 463.527 13.1193 463.681 12.69C463.84 12.256 463.919 11.7637 463.919 11.213C463.919 10.653 463.84 10.1607 463.681 9.736C463.527 9.30667 463.289 8.973 462.967 8.735C462.645 8.49233 462.237 8.371 461.742 8.371C461.229 8.371 460.804 8.497 460.468 8.749C460.137 9.001 459.89 9.34167 459.726 9.771C459.568 10.2003 459.488 10.681 459.488 11.213C459.488 11.7497 459.57 12.235 459.733 12.669C459.897 13.0983 460.142 13.439 460.468 13.691C460.8 13.943 461.213 14.069 461.707 14.069Z" fill="#EDEDED"/>
<defs>
<filter id="filter0_ddddd_2175_2018" x="47" y="299" width="43" height="47" filterUnits="userSpaceOnUse" color-interpolation-filters="sRGB">
<feFlood flood-opacity="0" result="BackgroundImageFix"/>
<feColorMatrix in="SourceAlpha" type="matrix" values="0 0 0 0 0 0 0 0 0 0 0 0 0 0 0 0 0 0 127 0" result="hardAlpha"/>
<feOffset dy="1"/>
<feGaussianBlur stdDeviation="1.5"/>
<feColorMatrix type="matrix" values="0 0 0 0 0 0 0 0 0 1 0 0 0 0 0.6 0 0 0 0.2 0"/>
<feBlend mode="normal" in2="BackgroundImageFix" result="effect1_dropShadow_2175_2018"/>
<feColorMatrix in="SourceAlpha" type="matrix" values="0 0 0 0 0 0 0 0 0 0 0 0 0 0 0 0 0 0 127 0" result="hardAlpha"/>
<feOffset dy="5"/>
<feGaussianBlur stdDeviation="2.5"/>
<feColorMatrix type="matrix" values="0 0 0 0 0 0 0 0 0 1 0 0 0 0 0.6 0 0 0 0.17 0"/>
<feBlend mode="normal" in2="effect1_dropShadow_2175_2018" result="effect2_dropShadow_2175_2018"/>
<feColorMatrix in="SourceAlpha" type="matrix" values="0 0 0 0 0 0 0 0 0 0 0 0 0 0 0 0 0 0 127 0" result="hardAlpha"/>
<feOffset dy="12"/>
<feGaussianBlur stdDeviation="3.5"/>
<feColorMatrix type="matrix" values="0 0 0 0 0 0 0 0 0 1 0 0 0 0 0.6 0 0 0 0.1 0"/>
<feBlend mode="normal" in2="effect2_dropShadow_2175_2018" result="effect3_dropShadow_2175_2018"/>
<feColorMatrix in="SourceAlpha" type="matrix" values="0 0 0 0 0 0 0 0 0 0 0 0 0 0 0 0 0 0 127 0" result="hardAlpha"/>
<feOffset dy="21"/>
<feGaussianBlur stdDeviation="4"/>
<feColorMatrix type="matrix" values="0 0 0 0 0 0 0 0 0 1 0 0 0 0 0.6 0 0 0 0.03 0"/>
<feBlend mode="normal" in2="effect3_dropShadow_2175_2018" result="effect4_dropShadow_2175_2018"/>
<feColorMatrix in="SourceAlpha" type="matrix" values="0 0 0 0 0 0 0 0 0 0 0 0 0 0 0 0 0 0 127 0" result="hardAlpha"/>
<feOffset dy="-2"/>
<feGaussianBlur stdDeviation="7"/>
<feComposite in2="hardAlpha" operator="out"/>
<feColorMatrix type="matrix" values="0 0 0 0 0 0 0 0 0 0 0 0 0 0 0 0 0 0 0.25 0"/>
<feBlend mode="normal" in2="effect4_dropShadow_2175_2018" result="effect5_dropShadow_2175_2018"/>
<feBlend mode="normal" in="SourceGraphic" in2="effect5_dropShadow_2175_2018" result="shape"/>
</filter>
<filter id="filter1_ddddd_2175_2018" x="230" y="299" width="42" height="47" filterUnits="userSpaceOnUse" color-interpolation-filters="sRGB">
<feFlood flood-opacity="0" result="BackgroundImageFix"/>
<feColorMatrix in="SourceAlpha" type="matrix" values="0 0 0 0 0 0 0 0 0 0 0 0 0 0 0 0 0 0 127 0" result="hardAlpha"/>
<feOffset dy="1"/>
<feGaussianBlur stdDeviation="1.5"/>
<feColorMatrix type="matrix" values="0 0 0 0 0 0 0 0 0 1 0 0 0 0 0.6 0 0 0 0.2 0"/>
<feBlend mode="normal" in2="BackgroundImageFix" result="effect1_dropShadow_2175_2018"/>
<feColorMatrix in="SourceAlpha" type="matrix" values="0 0 0 0 0 0 0 0 0 0 0 0 0 0 0 0 0 0 127 0" result="hardAlpha"/>
<feOffset dy="5"/>
<feGaussianBlur stdDeviation="2.5"/>
<feColorMatrix type="matrix" values="0 0 0 0 0 0 0 0 0 1 0 0 0 0 0.6 0 0 0 0.17 0"/>
<feBlend mode="normal" in2="effect1_dropShadow_2175_2018" result="effect2_dropShadow_2175_2018"/>
<feColorMatrix in="SourceAlpha" type="matrix" values="0 0 0 0 0 0 0 0 0 0 0 0 0 0 0 0 0 0 127 0" result="hardAlpha"/>
<feOffset dy="12"/>
<feGaussianBlur stdDeviation="3.5"/>
<feColorMatrix type="matrix" values="0 0 0 0 0 0 0 0 0 1 0 0 0 0 0.6 0 0 0 0.1 0"/>
<feBlend mode="normal" in2="effect2_dropShadow_2175_2018" result="effect3_dropShadow_2175_2018"/>
<feColorMatrix in="SourceAlpha" type="matrix" values="0 0 0 0 0 0 0 0 0 0 0 0 0 0 0 0 0 0 127 0" result="hardAlpha"/>
<feOffset dy="21"/>
<feGaussianBlur stdDeviation="4"/>
<feColorMatrix type="matrix" values="0 0 0 0 0 0 0 0 0 1 0 0 0 0 0.6 0 0 0 0.03 0"/>
<feBlend mode="normal" in2="effect3_dropShadow_2175_2018" result="effect4_dropShadow_2175_2018"/>
<feColorMatrix in="SourceAlpha" type="matrix" values="0 0 0 0 0 0 0 0 0 0 0 0 0 0 0 0 0 0 127 0" result="hardAlpha"/>
<feOffset dy="-2"/>
<feGaussianBlur stdDeviation="7"/>
<feComposite in2="hardAlpha" operator="out"/>
<feColorMatrix type="matrix" values="0 0 0 0 0 0 0 0 0 0 0 0 0 0 0 0 0 0 0.25 0"/>
<feBlend mode="normal" in2="effect4_dropShadow_2175_2018" result="effect5_dropShadow_2175_2018"/>
<feBlend mode="normal" in="SourceGraphic" in2="effect5_dropShadow_2175_2018" result="shape"/>
</filter>
<filter id="filter2_ddddd_2175_2018" x="408" y="290" width="42" height="56" filterUnits="userSpaceOnUse" color-interpolation-filters="sRGB">
<feFlood flood-opacity="0" result="BackgroundImageFix"/>
<feColorMatrix in="SourceAlpha" type="matrix" values="0 0 0 0 0 0 0 0 0 0 0 0 0 0 0 0 0 0 127 0" result="hardAlpha"/>
<feOffset dy="1"/>
<feGaussianBlur stdDeviation="1.5"/>
<feColorMatrix type="matrix" values="0 0 0 0 0 0 0 0 0 1 0 0 0 0 0.6 0 0 0 0.2 0"/>
<feBlend mode="normal" in2="BackgroundImageFix" result="effect1_dropShadow_2175_2018"/>
<feColorMatrix in="SourceAlpha" type="matrix" values="0 0 0 0 0 0 0 0 0 0 0 0 0 0 0 0 0 0 127 0" result="hardAlpha"/>
<feOffset dy="5"/>
<feGaussianBlur stdDeviation="2.5"/>
<feColorMatrix type="matrix" values="0 0 0 0 0 0 0 0 0 1 0 0 0 0 0.6 0 0 0 0.17 0"/>
<feBlend mode="normal" in2="effect1_dropShadow_2175_2018" result="effect2_dropShadow_2175_2018"/>
<feColorMatrix in="SourceAlpha" type="matrix" values="0 0 0 0 0 0 0 0 0 0 0 0 0 0 0 0 0 0 127 0" result="hardAlpha"/>
<feOffset dy="12"/>
<feGaussianBlur stdDeviation="3.5"/>
<feColorMatrix type="matrix" values="0 0 0 0 0 0 0 0 0 1 0 0 0 0 0.6 0 0 0 0.1 0"/>
<feBlend mode="normal" in2="effect2_dropShadow_2175_2018" result="effect3_dropShadow_2175_2018"/>
<feColorMatrix in="SourceAlpha" type="matrix" values="0 0 0 0 0 0 0 0 0 0 0 0 0 0 0 0 0 0 127 0" result="hardAlpha"/>
<feOffset dy="21"/>
<feGaussianBlur stdDeviation="4"/>
<feColorMatrix type="matrix" values="0 0 0 0 0 0 0 0 0 1 0 0 0 0 0.6 0 0 0 0.03 0"/>
<feBlend mode="normal" in2="effect3_dropShadow_2175_2018" result="effect4_dropShadow_2175_2018"/>
<feColorMatrix in="SourceAlpha" type="matrix" values="0 0 0 0 0 0 0 0 0 0 0 0 0 0 0 0 0 0 127 0" result="hardAlpha"/>
<feOffset dy="-2"/>
<feGaussianBlur stdDeviation="7"/>
<feComposite in2="hardAlpha" operator="out"/>
<feColorMatrix type="matrix" values="0 0 0 0 0 0 0 0 0 0 0 0 0 0 0 0 0 0 0.25 0"/>
<feBlend mode="normal" in2="effect4_dropShadow_2175_2018" result="effect5_dropShadow_2175_2018"/>
<feBlend mode="normal" in="SourceGraphic" in2="effect5_dropShadow_2175_2018" result="shape"/>
</filter>
</defs>
</svg>
