<?xml version="1.0" encoding="UTF-8"?> <svg xmlns="http://www.w3.org/2000/svg" width="145" height="30" viewBox="0 0 145 30" fill="none"><g clip-path="url(#clip0_5635_1316)"><path d="M35.4821 0H19.3253L30.9175 14.7515L19.3253 29.503H35.4821L47.073 14.7515L35.4821 0Z" fill="white"></path><path d="M23.3269 14.7197C23.3269 6.82185 17.0326 0.217888 9.18619 0H0.0863037V29.5018H9.18619C17.0326 29.2839 23.3269 22.6187 23.3269 14.7197Z" fill="white"></path><path d="M52.9608 0.0605469H61.314C67.1688 0.0605469 71.1814 3.46719 71.1814 8.89358C71.1814 14.32 67.1688 17.7266 61.314 17.7266H52.9608V0.0605469ZM61.112 13.7385C64.1159 13.7385 66.1332 11.9465 66.1332 8.89358C66.1332 5.8407 64.1135 4.04863 61.112 4.04863H57.9575V13.7398H61.112V13.7385Z" fill="white"></path><path d="M89.0789 0.0605469V17.7254H84.0821V10.8362H77.2688V17.7254H72.2721V0.0605469H77.2688V6.69756H84.0821V0.0605469H89.0789Z" fill="white"></path><path d="M98.2424 13.031H95.5176V17.7254H90.5209V0.0605469H98.5962C103.417 0.0605469 106.445 2.55891 106.445 6.59596C106.445 9.19471 105.183 11.1141 102.987 12.1729L106.798 17.7242H101.447L98.2424 13.0298V13.031ZM98.2938 3.99722H95.5176V9.17023H98.2938C100.363 9.17023 101.398 8.21054 101.398 6.59596C101.398 4.98139 100.363 3.99722 98.2938 3.99722Z" fill="white"></path><path d="M107.392 9.49762V0.121094H112.389V9.34706C112.389 12.3755 113.651 13.5873 115.746 13.5873C117.84 13.5873 119.076 12.3755 119.076 9.34706V0.121094H123.997V9.49885C123.997 14.7735 120.919 17.726 115.694 17.726C110.47 17.726 107.391 14.7735 107.391 9.49885L107.392 9.49762Z" fill="white"></path><path d="M144.894 0.0605469L137.323 17.7254H132.402L124.855 0.0605469H130.257L135.052 11.5682L139.948 0.0605469H144.894Z" fill="white"></path><path d="M54.8558 28.3739V23.196H55.622V28.3739H54.8558ZM53.1188 23.3527V22.6648H57.3578V23.3527H53.1188ZM58.6688 28.3739V24.1973H59.2637V25.9184H59.2319C59.2319 25.3088 59.3653 24.862 59.6309 24.5805C59.9015 24.294 60.3066 24.1508 60.8428 24.1508H60.9836V24.8228H60.7179C60.3005 24.8228 59.9798 24.9355 59.7558 25.1595C59.5318 25.3786 59.4192 25.6968 59.4192 26.1143V28.3752H58.6688V28.3739ZM63.9495 28.4988C63.4538 28.4988 63.0731 28.3372 62.8074 28.014C62.5418 27.6909 62.4084 27.2245 62.4084 26.6137V24.1888H63.1588V26.7618C63.1588 27.0899 63.2469 27.3481 63.4244 27.5367C63.6019 27.719 63.8418 27.8108 64.1442 27.8108C64.4465 27.8108 64.7121 27.7117 64.9104 27.5134C65.1087 27.3102 65.2079 27.0336 65.2079 26.6847V24.19H65.9583V28.3752H65.3634V26.5843H65.4576C65.4576 26.9956 65.4025 27.3457 65.2936 27.6321C65.1846 27.9137 65.0194 28.1303 64.8003 28.2809C64.586 28.4266 64.3131 28.5 63.9789 28.5H63.9471L63.9495 28.4988ZM68.087 28.3739V22.6635H68.8373V28.3739H68.087ZM67.508 23.2585V22.6635H68.8373V23.2585H67.508ZM70.622 30.0007V29.3275H71.2243C71.4018 29.3275 71.5499 29.3042 71.6699 29.2577C71.7947 29.2161 71.8963 29.1427 71.9747 29.0386C72.0579 28.9346 72.1264 28.7962 72.1779 28.6236L73.4925 24.1961H74.2282L72.8364 28.8195C72.7532 29.0961 72.6357 29.3202 72.4839 29.4915C72.3333 29.669 72.1473 29.7963 71.9281 29.8747C71.7139 29.9579 71.4642 29.9995 71.1778 29.9995H70.622V30.0007ZM71.8975 28.2797V27.6542H72.8046V28.2797H71.8975ZM71.8192 28.2797L70.3258 24.1961H71.0921L72.5231 28.2797H71.8192ZM79.433 28.3739V23.196H80.1993V28.3739H79.433ZM77.6961 23.3527V22.6648H81.9351V23.3527H77.6961ZM83.2461 28.3739V24.1973H83.841V25.9184H83.8092C83.8092 25.3088 83.9426 24.862 84.2082 24.5805C84.48 24.294 84.8839 24.1508 85.4213 24.1508H85.5621V24.8228H85.2964C84.879 24.8228 84.5583 24.9355 84.3343 25.1595C84.1103 25.3786 83.9977 25.6968 83.9977 26.1143V28.3752H83.2473L83.2461 28.3739ZM89.5918 28.3739V27.1229H89.4669V25.676C89.4669 25.3896 89.391 25.1729 89.2404 25.0273C89.0948 24.8816 88.8781 24.8082 88.5917 24.8082C88.4301 24.8082 88.2636 24.8106 88.091 24.8155C87.9184 24.8204 87.7544 24.8265 87.5977 24.8314C87.441 24.8363 87.3052 24.8449 87.1913 24.8547V24.1973C87.3064 24.1863 87.4263 24.179 87.5512 24.1741C87.681 24.1631 87.8144 24.1582 87.9503 24.1582C88.0861 24.1533 88.2159 24.1508 88.3407 24.1508C88.7679 24.1508 89.118 24.2035 89.3886 24.3075C89.6603 24.4067 89.8611 24.5707 89.9908 24.8008C90.1206 25.0297 90.1867 25.3406 90.1867 25.7311V28.3752H89.5918V28.3739ZM88.2232 28.4841C87.9099 28.4841 87.6393 28.4315 87.4092 28.3274C87.1852 28.2172 87.0102 28.0618 86.8853 27.8586C86.7653 27.6554 86.7054 27.4106 86.7054 27.1229C86.7054 26.8352 86.7702 26.5782 86.9012 26.3799C87.0371 26.1816 87.2329 26.0335 87.4876 25.9343C87.7434 25.8303 88.0506 25.7776 88.4105 25.7776H89.5452V26.3407H88.3799C88.0776 26.3407 87.845 26.4142 87.6834 26.5598C87.5218 26.7055 87.441 26.894 87.441 27.1229C87.441 27.3518 87.5218 27.5379 87.6834 27.6786C87.845 27.8194 88.0776 27.8904 88.3799 27.8904C88.5574 27.8904 88.7263 27.8586 88.8879 27.7962C89.0495 27.7288 89.1829 27.6187 89.287 27.4681C89.3971 27.3114 89.4559 27.0984 89.4669 26.8267L89.6701 27.1241C89.6444 27.4216 89.571 27.6713 89.451 27.8745C89.3359 28.0728 89.1744 28.2234 88.9663 28.3286C88.7631 28.4327 88.5158 28.4853 88.2232 28.4853V28.4841ZM92.1905 28.3739V24.1973H92.7854V25.9882H92.6912C92.6912 25.5757 92.7462 25.2292 92.8552 24.9477C92.9702 24.6613 93.1416 24.4446 93.3718 24.2989C93.6007 24.1471 93.8908 24.0725 94.2396 24.0725H94.2715C94.7978 24.0725 95.1871 24.2365 95.4368 24.5658C95.6926 24.8938 95.8199 25.3688 95.8199 25.9894V28.3752H95.0696V25.8327C95.0696 25.5096 94.9778 25.2513 94.7954 25.0579C94.613 24.8596 94.362 24.7604 94.045 24.7604C93.728 24.7604 93.4501 24.862 93.2469 25.0652C93.0437 25.2684 92.9421 25.5402 92.9421 25.8792V28.3739H92.1917H92.1905ZM99.1886 28.4988C98.6415 28.4988 98.2155 28.3813 97.9131 28.1462C97.6157 27.9112 97.4614 27.5905 97.4516 27.1841H98.1555C98.1665 27.3457 98.2473 27.4999 98.3979 27.6456C98.5546 27.7864 98.8177 27.8574 99.1874 27.8574C99.5216 27.8574 99.7762 27.7925 99.9537 27.6615C100.131 27.5256 100.219 27.3616 100.219 27.1682C100.219 26.9956 100.154 26.8634 100.023 26.7691C99.8937 26.67 99.6819 26.6051 99.3894 26.5733L98.9352 26.5268C98.5386 26.4852 98.2155 26.3676 97.9658 26.1755C97.716 25.9772 97.59 25.7005 97.59 25.3468C97.59 25.0811 97.6573 24.8534 97.7932 24.6662C97.929 24.4728 98.1163 24.3271 98.3562 24.2279C98.5962 24.1239 98.8728 24.0713 99.185 24.0713C99.6538 24.0713 100.034 24.1753 100.327 24.3846C100.62 24.5927 100.77 24.9036 100.781 25.3149H100.077C100.072 25.1485 99.9941 25.0077 99.8423 24.8926C99.6966 24.7727 99.4775 24.7127 99.185 24.7127C98.8924 24.7127 98.6708 24.7727 98.5203 24.8926C98.3697 25.0126 98.2938 25.1644 98.2938 25.3468C98.2938 25.5034 98.3465 25.6283 98.4505 25.7226C98.5594 25.8168 98.7369 25.8768 98.983 25.9025L99.4371 25.949C99.8851 25.9955 100.245 26.1216 100.517 26.3248C100.789 26.5231 100.923 26.8046 100.923 27.1694C100.923 27.4302 100.847 27.6627 100.697 27.8659C100.551 28.0642 100.348 28.2209 100.087 28.3348C99.8264 28.4449 99.5265 28.4988 99.1874 28.4988H99.1886ZM102.748 28.3739V23.9856C102.748 23.5216 102.871 23.1801 103.116 22.961C103.36 22.7419 103.72 22.6329 104.195 22.6329H104.712V23.2585H104.07C103.877 23.2585 103.729 23.3135 103.625 23.4225C103.521 23.5265 103.468 23.6722 103.468 23.8607V28.3739H102.748ZM102.169 24.8069V24.2439H104.79V24.8069H102.169ZM108.122 28.5147C107.757 28.5147 107.437 28.4523 107.16 28.3274C106.883 28.2026 106.649 28.0385 106.456 27.8341C106.269 27.626 106.126 27.3934 106.026 27.1376C105.932 26.8818 105.886 26.621 105.886 26.3554V26.2146C105.886 25.949 105.935 25.6883 106.034 25.4324C106.133 25.1717 106.279 24.9391 106.472 24.7359C106.665 24.5278 106.899 24.3626 107.176 24.2426C107.452 24.1178 107.768 24.0553 108.122 24.0553C108.476 24.0553 108.792 24.1178 109.068 24.2426C109.345 24.3626 109.58 24.5266 109.772 24.7359C109.966 24.9391 110.111 25.1717 110.21 25.4324C110.309 25.6883 110.358 25.949 110.358 26.2146V26.3554C110.358 26.621 110.309 26.8818 110.21 27.1376C110.116 27.3934 109.973 27.6248 109.781 27.8341C109.593 28.0373 109.361 28.2013 109.084 28.3274C108.808 28.4523 108.487 28.5147 108.122 28.5147ZM108.122 27.8415C108.435 27.8415 108.701 27.7741 108.92 27.6383C109.144 27.4975 109.314 27.3102 109.428 27.0752C109.548 26.8401 109.608 26.577 109.608 26.2856C109.608 25.9943 109.548 25.7226 109.428 25.4875C109.308 25.2525 109.136 25.0677 108.912 24.9318C108.692 24.7959 108.429 24.7286 108.122 24.7286C107.815 24.7286 107.557 24.7959 107.332 24.9318C107.108 25.0677 106.936 25.2525 106.816 25.4875C106.696 25.7226 106.636 25.9882 106.636 26.2856C106.636 26.5831 106.694 26.8414 106.809 27.0752C106.929 27.3102 107.097 27.4975 107.317 27.6383C107.541 27.7741 107.81 27.8415 108.122 27.8415ZM112.11 28.3739V24.1973H112.705V25.9184H112.673C112.673 25.3088 112.807 24.862 113.072 24.5805C113.343 24.294 113.748 24.1508 114.284 24.1508H114.425V24.8228H114.159C113.742 24.8228 113.421 24.9355 113.197 25.1595C112.973 25.3786 112.86 25.6968 112.86 26.1143V28.3752H112.11V28.3739ZM115.944 28.3739V24.1973H116.539V25.9882H116.445C116.445 25.5818 116.497 25.2378 116.601 24.955C116.71 24.6686 116.873 24.4495 117.086 24.2977C117.3 24.1459 117.571 24.0713 117.9 24.0713H117.932C118.26 24.0713 118.532 24.1471 118.746 24.2977C118.965 24.4483 119.127 24.6674 119.231 24.955C119.335 25.2366 119.387 25.5806 119.387 25.9882H119.168C119.168 25.5818 119.223 25.2378 119.332 24.955C119.442 24.6686 119.604 24.4495 119.817 24.2977C120.036 24.1459 120.31 24.0713 120.638 24.0713H120.67C120.998 24.0713 121.272 24.1471 121.492 24.2977C121.711 24.4483 121.872 24.6674 121.976 24.955C122.086 25.2366 122.14 25.5806 122.14 25.9882V28.3739H121.39V25.8242C121.39 25.4851 121.307 25.2243 121.14 25.042C120.974 24.8547 120.741 24.7604 120.444 24.7604C120.146 24.7604 119.888 24.8596 119.701 25.0579C119.513 25.2513 119.419 25.5218 119.419 25.8719V28.3752H118.669V25.8254C118.669 25.4863 118.586 25.2256 118.418 25.0432C118.251 24.8559 118.019 24.7616 117.721 24.7616C117.424 24.7616 117.166 24.8608 116.978 25.0591C116.791 25.2525 116.697 25.523 116.697 25.8731V28.3764H115.946L115.944 28.3739ZM126.666 28.3739V27.1229H126.541V25.676C126.541 25.3896 126.465 25.1729 126.314 25.0273C126.169 24.8816 125.952 24.8082 125.666 24.8082C125.504 24.8082 125.338 24.8106 125.165 24.8155C124.992 24.8204 124.828 24.8265 124.672 24.8314C124.515 24.8363 124.379 24.8449 124.265 24.8547V24.1973C124.38 24.1863 124.5 24.179 124.625 24.1741C124.755 24.1631 124.888 24.1582 125.024 24.1582C125.16 24.1533 125.29 24.1508 125.415 24.1508C125.842 24.1508 126.192 24.2035 126.463 24.3075C126.734 24.4067 126.935 24.5707 127.065 24.8008C127.195 25.0297 127.261 25.3406 127.261 25.7311V28.3752H126.666V28.3739ZM125.297 28.4841C124.984 28.4841 124.713 28.4315 124.483 28.3274C124.259 28.2172 124.084 28.0618 123.959 27.8586C123.839 27.6554 123.779 27.4106 123.779 27.1229C123.779 26.8352 123.844 26.5782 123.975 26.3799C124.111 26.1816 124.306 26.0335 124.562 25.9343C124.817 25.8303 125.125 25.7776 125.485 25.7776H126.619V26.3407H125.454C125.152 26.3407 124.919 26.4142 124.757 26.5598C124.596 26.7055 124.515 26.894 124.515 27.1229C124.515 27.3518 124.596 27.5379 124.757 27.6786C124.919 27.8194 125.152 27.8904 125.454 27.8904C125.631 27.8904 125.8 27.8586 125.962 27.7962C126.123 27.7288 126.257 27.6187 126.361 27.4681C126.471 27.3114 126.531 27.0984 126.541 26.8267L126.744 27.1241C126.718 27.4216 126.645 27.6713 126.525 27.8745C126.41 28.0728 126.248 28.2234 126.04 28.3286C125.837 28.4327 125.589 28.4853 125.297 28.4853V28.4841ZM130.893 28.4217C130.578 28.4217 130.309 28.3776 130.077 28.2882C129.853 28.2001 129.678 28.0483 129.553 27.8341C129.433 27.615 129.373 27.32 129.373 26.9503V22.9292H130.093V27.0433C130.093 27.2674 130.154 27.4424 130.273 27.5673C130.399 27.6872 130.573 27.7472 130.798 27.7472H131.534V28.4204H130.893V28.4217ZM128.655 24.7604V24.1973H131.534V24.7604H128.655ZM133.424 28.3739V24.1973H134.176V28.3739H133.424ZM132.783 24.791V24.1961H134.174V24.791H132.783ZM133.636 23.5241C133.469 23.5241 133.343 23.48 133.26 23.3907C133.182 23.3025 133.144 23.1899 133.144 23.054C133.144 22.9182 133.182 22.8068 133.26 22.7174C133.343 22.6293 133.469 22.584 133.636 22.584C133.802 22.584 133.925 22.6281 134.003 22.7174C134.086 22.8055 134.129 22.9182 134.129 23.054C134.129 23.1899 134.086 23.3013 134.003 23.3907C133.925 23.4788 133.803 23.5241 133.636 23.5241ZM137.144 28.3739L135.722 24.1973H136.504L137.896 28.3739H137.144ZM137.332 28.3739V27.779H138.24V28.3739H137.332ZM137.692 28.3739L138.904 24.1973H139.64L138.404 28.3739H137.692ZM142.946 28.5147C142.581 28.5147 142.267 28.4523 142 28.3274C141.733 28.2026 141.518 28.0385 141.351 27.8341C141.185 27.626 141.059 27.3934 140.975 27.1376C140.897 26.8818 140.859 26.621 140.859 26.3554V26.2146C140.859 25.9429 140.897 25.6797 140.975 25.4251C141.059 25.1693 141.185 24.9404 141.351 24.7372C141.518 24.5291 141.728 24.3638 141.984 24.2439C142.245 24.119 142.55 24.0566 142.9 24.0566C143.353 24.0566 143.726 24.1557 144.017 24.354C144.313 24.5474 144.534 24.7971 144.675 25.1044C144.82 25.4116 144.894 25.7409 144.894 26.0898V26.4264H141.187V25.8633H144.347L144.174 26.1681C144.174 25.8707 144.127 25.6148 144.033 25.4018C143.939 25.1827 143.798 25.0138 143.611 24.8938C143.422 24.7739 143.186 24.7139 142.9 24.7139C142.613 24.7139 142.354 24.7812 142.157 24.9171C141.963 25.053 141.818 25.2378 141.718 25.4728C141.624 25.7079 141.578 25.9784 141.578 26.2869C141.578 26.5953 141.624 26.8524 141.718 27.0923C141.818 27.3273 141.969 27.5146 142.173 27.6554C142.376 27.7913 142.634 27.8586 142.946 27.8586C143.274 27.8586 143.541 27.7851 143.744 27.6395C143.954 27.4938 144.078 27.3237 144.12 27.1315H144.824C144.766 27.4179 144.651 27.6664 144.48 27.8745C144.307 28.0826 144.092 28.2417 143.831 28.3519C143.572 28.4621 143.277 28.5159 142.947 28.5159L142.946 28.5147Z" fill="white"></path></g><defs><clipPath id="clip0_5635_1316"><rect width="144.807" height="30" fill="white" transform="translate(0.0863037)"></rect></clipPath></defs></svg> 