<svg width="347" height="344" viewBox="0 0 347 344" fill="none" xmlns="http://www.w3.org/2000/svg">
<path d="M159.697 86.4342C171.481 79.6262 187.8 80.5841 205.803 90.9159C241.636 111.511 270.53 161.391 270.426 202.376C270.358 222.732 263.143 237.032 251.531 243.772L226.107 258.448L134.274 101.111L159.697 86.4342Z" fill="url(#paint0_linear_988_345)"/>
<path d="M180.38 105.592C164.713 96.5947 150.352 94.6789 139.118 98.8185C124.688 104.155 115.447 119.448 115.378 142.506C115.275 183.457 144.203 233.371 179.967 253.932C215.766 274.527 244.866 258.003 245.003 217.018C245.106 176.033 216.213 126.153 180.414 105.558L180.38 105.592Z" fill="#CFCBC7"/>
<path d="M241.739 189.615C243.354 195.26 244.797 203.95 245.003 217.053C244.178 204.634 242.392 195.534 240.674 189.923C229.818 146.851 181.857 86.0576 139.118 98.8526C179.761 84.2444 230.917 141.719 241.739 189.649V189.615Z" fill="url(#paint1_radial_988_345)"/>
<path d="M180.723 112.947C166.603 104.839 153.65 103.129 143.55 106.858C130.529 111.647 122.215 125.435 122.146 146.201C122.043 183.081 148.085 228.034 180.345 246.577C212.605 265.119 238.819 250.237 238.922 213.323C239.025 176.409 212.983 131.456 180.723 112.913V112.947Z" fill="white"/>
<mask id="mask0_988_345" style="mask-type:luminance" maskUnits="userSpaceOnUse" x="122" y="104" width="117" height="151">
<path d="M180.723 112.947C166.603 104.839 153.65 103.129 143.55 106.858C130.529 111.647 122.215 125.435 122.146 146.201C122.043 183.081 148.085 228.034 180.345 246.577C212.605 265.119 238.819 250.237 238.922 213.323C239.025 176.409 212.983 131.456 180.723 112.913V112.947Z" fill="white"/>
</mask>
<g mask="url(#mask0_988_345)">
<path opacity="0.3" d="M177.082 135.733C179.487 134.843 182.544 135.322 185.636 137.135C192.954 141.343 198.863 151.538 198.829 159.92C198.829 163.991 197.42 167.07 194.878 168.507C193.813 169.123 192.645 169.431 191.339 169.431C189.484 169.431 187.457 168.815 185.327 167.583C178.009 163.375 172.1 153.18 172.134 144.799C172.134 140.18 173.955 136.896 177.082 135.733ZM185.533 167.207C188.969 169.191 192.233 169.499 194.638 168.131C197.042 166.762 198.382 163.82 198.382 159.92C198.382 151.709 192.576 141.651 185.396 137.512C182.407 135.801 179.487 135.322 177.219 136.143C174.264 137.238 172.547 140.385 172.547 144.799C172.547 153.009 178.353 163.067 185.533 167.207Z" fill="#453F38"/>
<path opacity="0.3" d="M184.88 151.161C184.88 151.161 185.258 151.161 185.464 151.264C185.979 151.572 186.392 152.29 186.392 152.872C186.392 153.145 186.289 153.385 186.117 153.487C186.048 153.522 185.945 153.556 185.876 153.556C185.739 153.556 185.601 153.522 185.464 153.419C184.949 153.111 184.536 152.393 184.536 151.811C184.536 151.503 184.674 151.264 184.88 151.161Z" fill="#453F38"/>
<path d="M200.443 131.593L202.23 126.495L202.642 126.906L200.89 132.037L200.443 131.593Z" fill="#453F38"/>
<path d="M184.571 113.324L185.945 114.111L185.911 120.577L184.537 119.756L184.571 113.324Z" fill="#453F38"/>
<path d="M205.322 136.519L207.624 131.969L208.07 132.448L205.768 137.032L205.322 136.519Z" fill="#453F38"/>
<path d="M209.582 141.412L212.399 137.478L213.636 138.983L210.785 142.951L209.582 141.412Z" fill="#453F38"/>
<path d="M195.393 127.179L196.595 121.534L197.042 121.91L195.84 127.555L195.393 127.179Z" fill="#453F38"/>
<path d="M190.205 123.279L190.824 117.224L191.305 117.532L190.686 123.621L190.205 123.279Z" fill="#453F38"/>
<path d="M230.711 180.036L235.83 180.378L236.036 180.96L230.883 180.618L230.711 180.036Z" fill="#453F38"/>
<path d="M214.392 147.706L217.69 144.388L218.068 144.935L214.77 148.254L214.392 147.706Z" fill="#453F38"/>
<path d="M232.566 186.707L237.926 187.768L238.098 188.383L232.738 187.289L232.566 186.707Z" fill="#453F38"/>
<path d="M225.455 166.693L229.99 165.53L230.265 166.112L225.73 167.275L225.455 166.693Z" fill="#453F38"/>
<path d="M228.065 172.748L232.944 172.304L233.666 174.117L228.787 174.527L228.065 172.748Z" fill="#453F38"/>
<path d="M179.212 110.587L179.692 110.792L180.242 117.566L179.761 117.327L179.212 110.587Z" fill="#453F38"/>
<path d="M218.446 153.796L222.225 151.196L222.569 151.744L218.79 154.378L218.446 153.796Z" fill="#453F38"/>
<path d="M222.157 160.159L226.314 158.243L226.657 158.825L222.431 160.741L222.157 160.159Z" fill="#453F38"/>
<path d="M156.811 106.345L158.014 106.208L160.831 113.392L159.629 113.529L156.811 106.345Z" fill="#453F38"/>
<path d="M144.615 120.645L140.08 114.247L140.355 113.974L144.89 120.371L144.615 120.645Z" fill="#453F38"/>
<path d="M141.523 124.34L136.644 118.319L137.366 117.361L142.244 123.417L141.523 124.34Z" fill="#453F38"/>
<path d="M139.358 128.001L134.239 122.424L134.445 122.082L139.564 127.624L139.358 128.001Z" fill="#453F38"/>
<path d="M137.469 132.517L132.143 127.488L132.315 127.043L137.675 132.14L137.469 132.517Z" fill="#453F38"/>
<path d="M136.129 137.546L130.632 133.03L130.735 132.585L136.267 137.101L136.129 137.546Z" fill="#453F38"/>
<path d="M173.439 108.363L173.92 108.5L175.054 115.479L174.608 115.342L173.439 108.363Z" fill="#453F38"/>
<path d="M135.098 149.417L129.464 146.201V144.559L135.098 147.809V149.417Z" fill="#453F38"/>
<path d="M235.04 205.25L240.674 208.5V210.108L235.04 206.858V205.25Z" fill="#453F38"/>
<path d="M135.339 143.02L129.704 139.12L129.807 138.641L135.373 142.506L135.339 143.02Z" fill="#453F38"/>
<path d="M162.411 106.208H162.824L165.125 113.392L164.679 113.427L162.411 106.208Z" fill="#453F38"/>
<path d="M233.94 193.241L239.472 195.089L239.575 195.67L234.078 193.857L233.94 193.241Z" fill="#453F38"/>
<path d="M167.839 106.893L168.252 106.961L170.004 114.111L169.523 114.009L167.839 106.893Z" fill="#453F38"/>
<path d="M147.844 108.774L148.188 108.637L151.933 115.582L151.589 115.753L147.844 108.774Z" fill="#453F38"/>
<path d="M147.913 117.874L143.722 111.168L144.065 110.929L148.222 117.668L147.913 117.874Z" fill="#453F38"/>
<path d="M152.345 107.132L152.723 107.029L156.021 114.145L155.643 114.282L152.345 107.132Z" fill="#453F38"/>
<path d="M213.292 248.322L212.09 248.459L209.307 241.275L210.51 241.138L213.292 248.322Z" fill="#453F38"/>
<path d="M160.556 213.255L157.705 217.19L156.502 215.684L159.354 211.716L160.556 213.255Z" fill="#453F38"/>
<path d="M155.746 206.96L152.414 210.279L152.036 209.732L155.368 206.413L155.746 206.96Z" fill="#453F38"/>
<path d="M144.684 188.007L140.149 189.171L139.874 188.589L144.409 187.392L144.684 188.007Z" fill="#453F38"/>
<path d="M147.982 194.542L143.825 196.423L143.481 195.842L147.707 193.96L147.982 194.542Z" fill="#453F38"/>
<path d="M151.692 200.871L147.913 203.505L147.57 202.958L151.349 200.289L151.692 200.871Z" fill="#453F38"/>
<path d="M169.695 223.074L167.908 228.205L167.496 227.795L169.214 222.629L169.695 223.074Z" fill="#453F38"/>
<path d="M174.745 227.521L173.543 233.166L173.096 232.755L174.264 227.11L174.745 227.521Z" fill="#453F38"/>
<path d="M164.816 218.113L162.48 222.697L162.068 222.218L164.37 217.634L164.816 218.113Z" fill="#453F38"/>
<path d="M137.572 167.994L132.212 166.899L132.006 166.283L137.4 167.378L137.572 167.994Z" fill="#453F38"/>
<path d="M135.339 155.027L129.773 152.461L129.67 151.914L135.305 154.446L135.339 155.027Z" fill="#453F38"/>
<path d="M234.765 199.639L240.365 202.205L240.434 202.752L234.834 200.22L234.765 199.639Z" fill="#453F38"/>
<path d="M136.198 161.391L130.666 159.612L130.563 158.962L136.06 160.809L136.198 161.391Z" fill="#453F38"/>
<path d="M139.427 174.665L134.308 174.323L134.068 173.707L139.255 174.049L139.427 174.665Z" fill="#453F38"/>
<path d="M142.073 181.952L137.194 182.362L136.473 180.583L141.351 180.173L142.073 181.952Z" fill="#453F38"/>
<path d="M179.898 231.387L179.314 237.477L178.833 237.135L179.417 231.045L179.898 231.387Z" fill="#453F38"/>
<path d="M234.009 217.121L239.506 221.637L239.369 222.082L233.872 217.566L234.009 217.121Z" fill="#453F38"/>
<path d="M232.635 222.15L237.995 227.214L237.823 227.624L232.463 222.561L232.635 222.15Z" fill="#453F38"/>
<path d="M230.78 226.666L235.899 232.208L235.693 232.585L230.574 227.042L230.78 226.666Z" fill="#453F38"/>
<path d="M228.616 230.326L233.494 236.347L232.773 237.305L227.894 231.284L228.616 230.326Z" fill="#453F38"/>
<path d="M222.294 245.926L221.95 246.063L218.206 239.118L218.549 238.947L222.294 245.926Z" fill="#453F38"/>
<path d="M222.225 236.792L226.417 243.532L226.073 243.737L221.916 237.031L222.225 236.792Z" fill="#453F38"/>
<path d="M225.523 234.021L230.058 240.453L229.783 240.727L225.248 234.295L225.523 234.021Z" fill="#453F38"/>
<path d="M234.799 211.647L240.399 215.548L240.331 216.027L234.731 212.161L234.799 211.647Z" fill="#453F38"/>
<path d="M207.727 248.493L207.315 248.459L205.013 241.24L205.46 241.274L207.727 248.493Z" fill="#453F38"/>
<path d="M202.299 247.808L201.852 247.706L200.134 240.59L200.581 240.658L202.299 247.808Z" fill="#453F38"/>
<path d="M196.699 246.303L196.218 246.201L195.084 239.222L195.531 239.324L196.699 246.303Z" fill="#453F38"/>
<path d="M190.927 244.114L190.446 243.874L189.896 237.135L190.343 237.34L190.927 244.114Z" fill="#453F38"/>
<path d="M185.602 234.911L185.567 241.377L184.193 240.556L184.227 234.124L185.602 234.911Z" fill="#453F38"/>
<path d="M217.759 247.501L217.381 247.638L214.117 240.522L214.495 240.419L217.759 247.501Z" fill="#453F38"/>
<path d="M194.362 196.97C194.775 196.97 194.912 196.457 194.637 195.876L155.437 111.477C155.162 110.895 154.613 110.45 154.166 110.45C153.754 110.45 153.616 110.963 153.891 111.545L193.091 195.944C193.366 196.526 193.916 196.97 194.362 196.97Z" fill="#CE2E2E"/>
<path d="M181.96 172.099C182.853 171.551 184.124 171.62 185.533 172.441C188.316 174.049 190.549 177.915 190.549 181.096C190.549 182.67 189.999 183.765 189.106 184.312L186.254 185.954L179.108 173.775L181.96 172.133V172.099Z" fill="#CE2E2E"/>
<path d="M187.663 182.704C187.663 185.886 185.43 187.186 182.647 185.578C179.864 183.97 177.631 180.104 177.631 176.922C177.631 173.741 179.864 172.441 182.647 174.049C185.43 175.657 187.663 179.522 187.663 182.704Z" fill="#FF4545"/>
<path d="M185.361 181.37C185.361 183.08 184.158 183.799 182.647 182.943C181.135 182.088 179.933 180.001 179.933 178.257C179.933 176.512 181.135 175.828 182.647 176.683C184.158 177.538 185.361 179.625 185.361 181.37Z" fill="white"/>
</g>
<path d="M140.045 108.466C130.632 114.932 124.826 127.282 124.791 144.559C124.688 181.541 150.799 226.563 183.093 245.14C198.313 253.898 212.124 255.129 222.534 250.237C211.849 256.806 196.939 256.258 180.345 246.713C148.05 228.137 121.905 183.115 122.043 146.132C122.112 127.282 129.051 114.35 140.045 108.466Z" fill="url(#paint2_linear_988_345)"/>
<g style="mix-blend-mode:multiply" opacity="0.2">
<path d="M180.723 112.947C166.603 104.839 153.65 103.129 143.55 106.858C130.529 111.647 122.215 125.435 122.146 146.201C122.043 183.081 148.085 228.034 180.345 246.577C212.605 265.119 238.819 250.237 238.922 213.323C239.025 176.409 212.983 131.456 180.723 112.913V112.947Z" fill="#79A8F2"/>
</g>
<g style="mix-blend-mode:screen" opacity="0.5">
<path d="M142.966 209.492C130.185 189.889 122.077 166.796 122.146 146.201C122.215 125.435 130.529 111.647 143.55 106.858C153.685 103.129 166.637 104.839 180.723 112.947C192.129 119.516 202.745 129.403 211.712 141.035L142.966 209.492Z" fill="#B8D3FF"/>
</g>
<path opacity="0.7" d="M223.737 104.156C222.775 105.661 221.263 106.996 219.064 108.056C209.479 112.606 193.847 109.219 183.059 101.761C177.906 96.6296 182.441 89.1373 183.472 85.203C184.502 84.4161 185.636 83.7661 186.838 83.2188C192.851 84.553 199.241 87.0846 205.837 90.8821C212.056 94.4743 218.068 98.9559 223.737 104.122V104.156Z" fill="#BDB9B5"/>
<path d="M182.544 94.8501C187.182 97.5186 194.671 97.5186 199.31 94.8501C203.948 92.1816 203.948 87.871 199.31 85.2025C194.671 82.5341 187.182 82.5341 182.544 85.2025C177.906 87.871 177.906 92.1816 182.544 94.8501Z" fill="#8280FF"/>
<path d="M179.074 89.9922V96.8002C179.074 98.5792 180.207 100.324 182.544 101.692C187.182 104.361 194.671 104.361 199.309 101.692C201.611 100.392 202.745 98.6476 202.779 96.9371V90.129C202.779 91.8396 201.611 93.5844 199.309 94.8844C194.671 97.5529 187.182 97.5529 182.544 94.8844C180.207 93.5502 179.039 91.7712 179.074 89.9922Z" fill="#3A37D8"/>
<path d="M187.32 76.2734C189.312 77.4024 192.542 77.4024 194.534 76.2734C196.527 75.1444 196.527 73.2628 194.534 72.1338C192.542 71.0049 189.312 71.0049 187.32 72.1338C185.327 73.2628 185.327 75.1444 187.32 76.2734Z" fill="#EDE8E4"/>
<path d="M185.842 74.1523V89.6158C185.842 90.3685 186.323 91.1211 187.32 91.7027C189.312 92.8317 192.542 92.8317 194.534 91.7027C195.531 91.1211 196.012 90.4027 196.012 89.65V74.1866C196.012 74.9392 195.496 75.6576 194.534 76.2392C192.542 77.3682 189.312 77.3682 187.32 76.2392C186.323 75.6576 185.808 74.905 185.842 74.1523Z" fill="#3A37D8"/>
<path d="M216.11 65.3262V71.2789C216.178 75.0422 213.705 78.7712 208.758 81.6449C198.932 87.2898 182.991 87.2898 173.165 81.6449C168.32 78.8396 165.847 75.2132 165.812 71.5526V65.5999L216.144 65.3262H216.11Z" fill="#3A37D8"/>
<path d="M200.065 76.479C199.584 76.6159 199.344 76.6843 198.863 76.8212C198.863 79.9344 198.863 82.6371 198.863 85.1345C199.275 85.0661 199.687 84.9634 200.065 84.895V76.5133V76.479ZM203.26 84.0055C202.882 84.1424 202.505 84.245 202.092 84.3476V75.7606C202.573 75.5895 202.779 75.4869 203.26 75.2816V83.9713V84.0055ZM196.733 85.4766C196.32 85.545 195.908 85.5792 195.462 85.6477C195.462 83.1844 195.462 80.5844 195.462 77.5054C195.977 77.437 196.217 77.4027 196.733 77.3001V85.4766ZM206.284 82.8765C205.94 83.0476 205.562 83.1844 205.184 83.3213V74.3922C205.631 74.1527 205.837 74.05 206.284 73.7764C206.284 77.2317 206.284 80.1396 206.284 82.8765ZM215.422 74.6658C215.251 75.0764 215.044 75.4869 214.838 75.8975V65.3262H215.422V74.6658ZM213.67 77.5738C213.43 77.8475 213.189 78.1554 212.914 78.4291V67.9604C213.224 67.5499 213.361 67.3446 213.67 66.9341V77.608V77.5738ZM208.036 72.6132C208.448 72.3395 208.654 72.1684 209.032 71.8605V81.4397C209.032 81.4397 208.826 81.5765 208.723 81.6449C208.517 81.7818 208.276 81.8844 208.036 81.9871V72.6132ZM211.506 69.5684V79.6949C211.231 79.9344 210.922 80.1739 210.613 80.3791V70.4579C210.99 70.1157 211.162 69.9447 211.506 69.5684ZM193.263 77.7449V85.8187C192.85 85.8187 192.404 85.8187 191.992 85.8529V77.8133C192.507 77.8133 192.747 77.8133 193.263 77.7449ZM172.787 81.4397V71.8605C173.164 72.1684 173.371 72.3053 173.783 72.6132V81.9871C173.542 81.8502 173.336 81.7476 173.096 81.6449C172.993 81.5765 172.89 81.5081 172.787 81.4397ZM188.522 85.8187V77.7449C189.037 77.7791 189.277 77.7791 189.793 77.8133V85.8529C189.381 85.8529 188.934 85.8529 188.522 85.8187ZM168.149 77.5738V66.8999C168.423 67.3104 168.595 67.5157 168.904 67.9262V78.4291C168.629 78.1554 168.389 77.8475 168.149 77.5738ZM166.396 65.5999H166.98V75.9317C166.74 75.5211 166.534 75.1106 166.396 74.7001V65.5999ZM170.279 69.5684C170.622 69.9447 170.794 70.1157 171.172 70.4579V80.3791C170.863 80.1396 170.588 79.9344 170.279 79.6949V69.5684ZM181.753 76.479C182.234 76.6159 182.475 76.6843 182.956 76.8212V85.1345C182.544 85.0661 182.131 84.9634 181.753 84.895V76.5133V76.479ZM185.086 77.3001C185.601 77.4027 185.842 77.437 186.357 77.5054V85.6477C185.945 85.6134 185.533 85.545 185.086 85.4766V77.3001ZM178.558 75.3159C179.005 75.5211 179.245 75.6238 179.726 75.7948V84.3818C179.349 84.2792 178.936 84.1424 178.558 84.0397V75.3501V75.3159ZM175.535 73.7764C175.947 74.0158 176.188 74.1527 176.634 74.3922V83.3213C176.257 83.1844 175.913 83.0134 175.535 82.8765C175.535 80.1739 175.535 77.2317 175.535 73.7764Z" fill="#5D5BF2"/>
<path d="M173.13 75.692C163.304 70.0471 163.304 60.8785 173.13 55.2336C182.956 49.5888 198.897 49.5888 208.723 55.2336C218.549 60.8785 218.549 70.0471 208.723 75.692C198.897 81.3368 182.956 81.3368 173.13 75.692Z" fill="#8280FF"/>
<g filter="url(#filter0_d_988_345)">
<path d="M149.393 240.343L132.864 249.876V249.094L131.99 248.583L148.729 239.11L149.393 239.501V240.343Z" fill="#CCEAEA"/>
<path d="M114.436 180.109L97.8465 189.492L97.8766 188.68L96.9416 188.169L113.651 178.666L114.436 179.117V180.109Z" fill="#CCEAEA"/>
<path d="M134.704 200.92L117.994 210.453L117.331 209.069L133.95 199.627L134.704 200.92Z" fill="#CCEAEA"/>
<path d="M80.5367 227.025L97.0654 217.432L90.1583 221.401L73.6296 230.994L80.5367 227.025Z" fill="#696969"/>
<path d="M111.121 270.418L127.65 260.825L127.68 249.608L111.151 259.201L111.121 270.418Z" fill="#3A37D8"/>
<path d="M75.3791 197.464L91.938 187.871L82.1353 182.218L65.6066 191.811L75.3791 197.464Z" fill="#3A37D8"/>
<path d="M105.903 238.934L122.432 229.341C113.835 224.379 106.898 212.41 106.928 202.577C106.928 197.705 108.678 194.277 111.453 192.653L94.9239 202.246C92.149 203.87 90.3996 207.298 90.3996 212.17C90.3996 222.033 97.3067 234.002 105.903 238.934Z" fill="#3A37D8"/>
<path d="M116.942 239.985L133.471 230.392C130.635 232.016 126.745 231.806 122.431 229.31L105.903 238.902C110.216 241.368 114.107 241.609 116.942 239.985Z" fill="#3A37D8"/>
<path d="M138.146 268.132L154.705 258.569L147.798 246.631L131.269 256.224L138.146 268.132Z" fill="#8280FF"/>
<path d="M88.1377 181.737L104.667 172.174L97.7594 160.266L81.2306 169.828L88.1377 181.737Z" fill="#3A37D8"/>
<path d="M131.269 256.224L147.798 246.631C150.452 243.925 152.262 240.015 153.076 235.174L136.547 244.767C135.733 249.608 133.923 253.518 131.269 256.224Z" fill="#3A37D8"/>
<path d="M100.806 183.03L117.334 173.437C112.69 171.693 108.376 171.272 104.666 172.174L88.1377 181.767C91.8174 180.865 96.1608 181.286 100.806 183.03Z" fill="#8280FF"/>
<path d="M136.578 232.678L153.106 223.085C152.322 217.311 150.543 211.357 147.919 205.613L131.329 215.056C133.954 220.799 135.763 226.874 136.578 232.648V232.678Z" fill="#3A37D8"/>
<path d="M124.03 202.486L140.529 192.833C136.849 187.69 132.536 183.119 127.891 179.511L111.362 189.104C116.007 192.712 120.29 197.223 123.97 202.365L124.06 202.486H124.03Z" fill="#8280FF"/>
<path d="M146.35 238.301L162.879 228.708L153.106 223.085L136.578 232.678L146.35 238.301Z" fill="#8280FF"/>
<path d="M146.32 250.391L162.849 240.798L162.879 228.709L146.35 238.302L146.32 250.391Z" fill="#3A37D8"/>
<path d="M111.332 189.104L127.891 179.511L127.921 168.324L111.362 177.887L111.332 189.104Z" fill="#3A37D8"/>
<path d="M111.362 177.887L127.921 168.324L117.365 162.25L100.836 171.813L111.362 177.887Z" fill="#8280FF"/>
<path d="M138.327 211.267L154.856 201.675L147.436 188.834L130.877 198.427L138.327 211.267Z" fill="#8280FF"/>
<path d="M65.5463 203.9L75.349 209.553C76.103 215.327 77.9127 221.311 80.5067 227.055L73.5996 231.025L80.8988 243.474L87.836 239.565C91.5158 244.677 95.9194 249.579 100.564 253.157V264.374L109.643 271.11L111.061 270.449V259.232C115.736 261.006 120.019 261.397 123.729 260.525L130.545 272.283L138.116 268.193L131.209 256.285C133.863 253.578 135.673 249.669 136.487 244.828L144.842 251.113L146.26 250.451V238.362L136.517 232.739C135.733 226.965 133.893 220.86 131.269 215.147L136.819 212.079L138.237 211.358L130.726 198.397L129.369 199.179L123.849 202.306C120.17 197.164 115.887 192.804 111.242 189.195V178.008L100.715 171.934L99.2976 172.595L100.685 183.12C96.0401 181.376 92.2397 180.655 88.5599 181.527L81.1401 169.919L73.6901 174.189L80.567 186.098C77.9429 188.834 76.103 192.683 75.3188 197.555L65.5162 191.901L64.0986 192.563L65.486 203.99L65.5463 203.9ZM105.903 238.934C97.3069 233.972 90.3696 222.003 90.3998 212.17C90.3998 202.366 97.3974 198.397 105.994 203.329C114.56 208.26 121.497 220.229 121.467 230.032C121.467 239.896 114.469 243.835 105.903 238.903V238.934Z" fill="#CCEAEA"/>
<path d="M64.1286 204.561L73.9312 210.214C74.6853 215.988 76.495 221.972 79.0889 227.716L72.1818 231.685L79.6017 244.466L86.5389 240.557C90.2187 245.669 94.5319 250.24 99.1768 253.818V265.035L109.703 271.109V259.893C114.378 261.667 118.661 262.058 122.371 261.186L129.309 273.184L136.789 268.974L129.852 256.946C132.506 254.239 134.315 250.33 135.13 245.488L144.902 251.112V239.023L135.16 233.399C134.376 227.626 132.596 221.732 129.972 216.018L136.909 212.079L129.459 199.148L122.522 203.087C118.842 197.945 114.559 193.404 109.914 189.826V178.639L99.3879 172.564V183.751C94.7128 182.007 90.3997 181.586 86.6898 182.488L79.8731 170.67L72.4231 174.94L79.2096 186.728C76.5855 189.465 74.7456 193.314 73.9614 198.186L64.1588 192.532V204.621L64.1286 204.561ZM104.485 239.594C95.8891 234.632 88.9519 222.664 88.982 212.83C88.982 203.027 95.9796 199.058 104.576 203.989C113.142 208.921 120.079 220.89 120.049 230.693C120.049 240.557 113.051 244.496 104.485 239.564V239.594Z" fill="#5D5BF2"/>
</g>
<path d="M286.215 95.6901C286.565 95.6901 286.928 95.6064 287.264 95.4113L298.952 88.6788C299.959 88.1073 300.294 86.8249 299.721 85.8213C299.148 84.8177 297.861 84.4832 296.855 85.0547L285.167 91.7872C284.16 92.3587 283.825 93.641 284.398 94.6447C284.789 95.3137 285.488 95.6901 286.215 95.6901Z" fill="#FFCD4F"/>
<path d="M241.058 97.2379C241.785 97.2379 242.484 96.8616 242.875 96.1925C243.448 95.1889 243.113 93.9205 242.106 93.335L230.418 86.6025C229.412 86.031 228.125 86.3656 227.552 87.3692C226.979 88.3728 227.315 89.6412 228.321 90.2266L240.009 96.9591C240.345 97.1543 240.694 97.2379 241.058 97.2379Z" fill="#FFCD4F"/>
<path d="M263.105 88.1773C264.265 88.1773 265.202 87.2434 265.202 86.0864V73.3184C265.202 72.1614 264.265 71.2275 263.105 71.2275C261.945 71.2275 261.008 72.1614 261.008 73.3184V86.0864C261.008 87.2434 261.945 88.1773 263.105 88.1773Z" fill="#FFCD4F"/>
<g filter="url(#filter1_d_988_345)">
<path d="M259.9 174.823C259.9 175.284 260.066 176.443 261.367 177.247C263.462 178.547 266.858 177.448 266.906 174.8L259.888 174.823H259.9Z" fill="#181019"/>
<path d="M253.604 168.297C253.628 169.586 254.077 172.825 257.722 175.083C263.568 178.724 273.071 175.627 273.224 168.238L253.604 168.297Z" fill="url(#paint3_linear_988_345)"/>
<path d="M263.414 173.559C269.544 173.542 274.506 170.654 274.496 167.109C274.486 163.564 269.508 160.704 263.378 160.721C257.247 160.738 252.286 163.626 252.296 167.171C252.306 170.716 257.283 173.576 263.414 173.559Z" fill="url(#paint4_linear_988_345)"/>
<path d="M253.273 167.175V165.532C253.273 166.986 254.208 168.452 256.089 169.575C259.971 171.904 266.385 171.975 270.42 169.717C272.503 168.558 273.544 167.009 273.544 165.473V167.116C273.544 168.664 272.515 170.201 270.432 171.36C266.397 173.606 259.971 173.547 256.101 171.218C254.22 170.083 253.285 168.629 253.285 167.175H253.273Z" fill="url(#paint5_linear_988_345)"/>
<path d="M271.414 159.952C267.166 157.399 260.136 157.328 255.722 159.798C251.297 162.257 251.155 166.324 255.403 168.877C259.651 171.431 266.681 171.502 271.095 169.031C275.52 166.572 275.662 162.506 271.414 159.952Z" fill="url(#paint6_linear_988_345)"/>
<path d="M253.261 164.444V162.8C253.261 164.254 254.196 165.72 256.078 166.843C259.959 169.172 266.373 169.243 270.408 166.985C272.491 165.827 273.532 164.278 273.532 162.741V164.384C273.532 165.933 272.503 167.47 270.42 168.628C266.385 170.874 259.959 170.815 256.09 168.487C254.208 167.352 253.273 165.898 253.273 164.444H253.261Z" fill="url(#paint7_linear_988_345)"/>
<path d="M263.41 168.086C269.541 168.068 274.502 165.181 274.492 161.635C274.483 158.09 269.505 155.23 263.374 155.247C257.244 155.264 252.282 158.152 252.292 161.697C252.302 165.243 257.28 168.103 263.41 168.086Z" fill="url(#paint8_linear_988_345)"/>
<path d="M253.249 161.701V160.058C253.249 161.512 254.184 162.978 256.065 164.101C259.947 166.43 266.361 166.501 270.396 164.243C272.479 163.084 273.52 161.536 273.52 159.999V161.642C273.52 163.191 272.491 164.728 270.408 165.886C266.373 168.132 259.947 168.073 256.077 165.744C254.196 164.609 253.261 163.155 253.261 161.701H253.249Z" fill="url(#paint9_linear_988_345)"/>
<path d="M271.39 154.467C275.639 157.02 275.485 161.087 271.071 163.546C266.645 166.005 259.616 165.934 255.379 163.392C251.131 160.839 251.285 156.772 255.699 154.313C260.124 151.854 267.154 151.925 271.39 154.467Z" fill="url(#paint10_linear_988_345)"/>
<path d="M253.249 158.958V157.303C253.249 158.757 254.184 160.223 256.065 161.346C259.947 163.675 266.361 163.746 270.396 161.488C272.479 160.33 273.52 158.781 273.52 157.244V158.899C273.52 160.448 272.491 161.985 270.408 163.143C266.373 165.389 259.947 165.33 256.077 163.001C254.196 161.866 253.261 160.412 253.261 158.958H253.249Z" fill="url(#paint11_linear_988_345)"/>
<path d="M252.314 168.262V167.174C252.314 168.77 253.344 170.366 255.403 171.608C259.651 174.161 266.681 174.232 271.095 171.761C273.367 170.496 274.515 168.806 274.515 167.104V168.191C274.515 169.882 273.379 171.572 271.106 172.849C266.681 175.308 259.651 175.237 255.415 172.695C253.356 171.454 252.326 169.858 252.326 168.262H252.314Z" fill="url(#paint12_linear_988_345)"/>
<path d="M252.303 165.532V164.444C252.303 166.04 253.332 167.636 255.391 168.877C259.64 171.431 266.669 171.501 271.083 169.031C273.355 167.766 274.503 166.075 274.503 164.373V165.461C274.503 167.151 273.367 168.842 271.095 170.118C266.669 172.577 259.64 172.506 255.403 169.965C253.344 168.723 252.315 167.127 252.315 165.532H252.303Z" fill="url(#paint13_linear_988_345)"/>
<path d="M252.291 162.789V161.702C252.291 163.298 253.32 164.894 255.379 166.135C259.627 168.688 266.657 168.759 271.071 166.289C273.343 165.024 274.491 163.333 274.491 161.631V162.718C274.491 164.409 273.355 166.099 271.083 167.376C266.657 169.835 259.627 169.764 255.391 167.222C253.332 165.981 252.302 164.385 252.302 162.789H252.291Z" fill="url(#paint14_linear_988_345)"/>
<path d="M252.291 160.058V158.97C252.291 160.566 253.32 162.162 255.379 163.403C259.627 165.957 266.657 166.028 271.071 163.557C273.343 162.292 274.491 160.602 274.491 158.899V159.987C274.491 161.677 273.355 163.368 271.083 164.645C266.657 167.104 259.627 167.033 255.391 164.491C253.332 163.25 252.302 161.654 252.302 160.058H252.291Z" fill="url(#paint15_linear_988_345)"/>
<path d="M277.567 148.993L249.131 149.076V153.982C249.143 154.124 249.155 154.254 249.166 154.396C249.344 156.961 250.847 159.124 253.651 160.862C257.639 163.321 263.994 164.007 269.106 162.517C272.006 161.678 276.775 159.574 277.485 154.821C277.544 154.514 277.579 154.206 277.567 153.911V149.005V148.993Z" fill="url(#paint16_linear_988_345)"/>
<path d="M263.38 157.257C271.229 157.235 277.582 153.533 277.569 148.989C277.557 144.445 271.183 140.779 263.334 140.801C255.485 140.823 249.132 144.525 249.145 149.069C249.157 153.613 255.531 157.279 263.38 157.257Z" fill="url(#paint17_linear_988_345)"/>
<path d="M288.301 115.302C287.401 107.677 283.39 101.518 276.36 96.9783C275.142 96.2571 271.426 94.0583 265.876 93.5027C253.628 92.2733 244.244 99.9337 240.717 107.57C236.149 117.453 237.853 127.336 245.782 136.935C245.782 136.935 245.9 137.077 245.9 137.089C248.338 140.163 249.746 144.064 250.101 148.698C250.16 149.762 250.61 150.814 251.427 151.795C252.018 152.504 252.823 153.178 253.817 153.781C258.929 156.855 267.39 156.937 272.716 153.97C273.911 153.308 274.834 152.552 275.508 151.736C276.325 150.755 276.763 149.691 276.822 148.591C277.153 143.934 278.562 140.021 280.999 136.935C281.011 136.912 281.082 136.829 281.094 136.817C285.058 131.947 289.449 125.114 288.289 115.314L288.301 115.302Z" fill="url(#paint18_radial_988_345)"/>
<g style="mix-blend-mode:multiply" opacity="0.6">
<path d="M272.278 144.064C277.011 146.913 276.845 151.44 271.911 154.183C266.976 156.925 259.154 156.854 254.42 154.005C249.687 151.156 249.853 146.629 254.787 143.886C259.722 141.144 267.544 141.214 272.278 144.064Z" fill="#E8A000"/>
</g>
<path d="M271.473 115.255C271.213 115.089 270.87 115.172 270.704 115.432L270.515 115.727C270.444 115.716 270.385 115.716 270.314 115.727C270.018 115.763 269.852 116.023 269.817 116.07C269.698 116.212 269.604 116.354 269.509 116.496C269.343 116.732 269.189 116.969 268.976 117.146C268.751 117.335 268.467 117.288 268.219 117.217C267.947 117.146 267.521 117.181 267.249 117.453C267.047 117.654 266.905 117.867 266.763 118.068C266.645 118.234 266.527 118.411 266.373 118.576C266.16 118.813 265.817 118.896 265.616 118.848C265.58 118.848 265.545 118.836 265.509 118.825C265.249 118.754 264.965 118.683 264.657 118.884C264.385 119.061 264.207 119.333 264.006 119.629C263.935 119.735 263.852 119.853 263.769 119.971C263.675 120.101 263.521 120.279 263.367 120.385C263.225 120.48 263.083 120.48 263.012 120.48C262.906 120.48 262.823 120.444 262.728 120.409C262.551 120.35 262.361 120.291 262.101 120.385C261.805 120.492 261.474 120.917 261.178 121.331C260.906 121.721 260.563 122.04 260.385 122.064C260.219 122.087 260.101 122.064 259.971 122.005C259.852 121.969 259.71 121.922 259.533 121.934C259.249 121.946 258.835 122.312 258.586 122.667L258.48 122.809C258.231 123.151 258.006 123.482 257.77 123.601C257.557 123.707 257.415 123.66 257.225 123.601C257.143 123.577 257.06 123.553 256.965 123.53C256.776 123.494 256.622 123.53 256.468 123.601C256.279 123.695 256.101 123.896 256.007 124.014C255.746 123.943 255.462 124.073 255.356 124.334C255.237 124.617 255.367 124.948 255.651 125.066L261.119 127.372V149.407C261.119 149.75 261.355 150.093 261.805 150.353C262.728 150.885 264.219 150.885 265.142 150.353C265.604 150.081 265.84 149.726 265.829 149.384V125.894C265.829 125.728 265.781 125.575 265.675 125.421L271.627 116.035C271.793 115.775 271.71 115.432 271.45 115.266L271.473 115.255ZM264.787 124.747C263.876 124.393 262.622 124.452 261.817 124.913C261.32 125.197 261.095 125.575 261.131 125.953C261.131 125.929 261.131 125.906 261.131 125.894V126.154L256.243 124.097C256.362 123.955 256.48 123.849 256.586 123.802C256.693 123.742 256.811 123.731 256.953 123.754C257.036 123.766 257.107 123.79 257.178 123.813C257.379 123.872 257.592 123.943 257.876 123.813C258.172 123.672 258.421 123.317 258.681 122.95L258.787 122.809C259.06 122.43 259.403 122.17 259.568 122.17C259.71 122.17 259.817 122.194 259.923 122.229C260.065 122.277 260.219 122.324 260.444 122.288C260.74 122.241 261.131 121.816 261.379 121.461C261.521 121.248 261.912 120.692 262.184 120.598C262.385 120.527 262.503 120.574 262.669 120.622C262.764 120.657 262.87 120.692 263 120.704C263.178 120.716 263.355 120.681 263.497 120.574C263.639 120.48 263.781 120.338 263.959 120.101C264.042 119.983 264.124 119.865 264.207 119.759C264.397 119.475 264.562 119.238 264.799 119.073C265.024 118.919 265.213 118.978 265.462 119.037C265.497 119.037 265.533 119.061 265.568 119.061C265.876 119.144 266.302 118.99 266.539 118.718C266.704 118.541 266.823 118.352 266.941 118.186C267.083 117.985 267.213 117.784 267.391 117.607C267.604 117.394 267.935 117.371 268.148 117.43C268.432 117.512 268.799 117.572 269.107 117.311C269.355 117.111 269.509 116.874 269.686 116.614C269.781 116.472 269.876 116.342 269.982 116.2C269.982 116.188 270.124 115.976 270.337 115.94C270.373 115.94 264.775 124.747 264.775 124.747H264.787Z" fill="url(#paint19_linear_988_345)"/>
<path style="mix-blend-mode:screen" d="M268.692 125.019C276.208 125.019 282.301 119.536 282.301 112.772C282.301 106.008 276.208 100.524 268.692 100.524C261.176 100.524 255.083 106.008 255.083 112.772C255.083 119.536 261.176 125.019 268.692 125.019Z" fill="url(#paint20_linear_988_345)"/>
</g>
<defs>
<filter id="filter0_d_988_345" x="0.0986328" y="82.2656" width="246.78" height="260.919" filterUnits="userSpaceOnUse" color-interpolation-filters="sRGB">
<feFlood flood-opacity="0" result="BackgroundImageFix"/>
<feColorMatrix in="SourceAlpha" type="matrix" values="0 0 0 0 0 0 0 0 0 0 0 0 0 0 0 0 0 0 127 0" result="hardAlpha"/>
<feOffset dx="10" dy="-4"/>
<feGaussianBlur stdDeviation="37"/>
<feComposite in2="hardAlpha" operator="out"/>
<feColorMatrix type="matrix" values="0 0 0 0 0.364706 0 0 0 0 0.356863 0 0 0 0 0.94902 0 0 0 0.8 0"/>
<feBlend mode="normal" in2="BackgroundImageFix" result="effect1_dropShadow_988_345"/>
<feBlend mode="normal" in="SourceGraphic" in2="effect1_dropShadow_988_345" result="shape"/>
</filter>
<filter id="filter1_d_988_345" x="196.22" y="29.3721" width="150.271" height="184.431" filterUnits="userSpaceOnUse" color-interpolation-filters="sRGB">
<feFlood flood-opacity="0" result="BackgroundImageFix"/>
<feColorMatrix in="SourceAlpha" type="matrix" values="0 0 0 0 0 0 0 0 0 0 0 0 0 0 0 0 0 0 127 0" result="hardAlpha"/>
<feOffset dx="8" dy="-14"/>
<feGaussianBlur stdDeviation="25"/>
<feComposite in2="hardAlpha" operator="out"/>
<feColorMatrix type="matrix" values="0 0 0 0 1 0 0 0 0 0.803922 0 0 0 0 0.309804 0 0 0 0.7 0"/>
<feBlend mode="normal" in2="BackgroundImageFix" result="effect1_dropShadow_988_345"/>
<feBlend mode="normal" in="SourceGraphic" in2="effect1_dropShadow_988_345" result="shape"/>
</filter>
<linearGradient id="paint0_linear_988_345" x1="170.004" y1="80.5157" x2="260.813" y2="238.459" gradientUnits="userSpaceOnUse">
<stop offset="0.35" stop-color="#EDE8E4"/>
<stop offset="0.37" stop-color="#E8E4E0"/>
<stop offset="0.38" stop-color="#DCD8D4"/>
<stop offset="0.39" stop-color="#CFCBC7"/>
<stop offset="0.41" stop-color="#CAC6C2"/>
<stop offset="0.51" stop-color="#BEBAB6"/>
<stop offset="0.64" stop-color="#B7B3AF"/>
<stop offset="1" stop-color="#B6B2AE"/>
</linearGradient>
<radialGradient id="paint1_radial_988_345" cx="0" cy="0" r="1" gradientUnits="userSpaceOnUse" gradientTransform="translate(181.066 105.319) rotate(180) scale(111.176 110.708)">
<stop stop-color="#FFFAF5"/>
<stop offset="0.31" stop-color="#F4F0EB"/>
<stop offset="0.83" stop-color="#D9D5D1"/>
<stop offset="1" stop-color="#CFCBC7"/>
</radialGradient>
<linearGradient id="paint2_linear_988_345" x1="226.76" y1="246.063" x2="113.932" y2="132.758" gradientUnits="userSpaceOnUse">
<stop stop-color="#B6B2AE"/>
<stop offset="1" stop-color="#BCB8B4"/>
</linearGradient>
<linearGradient id="paint3_linear_988_345" x1="253.604" y1="172.423" x2="273.213" y2="172.423" gradientUnits="userSpaceOnUse">
<stop stop-color="#3A37D8"/>
<stop offset="1" stop-color="#AB56DA"/>
</linearGradient>
<linearGradient id="paint4_linear_988_345" x1="252.302" y1="167.139" x2="274.514" y2="167.139" gradientUnits="userSpaceOnUse">
<stop stop-color="#3A37D8"/>
<stop offset="0.49" stop-color="#F5ABFF"/>
<stop offset="1" stop-color="#FFC5FF"/>
</linearGradient>
<linearGradient id="paint5_linear_988_345" x1="253.261" y1="169.244" x2="273.544" y2="169.244" gradientUnits="userSpaceOnUse">
<stop stop-color="#3A37D8"/>
<stop offset="1" stop-color="#AB56DA"/>
</linearGradient>
<linearGradient id="paint6_linear_988_345" x1="252.303" y1="164.409" x2="274.503" y2="164.409" gradientUnits="userSpaceOnUse">
<stop stop-color="#3A37D8"/>
<stop offset="0.49" stop-color="#F5ABFF"/>
<stop offset="1" stop-color="#FFC5FF"/>
</linearGradient>
<linearGradient id="paint7_linear_988_345" x1="253.261" y1="166.5" x2="273.532" y2="166.5" gradientUnits="userSpaceOnUse">
<stop stop-color="#3A37D8"/>
<stop offset="1" stop-color="#AB56DA"/>
</linearGradient>
<linearGradient id="paint8_linear_988_345" x1="252.291" y1="161.665" x2="274.491" y2="161.665" gradientUnits="userSpaceOnUse">
<stop stop-color="#3A37D8"/>
<stop offset="0.49" stop-color="#F5ABFF"/>
<stop offset="1" stop-color="#FFC5FF"/>
</linearGradient>
<linearGradient id="paint9_linear_988_345" x1="253.249" y1="163.77" x2="273.532" y2="163.77" gradientUnits="userSpaceOnUse">
<stop stop-color="#3A37D8"/>
<stop offset="1" stop-color="#AB56DA"/>
</linearGradient>
<linearGradient id="paint10_linear_988_345" x1="252.279" y1="158.935" x2="274.491" y2="158.935" gradientUnits="userSpaceOnUse">
<stop stop-color="#3A37D8"/>
<stop offset="0.49" stop-color="#F5ABFF"/>
<stop offset="1" stop-color="#FFC5FF"/>
</linearGradient>
<linearGradient id="paint11_linear_988_345" x1="253.237" y1="161.027" x2="273.52" y2="161.027" gradientUnits="userSpaceOnUse">
<stop stop-color="#3A37D8"/>
<stop offset="1" stop-color="#AB56DA"/>
</linearGradient>
<linearGradient id="paint12_linear_988_345" x1="252.303" y1="170.886" x2="274.515" y2="170.886" gradientUnits="userSpaceOnUse">
<stop stop-color="#3A37D8"/>
<stop offset="1" stop-color="#CB89F0"/>
</linearGradient>
<linearGradient id="paint13_linear_988_345" x1="252.303" y1="168.144" x2="274.503" y2="168.144" gradientUnits="userSpaceOnUse">
<stop stop-color="#3A37D8"/>
<stop offset="1" stop-color="#CB89F0"/>
</linearGradient>
<linearGradient id="paint14_linear_988_345" x1="252.291" y1="165.414" x2="274.503" y2="165.414" gradientUnits="userSpaceOnUse">
<stop stop-color="#3A37D8"/>
<stop offset="1" stop-color="#CB89F0"/>
</linearGradient>
<linearGradient id="paint15_linear_988_345" x1="252.279" y1="162.671" x2="274.491" y2="162.671" gradientUnits="userSpaceOnUse">
<stop stop-color="#3A37D8"/>
<stop offset="1" stop-color="#CB89F0"/>
</linearGradient>
<linearGradient id="paint16_linear_988_345" x1="249.143" y1="156.133" x2="277.591" y2="156.133" gradientUnits="userSpaceOnUse">
<stop stop-color="#3A37D8"/>
<stop offset="1" stop-color="#CB89F0"/>
</linearGradient>
<linearGradient id="paint17_linear_988_345" x1="249.143" y1="149.028" x2="277.567" y2="149.028" gradientUnits="userSpaceOnUse">
<stop stop-color="#F5ABFF"/>
<stop offset="0.46" stop-color="#FFC5FF"/>
<stop offset="1" stop-color="#FFDEFF"/>
</linearGradient>
<radialGradient id="paint18_radial_988_345" cx="0" cy="0" r="1" gradientUnits="userSpaceOnUse" gradientTransform="translate(277.236 103.835) scale(63.145 63.0801)">
<stop stop-color="#F7FF85"/>
<stop offset="1" stop-color="#FFC300"/>
</radialGradient>
<linearGradient id="paint19_linear_988_345" x1="263.864" y1="117.122" x2="260.227" y2="149.633" gradientUnits="userSpaceOnUse">
<stop stop-color="#F7FFB0"/>
<stop offset="0.5" stop-color="#F7FF85"/>
<stop offset="1" stop-color="#FBE142"/>
</linearGradient>
<linearGradient id="paint20_linear_988_345" x1="271.745" y1="101.919" x2="258.139" y2="150.407" gradientUnits="userSpaceOnUse">
<stop stop-color="#FFCD3D"/>
<stop offset="0.03" stop-color="#F2C239"/>
<stop offset="0.25" stop-color="#A98828"/>
<stop offset="0.44" stop-color="#6D571A"/>
<stop offset="0.62" stop-color="#3E310E"/>
<stop offset="0.78" stop-color="#1C1606"/>
<stop offset="0.91" stop-color="#070601"/>
<stop offset="1"/>
</linearGradient>
</defs>
</svg>
