<svg width="421" height="460" viewBox="0 0 421 460" fill="none" xmlns="http://www.w3.org/2000/svg">
<g filter="url(#filter0_d_1002_1350)">
<path d="M124.873 300.227L116.889 304.876L134.323 315.064L142.307 310.449L124.873 300.227Z" fill="#A03030"/>
<path d="M116.889 304.876L84 361.625L101.434 371.847L134.323 315.064L116.889 304.876Z" fill="#5D5BF2"/>
<path d="M134.323 315.064L101.434 371.847L109.452 367.197L142.307 310.449L134.323 315.064Z" fill="#3A37D8"/>
</g>
<path d="M174.241 289.458C172.432 290.518 170.181 291.134 167.827 291.407H167.315C166.701 291.51 166.121 291.51 165.609 291.783V295.92C166.121 295.646 166.701 295.646 167.315 295.578H167.827C170.181 295.304 172.466 294.655 174.241 293.595C176.595 292.227 177.789 290.416 177.789 288.638V284.501C177.789 286.279 176.629 288.091 174.275 289.458H174.241Z" fill="#33CAB0"/>
<path d="M134.392 331.883L134.357 336.02L184.442 306.893V302.757L134.392 331.883Z" fill="#33CAB0"/>
<path d="M84.0341 302.757L84 306.893L134.357 336.02L134.391 331.883L84.0341 302.757Z" fill="#006957"/>
<path d="M165.575 291.749C166.121 291.475 166.701 291.475 167.281 291.407H167.792C170.146 291.134 172.432 290.484 174.206 289.424C178.949 286.655 178.915 282.211 174.172 279.442C173.661 279.169 173.115 278.895 172.535 278.622C168.475 276.981 163.016 276.946 158.922 278.519C155.988 279.681 154.248 281.356 153.702 283.168L153.565 283.544C153.463 283.852 153.395 284.16 152.849 284.399L134.084 273.528L84.0342 302.688L134.391 331.815L184.442 302.654L165.575 291.681V291.749Z" fill="#0F937C"/>
<path d="M172.534 278.689C168.474 277.049 163.016 277.014 158.922 278.587C155.987 279.749 154.247 281.424 153.702 283.236L153.565 283.612C153.463 283.92 153.395 284.228 152.849 284.467L142.136 278.279C141.795 279.749 140.703 281.185 138.758 282.313C136.677 283.51 134.016 284.193 131.286 284.364C130.809 284.364 130.604 284.706 130.945 284.911L149.198 295.475L175.264 280.296C174.923 280.023 174.547 279.749 174.138 279.51C173.626 279.236 173.08 278.963 172.5 278.689H172.534Z" fill="#006957"/>
<path d="M189.081 243.478C187.273 244.538 185.021 245.153 182.667 245.427H182.156C181.541 245.529 180.961 245.529 180.45 245.803V249.939C180.961 249.666 181.541 249.666 182.156 249.597H182.667C185.021 249.324 187.307 248.674 189.081 247.614C191.436 246.247 192.596 244.469 192.596 242.657V238.521C192.596 240.299 191.436 242.111 189.081 243.478Z" fill="#EEE8DE"/>
<path d="M117.162 267.34L98.875 256.776V260.913L117.128 271.476C117.469 271.647 118.049 271.545 118.083 271.271V267.135C118.083 267.408 117.469 267.511 117.162 267.34Z" fill="#CBC7BC"/>
<path d="M138.724 262.793C137.701 262.212 136.472 261.699 135.039 261.289C132.003 260.468 128.523 260.434 125.487 261.255C120.915 262.451 118.492 264.742 118.117 267.135V271.271C118.458 268.878 120.915 266.588 125.452 265.391C128.489 264.571 132.003 264.605 135.005 265.425C136.438 265.836 137.701 266.348 138.69 266.93C141.078 268.331 142.272 270.143 142.272 271.955V267.818C142.272 266.007 141.078 264.195 138.69 262.793H138.724Z" fill="#CBC7BC"/>
<path d="M149.232 285.903V290.073L199.283 260.913L199.317 256.776L149.232 285.903Z" fill="#EEE8DE"/>
<path d="M130.98 275.339C130.98 275.339 130.809 275.203 130.809 275.1V279.237C130.809 279.237 130.843 279.408 130.98 279.476L149.232 290.039V285.903L130.98 275.339Z" fill="#CBC7BC"/>
<path d="M180.45 245.768C180.996 245.495 181.576 245.495 182.156 245.427H182.667C185.021 245.153 187.307 244.504 189.081 243.444C193.79 240.709 193.79 236.231 189.047 233.496C188.536 233.188 187.99 232.915 187.376 232.675C183.35 231 177.891 230.966 173.797 232.573C170.863 233.735 169.123 235.41 168.577 237.222L168.44 237.598C168.338 237.906 168.27 238.213 167.724 238.453L148.959 227.582L98.9092 256.742L117.196 267.306C117.503 267.476 118.117 267.374 118.151 267.1C118.493 264.707 120.949 262.417 125.521 261.22C128.557 260.4 132.071 260.434 135.074 261.255C136.507 261.665 137.769 262.178 138.758 262.759C143.501 265.494 143.535 269.972 138.827 272.707C136.745 273.903 134.084 274.587 131.355 274.758C130.877 274.758 130.672 275.1 131.014 275.305L149.266 285.869L199.317 256.708L180.45 245.734V245.768Z" fill="#F7F5ED"/>
<g filter="url(#filter1_d_1002_1350)">
<path d="M205.595 177.499C203.786 178.559 201.501 179.209 199.181 179.448H198.669C198.055 179.551 197.475 179.551 196.963 179.824V183.961C197.475 183.687 198.055 183.687 198.669 183.619H199.181C201.535 183.345 203.82 182.696 205.595 181.636C207.949 180.268 209.109 178.491 209.109 176.679V172.542C209.109 174.32 207.949 176.132 205.595 177.499Z" fill="#33CAB0"/>
<path d="M133.641 201.361L115.354 190.798V194.934L133.607 205.498C133.914 205.669 134.528 205.566 134.562 205.293V201.156C134.562 201.43 133.948 201.532 133.641 201.361Z" fill="#006957"/>
<path d="M155.203 196.815C154.18 196.233 152.951 195.721 151.518 195.31C148.482 194.49 144.968 194.456 141.966 195.276C137.394 196.473 134.971 198.763 134.596 201.156V205.293C134.937 202.9 137.394 200.609 141.931 199.413C144.934 198.626 148.482 198.626 151.484 199.447C152.917 199.857 154.18 200.37 155.169 200.951C157.557 202.353 158.751 204.165 158.751 205.976V201.84C158.751 200.028 157.557 198.216 155.169 196.815H155.203Z" fill="#006957"/>
<path d="M165.746 219.924L165.711 224.061L215.762 194.934V190.798L165.746 219.924Z" fill="#33CAB0"/>
<path d="M147.492 209.361C147.492 209.361 147.322 209.224 147.322 209.122V213.258C147.322 213.258 147.356 213.429 147.492 213.497L165.745 224.061V219.924L147.492 209.361Z" fill="#006957"/>
<path d="M196.929 179.79C197.475 179.516 198.055 179.516 198.635 179.448H199.146C201.501 179.175 203.786 178.525 205.56 177.465C210.269 174.73 210.269 170.252 205.526 167.517C205.015 167.21 204.469 166.936 203.855 166.697C199.829 165.022 194.37 164.987 190.276 166.594C187.342 167.756 185.568 169.466 185.056 171.243L184.919 171.619C184.817 171.927 184.749 172.235 184.203 172.508L165.438 161.637L115.388 190.764L133.675 201.327C133.982 201.498 134.596 201.395 134.63 201.122C134.972 198.729 137.428 196.438 142 195.242C145.002 194.456 148.55 194.456 151.553 195.276C152.986 195.686 154.248 196.199 155.237 196.78C159.98 199.515 160.014 203.994 155.306 206.728C153.224 207.925 150.563 208.609 147.834 208.78C147.356 208.78 147.151 209.121 147.493 209.327L165.745 219.89L215.796 190.764L196.963 179.756L196.929 179.79Z" fill="#0F937C"/>
</g>
<path d="M235.686 188.781L217.399 178.217V182.354L235.652 192.917C235.959 193.088 236.573 192.986 236.607 192.712V188.576C236.607 188.849 235.993 188.952 235.686 188.781Z" fill="#CBC7BC"/>
<path d="M257.248 184.234C256.225 183.653 254.996 183.14 253.563 182.73C250.527 181.909 247.013 181.875 244.01 182.696C239.439 183.892 237.016 186.183 236.641 188.576V192.712C236.982 190.319 239.439 188.029 243.976 186.832C246.979 186.046 250.527 186.046 253.529 186.866C254.962 187.277 256.19 187.789 257.214 188.371C259.602 189.772 260.796 191.584 260.796 193.396V189.259C260.796 187.448 259.602 185.636 257.214 184.234H257.248Z" fill="#CBC7BC"/>
<path d="M249.537 196.78C249.537 196.78 249.367 196.644 249.367 196.541V200.678C249.367 200.678 249.401 200.848 249.537 200.917L267.79 211.48V207.344L249.537 196.78Z" fill="#CBC7BC"/>
<path d="M267.79 207.344L267.756 211.48L317.807 182.32V178.183L267.79 207.344Z" fill="#EEE8DE"/>
<path d="M267.449 149.057L217.399 178.183L235.686 188.746C235.993 188.917 236.607 188.815 236.641 188.541C236.982 186.148 239.439 183.858 244.011 182.661C247.013 181.875 250.561 181.875 253.563 182.696C254.996 183.106 256.225 183.619 257.248 184.2C261.99 186.969 262.024 191.413 257.316 194.182C255.269 195.379 252.574 196.062 249.879 196.199C249.401 196.199 249.196 196.541 249.538 196.746L267.79 207.309L317.841 178.183L267.483 149.057H267.449Z" fill="#F7F5ED"/>
<g filter="url(#filter2_d_1002_1350)">
<path d="M301.396 140.168L278.026 180.61L286.043 175.995L309.38 135.553L301.396 140.168Z" fill="#3A37D8"/>
<path d="M312.928 100L307.64 123.622L312.45 146.766L316.476 148.817L316.954 102.051L312.928 100Z" fill="#8280FF"/>
<path d="M312.928 100L273.693 124.99L283.621 130.562L260.592 170.423L278.026 180.61L301.226 140.442L312.45 146.766L312.928 100Z" fill="#5D5BF2"/>
</g>
<path d="M173.763 232.607C170.829 233.77 169.089 235.445 168.543 237.257L168.407 237.633C168.304 237.94 168.236 238.248 167.69 238.487L148.926 227.616L144.286 230.317C147.356 233.052 146.844 236.71 142.75 239.103C140.669 240.299 138.008 240.983 135.279 241.154C134.801 241.154 134.596 241.496 134.937 241.701L153.19 252.264L186.967 232.607C182.975 231.069 177.721 231.069 173.763 232.607Z" fill="#CBC7BC"/>
<defs>
<filter id="filter0_d_1002_1350" x="0" y="200.227" width="246.307" height="259.62" filterUnits="userSpaceOnUse" color-interpolation-filters="sRGB">
<feFlood flood-opacity="0" result="BackgroundImageFix"/>
<feColorMatrix in="SourceAlpha" type="matrix" values="0 0 0 0 0 0 0 0 0 0 0 0 0 0 0 0 0 0 127 0" result="hardAlpha"/>
<feOffset dx="10" dy="-6"/>
<feGaussianBlur stdDeviation="47"/>
<feComposite in2="hardAlpha" operator="out"/>
<feColorMatrix type="matrix" values="0 0 0 0 0.364706 0 0 0 0 0.356863 0 0 0 0 0.94902 0 0 0 1 0"/>
<feBlend mode="normal" in2="BackgroundImageFix" result="effect1_dropShadow_1002_1350"/>
<feBlend mode="normal" in="SourceGraphic" in2="effect1_dropShadow_1002_1350" result="shape"/>
</filter>
<filter id="filter1_d_1002_1350" x="21.354" y="61.6372" width="308.442" height="270.424" filterUnits="userSpaceOnUse" color-interpolation-filters="sRGB">
<feFlood flood-opacity="0" result="BackgroundImageFix"/>
<feColorMatrix in="SourceAlpha" type="matrix" values="0 0 0 0 0 0 0 0 0 0 0 0 0 0 0 0 0 0 127 0" result="hardAlpha"/>
<feOffset dx="10" dy="4"/>
<feGaussianBlur stdDeviation="52"/>
<feComposite in2="hardAlpha" operator="out"/>
<feColorMatrix type="matrix" values="0 0 0 0 0.0588235 0 0 0 0 0.576471 0 0 0 0 0.486275 0 0 0 1 0"/>
<feBlend mode="normal" in2="BackgroundImageFix" result="effect1_dropShadow_1002_1350"/>
<feBlend mode="normal" in="SourceGraphic" in2="effect1_dropShadow_1002_1350" result="shape"/>
</filter>
<filter id="filter2_d_1002_1350" x="176.592" y="0" width="244.362" height="268.61" filterUnits="userSpaceOnUse" color-interpolation-filters="sRGB">
<feFlood flood-opacity="0" result="BackgroundImageFix"/>
<feColorMatrix in="SourceAlpha" type="matrix" values="0 0 0 0 0 0 0 0 0 0 0 0 0 0 0 0 0 0 127 0" result="hardAlpha"/>
<feOffset dx="10" dy="-6"/>
<feGaussianBlur stdDeviation="47"/>
<feComposite in2="hardAlpha" operator="out"/>
<feColorMatrix type="matrix" values="0 0 0 0 0.364706 0 0 0 0 0.356863 0 0 0 0 0.94902 0 0 0 1 0"/>
<feBlend mode="normal" in2="BackgroundImageFix" result="effect1_dropShadow_1002_1350"/>
<feBlend mode="normal" in="SourceGraphic" in2="effect1_dropShadow_1002_1350" result="shape"/>
</filter>
</defs>
</svg>
