<svg width="251" height="291" viewBox="0 0 251 291" fill="none" xmlns="http://www.w3.org/2000/svg">
<g clip-path="url(#clip0_5_2)">
<path d="M174.149 291L241 252.49V194.557L174.149 233.066V291Z" fill="#CBC7BC"/>
<path d="M102.489 249.696L174.149 291V233.066L102.489 191.763V249.696Z" fill="#EEE8DE"/>
<path d="M174.149 233.066L241 194.557L169.318 153.253L102.489 191.763L174.149 233.066Z" fill="#F7F5ED"/>
<path d="M179.974 229.709L201.309 227.501L241 194.557L169.318 153.253L174.194 229.709H179.974Z" fill="#CBC7BC"/>
<path d="M174.194 229.709L236.056 194.084V158.594L174.194 194.242V229.709Z" fill="#1B18B8"/>
<path d="M107.885 191.493L174.194 229.709V194.242L107.885 156.002V191.493Z" fill="#3A37D8"/>
<path d="M174.194 194.242L236.056 158.594L169.724 120.377L107.885 156.002L174.194 194.242Z" fill="#F7F5ED"/>
<path d="M174.149 223.174L241 184.665V116.659L174.149 155.168V223.174Z" fill="#CBC7BC"/>
<path d="M102.489 181.871L174.149 223.174V155.169L102.489 113.865V181.871Z" fill="#EEE8DE"/>
<path d="M174.149 155.168L241 116.659L169.318 75.355L102.489 113.865L174.149 155.168Z" fill="#F7F5ED"/>
<path opacity="0.5" d="M169.182 236.153V282.324L106.96 246.474V200.303L169.182 236.153ZM107.434 246.181L168.685 281.468V236.401L107.434 201.114V246.181Z" fill="#BEB9B0"/>
<path d="M106.96 125.875V143.766C106.96 145.479 108.359 147.687 110.075 148.679L166.066 180.947C167.782 181.938 169.182 181.352 169.182 179.64V161.748C169.182 160.036 167.782 157.827 166.066 156.836L110.075 124.568C108.359 123.576 106.96 124.162 106.96 125.875Z" fill="#006957"/>
<path d="M164.35 161.455C165.095 161.883 165.705 162.83 165.705 163.573C165.705 164.317 165.095 164.565 164.35 164.137C163.605 163.708 162.996 162.762 162.996 162.018C162.996 161.275 163.605 161.027 164.35 161.455Z" fill="#0F937C"/>
<path d="M156.9 157.151C157.645 157.58 158.254 158.526 158.254 159.27C158.254 160.013 157.645 160.261 156.9 159.833C156.155 159.405 155.545 158.458 155.545 157.715C155.545 156.971 156.155 156.723 156.9 157.151Z" fill="#0F937C"/>
<path d="M149.45 152.87C150.195 153.298 150.804 154.244 150.804 154.988C150.804 155.731 150.195 155.979 149.45 155.551C148.705 155.123 148.095 154.177 148.095 153.433C148.095 152.689 148.705 152.442 149.45 152.87Z" fill="#33CAB0"/>
<path d="M142.021 148.566C142.766 148.994 143.376 149.94 143.376 150.684C143.376 151.428 142.766 151.676 142.021 151.247C141.276 150.819 140.667 149.873 140.667 149.129C140.667 148.386 141.276 148.138 142.021 148.566Z" fill="#33CAB0"/>
<path d="M134.571 144.285C135.316 144.713 135.926 145.659 135.926 146.403C135.926 147.146 135.316 147.394 134.571 146.966C133.826 146.538 133.217 145.592 133.217 144.848C133.217 144.104 133.826 143.857 134.571 144.285Z" fill="#0F937C"/>
<path d="M127.121 140.003C127.866 140.432 128.476 141.378 128.476 142.122C128.476 142.865 127.866 143.113 127.121 142.685C126.376 142.257 125.766 141.31 125.766 140.567C125.766 139.823 126.376 139.575 127.121 140.003Z" fill="#0F937C"/>
<path d="M119.67 135.699C120.415 136.127 121.025 137.074 121.025 137.817C121.025 138.561 120.415 138.809 119.67 138.381C118.925 137.953 118.316 137.006 118.316 136.263C118.316 135.519 118.925 135.271 119.67 135.699Z" fill="#33CAB0"/>
<path d="M112.243 131.418C112.988 131.846 113.597 132.793 113.597 133.536C113.597 134.28 112.988 134.528 112.243 134.099C111.497 133.671 110.888 132.725 110.888 131.981C110.888 131.238 111.497 130.99 112.243 131.418Z" fill="#33CAB0"/>
<path d="M164.35 171.663C165.095 172.091 165.705 173.037 165.705 173.781C165.705 174.524 165.095 174.772 164.35 174.344C163.605 173.916 162.996 172.97 162.996 172.226C162.996 171.482 163.605 171.234 164.35 171.663Z" fill="#0F937C"/>
<path d="M156.9 167.359C157.645 167.787 158.254 168.733 158.254 169.477C158.254 170.221 157.645 170.469 156.9 170.04C156.155 169.612 155.545 168.666 155.545 167.922C155.545 167.179 156.155 166.931 156.9 167.359Z" fill="#33CAB0"/>
<path d="M149.45 163.078C150.195 163.506 150.804 164.452 150.804 165.196C150.804 165.939 150.195 166.187 149.45 165.759C148.705 165.331 148.095 164.385 148.095 163.641C148.095 162.897 148.705 162.65 149.45 163.078Z" fill="#33CAB0"/>
<path d="M142.022 158.796C142.767 159.224 143.376 160.17 143.376 160.914C143.376 161.658 142.767 161.906 142.022 161.477C141.277 161.049 140.667 160.103 140.667 159.359C140.667 158.616 141.277 158.368 142.022 158.796Z" fill="#0F937C"/>
<path d="M134.571 154.492C135.316 154.92 135.926 155.867 135.926 156.61C135.926 157.354 135.316 157.602 134.571 157.174C133.826 156.746 133.217 155.799 133.217 155.056C133.217 154.312 133.826 154.064 134.571 154.492Z" fill="#0F937C"/>
<path d="M127.121 150.211C127.866 150.639 128.476 151.585 128.476 152.329C128.476 153.073 127.866 153.321 127.121 152.892C126.376 152.464 125.766 151.518 125.766 150.774C125.766 150.031 126.376 149.783 127.121 150.211Z" fill="#0F937C"/>
<path d="M119.67 145.907C120.415 146.335 121.025 147.281 121.025 148.025C121.025 148.768 120.415 149.016 119.67 148.588C118.925 148.16 118.316 147.214 118.316 146.47C118.316 145.726 118.925 145.479 119.67 145.907Z" fill="#33CAB0"/>
<path d="M112.243 141.626C112.988 142.054 113.597 143 113.597 143.744C113.597 144.487 112.988 144.735 112.243 144.307C111.497 143.879 110.888 142.932 110.888 142.189C110.888 141.445 111.497 141.197 112.243 141.626Z" fill="#0F937C"/>
<path d="M106.96 156.318V174.209C106.96 175.922 108.359 178.13 110.075 179.122L166.066 211.389C167.782 212.381 169.182 211.795 169.182 210.082V192.191C169.182 190.478 167.782 188.27 166.066 187.279L110.075 155.011C108.359 154.019 106.96 154.605 106.96 156.318Z" fill="#3A37D8"/>
<path d="M164.35 191.898C165.095 192.326 165.705 193.272 165.705 194.016C165.705 194.76 165.095 195.008 164.35 194.579C163.605 194.151 162.996 193.205 162.996 192.461C162.996 191.718 163.605 191.47 164.35 191.898Z" fill="#9E8DFF"/>
<path d="M156.9 187.594C157.645 188.022 158.254 188.969 158.254 189.712C158.254 190.456 157.645 190.704 156.9 190.276C156.155 189.848 155.545 188.901 155.545 188.158C155.545 187.414 156.155 187.166 156.9 187.594Z" fill="#6262C9"/>
<path d="M149.45 183.313C150.195 183.741 150.804 184.687 150.804 185.431C150.804 186.174 150.195 186.422 149.45 185.994C148.705 185.566 148.095 184.619 148.095 183.876C148.095 183.132 148.705 182.884 149.45 183.313Z" fill="#6262C9"/>
<path d="M142.022 179.031C142.767 179.459 143.376 180.406 143.376 181.149C143.376 181.893 142.767 182.141 142.022 181.713C141.277 181.285 140.667 180.338 140.667 179.595C140.667 178.851 141.277 178.603 142.022 179.031Z" fill="#9E8DFF"/>
<path d="M134.571 174.728C135.316 175.156 135.926 176.102 135.926 176.846C135.926 177.589 135.316 177.837 134.571 177.409C133.826 176.981 133.217 176.034 133.217 175.291C133.217 174.547 133.826 174.299 134.571 174.728Z" fill="#9E8DFF"/>
<path d="M127.121 170.446C127.866 170.874 128.476 171.821 128.476 172.564C128.476 173.308 127.866 173.556 127.121 173.128C126.376 172.7 125.766 171.753 125.766 171.01C125.766 170.266 126.376 170.018 127.121 170.446Z" fill="#9E8DFF"/>
<path d="M119.67 166.165C120.415 166.593 121.025 167.539 121.025 168.283C121.025 169.026 120.415 169.274 119.67 168.846C118.925 168.418 118.316 167.472 118.316 166.728C118.316 165.984 118.925 165.736 119.67 166.165Z" fill="#6262C9"/>
<path d="M112.243 161.861C112.988 162.289 113.597 163.235 113.597 163.979C113.597 164.723 112.988 164.97 112.243 164.542C111.497 164.114 110.888 163.168 110.888 162.424C110.888 161.681 111.497 161.433 112.243 161.861Z" fill="#9E8DFF"/>
<path d="M164.35 202.105C165.095 202.534 165.705 203.48 165.705 204.224C165.705 204.967 165.095 205.215 164.35 204.787C163.605 204.359 162.996 203.412 162.996 202.669C162.996 201.925 163.605 201.677 164.35 202.105Z" fill="#9E8DFF"/>
<path d="M156.9 197.824C157.645 198.252 158.254 199.199 158.254 199.942C158.254 200.686 157.645 200.934 156.9 200.506C156.155 200.078 155.545 199.131 155.545 198.388C155.545 197.644 156.155 197.396 156.9 197.824Z" fill="#9E8DFF"/>
<path d="M149.45 193.521C150.195 193.949 150.804 194.895 150.804 195.639C150.804 196.382 150.195 196.63 149.45 196.202C148.705 195.774 148.095 194.827 148.095 194.084C148.095 193.34 148.705 193.092 149.45 193.521Z" fill="#9E8DFF"/>
<path d="M142.022 189.239C142.767 189.667 143.376 190.613 143.376 191.357C143.376 192.101 142.767 192.348 142.022 191.92C141.277 191.492 140.667 190.546 140.667 189.802C140.667 189.059 141.277 188.811 142.022 189.239Z" fill="#9E8DFF"/>
<path d="M134.571 184.935C135.316 185.363 135.926 186.31 135.926 187.053C135.926 187.797 135.316 188.045 134.571 187.617C133.826 187.188 133.217 186.242 133.217 185.498C133.217 184.755 133.826 184.507 134.571 184.935Z" fill="#6262C9"/>
<path d="M127.121 180.654C127.866 181.082 128.476 182.028 128.476 182.772C128.476 183.516 127.866 183.763 127.121 183.335C126.376 182.907 125.766 181.961 125.766 181.217C125.766 180.474 126.376 180.226 127.121 180.654Z" fill="#9E8DFF"/>
<path d="M119.67 176.373C120.415 176.801 121.025 177.747 121.025 178.491C121.025 179.234 120.415 179.482 119.67 179.054C118.925 178.626 118.316 177.68 118.316 176.936C118.316 176.192 118.925 175.944 119.67 176.373Z" fill="#6262C9"/>
<path d="M112.243 172.068C112.988 172.497 113.597 173.443 113.597 174.187C113.597 174.93 112.988 175.178 112.243 174.75C111.497 174.322 110.888 173.375 110.888 172.632C110.888 171.888 111.497 171.64 112.243 172.068Z" fill="#6262C9"/>
<g style="mix-blend-mode:multiply" opacity="0.5">
<path d="M236.733 128.466V146.358C236.733 148.07 235.333 150.279 233.617 151.27L182.074 180.969C180.358 181.961 178.958 181.375 178.958 179.662V161.771C178.958 160.058 180.358 157.85 182.074 156.858L233.617 127.159C235.333 126.168 236.733 126.754 236.733 128.466Z" fill="#BEB9B0"/>
</g>
<g style="mix-blend-mode:multiply" opacity="0.5">
<path d="M236.733 228.627V246.519C236.733 248.231 235.333 250.44 233.617 251.431L182.074 281.13C180.358 282.122 178.958 281.536 178.958 279.823V261.932C178.958 260.219 180.358 258.011 182.074 257.019L233.617 227.32C235.333 226.329 236.733 226.915 236.733 228.627Z" fill="#BEB9B0"/>
</g>
<g filter="url(#filter0_d_5_2)">
<path opacity="0.9" d="M75.9384 196.562L130.778 228.177V79.929L75.9384 48.3149V196.562Z" fill="#5D5BF2"/>
<path d="M72.7323 50.9738L127.595 82.566V71.6144L72.7323 40V50.9738Z" fill="#3A37D8"/>
<path d="M122.854 113.301L126.534 115.442V117.019L122.854 114.901V113.301Z" fill="#8280FF"/>
<path d="M115.923 109.313L120.709 112.085V113.662L115.923 110.89V109.313Z" fill="#8280FF"/>
<path d="M107.185 105.865V104.288L113.778 108.073V109.673L107.185 105.865Z" fill="#8280FF"/>
<path d="M98.3801 100.795V99.218L104.973 103.003V104.603L98.3801 100.795Z" fill="#8280FF"/>
<path d="M118.767 115.262L126.534 119.723V121.323L118.767 116.839V115.262Z" fill="#8280FF"/>
<path d="M116.622 115.599L111.813 112.85V111.25L116.622 114.022V115.599Z" fill="#8280FF"/>
<path d="M105.604 109.268V107.69L109.691 110.034V111.611L105.604 109.268Z" fill="#8280FF"/>
<path d="M103.482 108.028L95.9191 103.679V102.102L103.482 106.451V108.028Z" fill="#8280FF"/>
<path d="M122.854 121.909L126.534 124.027V125.627L122.854 123.487V121.909Z" fill="#8280FF"/>
<path d="M120.709 122.269L115.923 119.498V117.92L120.709 120.669V122.269Z" fill="#8280FF"/>
<path d="M113.778 118.259L107.659 114.743V113.166L113.778 116.681V118.259Z" fill="#8280FF"/>
<path d="M105.401 113.436L99.554 110.079V108.479L105.401 111.859V113.436Z" fill="#8280FF"/>
<path d="M118.767 123.847L126.534 128.331V129.931L118.767 125.447V123.847Z" fill="#8280FF"/>
<path d="M98.7186 112.31L101.496 113.909V115.487L98.7186 113.887V112.31Z" fill="#8280FF"/>
<path d="M111.813 119.858L116.622 122.63V124.207L111.813 121.436V119.858Z" fill="#8280FF"/>
<path d="M109.691 118.642V120.219L104.092 116.974V115.397L109.691 118.642Z" fill="#8280FF"/>
<path d="M122.854 130.517L126.534 132.635V134.212L122.854 132.094V130.517Z" fill="#8280FF"/>
<path d="M120.709 130.855L115.923 128.106V126.506L120.709 129.277V130.855Z" fill="#8280FF"/>
<path d="M105.198 121.931L100.389 119.16V117.583L105.198 120.332V121.931Z" fill="#8280FF"/>
<path d="M107.84 123.464V121.864L113.778 125.289V126.866L107.84 123.464Z" fill="#8280FF"/>
<path d="M122.854 166.007L126.534 168.125V169.725L122.854 167.584V166.007Z" fill="#8280FF"/>
<path d="M115.923 162.019L120.709 164.768V166.368L115.923 163.596V162.019Z" fill="#8280FF"/>
<path d="M100.593 154.763V153.186L113.778 160.779V162.357L100.593 154.763Z" fill="#8280FF"/>
<path d="M118.767 167.945L126.534 172.429V174.006L118.767 169.545V167.945Z" fill="#8280FF"/>
<path d="M116.622 168.305L111.813 165.534V163.957L116.622 166.728V168.305Z" fill="#8280FF"/>
<path d="M105.604 161.973V160.374L109.691 162.717V164.317L105.604 161.973Z" fill="#8280FF"/>
<path d="M103.482 160.734L100.751 159.157V157.58L103.482 159.157V160.734Z" fill="#8280FF"/>
<path d="M122.854 174.615L126.534 176.733V178.31L122.854 176.192V174.615Z" fill="#8280FF"/>
<path d="M120.709 174.953L115.923 172.204V170.604L120.709 173.376V174.953Z" fill="#8280FF"/>
<path d="M113.778 170.965L103.483 165.038V163.461L113.778 169.387V170.965Z" fill="#8280FF"/>
<path d="M118.767 176.553L126.534 181.037V182.614L118.767 178.13V176.553Z" fill="#8280FF"/>
<path d="M111.813 172.564L116.622 175.314V176.913L111.813 174.142V172.564Z" fill="#8280FF"/>
<path d="M109.691 171.325V172.902L105.604 170.559V168.981L109.691 171.325Z" fill="#8280FF"/>
<path d="M122.854 183.2L126.534 185.341V186.918L122.854 184.8V183.2Z" fill="#8280FF"/>
<path d="M120.709 183.561L115.923 180.789V179.212L120.709 181.984V183.561Z" fill="#8280FF"/>
<path d="M104.386 174.142V172.564L113.778 177.995V179.572L104.386 174.142Z" fill="#8280FF"/>
<path d="M122.854 86.306L126.534 88.447V90.024L122.854 87.906V86.306Z" fill="#8280FF"/>
<path d="M115.923 82.318L120.709 85.089V86.667L115.923 83.895V82.318Z" fill="#8280FF"/>
<path d="M100.751 75.175V73.597L113.778 81.101V82.678L100.751 75.175Z" fill="#8280FF"/>
<path d="M95.9192 70.8032L98.6284 72.358V73.935L95.9192 72.381V70.8032Z" fill="#8280FF"/>
<path d="M118.767 88.267L126.534 92.751V94.328L118.767 89.844V88.267Z" fill="#8280FF"/>
<path d="M116.622 88.605L111.813 85.856V84.256L116.622 87.027V88.605Z" fill="#8280FF"/>
<path d="M105.604 82.273V80.695L109.691 83.039V84.616L105.604 82.273Z" fill="#8280FF"/>
<path d="M103.482 81.033L98.2445 78.014V76.437L103.482 79.456V81.033Z" fill="#8280FF"/>
<path d="M122.854 94.914L126.534 97.032V98.632L122.854 96.491V94.914Z" fill="#8280FF"/>
<path d="M120.709 95.275L115.923 92.503V90.926L120.709 93.697V95.275Z" fill="#8280FF"/>
<path d="M113.778 91.286L100.751 83.782V82.183L113.778 89.686V91.286Z" fill="#8280FF"/>
<path d="M118.767 96.852L126.534 101.336V102.936L118.767 98.452V96.852Z" fill="#8280FF"/>
<path d="M111.813 92.863L116.622 95.635V97.212L111.813 94.441V92.863Z" fill="#8280FF"/>
<path d="M109.691 91.647V93.224L105.604 90.881V89.281L109.691 91.647Z" fill="#8280FF"/>
<path d="M98.2445 85.044L103.482 88.064V89.641L98.2445 86.622V85.044Z" fill="#8280FF"/>
<path d="M122.854 103.522L126.534 105.64V107.217L122.854 105.099V103.522Z" fill="#8280FF"/>
<path d="M120.709 103.882L115.923 101.111V99.533L120.709 102.282V103.882Z" fill="#8280FF"/>
<path d="M100.751 92.368V90.791L113.778 98.294V99.872L100.751 92.368Z" fill="#8280FF"/>
<path d="M122.854 139.688L126.534 141.829V143.406L122.854 141.288V139.688Z" fill="#8280FF"/>
<path d="M115.923 135.7L120.709 138.471V140.049L115.923 137.277V135.7Z" fill="#8280FF"/>
<path d="M100.751 128.556V126.957L113.778 134.46V136.06L100.751 128.556Z" fill="#8280FF"/>
<path d="M95.9192 124.185L98.6284 125.74V127.317L95.9192 125.762V124.185Z" fill="#8280FF"/>
<path d="M118.767 141.648L126.534 146.133V147.71L118.767 143.226V141.648Z" fill="#8280FF"/>
<path d="M116.622 141.987L111.813 139.238V137.638L116.622 140.409V141.987Z" fill="#8280FF"/>
<path d="M105.604 135.654V134.077L109.691 136.421V137.998L105.604 135.654Z" fill="#8280FF"/>
<path d="M103.482 134.415L95.9191 130.066V128.489L103.482 132.838V134.415Z" fill="#8280FF"/>
<path d="M122.854 148.296L126.534 150.414V152.014L122.854 149.873V148.296Z" fill="#8280FF"/>
<path d="M120.709 148.657L115.923 145.885V144.308L120.709 147.057V148.657Z" fill="#8280FF"/>
<path d="M99.6895 136.533L96.8899 134.933V133.333L99.6895 134.956V136.533Z" fill="#8280FF"/>
<path d="M113.778 144.668L102.331 138.066V136.488L113.778 143.068V144.668Z" fill="#8280FF"/>
<path d="M118.767 150.234L126.534 154.718V156.318L118.767 151.834V150.234Z" fill="#8280FF"/>
<path d="M111.813 146.245L116.622 149.017V150.594L111.813 147.822V146.245Z" fill="#8280FF"/>
<path d="M109.691 145.029V146.606L105.604 144.262V142.663L109.691 145.029Z" fill="#8280FF"/>
<path d="M98.2445 138.426L103.482 141.446V143.023L98.2445 140.004V138.426Z" fill="#8280FF"/>
<path d="M122.854 156.904L126.534 159.022V160.599L122.854 158.481V156.904Z" fill="#8280FF"/>
<path d="M120.709 157.264L115.923 154.492V152.893L120.709 155.664V157.264Z" fill="#8280FF"/>
<path d="M100.751 145.75V144.172L113.778 151.676V153.253L100.751 145.75Z" fill="#8280FF"/>
<path d="M83.3208 90.52L79.6182 88.402V89.979L83.3208 92.12V90.52Z" fill="#8280FF"/>
<path d="M85.6689 96.176L79.6183 92.706V94.283L85.6689 97.776V96.176Z" fill="#8280FF"/>
<path d="M83.3208 99.128L79.6182 97.01V98.587L83.3208 100.705V99.128Z" fill="#8280FF"/>
<path d="M85.6689 104.784L79.6183 101.313V102.891L85.6689 106.361V104.784Z" fill="#8280FF"/>
<path d="M83.3208 107.735L79.6182 105.617V107.195L83.3208 109.313V107.735Z" fill="#8280FF"/>
<path d="M83.3208 143.226L79.6182 141.107V142.685L83.3208 144.803V143.226Z" fill="#8280FF"/>
<path d="M85.6689 148.881L79.6183 145.411V146.988L85.6689 150.459V148.881Z" fill="#8280FF"/>
<path d="M83.3208 151.834L79.6182 149.693V151.293L83.3208 153.411V151.834Z" fill="#8280FF"/>
<path d="M85.6689 157.489L79.6183 153.997V155.596L85.6689 159.067V157.489Z" fill="#8280FF"/>
<path d="M83.3208 160.441L79.6182 158.3V159.878L83.3208 162.018V160.441Z" fill="#8280FF"/>
<path d="M83.3208 63.5249L79.6182 61.4067V62.9841L83.3208 65.1248V63.5249Z" fill="#8280FF"/>
<path d="M85.6689 69.1806L79.6183 65.7104V67.2878L85.6689 70.7805V69.1806Z" fill="#8280FF"/>
<path d="M83.3208 72.133L79.6182 70.0146V71.592L83.3208 73.733V72.133Z" fill="#8280FF"/>
<path d="M85.6689 77.789L79.6183 74.318V75.896L85.6689 79.366V77.789Z" fill="#8280FF"/>
<path d="M83.3208 80.74L79.6182 78.622V80.199L83.3208 82.318V80.74Z" fill="#8280FF"/>
<path d="M122.854 193.588L126.534 195.706V197.306L122.854 195.165V193.588Z" fill="#8280FF"/>
<path d="M115.923 189.6L120.709 192.349V193.949L115.923 191.177V189.6Z" fill="#8280FF"/>
<path d="M100.751 182.434V180.856L113.778 188.36V189.937L100.751 182.434Z" fill="#8280FF"/>
<path d="M95.9192 178.062L98.6284 179.64V181.217L95.9192 179.662V178.062Z" fill="#8280FF"/>
<path d="M118.767 195.526L126.534 200.01V201.61L118.767 197.126V195.526Z" fill="#8280FF"/>
<path d="M116.622 195.887L111.813 193.115V191.538L116.622 194.309V195.887Z" fill="#8280FF"/>
<path d="M105.604 189.554V187.955L109.691 190.298V191.898L105.604 189.554Z" fill="#8280FF"/>
<path d="M103.482 188.315L98.2445 185.296V183.718L103.482 186.738V188.315Z" fill="#8280FF"/>
<path d="M122.854 202.196L126.534 204.314V205.891L122.854 203.773V202.196Z" fill="#8280FF"/>
<path d="M120.709 202.534L115.923 199.785V198.185L120.709 200.957V202.534Z" fill="#8280FF"/>
<path d="M113.778 198.545L100.751 191.042V189.464L113.778 196.968V198.545Z" fill="#8280FF"/>
<path d="M118.767 204.134L126.534 208.618V210.195L118.767 205.711V204.134Z" fill="#8280FF"/>
<path d="M111.813 200.146L116.622 202.917V204.494L111.813 201.723V200.146Z" fill="#8280FF"/>
<path d="M109.691 198.906V200.506L105.604 198.14V196.562L109.691 198.906Z" fill="#8280FF"/>
<path d="M98.2445 192.304L103.482 195.323V196.923L98.2445 193.904V192.304Z" fill="#8280FF"/>
<path d="M122.854 210.781L126.534 212.922V214.499L122.854 212.381V210.781Z" fill="#8280FF"/>
<path d="M120.709 211.141L115.923 208.37V206.792L120.709 209.564V211.141Z" fill="#8280FF"/>
<path d="M100.751 199.65V198.072L113.778 205.576V207.153L100.751 199.65Z" fill="#8280FF"/>
<path d="M83.3208 170.807L79.6182 168.688V170.266L83.3208 172.384V170.807Z" fill="#8280FF"/>
<path d="M85.6689 176.462L79.6183 172.992V174.57L85.6689 178.04V176.462Z" fill="#8280FF"/>
<path d="M83.3208 179.415L79.6182 177.296V178.874L83.3208 180.992V179.415Z" fill="#8280FF"/>
<path d="M85.6689 185.07L79.6183 181.578V183.178L85.6689 186.648V185.07Z" fill="#8280FF"/>
<path d="M83.3208 188.022L79.6182 185.881V187.481L83.3208 189.599V188.022Z" fill="#8280FF"/>
<path d="M83.3208 116.907L79.6182 114.789V116.366L83.3208 118.507V116.907Z" fill="#8280FF"/>
<path d="M85.6689 122.562L79.6183 119.092V120.67L85.6689 124.162V122.562Z" fill="#8280FF"/>
<path d="M83.3208 125.515L79.6182 123.396V124.974L83.3208 127.092V125.515Z" fill="#8280FF"/>
<path d="M85.6689 131.17L79.6183 127.7V129.278L85.6689 132.748V131.17Z" fill="#8280FF"/>
<path d="M83.3208 134.122L79.6182 132.004V133.581L83.3208 135.699V134.122Z" fill="#8280FF"/>
</g>
<g filter="url(#filter1_d_5_2)">
<path d="M64.1306 236.672L67.7881 234.554L75.8481 229.619L72.1907 231.737L64.1306 236.672Z" fill="#715570"/>
<path d="M70.5652 222.904L74.2227 220.786L71.7392 215.716L68.0817 217.834L70.5652 222.904Z" fill="#006957"/>
<path d="M72.1906 231.737L75.8481 229.619L75.8707 221.732L72.2132 223.851L72.1906 231.737Z" fill="#006957"/>
<path d="M72.2132 223.851L75.8707 221.733L74.2226 220.786L70.5651 222.904L72.2132 223.851Z" fill="#006957"/>
<path d="M68.0818 217.834L71.7394 215.716L75.8936 211.75L72.2361 213.868L68.0818 217.834Z" fill="#006957"/>
<path d="M72.236 213.868L75.8936 211.75L75.9161 205.238L72.2586 207.356L72.236 213.868Z" fill="#006957"/>
<path d="M72.2586 207.356L75.9161 205.238L71.7845 196.811L68.127 198.929L72.2586 207.356Z" fill="#006957"/>
<path d="M68.1271 198.928L71.7846 196.81L71.8071 187.346L68.1496 189.464L68.1271 198.928Z" fill="#006957"/>
<path d="M68.1497 189.464L71.8072 187.346L75.984 183.38L72.3265 185.499L68.1497 189.464Z" fill="#006957"/>
<path d="M72.3263 185.499L75.9838 183.381L76.0063 174.818L72.3489 176.936L72.3263 185.499Z" fill="#006957"/>
<path d="M61.602 130.359L65.2595 128.241C64.1758 128.872 63.4759 130.224 63.4759 132.139C63.4759 135.993 66.1626 140.68 69.5266 142.618C71.2199 143.609 72.7551 143.699 73.8614 143.046L70.2039 145.164C69.0976 145.795 67.5624 145.705 65.8691 144.736C62.5051 142.798 59.7959 138.111 59.8184 134.258C59.8184 132.342 60.4958 130.99 61.602 130.359Z" fill="#0F937C"/>
<path d="M54.3548 121.684C58.2381 119.431 63.634 119.746 69.5718 123.171C81.3796 129.976 90.9298 146.471 90.9072 160.036C90.9072 166.751 88.514 171.483 84.6759 173.714L81.0184 175.832C84.8565 173.601 87.2271 168.869 87.2497 162.154C87.2949 148.611 77.7447 132.117 65.9143 125.289C59.9765 121.864 54.5806 121.549 50.6973 123.802L54.3548 121.684Z" fill="#006957"/>
<path d="M44.4658 137.502C44.5109 123.96 54.1062 118.507 65.9141 125.312C77.7219 132.117 87.272 148.611 87.2495 162.177C87.2269 173.083 80.9505 178.761 72.3486 176.958V185.521L68.1492 189.487V198.951L72.2583 207.379V213.913L68.0815 217.857L70.565 222.927L72.2131 223.873V231.76L64.1305 236.695L61.4889 235.185L59.0958 224.211L59.2538 169.41C50.6519 161.275 44.4432 148.431 44.4884 137.525L44.4658 137.502ZM65.8689 144.736C69.2555 146.674 71.9647 145.141 71.9873 141.288C71.9873 137.435 69.3006 132.725 65.9141 130.787C62.5501 128.85 59.8182 130.427 59.8182 134.28C59.8182 138.133 62.5049 142.82 65.8689 144.758V144.736Z" fill="#33CAB0"/>
<path opacity="0.4" d="M44.4662 137.502C44.4662 129.841 47.5819 124.771 52.3908 123.036C49.659 125.582 48.0108 129.751 47.9883 135.316C47.9657 146.223 54.1744 159.089 62.7537 167.201L62.5957 222.003L64.9889 232.976L67.6304 234.486L64.1083 236.672L61.4668 235.162L59.0736 224.188L59.2317 169.387C50.6298 161.252 44.4211 148.408 44.4662 137.502Z" fill="#B87EB4"/>
</g>
<path d="M11.4132 65.8009C11.4132 64.156 12.5872 63.48 14.0321 64.3137L67.3142 95.027C68.7591 95.861 69.9105 97.866 69.9105 99.511L69.8654 113.279C69.8654 114.924 68.6914 115.6 67.2464 114.766L13.9644 84.053C12.5194 83.219 11.368 81.214 11.368 79.569L11.4132 65.8009ZM14.5288 83.107L67.8109 113.82C68.1269 114 68.3301 114.022 68.4204 114.022C68.7139 114.022 68.7591 113.504 68.7591 113.279L68.8043 99.511C68.8043 98.249 67.856 96.604 66.7723 95.973L13.4903 65.2601C13.1742 65.0798 12.971 65.0573 12.8807 65.0573C12.5872 65.0573 12.542 65.5756 12.542 65.8009L12.4969 79.569C12.4969 80.808 13.4451 82.453 14.5288 83.084V83.107Z" fill="#006957"/>
<path d="M59.5705 100.457C59.5705 101.404 60.3381 102.643 61.3089 103.184C62.2572 103.747 63.0474 103.409 63.0474 102.44C63.0474 101.471 62.2797 100.255 61.3089 99.714C60.3607 99.15 59.5705 99.488 59.5705 100.457ZM53.4972 95.23C54.4455 95.793 55.2357 97.01 55.2357 97.956C55.2357 98.903 54.468 99.241 53.4972 98.7C52.549 98.136 51.7588 96.92 51.7588 95.973C51.7588 95.027 52.5264 94.689 53.4972 95.23ZM45.7081 90.745C46.6564 91.309 47.4466 92.526 47.4466 93.472C47.4466 94.418 46.6789 94.756 45.7081 94.216C44.7599 93.652 43.9697 92.435 43.9697 91.489C43.9697 90.543 44.7373 90.205 45.7081 90.768V90.745ZM37.919 86.261C38.8673 86.825 39.6574 88.041 39.6574 88.988C39.6574 89.934 38.8898 90.272 37.919 89.731C36.9708 89.168 36.1806 87.951 36.1806 87.005C36.1806 86.058 36.9482 85.72 37.919 86.261ZM30.1299 81.777C31.0781 82.34 31.8683 83.557 31.8683 84.504C31.8683 85.45 31.1007 85.788 30.1299 85.247C29.1817 84.684 28.3915 83.467 28.3915 82.521C28.3915 81.574 29.1591 81.236 30.1299 81.8V81.777Z" fill="#33CAB0"/>
</g>
<defs>
<filter id="filter0_d_5_2" x="28.7323" y="-28" width="186.046" height="316.177" filterUnits="userSpaceOnUse" color-interpolation-filters="sRGB">
<feFlood flood-opacity="0" result="BackgroundImageFix"/>
<feColorMatrix in="SourceAlpha" type="matrix" values="0 0 0 0 0 0 0 0 0 0 0 0 0 0 0 0 0 0 127 0" result="hardAlpha"/>
<feOffset dx="20" dy="-4"/>
<feGaussianBlur stdDeviation="32"/>
<feComposite in2="hardAlpha" operator="out"/>
<feColorMatrix type="matrix" values="0 0 0 0 0.364706 0 0 0 0 0.356863 0 0 0 0 0.94902 0 0 0 0.8 0"/>
<feBlend mode="normal" in2="BackgroundImageFix" result="effect1_dropShadow_5_2"/>
<feBlend mode="normal" in="SourceGraphic" in2="effect1_dropShadow_5_2" result="shape"/>
</filter>
<filter id="filter1_d_5_2" x="20.4658" y="82.2444" width="114.441" height="184.451" filterUnits="userSpaceOnUse" color-interpolation-filters="sRGB">
<feFlood flood-opacity="0" result="BackgroundImageFix"/>
<feColorMatrix in="SourceAlpha" type="matrix" values="0 0 0 0 0 0 0 0 0 0 0 0 0 0 0 0 0 0 127 0" result="hardAlpha"/>
<feOffset dx="10" dy="-4"/>
<feGaussianBlur stdDeviation="17"/>
<feComposite in2="hardAlpha" operator="out"/>
<feColorMatrix type="matrix" values="0 0 0 0 0.0588235 0 0 0 0 0.576471 0 0 0 0 0.486275 0 0 0 1 0"/>
<feBlend mode="normal" in2="BackgroundImageFix" result="effect1_dropShadow_5_2"/>
<feBlend mode="normal" in="SourceGraphic" in2="effect1_dropShadow_5_2" result="shape"/>
</filter>
<clipPath id="clip0_5_2">
<rect width="251" height="291" fill="white"/>
</clipPath>
</defs>
</svg>
