<svg width="471" height="471" viewBox="0 0 471 471" fill="none" xmlns="http://www.w3.org/2000/svg">
<g filter="url(#filter0_d_1048_240)">
<path d="M301.656 345.796L346.017 371.391C351.609 374.619 356.15 371.204 356.15 363.735V314.608C356.15 307.139 351.609 298.47 346.017 295.242L301.656 269.646C296.064 266.419 291.523 269.834 291.523 277.303V326.43C291.523 333.899 296.064 342.568 301.656 345.796Z" fill="#006957"/>
</g>
<path d="M157.69 212.299L225.657 251.556C232.188 255.346 237.517 251.331 237.517 242.586V171.316C237.517 162.609 232.225 152.438 225.657 148.685L157.69 109.428C151.159 105.637 145.83 109.653 145.83 118.398V189.668C145.83 198.375 151.122 208.546 157.69 212.299Z" fill="#3A37D8"/>
<path d="M274.822 199.988C277.149 198.036 279.738 197.136 279.738 197.136C280.902 196.723 282.29 196.911 283.829 197.774L322.823 220.292C326.764 222.581 329.954 228.661 329.954 233.916V253.469C329.954 255.908 329.241 257.747 328.115 258.761C326.614 260.074 323.424 261.538 323.424 261.538L320.797 260.938V270.433L317.119 272.534L312.915 253.169L283.792 236.355C279.851 234.066 276.661 227.986 276.661 222.732V203.178C276.661 202.953 276.661 202.728 276.661 202.503L274.784 199.988H274.822Z" fill="#3A37D8"/>
<path d="M298.016 347.897L342.377 373.493C347.969 376.72 352.51 373.305 352.51 365.836V311.004C352.51 303.536 347.969 300.571 342.377 297.343L298.016 271.747C292.424 268.52 287.883 271.935 287.883 279.404V328.531C287.883 336 292.424 344.669 298.016 347.897Z" fill="#33CAB0"/>
<path d="M303.909 338.025L336.486 356.828V307.288L303.909 288.485V338.025Z" fill="#0F937C"/>
<path d="M310.778 333.446L329.618 344.33V340.314L310.778 329.393V333.446Z" fill="#FAECDF"/>
<path d="M310.778 323.951L329.618 334.835V330.819L310.778 319.935V323.951Z" fill="#FAECDF"/>
<path d="M310.778 314.494L329.618 325.378V321.362L310.778 310.441V314.494Z" fill="#FAECDF"/>
<path d="M310.778 304.999L329.618 315.92V311.867L310.778 300.983V304.999Z" fill="#FAECDF"/>
<g filter="url(#filter1_d_1048_240)">
<path d="M154.048 214.437L222.016 253.694C228.546 257.485 233.875 253.469 233.875 244.724V173.454C233.875 164.747 228.584 154.576 222.016 150.823L154.048 111.566C147.518 107.776 142.188 111.791 142.188 120.536V191.806C142.188 200.513 147.48 210.684 154.048 214.437Z" fill="#5D5BF2"/>
<path d="M177.843 138.588L173.377 147.37L163.431 143.467L170.637 156.453L168.948 167.937L177.843 167.187L186.738 178.221L185.011 164.747L192.217 160.056L182.271 152.512L177.843 138.588Z" fill="white"/>
<path d="M159.377 181.786L193.155 201.264C193.98 201.752 194.618 201.264 194.618 200.138V198.787C194.618 197.699 193.943 196.423 193.155 195.973L159.377 176.494C158.552 176.006 157.914 176.494 157.914 177.62V178.971C157.914 180.06 158.589 181.336 159.377 181.786Z" fill="white"/>
<path d="M159.377 193.308L193.155 212.786C193.98 213.274 194.618 212.786 194.618 211.66V210.309C194.618 209.22 193.943 207.944 193.155 207.494L159.377 188.016C158.552 187.528 157.914 188.016 157.914 189.142V190.493C157.914 191.581 158.589 192.857 159.377 193.308Z" fill="white"/>
<path d="M166.733 209.032L193.154 224.307C193.98 224.795 194.618 224.307 194.618 223.181V221.83C194.618 220.742 193.942 219.466 193.154 219.015L166.733 203.74C165.907 203.252 165.269 203.74 165.269 204.866V206.217C165.269 207.306 165.945 208.582 166.733 209.032Z" fill="white"/>
<path d="M201.975 160.131C203.964 158.479 206.328 157.579 206.328 157.579C207.867 156.978 209.744 157.166 211.77 158.329L254.405 182.949C259.471 185.876 263.6 193.758 263.6 200.513V201.94C263.6 205.242 262.624 207.682 261.01 208.958C259.471 210.421 256.544 211.51 256.544 211.51C256.544 211.51 254.855 210.009 252.04 207.532L211.77 184.3C206.704 181.373 202.575 173.491 202.575 166.736V165.31C202.575 164.034 202.725 162.908 202.988 161.932C202.162 160.956 201.787 160.318 201.975 160.131Z" fill="#3A37D8"/>
<path d="M208.729 186.064L251.364 210.684C256.43 213.612 260.559 210.497 260.559 203.741V202.315C260.559 195.56 256.43 187.678 251.364 184.751L208.729 160.131C203.663 157.203 199.534 160.318 199.534 167.074V168.5C199.534 175.256 203.663 183.137 208.729 186.064Z" fill="#8280FF"/>
</g>
<path d="M280.151 199.876L319.145 222.395C323.086 224.684 326.276 230.764 326.276 236.018V255.572C326.276 260.826 323.086 263.228 319.145 260.976L317.156 259.813V272.535L309.312 255.271L280.188 238.458C276.248 236.168 273.058 230.088 273.058 224.834V205.281C273.058 200.027 276.248 197.625 280.188 199.876H280.151Z" fill="#5D5BF2"/>
<path d="M284.28 219.241L318.433 238.983V235.567L284.28 215.864V219.241Z" fill="#FAECDF"/>
<path d="M284.28 227.274L318.433 246.978V243.6L284.28 223.859V227.274Z" fill="#FAECDF"/>
<path d="M236.653 296.404L252.604 305.636C254.293 306.612 255.681 305.561 255.681 303.309V284.732C255.681 282.48 254.293 279.853 252.604 278.877L236.653 269.645C234.964 268.669 233.576 269.72 233.576 271.971V290.549C233.576 292.801 234.964 295.428 236.653 296.404Z" fill="#0F937C"/>
<path d="M235.527 274.45V290.701C235.527 292.352 236.578 294.266 237.892 295.017L251.253 302.748C252.566 303.499 253.617 302.748 253.617 301.134V284.884C253.617 283.232 252.566 281.318 251.253 280.568L237.892 272.836C236.578 272.086 235.527 272.836 235.527 274.45Z" fill="#33CAB0"/>
<path d="M238.943 291.039V295.618L250.203 302.111V297.532C250.203 294.605 248.814 291.302 246.787 289.05C246.112 288.262 245.361 287.624 244.573 287.174C243.785 286.723 243.034 286.498 242.359 286.46C241.683 286.46 241.12 286.611 240.595 286.948C239.581 287.624 238.943 289.05 238.943 291.002V291.039Z" fill="#BEFCF1"/>
<path d="M240.67 281.319C240.67 284.059 242.434 287.249 244.573 288.525C246.712 289.801 248.476 288.562 248.476 285.86C248.476 283.158 246.712 279.93 244.573 278.654C242.434 277.378 240.67 278.617 240.67 281.319Z" fill="#BEFCF1"/>
<g filter="url(#filter2_d_1048_240)">
<path d="M94 211.962V297.682L148.532 329.132V243.45L94 211.962Z" fill="#0F937C"/>
<path d="M111.377 244.687C111.377 247.427 112.278 250.467 113.704 253.094C115.13 255.721 117.119 258.011 119.296 259.249L148.495 276.101V256.134L119.296 239.283C114.905 236.769 111.377 239.171 111.377 244.687Z" fill="#006957"/>
<path d="M130.931 280.379C130.931 284.132 133.371 288.598 136.336 290.325C139.3 292.051 141.74 290.4 141.74 286.609C141.74 282.819 139.3 278.39 136.336 276.664C133.371 274.937 130.931 276.589 130.931 280.379Z" fill="white"/>
<path d="M105.785 266.681L126.052 278.39V274.825L105.785 263.115V266.681Z" fill="white"/>
<path d="M130.931 302.41C130.931 306.163 133.371 310.629 136.336 312.355C139.3 314.082 141.74 312.431 141.74 308.64C141.74 304.849 139.3 300.421 136.336 298.694C133.371 296.968 130.931 298.619 130.931 302.41Z" fill="white"/>
<path d="M105.785 288.711L126.052 300.421V296.855L105.785 285.146V288.711Z" fill="white"/>
<path d="M118.321 236.282C117.908 235.719 117.72 235.382 117.87 235.269C119.634 233.73 121.286 233.355 121.286 233.355C122.449 233.092 123.8 233.28 125.226 234.143L161.518 255.085C165.647 257.487 169.024 263.867 169.024 269.384C169.024 272.086 168.199 274.076 166.885 275.126C165.834 276.14 164.145 276.74 164.145 276.74C164.145 276.74 163.695 276.365 162.869 275.652C162.457 275.502 162.006 275.314 161.556 275.051L125.264 254.109C121.136 251.707 117.758 245.327 117.758 239.81C117.758 238.459 117.983 237.258 118.321 236.282Z" fill="#3A37D8"/>
<path d="M123.387 255.198L159.679 276.14C163.807 278.542 167.185 275.99 167.185 270.473C167.185 264.956 163.845 258.539 159.679 256.174L123.387 235.232C119.259 232.83 115.881 235.382 115.881 240.899C115.881 246.416 119.221 252.834 123.387 255.198Z" fill="#5D5BF2"/>
<path d="M159.466 271.043C161.614 270.01 161.884 266.113 160.069 262.34C158.254 258.567 155.041 256.346 152.893 257.379C150.745 258.413 150.475 262.309 152.29 266.082C154.105 269.855 157.318 272.076 159.466 271.043Z" fill="#C5C4FF"/>
<path d="M127.477 248.329L146.58 259.363V256.023L127.477 244.989V248.329Z" fill="#C5C4FF"/>
</g>
<path d="M172.213 311.755C172.213 316.446 175.215 321.963 178.931 324.103C182.646 326.242 185.649 324.178 185.649 319.524C185.649 314.87 182.646 309.316 178.931 307.176C175.215 305.037 172.213 307.101 172.213 311.755Z" fill="#33CAB0"/>
<path d="M178.931 309.653L177.467 312.506L174.24 311.23L176.604 315.433L176.041 319.149L178.931 318.923L181.821 322.489L181.258 318.135L183.585 316.596L180.357 314.157L178.931 309.653Z" fill="#BEFCF1"/>
<path d="M262.157 294.851L260.972 296.897L279.325 307.519L280.509 305.472L262.157 294.851Z" fill="#0F937C"/>
<path d="M195.856 324.778C197.695 324.778 199.422 324.291 200.923 323.315C204.376 321.1 206.252 316.634 206.252 310.817V287.736C206.252 281.994 208.129 277.603 211.356 275.726C214.209 274.075 217.999 274.45 222.015 276.777L228.621 280.605L229.821 278.541L223.216 274.713C218.412 271.973 213.796 271.598 210.156 273.662C206.14 275.989 203.85 281.093 203.85 287.736V310.817C203.85 315.771 202.312 319.599 199.609 321.326C197.395 322.752 194.543 322.789 191.353 321.326L190.377 323.502C192.253 324.366 194.092 324.778 195.819 324.778H195.856Z" fill="#0F937C"/>
<path d="M165.945 311.38L167.146 309.316C161.817 306.238 157.463 298.207 157.463 291.414V284.471H155.099V291.414C155.099 298.957 159.978 307.89 165.982 311.343L165.945 311.38Z" fill="#0F937C"/>
<path d="M248.249 199.952L250.613 201.341V192.747L248.249 191.396V199.952Z" fill="white"/>
<path d="M243.407 200.776L245.772 202.127V186.327L243.407 184.976V200.776Z" fill="white"/>
<path d="M238.565 195.299L240.892 196.687V186.179L238.565 184.828V195.299Z" fill="white"/>
<path d="M233.687 191.583L236.051 192.934V184.339L233.687 182.988V191.583Z" fill="white"/>
<path d="M228.846 193.497L231.21 194.886V176.796L228.846 175.445V193.497Z" fill="white"/>
<path d="M224.004 188.43L226.369 189.782V176.271L224.004 174.919V188.43Z" fill="white"/>
<path d="M219.163 183.175L221.489 184.526V175.931L219.163 174.58V183.175Z" fill="white"/>
<path d="M214.284 185.089L216.649 186.478V168.388L214.284 167.037V185.089Z" fill="white"/>
<path d="M209.443 177.546L211.807 178.935V170.34L209.443 168.989V177.546Z" fill="white"/>
<path d="M164.369 309.091C164.369 310.629 165.345 312.431 166.583 313.144C167.822 313.857 168.798 313.144 168.798 311.643C168.798 310.141 167.822 308.302 166.583 307.589C165.382 306.876 164.369 307.589 164.369 309.091Z" fill="#006957"/>
<path d="M154.049 283.232C154.049 284.77 155.025 286.572 156.263 287.285C157.464 287.998 158.477 287.285 158.477 285.784C158.477 284.283 157.502 282.444 156.263 281.73C155.062 281.017 154.049 281.73 154.049 283.232Z" fill="#006957"/>
<path d="M188.689 321.137C188.689 322.676 189.665 324.478 190.904 325.191C192.142 325.904 193.118 325.191 193.118 323.69C193.118 322.188 192.142 320.349 190.904 319.636C189.703 318.923 188.689 319.636 188.689 321.137Z" fill="#006957"/>
<path d="M227.046 278.278C227.046 279.816 228.022 281.618 229.26 282.331C230.499 283.044 231.474 282.331 231.474 280.83C231.474 279.328 230.499 277.489 229.26 276.776C228.059 276.063 227.046 276.776 227.046 278.278Z" fill="#006957"/>
<path d="M259.36 294.529C259.36 296.067 260.336 297.869 261.574 298.582C262.775 299.295 263.788 298.582 263.788 297.081C263.788 295.579 262.813 293.74 261.574 293.027C260.373 292.314 259.36 293.027 259.36 294.529Z" fill="#006957"/>
<path d="M277.749 305.148C277.749 306.687 278.725 308.488 279.963 309.201C281.164 309.915 282.178 309.201 282.178 307.7C282.178 306.199 281.202 304.36 279.963 303.647C278.762 302.934 277.749 303.647 277.749 305.148Z" fill="#006957"/>
<defs>
<filter id="filter0_d_1048_240" x="197.523" y="158.43" width="272.627" height="312.178" filterUnits="userSpaceOnUse" color-interpolation-filters="sRGB">
<feFlood flood-opacity="0" result="BackgroundImageFix"/>
<feColorMatrix in="SourceAlpha" type="matrix" values="0 0 0 0 0 0 0 0 0 0 0 0 0 0 0 0 0 0 127 0" result="hardAlpha"/>
<feOffset dx="10" dy="-6"/>
<feGaussianBlur stdDeviation="52"/>
<feComposite in2="hardAlpha" operator="out"/>
<feColorMatrix type="matrix" values="0 0 0 0 0.0588235 0 0 0 0 0.576471 0 0 0 0 0.486275 0 0 0 0.7 0"/>
<feBlend mode="normal" in2="BackgroundImageFix" result="effect1_dropShadow_1048_240"/>
<feBlend mode="normal" in="SourceGraphic" in2="effect1_dropShadow_1048_240" result="shape"/>
</filter>
<filter id="filter1_d_1048_240" x="48.1885" y="0.138184" width="329.411" height="352.984" filterUnits="userSpaceOnUse" color-interpolation-filters="sRGB">
<feFlood flood-opacity="0" result="BackgroundImageFix"/>
<feColorMatrix in="SourceAlpha" type="matrix" values="0 0 0 0 0 0 0 0 0 0 0 0 0 0 0 0 0 0 127 0" result="hardAlpha"/>
<feOffset dx="10" dy="-6"/>
<feGaussianBlur stdDeviation="52"/>
<feComposite in2="hardAlpha" operator="out"/>
<feColorMatrix type="matrix" values="0 0 0 0 0.364706 0 0 0 0 0.356863 0 0 0 0 0.94902 0 0 0 0.7 0"/>
<feBlend mode="normal" in2="BackgroundImageFix" result="effect1_dropShadow_1048_240"/>
<feBlend mode="normal" in="SourceGraphic" in2="effect1_dropShadow_1048_240" result="shape"/>
</filter>
<filter id="filter2_d_1048_240" x="0" y="101.962" width="283.024" height="325.17" filterUnits="userSpaceOnUse" color-interpolation-filters="sRGB">
<feFlood flood-opacity="0" result="BackgroundImageFix"/>
<feColorMatrix in="SourceAlpha" type="matrix" values="0 0 0 0 0 0 0 0 0 0 0 0 0 0 0 0 0 0 127 0" result="hardAlpha"/>
<feOffset dx="10" dy="-6"/>
<feGaussianBlur stdDeviation="52"/>
<feComposite in2="hardAlpha" operator="out"/>
<feColorMatrix type="matrix" values="0 0 0 0 0.0588235 0 0 0 0 0.576471 0 0 0 0 0.486275 0 0 0 0.7 0"/>
<feBlend mode="normal" in2="BackgroundImageFix" result="effect1_dropShadow_1048_240"/>
<feBlend mode="normal" in="SourceGraphic" in2="effect1_dropShadow_1048_240" result="shape"/>
</filter>
</defs>
</svg>
