<svg width="397" height="450" viewBox="0 0 397 450" fill="none" xmlns="http://www.w3.org/2000/svg">
<path d="M299.428 278.306C299.082 279.634 298.621 281.019 297.669 282.03C296.718 283.04 295.391 283.56 294.123 284.108C287.577 286.793 281.003 289.449 274.457 292.134C270.017 293.923 265.605 295.742 261.193 297.561L258.223 293.519L254.677 288.669L248.42 280.211C247.67 278.479 246.891 276.747 246.026 275.044C242.912 268.693 239.193 262.63 235.011 256.943C232.907 254.114 230.715 251.343 228.379 248.687C227.197 247.359 225.986 246.06 224.775 244.819C224.083 244.097 222.267 242.74 222.007 241.73C221.892 241.268 222.151 240.748 222.555 240.431C222.959 240.113 223.449 239.969 223.91 239.824C228.466 238.496 233.31 237.601 237.491 235.407C242.364 232.896 247.41 230.644 252.514 228.71C254.965 227.786 257.041 227.295 259.608 227.353C262.433 227.411 265 228.017 267.537 229.316C273.362 232.29 278.264 236.649 283.223 240.806C287.981 244.79 292.277 249.409 295.391 254.836C297.439 258.358 298.938 262.313 299.659 266.325C300.409 270.338 300.38 274.409 299.399 278.363L299.428 278.306Z" fill="#FFBC99"/>
<g style="mix-blend-mode:multiply">
<path d="M275.322 283.387C275.409 286.361 275.178 289.305 274.486 292.134C270.045 293.924 265.634 295.743 261.222 297.562L258.252 293.52C258.137 291.153 258.483 288.728 258.367 286.361C258.137 280.905 255.57 275.766 252.197 271.465C248.823 267.163 244.7 263.497 240.836 259.629C237.001 255.76 233.31 251.546 231.176 246.523C231.32 246.782 231.522 247.071 231.724 247.302L234.867 237.978C242.508 245.599 252.283 250.564 261.193 256.713C263.125 258.041 265.028 259.456 266.643 261.188C267.998 262.66 269.094 264.363 270.103 266.095C271.516 268.52 272.785 271.032 273.679 273.716C274.717 276.834 275.207 280.067 275.322 283.358V283.387Z" fill="#FFDECC"/>
</g>
<g style="mix-blend-mode:multiply">
<path d="M299.428 278.306C299.082 279.634 298.621 281.02 297.669 282.03C296.718 283.04 295.391 283.56 294.123 284.109C287.577 286.793 281.003 289.449 274.457 292.134C270.017 293.924 265.605 295.743 261.193 297.561L258.223 293.52L254.677 288.67C254.677 288.67 254.734 288.583 254.763 288.554C256.984 285.639 259.55 282.925 262.318 280.471L270.536 278.739C281.147 277.469 290.807 272.244 299.688 266.297C300.437 270.31 300.409 274.38 299.428 278.335V278.306Z" fill="#FFE6D9"/>
</g>
<path d="M271.343 281.106C271.257 281.741 271.112 282.348 270.997 282.925C270.709 283.935 270.392 284.917 270.046 285.898C269.728 286.678 269.411 287.486 269.065 288.237C269.065 288.266 269.036 288.323 269.007 288.352C268.777 288.785 268.575 289.276 268.315 289.709C267.941 290.46 267.537 291.21 267.076 291.932C266.297 293.318 265.403 294.674 264.509 295.974C264.077 296.609 263.615 297.244 263.183 297.821C261.943 299.495 260.674 301.141 259.319 302.729C259.204 302.96 259.002 303.133 258.829 303.364C258.569 303.681 258.281 304.028 258.021 304.345C257.041 305.5 256.061 306.626 254.994 307.723H254.965C253.321 309.542 251.591 311.245 249.775 312.89C249.458 313.179 249.169 313.439 248.852 313.641C247.41 314.969 245.882 316.181 244.354 317.336C243.777 317.798 243.229 318.26 242.653 318.664C242.278 318.953 241.932 319.212 241.557 319.472C241.153 319.761 240.749 320.079 240.317 320.367C238.27 321.868 236.194 323.398 234.089 324.813C233.771 325.073 233.483 325.246 233.166 325.448C232.387 326.025 231.58 326.516 230.773 327.065C230.455 327.267 230.167 327.44 229.85 327.642C227.341 329.259 224.717 330.702 222.007 331.943C221.661 332.145 221.286 332.29 220.911 332.434C220.133 332.809 219.296 333.156 218.489 333.473C212.261 335.898 205.658 337.313 199.256 339.363C179.476 345.656 159.695 352.238 140.779 360.956C137.089 362.659 133.052 364.507 129.073 363.525C126.795 362.948 124.949 361.389 123.825 359.397C122.239 356.712 121.95 353.306 123.421 350.621C123.334 350.65 123.219 350.708 123.133 350.737C116.933 353.45 110.734 356.164 104.505 358.849C99.517 361.014 94.1537 363.265 88.7328 362.342C87.118 362.082 85.5898 361.389 84.2346 360.465C81.0051 358.242 78.929 354.432 80.14 350.794C80.0823 350.823 80.0247 350.852 79.9382 350.881C75.6418 353.306 71.1724 355.76 66.2128 356.048C62.6662 356.279 58.86 355.009 56.4379 352.555C55.4575 351.545 54.7078 350.332 54.3041 348.947C52.5164 342.769 57.995 337.082 62.9257 332.983C62.868 332.983 62.7815 332.954 62.695 332.954C60.5324 332.55 58.86 331.135 57.7931 329.259C56.2649 326.603 55.8612 323.052 56.8992 320.107C58.687 314.998 63.2717 311.476 67.6834 308.358C79.1885 300.159 91.1261 292.48 103.958 286.62C112.954 282.521 122.527 279.23 131.639 275.39L132.273 275.044C133.801 274.467 135.272 273.86 136.771 273.168C137.752 272.735 138.732 272.244 139.684 271.782C143.029 270.165 146.229 268.375 149.315 266.384C150.122 265.893 150.958 265.315 151.737 264.738C153.207 263.728 154.62 262.659 156.033 261.418H156.062C156.754 260.841 157.446 260.263 158.109 259.599C158.34 259.484 158.513 259.282 158.743 259.051H158.772C159.176 258.676 159.522 258.3 159.926 257.925C160.531 257.319 161.166 256.626 161.252 255.789C161.31 255.125 161.05 254.634 160.647 254.259C160.589 254.172 160.531 254.143 160.445 254.057H160.416C159.983 253.739 159.436 253.508 158.83 253.393C157.907 253.133 156.84 253.104 155.975 253.248H155.889C155.485 253.306 155.11 253.364 154.707 253.451C154.303 253.479 153.899 253.537 153.467 253.595C152.775 253.681 152.054 253.797 151.362 253.912C150.295 254.057 149.199 254.23 148.132 254.374H148.103C146.172 254.663 144.326 254.981 142.423 255.211H142.394C141.097 255.442 139.77 255.616 138.473 255.818C136.714 256.078 134.955 256.308 133.196 256.539C132.562 256.626 131.956 256.684 131.379 256.77C130.284 256.886 129.217 257.03 128.121 257.117C126.968 257.232 125.757 257.377 124.603 257.434C122.469 257.636 120.364 257.723 118.231 257.752C117.625 257.781 117.077 257.781 116.472 257.781C113.012 257.781 109.551 257.579 106.091 257.146C102.141 256.655 98.0175 255.702 94.9611 253.075C92.7696 251.228 91.2702 247.908 91.2991 244.819C91.3279 242.712 92.1064 240.691 93.923 239.392C97.585 236.707 102.66 236.216 107.043 235.927C109.811 235.725 112.579 235.725 115.318 235.552C118 235.35 120.451 234.715 123.046 234.369C128.842 233.56 134.609 232.723 140.376 231.828C145.162 231.049 150.035 230.558 154.707 229.143C158.859 227.873 163.299 226.632 167.625 225.881C168.922 225.65 170.191 225.506 171.517 225.419C172.526 225.304 173.565 225.275 174.603 225.188C176.823 225.102 179.072 225.102 181.292 225.073C189.135 225.015 196.949 224.784 204.735 225.621C212.549 226.401 220.306 228.249 227.139 232.088C232.906 235.292 237.837 239.796 242.681 244.27C247.929 249.091 253.148 253.884 258.713 258.329C262.318 261.216 266.21 264.276 268.719 268.231C269.382 269.241 269.959 270.338 270.392 271.464C270.593 271.897 270.709 272.359 270.853 272.792C271.689 275.564 271.776 278.393 271.257 281.164L271.343 281.106Z" fill="#FFCDB3"/>
<g style="mix-blend-mode:multiply">
<path d="M263.212 297.85C259.175 303.278 254.821 308.387 249.775 312.891C247.497 314.94 245.132 316.817 242.653 318.664C235.069 324.236 227.399 330.01 218.518 333.474C212.29 335.899 205.686 337.313 199.285 339.363C179.505 345.656 159.724 352.238 140.808 360.956C137.117 362.66 133.081 364.507 129.101 363.526C126.823 362.948 124.978 361.39 123.854 359.398C124.632 359.975 125.584 360.35 126.564 360.466C129.13 360.841 131.697 359.975 134.09 358.965C144.067 354.75 153.005 348.312 162.867 343.924C177.313 337.544 193.316 335.639 208.109 330.154C234.694 320.31 256.58 298.428 266.47 271.84C267.018 270.454 267.595 268.953 268.806 268.174C269.469 269.184 270.046 270.281 270.478 271.407C270.68 271.84 270.795 272.302 270.939 272.735C273.592 281.424 268.604 290.518 263.212 297.822V297.85Z" fill="#FFE6D9"/>
</g>
<path d="M121.374 338.035C120.682 336.534 119.73 335.119 118.577 333.935C118 333.358 117.308 332.608 116.558 332.261C115.924 331.944 115.376 331.482 114.626 331.655C114.54 331.655 114.424 331.713 114.367 331.77C114.251 331.857 114.223 332.03 114.223 332.175C114.223 332.781 114.713 332.896 115.174 333.214C115.636 333.531 116.068 333.907 116.472 334.282C117.308 335.061 118.058 335.927 118.721 336.822C121.056 339.882 122.902 343.491 123.161 347.33C123.161 344.126 122.7 340.893 121.374 338.006V338.035Z" fill="#FFBC99"/>
<path d="M148.161 327.786C147.44 326.141 146.518 324.553 145.307 323.225C144.47 322.301 141.789 319.674 140.347 320.8C139.28 321.608 140.866 322.099 141.414 322.474C142.308 323.023 143.115 323.687 143.894 324.38C146.46 326.805 148.219 329.98 149.401 333.329C149.632 333.993 149.863 334.657 150.122 335.292C149.891 332.694 149.228 330.153 148.161 327.786Z" fill="#FFBC99"/>
<path d="M168.461 314.911C165.289 313.612 161.858 312.948 158.426 312.89C161.079 313.814 163.732 314.882 166.039 316.47C167.509 317.48 168.836 318.75 169.845 320.252C170.162 320.685 170.335 321.233 170.652 321.666C170.883 321.984 171.229 322.561 171.575 322.734C171.719 322.821 171.863 322.821 172.036 322.821C172.642 322.821 173.19 322.474 173.709 322.157C174.112 321.897 174.574 321.579 174.603 321.089C174.603 320.771 174.43 320.454 174.228 320.194C173.651 319.472 173.42 318.606 172.786 317.884C171.69 316.614 170.277 315.633 168.72 314.998C168.634 314.969 168.547 314.911 168.461 314.882V314.911Z" fill="#FFBC99"/>
<g style="mix-blend-mode:multiply">
<path d="M177.429 319.848C177.4 320.569 176.16 320.772 175.699 321.118C175.035 321.551 174.401 322.042 173.68 322.417C157.763 330.962 140.088 336.736 126.132 348.254C125.122 349.062 124.171 349.929 123.219 350.766C117.02 353.479 110.82 356.193 104.592 358.878C99.6037 361.043 94.2404 363.295 88.8195 362.371C87.2048 362.111 85.6765 361.418 84.3213 360.494C90.1747 361.158 96.3742 358.849 101.737 356.106C114.944 349.38 126.679 339.825 140.434 334.166C146.518 331.684 152.89 329.981 158.773 327.094C162.29 325.362 165.606 323.168 168.605 320.627C169.182 320.165 169.643 319.588 170.22 319.126C170.508 318.866 170.825 318.664 171.143 318.462C171.489 318.231 171.748 318.145 172.181 318.087C172.296 318.087 172.469 318.058 172.584 318.116C172.7 318.145 172.844 318.231 172.93 318.375C173.363 318.837 173.882 319.357 174.084 319.992C174.113 320.108 174.141 320.252 174.228 320.367C174.286 320.512 174.459 320.685 174.574 320.8C174.978 320.339 175.497 319.992 176.016 319.646C176.16 319.559 176.362 319.415 176.564 319.357C176.794 319.299 176.996 319.299 177.198 319.415C177.313 319.501 177.429 319.703 177.429 319.877V319.848Z" fill="#FFE6D9"/>
</g>
<path d="M95.8262 328.595C95.3936 326.805 94.5574 325.102 93.2022 323.86C91.9046 322.244 89.2807 322.013 87.4641 321.406C87.0316 321.262 86.5702 321.118 86.1377 321.204C88.4445 322.763 91.2703 323.716 92.9427 325.997C94.2979 327.815 95.1053 330.009 95.4513 332.232C95.6243 333.214 95.7108 334.224 96.1433 335.119C96.4029 334.859 96.4029 334.426 96.4029 334.051C96.3452 332.232 96.2587 330.384 95.8262 328.595Z" fill="#FFBC99"/>
<path d="M121.287 318.346C119.326 316.326 117.74 313.93 116.299 311.591C115.52 310.321 114.742 309.051 114.309 307.636C114.511 308.271 114.309 309.224 114.453 309.917C114.626 310.725 114.886 311.505 115.232 312.226C115.693 313.208 116.155 314.478 116.789 315.373C117.625 316.528 119.096 317.48 120.22 318.346C121.489 319.299 122.844 320.194 124.286 320.887C123.219 320.165 122.239 319.299 121.316 318.375L121.287 318.346Z" fill="#FFBC99"/>
<path d="M119.875 307.376C120.278 307.752 120.682 308.098 121.114 308.445C121.518 308.791 122.037 309.022 122.47 309.34C122.787 309.57 122.989 309.83 123.248 310.119C123.854 310.725 124.43 311.389 124.978 312.053C125.814 313.064 126.593 314.132 127.285 315.258C127.631 315.806 127.948 316.383 128.265 316.961C128.41 317.249 128.554 317.538 128.698 317.856C128.813 318.115 129.044 318.433 129.102 318.722C129.073 318.548 129.015 318.404 128.986 318.231C128.381 315.893 127.256 313.699 125.757 311.822C125.007 310.87 124.171 310.003 123.219 309.253C122.239 308.445 121.143 307.665 119.875 307.405V307.376Z" fill="#FFBC99"/>
<path d="M154.159 311.014C154.361 310.668 154.563 309.975 154.563 309.715C154.678 308.416 154.015 306.655 153.611 305.442C152.948 303.508 151.881 301.632 150.324 300.304C149.372 299.524 148.19 298.918 146.95 299.005C148.824 300.419 150.036 302.498 151.16 304.548C151.852 305.789 152.515 307.088 152.948 308.445C153.15 309.109 153.294 309.802 153.38 310.494C153.409 310.841 153.611 311.332 153.986 311.158C154.044 311.158 154.101 311.072 154.13 310.985L154.159 311.014Z" fill="#FFBC99"/>
<g style="mix-blend-mode:multiply">
<path d="M155.254 310.725C153.784 311.389 152.285 312.024 150.785 312.688C149.372 313.323 147.959 313.93 146.518 314.536C138.876 317.856 131.264 321.176 123.623 324.495C120.422 325.881 117.164 327.296 113.963 328.681C112.089 329.49 110.243 330.298 108.398 331.164C106.466 332.088 104.563 332.925 102.602 333.676C99.6035 334.859 96.5182 335.841 93.6635 337.342C91.3567 338.497 89.223 339.998 87.3199 341.701C84.8689 343.837 82.7928 346.406 81.1492 349.236C80.8032 349.842 80.4284 350.39 80.0535 350.939C75.7572 353.364 71.2878 355.818 66.3282 356.106C62.7815 356.337 58.9753 355.067 56.5532 352.613C63.7619 353.508 71.2878 351.689 77.1989 347.503C79.275 346.06 81.1204 344.328 83.0812 342.711C99.7765 328.566 120.797 320.685 141.673 314.189C143.951 313.468 146.2 312.746 148.305 311.62C149.113 311.187 149.805 310.61 150.612 310.148C151.391 309.657 152.198 309.166 152.919 308.618C153.178 308.416 153.38 308.214 153.582 307.954C153.842 307.636 153.957 307.232 154.072 306.857C154.188 307.434 154.332 308.012 154.447 308.589C154.476 308.704 154.505 308.878 154.562 308.993C154.62 309.138 154.678 309.282 154.822 309.368C155.024 309.484 155.254 309.513 155.485 309.628C156.148 309.946 155.774 310.61 155.254 310.783V310.725Z" fill="#FFE6D9"/>
</g>
<path d="M88.9348 303.306C89.5403 303.884 90.117 304.519 90.6649 305.154C91.5011 306.164 92.568 307.377 93.0582 308.618C93.5772 309.946 94.0097 311.418 94.3557 312.804C94.2692 312.515 94.4134 311.996 94.4134 311.649C94.3846 309.542 93.5484 307.319 92.5968 305.414C90.9821 302.18 87.8968 300.131 84.3501 299.524C85.9648 300.679 87.5219 301.92 88.9348 303.335V303.306Z" fill="#FFBC99"/>
<path d="M145.22 296.407C145.22 296.407 145.479 296.291 145.623 296.176C145.883 295.974 146.114 295.743 146.287 295.483C146.575 295.021 146.46 294.646 146.373 294.155C146.287 293.549 146.344 292.885 146.287 292.279C145.796 286.967 142.913 281.915 138.617 278.768C138.155 278.422 137.665 278.104 137.088 278.018C139.136 280.818 141.587 283.416 142.884 286.62C143.663 288.497 143.98 290.518 144.095 292.538C144.124 293.087 143.893 296.869 145.22 296.436V296.407Z" fill="#FFBC99"/>
<path d="M108.196 288.698C107.735 288.467 107.245 288.265 106.726 288.179C107.302 288.265 108.11 289.045 108.6 289.391C109.234 289.853 109.84 290.315 110.445 290.835C111.627 291.845 112.723 292.971 113.704 294.154C114.684 295.367 115.578 296.637 116.328 297.994C116.702 298.658 117.077 299.351 117.394 300.072C117.625 300.563 117.769 301.602 118.404 301.689C118.865 301.747 119.269 301.4 119.73 301.372C120.134 301.372 119.211 299.495 119.153 299.38C118.807 298.716 118.461 298.081 118.058 297.474C117.25 296.204 116.328 295.02 115.318 293.923C113.3 291.758 110.878 289.969 108.196 288.698Z" fill="#FFBC99"/>
<path d="M122.239 298.225C122.642 296.32 122.498 294.299 121.835 292.451C121.229 290.777 120.249 289.738 118.721 288.843C117.51 288.121 116.27 287.4 114.972 286.88C117.019 288.092 118.721 289.853 119.903 291.932C120.451 292.913 120.797 294.01 121.345 294.963C121.835 295.8 122.469 297.215 122.239 298.196V298.225Z" fill="#FFBC99"/>
<g style="mix-blend-mode:multiply">
<path d="M148.276 295.743C148.276 296.003 147.873 296.031 147.7 296.06C142.25 296.84 136.887 297.994 131.552 299.38C126.247 300.795 121.027 302.498 115.866 304.432C110.705 306.366 105.63 308.531 100.67 310.87C95.6817 313.237 90.7221 315.777 85.9067 318.491C83.4846 319.848 81.0625 321.233 78.6692 322.648C77.5158 323.341 76.3625 323.947 75.2667 324.727C74.0845 325.564 72.8735 326.43 71.6624 327.267C68.7789 329.288 65.8378 331.222 62.7813 333.012C60.6187 332.608 58.9463 331.193 57.8794 329.317C57.9947 329.345 58.1389 329.374 58.2254 329.403C59.1481 329.605 60.042 329.605 60.9647 329.432C62.9255 329.115 64.7421 328.248 66.4145 327.267C73.2483 323.225 79.2459 317.971 85.7337 313.439C100.295 303.277 117.365 296.811 135.012 294.761C137.031 294.501 139.136 294.328 140.981 293.491C143.144 292.567 144.441 290.662 145.45 288.612C145.998 289.883 146.085 291.326 146.085 292.712C146.085 293.087 146.085 293.491 146.171 293.866C146.258 294.242 146.46 294.588 146.806 294.79C147.065 294.963 147.382 294.992 147.671 295.108C147.959 295.223 148.247 295.425 148.276 295.743Z" fill="#FFE6D9"/>
</g>
<path d="M167.105 240.459C166.039 242.48 164.597 244.27 163.501 246.291C162.146 248.716 161.425 251.429 160.618 254.056H160.589C160.156 253.739 159.608 253.508 159.003 253.392C160.156 250.708 161.54 248.138 163.126 245.656C164.28 243.837 165.577 242.047 166.558 240.113C167.538 238.15 168.23 236.014 168.086 233.849C168.807 236.014 168.172 238.439 167.105 240.459Z" fill="#FFBC99"/>
<path d="M155.37 237.313C155.168 242.712 155.024 248.052 154.822 253.451C154.418 253.48 154.015 253.537 153.582 253.595C153.87 252.21 154.015 250.766 154.188 249.352C154.591 245.339 154.995 241.326 155.341 237.313H155.37Z" fill="#FFBC99"/>
<path d="M134.147 253.277C134.003 254.374 133.6 255.442 133.311 256.51C132.677 256.626 132.071 256.713 131.495 256.77C131.956 255.818 132.273 254.778 132.504 253.739C133.686 248.11 132.965 242.047 130.428 236.822C132.619 238.525 133.484 241.412 133.859 244.155C134.119 245.974 134.176 247.85 134.263 249.698C134.292 250.852 134.349 252.094 134.176 253.248L134.147 253.277Z" fill="#FFBC99"/>
<g style="mix-blend-mode:multiply">
<path d="M160.791 254.259C160.791 254.259 160.676 254.143 160.589 254.057H160.56C160.128 253.739 159.58 253.508 158.974 253.393C158.052 253.133 156.985 253.104 156.12 253.248C155.687 253.306 155.283 253.364 154.822 253.45C154.418 253.479 154.015 253.537 153.582 253.595C146.806 254.547 140.059 255.702 133.254 256.568C132.619 256.655 132.014 256.713 131.437 256.799C122.989 257.81 114.54 258.271 106.12 257.174C102.17 256.684 98.0465 255.731 94.9901 253.104C92.7986 251.256 91.2992 247.937 91.328 244.848C92.6256 247.186 94.8459 249.005 97.2968 250.131C100.324 251.487 103.669 251.892 106.985 251.978C119.442 252.296 131.639 248.225 144.067 247.879C148.767 247.763 153.64 248.196 157.706 250.448C158.772 251.054 159.811 251.805 160.387 252.873C160.618 253.277 160.733 253.768 160.733 254.23L160.791 254.259Z" fill="#FFDECC"/>
</g>
<path d="M161.425 341.153C159.58 338.006 157.013 334.888 153.438 334.195C158.571 337.833 162.204 343.549 163.299 349.755L164.28 348.572C163.934 345.916 162.78 343.462 161.425 341.153Z" fill="#FFBC99"/>
<path d="M179.332 334.455C177.371 333.156 175.583 331.568 174.66 329.345C174.055 327.844 173.767 326.227 173.478 324.611C173.68 325.708 173.363 327.036 173.478 328.191C173.565 329.172 173.565 330.211 173.997 331.077C175.266 333.589 177.919 335.003 180.399 336.043C181.898 336.678 183.57 336.88 185.041 337.486C183.051 336.649 181.148 335.639 179.332 334.455Z" fill="#FFBC99"/>
<path d="M184.176 332.174C184.06 331.799 183.945 331.453 183.801 331.106C183.08 329.403 182.042 327.584 180.6 326.343C178.957 324.928 176.794 324.236 174.631 323.918C179.706 326.834 183.628 331.857 185.3 337.486C184.781 335.754 184.666 333.935 184.147 332.174H184.176Z" fill="#FFBC99"/>
<path d="M199.17 317.134C195.623 315.575 191.586 315.113 187.809 315.864L182.705 318.433C185.704 317.827 188.789 317.336 191.788 317.798C194.239 318.173 196.575 319.155 198.853 320.136C201.938 321.464 205.023 322.792 207.791 324.669C205.773 321.349 202.716 318.693 199.17 317.134Z" fill="#FFBC99"/>
<path d="M72.643 325.881C73.1332 325.564 73.5946 325.217 74.0847 324.9C75.4688 324.034 76.8529 323.197 78.2658 322.359C80.5149 321.032 82.7928 319.675 85.0419 318.347C94.3556 312.833 103.698 307.261 113.704 303.191C120.912 300.246 128.381 297.879 136.079 296.753C138.905 296.349 141.731 296.003 143.98 295.194C145.047 294.819 146.172 294.53 147.267 294.732C148.363 294.963 149.372 296.06 149.055 297.129C147.729 297.85 146.143 297.793 144.643 297.793C141.846 297.793 139.049 298.052 136.339 298.572C133.081 299.207 129.938 300.217 126.795 301.286C118.49 304.115 110.359 307.348 102.372 310.956C94.3556 314.594 86.5413 318.664 78.9578 323.081C76.824 324.322 74.7191 325.593 72.6142 326.921C71.0859 327.873 69.7307 329.086 68.1736 329.981C67.2797 330.5 66.3859 331.02 65.492 331.568C64.6846 332.059 63.8196 332.492 63.0122 333.012C63.4159 332.723 63.7331 332.29 64.1368 332.001C64.5404 331.713 64.9153 331.395 65.2902 331.107C66.184 330.414 67.1067 329.779 68.0006 329.115C68.7503 328.566 69.5 327.989 70.2497 327.44C71.0283 326.892 71.8356 326.43 72.6142 325.91L72.643 325.881Z" fill="#FFAB80"/>
<path d="M89.2519 339.536C89.8286 339.103 90.4053 338.699 91.0108 338.323C92.5102 337.371 94.2403 336.765 95.8262 335.985C97.5563 335.148 99.2576 334.311 101.016 333.56C108.514 330.298 116.011 327.065 123.508 323.803C131.005 320.541 138.502 317.278 145.97 313.987C147.383 313.352 148.824 312.746 150.237 312.111C151.304 311.649 153.178 311.245 153.813 310.206C154.015 309.859 154.217 309.484 154.591 309.34C154.764 309.282 154.966 309.282 155.168 309.34C155.86 309.455 156.437 309.975 156.754 310.581C156.84 310.754 156.927 310.956 156.898 311.158C156.898 311.476 156.61 311.707 156.321 311.822C156.033 311.938 155.716 311.938 155.399 311.967C154.909 312.024 154.39 312.14 153.928 312.313C152.717 312.804 151.391 313.006 150.151 313.41C148.767 313.872 147.44 314.449 146.229 315.258C144.989 316.066 143.605 316.672 142.308 317.365C140.981 318.029 139.655 318.693 138.3 319.299C136.195 320.223 134.061 321.031 131.927 321.84C129.534 322.735 127.025 323.514 124.747 324.64C119.817 327.094 115.117 329.981 110.099 332.203C104.851 334.513 99.2287 335.985 94.0673 338.468C91.1262 339.882 88.4157 341.586 85.9936 343.808C84.8114 344.905 83.6868 346.089 82.6776 347.359C82.1874 347.994 81.6972 348.658 81.2359 349.322C81.0052 349.669 79.9383 350.881 80.0248 351.314C79.9095 350.564 80.3708 349.871 80.8033 349.236C81.726 347.908 82.6199 346.58 83.6003 345.281C85.215 343.116 87.147 341.181 89.2807 339.565L89.2519 339.536Z" fill="#FFAB80"/>
<path d="M176.794 319.183C176.535 319.183 176.275 319.299 176.044 319.443C175.468 319.819 174.978 320.454 174.401 320.887C173.766 321.377 173.132 321.868 172.498 322.33C171.2 323.225 169.874 324.062 168.461 324.784C167.423 325.332 166.356 325.852 165.289 326.372C161.742 328.104 158.138 329.691 154.505 331.25C152.688 332.03 150.901 332.838 149.084 333.646C148.19 334.051 147.296 334.512 146.402 334.859C144.182 335.725 142.135 336.851 140.059 338.034C138.271 339.045 136.483 340.084 134.724 341.094C133.052 342.047 131.524 343.288 129.995 344.501C129.275 345.049 128.582 345.627 127.862 346.204C127.141 346.781 126.535 347.417 125.901 348.052C125.007 348.918 124.113 349.784 123.248 350.65C125.266 349.206 127.256 347.792 129.275 346.348C131.12 345.021 132.908 343.606 134.84 342.394C138.329 340.228 142.077 338.496 145.768 336.706C151.045 334.051 156.379 331.539 161.656 328.854C164.338 327.469 167.019 326.083 169.672 324.668C170.998 323.947 172.325 323.254 173.651 322.532C174.776 321.926 175.871 321.118 177.082 320.713C177.313 320.627 177.544 320.569 177.746 320.396C177.948 320.252 178.063 319.992 178.034 319.761C177.976 319.443 177.659 319.241 177.342 319.183C177.169 319.155 176.996 319.126 176.823 319.155L176.794 319.183Z" fill="#FFAB80"/>
<path d="M230.715 314.449C229.331 312.313 228.177 309.974 226.505 308.04C222.583 303.421 216.326 301.458 210.3 300.708C204.273 299.957 198.132 300.188 192.192 298.889C187.434 297.85 182.965 295.858 178.293 294.472C172.584 292.769 166.471 291.932 160.704 293.346C166.327 292.884 171.892 294.616 177.14 296.695C182.388 298.773 187.549 301.198 193.114 302.209C198.622 303.219 204.273 302.786 209.838 303.19C215.404 303.594 221.228 305.009 225.236 308.906C226.966 310.609 228.264 312.688 229.533 314.738C230.08 315.632 230.657 316.527 231.205 317.422L230.686 314.42L230.715 314.449Z" fill="#FFBC99"/>
<path d="M177.227 281.049C176.362 280.471 175.525 279.894 174.747 279.288C172.959 277.931 171.316 276.545 169.384 275.391C167.423 274.207 165.491 272.908 163.473 271.753C161.829 270.801 160.128 269.935 158.369 269.299C157.504 268.982 156.61 268.664 155.716 268.52C154.937 268.376 154.072 268.578 153.323 268.289C159.292 270.627 163.905 274.351 169.24 277.729C174.66 281.164 180.312 284.6 186.454 286.534C191.904 288.237 197.699 288.728 203.149 290.489C200.323 289.565 197.555 288.353 194.701 287.486C192.134 286.707 189.539 286.216 186.973 285.523C183.57 284.629 180.254 283.012 177.256 281.049H177.227Z" fill="#FFBC99"/>
<path d="M174.718 273.889L167.797 273.139C171.258 275.91 175.756 277.122 180.196 277.209C184.637 277.325 189.02 276.401 193.316 275.333C201.995 273.225 210.675 270.454 218.027 265.373C205.023 272.763 189.568 275.795 174.747 273.86L174.718 273.889Z" fill="#FFBC99"/>
<path d="M196.218 265.899C198.422 267.175 202.014 267.175 204.248 265.899C206.452 264.623 206.452 262.526 204.248 261.25C202.044 259.974 198.452 259.974 196.218 261.25C194.014 262.526 194.014 264.623 196.218 265.899Z" fill="#CBC7BC"/>
<g filter="url(#filter0_d_1000_1085)">
<path d="M283.343 349.605L288.445 346.658V214.128L283.343 217.105V349.605Z" fill="#CBC7BC"/>
<path d="M100.673 243.477L283.343 349.604V217.105L100.673 110.978V243.477Z" fill="#79C7B9"/>
<path d="M280.324 218.867L103.692 116.234V241.715L280.324 344.348V218.867Z" fill="#F7F5ED"/>
<path d="M283.343 217.105L288.445 214.127L105.775 108L100.673 110.978L283.343 217.105Z" fill="#F7F5ED"/>
</g>
<path d="M118.391 239.466C118.512 239.314 118.693 239.223 118.904 239.253L123.01 239.739C123.251 239.739 123.463 239.952 123.493 240.195C123.493 240.347 123.493 240.468 123.432 240.59C123.372 240.681 123.312 240.742 123.221 240.802L122.376 241.289L261.484 322.137C261.393 322.532 261.333 322.927 261.242 323.322L121.229 241.957L119.931 242.717C119.931 242.717 119.598 242.808 119.448 242.747C119.297 242.686 119.176 242.565 119.115 242.382L118.3 240.012C118.24 239.83 118.3 239.617 118.391 239.466Z" fill="#CBC7BC"/>
<g filter="url(#filter1_d_1000_1085)">
<path d="M139.281 196.081L145.983 196.384C147.161 196.445 148.549 197.174 149.787 198.42L163.432 212.032C164.277 212.882 165.213 213.52 166.119 213.824L178.194 218.078C179.281 218.442 180.398 219.293 181.364 220.387L196.941 238.313C197.907 239.437 199.054 240.257 200.141 240.622L215.507 245.908C216.473 246.243 217.469 246.911 218.345 247.853L230.148 260.097C231.265 261.252 232.503 262.011 233.65 262.194L246.058 264.381C247.446 264.624 249.046 265.748 250.284 267.328L261.514 281.79V322.655L121.289 241.169V187.786L129.198 189.214C130.255 189.396 131.402 190.065 132.459 191.098L135.598 194.136C136.806 195.291 138.164 196.02 139.281 196.05V196.081Z" fill="#3A37D8"/>
</g>
<path opacity="0.9" d="M125.033 210.907L131.342 217.652C132.52 218.897 133.878 219.718 135.086 219.9L154.678 222.543C155.674 222.665 156.821 223.272 157.848 224.245L170.104 235.395C170.919 236.155 171.795 236.671 172.64 236.945L188.187 241.806C189.334 242.171 190.542 243.052 191.568 244.237L207.176 262.436C208.021 263.438 209.047 264.228 210.013 264.654L222.119 270.032C222.964 270.396 223.84 271.034 224.624 271.855L238.239 286.226C239.266 287.319 240.443 288.079 241.53 288.322L253.032 291.208V327.577L112.807 246.09V206.987L121.501 208.658C122.648 208.871 123.946 209.691 125.033 210.876V210.907Z" fill="#5754E7"/>
<path opacity="0.9" d="M114.981 223.27L121.894 229.529C122.95 230.471 124.067 231.079 125.064 231.2L131.977 232.112C133.033 232.264 134.241 232.902 135.328 233.935L144.746 242.898C145.893 243.991 147.131 244.66 148.218 244.751L159.569 245.784C160.867 245.905 162.376 246.817 163.644 248.245L184.444 271.761C185.682 273.159 187.191 274.101 188.489 274.222L196.821 275.103C198.029 275.225 199.448 276.045 200.655 277.352L215.659 293.363C216.897 294.7 218.376 295.551 219.614 295.612L228.429 296.219C229.485 296.28 230.723 296.918 231.84 297.951L243.281 308.403V333.195L103.056 251.709V219.26L112.203 221.69C113.079 221.933 114.015 222.48 114.89 223.27H114.981Z" fill="#817FEB"/>
<path opacity="0.9" d="M105.985 242.199L112.898 248.458C113.954 249.43 115.132 250.038 116.128 250.129L122.679 250.858C123.886 250.98 125.275 251.8 126.483 253.107L132.128 259.123C133.486 260.581 135.116 261.432 136.414 261.371L150.694 260.733C152.082 260.672 153.803 261.644 155.222 263.255L171.524 281.91C172.822 283.398 174.422 284.34 175.75 284.431L187.916 285.13C189.123 285.191 190.542 285.981 191.78 287.257L206.965 302.904C208.082 304.059 209.35 304.818 210.467 305.001L219.614 306.52C220.61 306.672 221.697 307.279 222.693 308.191L234.315 318.794V338.422L94.0903 256.935V238.098L103.268 240.619C104.143 240.862 105.049 241.409 105.924 242.169L105.985 242.199Z" fill="#A9A8F3"/>
<path opacity="0.9" d="M97.5316 254.717L102.362 258.211C103.841 259.275 105.32 260.064 106.769 260.551L111.841 262.282C113.682 262.92 115.614 264.045 117.456 265.564L121.682 269.058C123.463 270.547 125.335 271.64 127.146 272.278L140.52 276.988C142.15 277.565 143.871 278.537 145.531 279.844L160.746 291.814C162.708 293.364 164.731 294.427 166.633 294.944L175.961 297.466C178.014 298.013 180.187 299.197 182.27 300.929L195.795 312.08C197.787 313.72 199.87 314.875 201.833 315.452L206.995 316.971C209.5 317.701 212.187 319.402 214.632 321.802L224.474 331.464L224.534 344.225L84.3091 262.738L84.2487 250.281L92.0373 252.074C93.8184 252.469 95.7203 253.411 97.592 254.748L97.5316 254.717Z" fill="#D6D5FF"/>
<path d="M218.133 347.415L260.85 322.593V218.714C260.85 218.41 261.091 218.137 261.423 218.137C261.756 218.137 261.997 218.38 261.997 218.714V322.927C261.997 323.14 261.876 323.322 261.725 323.413L218.737 348.388C218.737 348.388 218.556 348.479 218.465 348.479C218.284 348.479 218.073 348.388 217.982 348.205C217.831 347.932 217.922 347.567 218.194 347.415H218.133Z" fill="#33CAB0"/>
<path d="M259.401 218.046L261.032 216.132C261.032 216.132 261.364 215.919 261.545 215.949C261.726 215.949 261.907 216.101 261.967 216.283L263.598 220.112C263.688 220.355 263.628 220.598 263.447 220.78C263.326 220.871 263.205 220.932 263.054 220.932C262.964 220.932 262.873 220.932 262.782 220.841L259.492 218.927C259.492 218.927 259.25 218.684 259.22 218.532C259.22 218.35 259.22 218.198 259.341 218.046H259.401Z" fill="#CBC7BC"/>
<path d="M215.959 348.995L216.442 346.503C216.472 346.321 216.623 346.139 216.804 346.078C216.985 346.017 217.197 346.048 217.348 346.139L220.668 348.63C220.88 348.782 220.94 349.025 220.88 349.268C220.819 349.42 220.729 349.511 220.638 349.572C220.548 349.633 220.457 349.663 220.366 349.663H216.563C216.382 349.663 216.231 349.572 216.11 349.45C215.989 349.329 215.959 349.147 215.989 348.964L215.959 348.995Z" fill="#33CAB0"/>
<path d="M242.497 216.983L249.41 220.993V219.505L242.497 215.494V216.983Z" fill="#D6D1C7"/>
<path d="M236.037 213.214L240.505 215.827V214.339L236.037 211.726V213.214Z" fill="#D6D1C7"/>
<path d="M224.716 206.652L234.044 212.06V210.571L224.716 205.163V206.652Z" fill="#D6D1C7"/>
<path d="M212.096 199.33L222.723 205.497V204.009L212.096 197.811V199.33Z" fill="#D6D1C7"/>
<path d="M210.104 196.656V198.145L199.477 191.977V190.488L210.104 196.656Z" fill="#D6D1C7"/>
<path d="M193.05 188.241L197.487 190.823V189.334L193.05 186.752V188.241Z" fill="#D6D1C7"/>
<path d="M184.505 183.288L191.056 187.086V185.597L184.505 181.769V183.288Z" fill="#D6D1C7"/>
<path d="M238.693 218.805L249.41 225.034V223.545L238.693 217.316V218.805Z" fill="#D6D1C7"/>
<path d="M232.203 215.067L236.701 217.65V216.161L232.203 213.548V215.067Z" fill="#D6D1C7"/>
<path d="M224.716 210.723L230.21 213.883V212.394L224.716 209.204V210.723Z" fill="#D6D1C7"/>
<path d="M216.655 206.015L222.723 209.54V208.051L216.655 204.526V206.015Z" fill="#D6D1C7"/>
<path d="M214.664 203.37V204.859L204.852 199.147V197.658L214.664 203.37Z" fill="#D6D1C7"/>
<path d="M196.249 194.165L202.86 197.993V196.504L196.249 192.676V194.165Z" fill="#D6D1C7"/>
<path d="M184.504 187.329L194.255 193.01V191.521L184.504 185.84V187.329Z" fill="#D6D1C7"/>
<path d="M242.497 225.094L249.41 229.105V227.616L242.497 223.605V225.094Z" fill="#D6D1C7"/>
<path d="M236.037 221.327L240.505 223.94V222.451L236.037 219.838V221.327Z" fill="#D6D1C7"/>
<path d="M224.716 214.765L234.044 220.173V218.684L224.716 213.276V214.765Z" fill="#D6D1C7"/>
<path d="M212.096 207.413L222.723 213.611V212.122L212.096 205.924V207.413Z" fill="#D6D1C7"/>
<path d="M210.104 204.769V206.258L199.477 200.09V198.602L210.104 204.769Z" fill="#D6D1C7"/>
<path d="M193.05 196.352L197.487 198.935V197.446L193.05 194.863V196.352Z" fill="#D6D1C7"/>
<path d="M184.505 191.37L191.056 195.198V193.709L184.505 189.881V191.37Z" fill="#D6D1C7"/>
<path d="M238.693 226.916L249.41 233.145V231.656L238.693 225.428V226.916Z" fill="#D6D1C7"/>
<path d="M232.203 223.15L236.701 225.763V224.274L232.203 221.661V223.15Z" fill="#D6D1C7"/>
<path d="M224.716 218.805L230.21 221.995V220.507L224.716 217.316V218.805Z" fill="#D6D1C7"/>
<path d="M216.655 214.126L222.723 217.651V216.162L216.655 212.638V214.126Z" fill="#D6D1C7"/>
<path d="M214.664 211.454V212.973L204.852 207.261V205.772L214.664 211.454Z" fill="#D6D1C7"/>
<path d="M196.249 202.278L202.86 206.106V204.617L196.249 200.789V202.278Z" fill="#D6D1C7"/>
<path d="M184.504 195.441L194.255 201.122V199.634L184.504 193.952V195.441Z" fill="#D6D1C7"/>
<path d="M242.497 233.207L249.41 237.218V235.699L242.497 231.719V233.207Z" fill="#D6D1C7"/>
<path d="M236.037 229.439L240.505 232.052V230.533L236.037 227.95V229.439Z" fill="#D6D1C7"/>
<path d="M224.716 222.876L234.044 228.285V226.796L224.716 221.388V222.876Z" fill="#D6D1C7"/>
<path d="M212.096 215.525L222.723 221.723V220.204L212.096 214.036V215.525Z" fill="#D6D1C7"/>
<path d="M210.104 212.881V214.369L199.477 208.202V206.713L210.104 212.881Z" fill="#D6D1C7"/>
<path d="M193.05 204.464L197.487 207.047V205.528L193.05 202.976V204.464Z" fill="#D6D1C7"/>
<path d="M184.505 199.481L191.056 203.309V201.82L184.505 197.992V199.481Z" fill="#D6D1C7"/>
<path d="M238.693 235.031L249.41 241.259V239.77L238.693 233.542V235.031Z" fill="#D6D1C7"/>
<path d="M232.203 231.26L236.701 233.873V232.384L232.203 229.771V231.26Z" fill="#D6D1C7"/>
<path d="M224.716 226.916L230.21 230.107V228.618L224.716 225.428V226.916Z" fill="#D6D1C7"/>
<path d="M216.655 222.239L222.723 225.763V224.275L216.655 220.72V222.239Z" fill="#D6D1C7"/>
<path d="M214.664 219.564V221.053L204.852 215.372V213.883L214.664 219.564Z" fill="#D6D1C7"/>
<path d="M196.249 210.389L202.86 214.217V212.729L196.249 208.9V210.389Z" fill="#D6D1C7"/>
<path d="M184.505 203.553L194.256 209.235V207.716L184.505 202.064V203.553Z" fill="#D6D1C7"/>
<path d="M154.92 169.191C158.059 166.669 163.342 168.006 168.414 172.624L164.701 182.012L152.626 174.994C152.626 172.32 153.35 170.467 154.92 169.191Z" fill="#0F937C"/>
<path d="M164.671 182.012L176.747 189.031C176.747 183.653 173.486 177.242 168.415 172.654L164.701 182.043L164.671 182.012Z" fill="#006957"/>
<path d="M164.671 182.012L171.766 195.957C174.996 195.471 176.747 193.041 176.747 189.03L164.671 182.012Z" fill="#33CAB0"/>
<path d="M160.958 191.369C155.886 186.782 152.626 180.341 152.626 174.993L164.701 182.012L171.795 195.957C168.565 196.443 164.792 194.833 160.988 191.4L160.958 191.369Z" fill="#EEE8DE"/>
<path d="M132.941 163.57L138.738 156.218C141.092 158.861 142.753 161.596 143.9 164.695C145.62 169.343 145.53 173.171 143.598 175.602L132.941 163.57Z" fill="#006957"/>
<path d="M132.942 163.57L138.738 156.217C132.852 149.594 125.486 147.498 122.286 151.538C119.086 155.61 121.259 164.269 127.146 170.892C129.501 173.536 131.855 175.359 134.512 176.543L132.942 163.54V163.57Z" fill="#33CAB0"/>
<path d="M132.942 163.57L134.511 176.574C138.496 178.367 141.666 178.033 143.598 175.572L132.942 163.54V163.57Z" fill="#EEE8DE"/>
<path d="M76.4002 201.79C76.4002 201.79 76.6719 201.759 76.7625 201.698L109.517 182.648C109.879 182.436 110 181.98 109.789 181.615C109.577 181.251 109.124 181.129 108.762 181.342L77.1248 199.724V159.922C77.1248 159.649 76.9738 159.406 76.7625 159.254L39.1478 137.378C38.7855 137.165 38.3327 137.287 38.1214 137.652C37.9101 138.016 38.0308 138.472 38.3931 138.685L75.6455 160.317V201C75.6455 201.273 75.7965 201.516 76.0078 201.668C76.1285 201.729 76.2493 201.759 76.3701 201.759L76.4002 201.79Z" fill="#33CAB0"/>
<path d="M315.04 293.576C315.04 293.576 315.312 293.546 315.402 293.485C315.644 293.333 315.764 293.09 315.764 292.816V239.859L367.87 270.121C368.232 270.333 368.685 270.212 368.896 269.847C369.107 269.483 368.987 269.027 368.624 268.814L315.402 237.884C315.161 237.733 314.889 237.733 314.647 237.884C314.406 238.006 314.285 238.279 314.285 238.553V291.51L269.727 265.624L276.097 261.917C276.459 261.705 276.58 261.249 276.369 260.884C276.157 260.52 275.704 260.398 275.342 260.611L267.825 264.986C267.584 265.138 267.463 265.381 267.463 265.654C267.463 265.928 267.614 266.171 267.825 266.323L314.647 293.515C314.647 293.515 314.889 293.606 315.01 293.606L315.04 293.576Z" fill="#33CAB0"/>
<path d="M364.759 242.169L368.261 244.205V245.724L364.759 243.688V242.169Z" fill="#33CAB0"/>
<path d="M358.239 238.372L362.767 241.015V242.504L358.239 239.891V238.372Z" fill="#33CAB0"/>
<path d="M343.778 231.474V229.985L356.216 237.216V238.705L343.778 231.474Z" fill="#33CAB0"/>
<path d="M360.925 244.022L368.261 248.306V249.795L360.925 245.542V244.022Z" fill="#33CAB0"/>
<path d="M358.904 244.356L354.376 241.743V240.224L358.904 242.867V244.356Z" fill="#33CAB0"/>
<path d="M348.518 238.34V236.821L352.352 239.07V240.558L348.518 238.34Z" fill="#33CAB0"/>
<path d="M346.496 237.154L343.93 235.666V234.146L346.496 235.635V237.154Z" fill="#33CAB0"/>
<path d="M364.759 250.372L368.261 252.377V253.896L364.759 251.861V250.372Z" fill="#33CAB0"/>
<path d="M362.767 250.706L358.239 248.063V246.574L362.767 249.187V250.706Z" fill="#33CAB0"/>
<path d="M356.216 246.908L346.495 241.256V239.737L356.216 245.389V246.908Z" fill="#33CAB0"/>
<path d="M360.925 252.225L368.261 256.478V257.997L360.925 253.713V252.225Z" fill="#33CAB0"/>
<path d="M354.376 248.427L358.904 251.04V252.559L354.376 249.916V248.427Z" fill="#33CAB0"/>
<path d="M352.352 247.242V248.762L348.518 246.513V244.994L352.352 247.242Z" fill="#33CAB0"/>
<path d="M364.759 258.545L368.261 260.581V262.1L364.759 260.064V258.545Z" fill="#33CAB0"/>
<path d="M362.767 258.91L358.239 256.266V254.747L362.767 257.39V258.91Z" fill="#33CAB0"/>
<path d="M347.34 249.946V248.427L356.216 253.592V255.081L347.34 249.946Z" fill="#33CAB0"/>
<path d="M72.6861 131.818L76.1577 133.854V135.343L72.6861 133.337V131.818Z" fill="#33CAB0"/>
<path d="M66.1353 128.021L70.6636 130.633V132.153L66.1353 129.509V128.021Z" fill="#33CAB0"/>
<path d="M51.8256 121.214V119.695L64.1123 126.835V128.354L51.8256 121.214Z" fill="#33CAB0"/>
<path d="M47.2382 117.053L49.8042 118.541V120.03L47.2382 118.541V117.053Z" fill="#33CAB0"/>
<path d="M68.822 133.672L76.1577 137.925V139.445L68.822 135.191V133.672Z" fill="#33CAB0"/>
<path d="M66.8003 134.007L62.272 131.364V129.875L66.8003 132.488V134.007Z" fill="#33CAB0"/>
<path d="M56.4142 127.96V126.472L60.248 128.69V130.209L56.4142 127.96Z" fill="#33CAB0"/>
<path d="M54.3926 126.805L49.4417 123.919V122.399L54.3926 125.286V126.805Z" fill="#33CAB0"/>
<path d="M72.6861 140.022L76.1577 142.028V143.547L72.6861 141.511V140.022Z" fill="#33CAB0"/>
<path d="M70.6636 140.356L66.1353 137.712V136.193L70.6636 138.837V140.356Z" fill="#33CAB0"/>
<path d="M64.1123 136.527L51.8256 129.387V127.898L64.1123 135.038V136.527Z" fill="#33CAB0"/>
<path d="M68.822 141.846L76.1577 146.13V147.649L68.822 143.365V141.846Z" fill="#33CAB0"/>
<path d="M62.272 138.046L66.8003 140.689V142.208L62.272 139.565V138.046Z" fill="#33CAB0"/>
<path d="M60.248 136.892V138.381L56.4142 136.163V134.644L60.248 136.892Z" fill="#33CAB0"/>
<path d="M49.4417 130.604L54.3926 133.49V134.979L49.4417 132.123V130.604Z" fill="#33CAB0"/>
<path d="M72.6861 148.196L76.1577 150.232V151.721L72.6861 149.715V148.196Z" fill="#33CAB0"/>
<path d="M70.6636 148.529L66.1353 145.916V144.396L70.6636 147.04V148.529Z" fill="#33CAB0"/>
<path d="M51.8256 137.591V136.072L64.1123 143.212V144.731L51.8256 137.591Z" fill="#33CAB0"/>
<defs>
<filter id="filter0_d_1000_1085" x="0.672852" y="0" width="395.772" height="449.604" filterUnits="userSpaceOnUse" color-interpolation-filters="sRGB">
<feFlood flood-opacity="0" result="BackgroundImageFix"/>
<feColorMatrix in="SourceAlpha" type="matrix" values="0 0 0 0 0 0 0 0 0 0 0 0 0 0 0 0 0 0 127 0" result="hardAlpha"/>
<feOffset dx="4" dy="-4"/>
<feGaussianBlur stdDeviation="52"/>
<feComposite in2="hardAlpha" operator="out"/>
<feColorMatrix type="matrix" values="0 0 0 0 0.2 0 0 0 0 0.792157 0 0 0 0 0.690196 0 0 0 0.5 0"/>
<feBlend mode="normal" in2="BackgroundImageFix" result="effect1_dropShadow_1000_1085"/>
<feBlend mode="normal" in="SourceGraphic" in2="effect1_dropShadow_1000_1085" result="shape"/>
</filter>
<filter id="filter1_d_1000_1085" x="91.2891" y="149.786" width="208.225" height="202.869" filterUnits="userSpaceOnUse" color-interpolation-filters="sRGB">
<feFlood flood-opacity="0" result="BackgroundImageFix"/>
<feColorMatrix in="SourceAlpha" type="matrix" values="0 0 0 0 0 0 0 0 0 0 0 0 0 0 0 0 0 0 127 0" result="hardAlpha"/>
<feOffset dx="4" dy="-4"/>
<feGaussianBlur stdDeviation="17"/>
<feComposite in2="hardAlpha" operator="out"/>
<feColorMatrix type="matrix" values="0 0 0 0 0.227451 0 0 0 0 0.215686 0 0 0 0 0.847059 0 0 0 0.7 0"/>
<feBlend mode="normal" in2="BackgroundImageFix" result="effect1_dropShadow_1000_1085"/>
<feBlend mode="normal" in="SourceGraphic" in2="effect1_dropShadow_1000_1085" result="shape"/>
</filter>
</defs>
</svg>
