<svg width="433" height="463" viewBox="0 0 433 463" fill="none" xmlns="http://www.w3.org/2000/svg">
<g filter="url(#filter0_d_1048_239)">
<path d="M235.724 231.729L216.337 220.431L235.958 186.404L255.311 197.702L235.724 231.729Z" fill="#6557E3"/>
<path d="M255.311 197.702L235.958 186.404L253.843 176.076L273.196 187.34L255.311 197.702Z" fill="#847EFA"/>
<path d="M179.399 289.855L160.012 278.591L182.102 240.252L201.489 251.516L179.399 289.855Z" fill="#6557E3"/>
<path d="M201.488 251.516L182.102 240.252L216.337 220.431L235.724 231.729L201.488 251.516Z" fill="#847EFA"/>
<path d="M103.387 367L84 355.703L112.696 305.933L132.05 317.23L103.387 367Z" fill="#6557E3"/>
<path d="M293.851 151.809L299.39 154.951L276.466 194.459L258.581 204.821L238.994 238.815L204.725 258.636L182.636 296.974L135.32 324.349L114.432 360.616L103.387 367L132.05 317.23L179.399 289.855L201.488 251.516L235.724 231.728L255.311 197.702L273.196 187.34L293.851 151.809Z" fill="#4135CE"/>
<path d="M132.05 317.23L112.696 305.933L160.012 278.591L179.399 289.855L132.05 317.23Z" fill="#847EFA"/>
<path d="M302.66 112L299.824 159.998L306.164 163.107L309 115.109L302.66 112Z" fill="#847EFA"/>
<path d="M302.66 112L264.22 139.409L272.362 144.122L253.843 176.076L273.196 187.34L291.782 155.352L299.824 159.998L302.66 112Z" fill="#6557E3"/>
</g>
<g filter="url(#filter1_d_1048_239)">
<path d="M252 332.295V338.716C252.087 344.965 247.958 351.214 239.554 355.951C222.949 365.368 196.051 365.368 179.446 355.951C171.246 351.3 167.087 345.222 167 339.144V332.723L252 332.267V332.295Z" fill="url(#paint0_linear_1048_239)"/>
<path d="M179.446 349.531C172.176 345.422 168.105 340.171 167.204 334.807C166.04 327.901 170.112 320.767 179.446 315.459C196.051 306.042 222.949 306.042 239.554 315.459C249.761 321.252 253.687 329.242 251.331 336.718C249.848 341.398 245.922 345.878 239.554 349.503C222.949 358.919 196.051 358.919 179.446 349.503V349.531Z" fill="url(#paint1_linear_1048_239)"/>
<path d="M251.36 336.747C246.94 353.868 213.877 363.257 185.873 353.497C176.8 349.502 168.716 344.48 167.204 334.835C174.474 361.773 241.968 361.716 251.36 336.775V336.747Z" fill="url(#paint2_linear_1048_239)"/>
<path opacity="0.2" d="M171.362 328.5C170.315 334.721 173.979 341.17 182.412 345.935C197.388 354.411 221.641 354.411 236.588 345.935C245.777 340.713 249.325 333.522 247.202 326.759C246.562 324.705 244.003 307.44 242.229 295.17C241.066 287.094 237.78 279.447 232.691 272.997L222.571 260.156C221.932 259.357 221.437 258.473 220.914 257.616C219.983 256.076 218.064 254.706 215.156 253.793C211.55 252.651 207.624 252.623 204.018 253.736C200.674 254.734 198.61 256.361 197.766 258.102C197.359 258.958 196.952 259.842 196.341 260.613L185.436 274.795C180.638 281.045 177.498 288.407 176.305 296.14C174.444 308.353 171.74 326.017 171.304 328.5H171.362Z" fill="#84C7EF"/>
<path opacity="0.2" d="M171.362 189.815C171.769 192.297 174.473 209.961 176.364 222.175C177.556 229.936 180.696 237.27 185.495 243.52L196.4 257.702C196.981 258.472 197.417 259.328 197.824 260.213C198.639 261.982 200.732 263.58 204.077 264.579C207.712 265.663 211.608 265.635 215.214 264.522C218.122 263.609 220.041 262.211 220.972 260.698C221.495 259.842 221.99 258.957 222.629 258.158L232.749 245.317C237.838 238.868 241.124 231.221 242.287 223.145C244.061 210.903 246.591 193.639 247.26 191.556C249.383 184.821 245.835 177.601 236.646 172.379C221.67 163.904 197.417 163.904 182.47 172.379C174.066 177.145 170.373 183.594 171.42 189.815H171.362ZM205.705 256.989C207.799 255.79 211.201 255.79 213.295 256.989C214.574 257.73 215.069 258.729 214.778 259.671C214.603 260.27 214.109 260.841 213.295 261.297C211.201 262.496 207.799 262.496 205.705 261.297C204.804 260.784 204.28 260.127 204.164 259.443C204.018 258.558 204.542 257.673 205.705 257.017V256.989Z" fill="#84C7EF"/>
<path d="M236.675 235.672C234.465 241.893 230.539 247.258 225.595 251.567C221.233 255.362 215.418 260.299 214.022 261.269C210.852 263.466 207.682 263.495 205.181 261.612C203.553 260.385 196.545 253.992 192.067 249.712C187.937 245.746 184.535 241.066 182.47 235.787C182.441 235.672 236.675 235.672 236.675 235.672Z" fill="#EF9A33"/>
<path d="M252 179.856V186.277C252.087 192.526 247.958 198.776 239.554 203.541C222.949 212.958 196.051 212.958 179.446 203.541C171.246 198.861 167.087 192.812 167 186.705V180.284L252 179.828V179.856Z" fill="url(#paint3_linear_1048_239)"/>
<path d="M179.446 197.12C172.176 192.983 168.105 187.761 167.204 182.396C166.04 175.49 170.112 168.356 179.446 163.048C196.051 153.632 222.949 153.632 239.554 163.048C249.761 168.841 253.687 176.831 251.331 184.308C249.848 188.988 245.922 193.468 239.554 197.092C222.949 206.509 196.051 206.509 179.446 197.092V197.12Z" fill="url(#paint4_linear_1048_239)"/>
<path d="M251.36 184.307C246.94 201.429 213.877 210.817 185.873 201.058C176.771 197.063 168.687 192.041 167.204 182.396C174.474 209.333 241.968 209.276 251.36 184.336V184.307Z" fill="url(#paint5_linear_1048_239)"/>
<path d="M184.826 346.506C178.864 343.139 175.491 338.83 174.764 334.407C174.648 333.779 174.619 333.151 174.619 332.524C174.619 330.868 175.171 328.785 176.131 326.474C178.661 320.31 184.099 314.289 189.886 306.898C198.26 296.197 207.391 284.897 209.543 284.897C212.335 284.897 232.342 310.751 238.71 319.968C242.316 325.19 244.468 326.645 244.468 332.524C244.468 333.694 244.294 334.863 243.916 336.005C242.694 339.857 239.466 343.538 234.232 346.506C220.594 354.239 198.493 354.239 184.855 346.506H184.826Z" fill="#EF9A33"/>
<path d="M190.089 244.148C185.408 241.494 182.761 238.098 182.18 234.645C181.424 230.194 184.07 225.571 190.089 222.147C200.82 216.068 218.21 216.068 228.94 222.147C235.541 225.885 238.071 231.05 236.559 235.901C235.599 238.926 233.069 241.836 228.94 244.176C218.21 250.254 200.82 250.254 190.089 244.176V244.148Z" fill="#FFBF40"/>
<path d="M206.956 290.461H212.016V258.159H206.956V290.461Z" fill="#EF9A33"/>
</g>
<defs>
<filter id="filter0_d_1048_239" x="0" y="0" width="433" height="463" filterUnits="userSpaceOnUse" color-interpolation-filters="sRGB">
<feFlood flood-opacity="0" result="BackgroundImageFix"/>
<feColorMatrix in="SourceAlpha" type="matrix" values="0 0 0 0 0 0 0 0 0 0 0 0 0 0 0 0 0 0 127 0" result="hardAlpha"/>
<feOffset dx="20" dy="-8"/>
<feGaussianBlur stdDeviation="52"/>
<feComposite in2="hardAlpha" operator="out"/>
<feColorMatrix type="matrix" values="0 0 0 0 0.368627 0 0 0 0 0.356863 0 0 0 0 0.941176 0 0 0 0.7 0"/>
<feBlend mode="normal" in2="BackgroundImageFix" result="effect1_dropShadow_1048_239"/>
<feBlend mode="normal" in="SourceGraphic" in2="effect1_dropShadow_1048_239" result="shape"/>
</filter>
<filter id="filter1_d_1048_239" x="83" y="45.9858" width="293.001" height="415.028" filterUnits="userSpaceOnUse" color-interpolation-filters="sRGB">
<feFlood flood-opacity="0" result="BackgroundImageFix"/>
<feColorMatrix in="SourceAlpha" type="matrix" values="0 0 0 0 0 0 0 0 0 0 0 0 0 0 0 0 0 0 127 0" result="hardAlpha"/>
<feOffset dx="20" dy="-6"/>
<feGaussianBlur stdDeviation="52"/>
<feComposite in2="hardAlpha" operator="out"/>
<feColorMatrix type="matrix" values="0 0 0 0 1 0 0 0 0 0.74902 0 0 0 0 0.25098 0 0 0 0.4 0"/>
<feBlend mode="normal" in2="BackgroundImageFix" result="effect1_dropShadow_1048_239"/>
<feBlend mode="normal" in="SourceGraphic" in2="effect1_dropShadow_1048_239" result="shape"/>
</filter>
<linearGradient id="paint0_linear_1048_239" x1="252" y1="347.647" x2="167" y2="347.647" gradientUnits="userSpaceOnUse">
<stop stop-color="#B6B2AE"/>
<stop offset="1" stop-color="#CFCBC7"/>
</linearGradient>
<linearGradient id="paint1_linear_1048_239" x1="252" y1="332.495" x2="167" y2="332.495" gradientUnits="userSpaceOnUse">
<stop stop-color="#E1DCD8"/>
<stop offset="1" stop-color="#EFEAE5"/>
</linearGradient>
<linearGradient id="paint2_linear_1048_239" x1="251.331" y1="346.135" x2="167.175" y2="346.135" gradientUnits="userSpaceOnUse">
<stop stop-color="#F1ECE7"/>
<stop offset="1" stop-color="#F7F2ED"/>
</linearGradient>
<linearGradient id="paint3_linear_1048_239" x1="252" y1="195.209" x2="249.092" y2="195.209" gradientUnits="userSpaceOnUse">
<stop stop-color="#B6B2AE"/>
<stop offset="1" stop-color="#CFCBC7"/>
</linearGradient>
<linearGradient id="paint4_linear_1048_239" x1="252" y1="180.084" x2="167" y2="180.084" gradientUnits="userSpaceOnUse">
<stop stop-color="#E8E3DE"/>
<stop offset="1" stop-color="#EFEAE5"/>
</linearGradient>
<linearGradient id="paint5_linear_1048_239" x1="252" y1="193.696" x2="249.092" y2="193.696" gradientUnits="userSpaceOnUse">
<stop stop-color="#F1ECE7"/>
<stop offset="1" stop-color="#F7F2ED"/>
</linearGradient>
</defs>
</svg>
