<svg xmlns="http://www.w3.org/2000/svg" xmlns:xlink="http://www.w3.org/1999/xlink" width="906" height="501" fill="none">
  <path stroke="#DEDEDE" stroke-width="1.5214" d="M43 303.333h191.546c4.201 0 7.607-3.405 7.607-7.607v-34.119c0-4.201 3.406-7.607 7.607-7.607h42.241"/>
  <path stroke="#DEDEDE" stroke-width="1.5214" d="M43 403h191.46c4.201 0 7.607-3.406 7.607-7.607V261.607c0-4.201 3.406-7.607 7.607-7.607H292"/>
  <path stroke="#DEDEDE" stroke-width="1.5214" d="M43 455.668h202.701c4.201 0 7.607-3.406 7.607-7.607V276.139c0-4.201 3.406-7.607 7.607-7.607h31.189M43 198h191.451c4.202 0 7.607 3.406 7.607 7.607v28.786c0 4.201 3.406 7.607 7.608 7.607h42.335"/>
  <path stroke="#DEDEDE" stroke-width="1.5214" d="M43 44h202.691c4.202 0 7.608 3.4058 7.608 7.6072V222.393c0 4.201 3.405 7.607 7.607 7.607h31.095"/>
  <g filter="url(#filter0_d_1018_1129)">
    <rect width="89.7643" height="89.7643" x="435.118" y="205.392" fill="#0C4A3F" rx="7.6071"/>
  </g>
  <path fill="url(#pattern0)" d="M444 244.5h72v11h-72z"/>
  <rect width="158.989" height="89.7643" x="747.011" y="281.463" fill="#0C4A3F" rx="7.6071"/>
  <path fill="#fff" d="M808.502 333v-12.96h5.355c.126 0 .288.006.486.018.198.006.381.024.549.054.75.114 1.368.363 1.854.747.492.384.855.87 1.089 1.458.24.582.36 1.23.36 1.944 0 1.056-.267 1.965-.801 2.727-.534.756-1.353 1.224-2.457 1.404l-.927.081h-3.339V333h-2.169Zm7.443 0-2.556-5.274 2.205-.486 2.808 5.76h-2.457Zm-5.274-6.552h3.096c.12 0 .255-.006.405-.018.15-.012.288-.036.414-.072.36-.09.642-.249.846-.477.21-.228.357-.486.441-.774.09-.288.135-.57.135-.846s-.045-.558-.135-.846c-.084-.294-.231-.555-.441-.783-.204-.228-.486-.387-.846-.477-.126-.036-.264-.057-.414-.063-.15-.012-.285-.018-.405-.018h-3.096v4.374Zm14.574 6.822c-1.032 0-1.941-.21-2.727-.63-.78-.42-1.392-1.011-1.836-1.773-.438-.762-.657-1.656-.657-2.682v-8.127l2.196-.018v8.091c0 .486.081.921.243 1.305.168.384.393.711.675.981.282.264.606.465.972.603.366.138.744.207 1.134.207.402 0 .783-.069 1.143-.207.366-.144.69-.348.972-.612.282-.27.504-.597.666-.981.162-.384.243-.816.243-1.296v-8.091h2.196v8.145c0 1.026-.222 1.92-.666 2.682-.438.762-1.05 1.353-1.836 1.773-.78.42-1.686.63-2.718.63Zm7.375-.27v-12.96h1.953l4.482 9.18 4.482-9.18h1.953V333h-2.025v-8.307L839.487 333h-.864l-3.969-8.307V333h-2.034Z"/>
  <rect width="158.989" height="89.7643" x="747.011" y="410.785" fill="#0C4A3F" rx="7.6071"/>
  <path fill="#fff" d="M808.713 462v-12.96h2.196l6.012 9.135v-9.135h2.196V462h-2.196l-6.012-9.135V462h-2.196Zm12.56 0v-12.96h5.355c.126 0 .288.006.486.018.198.006.381.024.549.054.75.114 1.368.363 1.854.747.492.384.855.87 1.089 1.458.24.582.36 1.23.36 1.944 0 .708-.12 1.356-.36 1.944-.24.582-.606 1.065-1.098 1.449-.486.384-1.101.633-1.845.747-.168.024-.354.042-.558.054-.198.012-.357.018-.477.018h-3.186V462h-2.169Zm2.169-6.552h3.096c.12 0 .255-.006.405-.018.15-.012.288-.036.414-.072.36-.09.642-.249.846-.477.21-.228.357-.486.441-.774.09-.288.135-.57.135-.846s-.045-.558-.135-.846c-.084-.294-.231-.555-.441-.783-.204-.228-.486-.387-.846-.477-.126-.036-.264-.057-.414-.063-.15-.012-.285-.018-.405-.018h-3.096v4.374Zm8.967 6.552v-12.96h1.953l4.482 9.18 4.482-9.18h1.953V462h-2.025v-8.307L839.276 462h-.864l-3.969-8.307V462h-2.034ZM3.85 12.1598c-.7633 0-1.4076-.1687-1.933-.5059-.5254-.3408-.923-.8112-1.1928-1.4112C.4544 9.6428.3195 8.9506.3195 8.166c0-.7846.1349-1.4768.4047-2.0768.2698-.5999.6674-1.0685 1.1928-1.4058.5254-.3407 1.1697-.5111 1.933-.5111.891 0 1.6188.229 2.1832.6869.5645.4544.9514 1.065 1.1609 1.8318l-.7988.2077c-.1633-.6071-.4562-1.0881-.8786-1.4431-.4225-.355-.978-.5325-1.6667-.5325-.6 0-1.0987.1367-1.4964.41-.3976.2733-.6975.655-.8999 1.1449-.1988.4863-.3017 1.049-.3088 1.688-.0036.639.094 1.2017.2929 1.688.2023.4864.504.868.9052 1.1449.4047.2733.907.41 1.507.41.6887 0 1.2442-.1775 1.6667-.5325.4224-.3585.7153-.8395.8786-1.443l.7988.2076c-.2095.7668-.5964 1.3792-1.1609 1.8371-.5644.4544-1.2922.6817-2.1832.6817ZM8.2625 12V4.1723h.7828V12h-.7828Zm4.5678.1598c-.5716 0-1.0597-.1296-1.4644-.3888-.4047-.2591-.7153-.6177-.9319-1.0756-.2165-.458-.3248-.9834-.3248-1.5762 0-.6035.11-1.1325.3301-1.5869.2201-.4544.5325-.8076.9372-1.0597.4083-.2555.8929-.3834 1.4538-.3834.5751 0 1.065.1296 1.4697.3888.4082.2556.7188.6124.9318 1.0703.2166.4544.3249.978.3249 1.5709 0 .6035-.1083 1.1342-.3249 1.5921-.2165.4544-.5289.8094-.9372 1.065-.4082.2556-.8963.3835-1.4643.3835Zm0-.7509c.639 0 1.1147-.2112 1.4271-.6336.3124-.4261.4686-.978.4686-1.6561 0-.6958-.158-1.2496-.474-1.6614-.3124-.4118-.7863-.6177-1.4217-.6177-.4296 0-.7846.0976-1.065.2929-.2769.1917-.4846.4597-.6231.804-.1349.3408-.2023.7349-.2023 1.1822 0 .6922.1597 1.2478.4792 1.6667.3195.4153.7899.623 1.4112.623Zm5.8872.7349c-.3443 0-.6461-.0533-.9052-.1598-.2556-.1065-.4739-.2503-.655-.4313a2.2734 2.2734 0 0 1-.4313-.6177 3.11 3.11 0 0 1-.2396-.7402 4.2028 4.2028 0 0 1-.0746-.7828V6.249h.7881v2.934c0 .316.0302.6089.0905.8787.0604.2698.1562.5059.2876.7082.1349.1988.3071.3532.5165.4633.213.11.4704.1651.7721.1651.2769 0 .5201-.0479.7296-.1438.213-.0959.3905-.2325.5325-.41.1455-.1811.2556-.3994.3301-.655.0746-.2591.1118-.5503.1118-.8733l.5538.1225c0 .5893-.1029 1.0845-.3088 1.4857-.2059.4011-.4899.7046-.852.9105-.3621.2059-.7775.3089-1.2461.3089ZM20.6505 12v-1.4164h-.0799V6.249h.7828V12h-.7029Zm4.2094.1598c-.536 0-.994-.1332-1.3738-.3994-.3799-.2698-.671-.6337-.8733-1.0916-.2024-.458-.3035-.9745-.3035-1.5496 0-.5716.0994-1.0863.2982-1.5443.2023-.458.4916-.82.8679-1.0863.3763-.2662.8272-.3994 1.3526-.3994.5396 0 .994.1314 1.3632.3941.3692.2627.6479.623.836 1.081.1917.4544.2876.9727.2876 1.5549 0 .5715-.0941 1.088-.2823 1.5496-.1881.4579-.465.8218-.8307 1.0916-.3656.2662-.8129.3994-1.3419.3994Zm.0799-.7296c.4083 0 .7455-.0994 1.0118-.2982.2662-.1988.465-.4721.5964-.82.1313-.3515.197-.749.197-1.1928 0-.4509-.0657-.8485-.197-1.1928-.1314-.348-.3302-.6195-.5964-.8148-.2627-.1952-.5947-.2928-.9958-.2928-.4118 0-.7526.1011-1.0224.3035-.2698.2024-.4704.4775-.6017.8254-.1278.3479-.1917.7384-.1917 1.1715 0 .4366.0656.8307.197 1.1821.1349.3479.3355.623.6017.8254.2663.2023.6.3035 1.0011.3035ZM26.745 12V7.6708h-.0852V4.332h.7881V12h-.7029Zm3.9221-7.668h.8041L29.4264 12h-.8041l2.0448-7.668Zm5.0821 7.8278c-.7632 0-1.4076-.1687-1.933-.5059-.5254-.3408-.923-.8112-1.1928-1.4112-.2698-.5999-.4047-1.2921-.4047-2.0767 0-.7846.1349-1.4768.4047-2.0768.2698-.5999.6674-1.0685 1.1928-1.4058.5254-.3407 1.1698-.5111 1.933-.5111.7668 0 1.4111.1704 1.933.5111.5254.3373.923.8059 1.1928 1.4059.2733.5999.41 1.2922.41 2.0767 0 .7845-.1367 1.4768-.41 2.0767-.2698.6-.6674 1.0704-1.1928 1.4112-.5219.3372-1.1662.5059-1.933.5059Zm0-.7509c.6 0 1.1005-.1367 1.5017-.41.4011-.2734.7011-.6532.8999-1.1396.2023-.4898.3035-1.0543.3035-1.6933s-.1012-1.2017-.3035-1.688c-.1988-.4864-.4988-.8662-.8999-1.1396-.4012-.2733-.9017-.4118-1.5017-.4153-.5999 0-1.0987.1367-1.4963.41-.3976.2733-.6976.655-.8999 1.1449-.1988.4863-.3 1.049-.3036 1.688-.0035.639.0941 1.2017.2929 1.688.2024.4828.5041.8627.9053 1.1396.4011.2733.9017.4118 1.5016.4153ZM44.2919 12V9.066c0-.3196-.0301-.6125-.0905-.8787-.0603-.2698-.158-.5041-.2929-.7029a1.3384 1.3384 0 0 0-.5165-.4686c-.2094-.11-.465-.165-.7668-.165-.2769 0-.5218.0479-.7348.1437a1.4469 1.4469 0 0 0-.5325.4153c-.142.1776-.2503.3941-.3249.6497-.0745.2556-.1118.5467-.1118.8733l-.5538-.1225c0-.5893.103-1.0845.3089-1.4856.2059-.4012.4899-.7047.852-.9106.3621-.206.7774-.3089 1.246-.3089.3444 0 .6443.0533.8999.1598.2592.1065.4775.2503.655.4313a2.191 2.191 0 0 1 .4367.623c.11.2308.1899.4775.2396.7402a4.119 4.119 0 0 1 .0745.7774V12h-.7881Zm-4.1588 0V6.249h.7082v1.4165h.0799V12h-.7881Zm10.6175.1598c-.529 0-.9763-.1332-1.3419-.3994-.3657-.2698-.6426-.6337-.8307-1.0916-.1882-.4616-.2822-.978-.2822-1.5496 0-.5822.094-1.1005.2822-1.555.1917-.4579.4721-.8182.8413-1.0809.3692-.2627.8236-.394 1.3632-.394.5254 0 .9763.133 1.3526.3993.3763.2663.6638.6284.8626 1.0863.2024.458.3036.9727.3036 1.5443 0 .575-.1012 1.0916-.3036 1.5496-.2023.4579-.4934.8218-.8733 1.0916-.3798.2662-.8378.3994-1.3738.3994Zm-2.588 2.3962V6.249h.7029v4.3292h.0852v3.9778h-.7881Zm2.5081-3.1258c.4012 0 .7349-.1012 1.0011-.3035.2663-.2024.4651-.4775.5964-.8254.1349-.3514.2024-.7455.2024-1.1821 0-.4331-.0657-.8236-.1971-1.1715-.1313-.348-.3319-.623-.6017-.8254-.2662-.2024-.6053-.3035-1.0171-.3035-.4011 0-.7348.0976-1.0011.2928-.2627.1953-.4597.4669-.591.8148-.1314.3443-.1971.742-.1971 1.1928 0 .4437.0657.8413.1971 1.1928.1313.3479.3301.6212.5964.82.2662.1988.6035.2982 1.0117.2982ZM54.2576 12V6.249h.7029v1.3845l-.1385-.181a1.9778 1.9778 0 0 1 .2503-.4686c.103-.1456.2148-.2645.3355-.3568.1491-.1314.323-.2308.5218-.2982a2.1114 2.1114 0 0 1 .6018-.1225c.2023-.0142.3869 0 .5538.0426v.7349c-.2095-.0533-.4385-.0657-.687-.0373-.2485.0284-.4774.1278-.6869.2982-.1917.149-.3355.3284-.4313.5378a2.284 2.284 0 0 0-.1917.6603 4.9954 4.9954 0 0 0-.0479.687V12h-.7828Zm5.9543.1598c-.5609 0-1.0473-.1243-1.4591-.3728-.4082-.2485-.726-.5982-.9532-1.049-.2272-.4509-.3408-.9798-.3408-1.5869 0-.6283.1119-1.1715.3355-1.6294.2237-.458.5378-.8112.9425-1.0597.4083-.2485.8893-.3727 1.4431-.3727.568 0 1.0526.1313 1.4537.394.4012.2591.7047.6319.9106 1.1182.2059.4864.3 1.0668.2822 1.7413h-.7987V9.066c-.0142-.7455-.1757-1.3081-.4846-1.688-.3053-.3799-.7526-.5698-1.3419-.5698-.6177 0-1.0916.2006-1.4218.6018-.3266.4011-.4899.9726-.4899 1.7146 0 .7242.1633 1.2869.4899 1.688.3302.3976.797.5964 1.4005.5964.4118 0 .7704-.0941 1.0757-.2822.3088-.1917.552-.4668.7295-.8254l.7295.2823c-.2272.5005-.5627.8892-1.0064 1.1661-.4402.2734-.939.4101-1.4963.4101Zm-2.1993-2.817v-.655h4.3932v.655h-4.3932ZM70.4978 12l.0053-3.7754c0-.4438-.1243-.7917-.3728-1.0437-.2449-.2556-.5573-.3834-.9372-.3834-.2165 0-.4277.0497-.6336.149-.2059.0995-.3763.2592-.5112.4793-.1314.2201-.1971.5077-.1971.8627l-.4632-.1332c-.0107-.4118.0692-.772.2396-1.081.1739-.3088.4118-.5484.7135-.7188.3053-.174.6497-.261 1.0331-.261.5786 0 1.0419.1794 1.3898.5379.3479.355.5219.836.5219 1.443L71.2805 12h-.7827Zm-6.864 0V6.249h.7029v1.4165h.0852V12h-.7881Zm3.44 0 .0053-3.7222c0-.458-.1225-.8182-.3674-1.081-.2414-.2662-.5609-.3993-.9585-.3993-.3976 0-.7189.1366-.9638.41-.245.2698-.3675.6301-.3675 1.081l-.4686-.2556c0-.3692.087-.6994.261-.9905.1739-.2946.4118-.5254.7135-.6922.3018-.1704.6443-.2556 1.0277-.2556.3657 0 .6905.078.9745.2343.2876.1562.513.3834.6763.6816.1633.2982.2449.6603.2449 1.0863L67.8459 12h-.7721ZM.852 112.667v-7.668h.7828v6.917H5.277v.751H.852Zm6.7653.159c-.433 0-.797-.078-1.0916-.234-.2911-.156-.5094-.364-.655-.623-.1455-.259-.2183-.541-.2183-.847 0-.312.0621-.578.1864-.798.1278-.224.3-.407.5165-.549.2201-.142.474-.25.7615-.325.291-.071.6124-.133.9638-.186.355-.057.7011-.105 1.0384-.144.3408-.043.639-.083.8946-.122l-.277.17c.0107-.568-.0993-.989-.33-1.262-.2308-.273-.632-.41-1.2035-.41-.394 0-.7278.089-1.0011.266-.2698.178-.4597.458-.5698.842l-.7615-.224c.1314-.515.3958-.914.7934-1.198.3976-.284.9142-.426 1.5496-.426.5254 0 .971.099 1.3366.298.3692.195.6301.479.7828.852.071.167.1171.353.1384.559.0213.206.032.415.032.628v3.574h-.6976v-1.444l.2024.086c-.1953.493-.4988.869-.9106 1.129-.4118.259-.9053.388-1.4804.388Zm.0905-.676c.3657 0 .6852-.066.9585-.197.2734-.131.4935-.311.6604-.538.1668-.231.275-.49.3248-.777.0426-.185.0656-.387.0692-.607.0035-.224.0053-.391.0053-.501l.2982.155c-.2662.035-.5556.071-.868.106-.3088.036-.6141.076-.9159.122-.2981.047-.568.102-.8093.166a2.1478 2.1478 0 0 0-.474.197 1.0813 1.0813 0 0 0-.378.33c-.0959.138-.1438.31-.1438.516 0 .167.0408.329.1224.485.0853.156.2202.286.4047.389.1882.103.4367.154.7455.154Zm8.1224.517v-2.935c0-.319-.0301-.612-.0905-.878-.0603-.27-.158-.504-.2929-.703-.1313-.202-.3035-.359-.5165-.469-.2094-.11-.465-.165-.7668-.165-.2769 0-.5218.048-.7348.144a1.448 1.448 0 0 0-.5325.415c-.142.178-.2503.394-.3249.65-.0745.256-.1118.547-.1118.873l-.5538-.122c0-.589.103-1.085.3089-1.486.2059-.401.4899-.705.852-.91.3621-.206.7774-.309 1.246-.309.3444 0 .6443.053.8999.159.2592.107.4775.251.655.432.1811.181.3266.389.4367.623.11.231.1899.477.2396.74.0497.259.0745.518.0745.777v3.164h-.7881Zm-4.1588 0v-5.751h.7082v1.416h.0799v4.335h-.7881Zm8.4002 2.715a2.937 2.937 0 0 1-.8733-.133c-.284-.085-.5467-.222-.7881-.41-.2414-.184-.4438-.426-.6071-.724l.7083-.394c.1597.319.3834.548.6709.687.2911.142.5875.213.8893.213.4153 0 .7508-.078 1.0064-.235.2592-.152.4473-.379.5645-.681.1171-.302.1739-.678.1704-1.129v-1.534h.0905v-4.126h.6976v5.671c0 .163-.0054.319-.016.468a3.692 3.692 0 0 1-.0479.448c-.0675.429-.2077.782-.4207 1.059-.2095.277-.4864.483-.8307.618-.3408.135-.7455.202-1.2141.202Zm-.0533-2.556c-.536 0-.994-.133-1.3738-.399-.3799-.27-.671-.634-.8733-1.092-.2024-.458-.3035-.974-.3035-1.549 0-.572.0994-1.087.2982-1.545.2023-.458.4916-.82.8679-1.086.3763-.266.8272-.399 1.3526-.399.5396 0 .994.131 1.3632.394s.6479.623.836 1.081c.1917.454.2876.972.2876 1.555 0 .571-.0941 1.088-.2823 1.549-.1881.458-.465.822-.8307 1.092-.3656.266-.8129.399-1.3419.399Zm.0799-.729c.4083 0 .7455-.1 1.0118-.298.2662-.199.465-.473.5964-.821.1313-.351.197-.749.197-1.192 0-.451-.0657-.849-.197-1.193-.1314-.348-.3302-.62-.5964-.815-.2627-.195-.5947-.293-.9958-.293-.4118 0-.7526.101-1.0224.304-.2698.202-.4704.477-.6017.825-.1278.348-.1917.739-.1917 1.172 0 .436.0656.83.197 1.182.1349.348.3355.623.6017.825.2663.203.6.304 1.0011.304Zm5.9778.713c-.3443 0-.6461-.053-.9052-.159-.2556-.107-.4739-.251-.655-.432a2.2807 2.2807 0 0 1-.4313-.617 3.1295 3.1295 0 0 1-.2397-.741 4.1904 4.1904 0 0 1-.0745-.782v-3.163h.7881v2.934c0 .316.0302.608.0905.878.0604.27.1562.506.2876.708.1349.199.307.354.5165.464.213.11.4704.165.7721.165.2769 0 .5201-.048.7296-.144.213-.096.3905-.233.5324-.41.1456-.181.2557-.399.3302-.655.0745-.259.1118-.55.1118-.873l.5538.122c0 .589-.1029 1.085-.3088 1.486-.2059.401-.4899.705-.852.91-.3621.206-.7775.309-1.2461.309Zm1.933-.143v-1.417h-.0799v-4.334h.7828v5.751h-.7029Zm3.6237.159c-.4331 0-.797-.078-1.0917-.234-.2911-.156-.5094-.364-.6549-.623-.1456-.259-.2184-.541-.2184-.847 0-.312.0622-.578.1864-.798.1278-.224.3-.407.5165-.549.2201-.142.474-.25.7615-.325.2911-.071.6124-.133.9638-.186.355-.057.7012-.105 1.0384-.144.3408-.043.639-.083.8946-.122l-.2769.17c.0107-.568-.0994-.989-.3301-1.262-.2308-.273-.6319-.41-1.2035-.41-.394 0-.7277.089-1.0011.266-.2698.178-.4597.458-.5698.842l-.7614-.224c.1313-.515.3958-.914.7934-1.198.3976-.284.9141-.426 1.5496-.426.5254 0 .9709.099 1.3365.298.3692.195.6302.479.7828.852.071.167.1172.353.1385.559.0213.206.0319.415.0319.628v3.574h-.6976v-1.444l.2024.086c-.1953.493-.4988.869-.9106 1.129-.4118.259-.9052.388-1.4803.388Zm.0905-.676c.3656 0 .6851-.066.9585-.197.2733-.131.4934-.311.6603-.538.1668-.231.2751-.49.3248-.777.0426-.185.0657-.387.0692-.607.0036-.224.0054-.391.0054-.501l.2982.155c-.2663.035-.5556.071-.868.106-.3089.036-.6142.076-.9159.122-.2982.047-.568.102-.8094.166a2.1467 2.1467 0 0 0-.4739.197 1.0809 1.0809 0 0 0-.3781.33c-.0959.138-.1438.31-.1438.516 0 .167.0408.329.1225.485.0852.156.2201.286.4047.389.1881.103.4366.154.7455.154Zm6.2533 3.232a2.937 2.937 0 0 1-.8733-.133c-.284-.085-.5467-.222-.7881-.41-.2414-.184-.4438-.426-.6071-.724l.7083-.394c.1597.319.3834.548.6709.687.2911.142.5875.213.8893.213.4153 0 .7508-.078 1.0064-.235.2592-.152.4473-.379.5645-.681.1171-.302.1739-.678.1704-1.129v-1.534h.0905v-4.126h.6976v5.671c0 .163-.0054.319-.016.468a3.692 3.692 0 0 1-.0479.448c-.0675.429-.2077.782-.4207 1.059-.2095.277-.4864.483-.8307.618-.3408.135-.7455.202-1.2141.202Zm-.0533-2.556c-.536 0-.994-.133-1.3738-.399-.3799-.27-.671-.634-.8733-1.092-.2024-.458-.3035-.974-.3035-1.549 0-.572.0994-1.087.2982-1.545.2023-.458.4916-.82.8679-1.086.3763-.266.8272-.399 1.3526-.399.5396 0 .994.131 1.3632.394s.6479.623.836 1.081c.1917.454.2876.972.2876 1.555 0 .571-.0941 1.088-.2823 1.549-.1881.458-.465.822-.8307 1.092-.3656.266-.8129.399-1.3419.399Zm.0799-.729c.4083 0 .7455-.1 1.0118-.298.2662-.199.465-.473.5964-.821.1313-.351.197-.749.197-1.192 0-.451-.0657-.849-.197-1.193-.1314-.348-.3302-.62-.5964-.815-.2627-.195-.5947-.293-.9958-.293-.4118 0-.7526.101-1.0224.304-.2698.202-.4704.477-.6017.825-.1278.348-.1917.739-.1917 1.172 0 .436.0656.83.197 1.182.1349.348.3355.623.6017.825.2663.203.6.304 1.0011.304Zm6.2121.729c-.5609 0-1.0472-.124-1.459-.372-.4083-.249-.726-.599-.9532-1.05-.2272-.45-.3408-.979-.3408-1.586 0-.629.1118-1.172.3355-1.63.2236-.458.5378-.811.9425-1.059.4082-.249.8893-.373 1.4431-.373.568 0 1.0525.131 1.4537.394.4011.259.7047.632.9106 1.118.2059.486.2999 1.067.2822 1.741h-.7988v-.277c-.0142-.745-.1757-1.308-.4845-1.688-.3053-.379-.7526-.569-1.3419-.569-.6177 0-1.0917.2-1.4218.601-.3266.402-.4899.973-.4899 1.715 0 .724.1633 1.287.4899 1.688.3301.398.797.596 1.4005.596.4118 0 .7703-.094 1.0756-.282.3089-.191.552-.467.7295-.825l.7296.282c-.2272.501-.5627.889-1.0065 1.166-.4402.274-.9389.41-1.4963.41Zm-2.1992-2.817v-.655h4.3931v.655H42.016Zm7.9285 2.812c-.6745 0-1.2301-.146-1.6667-.437-.4331-.291-.6994-.696-.7988-1.214l.7988-.133c.0852.327.2787.588.5804.783.3053.192.6816.287 1.1289.287.4367 0 .781-.09 1.0331-.271.252-.185.378-.435.378-.751 0-.178-.0408-.321-.1224-.431-.0781-.114-.2397-.219-.4846-.315-.245-.095-.6106-.209-1.097-.34-.5218-.142-.9301-.284-1.2247-.426-.2947-.142-.5041-.306-.6284-.49-.1242-.188-.1863-.417-.1863-.687 0-.327.0923-.613.2769-.857.1846-.249.4402-.441.7668-.576.3266-.138.7064-.207 1.1395-.207.4331 0 .8201.071 1.1609.213.3443.138.6212.333.8307.586.2094.252.3337.544.3727.878l-.7987.144c-.0533-.337-.2219-.604-.5059-.799-.2805-.199-.6372-.302-1.0703-.309-.4083-.01-.7402.068-.9958.235-.2556.163-.3834.381-.3834.655 0 .152.0461.284.1384.394.0923.106.2592.207.5006.303.2449.096.5928.201 1.0437.314.5289.135.9443.277 1.246.426.3018.149.5166.325.6444.528.1278.202.1917.452.1917.75 0 .543-.2024.971-.6071 1.284-.4011.309-.9549.463-1.6614.463ZM3.85 270.802c-.7633 0-1.4076-.168-1.933-.506-.5254-.34-.923-.811-1.1928-1.411-.2698-.6-.4047-1.292-.4047-2.076 0-.785.1349-1.477.4047-2.077.2698-.6.6674-1.069 1.1928-1.406.5254-.341 1.1697-.511 1.933-.511.891 0 1.6188.229 2.1832.687.5645.454.9514 1.065 1.1609 1.832l-.7988.207c-.1633-.607-.4562-1.088-.8786-1.443-.4225-.355-.978-.532-1.6667-.532-.6 0-1.0987.136-1.4964.41-.3976.273-.6975.655-.8999 1.145-.1988.486-.3017 1.049-.3088 1.688-.0036.639.094 1.201.2929 1.688.2023.486.504.868.9052 1.144.4047.274.907.411 1.507.411.6887 0 1.2442-.178 1.6667-.533.4224-.359.7153-.84.8786-1.443l.7988.208c-.2095.766-.5964 1.379-1.1609 1.837-.5644.454-1.2922.681-2.1832.681Zm6.7076 0c-.5716 0-1.0597-.129-1.4644-.388-.4047-.26-.7153-.618-.9319-1.076-.2165-.458-.3248-.983-.3248-1.576 0-.604.11-1.133.3301-1.587.2201-.454.5325-.808.9372-1.06.4083-.255.8929-.383 1.4538-.383.5751 0 1.065.129 1.4697.389.4082.255.7188.612.9318 1.07.2166.454.3249.978.3249 1.571 0 .603-.1083 1.134-.3249 1.592-.2165.454-.5289.809-.9372 1.065-.4082.256-.8963.383-1.4643.383Zm0-.75c.639 0 1.1147-.212 1.4271-.634.3124-.426.4686-.978.4686-1.656 0-.696-.158-1.25-.474-1.662-.3124-.411-.7863-.617-1.4217-.617-.4296 0-.7846.097-1.065.293-.277.191-.4846.459-.623.804-.135.34-.2024.734-.2024 1.182 0 .692.1597 1.248.4792 1.666.3195.416.79.624 1.4112.624Zm7.8415.591v-2.934c0-.32-.0302-.613-.0905-.879-.0604-.27-.158-.504-.2929-.703-.1313-.202-.3035-.359-.5165-.469-.2095-.11-.4651-.165-.7668-.165-.2769 0-.5219.048-.7349.144a1.4497 1.4497 0 0 0-.5325.415c-.142.178-.2502.394-.3248.65-.0745.256-.1118.547-.1118.873l-.5538-.122c0-.589.1029-1.085.3088-1.486.2059-.401.4899-.704.852-.91.3621-.206.7775-.309 1.2461-.309.3443 0 .6443.053.8999.16.2592.106.4775.25.655.431.181.181.3266.389.4366.623.1101.231.19.477.2397.74.0497.259.0745.518.0745.778v3.163h-.7881Zm-4.1588 0v-5.751h.7082v1.416h.0799v4.335h-.7881Zm9.2469 0c-.3231.067-.6426.094-.9585.079-.3124-.014-.5929-.081-.8414-.202-.2449-.121-.4313-.309-.5591-.564-.103-.213-.1598-.428-.1704-.645-.0071-.22-.0107-.47-.0107-.75v-5.267h.7775v5.235c0 .241.0018.443.0053.607.0071.159.0444.301.1118.426.1278.237.3302.379.6071.426.2804.046.6266.035 1.0384-.032v.687Zm-3.7701-5.08v-.671h3.7701v.671h-3.7701Zm6.3355 5.239c-.4331 0-.7969-.078-1.0916-.234-.2911-.156-.5094-.364-.655-.623-.1455-.259-.2183-.541-.2183-.847 0-.312.0621-.578.1864-.798.1278-.224.3-.407.5165-.549.2201-.142.4739-.25.7615-.325.2911-.071.6124-.133.9638-.186.355-.057.7011-.105 1.0384-.144.3408-.042.639-.083.8946-.122l-.2769.17c.0106-.568-.0994-.989-.3302-1.262-.2307-.273-.6319-.41-1.2034-.41-.3941 0-.7278.089-1.0011.266-.2698.178-.4597.458-.5698.842l-.7615-.224c.1314-.515.3959-.914.7935-1.198.3976-.284.9141-.426 1.5495-.426.5254 0 .971.099 1.3366.298.3692.195.6301.479.7828.852.071.167.1171.353.1384.559.0213.206.032.416.032.629v3.573h-.6976V269.2l.2024.085c-.1953.493-.4988.869-.9106 1.129-.4118.259-.9053.388-1.4804.388Zm.0906-.676c.3656 0 .6851-.066.9585-.197.2733-.131.4934-.311.6603-.538.1668-.231.2751-.49.3248-.777.0426-.185.0657-.387.0692-.607.0036-.224.0053-.391.0053-.501l.2982.155a45.428 45.428 0 0 1-.8679.106c-.3089.036-.6142.076-.9159.123-.2982.046-.568.101-.8094.165a2.1494 2.1494 0 0 0-.474.197 1.0814 1.0814 0 0 0-.378.33c-.0959.138-.1438.31-.1438.516 0 .167.0408.329.1225.485.0852.156.2201.286.4047.389.1881.103.4366.154.7455.154Zm4.0753-6.326v-.879h.7828v.879h-.7828Zm0 6.843v-5.751h.7828v5.751h-.7828Zm6.3197 0v-2.934c0-.32-.0301-.613-.0905-.879-.0603-.27-.158-.504-.2929-.703-.1313-.202-.3035-.359-.5165-.469-.2094-.11-.465-.165-.7668-.165-.2769 0-.5218.048-.7348.144a1.448 1.448 0 0 0-.5325.415c-.142.178-.2503.394-.3249.65-.0745.256-.1118.547-.1118.873l-.5538-.122c0-.589.103-1.085.3089-1.486.2059-.401.4899-.704.852-.91.3621-.206.7774-.309 1.246-.309.3444 0 .6443.053.8999.16.2592.106.4775.25.655.431.1811.181.3266.389.4367.623.11.231.1899.477.2396.74.0497.259.0745.518.0745.778v3.163h-.7881Zm-4.1588 0v-5.751h.7082v1.416h.0799v4.335h-.7881Zm8.5181.159c-.5609 0-1.0473-.124-1.4591-.372-.4082-.249-.7259-.599-.9531-1.049-.2272-.451-.3408-.98-.3408-1.587 0-.629.1118-1.172.3354-1.63.2237-.458.5379-.811.9426-1.059.4082-.249.8892-.373 1.443-.373.568 0 1.0526.131 1.4538.394.4011.259.7046.632.9105 1.118.2059.486.3 1.067.2823 1.741h-.7988v-.276c-.0142-.746-.1757-1.309-.4846-1.689-.3053-.379-.7526-.569-1.3419-.569-.6177 0-1.0916.2-1.4217.601-.3266.402-.4899.973-.4899 1.715 0 .724.1633 1.287.4899 1.688.3301.398.7969.597 1.4004.597.4118 0 .7704-.095 1.0757-.283.3088-.191.552-.467.7295-.825l.7295.282c-.2272.501-.5626.889-1.0064 1.166-.4402.274-.939.41-1.4963.41Zm-2.1992-2.817v-.655h4.3931v.655h-4.3931Zm5.7825 2.658v-5.751h.7029v1.384l-.1384-.181a1.988 1.988 0 0 1 .2502-.469c.103-.145.2148-.264.3355-.356.1491-.132.3231-.231.5219-.299a2.122 2.122 0 0 1 .6017-.122c.2023-.014.3869 0 .5538.043v.734c-.2095-.053-.4384-.065-.6869-.037-.2485.029-.4775.128-.687.298-.1917.149-.3354.329-.4313.538a2.292 2.292 0 0 0-.1917.66c-.0319.231-.0479.46-.0479.687v2.871h-.7828Zm3.7313-6.843v-.879h.7827v.879h-.7827Zm0 6.843v-5.751h.7827v5.751h-.7827Zm1.6336 0v-.165l3.7116-4.857h-3.4347v-.729h4.7233v.181l-3.7062 4.84h3.5039v.73h-4.7979Zm7.2796.159c-.4331 0-.797-.078-1.0917-.234-.2911-.156-.5094-.364-.6549-.623-.1456-.259-.2184-.541-.2184-.847 0-.312.0622-.578.1864-.798.1278-.224.3-.407.5165-.549.2201-.142.474-.25.7615-.325.2911-.071.6124-.133.9638-.186.355-.057.7012-.105 1.0384-.144.3408-.042.639-.083.8946-.122l-.2769.17c.0107-.568-.0994-.989-.3301-1.262-.2308-.273-.6319-.41-1.2035-.41-.394 0-.7277.089-1.0011.266-.2698.178-.4597.458-.5698.842l-.7614-.224c.1313-.515.3958-.914.7934-1.198.3976-.284.9141-.426 1.5496-.426.5254 0 .9709.099 1.3365.298.3692.195.6302.479.7828.852.071.167.1172.353.1385.559.0213.206.0319.416.0319.629v3.573h-.6976V269.2l.2024.085c-.1953.493-.4988.869-.9106 1.129-.4118.259-.9052.388-1.4803.388Zm.0905-.676c.3656 0 .6851-.066.9585-.197.2733-.131.4934-.311.6603-.538.1668-.231.2751-.49.3248-.777.0426-.185.0657-.387.0692-.607.0036-.224.0054-.391.0054-.501l.2982.155c-.2663.035-.5556.071-.868.106-.3089.036-.6142.076-.9159.123-.2982.046-.568.101-.8094.165a2.1467 2.1467 0 0 0-.4739.197 1.0809 1.0809 0 0 0-.3781.33c-.0959.138-.1438.31-.1438.516 0 .167.0408.329.1225.485.0852.156.2201.286.4047.389.1881.103.4366.154.7455.154Zm7.1.517c-.3231.067-.6426.094-.9585.079-.3124-.014-.5929-.081-.8414-.202-.2449-.121-.4313-.309-.5591-.564-.103-.213-.1598-.428-.1704-.645-.0071-.22-.0107-.47-.0107-.75v-5.267h.7775v5.235c0 .241.0018.443.0053.607.0071.159.0444.301.1118.426.1278.237.3302.379.6071.426.2804.046.6266.035 1.0384-.032v.687Zm-3.7701-5.08v-.671h3.7701v.671h-3.7701Zm4.7966-1.763v-.879h.7828v.879h-.7828Zm0 6.843v-5.751h.7828v5.751h-.7828Zm4.5678.159c-.5716 0-1.0597-.129-1.4644-.388-.4047-.26-.7153-.618-.9319-1.076-.2165-.458-.3248-.983-.3248-1.576 0-.604.1101-1.133.3302-1.587.2201-.454.5325-.808.9372-1.06.4082-.255.8928-.383 1.4537-.383.5751 0 1.065.129 1.4697.389.4082.255.7189.612.9319 1.07.2165.454.3248.978.3248 1.571 0 .603-.1083 1.134-.3248 1.592-.2166.454-.529.809-.9372 1.065-.4083.256-.8964.383-1.4644.383Zm0-.75c.639 0 1.1147-.212 1.4271-.634.3124-.426.4686-.978.4686-1.656 0-.696-.158-1.25-.4739-1.662-.3124-.411-.7864-.617-1.4218-.617-.4296 0-.7846.097-1.065.293-.2769.191-.4846.459-.623.804-.1349.34-.2024.734-.2024 1.182 0 .692.1598 1.248.4793 1.666.3195.416.7898.624 1.4111.624Zm7.8416.591v-2.934c0-.32-.0302-.613-.0906-.879-.0603-.27-.1579-.504-.2928-.703-.1314-.202-.3036-.359-.5166-.469-.2094-.11-.465-.165-.7668-.165-.2769 0-.5218.048-.7348.144a1.448 1.448 0 0 0-.5325.415c-.142.178-.2503.394-.3248.65-.0746.256-.1119.547-.1119.873l-.5538-.122c0-.589.103-1.085.3089-1.486.2059-.401.4899-.704.852-.91.3621-.206.7774-.309 1.246-.309.3444 0 .6444.053.9.16.2591.106.4774.25.6549.431.1811.181.3266.389.4367.623.11.231.1899.477.2396.74.0497.259.0746.518.0746.778v3.163h-.7881Zm-4.1589 0v-5.751h.7083v1.416h.0798v4.335h-.7881Zm8.0541-7.668h.8041l-2.0448 7.668h-.8041l2.0448-7.668Zm5.0821 7.827c-.7632 0-1.4076-.168-1.933-.506-.5254-.34-.923-.811-1.1928-1.411-.2698-.6-.4047-1.292-.4047-2.076 0-.785.1349-1.477.4047-2.077.2698-.6.6674-1.069 1.1928-1.406.5254-.341 1.1698-.511 1.933-.511.7668 0 1.4111.17 1.933.511.5254.337.923.806 1.1928 1.406.2733.6.41 1.292.41 2.077 0 .784-.1367 1.476-.41 2.076-.2698.6-.6674 1.071-1.1928 1.411-.5219.338-1.1662.506-1.933.506Zm0-.75c.6 0 1.1005-.137 1.5017-.411.4011-.273.7011-.653.8999-1.139.2023-.49.3035-1.054.3035-1.693s-.1012-1.202-.3035-1.688c-.1988-.487-.4988-.867-.8999-1.14-.4012-.273-.9017-.412-1.5017-.415-.5999 0-1.0987.136-1.4963.41-.3976.273-.6976.655-.8999 1.145-.1988.486-.3 1.049-.3036 1.688-.0035.639.0941 1.201.2929 1.688.2024.482.5041.862.9053 1.139.4011.274.9017.412 1.5016.416Zm4.3892.591v-5.751h.7029v1.384l-.1384-.181c.0639-.17.1473-.327.2503-.469.1029-.145.2147-.264.3354-.356.1491-.132.3231-.231.5219-.299.1988-.071.3994-.111.6017-.122.2024-.014.387 0 .5538.043v.734c-.2094-.053-.4384-.065-.6869-.037-.2485.029-.4775.128-.6869.298-.1917.149-.3355.329-.4314.538a2.292 2.292 0 0 0-.1917.66c-.0319.231-.0479.46-.0479.687v2.871h-.7828Zm5.9064.159c-.5787 0-1.0686-.129-1.4697-.388-.4012-.26-.7065-.616-.9159-1.071-.2059-.458-.3124-.983-.3195-1.576.0071-.603.1171-1.132.3301-1.587.213-.458.5201-.813.9213-1.065.4011-.255.8875-.383 1.459-.383.5822 0 1.0881.142 1.5176.426.4331.284.7296.673.8893 1.166l-.7668.245c-.1349-.344-.3497-.611-.6443-.799-.2911-.191-.6248-.287-1.0011-.287-.4225 0-.7721.097-1.049.293-.2769.191-.4828.459-.6177.804-.1349.344-.2042.74-.2077 1.187.0071.689.1668 1.243.4792 1.661.3124.416.7775.624 1.3952.624.3905 0 .7224-.089.9958-.267.2769-.181.4863-.443.6283-.788l.7881.234c-.213.512-.5254.902-.9372 1.172-.4118.266-.9035.399-1.475.399Zm7.4514-.159v-2.934c0-.32-.03-.613-.09-.879-.06-.27-.158-.504-.293-.703-.131-.202-.303-.359-.516-.469-.21-.11-.465-.165-.767-.165-.277 0-.522.048-.735.144-.21.096-.387.234-.533.415-.142.178-.25.394-.324.65-.075.256-.112.547-.112.873l-.554-.122c0-.589.103-1.085.309-1.486.206-.401.49-.704.852-.91.362-.206.777-.309 1.246-.309.344 0 .644.053.9.16.259.106.477.25.655.431.181.181.326.389.436.623.11.231.19.477.24.74.05.259.075.518.075.778v3.163h-.789Zm-4.158 0v-7.668h.708v4.329h.08v3.339h-.788Zm8.549.159c-.561 0-1.047-.124-1.459-.372-.408-.249-.726-.599-.953-1.049-.227-.451-.341-.98-.341-1.587 0-.629.112-1.172.335-1.63.224-.458.538-.811.943-1.059.408-.249.889-.373 1.443-.373.568 0 1.053.131 1.454.394.401.259.704.632.91 1.118.206.486.3 1.067.283 1.741h-.799v-.276c-.014-.746-.176-1.309-.485-1.689-.305-.379-.752-.569-1.342-.569-.617 0-1.091.2-1.421.601-.327.402-.49.973-.49 1.715 0 .724.163 1.287.49 1.688.33.398.797.597 1.4.597.412 0 .77-.095 1.076-.283.309-.191.552-.467.729-.825l.73.282c-.227.501-.563.889-1.007 1.166-.44.274-.939.41-1.496.41Zm-2.199-2.817v-.655h4.393v.655h-4.393Zm7.928 2.812c-.674 0-1.23-.146-1.666-.437-.434-.291-.7-.695-.799-1.214l.799-.133c.085.327.278.588.58.783.305.192.682.287 1.129.287.436 0 .781-.09 1.033-.271.252-.185.378-.435.378-.751 0-.177-.041-.321-.123-.431-.078-.114-.239-.219-.484-.314-.245-.096-.611-.21-1.097-.341-.522-.142-.93-.284-1.225-.426-.294-.142-.504-.306-.628-.49-.124-.188-.187-.417-.187-.687 0-.327.093-.612.277-.857.185-.249.441-.441.767-.575.327-.139.707-.208 1.14-.208.433 0 .82.071 1.161.213.344.138.621.334.83.586.21.252.334.545.373.878l-.799.144c-.053-.337-.222-.604-.506-.799-.28-.199-.637-.302-1.07-.309-.408-.01-.74.068-.996.235-.255.163-.383.381-.383.655 0 .152.046.284.138.394.093.106.26.207.501.303.245.096.593.201 1.044.314.529.135.944.277 1.246.426.301.15.516.325.644.528.128.202.192.452.192.75 0 .544-.203.971-.607 1.284-.402.309-.955.463-1.662.463Zm6.368-.154c-.323.067-.643.094-.959.079-.312-.014-.593-.081-.841-.202-.245-.121-.431-.309-.559-.564-.103-.213-.16-.428-.171-.645-.007-.22-.01-.47-.01-.75v-5.267h.777v5.235c0 .241.002.443.006.607.007.159.044.301.111.426.128.237.33.379.607.426.281.046.627.035 1.039-.032v.687Zm-3.77-5.08v-.671h3.77v.671h-3.77Zm4.69 5.08v-5.751h.703v1.384l-.139-.181c.064-.17.148-.327.251-.469.103-.145.214-.264.335-.356.149-.132.323-.231.522-.299.199-.071.399-.111.602-.122.202-.014.387 0 .553.043v.734c-.209-.053-.438-.065-.687-.037-.248.029-.477.128-.686.298-.192.149-.336.329-.432.538-.096.206-.16.426-.191.66-.032.231-.048.46-.048.687v2.871h-.783Zm5.052.159c-.434 0-.797-.078-1.092-.234-.291-.156-.509-.364-.655-.623-.146-.259-.218-.541-.218-.847 0-.312.062-.578.186-.798.128-.224.3-.407.517-.549.22-.142.473-.25.761-.325.291-.071.612-.133.964-.186.355-.057.701-.105 1.038-.144.341-.042.639-.083.895-.122l-.277.17c.011-.568-.099-.989-.33-1.262s-.632-.41-1.204-.41c-.394 0-.727.089-1.001.266-.27.178-.459.458-.57.842l-.761-.224c.131-.515.396-.914.793-1.198.398-.284.915-.426 1.55-.426.525 0 .971.099 1.337.298.369.195.63.479.782.852.071.167.117.353.139.559.021.206.032.416.032.629v3.573h-.698V269.2l.203.085c-.196.493-.499.869-.911 1.129-.412.259-.905.388-1.48.388Zm.09-.676c.366 0 .685-.066.959-.197.273-.131.493-.311.66-.538.167-.231.275-.49.325-.777.042-.185.065-.387.069-.607.004-.224.005-.391.005-.501l.298.155c-.266.035-.555.071-.867.106-.309.036-.615.076-.916.123-.299.046-.568.101-.81.165-.163.046-.321.111-.474.197-.152.081-.278.191-.378.33-.096.138-.144.31-.144.516 0 .167.041.329.123.485.085.156.22.286.405.389.188.103.436.154.745.154Zm7.1.517c-.323.067-.642.094-.958.079-.313-.014-.593-.081-.842-.202-.245-.121-.431-.309-.559-.564-.103-.213-.16-.428-.17-.645-.007-.22-.011-.47-.011-.75v-5.267h.778v5.235c0 .241.001.443.005.607.007.159.044.301.112.426.127.237.33.379.607.426.28.046.626.035 1.038-.032v.687Zm-3.77-5.08v-.671h3.77v.671h-3.77Zm4.797-1.763v-.879h.782v.879h-.782Zm0 6.843v-5.751h.782v5.751h-.782Zm4.567.159c-.571 0-1.059-.129-1.464-.388-.405-.26-.715-.618-.932-1.076-.216-.458-.325-.983-.325-1.576 0-.604.11-1.133.33-1.587.221-.454.533-.808.938-1.06.408-.255.893-.383 1.453-.383.576 0 1.065.129 1.47.389.408.255.719.612.932 1.07.217.454.325.978.325 1.571 0 .603-.108 1.134-.325 1.592-.217.454-.529.809-.937 1.065-.408.256-.897.383-1.465.383Zm0-.75c.639 0 1.115-.212 1.428-.634.312-.426.468-.978.468-1.656 0-.696-.158-1.25-.474-1.662-.312-.411-.786-.617-1.422-.617-.429 0-.784.097-1.065.293-.276.191-.484.459-.623.804-.135.34-.202.734-.202 1.182 0 .692.16 1.248.479 1.666.32.416.79.624 1.411.624Zm7.842.591v-2.934c0-.32-.03-.613-.091-.879-.06-.27-.158-.504-.292-.703-.132-.202-.304-.359-.517-.469-.209-.11-.465-.165-.767-.165-.277 0-.522.048-.735.144-.209.096-.387.234-.532.415-.142.178-.25.394-.325.65-.074.256-.112.547-.112.873l-.554-.122c0-.589.103-1.085.309-1.486.206-.401.49-.704.852-.91.362-.206.778-.309 1.246-.309.345 0 .645.053.9.16.259.106.478.25.655.431.181.181.327.389.437.623.11.231.19.477.24.74.049.259.074.518.074.778v3.163h-.788Zm-4.159 0v-5.751h.708v1.416h.08v4.335h-.788Z"/>
  <rect width="375.793" height="147.579" x="292.104" y="176.485" stroke="#0F9" stroke-dasharray="6.09 6.09" stroke-width="1.5214" rx="7.6071"/>
  <circle cx="3.0429" cy="3.0429" r="3.0429" fill="#DEDEDE" transform="matrix(0 -1 -1 0 742.446 458.711)"/>
  <circle cx="3.0429" cy="3.0429" r="3.0429" fill="#DEDEDE" transform="matrix(0 -1 -1 0 742.446 329.389)"/>
  <circle cx="3.0429" cy="3.0429" r="3.0429" fill="#DEDEDE" transform="matrix(0 -1 -1 0 742.446 204.632)"/>
  <circle cx="3.0429" cy="3.0429" r="3.0429" fill="#DEDEDE" transform="matrix(0 -1 -1 0 742.446 73.7891)"/>
  <path stroke="#DEDEDE" stroke-width="1.5214" d="M96.5 44h149.191c4.202 0 7.608 3.4058 7.608 7.6071V222.393c0 4.201 3.405 7.607 7.607 7.607h31.095"/>
  <path stroke="#DEDEDE" stroke-width="1.5214" d="M150.5 44h95.191c4.201 0 7.607 3.4058 7.607 7.6071V222.393c0 4.201 3.406 7.607 7.607 7.607H292"/>
  <path stroke="#DEDEDE" stroke-width="1.5214" d="M43.5 144h202.124c4.202 0 7.608 3.406 7.608 7.607v70.786c0 4.201 3.405 7.607 7.607 7.607H292"/>
  <path stroke="#DEDEDE" stroke-width="1.5214" d="M204 44h41.691c4.201 0 7.607 3.4058 7.607 7.6071V222.393c0 4.201 3.406 7.607 7.607 7.607H292"/>
  <path stroke="#DEDEDE" stroke-width="1.5214" d="M97 144h148.624c4.202 0 7.608 3.406 7.608 7.607v70.786c0 4.201 3.405 7.607 7.607 7.607H292"/>
  <path stroke="#DEDEDE" stroke-width="1.5214" d="M150 144h95.554c4.201 0 7.607 3.406 7.607 7.607v70.786c0 4.201 3.406 7.607 7.607 7.607H292"/>
  <path stroke="#DEDEDE" stroke-width="1.5214" d="M204 144h41.691c4.201 0 7.607 3.406 7.607 7.607v70.786c0 4.201 3.406 7.607 7.607 7.607H292M739.403 70.7461H714.3c-4.202 0-7.607 3.4058-7.607 7.6071V222.128c0 4.202-3.406 7.607-7.608 7.607h-31.189"/>
  <path stroke="#DEDEDE" stroke-width="1.5214" d="M96 198h138.451c4.202 0 7.607 3.406 7.607 7.607v28.786c0 4.201 3.406 7.607 7.608 7.607h42.335"/>
  <path stroke="#DEDEDE" stroke-width="1.5214" d="M149 198h85.451c4.201 0 7.607 3.406 7.607 7.607v28.786c0 4.201 3.406 7.607 7.607 7.607H292"/>
  <path stroke="#DEDEDE" stroke-width="1.5214" d="M203 198h31.451c4.201 0 7.607 3.406 7.607 7.607v28.786c0 4.201 3.406 7.607 7.607 7.607H292m447.403-40.411h-13.931c-4.201 0-7.607 3.406-7.607 7.607V234.3c0 4.201-3.406 7.607-7.607 7.607h-42.362M96.5 455.668h149.201c4.201 0 7.607-3.406 7.607-7.607V276.139c0-4.201 3.406-7.607 7.607-7.607h31.189"/>
  <path stroke="#DEDEDE" stroke-width="1.5214" d="M150.5 455.668h95.2c4.202 0 7.608-3.406 7.608-7.607V276.139c0-4.201 3.405-7.607 7.607-7.607h31.189"/>
  <path stroke="#DEDEDE" stroke-width="1.5214" d="M204 455.668h41.7c4.202 0 7.608-3.406 7.608-7.607V276.139c0-4.201 3.405-7.607 7.607-7.607h31.189m447.299 187.136H714.3c-4.202 0-7.607-3.406-7.607-7.607V276.139c0-4.201-3.406-7.607-7.608-7.607h-31.189"/>
  <path stroke="#DEDEDE" stroke-width="1.5214" d="M96 303.333h138.546c4.201 0 7.607-3.405 7.607-7.607v-34.119c0-4.201 3.406-7.607 7.607-7.607h42.241"/>
  <path stroke="#DEDEDE" stroke-width="1.5214" d="M150.5 303.333h84.046c4.201 0 7.607-3.405 7.607-7.607v-34.119c0-4.201 3.406-7.607 7.607-7.607H292"/>
  <path stroke="#DEDEDE" stroke-width="1.5214" d="M204 303.333h30.546c4.201 0 7.607-3.405 7.607-7.607v-34.119c0-4.201 3.406-7.607 7.607-7.607H292"/>
  <path stroke="#DEDEDE" stroke-width="1.5214" d="M97 403h137.46c4.201 0 7.607-3.406 7.607-7.607V261.607c0-4.201 3.406-7.607 7.607-7.607H292"/>
  <path stroke="#DEDEDE" stroke-width="1.5214" d="M151 403h83.722c4.201 0 7.607-3.406 7.607-7.607V261.607c0-4.201 3.406-7.607 7.607-7.607H292"/>
  <path stroke="#DEDEDE" stroke-width="1.5214" d="M204 403h30.545c4.202 0 7.608-3.406 7.608-7.607V261.607c0-4.201 3.405-7.607 7.607-7.607H292m447.403 72.346h-13.931c-4.201 0-7.607-3.406-7.607-7.607v-57.054c0-4.201-3.406-7.607-7.607-7.607h-42.362"/>
  <rect width="43.3333" height="43.3333" x=".334" y="123" fill="#0C4A3F" rx="7.6071"/>
  <path fill="url(#pattern1)" d="M4.334 129h35.3333v32H4.334z"/>
  <rect width="43.3333" height="43.3333" y="176" fill="#0C4A3F" rx="7.6071"/>
  <path fill="url(#pattern2)" d="M11.334 184.667h22.6667v26H11.334z"/>
  <rect width="43.3333" height="43.3333" y="281" fill="#0C4A3F" rx="7.6071"/>
  <path fill="url(#pattern3)" d="M9 290h26v26H9z"/>
  <rect width="43.3333" height="43.3333" y="22" fill="#0C4A3F" rx="7.6071"/>
  <path fill="url(#pattern4)" d="M6.666 35.333h29.3333v16.6667H6.666z"/>
  <rect width="43.3333" height="43.3333" x="53" y="176" fill="#0C4A3F" rx="7.6071"/>
  <path fill="url(#pattern5)" d="M63 184.667h23.3333v26H63z"/>
  <rect width="43.3333" height="43.3333" x="53" y="281" fill="#0C4A3F" rx="7.6071"/>
  <path fill="url(#pattern6)" d="M59 287h32v31H59z"/>
  <rect width="43.3333" height="43.3333" x="53.334" y="22" fill="#0C4A3F" rx="7.6071"/>
  <path fill="url(#pattern7)" d="M62.667 32h24.6667v23.3333H62.667z"/>
  <rect width="43.3333" height="43.3333" x="160" y="176" fill="#0C4A3F" rx="7.6071"/>
  <path fill="url(#pattern8)" d="M171 187h22v22h-22z"/>
  <rect width="43.3333" height="43.3333" x="160" y="281" fill="#0C4A3F" rx="7.6071"/>
  <path fill="url(#pattern9)" d="M169 290h26v26h-26z"/>
  <rect width="43.3333" height="43.3333" x="106" y="176" fill="#0C4A3F" rx="7.6071"/>
  <path fill="url(#pattern10)" d="M116 186h23.5821v23.5821H116z"/>
  <rect width="43.3333" height="43.3333" x="106" y="281" fill="#0C4A3F" rx="7.6071"/>
  <path fill="url(#pattern11)" d="M109 284h37v37h-37z"/>
  <rect width="43.3333" height="43.3333" x="106.666" y="22" fill="#0C4A3F" rx="7.6071"/>
  <path fill="url(#pattern12)" d="M115.333 32.6665h26.6667v21.3333H115.333z"/>
  <rect width="43.3333" height="43.3333" x="160" y="22" fill="#0C4A3F" rx="7.6071"/>
  <path fill="url(#pattern13)" d="M167 29h30v30h-30z"/>
  <rect width="43.3333" height="43.3333" x="53" y="123" fill="#0C4A3F" rx="7.6071"/>
  <path fill="url(#pattern14)" d="M63.666 133h24v26.6667h-24z"/>
  <rect width="43.3333" height="43.3333" x="106" y="123" fill="#0C4A3F" rx="7.6071"/>
  <path fill="url(#pattern15)" d="M117 133h22v24h-22z"/>
  <rect width="43.3333" height="43.3333" x="160" y="123" fill="#0C4A3F" rx="7.6071"/>
  <path fill="url(#pattern16)" d="M174 129.667h16v30h-16z"/>
  <rect width="89.7643" height="89.7643" x="321.011" y="205.392" fill="#0C4A3F" rx="7.6071"/>
  <path fill="url(#pattern17)" d="M321.011 226.693h89.7643v47.1643H321.011z"/>
  <rect width="89.7643" height="89.7643" x="549.225" y="205.392" fill="#0C4A3F" rx="7.6071"/>
  <path fill="url(#pattern18)" d="M568.243 225.932h51.7286v47.925H568.243z"/>
  <rect width="43.3333" height="43.3333" y="381" fill="#0C4A3F" rx="7.6071"/>
  <path fill="url(#pattern19)" d="M9.334 390.333h24v24.6667h-24z"/>
  <rect width="43.3333" height="43.3333" y="434.333" fill="#0C4A3F" rx="7.6071"/>
  <path fill="url(#pattern20)" d="M8 447h28v18H8z"/>
  <rect width="43.3333" height="43.3333" x="160" y="381" fill="#0C4A3F" rx="7.6071"/>
  <path fill="url(#pattern21)" d="M170 391h24v24h-24z"/>
  <rect width="43.3333" height="43.3333" x="53.334" y="434.333" fill="#0C4A3F" rx="7.6071"/>
  <path fill="url(#pattern22)" d="M58 441h34v30H58z"/>
  <rect width="43.3333" height="43.3333" x="106.666" y="434.333" fill="#0C4A3F" rx="7.6071"/>
  <path fill="url(#pattern23)" d="M109 439h39v34h-39z"/>
  <rect width="43.3333" height="43.3333" x="160" y="434.333" fill="#0C4A3F" rx="7.6071"/>
  <path fill="url(#pattern24)" d="M170 444h24v24h-24z"/>
  <rect width="43.3333" height="43.3333" x="53.666" y="381.333" fill="#0C4A3F" rx="7.6071"/>
  <path fill="url(#pattern25)" d="M58.333 386h34v34h-34z"/>
  <path fill="url(#pattern26)" d="M58.333 386h34v34h-34z"/>
  <rect width="43.3333" height="43.3333" x="106.334" y="381.333" fill="#0C4A3F" rx="7.6071"/>
  <path fill="url(#pattern27)" d="M121 388.667h14v28.6667h-14z"/>
  <path fill="#fff" d="M1.7455 371v-7.668h2.327c.0817 0 .2201.002.4154.005.1988.004.3887.018.5697.043.5823.082 1.0686.298 1.4591.65.3905.351.6834.798.8786 1.341.1953.544.2929 1.142.2929 1.795s-.0976 1.251-.2929 1.795c-.1952.543-.4881.99-.8786 1.341-.3905.352-.8769.568-1.459.65a6.8713 6.8713 0 0 1-.5698.043 37.263 37.263 0 0 1-.4154.005h-2.327Zm.8094-.751h1.5176c.1456 0 .3018-.003.4686-.01.1704-.011.316-.029.4367-.054.4473-.078.8076-.259 1.081-.543.2769-.284.4792-.639.607-1.065.1278-.429.1917-.9.1917-1.411 0-.515-.0639-.987-.1917-1.416-.1278-.43-.3301-.785-.607-1.065-.277-.281-.6373-.46-1.081-.538-.1207-.025-.268-.041-.442-.048a7.2238 7.2238 0 0 0-.4633-.016H2.555v6.166Zm7.7785.911c-.4331 0-.797-.078-1.0916-.235-.2911-.156-.5095-.363-.655-.623-.1456-.259-.2183-.541-.2183-.846 0-.313.062-.579.1863-.799.1278-.224.3-.406.5166-.548.22-.142.4739-.251.7614-.325.2911-.071.6124-.133.9639-.187.355-.056.7011-.104 1.0383-.143.3408-.043.639-.084.8946-.123l-.2769.17c.0107-.568-.0994-.988-.3301-1.262-.2308-.273-.6319-.41-1.2035-.41-.394 0-.7277.089-1.001.267-.2699.177-.4598.458-.5698.841l-.7615-.224c.1313-.514.3958-.914.7934-1.198.3976-.284.9141-.426 1.5496-.426.5254 0 .9709.1 1.3366.298.3692.196.6301.48.7827.852.071.167.1172.354.1385.56.0213.205.0319.415.0319.628V371h-.6975v-1.443l.2023.085c-.1952.494-.4988.87-.9106 1.129-.4118.259-.9052.389-1.4803.389Zm.0905-.677c.3657 0 .6852-.065.9585-.197.2734-.131.4935-.31.6603-.537.1669-.231.2751-.49.3248-.778.0426-.184.0657-.387.0693-.607.0035-.224.0053-.39.0053-.5l.2982.154c-.2663.036-.5556.071-.868.106-.3088.036-.6141.077-.9159.123-.2982.046-.568.101-.8094.165a2.1973 2.1973 0 0 0-.474.197 1.1017 1.1017 0 0 0-.378.33c-.0958.139-.1438.311-.1438.517 0 .167.0409.328.1225.484.0852.157.2201.286.4047.389.1882.103.4367.154.7455.154Zm7.1.517c-.3231.067-.6426.094-.9585.08-.3124-.014-.5929-.082-.8414-.202-.2449-.121-.4313-.309-.5591-.565-.1029-.213-.1597-.428-.1704-.644a23.581 23.581 0 0 1-.0106-.751v-5.267h.7774v5.235c0 .241.0018.444.0053.607.0071.16.0444.302.1119.426.1278.238.3301.38.607.426.2805.046.6266.036 1.0384-.032V371Zm-3.7701-5.08v-.671h3.7701v.671h-3.7701Zm6.3356 5.24c-.4331 0-.797-.078-1.0916-.235-.2911-.156-.5095-.363-.655-.623-.1456-.259-.2183-.541-.2183-.846 0-.313.0621-.579.1863-.799.1278-.224.3-.406.5166-.548.2201-.142.4739-.251.7614-.325.2911-.071.6124-.133.9639-.187.355-.056.7011-.104 1.0383-.143.3408-.043.639-.084.8946-.123l-.2769.17c.0107-.568-.0994-.988-.3301-1.262-.2308-.273-.6319-.41-1.2035-.41-.394 0-.7277.089-1.0011.267-.2698.177-.4597.458-.5697.841l-.7615-.224c.1313-.514.3958-.914.7934-1.198.3976-.284.9141-.426 1.5496-.426.5254 0 .9709.1 1.3366.298.3692.196.6301.48.7827.852.071.167.1172.354.1385.56.0213.205.0319.415.0319.628V371h-.6975v-1.443l.2023.085c-.1952.494-.4988.87-.9106 1.129-.4118.259-.9052.389-1.4803.389Zm.0905-.677c.3657 0 .6852-.065.9585-.197.2734-.131.4935-.31.6603-.537.1669-.231.2751-.49.3248-.778.0426-.184.0657-.387.0693-.607.0035-.224.0053-.39.0053-.5l.2982.154c-.2663.036-.5556.071-.868.106-.3088.036-.6141.077-.9159.123-.2982.046-.568.101-.8094.165a2.1958 2.1958 0 0 0-.4739.197 1.1014 1.1014 0 0 0-.3781.33c-.0958.139-.1438.311-.1438.517 0 .167.0409.328.1225.484.0852.157.2201.286.4047.389.1882.103.4367.154.7455.154Zm6.5515.677c-.529 0-.9763-.133-1.3419-.4-.3657-.269-.6426-.633-.8307-1.091-.1882-.462-.2822-.978-.2822-1.55 0-.582.094-1.1.2822-1.555.1917-.458.4721-.818.8413-1.081.3692-.262.8236-.394 1.3632-.394.5254 0 .9763.133 1.3526.4.3763.266.6638.628.8626 1.086.2024.458.3036.973.3036 1.544 0 .575-.1012 1.092-.3036 1.55-.2023.458-.4934.822-.8733 1.091-.3798.267-.8378.4-1.3738.4Zm-2.588-.16v-7.668h.7881v3.339h-.0852V371h-.7029Zm2.5081-.57c.4012 0 .7349-.101 1.0011-.303.2663-.203.4651-.478.5964-.826.1349-.351.2024-.745.2024-1.182 0-.433-.0657-.823-.1971-1.171-.1313-.348-.3319-.623-.6017-.826-.2662-.202-.6053-.303-1.0171-.303-.4011 0-.7348.097-1.0011.293-.2627.195-.4597.466-.591.814-.1314.345-.1971.742-.1971 1.193 0 .444.0657.842.1971 1.193.1313.348.3301.621.5964.82.2662.199.6035.298 1.0117.298Zm5.2323.73c-.4331 0-.7969-.078-1.0916-.235-.2911-.156-.5094-.363-.655-.623-.1455-.259-.2183-.541-.2183-.846 0-.313.0621-.579.1864-.799.1278-.224.3-.406.5165-.548.2201-.142.4739-.251.7615-.325.2911-.071.6124-.133.9638-.187.355-.056.7011-.104 1.0384-.143.3408-.043.639-.084.8946-.123l-.2769.17c.0106-.568-.0994-.988-.3302-1.262-.2307-.273-.6319-.41-1.2034-.41-.3941 0-.7278.089-1.0011.267-.2698.177-.4597.458-.5698.841l-.7615-.224c.1314-.514.3959-.914.7935-1.198.3976-.284.9141-.426 1.5495-.426.5254 0 .971.1 1.3366.298.3692.196.6301.48.7828.852.071.167.1171.354.1384.56.0213.205.032.415.032.628V371h-.6976v-1.443l.2024.085c-.1953.494-.4988.87-.9106 1.129-.4118.259-.9053.389-1.4804.389Zm.0906-.677c.3656 0 .6851-.065.9585-.197.2733-.131.4934-.31.6603-.537.1668-.231.2751-.49.3248-.778.0426-.184.0657-.387.0692-.607.0036-.224.0053-.39.0053-.5l.2982.154c-.2662.036-.5555.071-.8679.106-.3089.036-.6142.077-.9159.123-.2982.046-.568.101-.8094.165a2.1986 2.1986 0 0 0-.474.197 1.102 1.102 0 0 0-.378.33c-.0959.139-.1438.311-.1438.517 0 .167.0408.328.1225.484.0852.157.2201.286.4047.389.1881.103.4366.154.7455.154Zm6.1148.671c-.6745 0-1.2301-.145-1.6667-.436-.4331-.291-.6994-.696-.7988-1.214l.7988-.133c.0852.326.2787.587.5804.782.3053.192.6816.288 1.1289.288.4367 0 .781-.091 1.0331-.272.252-.184.378-.435.378-.751 0-.177-.0408-.321-.1224-.431-.0781-.113-.2397-.218-.4846-.314-.245-.096-.6106-.209-1.097-.341-.5218-.142-.9301-.284-1.2247-.426-.2947-.142-.5041-.305-.6284-.49-.1242-.188-.1863-.417-.1863-.687 0-.326.0923-.612.2769-.857.1846-.248.4402-.44.7668-.575.3266-.139.7064-.208 1.1395-.208.4331 0 .8201.071 1.1609.213.3443.139.6212.334.8307.586.2094.252.3337.545.3727.879l-.7987.143c-.0533-.337-.2219-.603-.5059-.798-.2805-.199-.6372-.302-1.0703-.309-.4083-.011-.7402.067-.9958.234-.2556.163-.3834.382-.3834.655 0 .153.0461.284.1384.394.0923.107.2592.208.5006.304.2449.095.5928.2 1.0437.314.5289.135.9443.277 1.246.426.3018.149.5166.325.6444.527.1278.202.1917.453.1917.751 0 .543-.2024.971-.6071 1.283-.4011.309-.9549.463-1.6614.463Zm5.67.006c-.5609 0-1.0473-.125-1.4591-.373-.4082-.249-.726-.598-.9532-1.049-.2272-.451-.3408-.98-.3408-1.587 0-.628.1119-1.171.3355-1.629.2237-.458.5378-.812.9425-1.06.4083-.248.8893-.373 1.4431-.373.568 0 1.0526.132 1.4537.394.4012.259.7047.632.9106 1.119.2059.486.3 1.066.2822 1.741h-.7987v-.277c-.0142-.746-.1757-1.308-.4846-1.688-.3053-.38-.7526-.57-1.3419-.57-.6177 0-1.0916.201-1.4218.602-.3266.401-.4899.973-.4899 1.714 0 .725.1633 1.287.4899 1.689.3302.397.797.596 1.4005.596.4118 0 .7704-.094 1.0757-.282.3088-.192.552-.467.7295-.826l.7295.283c-.2272.5-.5627.889-1.0064 1.166-.4402.273-.939.41-1.4963.41Zm-2.1993-2.817v-.655h4.3932v.655h-4.3932Zm7.9285 2.811c-.6745 0-1.23-.145-1.6667-.436-.4331-.291-.6993-.696-.7987-1.214l.7987-.133c.0852.326.2787.587.5804.782.3053.192.6816.288 1.1289.288.4367 0 .781-.091 1.0331-.272.252-.184.3781-.435.3781-.751 0-.177-.0409-.321-.1225-.431-.0781-.113-.2396-.218-.4846-.314-.2449-.096-.6106-.209-1.0969-.341-.5219-.142-.9301-.284-1.2248-.426-.2946-.142-.5041-.305-.6283-.49-.1243-.188-.1864-.417-.1864-.687 0-.326.0923-.612.2769-.857.1846-.248.4402-.44.7668-.575.3266-.139.7064-.208 1.1395-.208.4331 0 .8201.071 1.1609.213.3443.139.6212.334.8307.586.2094.252.3337.545.3727.879l-.7987.143c-.0533-.337-.2219-.603-.5059-.798-.2804-.199-.6372-.302-1.0703-.309-.4083-.011-.7402.067-.9958.234-.2556.163-.3834.382-.3834.655 0 .153.0462.284.1385.394.0923.107.2591.208.5005.304.245.095.5929.2 1.0437.314.529.135.9443.277 1.2461.426.3017.149.5165.325.6443.527.1278.202.1917.453.1917.751 0 .543-.2024.971-.6071 1.283-.4011.309-.9549.463-1.6614.463Z"/>
  <rect width="158.989" height="89.7643" x="747.011" y="22.8208" fill="#0C4A3F" rx="7.6071"/>
  <path fill="#fff" d="M789.267 62V49.04h4.131c.108 0 .321.003.639.009.324.006.636.027.936.063 1.026.132 1.893.498 2.601 1.098.714.594 1.254 1.353 1.62 2.277.366.924.549 1.935.549 3.033 0 1.098-.183 2.109-.549 3.033-.366.924-.906 1.686-1.62 2.286-.708.594-1.575.957-2.601 1.089a9.004 9.004 0 0 1-.927.063c-.324.006-.54.009-.648.009h-4.131Zm2.205-2.043h1.926c.18 0 .408-.006.684-.018.282-.012.531-.039.747-.081.612-.114 1.11-.387 1.494-.819.384-.432.666-.957.846-1.575.186-.618.279-1.266.279-1.944 0-.702-.093-1.362-.279-1.98-.186-.618-.474-1.137-.864-1.557-.384-.42-.876-.687-1.476-.801-.216-.048-.465-.075-.747-.081-.276-.012-.504-.018-.684-.018h-1.926v8.874Zm11.317 6.363 1.872-5.139.036 1.512-4.239-10.413h2.259l3.006 7.704h-.576l2.925-7.704h2.169l-5.418 14.04h-2.034ZM817.946 62v-4.68c0-.306-.021-.645-.063-1.017a3.5153 3.5153 0 0 0-.297-1.071c-.15-.348-.378-.633-.684-.855-.3-.222-.708-.333-1.224-.333-.276 0-.549.045-.819.135-.27.09-.516.246-.738.468-.216.216-.39.516-.522.9-.132.378-.198.864-.198 1.458l-1.287-.549c0-.828.159-1.578.477-2.25.324-.672.798-1.206 1.422-1.602.624-.402 1.392-.603 2.304-.603.72 0 1.314.12 1.782.36.468.24.84.546 1.116.918.276.372.48.768.612 1.188.132.42.216.819.252 1.197.042.372.063.675.063.909V62h-2.196Zm-6.741 0v-9.72h1.935v3.015h.261V62h-2.196Zm13.643.27c-.702 0-1.296-.132-1.782-.396-.486-.27-.855-.627-1.107-1.071-.246-.444-.369-.933-.369-1.467 0-.468.078-.888.234-1.26.156-.378.396-.702.72-.972.324-.276.744-.501 1.26-.675.39-.126.846-.24 1.368-.342.528-.102 1.098-.195 1.71-.279.618-.09 1.263-.186 1.935-.288l-.774.441c.006-.672-.144-1.167-.45-1.485-.306-.318-.822-.477-1.548-.477-.438 0-.861.102-1.269.306-.408.204-.693.555-.855 1.053l-1.98-.621c.24-.822.696-1.482 1.368-1.98.678-.498 1.59-.747 2.736-.747.864 0 1.623.141 2.277.423.66.282 1.149.744 1.467 1.386.174.342.279.693.315 1.053.036.354.054.741.054 1.161V62h-1.899v-2.106l.315.342c-.438.702-.951 1.218-1.539 1.548-.582.324-1.311.486-2.187.486Zm.432-1.728c.492 0 .912-.087 1.26-.261.348-.174.624-.387.828-.639.21-.252.351-.489.423-.711.114-.276.177-.591.189-.945.018-.36.027-.651.027-.873l.666.198c-.654.102-1.215.192-1.683.27-.468.078-.87.153-1.206.225-.336.066-.633.141-.891.225-.252.09-.465.195-.639.315s-.309.258-.405.414c-.09.156-.135.339-.135.549 0 .24.06.453.18.639.12.18.294.324.522.432.234.108.522.162.864.162ZM843.815 62v-5.904c0-.666-.165-1.185-.495-1.557-.33-.378-.777-.567-1.341-.567-.348 0-.66.081-.936.243-.276.156-.495.39-.657.702-.162.306-.243.672-.243 1.098l-.963-.567c-.006-.672.144-1.263.45-1.773.312-.516.732-.918 1.26-1.206.528-.288 1.116-.432 1.764-.432 1.074 0 1.896.324 2.466.972.576.642.864 1.488.864 2.538V62h-2.169Zm-11.691 0v-9.72h1.917v3.015h.27V62h-2.187Zm5.859 0v-5.877c0-.678-.165-1.206-.495-1.584-.33-.378-.78-.567-1.35-.567-.552 0-.996.189-1.332.567-.33.378-.495.87-.495 1.476l-.972-.648c0-.63.156-1.197.468-1.701.312-.504.732-.9 1.26-1.188.534-.294 1.131-.441 1.791-.441.726 0 1.332.156 1.818.468.492.306.858.726 1.098 1.26.246.528.369 1.125.369 1.791V62h-2.16Zm10.168-11.196v-1.989h2.169v1.989h-2.169Zm0 11.196v-9.72h2.169V62h-2.169Zm8.726.27c-1.002 0-1.857-.222-2.565-.666-.708-.45-1.251-1.062-1.629-1.836-.372-.774-.561-1.65-.567-2.628.006-.996.201-1.878.585-2.646.39-.774.942-1.38 1.656-1.818.714-.444 1.563-.666 2.547-.666 1.104 0 2.037.279 2.799.837.768.552 1.269 1.308 1.503 2.268l-2.16.585c-.168-.522-.447-.927-.837-1.215-.39-.294-.834-.441-1.332-.441-.564 0-1.029.135-1.395.405-.366.264-.636.63-.81 1.098-.174.468-.261.999-.261 1.593 0 .924.207 1.671.621 2.241.414.57 1.029.855 1.845.855.576 0 1.029-.132 1.359-.396.336-.264.588-.645.756-1.143l2.214.495c-.3.99-.825 1.752-1.575 2.286-.75.528-1.668.792-2.754.792ZM776.665 87l-4.086-12.96h2.232l3.42 10.854 3.465-10.854h2.232L779.842 87h-3.177Zm8.084-11.196v-1.989h2.169v1.989h-2.169Zm0 11.196v-9.72h2.169V87h-2.169Zm8.258.27c-1.2 0-2.175-.27-2.925-.81s-1.206-1.299-1.368-2.277l2.214-.342c.114.48.366.858.756 1.134.39.276.882.414 1.476.414.522 0 .924-.102 1.206-.306.288-.21.432-.495.432-.855 0-.222-.054-.399-.162-.531-.102-.138-.33-.27-.684-.396-.354-.126-.897-.285-1.629-.477-.816-.216-1.464-.447-1.944-.693-.48-.252-.825-.549-1.035-.891-.21-.342-.315-.756-.315-1.242 0-.606.159-1.134.477-1.584.318-.45.762-.795 1.332-1.035.57-.246 1.242-.369 2.016-.369.756 0 1.425.117 2.007.351.588.234 1.062.567 1.422.999.36.432.582.939.666 1.521l-2.214.396c-.054-.414-.243-.741-.567-.981-.318-.24-.744-.375-1.278-.405-.51-.03-.921.048-1.233.234-.312.18-.468.435-.468.765 0 .186.063.345.189.477s.378.264.756.396c.384.132.954.294 1.71.486.774.198 1.392.426 1.854.684.468.252.804.555 1.008.909.21.354.315.783.315 1.287 0 .978-.357 1.746-1.071 2.304-.708.558-1.689.837-2.943.837Zm9.27.009c-.72 0-1.314-.12-1.782-.36-.468-.24-.84-.546-1.116-.918-.276-.372-.48-.768-.612-1.188-.132-.42-.219-.816-.261-1.188-.036-.378-.054-.684-.054-.918V77.28h2.196v4.68c0 .3.021.639.063 1.017.042.372.138.732.288 1.08.156.342.384.624.684.846.306.222.717.333 1.233.333.276 0 .549-.045.819-.135.27-.09.513-.243.729-.459.222-.222.399-.525.531-.909s.198-.87.198-1.458l1.287.549c0 .828-.162 1.578-.486 2.25-.318.672-.789 1.209-1.413 1.611-.624.396-1.392.594-2.304.594Zm3.177-.279v-3.015h-.261V77.28h2.178V87h-1.917Zm6.804.27c-.702 0-1.296-.132-1.782-.396-.486-.27-.855-.627-1.107-1.071-.246-.444-.369-.933-.369-1.467 0-.468.078-.888.234-1.26.156-.378.396-.702.72-.972.324-.276.744-.501 1.26-.675.39-.126.846-.24 1.368-.342.528-.102 1.098-.195 1.71-.279.618-.09 1.263-.186 1.935-.288l-.774.441c.006-.672-.144-1.167-.45-1.485-.306-.318-.822-.477-1.548-.477-.438 0-.861.102-1.269.306-.408.204-.693.555-.855 1.053l-1.98-.621c.24-.822.696-1.482 1.368-1.98.678-.498 1.59-.747 2.736-.747.864 0 1.623.141 2.277.423.66.282 1.149.744 1.467 1.386.174.342.279.693.315 1.053.036.354.054.741.054 1.161V87h-1.899v-2.106l.315.342c-.438.702-.951 1.218-1.539 1.548-.582.324-1.311.486-2.187.486Zm.432-1.728c.492 0 .912-.087 1.26-.261.348-.174.624-.387.828-.639.21-.252.351-.489.423-.711.114-.276.177-.591.189-.945.018-.36.027-.651.027-.873l.666.198c-.654.102-1.215.192-1.683.27-.468.078-.87.153-1.206.225-.336.066-.633.141-.891.225-.252.09-.465.195-.639.315s-.309.258-.405.414c-.09.156-.135.339-.135.549 0 .24.06.453.18.639.12.18.294.324.522.432.234.108.522.162.864.162ZM819.731 87V73.77h2.169V87h-2.169Zm4.685-11.196v-1.989h2.169v1.989h-2.169Zm0 11.196v-9.72h2.169V87h-2.169Zm3.605 0v-.297l5.148-7.524h-4.626V77.28h8.001v.306l-5.13 7.515h4.914V87h-8.307Zm12.31.27c-.702 0-1.296-.132-1.782-.396-.486-.27-.855-.627-1.107-1.071-.246-.444-.369-.933-.369-1.467 0-.468.078-.888.234-1.26.156-.378.396-.702.72-.972.324-.276.744-.501 1.26-.675.39-.126.846-.24 1.368-.342.528-.102 1.098-.195 1.71-.279.618-.09 1.263-.186 1.935-.288l-.774.441c.006-.672-.144-1.167-.45-1.485-.306-.318-.822-.477-1.548-.477-.438 0-.861.102-1.269.306-.408.204-.693.555-.855 1.053l-1.98-.621c.24-.822.696-1.482 1.368-1.98.678-.498 1.59-.747 2.736-.747.864 0 1.623.141 2.277.423.66.282 1.149.744 1.467 1.386.174.342.279.693.315 1.053.036.354.054.741.054 1.161V87h-1.899v-2.106l.315.342c-.438.702-.951 1.218-1.539 1.548-.582.324-1.311.486-2.187.486Zm.432-1.728c.492 0 .912-.087 1.26-.261.348-.174.624-.387.828-.639.21-.252.351-.489.423-.711.114-.276.177-.591.189-.945.018-.36.027-.651.027-.873l.666.198c-.654.102-1.215.192-1.683.27-.468.078-.87.153-1.206.225-.336.066-.633.141-.891.225-.252.09-.465.195-.639.315s-.309.258-.405.414c-.09.156-.135.339-.135.549 0 .24.06.453.18.639.12.18.294.324.522.432.234.108.522.162.864.162ZM853.321 87c-.642.12-1.272.171-1.89.153-.612-.012-1.161-.123-1.647-.333-.486-.216-.855-.555-1.107-1.017-.222-.42-.339-.849-.351-1.287-.012-.438-.018-.933-.018-1.485V74.58h2.16v8.325c0 .39.003.732.009 1.026.012.294.075.534.189.72.216.36.561.561 1.035.603.474.042 1.014.018 1.62-.072V87Zm-6.777-8.019V77.28h6.777v1.701h-6.777Zm8.687-3.177v-1.989h2.169v1.989h-2.169Zm0 11.196v-9.72h2.169V87h-2.169Zm8.798.27c-.972 0-1.821-.219-2.547-.657-.726-.438-1.29-1.041-1.692-1.809-.396-.774-.594-1.662-.594-2.664 0-1.02.204-1.914.612-2.682.408-.768.975-1.368 1.701-1.8.726-.432 1.566-.648 2.52-.648.978 0 1.83.219 2.556.657.726.438 1.29 1.044 1.692 1.818.402.768.603 1.653.603 2.655 0 1.008-.204 1.899-.612 2.673-.402.768-.966 1.371-1.692 1.809-.726.432-1.575.648-2.547.648Zm0-2.034c.864 0 1.506-.288 1.926-.864.42-.576.63-1.32.63-2.232 0-.942-.213-1.692-.639-2.25-.426-.564-1.065-.846-1.917-.846-.582 0-1.062.132-1.44.396-.372.258-.648.621-.828 1.089-.18.462-.27.999-.27 1.611 0 .942.213 1.695.639 2.259.432.558 1.065.837 1.899.837ZM877.226 87v-4.68c0-.306-.021-.645-.063-1.017a3.5153 3.5153 0 0 0-.297-1.071c-.15-.348-.378-.633-.684-.855-.3-.222-.708-.333-1.224-.333-.276 0-.549.045-.819.135-.27.09-.516.246-.738.468-.216.216-.39.516-.522.9-.132.378-.198.864-.198 1.458l-1.287-.549c0-.828.159-1.578.477-2.25.324-.672.798-1.206 1.422-1.602.624-.402 1.392-.603 2.304-.603.72 0 1.314.12 1.782.36.468.24.84.546 1.116.918.276.372.48.768.612 1.188.132.42.216.819.252 1.197.042.372.063.675.063.909V87h-2.196Zm-6.741 0v-9.72h1.935v3.015h.261V87h-2.196Z"/>
  <rect width="158.989" height="89.7643" x="747.011" y="152" fill="#0C4A3F" rx="7.6071"/>
  <path fill="#fff" d="m807.735 203 4.086-12.96h3.177l4.086 12.96h-2.232l-3.708-11.628h.486L809.967 203h-2.232Zm2.277-2.808v-2.025h6.804v2.025h-6.804ZM820.351 203v-12.96h5.355c.126 0 .288.006.486.018.198.006.381.024.549.054.75.114 1.368.363 1.854.747.492.384.855.87 1.089 1.458.24.582.36 1.23.36 1.944 0 .708-.12 1.356-.36 1.944-.24.582-.606 1.065-1.098 1.449-.486.384-1.101.633-1.845.747-.168.024-.354.042-.558.054-.198.012-.357.018-.477.018h-3.186V203h-2.169Zm2.169-6.552h3.096c.12 0 .255-.006.405-.018.15-.012.288-.036.414-.072.36-.09.642-.249.846-.477.21-.228.357-.486.441-.774.09-.288.135-.57.135-.846s-.045-.558-.135-.846c-.084-.294-.231-.555-.441-.783-.204-.228-.486-.387-.846-.477-.126-.036-.264-.057-.414-.063-.15-.012-.285-.018-.405-.018h-3.096v4.374Zm8.967 6.552v-12.96h1.953l4.482 9.18 4.482-9.18h1.953V203h-2.025v-8.307L838.354 203h-.864l-3.969-8.307V203h-2.034Z"/>
  <defs>
    <filter id="filter0_d_1018_1129" width="397.764" height="397.764" x="281.118" y="51.3921" color-interpolation-filters="sRGB" filterUnits="userSpaceOnUse">
      <feFlood flood-opacity="0" result="BackgroundImageFix"/>
      <feColorMatrix in="SourceAlpha" result="hardAlpha" values="0 0 0 0 0 0 0 0 0 0 0 0 0 0 0 0 0 0 127 0"/>
      <feMorphology in="SourceAlpha" operator="dilate" radius="40" result="effect1_dropShadow_1018_1129"/>
      <feOffset/>
      <feGaussianBlur stdDeviation="57"/>
      <feComposite in2="hardAlpha" operator="out"/>
      <feColorMatrix values="0 0 0 0 0 0 0 0 0 1 0 0 0 0 0.6 0 0 0 1 0"/>
      <feBlend in2="BackgroundImageFix" result="effect1_dropShadow_1018_1129"/>
      <feBlend in="SourceGraphic" in2="effect1_dropShadow_1018_1129" result="shape"/>
    </filter>
    <pattern id="pattern0" width="1" height="1" patternContentUnits="objectBoundingBox">
      <use xlink:href="#image0_1018_1129" transform="matrix(.002 0 0 .01241 0 -2.6033)"/>
    </pattern>
    <pattern id="pattern1" width="1" height="1" patternContentUnits="objectBoundingBox">
      <use xlink:href="#image1_1018_1129" transform="matrix(.00097 0 0 .00107 -.0122 0)"/>
    </pattern>
    <pattern id="pattern2" width="1" height="1" patternContentUnits="objectBoundingBox">
      <use xlink:href="#image2_1018_1129" transform="matrix(.00382 0 0 .00333 -.0104 0)"/>
    </pattern>
    <pattern id="pattern3" width="1" height="1" patternContentUnits="objectBoundingBox">
      <use xlink:href="#image3_1018_1129" transform="scale(.00195)"/>
    </pattern>
    <pattern id="pattern4" width="1" height="1" patternContentUnits="objectBoundingBox">
      <use xlink:href="#image4_1018_1129" transform="matrix(.00152 0 0 .00267 -.0045 0)"/>
    </pattern>
    <pattern id="pattern5" width="1" height="1" patternContentUnits="objectBoundingBox">
      <use xlink:href="#image5_1018_1129" transform="matrix(.0022 0 0 .00198 0 -.006)"/>
    </pattern>
    <pattern id="pattern6" width="1" height="1" patternContentUnits="objectBoundingBox">
      <use xlink:href="#image6_1018_1129" transform="matrix(.00446 0 0 .0046 0 -.0046)"/>
    </pattern>
    <pattern id="pattern7" width="1" height="1" patternContentUnits="objectBoundingBox">
      <use xlink:href="#image7_1018_1129" transform="matrix(.00044 0 0 .00046 -.353 0)"/>
    </pattern>
    <pattern id="pattern8" width="1" height="1" patternContentUnits="objectBoundingBox">
      <use xlink:href="#image8_1018_1129" transform="scale(.00049)"/>
    </pattern>
    <pattern id="pattern9" width="1" height="1" patternContentUnits="objectBoundingBox">
      <use xlink:href="#image9_1018_1129" transform="scale(.00049)"/>
    </pattern>
    <pattern id="pattern10" width="1" height="1" patternContentUnits="objectBoundingBox">
      <use xlink:href="#image10_1018_1129" transform="scale(.00444)"/>
    </pattern>
    <pattern id="pattern11" width="1" height="1" patternContentUnits="objectBoundingBox">
      <use xlink:href="#image11_1018_1129" transform="translate(-.25) scale(.0005)"/>
    </pattern>
    <pattern id="pattern12" width="1" height="1" patternContentUnits="objectBoundingBox">
      <use xlink:href="#image12_1018_1129" transform="matrix(.00049 0 0 .00061 0 -.0023)"/>
    </pattern>
    <pattern id="pattern13" width="1" height="1" patternContentUnits="objectBoundingBox">
      <use xlink:href="#image13_1018_1129" transform="scale(.005)"/>
    </pattern>
    <pattern id="pattern14" width="1" height="1" patternContentUnits="objectBoundingBox">
      <use xlink:href="#image14_1018_1129" transform="matrix(.00054 0 0 .00049 -.007 0)"/>
    </pattern>
    <pattern id="pattern15" width="1" height="1" patternContentUnits="objectBoundingBox">
      <use xlink:href="#image15_1018_1129" transform="matrix(.00055 0 0 .0005 0 -.0152)"/>
    </pattern>
    <pattern id="pattern16" width="1" height="1" patternContentUnits="objectBoundingBox">
      <use xlink:href="#image16_1018_1129" transform="matrix(.00085 0 0 .00046 -.0125 0)"/>
    </pattern>
    <pattern id="pattern17" width="1" height="1" patternContentUnits="objectBoundingBox">
      <use xlink:href="#image17_1018_1129" transform="matrix(.00072 0 0 .00136 -.0018 0)"/>
    </pattern>
    <pattern id="pattern18" width="1" height="1" patternContentUnits="objectBoundingBox">
      <use xlink:href="#image18_1018_1129" transform="matrix(.00311 0 0 .00334 -.4401 -.2522)"/>
    </pattern>
    <pattern id="pattern19" width="1" height="1" patternContentUnits="objectBoundingBox">
      <use xlink:href="#image19_1018_1129" transform="matrix(.001 0 0 .00098 0 -.0017)"/>
    </pattern>
    <pattern id="pattern20" width="1" height="1" patternContentUnits="objectBoundingBox">
      <use xlink:href="#image20_1018_1129" transform="matrix(.0039 0 0 .00608 0 -.0104)"/>
    </pattern>
    <pattern id="pattern21" width="1" height="1" patternContentUnits="objectBoundingBox">
      <use xlink:href="#image21_1018_1129" transform="translate(-.002) scale(.00064)"/>
    </pattern>
    <pattern id="pattern22" width="1" height="1" patternContentUnits="objectBoundingBox">
      <use xlink:href="#image22_1018_1129" transform="matrix(.0017 0 0 .00193 -.2813 -.1165)"/>
    </pattern>
    <pattern id="pattern23" width="1" height="1" patternContentUnits="objectBoundingBox">
      <use xlink:href="#image23_1018_1129" transform="matrix(.00044 0 0 .0005 -.1538 0)"/>
    </pattern>
    <pattern id="pattern24" width="1" height="1" patternContentUnits="objectBoundingBox">
      <use xlink:href="#image24_1018_1129" transform="translate(0 -.008) scale(.00397)"/>
    </pattern>
    <pattern id="pattern25" width="1" height="1" patternContentUnits="objectBoundingBox">
      <use xlink:href="#image25_1018_1129" transform="scale(.00042)"/>
    </pattern>
    <pattern id="pattern26" width="1" height="1" patternContentUnits="objectBoundingBox">
      <use xlink:href="#image26_1018_1129" transform="scale(.00042)"/>
    </pattern>
    <pattern id="pattern27" width="1" height="1" patternContentUnits="objectBoundingBox">
      <use xlink:href="#image27_1018_1129" transform="scale(.00302 .00145)"/>
    </pattern>

    <image xmlns="http://www.w3.org/2000/svg" href="./aws.png"  id="image4_1018_1129" width="666" height="375"/> 
  </defs>
</svg>
