<svg xmlns="http://www.w3.org/2000/svg" xmlns:xlink="http://www.w3.org/1999/xlink" width="906" height="501" fill="none">
  <path stroke="#DEDEDE" stroke-width="1.521" d="M43 303.333h191.546a7.607 7.607 0 0 0 7.607-7.607v-34.119A7.607 7.607 0 0 1 249.76 254h42.241"/>
  <path stroke="#DEDEDE" stroke-width="1.521" d="M43 403h191.46a7.607 7.607 0 0 0 7.607-7.607V261.607a7.607 7.607 0 0 1 7.607-7.607H292"/>
  <path stroke="#DEDEDE" stroke-width="1.521" d="M43 455.668h202.701a7.607 7.607 0 0 0 7.607-7.607V276.139a7.607 7.607 0 0 1 7.607-7.607h31.189M43 198h191.451a7.607 7.607 0 0 1 7.607 7.607v28.786a7.608 7.608 0 0 0 7.608 7.607h42.335"/>
  <path stroke="#DEDEDE" stroke-width="1.521" d="M43 44h202.691a7.607 7.607 0 0 1 7.608 7.607v170.786a7.607 7.607 0 0 0 7.607 7.607h31.095"/>
  <path fill="#0C4A3F" d="M517.275 205.392h-74.55a7.607 7.607 0 0 0-7.607 7.607v74.55a7.607 7.607 0 0 0 7.607 7.607h74.55a7.607 7.607 0 0 0 7.607-7.607v-74.55a7.607 7.607 0 0 0-7.607-7.607Z"/>
  <path fill="url(#pattern0)" d="M516 244.5h-72v11h72v-11Z"/>
  <path fill="#0C4A3F" d="M898.393 281.463H754.618a7.607 7.607 0 0 0-7.607 7.607v74.55a7.607 7.607 0 0 0 7.607 7.607h143.775A7.607 7.607 0 0 0 906 363.62v-74.55a7.607 7.607 0 0 0-7.607-7.607Z"/>
  <path fill="white" d="M808.502 333v-12.96h5.355c.126 0 .288.006.486.018.198.006.381.024.549.054.75.114 1.368.363 1.854.747.492.384.855.87 1.089 1.458.24.582.36 1.23.36 1.944 0 1.056-.267 1.965-.801 2.727-.534.756-1.353 1.224-2.457 1.404l-.927.081h-3.339V333h-2.169Zm7.443 0-2.556-5.274 2.205-.486 2.808 5.76h-2.457Zm-5.274-6.552h3.096c.12 0 .255-.006.405-.018.15-.012.288-.036.414-.072.36-.09.642-.249.846-.477.21-.228.357-.486.441-.774.09-.288.135-.57.135-.846s-.045-.558-.135-.846a1.92 1.92 0 0 0-.441-.783c-.204-.228-.486-.387-.846-.477a1.761 1.761 0 0 0-.414-.063 5.127 5.127 0 0 0-.405-.018h-3.096v4.374Zm14.574 6.822c-1.032 0-1.941-.21-2.727-.63a4.62 4.62 0 0 1-1.836-1.773c-.438-.762-.657-1.656-.657-2.682v-8.127l2.196-.018v8.091c0 .486.081.921.243 1.305.168.384.393.711.675.981.282.264.606.465.972.603.366.138.744.207 1.134.207a3.033 3.033 0 0 0 2.115-.819 2.9 2.9 0 0 0 .666-.981c.162-.384.243-.816.243-1.296v-8.091h2.196v8.145c0 1.026-.222 1.92-.666 2.682a4.543 4.543 0 0 1-1.836 1.773c-.78.42-1.686.63-2.718.63Zm7.375-.27v-12.96h1.953l4.482 9.18 4.482-9.18h1.953V333h-2.025v-8.307L839.487 333h-.864l-3.969-8.307V333h-2.034Z"/>
  <path fill="#0C4A3F" d="M898.393 410.785H754.618a7.607 7.607 0 0 0-7.607 7.607v74.55a7.607 7.607 0 0 0 7.607 7.607h143.775a7.607 7.607 0 0 0 7.607-7.607v-74.55a7.607 7.607 0 0 0-7.607-7.607Z"/>
  <path fill="white" d="M808.713 462v-12.96h2.196l6.012 9.135v-9.135h2.196V462h-2.196l-6.012-9.135V462h-2.196Zm12.56 0v-12.96h5.355c.126 0 .288.006.486.018.198.006.381.024.549.054.75.114 1.368.363 1.854.747.492.384.855.87 1.089 1.458.24.582.36 1.23.36 1.944 0 .708-.12 1.356-.36 1.944a3.498 3.498 0 0 1-1.098 1.449c-.486.384-1.101.633-1.845.747a6.786 6.786 0 0 1-.558.054 8.267 8.267 0 0 1-.477.018h-3.186V462h-2.169Zm2.169-6.552h3.096c.12 0 .255-.006.405-.018.15-.012.288-.036.414-.072.36-.09.642-.249.846-.477.21-.228.357-.486.441-.774.09-.288.135-.57.135-.846s-.045-.558-.135-.846a1.92 1.92 0 0 0-.441-.783c-.204-.228-.486-.387-.846-.477a1.761 1.761 0 0 0-.414-.063 5.127 5.127 0 0 0-.405-.018h-3.096v4.374Zm8.967 6.552v-12.96h1.953l4.482 9.18 4.482-9.18h1.953V462h-2.025v-8.307L839.276 462h-.864l-3.969-8.307V462h-2.034ZM3.85 12.16c-.763 0-1.408-.169-1.933-.506a3.207 3.207 0 0 1-1.193-1.411C.454 9.643.32 8.95.32 8.166c0-.785.135-1.477.405-2.077.27-.6.668-1.068 1.193-1.406.525-.34 1.17-.51 1.933-.51.891 0 1.619.228 2.183.686.565.455.952 1.065 1.161 1.832l-.799.208c-.163-.607-.456-1.088-.878-1.443-.423-.355-.978-.533-1.667-.533-.6 0-1.099.137-1.496.41a2.512 2.512 0 0 0-.9 1.145c-.2.486-.302 1.049-.31 1.688-.003.639.095 1.202.294 1.688.202.486.504.868.905 1.145.405.273.907.41 1.507.41.689 0 1.244-.178 1.667-.533.422-.358.715-.84.878-1.443l.8.208c-.21.767-.597 1.38-1.162 1.837-.564.454-1.292.682-2.183.682ZM8.262 12V4.172h.783V12h-.783Zm4.568.16c-.571 0-1.06-.13-1.464-.389a2.53 2.53 0 0 1-.932-1.076c-.216-.458-.325-.983-.325-1.576 0-.603.11-1.132.33-1.587a2.5 2.5 0 0 1 .938-1.06c.408-.255.892-.383 1.453-.383.575 0 1.065.13 1.47.389.408.256.719.612.932 1.07.216.455.325.978.325 1.571 0 .604-.109 1.134-.325 1.592-.217.455-.53.81-.937 1.065-.409.256-.897.384-1.465.384Zm0-.751c.64 0 1.115-.211 1.427-.634.313-.426.469-.978.469-1.656 0-.696-.158-1.25-.474-1.661-.312-.412-.786-.618-1.422-.618-.43 0-.784.098-1.065.293-.277.192-.484.46-.623.804-.135.34-.202.735-.202 1.182 0 .692.16 1.248.48 1.667.319.415.789.623 1.41.623Zm5.888.735c-.345 0-.647-.053-.906-.16a2.005 2.005 0 0 1-.655-.431 2.273 2.273 0 0 1-.431-.618 3.11 3.11 0 0 1-.24-.74 4.203 4.203 0 0 1-.074-.783V6.249h.788v2.934c0 .316.03.609.09.879s.157.506.288.708c.135.199.307.353.517.463.213.11.47.165.772.165.276 0 .52-.048.73-.143.212-.096.39-.233.532-.41.145-.182.255-.4.33-.655.074-.26.112-.55.112-.874l.553.123c0 .589-.102 1.084-.308 1.485a2.14 2.14 0 0 1-.852.91 2.477 2.477 0 0 1-1.246.31ZM20.65 12v-1.416h-.08V6.249h.782V12h-.703Zm4.209.16c-.536 0-.994-.133-1.374-.4a2.59 2.59 0 0 1-.873-1.091 3.795 3.795 0 0 1-.304-1.55c0-.571.1-1.086.299-1.544.202-.458.491-.82.867-1.086.377-.267.828-.4 1.353-.4.54 0 .994.132 1.363.394.37.263.648.623.836 1.081.192.455.288.973.288 1.555a4.07 4.07 0 0 1-.283 1.55 2.504 2.504 0 0 1-.83 1.091c-.366.267-.813.4-1.342.4Zm.08-.73c.408 0 .745-.1 1.012-.298.266-.199.465-.472.596-.82a3.39 3.39 0 0 0 .197-1.193c0-.45-.066-.848-.197-1.193a1.744 1.744 0 0 0-.596-.814c-.263-.196-.595-.293-.996-.293-.412 0-.753.1-1.023.303-.27.203-.47.478-.601.826a3.379 3.379 0 0 0-.192 1.171c0 .437.066.83.197 1.182.135.348.335.623.602.826.266.202.6.303 1 .303Zm1.805.57V7.67h-.085V4.333h.788V12h-.703Zm3.922-7.668h.804L29.426 12h-.804l2.045-7.668Zm5.082 7.828c-.763 0-1.407-.169-1.933-.506a3.207 3.207 0 0 1-1.193-1.411c-.27-.6-.404-1.292-.404-2.077 0-.785.135-1.477.404-2.077.27-.6.668-1.068 1.193-1.406.526-.34 1.17-.51 1.933-.51.767 0 1.411.17 1.933.51.526.338.923.806 1.193 1.406.273.6.41 1.292.41 2.077 0 .785-.137 1.477-.41 2.077-.27.6-.667 1.07-1.193 1.41-.522.338-1.166.507-1.933.507Zm0-.751c.6 0 1.1-.137 1.502-.41a2.47 2.47 0 0 0 .9-1.14c.202-.49.303-1.054.303-1.693s-.1-1.202-.303-1.688a2.47 2.47 0 0 0-.9-1.14c-.401-.273-.902-.411-1.502-.415-.6 0-1.099.137-1.496.41a2.512 2.512 0 0 0-.9 1.145c-.199.486-.3 1.049-.304 1.688-.003.639.095 1.202.293 1.688.203.483.504.863.906 1.14.4.273.901.411 1.501.415Zm8.543.591V9.066c0-.32-.03-.612-.09-.879a2.025 2.025 0 0 0-.294-.703 1.338 1.338 0 0 0-.516-.468 1.632 1.632 0 0 0-.767-.165c-.277 0-.522.048-.735.143-.21.096-.387.235-.532.416-.142.177-.25.394-.325.65a3.124 3.124 0 0 0-.112.873l-.554-.123c0-.589.103-1.084.31-1.485a2.14 2.14 0 0 1 .851-.91 2.476 2.476 0 0 1 1.246-.31c.345 0 .645.053.9.16.26.106.478.25.655.431.181.181.327.389.437.623.11.231.19.478.24.74.05.26.074.519.074.778V12h-.788Zm-4.159 0V6.249h.708v1.416h.08V12h-.788Zm10.618.16c-.53 0-.977-.133-1.342-.4a2.504 2.504 0 0 1-.831-1.091 4.07 4.07 0 0 1-.282-1.55c0-.582.094-1.1.282-1.555.192-.458.472-.818.841-1.08.37-.263.824-.395 1.364-.395.525 0 .976.133 1.352.4.376.266.664.628.863 1.086.202.458.303.973.303 1.544 0 .575-.1 1.092-.303 1.55a2.59 2.59 0 0 1-.874 1.091c-.38.267-.837.4-1.373.4Zm-2.588 2.396V6.249h.703v4.33h.085v3.977h-.788Zm2.508-3.126c.4 0 .735-.101 1-.303.267-.203.466-.478.597-.826.135-.351.203-.745.203-1.182 0-.433-.066-.823-.197-1.171a1.795 1.795 0 0 0-.602-.826c-.266-.202-.605-.303-1.017-.303-.401 0-.735.097-1.001.293-.263.195-.46.466-.591.814a3.333 3.333 0 0 0-.198 1.193c0 .444.066.842.198 1.193.13.348.33.621.596.82.266.199.604.298 1.012.298Zm3.587.57V6.249h.703v1.384l-.139-.18c.064-.171.147-.327.25-.47.103-.145.215-.264.336-.356.149-.131.323-.23.522-.298.198-.071.399-.112.601-.123.203-.014.387 0 .554.043v.735a1.9 1.9 0 0 0-.687-.037 1.309 1.309 0 0 0-.687.298c-.191.149-.335.328-.431.538-.096.205-.16.426-.192.66-.032.23-.048.46-.048.687V12h-.782Zm5.954.16c-.561 0-1.047-.124-1.46-.373a2.53 2.53 0 0 1-.952-1.049c-.228-.45-.341-.98-.341-1.587 0-.628.112-1.171.335-1.63.224-.457.538-.81.943-1.059.408-.249.89-.373 1.443-.373.568 0 1.053.132 1.454.394.4.26.704.632.91 1.119.206.486.3 1.066.282 1.74h-.798v-.276c-.014-.746-.176-1.308-.485-1.688-.305-.38-.752-.57-1.342-.57-.617 0-1.091.2-1.422.602-.326.401-.49.973-.49 1.714 0 .725.164 1.287.49 1.688.33.398.797.597 1.4.597.413 0 .771-.094 1.077-.282.308-.192.552-.467.73-.826l.729.283c-.228.5-.563.889-1.007 1.166-.44.273-.939.41-1.496.41Zm-2.2-2.817v-.655h4.394v.655h-4.393ZM70.499 12l.005-3.775c0-.444-.124-.792-.373-1.044-.245-.256-.557-.384-.937-.384-.216 0-.428.05-.633.15-.206.099-.377.259-.512.479-.131.22-.197.507-.197.862l-.463-.133c-.01-.411.07-.772.24-1.08.174-.31.411-.55.713-.72a2.05 2.05 0 0 1 1.033-.26c.579 0 1.042.179 1.39.537.348.355.522.836.522 1.443L71.28 12h-.783Zm-6.864 0V6.249h.703v1.416h.085V12h-.788Zm3.44 0 .005-3.722c0-.458-.122-.818-.367-1.081-.242-.266-.561-.4-.959-.4-.397 0-.719.137-.964.41-.245.27-.367.63-.367 1.081l-.469-.255c0-.37.087-.7.261-.99.174-.295.412-.526.714-.693.302-.17.644-.255 1.028-.255.365 0 .69.078.974.234.288.156.513.383.676.681.164.299.245.66.245 1.087L67.846 12h-.772ZM.852 112.667v-7.668h.783v6.917h3.642v.751H.852Zm6.765.159c-.433 0-.797-.078-1.091-.234a1.588 1.588 0 0 1-.655-.623 1.699 1.699 0 0 1-.219-.847 1.6 1.6 0 0 1 .187-.798c.128-.224.3-.407.516-.549.22-.142.474-.25.762-.325.29-.071.612-.133.964-.186.355-.057.7-.105 1.038-.144.34-.043.639-.083.895-.122l-.277.17c.01-.568-.1-.989-.33-1.262-.231-.273-.632-.41-1.204-.41-.394 0-.728.089-1.001.266-.27.178-.46.458-.57.842l-.761-.224c.131-.515.396-.914.793-1.198.398-.284.914-.426 1.55-.426.525 0 .97.099 1.336.298.37.195.63.479.783.852.071.167.117.353.139.559.02.206.032.415.032.628v3.574h-.698v-1.444l.202.086c-.195.493-.499.869-.91 1.129-.412.259-.906.388-1.48.388Zm.09-.676c.366 0 .686-.066.96-.197a1.733 1.733 0 0 0 .984-1.315c.043-.185.066-.387.07-.607.003-.224.005-.391.005-.501l.298.155c-.266.035-.555.071-.868.106a26.23 26.23 0 0 0-.916.122 8.095 8.095 0 0 0-.81.166 2.148 2.148 0 0 0-.473.197 1.081 1.081 0 0 0-.378.33.883.883 0 0 0-.144.516c0 .167.041.329.123.485.085.156.22.286.404.389.188.103.437.154.746.154Zm8.123.517v-2.935c0-.319-.03-.612-.09-.878a2.026 2.026 0 0 0-.293-.703 1.342 1.342 0 0 0-.517-.469 1.632 1.632 0 0 0-.766-.165c-.277 0-.522.048-.735.144-.21.096-.387.234-.533.415-.142.178-.25.394-.325.65a3.126 3.126 0 0 0-.111.873l-.554-.122c0-.589.103-1.085.309-1.486.206-.401.49-.705.852-.91a2.475 2.475 0 0 1 1.246-.309c.344 0 .644.053.9.159.259.107.477.251.655.432.18.181.326.389.436.623.11.231.19.477.24.74.05.259.074.518.074.777v3.164h-.788Zm-4.159 0v-5.751h.709v1.416h.08v4.335h-.789Zm8.4 2.715c-.294 0-.585-.044-.873-.133a2.39 2.39 0 0 1-.788-.41 2.259 2.259 0 0 1-.607-.724l.708-.394c.16.319.384.548.671.687.291.142.588.213.89.213.415 0 .75-.078 1.006-.235a1.31 1.31 0 0 0 .564-.681c.118-.302.174-.678.17-1.129v-1.534h.091v-4.126h.698v5.671a6.6 6.6 0 0 1-.064.916c-.067.429-.208.782-.42 1.059-.21.277-.487.483-.831.618-.341.135-.746.202-1.214.202Zm-.053-2.556c-.536 0-.994-.133-1.373-.399a2.592 2.592 0 0 1-.874-1.092 3.793 3.793 0 0 1-.303-1.549c0-.572.1-1.087.298-1.545.202-.458.492-.82.868-1.086.376-.266.827-.399 1.352-.399.54 0 .994.131 1.364.394.369.263.647.623.836 1.081.191.454.287.972.287 1.555 0 .571-.094 1.088-.282 1.549a2.506 2.506 0 0 1-.83 1.092c-.366.266-.814.399-1.343.399Zm.08-.729c.409 0 .746-.1 1.012-.298a1.78 1.78 0 0 0 .596-.821c.132-.351.197-.749.197-1.192 0-.451-.065-.849-.197-1.193a1.743 1.743 0 0 0-.596-.815c-.263-.195-.595-.293-.996-.293-.412 0-.752.101-1.022.304-.27.202-.47.477-.602.825a3.383 3.383 0 0 0-.192 1.172c0 .436.066.83.197 1.182.135.348.336.623.602.825.266.203.6.304 1.001.304Zm5.978.713c-.344 0-.646-.053-.905-.159a2.015 2.015 0 0 1-.655-.432 2.28 2.28 0 0 1-.431-.617 3.13 3.13 0 0 1-.24-.741 4.19 4.19 0 0 1-.075-.782v-3.163h.788v2.934c0 .316.03.608.09.878.061.27.157.506.288.708.135.199.308.354.517.464.213.11.47.165.772.165.277 0 .52-.048.73-.144a1.42 1.42 0 0 0 .532-.41 1.86 1.86 0 0 0 .33-.655c.075-.259.112-.55.112-.873l.554.122c0 .589-.103 1.085-.309 1.486-.206.401-.49.705-.852.91a2.476 2.476 0 0 1-1.246.309Zm1.933-.143v-1.417h-.08v-4.334h.783v5.751h-.703Zm3.624.159c-.433 0-.797-.078-1.092-.234a1.588 1.588 0 0 1-.655-.623 1.698 1.698 0 0 1-.218-.847 1.6 1.6 0 0 1 .186-.798c.128-.224.3-.407.517-.549.22-.142.474-.25.761-.325.291-.071.612-.133.964-.186a23.81 23.81 0 0 1 1.038-.144c.341-.043.64-.083.895-.122l-.277.17c.01-.568-.1-.989-.33-1.262s-.632-.41-1.204-.41c-.394 0-.727.089-1 .266-.27.178-.46.458-.57.842l-.762-.224c.131-.515.396-.914.794-1.198.397-.284.914-.426 1.55-.426.525 0 .97.099 1.336.298.369.195.63.479.782.852.071.167.118.353.139.559.021.206.032.415.032.628v3.574h-.698v-1.444l.203.086c-.196.493-.5.869-.911 1.129-.412.259-.905.388-1.48.388Zm.09-.676c.366 0 .685-.066.959-.197a1.733 1.733 0 0 0 .985-1.315 2.91 2.91 0 0 0 .069-.607c.004-.224.005-.391.005-.501l.299.155c-.267.035-.556.071-.868.106-.31.036-.615.076-.916.122a8.095 8.095 0 0 0-.81.166 2.147 2.147 0 0 0-.474.197 1.08 1.08 0 0 0-.378.33.883.883 0 0 0-.143.516c0 .167.04.329.122.485.085.156.22.286.405.389.188.103.436.154.745.154Zm6.254 3.232c-.295 0-.586-.044-.874-.133a2.39 2.39 0 0 1-.788-.41 2.259 2.259 0 0 1-.607-.724l.708-.394c.16.319.384.548.671.687.291.142.588.213.89.213.415 0 .75-.078 1.006-.235a1.31 1.31 0 0 0 .564-.681c.117-.302.174-.678.17-1.129v-1.534h.091v-4.126h.698v5.671a6.6 6.6 0 0 1-.064.916c-.068.429-.208.782-.42 1.059-.21.277-.487.483-.831.618-.341.135-.746.202-1.215.202Zm-.054-2.556c-.536 0-.994-.133-1.374-.399a2.592 2.592 0 0 1-.873-1.092 3.793 3.793 0 0 1-.303-1.549c0-.572.099-1.087.298-1.545.202-.458.491-.82.868-1.086.376-.266.827-.399 1.352-.399.54 0 .994.131 1.364.394.369.263.647.623.835 1.081.192.454.288.972.288 1.555 0 .571-.094 1.088-.282 1.549a2.506 2.506 0 0 1-.83 1.092c-.366.266-.814.399-1.343.399Zm.08-.729c.408 0 .746-.1 1.012-.298a1.78 1.78 0 0 0 .596-.821c.132-.351.197-.749.197-1.192 0-.451-.065-.849-.197-1.193a1.743 1.743 0 0 0-.596-.815c-.263-.195-.595-.293-.996-.293-.412 0-.752.101-1.022.304-.27.202-.47.477-.602.825a3.383 3.383 0 0 0-.192 1.172c0 .436.066.83.197 1.182.135.348.336.623.602.825.266.203.6.304 1.001.304Zm6.212.729c-.56 0-1.047-.124-1.459-.372a2.534 2.534 0 0 1-.953-1.05c-.227-.45-.34-.979-.34-1.586 0-.629.111-1.172.335-1.63.223-.458.538-.811.942-1.059.408-.249.89-.373 1.443-.373.568 0 1.053.131 1.454.394.401.259.705.632.91 1.118.207.486.3 1.067.283 1.741h-.799v-.277c-.014-.745-.176-1.308-.484-1.688-.306-.379-.753-.569-1.342-.569-.618 0-1.092.2-1.422.601-.327.402-.49.973-.49 1.715 0 .724.163 1.287.49 1.688.33.398.797.596 1.4.596.412 0 .77-.094 1.076-.282.309-.191.552-.467.73-.825l.729.282a2.606 2.606 0 0 1-1.007 1.166c-.44.274-.938.41-1.496.41Zm-2.199-2.817v-.655h4.393v.655h-4.393Zm7.928 2.812c-.674 0-1.23-.146-1.666-.437a1.82 1.82 0 0 1-.799-1.214l.799-.133a1.3 1.3 0 0 0 .58.783c.306.192.682.287 1.13.287.436 0 .78-.09 1.032-.271a.883.883 0 0 0 .378-.751.704.704 0 0 0-.122-.431c-.078-.114-.24-.219-.485-.315a11.57 11.57 0 0 0-1.097-.34c-.522-.142-.93-.284-1.225-.426-.294-.142-.504-.306-.628-.49a1.219 1.219 0 0 1-.186-.687c0-.327.092-.613.277-.857.184-.249.44-.441.767-.576a2.91 2.91 0 0 1 1.139-.207c.433 0 .82.071 1.16.213.345.138.622.333.832.586.209.252.333.544.372.878l-.798.144a1.151 1.151 0 0 0-.506-.799c-.28-.199-.638-.302-1.07-.309-.409-.01-.74.068-.996.235-.256.163-.384.381-.384.655 0 .152.046.284.139.394.092.106.259.207.5.303.245.096.593.201 1.044.314.529.135.944.277 1.246.426.302.149.517.325.644.528.128.202.192.452.192.75 0 .543-.202.971-.607 1.284-.401.309-.955.463-1.662.463ZM3.85 270.802c-.763 0-1.408-.168-1.933-.506a3.202 3.202 0 0 1-1.193-1.411c-.27-.6-.405-1.292-.405-2.076 0-.785.135-1.477.405-2.077.27-.6.668-1.069 1.193-1.406.525-.341 1.17-.511 1.933-.511.891 0 1.619.229 2.183.687.565.454.952 1.065 1.161 1.832l-.799.207c-.163-.607-.456-1.088-.878-1.443-.423-.355-.978-.532-1.667-.532-.6 0-1.099.136-1.496.41-.398.273-.698.655-.9 1.145-.2.486-.302 1.049-.31 1.688-.003.639.095 1.201.294 1.688.202.486.504.868.905 1.144.405.274.907.411 1.507.411.689 0 1.244-.178 1.667-.533.422-.359.715-.84.878-1.443l.8.208c-.21.766-.597 1.379-1.162 1.837-.564.454-1.292.681-2.183.681Zm6.708 0c-.572 0-1.06-.129-1.465-.388a2.535 2.535 0 0 1-.932-1.076c-.216-.458-.325-.983-.325-1.576 0-.604.11-1.133.33-1.587.22-.454.533-.808.938-1.06.408-.255.893-.383 1.454-.383.575 0 1.065.129 1.47.389.407.255.718.612.931 1.07.217.454.325.978.325 1.571 0 .603-.108 1.134-.325 1.592a2.493 2.493 0 0 1-.937 1.065c-.408.256-.896.383-1.464.383Zm0-.75c.639 0 1.114-.212 1.427-.634.312-.426.468-.978.468-1.656 0-.696-.158-1.25-.474-1.662-.312-.411-.786-.617-1.421-.617-.43 0-.785.097-1.065.293a1.73 1.73 0 0 0-.623.804 3.19 3.19 0 0 0-.203 1.182c0 .692.16 1.248.48 1.666.319.416.79.624 1.41.624Zm7.841.591v-2.934c0-.32-.03-.613-.09-.879a2.028 2.028 0 0 0-.293-.703 1.342 1.342 0 0 0-.517-.469 1.633 1.633 0 0 0-.767-.165c-.276 0-.521.048-.734.144a1.45 1.45 0 0 0-.533.415c-.142.178-.25.394-.325.65a3.126 3.126 0 0 0-.112.873l-.553-.122c0-.589.103-1.085.308-1.486a2.14 2.14 0 0 1 .852-.91 2.476 2.476 0 0 1 1.246-.309c.345 0 .645.053.9.16.26.106.478.25.655.431.181.181.327.389.437.623.11.231.19.477.24.74.05.259.074.518.074.778v3.163H18.4Zm-4.159 0v-5.751h.708v1.416h.08v4.335h-.788Zm9.247 0a3.815 3.815 0 0 1-.958.079 2.118 2.118 0 0 1-.842-.202 1.218 1.218 0 0 1-.559-.564 1.658 1.658 0 0 1-.17-.645c-.007-.22-.01-.47-.01-.75v-5.267h.777v5.235c0 .241.001.443.005.607a.977.977 0 0 0 .112.426c.128.237.33.379.607.426.28.046.626.035 1.038-.032v.687Zm-3.77-5.08v-.671h3.77v.671h-3.77Zm6.336 5.239c-.434 0-.797-.078-1.092-.234a1.589 1.589 0 0 1-.655-.623 1.7 1.7 0 0 1-.218-.847c0-.312.062-.578.186-.798.128-.224.3-.407.517-.549.22-.142.474-.25.761-.325.291-.071.613-.133.964-.186a23.79 23.79 0 0 1 1.038-.144c.341-.042.64-.083.895-.122l-.277.17c.01-.568-.1-.989-.33-1.262s-.632-.41-1.204-.41c-.394 0-.727.089-1 .266-.27.178-.46.458-.57.842l-.762-.224c.131-.515.396-.914.793-1.198.398-.284.915-.426 1.55-.426.525 0 .971.099 1.337.298.369.195.63.479.782.852.071.167.117.353.139.559.021.206.032.416.032.629v3.573h-.698V269.2l.203.085c-.196.493-.5.869-.911 1.129-.412.259-.905.388-1.48.388Zm.09-.676c.366 0 .685-.066.959-.197a1.733 1.733 0 0 0 .985-1.315 2.91 2.91 0 0 0 .069-.607c.004-.224.005-.391.005-.501l.298.155c-.266.035-.555.071-.867.106-.31.036-.615.076-.916.123a7.836 7.836 0 0 0-.81.165 2.15 2.15 0 0 0-.474.197 1.081 1.081 0 0 0-.378.33.883.883 0 0 0-.143.516c0 .167.04.329.122.485.085.156.22.286.405.389.188.103.436.154.745.154Zm4.075-6.326v-.879h.783v.879h-.783Zm0 6.843v-5.751h.783v5.751h-.783Zm6.32 0v-2.934c0-.32-.03-.613-.09-.879a2.026 2.026 0 0 0-.293-.703 1.342 1.342 0 0 0-.517-.469 1.632 1.632 0 0 0-.767-.165c-.276 0-.521.048-.734.144-.21.096-.387.234-.533.415-.142.178-.25.394-.325.65a3.126 3.126 0 0 0-.112.873l-.553-.122c0-.589.103-1.085.309-1.486a2.14 2.14 0 0 1 .852-.91 2.475 2.475 0 0 1 1.246-.309c.344 0 .644.053.9.16.259.106.477.25.654.431.182.181.327.389.437.623.11.231.19.477.24.74.05.259.074.518.074.778v3.163h-.788Zm-4.159 0v-5.751h.709v1.416h.08v4.335h-.789Zm8.519.159c-.561 0-1.048-.124-1.46-.372a2.538 2.538 0 0 1-.953-1.049c-.227-.451-.34-.98-.34-1.587 0-.629.111-1.172.335-1.63.224-.458.538-.811.943-1.059.408-.249.889-.373 1.442-.373.569 0 1.053.131 1.454.394.401.259.705.632.91 1.118.207.486.3 1.067.283 1.741h-.799v-.276c-.014-.746-.175-1.309-.484-1.689-.306-.379-.753-.569-1.342-.569-.618 0-1.092.2-1.422.601-.327.402-.49.973-.49 1.715 0 .724.163 1.287.49 1.688.33.398.797.597 1.4.597.412 0 .77-.095 1.076-.283.309-.191.552-.467.73-.825l.73.282a2.606 2.606 0 0 1-1.007 1.166c-.44.274-.94.41-1.496.41Zm-2.2-2.817v-.655h4.393v.655h-4.393Zm5.783 2.658v-5.751h.703v1.384l-.139-.181c.064-.17.148-.327.25-.469.103-.145.215-.264.336-.356.15-.132.323-.231.522-.299.199-.071.4-.111.602-.122.202-.014.386 0 .553.043v.734a1.914 1.914 0 0 0-.687-.037 1.317 1.317 0 0 0-.687.298 1.432 1.432 0 0 0-.43.538c-.097.206-.16.426-.192.66-.032.231-.048.46-.048.687v2.871h-.783Zm3.731-6.843v-.879h.783v.879h-.783Zm0 6.843v-5.751h.783v5.751h-.783Zm1.634 0v-.165l3.711-4.857h-3.434v-.729h4.723v.181l-3.706 4.84h3.504v.73h-4.798Zm7.28.159c-.434 0-.798-.078-1.092-.234a1.588 1.588 0 0 1-.655-.623 1.698 1.698 0 0 1-.219-.847 1.6 1.6 0 0 1 .187-.798c.127-.224.3-.407.516-.549.22-.142.474-.25.762-.325.29-.071.612-.133.964-.186a23.81 23.81 0 0 1 1.038-.144c.34-.042.639-.083.895-.122l-.277.17c.01-.568-.1-.989-.33-1.262-.231-.273-.632-.41-1.204-.41-.394 0-.728.089-1.001.266-.27.178-.46.458-.57.842l-.761-.224c.131-.515.396-.914.793-1.198.398-.284.914-.426 1.55-.426.525 0 .97.099 1.336.298.37.195.63.479.783.852.071.167.117.353.139.559.02.206.031.416.031.629v3.573h-.697V269.2l.202.085c-.195.493-.499.869-.91 1.129-.412.259-.906.388-1.48.388Zm.09-.676c.365 0 .685-.066.958-.197a1.733 1.733 0 0 0 .985-1.315 2.91 2.91 0 0 0 .07-.607c.003-.224.005-.391.005-.501l.298.155c-.266.035-.555.071-.868.106-.309.036-.614.076-.916.123a7.836 7.836 0 0 0-.81.165 2.147 2.147 0 0 0-.473.197 1.08 1.08 0 0 0-.378.33.883.883 0 0 0-.144.516c0 .167.04.329.123.485.085.156.22.286.404.389.188.103.437.154.746.154Zm7.1.517a3.815 3.815 0 0 1-.959.079 2.118 2.118 0 0 1-.841-.202 1.218 1.218 0 0 1-.56-.564 1.658 1.658 0 0 1-.17-.645c-.007-.22-.01-.47-.01-.75v-5.267h.777v5.235c0 .241.002.443.006.607a.977.977 0 0 0 .111.426c.128.237.33.379.607.426.28.046.627.035 1.039-.032v.687Zm-3.77-5.08v-.671h3.77v.671h-3.77Zm4.796-1.763v-.879h.783v.879h-.783Zm0 6.843v-5.751h.783v5.751h-.783Zm4.568.159c-.572 0-1.06-.129-1.464-.388a2.535 2.535 0 0 1-.932-1.076c-.217-.458-.325-.983-.325-1.576 0-.604.11-1.133.33-1.587.22-.454.533-.808.937-1.06.409-.255.893-.383 1.454-.383.575 0 1.065.129 1.47.389.408.255.719.612.932 1.07.216.454.325.978.325 1.571 0 .603-.109 1.134-.325 1.592a2.494 2.494 0 0 1-.938 1.065c-.408.256-.896.383-1.464.383Zm0-.75c.64 0 1.115-.212 1.427-.634.313-.426.469-.978.469-1.656 0-.696-.158-1.25-.474-1.662-.313-.411-.786-.617-1.422-.617-.43 0-.784.097-1.065.293a1.73 1.73 0 0 0-.623.804 3.19 3.19 0 0 0-.202 1.182c0 .692.16 1.248.479 1.666.32.416.79.624 1.411.624Zm7.842.591v-2.934c0-.32-.03-.613-.09-.879a2.026 2.026 0 0 0-.294-.703 1.343 1.343 0 0 0-.516-.469 1.632 1.632 0 0 0-.767-.165c-.277 0-.522.048-.735.144-.21.096-.387.234-.532.415-.142.178-.25.394-.325.65a3.123 3.123 0 0 0-.112.873l-.554-.122c0-.589.103-1.085.309-1.486a2.14 2.14 0 0 1 .852-.91 2.475 2.475 0 0 1 1.246-.309c.344 0 .644.053.9.16.26.106.477.25.655.431.181.181.326.389.437.623.11.231.19.477.24.74.049.259.074.518.074.778v3.163h-.788Zm-4.16 0v-5.751h.71v1.416h.079v4.335h-.788Zm8.055-7.668h.804l-2.045 7.668h-.804l2.045-7.668Zm5.082 7.827c-.763 0-1.408-.168-1.933-.506a3.202 3.202 0 0 1-1.193-1.411c-.27-.6-.404-1.292-.404-2.076 0-.785.134-1.477.404-2.077.27-.6.668-1.069 1.193-1.406.525-.341 1.17-.511 1.933-.511.767 0 1.411.17 1.933.511.525.337.923.806 1.193 1.406.273.6.41 1.292.41 2.077 0 .784-.137 1.476-.41 2.076-.27.6-.668 1.071-1.193 1.411-.522.338-1.166.506-1.933.506Zm0-.75c.6 0 1.1-.137 1.502-.411.4-.273.7-.653.9-1.139.202-.49.303-1.054.303-1.693s-.101-1.202-.303-1.688a2.467 2.467 0 0 0-.9-1.14c-.401-.273-.902-.412-1.502-.415-.6 0-1.099.136-1.496.41-.398.273-.698.655-.9 1.145-.199.486-.3 1.049-.304 1.688-.003.639.094 1.201.293 1.688.203.482.504.862.905 1.139.401.274.902.412 1.502.416Zm4.39.591v-5.751h.702v1.384l-.138-.181c.064-.17.147-.327.25-.469.103-.145.215-.264.335-.356.15-.132.323-.231.522-.299.2-.071.4-.111.602-.122.202-.014.387 0 .554.043v.734a1.914 1.914 0 0 0-.687-.037 1.316 1.316 0 0 0-.687.298 1.433 1.433 0 0 0-.431.538c-.096.206-.16.426-.192.66-.032.231-.048.46-.048.687v2.871h-.783Zm5.906.159c-.58 0-1.069-.129-1.47-.388a2.48 2.48 0 0 1-.916-1.071c-.206-.458-.312-.983-.32-1.576.008-.603.118-1.132.33-1.587.214-.458.52-.813.922-1.065.401-.255.887-.383 1.459-.383.582 0 1.088.142 1.517.426.434.284.73.673.89 1.166l-.767.245a1.621 1.621 0 0 0-.644-.799 1.784 1.784 0 0 0-1.001-.287c-.423 0-.773.097-1.05.293a1.698 1.698 0 0 0-.617.804c-.135.344-.204.74-.208 1.187.007.689.167 1.243.48 1.661.312.416.777.624 1.395.624.39 0 .722-.089.995-.267.277-.181.487-.443.629-.788l.788.234c-.213.512-.526.902-.937 1.172-.412.266-.904.399-1.475.399Zm7.451-.159v-2.934c0-.32-.03-.613-.09-.879a2.018 2.018 0 0 0-.293-.703 1.338 1.338 0 0 0-.516-.469 1.634 1.634 0 0 0-.767-.165c-.277 0-.522.048-.735.144a1.45 1.45 0 0 0-.533.415c-.142.178-.25.394-.324.65a3.108 3.108 0 0 0-.112.873l-.554-.122c0-.589.103-1.085.309-1.486.206-.401.49-.704.852-.91a2.474 2.474 0 0 1 1.246-.309c.344 0 .644.053.9.16.259.106.477.25.655.431.181.181.326.389.436.623.11.231.19.477.24.74.05.259.075.518.075.778v3.163h-.789Zm-4.158 0v-7.668h.708v4.329h.08v3.339h-.788Zm8.549.159c-.561 0-1.047-.124-1.459-.372a2.538 2.538 0 0 1-.953-1.049c-.227-.451-.341-.98-.341-1.587 0-.629.112-1.172.335-1.63a2.49 2.49 0 0 1 .943-1.059c.408-.249.889-.373 1.443-.373.568 0 1.053.131 1.454.394.401.259.704.632.91 1.118.206.486.3 1.067.283 1.741h-.799v-.276c-.014-.746-.176-1.309-.485-1.689-.305-.379-.752-.569-1.342-.569-.617 0-1.091.2-1.421.601-.327.402-.49.973-.49 1.715 0 .724.163 1.287.49 1.688.33.398.797.597 1.4.597.412 0 .77-.095 1.076-.283.309-.191.552-.467.729-.825l.73.282a2.605 2.605 0 0 1-1.007 1.166c-.44.274-.939.41-1.496.41Zm-2.199-2.817v-.655h4.393v.655h-4.393Zm7.928 2.812c-.674 0-1.23-.146-1.666-.437a1.814 1.814 0 0 1-.799-1.214l.799-.133c.085.327.278.588.58.783.305.192.682.287 1.129.287.436 0 .781-.09 1.033-.271a.883.883 0 0 0 .378-.751.704.704 0 0 0-.123-.431c-.078-.114-.239-.219-.484-.314-.245-.096-.611-.21-1.097-.341-.522-.142-.93-.284-1.225-.426-.294-.142-.504-.306-.628-.49a1.22 1.22 0 0 1-.187-.687c0-.327.093-.612.277-.857.185-.249.441-.441.767-.575a2.895 2.895 0 0 1 1.14-.208c.433 0 .82.071 1.161.213.344.138.621.334.83.586.21.252.334.545.373.878l-.799.144a1.15 1.15 0 0 0-.506-.799c-.28-.199-.637-.302-1.07-.309-.408-.01-.74.068-.996.235-.255.163-.383.381-.383.655 0 .152.046.284.138.394.093.106.26.207.501.303.245.096.593.201 1.044.314.529.135.944.277 1.246.426.301.15.516.325.644.528.128.202.192.452.192.75 0 .544-.203.971-.607 1.284-.402.309-.955.463-1.662.463Zm6.368-.154a3.818 3.818 0 0 1-.959.079 2.116 2.116 0 0 1-.841-.202 1.218 1.218 0 0 1-.559-.564 1.666 1.666 0 0 1-.171-.645c-.007-.22-.01-.47-.01-.75v-5.267h.777v5.235c0 .241.002.443.006.607a.981.981 0 0 0 .111.426c.128.237.33.379.607.426.281.046.627.035 1.039-.032v.687Zm-3.77-5.08v-.671h3.77v.671h-3.77Zm4.69 5.08v-5.751h.703v1.384l-.139-.181a1.99 1.99 0 0 1 .251-.469c.103-.145.214-.264.335-.356.149-.132.323-.231.522-.299.199-.071.399-.111.602-.122.202-.014.387 0 .553.043v.734a1.913 1.913 0 0 0-.687-.037 1.314 1.314 0 0 0-.686.298 1.432 1.432 0 0 0-.432.538c-.096.206-.16.426-.191.66-.032.231-.048.46-.048.687v2.871h-.783Zm5.052.159c-.434 0-.797-.078-1.092-.234a1.592 1.592 0 0 1-.655-.623 1.694 1.694 0 0 1-.218-.847c0-.312.062-.578.186-.798.128-.224.3-.407.517-.549.22-.142.473-.25.761-.325.291-.071.612-.133.964-.186.355-.057.701-.105 1.038-.144.341-.042.639-.083.895-.122l-.277.17c.011-.568-.099-.989-.33-1.262s-.632-.41-1.204-.41c-.394 0-.727.089-1.001.266-.27.178-.459.458-.57.842l-.761-.224c.131-.515.396-.914.793-1.198.398-.284.915-.426 1.55-.426.525 0 .971.099 1.337.298.369.195.63.479.782.852.071.167.117.353.139.559.021.206.032.416.032.629v3.573h-.698V269.2l.203.085c-.196.493-.499.869-.911 1.129-.412.259-.905.388-1.48.388Zm.09-.676c.366 0 .685-.066.959-.197a1.735 1.735 0 0 0 .985-1.315c.042-.185.065-.387.069-.607.004-.224.005-.391.005-.501l.298.155c-.266.035-.555.071-.867.106-.309.036-.615.076-.916.123a7.838 7.838 0 0 0-.81.165 2.161 2.161 0 0 0-.474.197 1.092 1.092 0 0 0-.378.33.882.882 0 0 0-.144.516c0 .167.041.329.123.485.085.156.22.286.405.389.188.103.436.154.745.154Zm7.1.517a3.81 3.81 0 0 1-.958.079 2.12 2.12 0 0 1-.842-.202 1.218 1.218 0 0 1-.559-.564 1.647 1.647 0 0 1-.17-.645c-.007-.22-.011-.47-.011-.75v-5.267h.778v5.235c0 .241.001.443.005.607a.968.968 0 0 0 .112.426c.127.237.33.379.607.426.28.046.626.035 1.038-.032v.687Zm-3.77-5.08v-.671h3.77v.671h-3.77Zm4.797-1.763v-.879h.782v.879h-.782Zm0 6.843v-5.751h.782v5.751h-.782Zm4.567.159c-.571 0-1.059-.129-1.464-.388a2.536 2.536 0 0 1-.932-1.076c-.216-.458-.325-.983-.325-1.576 0-.604.11-1.133.33-1.587.221-.454.533-.808.938-1.06.408-.255.893-.383 1.453-.383.576 0 1.065.129 1.47.389.408.255.719.612.932 1.07.217.454.325.978.325 1.571 0 .603-.108 1.134-.325 1.592a2.497 2.497 0 0 1-.937 1.065c-.408.256-.897.383-1.465.383Zm0-.75c.639 0 1.115-.212 1.428-.634.312-.426.468-.978.468-1.656 0-.696-.158-1.25-.474-1.662-.312-.411-.786-.617-1.422-.617-.429 0-.784.097-1.065.293a1.739 1.739 0 0 0-.623.804c-.135.34-.202.734-.202 1.182 0 .692.16 1.248.479 1.666.32.416.79.624 1.411.624Zm7.842.591v-2.934c0-.32-.03-.613-.091-.879a2.036 2.036 0 0 0-.292-.703 1.348 1.348 0 0 0-.517-.469 1.632 1.632 0 0 0-.767-.165c-.277 0-.522.048-.735.144a1.446 1.446 0 0 0-.532.415c-.142.178-.25.394-.325.65a3.145 3.145 0 0 0-.112.873l-.554-.122c0-.589.103-1.085.309-1.486.206-.401.49-.704.852-.91a2.477 2.477 0 0 1 1.246-.309c.345 0 .645.053.9.16.259.106.478.25.655.431.181.181.327.389.437.623.11.231.19.477.24.74.049.259.074.518.074.778v3.163h-.788Zm-4.159 0v-5.751h.708v1.416h.08v4.335h-.788Z"/>
  <path stroke="#00FF99" stroke-dasharray="6.09 6.09" stroke-width="1.521" d="M660.29 176.485H299.711a7.607 7.607 0 0 0-7.607 7.607v132.365a7.607 7.607 0 0 0 7.607 7.607H660.29a7.607 7.607 0 0 0 7.607-7.607V184.092a7.607 7.607 0 0 0-7.607-7.607Z"/>
  <path fill="#DEDEDE" d="M736.36 455.668a3.044 3.044 0 1 1 6.088.002 3.044 3.044 0 0 1-6.088-.002Zm0-129.322a3.044 3.044 0 1 1 6.088.002 3.044 3.044 0 0 1-6.088-.002Zm0-124.757a3.044 3.044 0 1 1 6.088.002 3.044 3.044 0 0 1-6.088-.002Zm0-130.843a3.043 3.043 0 1 1 6.087.001 3.043 3.043 0 0 1-6.087 0Z"/>
  <path stroke="#DEDEDE" stroke-width="1.521" d="M96.5 44h149.191a7.607 7.607 0 0 1 7.608 7.607v170.786a7.607 7.607 0 0 0 7.607 7.607h31.095"/>
  <path stroke="#DEDEDE" stroke-width="1.521" d="M150.5 44h95.191a7.607 7.607 0 0 1 7.607 7.607v170.786a7.607 7.607 0 0 0 7.607 7.607H292"/>
  <path stroke="#DEDEDE" stroke-width="1.521" d="M43.5 144h202.124a7.608 7.608 0 0 1 7.608 7.607v70.786a7.607 7.607 0 0 0 7.607 7.607H292"/>
  <path stroke="#DEDEDE" stroke-width="1.521" d="M204 44h41.691a7.607 7.607 0 0 1 7.607 7.607v170.786a7.607 7.607 0 0 0 7.607 7.607H292"/>
  <path stroke="#DEDEDE" stroke-width="1.521" d="M97 144h148.624a7.608 7.608 0 0 1 7.608 7.607v70.786a7.607 7.607 0 0 0 7.607 7.607H292"/>
  <path stroke="#DEDEDE" stroke-width="1.521" d="M150 144h95.554a7.607 7.607 0 0 1 7.607 7.607v70.786a7.607 7.607 0 0 0 7.607 7.607H292"/>
  <path stroke="#DEDEDE" stroke-width="1.521" d="M204 144h41.691a7.607 7.607 0 0 1 7.607 7.607v70.786a7.607 7.607 0 0 0 7.607 7.607H292M739.403 70.746H714.3a7.607 7.607 0 0 0-7.607 7.607v143.775a7.607 7.607 0 0 1-7.608 7.607h-31.189"/>
  <path stroke="#DEDEDE" stroke-width="1.521" d="M96 198h138.451a7.607 7.607 0 0 1 7.607 7.607v28.786a7.608 7.608 0 0 0 7.608 7.607h42.335"/>
  <path stroke="#DEDEDE" stroke-width="1.521" d="M149 198h85.451a7.607 7.607 0 0 1 7.607 7.607v28.786a7.607 7.607 0 0 0 7.607 7.607H292"/>
  <path stroke="#DEDEDE" stroke-width="1.521" d="M203 198h31.451a7.607 7.607 0 0 1 7.607 7.607v28.786a7.607 7.607 0 0 0 7.607 7.607H292m447.403-40.411h-13.931a7.607 7.607 0 0 0-7.607 7.607V234.3a7.607 7.607 0 0 1-7.607 7.607h-42.362M96.5 455.668h149.201a7.607 7.607 0 0 0 7.607-7.607V276.139a7.607 7.607 0 0 1 7.607-7.607h31.189"/>
  <path stroke="#DEDEDE" stroke-width="1.521" d="M150.5 455.668h95.2a7.608 7.608 0 0 0 7.608-7.607V276.139a7.607 7.607 0 0 1 7.607-7.607h31.189"/>
  <path stroke="#DEDEDE" stroke-width="1.521" d="M204 455.668h41.7a7.608 7.608 0 0 0 7.608-7.607V276.139a7.607 7.607 0 0 1 7.607-7.607h31.189m447.299 187.136H714.3a7.607 7.607 0 0 1-7.607-7.607V276.139a7.608 7.608 0 0 0-7.608-7.607h-31.189"/>
  <path stroke="#DEDEDE" stroke-width="1.521" d="M96 303.333h138.546a7.607 7.607 0 0 0 7.607-7.607v-34.119A7.607 7.607 0 0 1 249.76 254h42.241"/>
  <path stroke="#DEDEDE" stroke-width="1.521" d="M150.5 303.333h84.046a7.607 7.607 0 0 0 7.607-7.607v-34.119A7.607 7.607 0 0 1 249.76 254H292"/>
  <path stroke="#DEDEDE" stroke-width="1.521" d="M204 303.333h30.546a7.607 7.607 0 0 0 7.607-7.607v-34.119A7.607 7.607 0 0 1 249.76 254H292"/>
  <path stroke="#DEDEDE" stroke-width="1.521" d="M97 403h137.46a7.607 7.607 0 0 0 7.607-7.607V261.607a7.607 7.607 0 0 1 7.607-7.607H292"/>
  <path stroke="#DEDEDE" stroke-width="1.521" d="M151 403h83.722a7.607 7.607 0 0 0 7.607-7.607V261.607a7.607 7.607 0 0 1 7.607-7.607H292"/>
  <path stroke="#DEDEDE" stroke-width="1.521" d="M204 403h30.545a7.608 7.608 0 0 0 7.608-7.607V261.607A7.607 7.607 0 0 1 249.76 254H292m447.403 72.346h-13.931a7.607 7.607 0 0 1-7.607-7.607v-57.054a7.607 7.607 0 0 0-7.607-7.607h-42.362"/>
  <path fill="#0C4A3F" d="M36.06 123H7.941a7.607 7.607 0 0 0-7.607 7.607v28.119a7.607 7.607 0 0 0 7.607 7.607h28.12a7.607 7.607 0 0 0 7.606-7.607v-28.119A7.607 7.607 0 0 0 36.06 123Z"/>
  <path fill="url(#pattern1)" d="M39.667 129H4.334v32h35.333v-32Z"/>
  <path fill="#0C4A3F" d="M35.726 176H7.607A7.607 7.607 0 0 0 0 183.607v28.119a7.607 7.607 0 0 0 7.607 7.607h28.12a7.607 7.607 0 0 0 7.606-7.607v-28.119A7.607 7.607 0 0 0 35.726 176Z"/>
  <path fill="url(#pattern2)" d="M34 184.667H11.335v26h22.667v-26Z"/>
  <path fill="#0C4A3F" d="M35.726 281H7.607A7.607 7.607 0 0 0 0 288.607v28.119a7.607 7.607 0 0 0 7.607 7.607h28.12a7.607 7.607 0 0 0 7.606-7.607v-28.119A7.607 7.607 0 0 0 35.726 281Z"/>
  <path fill="url(#pattern3)" d="M35 290H9v26h26v-26Z"/>
  <path fill="#0C4A3F" d="M35.726 22H7.607A7.607 7.607 0 0 0 0 29.607v28.12a7.607 7.607 0 0 0 7.607 7.606h28.12a7.607 7.607 0 0 0 7.606-7.607V29.607A7.607 7.607 0 0 0 35.726 22Z"/>
  <path fill="url(#pattern4)" d="M36 35.333H6.665V52h29.333V35.333Z"/>
  <path fill="#0C4A3F" d="M88.726 176H60.607A7.607 7.607 0 0 0 53 183.607v28.119a7.607 7.607 0 0 0 7.607 7.607h28.12a7.607 7.607 0 0 0 7.606-7.607v-28.119A7.607 7.607 0 0 0 88.726 176Z"/>
  <path fill="url(#pattern5)" d="M86.333 184.667H63v26h23.333v-26Z"/>
  <path fill="#0C4A3F" d="M88.726 281H60.607A7.607 7.607 0 0 0 53 288.607v28.119a7.607 7.607 0 0 0 7.607 7.607h28.12a7.607 7.607 0 0 0 7.606-7.607v-28.119A7.607 7.607 0 0 0 88.726 281Z"/>
  <path fill="url(#pattern6)" d="M91 287H59v31h32v-31Z"/>
  <path fill="#0C4A3F" d="M89.06 22H60.941a7.607 7.607 0 0 0-7.607 7.607v28.12a7.607 7.607 0 0 0 7.607 7.606h28.12a7.607 7.607 0 0 0 7.606-7.607V29.607A7.607 7.607 0 0 0 89.06 22Z"/>
  <path fill="url(#pattern7)" d="M87.334 32H62.667v23.333h24.667V32Z"/>
  <path fill="#0C4A3F" d="M195.726 176h-28.119a7.607 7.607 0 0 0-7.607 7.607v28.119a7.607 7.607 0 0 0 7.607 7.607h28.119a7.607 7.607 0 0 0 7.607-7.607v-28.119a7.607 7.607 0 0 0-7.607-7.607Z"/>
  <path fill="url(#pattern8)" d="M193 187h-22v22h22v-22Z"/>
  <path fill="#0C4A3F" d="M195.726 281h-28.119a7.607 7.607 0 0 0-7.607 7.607v28.119a7.607 7.607 0 0 0 7.607 7.607h28.119a7.607 7.607 0 0 0 7.607-7.607v-28.119a7.607 7.607 0 0 0-7.607-7.607Z"/>
  <path fill="url(#pattern9)" d="M195 290h-26v26h26v-26Z"/>
  <path fill="#0C4A3F" d="M141.726 176h-28.119a7.607 7.607 0 0 0-7.607 7.607v28.119a7.607 7.607 0 0 0 7.607 7.607h28.119a7.607 7.607 0 0 0 7.607-7.607v-28.119a7.607 7.607 0 0 0-7.607-7.607Z"/>
  <path fill="url(#pattern10)" d="M139.582 186H116v23.582h23.582V186Z"/>
  <path fill="#0C4A3F" d="M141.726 281h-28.119a7.607 7.607 0 0 0-7.607 7.607v28.119a7.607 7.607 0 0 0 7.607 7.607h28.119a7.607 7.607 0 0 0 7.607-7.607v-28.119a7.607 7.607 0 0 0-7.607-7.607Z"/>
  <path fill="url(#pattern11)" d="M146 284h-37v37h37v-37Z"/>
  <path fill="#0C4A3F" d="M142.392 22h-28.119a7.607 7.607 0 0 0-7.607 7.607v28.12a7.607 7.607 0 0 0 7.607 7.606h28.119a7.607 7.607 0 0 0 7.607-7.607V29.607A7.607 7.607 0 0 0 142.392 22Z"/>
  <path fill="url(#pattern12)" d="M142 32.666h-26.667V54H142V32.666Z"/>
  <path fill="#0C4A3F" d="M195.726 22h-28.119A7.607 7.607 0 0 0 160 29.607v28.12a7.607 7.607 0 0 0 7.607 7.606h28.119a7.607 7.607 0 0 0 7.607-7.607V29.607A7.607 7.607 0 0 0 195.726 22Z"/>
  <path fill="url(#pattern13)" d="M197 29h-30v30h30V29Z"/>
  <path fill="#0C4A3F" d="M88.726 123H60.607A7.607 7.607 0 0 0 53 130.607v28.119a7.607 7.607 0 0 0 7.607 7.607h28.12a7.607 7.607 0 0 0 7.606-7.607v-28.119A7.607 7.607 0 0 0 88.726 123Z"/>
  <path fill="url(#pattern14)" d="M87.666 133h-24v26.667h24V133Z"/>
  <path fill="#0C4A3F" d="M141.726 123h-28.119a7.607 7.607 0 0 0-7.607 7.607v28.119a7.607 7.607 0 0 0 7.607 7.607h28.119a7.607 7.607 0 0 0 7.607-7.607v-28.119a7.607 7.607 0 0 0-7.607-7.607Z"/>
  <path fill="url(#pattern15)" d="M139 133h-22v24h22v-24Z"/>
  <path fill="#0C4A3F" d="M195.726 123h-28.119a7.607 7.607 0 0 0-7.607 7.607v28.119a7.607 7.607 0 0 0 7.607 7.607h28.119a7.607 7.607 0 0 0 7.607-7.607v-28.119a7.607 7.607 0 0 0-7.607-7.607Z"/>
  <path fill="url(#pattern16)" d="M190 129.667h-16v30h16v-30Z"/>
  <path fill="#0C4A3F" d="M403.168 205.392h-74.55a7.607 7.607 0 0 0-7.607 7.607v74.55a7.607 7.607 0 0 0 7.607 7.607h74.55a7.607 7.607 0 0 0 7.607-7.607v-74.55a7.607 7.607 0 0 0-7.607-7.607Z"/>
  <path fill="url(#pattern17)" d="M410.775 226.693h-89.764v47.164h89.764v-47.164Z"/>
  <path fill="#0C4A3F" d="M631.382 205.392h-74.55a7.607 7.607 0 0 0-7.607 7.607v74.55a7.607 7.607 0 0 0 7.607 7.607h74.55a7.607 7.607 0 0 0 7.607-7.607v-74.55a7.607 7.607 0 0 0-7.607-7.607Z"/>
  <path fill="url(#pattern18)" d="M619.972 225.932h-51.729v47.925h51.729v-47.925Z"/>
  <path fill="#0C4A3F" d="M35.726 381H7.607A7.607 7.607 0 0 0 0 388.607v28.119a7.607 7.607 0 0 0 7.607 7.607h28.12a7.607 7.607 0 0 0 7.606-7.607v-28.119A7.607 7.607 0 0 0 35.726 381Z"/>
  <path fill="url(#pattern19)" d="M33.334 390.333h-24V415h24v-24.667Z"/>
  <path fill="#0C4A3F" d="M35.726 434.333H7.607A7.607 7.607 0 0 0 0 441.94v28.119a7.607 7.607 0 0 0 7.607 7.607h28.12a7.607 7.607 0 0 0 7.606-7.607V441.94a7.607 7.607 0 0 0-7.607-7.607Z"/>
  <path fill="url(#pattern20)" d="M36 447H8v18h28v-18Z"/>
  <path fill="#0C4A3F" d="M195.726 381h-28.119a7.607 7.607 0 0 0-7.607 7.607v28.119a7.607 7.607 0 0 0 7.607 7.607h28.119a7.607 7.607 0 0 0 7.607-7.607v-28.119a7.607 7.607 0 0 0-7.607-7.607Z"/>
  <path fill="url(#pattern21)" d="M194 391h-24v24h24v-24Z"/>
  <path fill="#0C4A3F" d="M89.06 434.333H60.941a7.607 7.607 0 0 0-7.607 7.607v28.119a7.607 7.607 0 0 0 7.607 7.607h28.12a7.607 7.607 0 0 0 7.606-7.607V441.94a7.607 7.607 0 0 0-7.607-7.607Z"/>
  <path fill="url(#pattern22)" d="M92 441H58v30h34v-30Z"/>
  <path fill="#0C4A3F" d="M142.392 434.333h-28.119a7.607 7.607 0 0 0-7.607 7.607v28.119a7.607 7.607 0 0 0 7.607 7.607h28.119a7.607 7.607 0 0 0 7.607-7.607V441.94a7.607 7.607 0 0 0-7.607-7.607Z"/>
  <path fill="url(#pattern23)" d="M148 439h-39v34h39v-34Z"/>
  <path fill="#0C4A3F" d="M195.726 434.333h-28.119A7.607 7.607 0 0 0 160 441.94v28.119a7.607 7.607 0 0 0 7.607 7.607h28.119a7.607 7.607 0 0 0 7.607-7.607V441.94a7.607 7.607 0 0 0-7.607-7.607Z"/>
  <path fill="url(#pattern24)" d="M194 444h-24v24h24v-24Z"/>
  <path fill="#0C4A3F" d="M89.392 381.333H61.273a7.607 7.607 0 0 0-7.607 7.607v28.119a7.607 7.607 0 0 0 7.607 7.607h28.12a7.607 7.607 0 0 0 7.606-7.607V388.94a7.607 7.607 0 0 0-7.607-7.607Z"/>
  <path fill="url(#pattern25)" d="M92.333 386h-34v34h34v-34Z"/>
  <path fill="url(#pattern26)" d="M92.333 386h-34v34h34v-34Z"/>
  <path fill="#0C4A3F" d="M142.06 381.333h-28.119a7.607 7.607 0 0 0-7.607 7.607v28.119a7.607 7.607 0 0 0 7.607 7.607h28.119a7.607 7.607 0 0 0 7.607-7.607V388.94a7.607 7.607 0 0 0-7.607-7.607Z"/>
  <path fill="url(#pattern27)" d="M135 388.667h-14v28.667h14v-28.667Z"/>
  <path fill="white" d="M1.746 371v-7.668h2.327l.415.005c.199.004.389.018.57.043.582.082 1.068.298 1.459.65.39.351.683.798.878 1.341.196.544.293 1.142.293 1.795s-.097 1.251-.293 1.795c-.195.543-.488.99-.878 1.341-.39.352-.877.568-1.46.65a6.871 6.871 0 0 1-.57.043l-.414.005H1.746Zm.809-.751h1.518c.145 0 .301-.003.468-.01a3.21 3.21 0 0 0 .437-.054c.447-.078.807-.259 1.08-.543.278-.284.48-.639.608-1.065.128-.429.192-.9.192-1.411 0-.515-.064-.987-.192-1.416a2.493 2.493 0 0 0-.607-1.065c-.277-.281-.637-.46-1.081-.538a2.77 2.77 0 0 0-.442-.048 7.224 7.224 0 0 0-.463-.016H2.555v6.166Zm7.778.911c-.433 0-.797-.078-1.091-.235a1.582 1.582 0 0 1-.655-.623 1.698 1.698 0 0 1-.219-.846 1.6 1.6 0 0 1 .187-.799c.128-.224.3-.406.516-.548a2.58 2.58 0 0 1 .762-.325c.29-.071.612-.133.964-.187.355-.056.7-.104 1.038-.143.34-.043.639-.084.895-.123l-.277.17c.01-.568-.1-.988-.33-1.262-.231-.273-.632-.41-1.204-.41-.394 0-.728.089-1.001.267-.27.177-.46.458-.57.841l-.761-.224c.131-.514.396-.914.793-1.198.398-.284.914-.426 1.55-.426.525 0 .97.1 1.336.298.37.196.63.48.783.852.071.167.117.354.139.56.02.205.031.415.031.628V371h-.697v-1.443l.202.085c-.195.494-.498.87-.91 1.129-.412.259-.905.389-1.48.389Zm.09-.677c.367 0 .686-.065.96-.197a1.73 1.73 0 0 0 .985-1.315c.042-.184.065-.387.069-.607.003-.224.005-.39.005-.5l.298.154c-.266.036-.555.071-.868.106-.309.036-.614.077-.916.123a7.836 7.836 0 0 0-.809.165 2.197 2.197 0 0 0-.474.197 1.102 1.102 0 0 0-.378.33.888.888 0 0 0-.144.517c0 .167.041.328.123.484.085.157.22.286.404.389.189.103.437.154.746.154Zm7.1.517a3.863 3.863 0 0 1-.958.08 2.135 2.135 0 0 1-.841-.202 1.215 1.215 0 0 1-.56-.565 1.661 1.661 0 0 1-.17-.644c-.007-.22-.01-.471-.01-.751v-5.267h.777v5.235c0 .241.002.444.006.607.007.16.044.302.112.426a.8.8 0 0 0 .606.426c.281.046.627.036 1.039-.032V371Zm-3.77-5.08v-.671h3.77v.671h-3.77Zm6.336 5.24c-.433 0-.797-.078-1.091-.235a1.582 1.582 0 0 1-.655-.623 1.697 1.697 0 0 1-.218-.846 1.6 1.6 0 0 1 .186-.799c.128-.224.3-.406.516-.548.22-.142.474-.251.762-.325.29-.071.612-.133.964-.187.355-.056.7-.104 1.038-.143.34-.043.639-.084.895-.123l-.277.17c.01-.568-.1-.988-.33-1.262-.231-.273-.632-.41-1.204-.41-.394 0-.728.089-1.001.267-.27.177-.46.458-.57.841l-.761-.224c.131-.514.396-.914.793-1.198.398-.284.914-.426 1.55-.426.525 0 .97.1 1.336.298.37.196.63.48.783.852.071.167.117.354.139.56.02.205.032.415.032.628V371h-.698v-1.443l.202.085c-.195.494-.498.87-.91 1.129-.412.259-.905.389-1.48.389Zm.09-.677c.367 0 .686-.065.96-.197a1.73 1.73 0 0 0 .985-1.315c.042-.184.065-.387.069-.607.003-.224.005-.39.005-.5l.298.154c-.266.036-.555.071-.868.106-.308.036-.614.077-.916.123a7.836 7.836 0 0 0-.809.165 2.196 2.196 0 0 0-.474.197 1.101 1.101 0 0 0-.378.33.889.889 0 0 0-.144.517c0 .167.041.328.123.484.085.157.22.286.404.389.189.103.437.154.746.154Zm6.552.677c-.529 0-.976-.133-1.341-.4a2.497 2.497 0 0 1-.831-1.091 4.072 4.072 0 0 1-.282-1.55c0-.582.094-1.1.282-1.555.191-.458.472-.818.841-1.081.37-.262.824-.394 1.363-.394.526 0 .977.133 1.353.4.376.266.664.628.863 1.086.202.458.303.973.303 1.544 0 .575-.101 1.092-.303 1.55a2.583 2.583 0 0 1-.874 1.091c-.38.267-.838.4-1.374.4Zm-2.588-.16v-7.668h.788v3.339h-.085V371h-.703Zm2.508-.57c.402 0 .735-.101 1.002-.303.266-.203.465-.478.596-.826.135-.351.202-.745.202-1.182 0-.433-.065-.823-.197-1.171a1.8 1.8 0 0 0-.601-.826c-.267-.202-.606-.303-1.017-.303-.402 0-.735.097-1.002.293-.262.195-.46.466-.59.814a3.336 3.336 0 0 0-.198 1.193c0 .444.066.842.197 1.193.132.348.33.621.597.82.266.199.603.298 1.011.298Zm5.233.73c-.433 0-.797-.078-1.092-.235a1.583 1.583 0 0 1-.655-.623 1.698 1.698 0 0 1-.218-.846 1.6 1.6 0 0 1 .186-.799c.128-.224.3-.406.517-.548a2.58 2.58 0 0 1 .761-.325c.291-.071.613-.133.964-.187.355-.056.701-.104 1.038-.143.341-.043.64-.084.895-.123l-.277.17c.01-.568-.1-.988-.33-1.262-.23-.273-.632-.41-1.203-.41-.395 0-.728.089-1.002.267-.27.177-.46.458-.57.841l-.76-.224c.13-.514.395-.914.793-1.198.397-.284.914-.426 1.55-.426.525 0 .97.1 1.336.298.369.196.63.48.783.852.07.167.117.354.138.56.021.205.032.415.032.628V371h-.698v-1.443l.203.085c-.195.494-.499.87-.91 1.129-.413.259-.906.389-1.481.389Zm.09-.677c.366 0 .686-.065.959-.197.273-.131.493-.31.66-.537.167-.231.275-.49.325-.778.043-.184.066-.387.07-.607.003-.224.005-.39.005-.5l.298.154a38.59 38.59 0 0 1-.868.106c-.31.036-.614.077-.916.123a7.836 7.836 0 0 0-.81.165 2.199 2.199 0 0 0-.473.197 1.102 1.102 0 0 0-.378.33.888.888 0 0 0-.144.517c0 .167.04.328.122.484.085.157.22.286.405.389.188.103.437.154.745.154Zm6.115.671c-.674 0-1.23-.145-1.666-.436a1.82 1.82 0 0 1-.8-1.214l.8-.133c.085.326.278.587.58.782.305.192.681.288 1.129.288.437 0 .78-.091 1.033-.272a.882.882 0 0 0 .378-.751.706.706 0 0 0-.123-.431c-.078-.113-.24-.218-.484-.314-.245-.096-.61-.209-1.097-.341-.522-.142-.93-.284-1.225-.426-.294-.142-.504-.305-.628-.49a1.219 1.219 0 0 1-.186-.687c0-.326.092-.612.276-.857.185-.248.44-.44.767-.575a2.891 2.891 0 0 1 1.14-.208c.433 0 .82.071 1.16.213.345.139.622.334.831.586.21.252.334.545.373.879l-.799.143a1.15 1.15 0 0 0-.506-.798c-.28-.199-.637-.302-1.07-.309-.408-.011-.74.067-.996.234-.255.163-.383.382-.383.655 0 .153.046.284.138.394.093.107.26.208.5.304.246.095.594.2 1.045.314.528.135.944.277 1.246.426.301.149.516.325.644.527s.192.453.192.751c0 .543-.203.971-.607 1.283-.401.309-.955.463-1.662.463Zm5.67.006c-.56 0-1.047-.125-1.459-.373a2.532 2.532 0 0 1-.953-1.049c-.227-.451-.34-.98-.34-1.587 0-.628.111-1.171.335-1.629.223-.458.537-.812.942-1.06.408-.248.89-.373 1.443-.373.568 0 1.053.132 1.454.394.401.259.705.632.91 1.119.206.486.3 1.066.283 1.741h-.799v-.277c-.014-.746-.176-1.308-.485-1.688-.305-.38-.752-.57-1.342-.57-.617 0-1.091.201-1.421.602-.327.401-.49.973-.49 1.714 0 .725.163 1.287.49 1.689.33.397.797.596 1.4.596.412 0 .77-.094 1.076-.282.309-.192.552-.467.73-.826l.729.283c-.227.5-.563.889-1.007 1.166-.44.273-.939.41-1.496.41Zm-2.2-2.817v-.655h4.394v.655H41.56Zm7.93 2.811c-.675 0-1.23-.145-1.667-.436a1.82 1.82 0 0 1-.799-1.214l.799-.133c.085.326.278.587.58.782.305.192.682.288 1.129.288.437 0 .781-.091 1.033-.272a.882.882 0 0 0 .378-.751.706.706 0 0 0-.122-.431c-.078-.113-.24-.218-.485-.314a11.51 11.51 0 0 0-1.097-.341c-.522-.142-.93-.284-1.225-.426-.294-.142-.504-.305-.628-.49a1.218 1.218 0 0 1-.186-.687c0-.326.092-.612.277-.857.184-.248.44-.44.766-.575a2.891 2.891 0 0 1 1.14-.208c.433 0 .82.071 1.16.213.345.139.622.334.831.586.21.252.334.545.373.879l-.799.143a1.15 1.15 0 0 0-.505-.798c-.28-.199-.638-.302-1.07-.309-.409-.011-.74.067-.996.234-.256.163-.384.382-.384.655 0 .153.046.284.139.394.092.107.259.208.5.304.245.095.593.2 1.044.314.529.135.944.277 1.246.426.302.149.516.325.644.527s.192.453.192.751c0 .543-.203.971-.607 1.283-.401.309-.955.463-1.662.463Z"/>
  <path fill="#0C4A3F" d="M898.393 22.82H754.618a7.607 7.607 0 0 0-7.607 7.608v74.55a7.607 7.607 0 0 0 7.607 7.607h143.775a7.607 7.607 0 0 0 7.607-7.607v-74.55a7.607 7.607 0 0 0-7.607-7.607Z"/>
  <path fill="white" d="M789.267 62V49.04h4.131c.108 0 .321.003.639.009.324.006.636.027.936.063 1.026.132 1.893.498 2.601 1.098.714.594 1.254 1.353 1.62 2.277.366.924.549 1.935.549 3.033 0 1.098-.183 2.109-.549 3.033-.366.924-.906 1.686-1.62 2.286-.708.594-1.575.957-2.601 1.089a9.004 9.004 0 0 1-.927.063c-.324.006-.54.009-.648.009h-4.131Zm2.205-2.043h1.926c.18 0 .408-.006.684-.018.282-.012.531-.039.747-.081.612-.114 1.11-.387 1.494-.819.384-.432.666-.957.846-1.575a6.71 6.71 0 0 0 .279-1.944c0-.702-.093-1.362-.279-1.98-.186-.618-.474-1.137-.864-1.557-.384-.42-.876-.687-1.476-.801a3.846 3.846 0 0 0-.747-.081 16.297 16.297 0 0 0-.684-.018h-1.926v8.874Zm11.317 6.363 1.872-5.139.036 1.512-4.239-10.413h2.259l3.006 7.704h-.576l2.925-7.704h2.169l-5.418 14.04h-2.034ZM817.946 62v-4.68a9.13 9.13 0 0 0-.063-1.017 3.515 3.515 0 0 0-.297-1.071 2.03 2.03 0 0 0-.684-.855c-.3-.222-.708-.333-1.224-.333-.276 0-.549.045-.819.135a1.88 1.88 0 0 0-.738.468c-.216.216-.39.516-.522.9-.132.378-.198.864-.198 1.458l-1.287-.549c0-.828.159-1.578.477-2.25a3.829 3.829 0 0 1 1.422-1.602c.624-.402 1.392-.603 2.304-.603.72 0 1.314.12 1.782.36.468.24.84.546 1.116.918.276.372.48.768.612 1.188.132.42.216.819.252 1.197.042.372.063.675.063.909V62h-2.196Zm-6.741 0v-9.72h1.935v3.015h.261V62h-2.196Zm13.643.27c-.702 0-1.296-.132-1.782-.396a2.8 2.8 0 0 1-1.107-1.071 2.976 2.976 0 0 1-.369-1.467c0-.468.078-.888.234-1.26.156-.378.396-.702.72-.972.324-.276.744-.501 1.26-.675.39-.126.846-.24 1.368-.342a31.946 31.946 0 0 1 1.71-.279c.618-.09 1.263-.186 1.935-.288l-.774.441c.006-.672-.144-1.167-.45-1.485-.306-.318-.822-.477-1.548-.477-.438 0-.861.102-1.269.306-.408.204-.693.555-.855 1.053l-1.98-.621a3.679 3.679 0 0 1 1.368-1.98c.678-.498 1.59-.747 2.736-.747.864 0 1.623.141 2.277.423.66.282 1.149.744 1.467 1.386.174.342.279.693.315 1.053.036.354.054.741.054 1.161V62h-1.899v-2.106l.315.342c-.438.702-.951 1.218-1.539 1.548-.582.324-1.311.486-2.187.486Zm.432-1.728c.492 0 .912-.087 1.26-.261.348-.174.624-.387.828-.639.21-.252.351-.489.423-.711.114-.276.177-.591.189-.945.018-.36.027-.651.027-.873l.666.198c-.654.102-1.215.192-1.683.27-.468.078-.87.153-1.206.225a7.683 7.683 0 0 0-.891.225c-.252.09-.465.195-.639.315s-.309.258-.405.414a1.08 1.08 0 0 0-.135.549c0 .24.06.453.18.639.12.18.294.324.522.432.234.108.522.162.864.162ZM843.815 62v-5.904c0-.666-.165-1.185-.495-1.557-.33-.378-.777-.567-1.341-.567-.348 0-.66.081-.936.243-.276.156-.495.39-.657.702-.162.306-.243.672-.243 1.098l-.963-.567c-.006-.672.144-1.263.45-1.773a3.288 3.288 0 0 1 1.26-1.206 3.623 3.623 0 0 1 1.764-.432c1.074 0 1.896.324 2.466.972.576.642.864 1.488.864 2.538V62h-2.169Zm-11.691 0v-9.72h1.917v3.015h.27V62h-2.187Zm5.859 0v-5.877c0-.678-.165-1.206-.495-1.584-.33-.378-.78-.567-1.35-.567-.552 0-.996.189-1.332.567-.33.378-.495.87-.495 1.476l-.972-.648c0-.63.156-1.197.468-1.701.312-.504.732-.9 1.26-1.188a3.651 3.651 0 0 1 1.791-.441c.726 0 1.332.156 1.818.468.492.306.858.726 1.098 1.26.246.528.369 1.125.369 1.791V62h-2.16Zm10.168-11.196v-1.989h2.169v1.989h-2.169Zm0 11.196v-9.72h2.169V62h-2.169Zm8.726.27c-1.002 0-1.857-.222-2.565-.666a4.434 4.434 0 0 1-1.629-1.836c-.372-.774-.561-1.65-.567-2.628.006-.996.201-1.878.585-2.646.39-.774.942-1.38 1.656-1.818.714-.444 1.563-.666 2.547-.666 1.104 0 2.037.279 2.799.837.768.552 1.269 1.308 1.503 2.268l-2.16.585c-.168-.522-.447-.927-.837-1.215a2.155 2.155 0 0 0-1.332-.441c-.564 0-1.029.135-1.395.405-.366.264-.636.63-.81 1.098-.174.468-.261.999-.261 1.593 0 .924.207 1.671.621 2.241.414.57 1.029.855 1.845.855.576 0 1.029-.132 1.359-.396.336-.264.588-.645.756-1.143l2.214.495c-.3.99-.825 1.752-1.575 2.286-.75.528-1.668.792-2.754.792ZM776.665 87l-4.086-12.96h2.232l3.42 10.854 3.465-10.854h2.232L779.842 87h-3.177Zm8.084-11.196v-1.989h2.169v1.989h-2.169Zm0 11.196v-9.72h2.169V87h-2.169Zm8.258.27c-1.2 0-2.175-.27-2.925-.81s-1.206-1.299-1.368-2.277l2.214-.342c.114.48.366.858.756 1.134.39.276.882.414 1.476.414.522 0 .924-.102 1.206-.306.288-.21.432-.495.432-.855 0-.222-.054-.399-.162-.531-.102-.138-.33-.27-.684-.396a21.768 21.768 0 0 0-1.629-.477c-.816-.216-1.464-.447-1.944-.693-.48-.252-.825-.549-1.035-.891-.21-.342-.315-.756-.315-1.242 0-.606.159-1.134.477-1.584.318-.45.762-.795 1.332-1.035.57-.246 1.242-.369 2.016-.369.756 0 1.425.117 2.007.351.588.234 1.062.567 1.422.999.36.432.582.939.666 1.521l-2.214.396a1.394 1.394 0 0 0-.567-.981c-.318-.24-.744-.375-1.278-.405-.51-.03-.921.048-1.233.234-.312.18-.468.435-.468.765 0 .186.063.345.189.477s.378.264.756.396c.384.132.954.294 1.71.486.774.198 1.392.426 1.854.684.468.252.804.555 1.008.909.21.354.315.783.315 1.287 0 .978-.357 1.746-1.071 2.304-.708.558-1.689.837-2.943.837Zm9.27.009c-.72 0-1.314-.12-1.782-.36a3.147 3.147 0 0 1-1.116-.918 3.996 3.996 0 0 1-.612-1.188 6.359 6.359 0 0 1-.261-1.188 10.117 10.117 0 0 1-.054-.918V77.28h2.196v4.68c0 .3.021.639.063 1.017.042.372.138.732.288 1.08.156.342.384.624.684.846.306.222.717.333 1.233.333.276 0 .549-.045.819-.135.27-.09.513-.243.729-.459.222-.222.399-.525.531-.909s.198-.87.198-1.458l1.287.549c0 .828-.162 1.578-.486 2.25a3.827 3.827 0 0 1-1.413 1.611c-.624.396-1.392.594-2.304.594Zm3.177-.279v-3.015h-.261V77.28h2.178V87h-1.917Zm6.804.27c-.702 0-1.296-.132-1.782-.396a2.8 2.8 0 0 1-1.107-1.071 2.976 2.976 0 0 1-.369-1.467c0-.468.078-.888.234-1.26.156-.378.396-.702.72-.972.324-.276.744-.501 1.26-.675.39-.126.846-.24 1.368-.342a31.946 31.946 0 0 1 1.71-.279c.618-.09 1.263-.186 1.935-.288l-.774.441c.006-.672-.144-1.167-.45-1.485-.306-.318-.822-.477-1.548-.477-.438 0-.861.102-1.269.306-.408.204-.693.555-.855 1.053l-1.98-.621a3.679 3.679 0 0 1 1.368-1.98c.678-.498 1.59-.747 2.736-.747.864 0 1.623.141 2.277.423.66.282 1.149.744 1.467 1.386.174.342.279.693.315 1.053.036.354.054.741.054 1.161V87h-1.899v-2.106l.315.342c-.438.702-.951 1.218-1.539 1.548-.582.324-1.311.486-2.187.486Zm.432-1.728c.492 0 .912-.087 1.26-.261.348-.174.624-.387.828-.639.21-.252.351-.489.423-.711.114-.276.177-.591.189-.945.018-.36.027-.651.027-.873l.666.198c-.654.102-1.215.192-1.683.27-.468.078-.87.153-1.206.225a7.683 7.683 0 0 0-.891.225c-.252.09-.465.195-.639.315s-.309.258-.405.414a1.08 1.08 0 0 0-.135.549c0 .24.06.453.18.639.12.18.294.324.522.432.234.108.522.162.864.162ZM819.731 87V73.77h2.169V87h-2.169Zm4.685-11.196v-1.989h2.169v1.989h-2.169Zm0 11.196v-9.72h2.169V87h-2.169Zm3.605 0v-.297l5.148-7.524h-4.626V77.28h8.001v.306l-5.13 7.515h4.914V87h-8.307Zm12.31.27c-.702 0-1.296-.132-1.782-.396a2.8 2.8 0 0 1-1.107-1.071 2.976 2.976 0 0 1-.369-1.467c0-.468.078-.888.234-1.26.156-.378.396-.702.72-.972.324-.276.744-.501 1.26-.675.39-.126.846-.24 1.368-.342a31.946 31.946 0 0 1 1.71-.279c.618-.09 1.263-.186 1.935-.288l-.774.441c.006-.672-.144-1.167-.45-1.485-.306-.318-.822-.477-1.548-.477-.438 0-.861.102-1.269.306-.408.204-.693.555-.855 1.053l-1.98-.621a3.679 3.679 0 0 1 1.368-1.98c.678-.498 1.59-.747 2.736-.747.864 0 1.623.141 2.277.423.66.282 1.149.744 1.467 1.386.174.342.279.693.315 1.053.036.354.054.741.054 1.161V87h-1.899v-2.106l.315.342c-.438.702-.951 1.218-1.539 1.548-.582.324-1.311.486-2.187.486Zm.432-1.728c.492 0 .912-.087 1.26-.261.348-.174.624-.387.828-.639.21-.252.351-.489.423-.711.114-.276.177-.591.189-.945.018-.36.027-.651.027-.873l.666.198c-.654.102-1.215.192-1.683.27-.468.078-.87.153-1.206.225a7.683 7.683 0 0 0-.891.225c-.252.09-.465.195-.639.315s-.309.258-.405.414a1.08 1.08 0 0 0-.135.549c0 .24.06.453.18.639.12.18.294.324.522.432.234.108.522.162.864.162ZM853.321 87a8.861 8.861 0 0 1-1.89.153 4.332 4.332 0 0 1-1.647-.333 2.283 2.283 0 0 1-1.107-1.017 2.899 2.899 0 0 1-.351-1.287 54.764 54.764 0 0 1-.018-1.485V74.58h2.16v8.325c0 .39.003.732.009 1.026.012.294.075.534.189.72.216.36.561.561 1.035.603a6.952 6.952 0 0 0 1.62-.072V87Zm-6.777-8.019V77.28h6.777v1.701h-6.777Zm8.687-3.177v-1.989h2.169v1.989h-2.169Zm0 11.196v-9.72h2.169V87h-2.169Zm8.798.27c-.972 0-1.821-.219-2.547-.657a4.513 4.513 0 0 1-1.692-1.809c-.396-.774-.594-1.662-.594-2.664 0-1.02.204-1.914.612-2.682a4.513 4.513 0 0 1 1.701-1.8c.726-.432 1.566-.648 2.52-.648.978 0 1.83.219 2.556.657a4.498 4.498 0 0 1 1.692 1.818c.402.768.603 1.653.603 2.655 0 1.008-.204 1.899-.612 2.673a4.513 4.513 0 0 1-1.692 1.809c-.726.432-1.575.648-2.547.648Zm0-2.034c.864 0 1.506-.288 1.926-.864.42-.576.63-1.32.63-2.232 0-.942-.213-1.692-.639-2.25-.426-.564-1.065-.846-1.917-.846-.582 0-1.062.132-1.44.396-.372.258-.648.621-.828 1.089-.18.462-.27.999-.27 1.611 0 .942.213 1.695.639 2.259.432.558 1.065.837 1.899.837ZM877.226 87v-4.68a9.13 9.13 0 0 0-.063-1.017 3.515 3.515 0 0 0-.297-1.071 2.03 2.03 0 0 0-.684-.855c-.3-.222-.708-.333-1.224-.333-.276 0-.549.045-.819.135a1.88 1.88 0 0 0-.738.468c-.216.216-.39.516-.522.9-.132.378-.198.864-.198 1.458l-1.287-.549c0-.828.159-1.578.477-2.25a3.829 3.829 0 0 1 1.422-1.602c.624-.402 1.392-.603 2.304-.603.72 0 1.314.12 1.782.36.468.24.84.546 1.116.918.276.372.48.768.612 1.188.132.42.216.819.252 1.197.042.372.063.675.063.909V87h-2.196Zm-6.741 0v-9.72h1.935v3.015h.261V87h-2.196Z"/>
  <path fill="#0C4A3F" d="M898.393 152H754.618a7.607 7.607 0 0 0-7.607 7.607v74.55a7.607 7.607 0 0 0 7.607 7.607h143.775a7.607 7.607 0 0 0 7.607-7.607v-74.55a7.607 7.607 0 0 0-7.607-7.607Z"/>
  <path fill="white" d="m807.735 203 4.086-12.96h3.177l4.086 12.96h-2.232l-3.708-11.628h.486L809.967 203h-2.232Zm2.277-2.808v-2.025h6.804v2.025h-6.804ZM820.351 203v-12.96h5.355c.126 0 .288.006.486.018.198.006.381.024.549.054.75.114 1.368.363 1.854.747.492.384.855.87 1.089 1.458.24.582.36 1.23.36 1.944 0 .708-.12 1.356-.36 1.944a3.498 3.498 0 0 1-1.098 1.449c-.486.384-1.101.633-1.845.747a6.786 6.786 0 0 1-.558.054 8.267 8.267 0 0 1-.477.018h-3.186V203h-2.169Zm2.169-6.552h3.096c.12 0 .255-.006.405-.018.15-.012.288-.036.414-.072.36-.09.642-.249.846-.477.21-.228.357-.486.441-.774.09-.288.135-.57.135-.846s-.045-.558-.135-.846a1.92 1.92 0 0 0-.441-.783c-.204-.228-.486-.387-.846-.477a1.761 1.761 0 0 0-.414-.063 5.127 5.127 0 0 0-.405-.018h-3.096v4.374Zm8.967 6.552v-12.96h1.953l4.482 9.18 4.482-9.18h1.953V203h-2.025v-8.307L838.354 203h-.864l-3.969-8.307V203h-2.034Z"/>
  <defs>
    <pattern id="pattern0" width="1" height="1" patternContentUnits="objectBoundingBox">
      <use xlink:href="#image0_1_95" transform="matrix(.002 0 0 .01241 0 -2.603)"/>
    </pattern>
    <pattern id="pattern1" width="1" height="1" patternContentUnits="objectBoundingBox">
      <use xlink:href="#image1_1_95" transform="matrix(.00097 0 0 .00107 -.012 0)"/>
    </pattern>
    <pattern id="pattern2" width="1" height="1" patternContentUnits="objectBoundingBox">
      <use xlink:href="#image2_1_95" transform="matrix(.00382 0 0 .00333 -.01 0)"/>
    </pattern>
    <pattern id="pattern3" width="1" height="1" patternContentUnits="objectBoundingBox">
      <use xlink:href="#image3_1_95" transform="scale(.00195)"/>
    </pattern>
    <pattern id="pattern4" width="1" height="1" patternContentUnits="objectBoundingBox">
      <use xlink:href="#image4_1_95" transform="matrix(.00152 0 0 .00267 -.005 0)"/>
    </pattern>
    <pattern id="pattern5" width="1" height="1" patternContentUnits="objectBoundingBox">
      <use xlink:href="#image5_1_95" transform="matrix(.0022 0 0 .00198 0 -.006)"/>
    </pattern>
    <pattern id="pattern6" width="1" height="1" patternContentUnits="objectBoundingBox">
      <use xlink:href="#image6_1_95" transform="matrix(.00446 0 0 .0046 0 -.005)"/>
    </pattern>
    <pattern id="pattern7" width="1" height="1" patternContentUnits="objectBoundingBox">
      <use xlink:href="#image7_1_95" transform="matrix(.00044 0 0 .00046 -.353 0)"/>
    </pattern>
    <pattern id="pattern8" width="1" height="1" patternContentUnits="objectBoundingBox">
      <use xlink:href="#image8_1_95" transform="scale(.00049)"/>
    </pattern>
    <pattern id="pattern9" width="1" height="1" patternContentUnits="objectBoundingBox">
      <use xlink:href="#image9_1_95" transform="scale(.00049)"/>
    </pattern>
    <pattern id="pattern10" width="1" height="1" patternContentUnits="objectBoundingBox">
      <use xlink:href="#image10_1_95" transform="scale(.00444)"/>
    </pattern>
    <pattern id="pattern11" width="1" height="1" patternContentUnits="objectBoundingBox">
      <use xlink:href="#image11_1_95" transform="translate(-.25) scale(.0005)"/>
    </pattern>
    <pattern id="pattern12" width="1" height="1" patternContentUnits="objectBoundingBox">
      <use xlink:href="#image12_1_95" transform="matrix(.00049 0 0 .00061 0 -.002)"/>
    </pattern>
    <pattern id="pattern13" width="1" height="1" patternContentUnits="objectBoundingBox">
      <use xlink:href="#image13_1_95" transform="scale(.005)"/>
    </pattern>
    <pattern id="pattern14" width="1" height="1" patternContentUnits="objectBoundingBox">
      <use xlink:href="#image14_1_95" transform="matrix(.00054 0 0 .00049 -.007 0)"/>
    </pattern>
    <pattern id="pattern15" width="1" height="1" patternContentUnits="objectBoundingBox">
      <use xlink:href="#image15_1_95" transform="matrix(.00055 0 0 .0005 0 -.015)"/>
    </pattern>
    <pattern id="pattern16" width="1" height="1" patternContentUnits="objectBoundingBox">
      <use xlink:href="#image16_1_95" transform="matrix(.00085 0 0 .00046 -.013 0)"/>
    </pattern>
    <pattern id="pattern17" width="1" height="1" patternContentUnits="objectBoundingBox">
      <use xlink:href="#image17_1_95" transform="matrix(.00072 0 0 .00136 -.002 0)"/>
    </pattern>
    <pattern id="pattern18" width="1" height="1" patternContentUnits="objectBoundingBox">
      <use xlink:href="#image18_1_95" transform="matrix(.00311 0 0 .00334 -.44 -.252)"/>
    </pattern>
    <pattern id="pattern19" width="1" height="1" patternContentUnits="objectBoundingBox">
      <use xlink:href="#image19_1_95" transform="matrix(.001 0 0 .00098 0 -.002)"/>
    </pattern>
    <pattern id="pattern20" width="1" height="1" patternContentUnits="objectBoundingBox">
      <use xlink:href="#image20_1_95" transform="matrix(.0039 0 0 .00608 0 -.01)"/>
    </pattern>
    <pattern id="pattern21" width="1" height="1" patternContentUnits="objectBoundingBox">
      <use xlink:href="#image21_1_95" transform="translate(-.002) scale(.00064)"/>
    </pattern>
    <pattern id="pattern22" width="1" height="1" patternContentUnits="objectBoundingBox">
      <use xlink:href="#image22_1_95" transform="matrix(.0017 0 0 .00193 -.281 -.116)"/>
    </pattern>
    <pattern id="pattern23" width="1" height="1" patternContentUnits="objectBoundingBox">
      <use xlink:href="#image23_1_95" transform="matrix(.00044 0 0 .0005 -.154 0)"/>
    </pattern>
    <pattern id="pattern24" width="1" height="1" patternContentUnits="objectBoundingBox">
      <use xlink:href="#image24_1_95" transform="translate(0 -.008) scale(.00397)"/>
    </pattern>
    <pattern id="pattern25" width="1" height="1" patternContentUnits="objectBoundingBox">
      <use xlink:href="#image25_1_95" transform="scale(.00042)"/>
    </pattern>
    <pattern id="pattern26" width="1" height="1" patternContentUnits="objectBoundingBox">
      <use xlink:href="#image26_1_95" transform="scale(.00042)"/>
    </pattern>
    <pattern id="pattern27" width="1" height="1" patternContentUnits="objectBoundingBox">
      <use xlink:href="#image27_1_95" transform="scale(.00302 .00145)"/>
    </pattern>
  </defs>
</svg>
